<?xml version="1.0" encoding="utf-8"?>
<!-- Generator: Adobe Illustrator 15.0.0, SVG Export Plug-In . SVG Version: 6.00 Build 0)  -->
<!DOCTYPE svg PUBLIC "-//W3C//DTD SVG 1.1//EN" "http://www.w3.org/Graphics/SVG/1.1/DTD/svg11.dtd">
<svg version="1.1" id="Layer_1" xmlns="http://www.w3.org/2000/svg" xmlns:xlink="http://www.w3.org/1999/xlink" x="0px" y="0px"
	 width="99.326px" height="219.391px" viewBox="0 0 99.326 219.391" enable-background="new 0 0 99.326 219.391"
	 xml:space="preserve">
<path d="M46.375,215.581c0,2.104-1.705,3.811-3.81,3.811s-3.809-1.706-3.809-3.811v-68.473c0-2.104,1.704-3.81,3.809-3.81
	s3.81,1.705,3.81,3.81V215.581z"/>
<path d="M60.57,215.581c0,2.104-1.706,3.811-3.811,3.811c-2.104,0-3.809-1.706-3.809-3.811v-68.473c0-2.104,1.705-3.81,3.809-3.81
	c2.104,0,3.811,1.705,3.811,3.81V215.581z"/>
<path d="M99.326,167.248V90.469C99.193,63.153,77.01,41.05,49.663,41.05C22.37,41.05,0.22,63.228,0.002,90.469L0,167.248
	l0.011,0.106H0v5.092l4.446,4.724l6.392-6.393l6.392,6.393l6.394-6.393l6.392,6.393l6.394-6.393l6.392,6.393l6.392-6.393
	l6.394,6.393l6.392-6.393l6.394,6.393l6.392-6.393l6.394,6.393l6.392-6.393l6.393,6.393l5.387-5.271v-4.544h-0.012L99.326,167.248z"
	/>
<path fill="#FFFFFF" d="M70.387,88.095c0,11.445-9.278,20.724-20.725,20.724c-11.444,0-20.723-9.279-20.723-20.724
	s9.278-20.724,20.723-20.724C61.108,67.371,70.387,76.65,70.387,88.095"/>
<rect x="48.251" y="80.395" transform="matrix(0.7069 0.7073 -0.7073 0.7069 76.8624 -9.308)" width="2.824" height="15.399"/>
<rect x="48.251" y="80.395" transform="matrix(0.7071 -0.7071 0.7071 0.7071 -47.7464 60.9195)" width="2.824" height="15.4"/>
<rect x="41.244" y="168.853" fill="#FFFFFF" width="2.715" height="46.147"/>
<path fill="#FFFFFF" d="M43.184,168.454c0,0.979-0.794,1.772-1.773,1.772c-0.979,0-1.772-0.794-1.772-1.772
	c0-0.979,0.794-1.773,1.772-1.773C42.39,166.68,43.184,167.474,43.184,168.454"/>
<path fill="#FFFFFF" d="M45.563,168.454c0,0.979-0.794,1.772-1.773,1.772c-0.979,0-1.771-0.794-1.771-1.772
	c0-0.979,0.793-1.773,1.771-1.773C44.77,166.68,45.563,167.474,45.563,168.454"/>
<path fill="#FFFFFF" d="M42.601,214.612c-0.979,0-1.773-0.794-1.773-1.772c0-0.979,0.794-1.772,1.773-1.772
	c0.979,0,1.772,0.793,1.772,1.772C44.373,213.818,43.579,214.612,42.601,214.612"/>
<path fill="#FFFFFF" d="M42.601,216.992c-0.979,0-1.773-0.794-1.773-1.772c0-0.979,0.794-1.772,1.773-1.772
	c0.979,0,1.772,0.793,1.772,1.772C44.373,216.198,43.579,216.992,42.601,216.992"/>
<rect x="55.369" y="168.853" fill="#FFFFFF" width="2.715" height="46.147"/>
<path fill="#FFFFFF" d="M57.309,168.454c0,0.979-0.794,1.772-1.773,1.772c-0.979,0-1.772-0.794-1.772-1.772
	c0-0.979,0.794-1.773,1.772-1.773C56.515,166.68,57.309,167.474,57.309,168.454"/>
<path fill="#FFFFFF" d="M59.688,168.454c0,0.979-0.794,1.772-1.773,1.772c-0.979,0-1.771-0.794-1.771-1.772
	c0-0.979,0.793-1.773,1.771-1.773C58.895,166.68,59.688,167.474,59.688,168.454"/>
<path fill="#FFFFFF" d="M56.726,214.612c-0.979,0-1.773-0.794-1.773-1.772c0-0.979,0.794-1.772,1.773-1.772
	c0.979,0,1.772,0.793,1.772,1.772C58.498,213.818,57.704,214.612,56.726,214.612"/>
<path fill="#FFFFFF" d="M56.726,216.992c-0.979,0-1.773-0.794-1.773-1.772c0-0.979,0.794-1.772,1.773-1.772
	c0.979,0,1.772,0.793,1.772,1.772C58.498,216.198,57.704,216.992,56.726,216.992"/>
<path fill="#FFFFFF" d="M13.23,155.232c0.099-0.899,0.199-1.799,0.298-2.698c23.903,2.639,48.022,2.639,71.926,0
	c0.099,0.899,0.199,1.799,0.298,2.698C61.651,157.893,37.331,157.893,13.23,155.232"/>
<path fill="#FFFFFF" d="M85.854,154.473c-0.979,0-1.773-0.794-1.773-1.772c0-0.979,0.795-1.772,1.773-1.772s1.773,0.793,1.773,1.772
	C87.627,153.679,86.832,154.473,85.854,154.473"/>
<path fill="#FFFFFF" d="M85.854,156.853c-0.979,0-1.773-0.794-1.773-1.772c0-0.979,0.795-1.772,1.773-1.772s1.773,0.793,1.773,1.772
	C87.627,156.059,86.832,156.853,85.854,156.853"/>
<path fill="#FFFFFF" d="M13.473,154.473c-0.979,0-1.773-0.794-1.773-1.772c0-0.979,0.795-1.772,1.773-1.772s1.773,0.793,1.773,1.772
	C15.246,153.679,14.451,154.473,13.473,154.473"/>
<path fill="#FFFFFF" d="M13.473,156.853c-0.979,0-1.773-0.794-1.773-1.772c0-0.979,0.795-1.772,1.773-1.772s1.773,0.793,1.773,1.772
	C15.246,156.059,14.451,156.853,13.473,156.853"/>
<path fill="#FFFFFF" d="M13.23,148.036c0.099-0.9,0.199-1.799,0.298-2.699c23.903,2.639,48.022,2.639,71.926,0
	c0.099,0.9,0.199,1.799,0.298,2.699C61.651,150.697,37.331,150.697,13.23,148.036"/>
<path fill="#FFFFFF" d="M85.854,147.277c-0.979,0-1.773-0.794-1.773-1.773c0-0.979,0.795-1.771,1.773-1.771s1.773,0.793,1.773,1.771
	C87.627,146.483,86.832,147.277,85.854,147.277"/>
<path fill="#FFFFFF" d="M85.854,149.657c-0.979,0-1.773-0.794-1.773-1.773c0-0.979,0.795-1.771,1.773-1.771s1.773,0.793,1.773,1.771
	C87.627,148.863,86.832,149.657,85.854,149.657"/>
<path fill="#FFFFFF" d="M13.473,147.277c-0.979,0-1.773-0.794-1.773-1.773c0-0.979,0.795-1.771,1.773-1.771s1.773,0.793,1.773,1.771
	C15.246,146.483,14.451,147.277,13.473,147.277"/>
<path fill="#FFFFFF" d="M13.473,149.657c-0.979,0-1.773-0.794-1.773-1.773c0-0.979,0.795-1.771,1.773-1.771s1.773,0.793,1.773,1.771
	C15.246,148.863,14.451,149.657,13.473,149.657"/>
<path fill="#FFFFFF" d="M13.23,140.838c0.099-0.899,0.199-1.799,0.298-2.699c23.903,2.64,48.022,2.64,71.926,0
	c0.099,0.9,0.199,1.8,0.298,2.699C61.651,143.5,37.331,143.5,13.23,140.838"/>
<path fill="#FFFFFF" d="M85.854,140.08c-0.979,0-1.773-0.794-1.773-1.772c0-0.979,0.795-1.772,1.773-1.772s1.773,0.793,1.773,1.772
	C87.627,139.286,86.832,140.08,85.854,140.08"/>
<path fill="#FFFFFF" d="M85.854,142.459c-0.979,0-1.773-0.794-1.773-1.772c0-0.979,0.795-1.772,1.773-1.772s1.773,0.793,1.773,1.772
	C87.627,141.666,86.832,142.459,85.854,142.459"/>
<path fill="#FFFFFF" d="M13.473,140.08c-0.979,0-1.773-0.794-1.773-1.772c0-0.979,0.795-1.772,1.773-1.772s1.773,0.793,1.773,1.772
	C15.246,139.286,14.451,140.08,13.473,140.08"/>
<path fill="#FFFFFF" d="M13.473,142.459c-0.979,0-1.773-0.794-1.773-1.772c0-0.979,0.795-1.772,1.773-1.772s1.773,0.793,1.773,1.772
	C15.246,141.666,14.451,142.459,13.473,142.459"/>
<path fill="#FFFFFF" d="M13.23,133.642c0.099-0.9,0.199-1.8,0.298-2.699c23.903,2.639,48.022,2.639,71.926,0
	c0.099,0.899,0.199,1.799,0.298,2.699C61.651,136.302,37.331,136.302,13.23,133.642"/>
<path fill="#FFFFFF" d="M85.854,132.883c-0.979,0-1.773-0.794-1.773-1.773c0-0.979,0.795-1.771,1.773-1.771s1.773,0.793,1.773,1.771
	C87.627,132.089,86.832,132.883,85.854,132.883"/>
<path fill="#FFFFFF" d="M85.854,135.263c-0.979,0-1.773-0.794-1.773-1.773c0-0.979,0.795-1.771,1.773-1.771s1.773,0.793,1.773,1.771
	C87.627,134.469,86.832,135.263,85.854,135.263"/>
<path fill="#FFFFFF" d="M13.473,132.883c-0.979,0-1.773-0.794-1.773-1.773c0-0.979,0.795-1.771,1.773-1.771s1.773,0.793,1.773,1.771
	C15.246,132.089,14.451,132.883,13.473,132.883"/>
<path fill="#FFFFFF" d="M13.473,135.263c-0.979,0-1.773-0.794-1.773-1.773c0-0.979,0.795-1.771,1.773-1.771s1.773,0.793,1.773,1.771
	C15.246,134.469,14.451,135.263,13.473,135.263"/>
<path fill="#FFFFFF" d="M13.23,126.445c0.099-0.9,0.199-1.799,0.298-2.699c23.903,2.64,48.022,2.64,71.926,0
	c0.099,0.9,0.199,1.799,0.298,2.699C61.651,129.106,37.331,129.106,13.23,126.445"/>
<path fill="#FFFFFF" d="M85.854,125.686c-0.979,0-1.773-0.794-1.773-1.772c0-0.979,0.795-1.772,1.773-1.772s1.773,0.793,1.773,1.772
	C87.627,124.892,86.832,125.686,85.854,125.686"/>
<path fill="#FFFFFF" d="M85.854,128.066c-0.979,0-1.773-0.794-1.773-1.773c0-0.979,0.795-1.771,1.773-1.771s1.773,0.793,1.773,1.771
	C87.627,127.272,86.832,128.066,85.854,128.066"/>
<path fill="#FFFFFF" d="M13.473,125.686c-0.979,0-1.773-0.794-1.773-1.772c0-0.979,0.795-1.772,1.773-1.772s1.773,0.793,1.773,1.772
	C15.246,124.892,14.451,125.686,13.473,125.686"/>
<path fill="#FFFFFF" d="M13.473,128.066c-0.979,0-1.773-0.794-1.773-1.773c0-0.979,0.795-1.771,1.773-1.771s1.773,0.793,1.773,1.771
	C15.246,127.272,14.451,128.066,13.473,128.066"/>
<path fill="#FFFFFF" d="M13.23,119.248c0.099-0.899,0.199-1.799,0.298-2.698c23.903,2.639,48.022,2.639,71.926,0
	c0.099,0.899,0.199,1.799,0.298,2.698C61.651,121.909,37.331,121.909,13.23,119.248"/>
<path fill="#FFFFFF" d="M85.854,118.49c-0.979,0-1.773-0.795-1.773-1.773s0.795-1.772,1.773-1.772s1.773,0.794,1.773,1.772
	S86.832,118.49,85.854,118.49"/>
<path fill="#FFFFFF" d="M85.854,120.869c-0.979,0-1.773-0.793-1.773-1.772s0.795-1.772,1.773-1.772s1.773,0.793,1.773,1.772
	S86.832,120.869,85.854,120.869"/>
<path fill="#FFFFFF" d="M13.473,118.49c-0.979,0-1.773-0.795-1.773-1.773s0.795-1.772,1.773-1.772s1.773,0.794,1.773,1.772
	S14.451,118.49,13.473,118.49"/>
<path fill="#FFFFFF" d="M13.473,120.869c-0.979,0-1.773-0.793-1.773-1.772s0.795-1.772,1.773-1.772s1.773,0.793,1.773,1.772
	S14.451,120.869,13.473,120.869"/>
<polygon points="91.741,0 49.663,35.345 7.585,0 7.585,67.916 49.663,62.065 91.741,67.916 "/>
<polygon points="52.194,34.126 51.958,29.36 56.613,30.409 "/>
<polygon points="57.027,30.061 56.791,25.295 61.446,26.344 "/>
<polygon points="61.86,25.996 61.624,21.23 66.279,22.279 "/>
<polygon points="66.693,21.931 66.457,17.165 71.112,18.214 "/>
<polygon points="71.526,17.866 71.291,13.1 75.945,14.149 "/>
<polygon points="76.359,13.8 76.124,9.035 80.779,10.083 "/>
<polygon points="81.193,9.735 80.957,4.969 85.612,6.019 "/>
<polygon points="47.132,34.126 47.368,29.36 42.713,30.409 "/>
<polygon points="42.299,30.061 42.535,25.295 37.88,26.344 "/>
<polygon points="37.466,25.996 37.701,21.23 33.047,22.279 "/>
<polygon points="32.633,21.931 32.868,17.165 28.214,18.214 "/>
<polygon points="27.8,17.866 28.035,13.1 23.381,14.149 "/>
<polygon points="22.967,13.8 23.202,9.035 18.547,10.083 "/>
<polygon points="18.133,9.735 18.369,4.969 13.714,6.019 "/>
<path fill="#FFFFFF" d="M13.585,55.741h72.156v1H13.585V55.741z M13.585,50.741h72.156v1H13.585V50.741z M13.585,45.741h72.156v1
	H13.585V45.741z M51.378,41.741l1.19-1h33.173v1H51.378z M13.585,41.741v-1h33.173l1.19,1H13.585z M57.33,36.741l1.19-1h27.221v1
	H57.33z M13.585,36.741v-1h27.221l1.19,1H13.585z M63.283,31.741l1.19-1h21.268v1H63.283z M13.585,31.741v-1h21.268l1.19,1H13.585z
	 M69.234,26.741l1.191-1h15.315v1H69.234z M13.585,26.741v-1H28.9l1.19,1H13.585z M75.188,21.741l1.19-1h9.363v1H75.188z
	 M13.585,21.741v-1h9.363l1.19,1H13.585z M81.141,16.741l1.19-1h3.41v1H81.141z M13.585,16.741v-1h3.41l1.19,1H13.585z"/>
</svg>
