<?xml version="1.0" encoding="utf-8"?>
<!-- Generator: Adobe Illustrator 15.0.0, SVG Export Plug-In . SVG Version: 6.00 Build 0)  -->
<!DOCTYPE svg PUBLIC "-//W3C//DTD SVG 1.1//EN" "http://www.w3.org/Graphics/SVG/1.1/DTD/svg11.dtd">
<svg version="1.1" id="Layer_1" xmlns="http://www.w3.org/2000/svg" xmlns:xlink="http://www.w3.org/1999/xlink" x="0px" y="0px"
	 width="161.454px" height="214.824px" viewBox="0 0 161.454 214.824" enable-background="new 0 0 161.454 214.824"
	 xml:space="preserve">
<path fill="#009DD0" d="M154.487,134.527c0-39.642-32.136-71.776-71.776-71.776s-71.777,32.135-71.777,71.776
	c0,39.641,32.136,71.775,71.777,71.775S154.487,174.168,154.487,134.527"/>
<path fill="#009DD0" d="M154.487,134.527c0-39.642-32.136-71.776-71.776-71.776s-71.777,32.135-71.777,71.776
	c0,39.641,32.136,71.775,71.777,71.775S154.487,174.168,154.487,134.527"/>
<path fill="#009DD0" d="M161.454,7.312c0,9.749-36.143,50.709-80.727,50.709S0,17.061,0,7.312S161.454-2.438,161.454,7.312"/>
<path fill="#007DA6" d="M150.956,8.646c0,2.55-31.442,4.618-70.229,4.618c-38.786,0-70.228-2.068-70.228-4.618
	c0-2.551,31.442-4.618,70.228-4.618C119.513,4.028,150.956,6.095,150.956,8.646"/>
<path fill="#009DD0" d="M80.283,208.011c0,3.748-1.31,6.813-2.912,6.813c-1.601,0-2.912-3.065-2.912-6.813v-17.004
	c0-3.748,1.311-6.813,2.912-6.813c1.602,0,2.912,3.065,2.912,6.813V208.011z"/>
<path fill="#009DD0" d="M91.285,208.011c0,3.748-1.311,6.813-2.912,6.813c-1.601,0-2.912-3.065-2.912-6.813v-17.004
	c0-3.748,1.312-6.813,2.912-6.813c1.602,0,2.912,3.065,2.912,6.813V208.011z"/>
<path fill="#009DD0" d="M102.287,208.011c0,3.748-1.311,6.813-2.912,6.813s-2.912-3.065-2.912-6.813v-17.004
	c0-3.748,1.311-6.813,2.912-6.813s2.912,3.065,2.912,6.813V208.011z"/>
<path fill="#009DD0" d="M113.289,208.011c0,3.748-1.311,6.813-2.912,6.813s-2.912-3.065-2.912-6.813v-17.004
	c0-3.748,1.311-6.813,2.912-6.813s2.912,3.065,2.912,6.813V208.011z"/>
<path fill="#009DD0" d="M58.279,208.011c0,3.748-1.31,6.813-2.912,6.813c-1.602,0-2.912-3.065-2.912-6.813v-17.004
	c0-3.748,1.31-6.813,2.912-6.813c1.602,0,2.912,3.065,2.912,6.813V208.011z"/>
<path fill="#009DD0" d="M47.278,208.011c0,3.748-1.31,6.813-2.912,6.813c-1.601,0-2.912-3.065-2.912-6.813v-17.004
	c0-3.748,1.311-6.813,2.912-6.813c1.602,0,2.912,3.065,2.912,6.813V208.011z"/>
<path fill="#009DD0" d="M124.291,208.011c0,3.748-1.311,6.813-2.912,6.813s-2.912-3.065-2.912-6.813v-17.004
	c0-3.748,1.311-6.813,2.912-6.813s2.912,3.065,2.912,6.813V208.011z"/>
<path fill="#009DD0" d="M69.281,208.011c0,3.748-1.31,6.813-2.912,6.813c-1.601,0-2.912-3.065-2.912-6.813v-17.004
	c0-3.748,1.311-6.813,2.912-6.813c1.602,0,2.912,3.065,2.912,6.813V208.011z"/>
<path opacity="0.1" d="M82.546,62.755c-39.565,0.089-71.613,32.186-71.613,71.772c0,39.586,32.047,71.682,71.613,71.771V62.755z"/>
<path fill="#007DA6" d="M63.727,116.773c5.028-5.027,11.599-7.531,18.189-7.533c6.59,0.002,13.16,2.506,18.189,7.533
	c0.797,0.799,2.092,0.799,2.891,0c0.798-0.798,0.798-2.093,0-2.891c-5.816-5.816-13.457-8.734-21.08-8.732
	c-7.623-0.002-15.264,2.916-21.08,8.732c-0.798,0.798-0.798,2.093,0,2.891C61.633,117.572,62.928,117.572,63.727,116.773z"/>
<path fill="#FFFFFF" d="M64.564,117.171c4.801-5.075,11.074-7.601,17.351-7.602c6.275,0.001,12.549,2.526,17.35,7.602
	c0.26,0.273,0.69,0.285,0.965,0.027c0.272-0.259,0.285-0.69,0.025-0.963c-5.054-5.347-11.699-8.03-18.34-8.029
	c-6.642-0.001-13.287,2.683-18.341,8.028c-0.259,0.273-0.247,0.705,0.027,0.964C63.875,117.456,64.306,117.444,64.564,117.171z"/>
<path fill="#007DA6" d="M63.727,116.773c5.028-5.027,11.599-7.531,18.189-7.533c6.59,0.002,13.16,2.506,18.189,7.533
	c0.797,0.799,2.092,0.799,2.891,0c0.798-0.798,0.798-2.093,0-2.891c-5.816-5.816-13.457-8.734-21.08-8.732
	c-7.623-0.002-15.264,2.916-21.08,8.732c-0.798,0.798-0.798,2.093,0,2.891C61.633,117.572,62.928,117.572,63.727,116.773z"/>
<path fill="#FFFFFF" d="M64.564,117.171c4.801-5.075,11.074-7.601,17.351-7.602c6.275,0.001,12.549,2.526,17.35,7.602
	c0.26,0.273,0.69,0.285,0.965,0.027c0.272-0.259,0.285-0.69,0.025-0.963c-5.054-5.347-11.699-8.03-18.34-8.029
	c-6.642-0.001-13.287,2.683-18.341,8.028c-0.259,0.273-0.247,0.705,0.027,0.964C63.875,117.456,64.306,117.444,64.564,117.171z"/>
</svg>
