<?xml version="1.0" encoding="utf-8"?>
<!-- Generator: Adobe Illustrator 15.0.0, SVG Export Plug-In . SVG Version: 6.00 Build 0)  -->
<!DOCTYPE svg PUBLIC "-//W3C//DTD SVG 1.1//EN" "http://www.w3.org/Graphics/SVG/1.1/DTD/svg11.dtd">
<svg version="1.1" id="Layer_1" xmlns="http://www.w3.org/2000/svg" xmlns:xlink="http://www.w3.org/1999/xlink" x="0px" y="0px"
	 width="161.454px" height="214.824px" viewBox="0 0 161.454 214.824" enable-background="new 0 0 161.454 214.824"
	 xml:space="preserve">
<path fill="#009DD0" d="M161.454,7.312c0,9.749-36.143,50.709-80.728,50.709C36.143,58.021,0,17.061,0,7.312
	S161.454-2.438,161.454,7.312"/>
<path fill="#007DA6" d="M150.956,8.646c0,2.55-31.442,4.618-70.229,4.618c-38.786,0-70.228-2.068-70.228-4.618
	c0-2.551,31.442-4.618,70.228-4.618C119.514,4.028,150.956,6.095,150.956,8.646"/>
<path fill="#009DD0" d="M80.283,208.011c0,3.748-1.31,6.813-2.912,6.813s-2.912-3.065-2.912-6.813v-17.004
	c0-3.748,1.31-6.813,2.912-6.813s2.912,3.065,2.912,6.813V208.011z"/>
<path fill="#009DD0" d="M91.285,208.011c0,3.748-1.31,6.813-2.912,6.813c-1.601,0-2.912-3.065-2.912-6.813v-17.004
	c0-3.748,1.312-6.813,2.912-6.813c1.603,0,2.912,3.065,2.912,6.813V208.011z"/>
<path fill="#009DD0" d="M102.286,208.011c0,3.748-1.31,6.813-2.912,6.813c-1.602,0-2.911-3.065-2.911-6.813v-17.004
	c0-3.748,1.31-6.813,2.911-6.813c1.603,0,2.912,3.065,2.912,6.813V208.011z"/>
<path fill="#009DD0" d="M113.288,208.011c0,3.748-1.31,6.813-2.912,6.813c-1.602,0-2.912-3.065-2.912-6.813v-17.004
	c0-3.748,1.311-6.813,2.912-6.813c1.603,0,2.912,3.065,2.912,6.813V208.011z"/>
<path fill="#009DD0" d="M58.279,208.011c0,3.748-1.31,6.813-2.912,6.813s-2.912-3.065-2.912-6.813v-17.004
	c0-3.748,1.31-6.813,2.912-6.813s2.912,3.065,2.912,6.813V208.011z"/>
<path fill="#009DD0" d="M47.278,208.011c0,3.748-1.31,6.813-2.912,6.813s-2.912-3.065-2.912-6.813v-17.004
	c0-3.748,1.31-6.813,2.912-6.813s2.912,3.065,2.912,6.813V208.011z"/>
<path fill="#009DD0" d="M124.29,208.011c0,3.748-1.31,6.813-2.912,6.813c-1.601,0-2.912-3.065-2.912-6.813v-17.004
	c0-3.748,1.312-6.813,2.912-6.813c1.603,0,2.912,3.065,2.912,6.813V208.011z"/>
<path fill="#009DD0" d="M69.281,208.011c0,3.748-1.31,6.813-2.912,6.813c-1.601,0-2.912-3.065-2.912-6.813v-17.004
	c0-3.748,1.311-6.813,2.912-6.813c1.602,0,2.912,3.065,2.912,6.813V208.011z"/>
<path fill="#009DD0" d="M128.841,192.391c1.779,0,3.236-1.457,3.236-3.236l-0.002-76.778c-0.131-27.316-22.314-49.419-49.661-49.419
	c-27.293,0-49.443,22.177-49.661,49.419l-0.002,76.778c0,1.779,1.456,3.236,3.236,3.236H128.841z"/>
<path opacity="0.1" d="M82.144,62.964c-27.169,0.146-49.174,22.26-49.392,49.412l-0.001,76.778c0,1.779,1.456,3.236,3.236,3.236
	h46.157V62.964z"/>
<path fill="#007DA6" d="M105.425,111.153c0,12.95-10.5,23.448-23.45,23.448c-12.951,0-23.449-10.498-23.449-23.448
	c0-12.951,10.498-23.449,23.449-23.449C94.925,87.704,105.425,98.202,105.425,111.153"/>
<path fill="#FFFFFF" d="M102.698,110.002c0,11.445-9.277,20.724-20.724,20.724c-11.445,0-20.723-9.278-20.723-20.724
	s9.278-20.725,20.723-20.725C93.421,89.277,102.698,98.557,102.698,110.002"/>
<path fill="#009DD0" d="M87.169,98.397c0,2.869-2.325,5.194-5.194,5.194c-2.868,0-5.194-2.325-5.194-5.194
	c0-2.869,2.326-5.194,5.194-5.194C84.844,93.203,87.169,95.528,87.169,98.397"/>
</svg>
