<?xml version="1.0" encoding="utf-8"?>
<!-- Generator: Adobe Illustrator 15.0.0, SVG Export Plug-In . SVG Version: 6.00 Build 0)  -->
<!DOCTYPE svg PUBLIC "-//W3C//DTD SVG 1.1//EN" "http://www.w3.org/Graphics/SVG/1.1/DTD/svg11.dtd">
<svg version="1.1" id="Layer_1" xmlns="http://www.w3.org/2000/svg" xmlns:xlink="http://www.w3.org/1999/xlink" x="0px" y="0px"
	 width="128.108px" height="170.302px" viewBox="0 0 128.108 170.302" enable-background="new 0 0 128.108 170.302"
	 xml:space="preserve">
<path d="M60.175,163.488c0,3.748-1.784,6.814-3.966,6.814s-3.967-3.066-3.967-6.814V83.13c0-3.747,1.785-6.814,3.967-6.814
	s3.966,3.067,3.966,6.814V163.488z"/>
<path d="M75.866,163.488c0,3.748-1.785,6.814-3.966,6.814c-2.183,0-3.968-3.066-3.968-6.814V83.13c0-3.747,1.785-6.814,3.968-6.814
	c2.181,0,3.966,3.067,3.966,6.814V163.488z"/>
<path d="M128.108,71.718c0,35.376-28.679,64.055-64.054,64.055C28.678,135.773,0,107.094,0,71.718
	C0,36.343,28.678,7.665,64.055,7.665C99.43,7.665,128.108,36.343,128.108,71.718"/>
<polygon fill="#FFFFFF" points="64.055,131.227 52.501,101.881 29.081,119.841 33.801,90.343 7.455,90.111 26.651,71.718 
	7.455,53.326 33.801,53.095 29.082,23.595 52.501,41.556 64.055,12.211 75.607,41.556 99.027,23.595 94.307,53.095 120.653,53.326 
	101.457,71.718 120.653,90.111 94.307,90.343 99.026,119.843 75.607,101.881 "/>
<path d="M115.256,14.697c0,8.117-22.925,14.697-51.201,14.697c-28.278,0-51.201-6.58-51.201-14.697S35.776,0,64.055,0
	C92.331,0,115.256,6.58,115.256,14.697"/>
<path fill="#FFFFFF" d="M98.629,11.566c0,3.916-15.479,7.091-34.574,7.091c-19.096,0-34.575-3.175-34.575-7.091
	s15.479-7.091,34.575-7.091C83.149,4.475,98.629,7.65,98.629,11.566"/>
<path d="M58.231,88.914c0.011,1.654,1.353,2.993,3.01,2.993s3-1.339,3.011-2.993H58.231z"/>
<path d="M63.856,88.914c0.011,1.654,1.353,2.993,3.01,2.993s3-1.339,3.011-2.993H63.856z"/>
<polygon points="62.445,79.14 63.523,64.666 60.138,67.723 62.574,48.023 57.569,52.542 60.332,27.986 67.959,21.1 64.978,42.302 
	70.386,37.419 65.962,59.18 70.794,55.213 "/>
<path d="M56.31,72.532c0,7.181-5.821,13.001-13,13.001c-7.182,0-13.001-5.82-13.001-13.001c0-7.18,5.819-13,13.001-13
	C50.488,59.531,56.31,65.352,56.31,72.532"/>
<rect x="41.897" y="64.833" transform="matrix(0.7071 0.7071 -0.7071 0.7071 63.973 -9.3799)" fill="#FFFFFF" width="2.824" height="15.399"/>
<rect x="41.896" y="64.832" transform="matrix(0.7071 -0.7071 0.7071 0.7071 -38.6032 51.868)" fill="#FFFFFF" width="2.824" height="15.4"/>
<path d="M98.438,72.532c0,7.181-5.82,13.001-13.001,13.001c-7.18,0-13-5.82-13-13.001c0-7.18,5.82-13,13-13
	C92.617,59.531,98.438,65.352,98.438,72.532"/>
<rect x="84.025" y="64.832" transform="matrix(0.7071 0.7071 -0.7071 0.7071 76.3121 -39.1692)" fill="#FFFFFF" width="2.824" height="15.4"/>
<rect x="84.025" y="64.832" transform="matrix(0.7071 -0.7071 0.7071 0.7071 -26.264 81.6576)" fill="#FFFFFF" width="2.824" height="15.4"/>
</svg>
