<?xml version="1.0" encoding="utf-8"?>
<!-- Generator: Adobe Illustrator 15.0.0, SVG Export Plug-In . SVG Version: 6.00 Build 0)  -->
<!DOCTYPE svg PUBLIC "-//W3C//DTD SVG 1.1//EN" "http://www.w3.org/Graphics/SVG/1.1/DTD/svg11.dtd">
<svg version="1.1" id="Layer_1" xmlns="http://www.w3.org/2000/svg" xmlns:xlink="http://www.w3.org/1999/xlink" x="0px" y="0px"
	 width="128.108px" height="170.303px" viewBox="0 0 128.108 170.303" enable-background="new 0 0 128.108 170.303"
	 xml:space="preserve">
<path fill="#9D2C39" d="M61.146,163.489c0,3.748-1.785,6.813-3.967,6.813s-3.967-3.065-3.967-6.813V83.131
	c0-3.747,1.785-6.813,3.967-6.813s3.967,3.066,3.967,6.813V163.489z"/>
<path fill="#9D2C39" d="M76.836,163.489c0,3.748-1.785,6.813-3.966,6.813c-2.182,0-3.967-3.065-3.967-6.813V83.131
	c0-3.747,1.785-6.813,3.967-6.813c2.181,0,3.966,3.066,3.966,6.813V163.489z"/>
<path fill="#BB3747" d="M128.108,71.845c0,35.376-28.679,64.054-64.055,64.054S0,107.221,0,71.845S28.678,7.79,64.054,7.79
	S128.108,36.469,128.108,71.845"/>
<path fill="#B23443" d="M63.514,7.804C28.388,8.096,0,36.648,0,71.844s28.388,63.749,63.514,64.041V7.804z"/>
<path fill="#FFFFFF" d="M98.026,71.813c0,7.18-5.82,13.001-13.001,13.001c-7.18,0-13-5.821-13-13.001s5.82-13.001,13-13.001
	C92.206,58.812,98.026,64.634,98.026,71.813"/>
<path fill="#BB3747" d="M90.484,66.146c0,2.926-2.371,5.297-5.296,5.297s-5.296-2.371-5.296-5.297c0-2.925,2.371-5.296,5.296-5.296
	S90.484,63.221,90.484,66.146"/>
<path fill="#FFFFFF" d="M55.841,71.813c0,7.18-5.821,13.001-13.001,13.001s-13-5.821-13-13.001s5.82-13.001,13-13.001
	S55.841,64.634,55.841,71.813"/>
<path fill="#BB3747" d="M48.299,66.146c0,2.926-2.371,5.297-5.296,5.297s-5.296-2.371-5.296-5.297c0-2.925,2.371-5.296,5.296-5.296
	S48.299,63.221,48.299,66.146"/>
<path fill="#9D2C39" d="M69.301,88.879c0,3.012-2.441,5.451-5.451,5.451c-3.011,0-5.452-2.439-5.452-5.451
	c0-3.011,2.441-5.45,5.452-5.45C66.859,83.429,69.301,85.868,69.301,88.879"/>
<path fill="#BB3747" d="M115.191,14.697c0,8.117-22.925,14.697-51.201,14.697c-28.278,0-51.201-6.58-51.201-14.697S35.712,0,63.99,0
	C92.267,0,115.191,6.58,115.191,14.697"/>
<path fill="#9D2C39" d="M98.564,11.566c0,3.916-15.479,7.091-34.574,7.091s-34.575-3.175-34.575-7.091s15.48-7.091,34.575-7.091
	S98.564,7.65,98.564,11.566"/>
</svg>
