<?xml version="1.0" encoding="utf-8"?>
<!-- Generator: Adobe Illustrator 15.0.0, SVG Export Plug-In . SVG Version: 6.00 Build 0)  -->
<!DOCTYPE svg PUBLIC "-//W3C//DTD SVG 1.1//EN" "http://www.w3.org/Graphics/SVG/1.1/DTD/svg11.dtd">
<svg version="1.1" id="Layer_1" xmlns="http://www.w3.org/2000/svg" xmlns:xlink="http://www.w3.org/1999/xlink" x="0px" y="0px"
	 width="128.108px" height="170.303px" viewBox="0 0 128.108 170.303" enable-background="new 0 0 128.108 170.303"
	 xml:space="preserve">
<path fill="#9D2C39" d="M61.145,163.489c0,3.748-1.785,6.813-3.966,6.813c-2.182,0-3.967-3.065-3.967-6.813V83.131
	c0-3.747,1.785-6.813,3.967-6.813c2.181,0,3.966,3.066,3.966,6.813V163.489z"/>
<path fill="#9D2C39" d="M76.836,163.489c0,3.748-1.785,6.813-3.966,6.813c-2.183,0-3.968-3.065-3.968-6.813V83.131
	c0-3.747,1.785-6.813,3.968-6.813c2.181,0,3.966,3.066,3.966,6.813V163.489z"/>
<path fill="#BB3747" d="M128.108,71.845c0,35.376-28.679,64.054-64.055,64.054S0,107.221,0,71.845S28.678,7.79,64.054,7.79
	S128.108,36.469,128.108,71.845"/>
<path fill="#B23443" d="M63.514,7.804C28.388,8.096,0,36.648,0,71.844s28.388,63.749,63.514,64.041V7.804z"/>
<path fill="#FFFFFF" d="M95.982,71.813c-0.001,3.032-1.224,5.758-3.21,7.747c-1.988,1.986-4.715,3.208-7.746,3.209
	c-3.032-0.001-5.76-1.223-7.748-3.209c-1.985-1.989-3.208-4.715-3.209-7.747c0-1.129-0.915-2.044-2.044-2.044
	c-1.13,0-2.044,0.915-2.044,2.044c0.001,8.311,6.734,15.043,15.045,15.045c8.31-0.001,15.043-6.734,15.044-15.045
	c0-1.129-0.915-2.044-2.044-2.044S95.982,70.685,95.982,71.813z"/>
<path fill="#FFFFFF" d="M53.796,71.813c-0.001,3.032-1.223,5.758-3.209,7.747c-1.988,1.986-4.715,3.208-7.746,3.209
	c-3.032-0.001-5.759-1.223-7.748-3.209c-1.986-1.989-3.209-4.715-3.209-7.747c0-1.129-0.915-2.044-2.045-2.044
	c-1.129,0-2.044,0.915-2.044,2.044c0.001,8.311,6.735,15.043,15.046,15.045c8.31-0.002,15.043-6.734,15.043-15.045
	c0-1.129-0.914-2.044-2.043-2.044C54.711,69.77,53.796,70.685,53.796,71.813z"/>
<path fill="#BB3747" d="M115.19,14.697c0,8.117-22.924,14.697-51.2,14.697c-28.278,0-51.201-6.58-51.201-14.697S35.712,0,63.99,0
	C92.267,0,115.19,6.58,115.19,14.697"/>
<path fill="#9D2C39" d="M98.564,11.566c0,3.916-15.479,7.091-34.574,7.091s-34.575-3.175-34.575-7.091s15.48-7.091,34.575-7.091
	S98.564,7.65,98.564,11.566"/>
<path fill="#9D2C39" d="M58.401,88.915c0.02,2.994,2.448,5.416,5.447,5.416c2.998,0,5.429-2.422,5.448-5.416H58.401z"/>
</svg>
