<?xml version="1.0" encoding="utf-8"?>
<!-- Generator: Adobe Illustrator 15.0.0, SVG Export Plug-In . SVG Version: 6.00 Build 0)  -->
<!DOCTYPE svg PUBLIC "-//W3C//DTD SVG 1.1//EN" "http://www.w3.org/Graphics/SVG/1.1/DTD/svg11.dtd">
<svg version="1.1" id="Layer_1" xmlns="http://www.w3.org/2000/svg" xmlns:xlink="http://www.w3.org/1999/xlink" x="0px" y="0px"
	 width="190.451px" height="213.024px" viewBox="0 0 190.451 213.024" enable-background="new 0 0 190.451 213.024"
	 xml:space="preserve">
<path fill="#9EB13B" d="M81.262,206.345c0,3.689-2.99,6.679-6.679,6.679c-3.688,0-6.679-2.989-6.679-6.679v-81.814
	c0-3.689,2.991-6.68,6.679-6.68c3.689,0,6.679,2.99,6.679,6.68V206.345z"/>
<path fill="#9EB13B" d="M121.014,206.345c0,3.689-2.99,6.679-6.68,6.679c-3.688,0-6.679-2.989-6.679-6.679v-81.814
	c0-3.689,2.991-6.68,6.679-6.68c3.689,0,6.68,2.99,6.68,6.68V206.345z"/>
<path fill="#82942F" d="M68.475,21.973c-76.32,0-76.32,114.479,0,114.479v-5.573c-68.888,0-68.888-103.332,0-103.332V21.973z"/>
<path fill="#82942F" d="M122.307,21.973c76.32,0,76.32,114.479,0,114.479v-5.573c68.889,0,68.889-103.332,0-103.332V21.973z"/>
<path fill="#9EB13B" d="M141.841,192.513c1.78,0,3.235-1.456,3.235-3.236v-76.778c-0.133-27.315-22.315-49.419-49.663-49.419
	c-27.293,0-49.443,22.178-49.661,49.419l-0.002,76.778c0,1.78,1.456,3.236,3.236,3.236H141.841z"/>
<path opacity="0.1" d="M94.869,63.093c-27.041,0.296-48.899,22.347-49.116,49.405l-0.001,76.778c0,1.78,1.456,3.236,3.235,3.236
	h45.882V63.093z"/>
<path fill="#82942F" d="M137.831,112.999c0,5.987-4.854,10.841-10.841,10.841s-10.84-4.854-10.84-10.841
	c0-5.986,4.853-10.84,10.84-10.84S137.831,107.012,137.831,112.999"/>
<path fill="#FFFFFF" d="M136.495,111.636c0,5.25-4.256,9.505-9.504,9.505c-5.25,0-9.506-4.255-9.506-9.505s4.256-9.505,9.506-9.505
	C132.239,102.131,136.495,106.386,136.495,111.636"/>
<path fill="#82942F" d="M130.981,107.493c0,2.139-1.734,3.872-3.872,3.872c-2.14,0-3.872-1.733-3.872-3.872
	c0-2.14,1.732-3.872,3.872-3.872C129.247,103.621,130.981,105.353,130.981,107.493"/>
<path fill="#82942F" d="M145.077,166.857h-15.232v-21.045H122.4v21.045H66.903v-21.045h-7.444v21.045H45.751
	c0,12.608,0,22.42,0,22.42c0,1.78,1.456,3.236,3.236,3.236h92.854c1.781,0,3.236-1.456,3.236-3.236
	C145.077,189.277,145.077,179.465,145.077,166.857"/>
<path d="M152.704,146.489c-2.569-9.252-27.711-16.515-58.368-16.515c-30.648,0-55.785,7.26-58.364,16.509h-0.003l0.001,0.003
	l-0.001,0.003h0.002c0.334,2.192,2.21,3.876,4.495,3.876c2.285,0,4.16-1.684,4.495-3.876h0.032c0.335,2.192,2.21,3.876,4.495,3.876
	c2.285,0,4.16-1.684,4.495-3.876h0.209c0.335,2.192,2.21,3.876,4.495,3.876c2.179,0,3.97-1.538,4.423-3.58
	c0.453,2.042,2.244,3.58,4.423,3.58c2.285,0,4.16-1.684,4.495-3.876h0.032c0.335,2.192,2.21,3.876,4.495,3.876
	s4.16-1.684,4.495-3.876h0.032c0.335,2.192,2.21,3.876,4.495,3.876c2.286,0,4.161-1.684,4.495-3.876h0.033
	c0.334,2.192,2.209,3.876,4.495,3.876c2.285,0,4.16-1.684,4.494-3.876h0.033c0.334,2.192,2.209,3.876,4.494,3.876
	c2.18,0,3.971-1.538,4.424-3.58c0.453,2.042,2.242,3.58,4.422,3.58c2.285,0,4.16-1.684,4.494-3.876h0.033
	c0.334,2.192,2.209,3.876,4.496,3.876c2.284,0,4.159-1.684,4.494-3.876h0.032c0.335,2.192,2.21,3.876,4.495,3.876
	s4.16-1.684,4.495-3.876h0.032c0.334,2.192,2.209,3.876,4.494,3.876c2.049,0,3.76-1.357,4.334-3.218
	c0.575,1.86,2.287,3.218,4.336,3.218c2.285,0,4.16-1.684,4.494-3.876H152.704z"/>
<path fill="#82942F" d="M155.665,83.077c0,5.217-26.787-5.038-59.83-5.038c-33.043,0-59.83,10.255-59.83,5.038
	s26.787-23.933,59.83-23.933C128.877,59.144,155.665,77.86,155.665,83.077"/>
<path fill="#82942F" d="M123.641,63.461c0,7.974-12.449,14.438-27.807,14.438c-15.357,0-27.806-6.465-27.806-14.438
	c0-7.89,9.286-14.302,24.419-14.438c0.162-0.001-0.564,5.188,3.387,5.188c3.952,0,3.178-5.189,3.314-5.188
	C114.317,49.138,123.641,55.558,123.641,63.461"/>
<path fill="#82942F" d="M105.655,110.127c0,5.987-4.853,10.84-10.839,10.84c-5.987,0-10.84-4.853-10.84-10.84
	s4.853-10.84,10.84-10.84C100.802,99.288,105.655,104.14,105.655,110.127"/>
<path fill="#FFFFFF" d="M104.321,108.764c0,5.25-4.256,9.505-9.505,9.505c-5.25,0-9.506-4.255-9.506-9.505s4.256-9.505,9.506-9.505
	C100.065,99.259,104.321,103.514,104.321,108.764"/>
<path fill="#82942F" d="M98.806,104.621c0,2.139-1.734,3.872-3.872,3.872c-2.139,0-3.872-1.733-3.872-3.872s1.733-3.872,3.872-3.872
	C97.072,100.749,98.806,102.482,98.806,104.621"/>
<path fill="#82942F" d="M72.624,113.088c0,5.987-4.853,10.841-10.84,10.841c-5.987,0-10.84-4.854-10.84-10.841
	c0-5.986,4.853-10.84,10.84-10.84C67.771,102.249,72.624,107.102,72.624,113.088"/>
<path fill="#FFFFFF" d="M71.289,111.726c0,5.25-4.256,9.505-9.505,9.505c-5.25,0-9.506-4.255-9.506-9.505s4.256-9.505,9.506-9.505
	C67.033,102.221,71.289,106.476,71.289,111.726"/>
<path fill="#82942F" d="M65.775,107.583c0,2.139-1.734,3.872-3.872,3.872c-2.139,0-3.872-1.733-3.872-3.872
	c0-2.14,1.733-3.872,3.872-3.872C64.041,103.71,65.775,105.443,65.775,107.583"/>
<path fill="#9EB13B" d="M190.451,8.421c0,2.348-16.079,4.888-18.987,8.997c-10.998,15.538,16.229,21.367-76.239,21.367
	c-92.227,0-65.085-5.696-76.152-21.246C16.11,13.376,0,10.792,0,8.421C0-2.807,190.451-2.807,190.451,8.421"/>
<path fill="#82942F" d="M170.475,8.392c0,2.329-33.69,4.218-75.25,4.218c-41.56,0-75.251-1.889-75.251-4.218
	s33.691-4.218,75.251-4.218C136.785,4.174,170.475,6.063,170.475,8.392"/>
</svg>
