<?xml version="1.0" encoding="utf-8"?>
<!-- Generator: Adobe Illustrator 15.0.0, SVG Export Plug-In . SVG Version: 6.00 Build 0)  -->
<!DOCTYPE svg PUBLIC "-//W3C//DTD SVG 1.1//EN" "http://www.w3.org/Graphics/SVG/1.1/DTD/svg11.dtd">
<svg version="1.1" id="Layer_1" xmlns="http://www.w3.org/2000/svg" xmlns:xlink="http://www.w3.org/1999/xlink" x="0px" y="0px"
	 width="190.451px" height="213.024px" viewBox="0 0 190.451 213.024" enable-background="new 0 0 190.451 213.024"
	 xml:space="preserve">
<path d="M82.028,206.345c0,3.689-2.99,6.68-6.679,6.68c-3.688,0-6.679-2.99-6.679-6.68V124.53c0-3.689,2.991-6.68,6.679-6.68
	c3.689,0,6.679,2.99,6.679,6.68V206.345z"/>
<path d="M121.78,206.345c0,3.689-2.99,6.68-6.679,6.68s-6.679-2.99-6.679-6.68V124.53c0-3.689,2.99-6.68,6.679-6.68
	s6.679,2.99,6.679,6.68V206.345z"/>
<path d="M68.309,21.973c-76.32,0-76.32,114.479,0,114.479v-5.573c-68.888,0-68.888-103.333,0-103.333V21.973z"/>
<path d="M122.141,21.973c76.32,0,76.32,114.479,0,114.479v-5.573c68.889,0,68.889-103.333,0-103.333V21.973z"/>
<path d="M141.653,192.513c1.779,0,3.235-1.456,3.235-3.236l-0.001-76.777c-0.132-27.316-22.314-49.419-49.662-49.419
	c-27.293,0-49.443,22.177-49.661,49.419l-0.002,76.777c0,1.78,1.456,3.236,3.236,3.236H141.653z"/>
<path d="M144.888,166.856h-15.233v-21.045h-7.443v21.045H66.714v-21.045H59.27v21.045H45.563c-0.001,12.608-0.001,22.42-0.001,22.42
	c0,1.78,1.456,3.236,3.236,3.236h92.854c1.78,0,3.236-1.456,3.236-3.236C144.888,189.276,144.888,179.465,144.888,166.856"/>
<path d="M125.75,64.364c-0.01-8.133-9.68-8.944-26.799-8.041c-0.154-0.022,0.719,5.22-3.727,5.28
	c-4.445-0.06-3.626-5.304-3.808-5.283c-17.079-0.901-26.706-0.076-26.717,8.044c-20.078-3.129-29.273-7.758-29.304-3.792
	c-0.85,4.703,20.901,25.36,59.829,24.857c38.929,0.503,60.679-20.154,59.83-24.857C155.024,56.606,145.829,61.234,125.75,64.364"/>
<path d="M190.451,8.421c0,2.348-16.079,4.888-18.987,8.997c-10.998,15.538,16.229,21.367-76.238,21.367
	c-92.227,0-65.085-5.696-76.152-21.246C16.11,13.376,0,10.792,0,8.421C0-2.807,190.451-2.807,190.451,8.421"/>
<path fill="#FFFFFF" d="M170.475,8.392c0,2.329-33.69,4.218-75.25,4.218c-41.56,0-75.251-1.889-75.251-4.218
	s33.691-4.218,75.251-4.218C136.785,4.173,170.475,6.062,170.475,8.392"/>
<path fill="#FFFFFF" d="M72.119,111.726c0,5.25-4.256,9.505-9.505,9.505c-5.25,0-9.506-4.255-9.506-9.505s4.256-9.505,9.506-9.505
	C67.863,102.221,72.119,106.476,72.119,111.726"/>
<rect x="61.78" y="107.179" transform="matrix(0.7071 0.7071 -0.7071 0.7071 97.3409 -11.5506)" width="1.667" height="9.094"/>
<rect x="61.78" y="107.179" transform="matrix(0.7073 -0.707 0.707 0.7073 -60.6553 76.9724)" width="1.667" height="9.093"/>
<path fill="#FFFFFF" d="M137.342,111.726c0,5.25-4.256,9.505-9.505,9.505c-5.25,0-9.506-4.255-9.506-9.505s4.256-9.505,9.506-9.505
	C133.086,102.221,137.342,106.476,137.342,111.726"/>
<rect x="127.004" y="107.178" transform="matrix(0.7071 0.7071 -0.7071 0.7071 116.4446 -57.671)" width="1.667" height="9.094"/>
<rect x="127.004" y="107.178" transform="matrix(0.7071 -0.7071 0.7071 0.7071 -41.5589 123.1182)" width="1.667" height="9.094"/>
<path fill="#FFFFFF" d="M104.731,108.694c0,5.25-4.256,9.505-9.505,9.505c-5.25,0-9.506-4.255-9.506-9.505s4.256-9.505,9.506-9.505
	C100.475,99.189,104.731,103.444,104.731,108.694"/>
<rect x="94.392" y="104.147" transform="matrix(0.7073 0.707 -0.707 0.7073 104.7196 -35.5008)" width="1.667" height="9.094"/>
<rect x="94.392" y="104.147" transform="matrix(0.7068 -0.7074 0.7074 0.7068 -48.9712 99.2299)" width="1.668" height="9.094"/>
<polygon points="113.115,145.274 113.115,128.164 170.924,136.061 "/>
<polygon points="77.336,128.163 77.336,145.274 19.526,137.377 "/>
<path fill="#FFFFFF" d="M66.921,153.353c2.078-0.745,3.327-2.795,2.866-4.763c-2.74,0.831-5.45,1.799-8.119,2.903
	C62.561,153.309,64.842,154.094,66.921,153.353 M76.198,150.626c2.132-0.498,3.595-2.389,3.362-4.396
	c-2.799,0.508-5.579,1.153-8.33,1.937C71.907,150.07,74.065,151.118,76.198,150.626 M85.664,148.989
	c2.165-0.25,3.828-1.961,3.825-3.982c-2.829,0.186-5.651,0.508-8.456,0.968C81.486,147.945,83.499,149.235,85.664,148.989
	 M95.225,148.443c2.177-0.002,4.024-1.513,4.249-3.521c-2.83-0.138-5.667-0.138-8.498,0
	C91.203,146.932,93.05,148.441,95.225,148.443 M104.787,148.989c2.165,0.245,4.179-1.045,4.632-3.015
	c-2.806-0.46-5.628-0.783-8.457-0.968C100.958,147.028,102.622,148.739,104.787,148.989 M114.252,150.626
	c2.133,0.493,4.291-0.556,4.969-2.46c-2.752-0.783-5.531-1.429-8.33-1.937C110.658,148.237,112.121,150.128,114.252,150.626
	 M120.664,148.59c-0.461,1.969,0.788,4.017,2.866,4.763c2.079,0.741,4.359-0.045,5.253-1.859
	C126.114,150.389,123.404,149.421,120.664,148.59"/>
<path fill="#FFFFFF" d="M123.319,153.94c-2.096-0.751-4.272,0.282-4.939,2.186c2.494,0.756,4.961,1.637,7.39,2.643
	C126.46,156.875,125.415,154.688,123.319,153.94 M114.112,151.233c-2.149-0.5-4.185,0.776-4.627,2.744
	c2.547,0.462,5.076,1.051,7.58,1.763C117.536,153.778,116.262,151.731,114.112,151.233 M104.715,149.609
	c-2.182-0.251-4.051,1.249-4.268,3.256c2.574,0.169,5.143,0.462,7.695,0.881C108.386,151.744,106.898,149.858,104.715,149.609
	 M95.225,149.069c-2.194-0.001-3.88,1.701-3.867,3.719c2.576-0.125,5.158-0.125,7.735,0
	C99.106,150.771,97.418,149.068,95.225,149.069 M85.735,149.609c-2.183,0.249-3.67,2.135-3.428,4.137
	c2.553-0.419,5.122-0.712,7.696-0.881C89.787,150.859,87.917,149.358,85.735,149.609 M76.339,151.233
	c-2.15,0.499-3.424,2.545-2.954,4.507c2.504-0.712,5.034-1.301,7.581-1.763C80.523,152.01,78.488,150.732,76.339,151.233
	 M72.071,156.126c-0.667-1.904-2.845-2.937-4.94-2.186c-2.095,0.748-3.141,2.935-2.45,4.828
	C67.11,157.763,69.577,156.882,72.071,156.126"/>
<rect x="73.132" y="175.906" fill="#FFFFFF" width="4.25" height="31"/>
<path fill="#FFFFFF" d="M76.168,175.281c0,1.532-1.242,2.775-2.775,2.775c-1.532,0-2.774-1.243-2.774-2.775s1.242-2.775,2.774-2.775
	C74.927,172.506,76.168,173.749,76.168,175.281"/>
<path fill="#FFFFFF" d="M79.894,175.281c0,1.532-1.242,2.775-2.775,2.775c-1.532,0-2.774-1.243-2.774-2.775s1.242-2.775,2.774-2.775
	C78.651,172.506,79.894,173.749,79.894,175.281"/>
<path fill="#FFFFFF" d="M75.256,206.298c-1.532,0-2.775-1.242-2.775-2.775c0-1.532,1.243-2.774,2.775-2.774
	c1.532,0,2.775,1.242,2.775,2.774C78.031,205.056,76.789,206.298,75.256,206.298"/>
<path fill="#FFFFFF" d="M75.256,210.022c-1.532,0-2.775-1.242-2.775-2.775c0-1.532,1.243-2.773,2.775-2.773
	c1.532,0,2.775,1.241,2.775,2.773C78.031,208.78,76.789,210.022,75.256,210.022"/>
<rect x="113.069" y="175.906" fill="#FFFFFF" width="4.25" height="31"/>
<path fill="#FFFFFF" d="M116.106,175.281c0,1.532-1.242,2.775-2.774,2.775s-2.774-1.243-2.774-2.775s1.242-2.775,2.774-2.775
	S116.106,173.749,116.106,175.281"/>
<path fill="#FFFFFF" d="M119.831,175.281c0,1.532-1.241,2.775-2.774,2.775c-1.532,0-2.774-1.243-2.774-2.775
	s1.242-2.775,2.774-2.775C118.589,172.506,119.831,173.749,119.831,175.281"/>
<path fill="#FFFFFF" d="M115.194,206.298c-1.531,0-2.775-1.242-2.775-2.775c0-1.532,1.244-2.774,2.775-2.774
	c1.532,0,2.775,1.242,2.775,2.774C117.969,205.056,116.726,206.298,115.194,206.298"/>
<path fill="#FFFFFF" d="M115.194,210.022c-1.531,0-2.775-1.242-2.775-2.775c0-1.532,1.244-2.773,2.775-2.773
	c1.532,0,2.775,1.241,2.775,2.773C117.969,208.78,116.726,210.022,115.194,210.022"/>
<path fill="#FFFFFF" d="M94.862,129.168v4.481l-4.3,0.062c0,0,0.963-9.023,2.15-9.023S94.862,126.693,94.862,129.168"/>
<path fill="#FFFFFF" d="M99.888,133.712l-4.3-0.062v-4.48c0-2.476,0.963-4.482,2.151-4.482
	C98.925,124.687,99.888,133.712,99.888,133.712"/>
</svg>
