<?xml version="1.0" encoding="utf-8"?>
<!-- Generator: Adobe Illustrator 15.0.0, SVG Export Plug-In . SVG Version: 6.00 Build 0)  -->
<!DOCTYPE svg PUBLIC "-//W3C//DTD SVG 1.1//EN" "http://www.w3.org/Graphics/SVG/1.1/DTD/svg11.dtd">
<svg version="1.1" id="Layer_1" xmlns="http://www.w3.org/2000/svg" xmlns:xlink="http://www.w3.org/1999/xlink" x="0px" y="0px"
	 width="140.849px" height="177.207px" viewBox="0 0 140.849 177.207" enable-background="new 0 0 140.849 177.207"
	 xml:space="preserve">
<path d="M66.624,170.393c0,3.748-1.785,6.814-3.968,6.814c-2.181,0-3.966-3.066-3.966-6.814v-81.72c0-3.748,1.785-6.814,3.966-6.814
	c2.183,0,3.968,3.066,3.968,6.814V170.393z"/>
<path d="M82.314,170.393c0,3.748-1.785,6.814-3.966,6.814c-2.182,0-3.967-3.066-3.967-6.814v-81.72c0-3.748,1.785-6.814,3.967-6.814
	c2.181,0,3.966,3.066,3.966,6.814V170.393z"/>
<path d="M140.417,8.362c0,0-12.216-8.362-69.939-8.362C12.753,0,0.538,8.362,0.538,8.362s-11.281,124.555,69.479,124.555
	C150.775,132.917,140.417,8.362,140.417,8.362"/>
<path fill="#FFFFFF" d="M129.906,10.222c0,1.899-26.309,3.439-58.763,3.439s-58.763-1.54-58.763-3.439s26.309-5.059,58.763-5.059
	S129.906,8.323,129.906,10.222"/>
<path fill="#FFFFFF" d="M74.935,57.736c0,2.869-2.326,5.195-5.195,5.195c-2.868,0-5.193-2.326-5.193-5.195s2.325-5.194,5.193-5.194
	C72.608,52.542,74.935,54.867,74.935,57.736"/>
<rect x="61.274" y="125.816" fill="#FFFFFF" width="2.715" height="46.148"/>
<path fill="#FFFFFF" d="M63.214,125.417c0,0.979-0.794,1.772-1.772,1.772c-0.979,0-1.772-0.794-1.772-1.772
	c0-0.979,0.793-1.773,1.772-1.773C62.42,123.644,63.214,124.438,63.214,125.417"/>
<path fill="#FFFFFF" d="M65.594,125.417c0,0.979-0.794,1.772-1.772,1.772c-0.979,0-1.773-0.794-1.773-1.772
	c0-0.979,0.794-1.773,1.773-1.773C64.8,123.644,65.594,124.438,65.594,125.417"/>
<path fill="#FFFFFF" d="M62.632,171.575c-0.979,0-1.773-0.794-1.773-1.772c0-0.979,0.794-1.772,1.773-1.772
	c0.979,0,1.772,0.793,1.772,1.772C64.404,170.781,63.61,171.575,62.632,171.575"/>
<path fill="#FFFFFF" d="M62.632,173.955c-0.979,0-1.773-0.794-1.773-1.772c0-0.979,0.794-1.772,1.773-1.772
	c0.979,0,1.772,0.793,1.772,1.772C64.404,173.161,63.61,173.955,62.632,173.955"/>
<rect x="77.017" y="125.816" fill="#FFFFFF" width="2.715" height="46.148"/>
<path fill="#FFFFFF" d="M78.957,125.417c0,0.979-0.794,1.772-1.773,1.772c-0.979,0-1.771-0.794-1.771-1.772
	c0-0.979,0.793-1.773,1.771-1.773C78.163,123.644,78.957,124.438,78.957,125.417"/>
<path fill="#FFFFFF" d="M81.337,125.417c0,0.979-0.794,1.772-1.773,1.772c-0.979,0-1.772-0.794-1.772-1.772
	c0-0.979,0.794-1.773,1.772-1.773C80.543,123.644,81.337,124.438,81.337,125.417"/>
<path fill="#FFFFFF" d="M78.374,171.575c-0.979,0-1.772-0.794-1.772-1.772c0-0.979,0.794-1.772,1.772-1.772
	c0.979,0,1.773,0.793,1.773,1.772C80.147,170.781,79.354,171.575,78.374,171.575"/>
<path fill="#FFFFFF" d="M78.374,173.955c-0.979,0-1.772-0.794-1.772-1.772c0-0.979,0.794-1.772,1.772-1.772
	c0.979,0,1.773,0.793,1.773,1.772C80.147,173.161,79.354,173.955,78.374,173.955"/>
<path fill="#FFFFFF" d="M65.848,105.965c2.117,0,3.833-1.716,3.833-3.833h-7.665C62.016,104.249,63.731,105.965,65.848,105.965"/>
<path fill="#FFFFFF" d="M73.848,105.965c2.117,0,3.833-1.716,3.833-3.833h-7.665C70.016,104.249,71.731,105.965,73.848,105.965"/>
<path fill="#FFFFFF" d="M49.598,105.965c2.117,0,3.833-1.716,3.833-3.833h-7.665C45.766,104.249,47.481,105.965,49.598,105.965"/>
<path fill="#FFFFFF" d="M57.598,105.965c2.117,0,3.833-1.716,3.833-3.833h-7.665C53.766,104.249,55.481,105.965,57.598,105.965"/>
<path fill="#FFFFFF" d="M82.098,105.965c2.117,0,3.833-1.716,3.833-3.833h-7.665C78.266,104.249,79.981,105.965,82.098,105.965"/>
<path fill="#FFFFFF" d="M90.098,105.965c2.117,0,3.833-1.716,3.833-3.833h-7.665C86.266,104.249,87.981,105.965,90.098,105.965"/>
<path fill="#FFFFFF" d="M73.849,106.132c-2.117,0-3.833,1.716-3.833,3.833h7.666C77.682,107.848,75.965,106.132,73.849,106.132"/>
<path fill="#FFFFFF" d="M65.849,106.132c-2.117,0-3.833,1.716-3.833,3.833h7.666C69.682,107.848,67.965,106.132,65.849,106.132"/>
<path fill="#FFFFFF" d="M90.099,106.132c-2.117,0-3.833,1.716-3.833,3.833h7.666C93.932,107.848,92.215,106.132,90.099,106.132"/>
<path fill="#FFFFFF" d="M82.099,106.132c-2.117,0-3.833,1.716-3.833,3.833h7.666C85.932,107.848,84.215,106.132,82.099,106.132"/>
<path fill="#FFFFFF" d="M57.599,106.132c-2.117,0-3.833,1.716-3.833,3.833h7.666C61.432,107.848,59.715,106.132,57.599,106.132"/>
<path fill="#FFFFFF" d="M49.599,106.132c-2.117,0-3.833,1.716-3.833,3.833h7.666C53.432,107.848,51.715,106.132,49.599,106.132"/>
<path fill="#FFFFFF" d="M12.735,24.885c0.156-1.41,0.312-2.821,0.467-4.231c37.473,4.137,75.285,4.137,112.758,0
	c0.154,1.41,0.311,2.821,0.466,4.231C88.645,29.056,50.518,29.056,12.735,24.885"/>
<path fill="#FFFFFF" d="M126.585,23.695c-1.535,0-2.779-1.244-2.779-2.779c0-1.535,1.244-2.779,2.779-2.779s2.779,1.244,2.779,2.779
	C129.364,22.452,128.12,23.695,126.585,23.695"/>
<path fill="#FFFFFF" d="M126.585,27.426c-1.535,0-2.779-1.244-2.779-2.779s1.244-2.779,2.779-2.779s2.779,1.244,2.779,2.779
	S128.12,27.426,126.585,27.426"/>
<path fill="#FFFFFF" d="M13.115,23.695c-1.534,0-2.778-1.244-2.778-2.779c0-1.535,1.244-2.779,2.778-2.779
	c1.535,0,2.779,1.244,2.779,2.779C15.895,22.452,14.65,23.695,13.115,23.695"/>
<path fill="#FFFFFF" d="M13.115,27.426c-1.534,0-2.778-1.244-2.778-2.779s1.244-2.779,2.778-2.779c1.535,0,2.779,1.244,2.779,2.779
	S14.65,27.426,13.115,27.426"/>
<path fill="#FFFFFF" d="M14.942,40.645c0.149-1.356,0.299-2.712,0.449-4.068c36.023,3.977,72.376,3.977,108.399,0
	c0.149,1.356,0.299,2.712,0.449,4.068C87.918,44.654,51.265,44.654,14.942,40.645"/>
<path fill="#FFFFFF" d="M124.393,39.501c-1.476,0-2.672-1.196-2.672-2.672c0-1.475,1.196-2.671,2.672-2.671s2.672,1.196,2.672,2.671
	C127.064,38.305,125.868,39.501,124.393,39.501"/>
<path fill="#FFFFFF" d="M124.393,43.088c-1.476,0-2.672-1.196-2.672-2.672c0-1.475,1.196-2.671,2.672-2.671s2.672,1.196,2.672,2.671
	C127.064,41.892,125.868,43.088,124.393,43.088"/>
<path fill="#FFFFFF" d="M15.308,39.501c-1.475,0-2.672-1.196-2.672-2.672c0-1.475,1.197-2.671,2.672-2.671
	c1.476,0,2.672,1.196,2.672,2.671C17.979,38.305,16.783,39.501,15.308,39.501"/>
<path fill="#FFFFFF" d="M15.308,43.088c-1.475,0-2.672-1.196-2.672-2.672c0-1.475,1.197-2.671,2.672-2.671
	c1.476,0,2.672,1.196,2.672,2.671C17.979,41.892,16.783,43.088,15.308,43.088"/>
<path fill="#FFFFFF" d="M18.308,56.765c0.14-1.273,0.281-2.546,0.421-3.818c33.816,3.733,67.941,3.733,101.757,0
	c0.141,1.272,0.281,2.545,0.421,3.818C86.811,60.528,52.403,60.528,18.308,56.765"/>
<path fill="#FFFFFF" d="M121.05,55.691c-1.385,0-2.508-1.123-2.508-2.508c0-1.385,1.123-2.508,2.508-2.508s2.508,1.123,2.508,2.508
	C123.558,54.568,122.435,55.691,121.05,55.691"/>
<path fill="#FFFFFF" d="M121.05,59.058c-1.385,0-2.508-1.123-2.508-2.508c0-1.385,1.123-2.508,2.508-2.508s2.508,1.123,2.508,2.508
	C123.558,57.935,122.435,59.058,121.05,59.058"/>
<path fill="#FFFFFF" d="M18.65,55.691c-1.385,0-2.508-1.123-2.508-2.508c0-1.385,1.123-2.508,2.508-2.508s2.508,1.123,2.508,2.508
	C21.158,54.568,20.035,55.691,18.65,55.691"/>
<path fill="#FFFFFF" d="M18.65,59.058c-1.385,0-2.508-1.123-2.508-2.508c0-1.385,1.123-2.508,2.508-2.508s2.508,1.123,2.508,2.508
	C21.158,57.935,20.035,59.058,18.65,59.058"/>
<path fill="#FFFFFF" d="M20.239,73.327c0.135-1.225,0.271-2.45,0.405-3.675c32.549,3.593,65.395,3.593,97.943,0
	c0.135,1.225,0.271,2.45,0.406,3.675C86.175,76.95,53.057,76.95,20.239,73.327"/>
<path fill="#FFFFFF" d="M119.132,72.294c-1.333,0-2.414-1.081-2.414-2.414s1.081-2.414,2.414-2.414s2.414,1.081,2.414,2.414
	S120.465,72.294,119.132,72.294"/>
<path fill="#FFFFFF" d="M119.132,75.535c-1.333,0-2.414-1.081-2.414-2.414s1.081-2.414,2.414-2.414s2.414,1.081,2.414,2.414
	S120.465,75.535,119.132,75.535"/>
<path fill="#FFFFFF" d="M20.569,72.294c-1.333,0-2.414-1.081-2.414-2.414s1.081-2.414,2.414-2.414s2.414,1.081,2.414,2.414
	S21.902,72.294,20.569,72.294"/>
<path fill="#FFFFFF" d="M20.569,75.535c-1.333,0-2.414-1.081-2.414-2.414s1.081-2.414,2.414-2.414s2.414,1.081,2.414,2.414
	S21.902,75.535,20.569,75.535"/>
<path d="M70.11,94.093c-15.79,0-28.636-12.846-28.636-28.636S54.32,36.822,70.11,36.822s28.636,12.845,28.636,28.635
	S85.9,94.093,70.11,94.093"/>
<path fill="#FFFFFF" d="M93.746,65.457c0,13.054-10.582,23.636-23.637,23.636c-13.054,0-23.636-10.582-23.636-23.636
	s10.582-23.636,23.636-23.636C83.164,41.821,93.746,52.403,93.746,65.457"/>
<rect x="68.698" y="57.757" transform="matrix(0.7071 0.7071 -0.7071 0.7071 66.8201 -30.4035)" width="2.824" height="15.4"/>
<rect x="68.698" y="57.757" transform="matrix(0.7069 -0.7073 0.7073 0.7069 -25.7493 68.7704)" width="2.824" height="15.4"/>
</svg>
