<?xml version="1.0" encoding="utf-8"?>
<!-- Generator: Adobe Illustrator 15.0.0, SVG Export Plug-In . SVG Version: 6.00 Build 0)  -->
<!DOCTYPE svg PUBLIC "-//W3C//DTD SVG 1.1//EN" "http://www.w3.org/Graphics/SVG/1.1/DTD/svg11.dtd">
<svg version="1.1" id="Layer_1" xmlns="http://www.w3.org/2000/svg" xmlns:xlink="http://www.w3.org/1999/xlink" x="0px" y="0px"
	 width="137.485px" height="209.948px" viewBox="0 0 137.485 209.948" enable-background="new 0 0 137.485 209.948"
	 xml:space="preserve">
<path fill="#8B9FAA" d="M137.484,121.446l0.001-21.316c0-1.779-1.456-3.236-3.236-3.236h-24.712c-1.778,0-3.234,1.457-3.234,3.236
	v47.265c0,1.779,1.456,3.236,3.234,3.236h24.712c1.78,0,3.236-1.457,3.236-3.236L137.484,121.446z"/>
<path fill="#8B9FAA" d="M31.182,121.446l0.001-21.316c0-1.779-1.456-3.236-3.235-3.236H3.235C1.456,96.895,0,98.352,0,100.13v47.265
	c0,1.779,1.456,3.236,3.235,3.236h24.712c1.778,0,3.235-1.457,3.235-3.236L31.182,121.446z"/>
<path fill="#8B9FAA" d="M72.264,63.597c0,0.787-0.644,1.43-1.43,1.43h-4.183c-0.787,0-1.431-0.643-1.431-1.43V42.298
	c0-0.787,0.644-1.431,1.431-1.431h4.183c0.786,0,1.43,0.644,1.43,1.431V63.597z"/>
<path fill="#8B9FAA" d="M76.863,197.626c0,1.813-1.484,3.298-3.298,3.298H63.92c-1.813,0-3.298-1.484-3.298-3.298v-49.115
	c0-1.814,1.484-3.299,3.298-3.299h9.646c1.813,0,3.298,1.484,3.298,3.299V197.626z"/>
<path fill="#ADC6D2" d="M115.169,164.86c1.78,0,3.236-1.456,3.236-3.236l-0.001-94.092c0,0-8.674-8.197-49.662-8.197
	c-40.987,0-49.661,8.197-49.661,8.197l-0.002,94.092c0,1.78,1.456,3.236,3.236,3.236H115.169z"/>
<path opacity="0.05" d="M68.476,59.337c-40.754,0.036-49.395,8.196-49.395,8.196l-0.002,94.091c0,1.779,1.456,3.236,3.236,3.236
	h46.16V59.337z"/>
<path d="M86.135,192.555c0,9.606-7.787,17.394-17.393,17.394s-17.393-7.787-17.393-17.394s7.787-17.393,17.393-17.393
	S86.135,182.948,86.135,192.555"/>
<path fill="#8B9FAA" d="M78.282,192.555c0,5.269-4.271,9.539-9.539,9.539c-5.27,0-9.541-4.271-9.541-9.539
	c0-5.268,4.271-9.539,9.541-9.539C74.011,183.016,78.282,187.287,78.282,192.555"/>
<path d="M70.511,192.555c0,0.978-0.792,1.769-1.769,1.769s-1.769-0.791-1.769-1.769s0.792-1.768,1.769-1.768
	S70.511,191.577,70.511,192.555"/>
<path fill="#8B9FAA" d="M44.185,141.188c-1.814,0-3.298-1.484-3.298-3.299v-9.645c0-1.814,1.483-3.298,3.298-3.298H93.3
	c1.813,0,3.298,1.483,3.298,3.298v9.645c0,1.814-1.484,3.299-3.298,3.299H44.185z"/>
<rect x="44.324" y="127.615" fill="#FFFFFF" width="8.908" height="3.538"/>
<rect x="54.307" y="127.615" fill="#FFFFFF" width="8.907" height="3.538"/>
<rect x="64.288" y="127.615" fill="#FFFFFF" width="8.908" height="3.538"/>
<rect x="74.271" y="127.615" fill="#FFFFFF" width="8.908" height="3.538"/>
<rect x="84.253" y="127.615" fill="#FFFFFF" width="8.907" height="3.538"/>
<rect x="44.324" y="134.981" fill="#FFFFFF" width="8.908" height="3.539"/>
<rect x="54.307" y="134.981" fill="#FFFFFF" width="8.907" height="3.539"/>
<rect x="64.288" y="134.981" fill="#FFFFFF" width="8.908" height="3.539"/>
<rect x="74.271" y="134.981" fill="#FFFFFF" width="8.908" height="3.539"/>
<rect x="84.253" y="134.981" fill="#FFFFFF" width="8.907" height="3.539"/>
<path fill="#8B9FAA" d="M118.405,153.664H19.079v1.362h99.326V153.664z M118.404,93.162H19.08v1.363h99.324V93.162z"/>
<path fill="#8B9FAA" d="M92.899,93.144c0,13.341-10.815,24.157-24.156,24.157c-13.342,0-24.157-10.816-24.157-24.157
	s10.815-24.157,24.157-24.157C82.084,68.987,92.899,79.803,92.899,93.144"/>
<path fill="#F4921E" d="M89.466,93.144c0,11.445-9.278,20.725-20.724,20.725s-20.724-9.279-20.724-20.725
	c0-11.445,9.278-20.724,20.724-20.724S89.466,81.699,89.466,93.144"/>
<path fill="#FFFFFF" d="M73.933,93.201c0,2.917-2.364,5.281-5.281,5.281s-5.281-2.364-5.281-5.281s2.364-5.281,5.281-5.281
	S73.933,90.284,73.933,93.201"/>
<path fill="#ADC6D2" d="M118.404,27.669l0.001-21.316c0-1.779-1.456-3.236-3.236-3.236H22.315c-1.78,0-3.236,1.457-3.236,3.236
	v47.265c0,1.78,1.456,3.236,3.236,3.236h92.854c1.78,0,3.236-1.456,3.236-3.236L118.404,27.669z"/>
<path opacity="0.05" d="M118.405,6.353c0-1.78-1.456-3.236-3.236-3.236H22.315c-1.78,0-3.236,1.456-3.236,3.236v47.265
	c0,1.78,1.456,3.236,3.236,3.236L118.405,6.353z"/>
<path fill="#ADC6D2" d="M122.144,3.06c0-1.683-1.377-3.06-3.061-3.06H18.4c-1.683,0-3.059,1.377-3.059,3.06v2.166
	c0,1.683,1.376,3.06,3.059,3.06h100.683c1.684,0,3.061-1.377,3.061-3.06V3.06z"/>
<path fill="#FFFFFF" d="M103.359,47.964c0,2.176-1.765,3.941-3.941,3.941c-2.176,0-3.94-1.765-3.94-3.941s1.765-3.941,3.94-3.941
	C101.595,44.023,103.359,45.788,103.359,47.964"/>
<path fill="#FFFFFF" d="M113.605,47.964c0,2.176-1.765,3.941-3.941,3.941c-2.176,0-3.94-1.765-3.94-3.941s1.765-3.941,3.94-3.941
	C111.841,44.023,113.605,45.788,113.605,47.964"/>
</svg>
