<?xml version="1.0" encoding="utf-8"?>
<!-- Generator: Adobe Illustrator 15.0.0, SVG Export Plug-In . SVG Version: 6.00 Build 0)  -->
<!DOCTYPE svg PUBLIC "-//W3C//DTD SVG 1.1//EN" "http://www.w3.org/Graphics/SVG/1.1/DTD/svg11.dtd">
<svg version="1.1" id="Layer_1" xmlns="http://www.w3.org/2000/svg" xmlns:xlink="http://www.w3.org/1999/xlink" x="0px" y="0px"
	 width="110.229px" height="214.037px" viewBox="0 0 110.229 214.037" enable-background="new 0 0 110.229 214.037"
	 xml:space="preserve">
<path fill="#8B9FAA" d="M110.228,125.535l0.001-21.316c0-1.779-1.456-3.236-3.236-3.236H82.28c-1.779,0-3.234,1.457-3.234,3.236
	v47.265c0,1.779,1.455,3.236,3.234,3.236h24.712c1.779,0,3.236-1.457,3.236-3.236L110.228,125.535z"/>
<path fill="#8B9FAA" d="M31.182,125.535l0.001-21.316c0-1.779-1.456-3.236-3.236-3.236H3.235c-1.779,0-3.235,1.457-3.235,3.236
	v47.265c0,1.779,1.456,3.236,3.235,3.236h24.712c1.779,0,3.236-1.457,3.236-3.236L31.182,125.535z"/>
<path fill="#8B9FAA" d="M58.636,67.686c0,0.787-0.645,1.43-1.43,1.43h-4.184c-0.787,0-1.43-0.643-1.43-1.43V46.387
	c0-0.787,0.643-1.431,1.43-1.431h4.184c0.785,0,1.43,0.644,1.43,1.431V67.686z"/>
<path fill="#8B9FAA" d="M63.235,201.715c0,1.813-1.484,3.298-3.299,3.298h-9.645c-1.814,0-3.298-1.484-3.298-3.298V152.6
	c0-1.814,1.484-3.299,3.298-3.299h9.645c1.814,0,3.299,1.484,3.299,3.299V201.715z"/>
<path fill="#ADC6D2" d="M101.541,168.949c1.78,0,3.236-1.456,3.236-3.236l-0.001-94.092c0,0-8.674-8.197-49.662-8.197
	S5.453,71.621,5.453,71.621l-0.002,94.092c0,1.78,1.456,3.236,3.236,3.236H101.541z"/>
<path opacity="0.05" d="M54.847,63.426c-40.753,0.036-49.394,8.196-49.394,8.196l-0.002,94.091c0,1.779,1.456,3.236,3.236,3.236
	h46.16V63.426z"/>
<path d="M72.507,196.644c0,9.606-7.787,17.394-17.393,17.394c-9.605,0-17.392-7.787-17.392-17.394s7.787-17.393,17.392-17.393
	C64.72,179.251,72.507,187.037,72.507,196.644"/>
<path fill="#8B9FAA" d="M64.653,196.644c0,5.269-4.271,9.539-9.539,9.539c-5.269,0-9.54-4.271-9.54-9.539
	c0-5.268,4.271-9.539,9.54-9.539C60.382,187.104,64.653,191.376,64.653,196.644"/>
<path d="M56.882,196.644c0,0.978-0.792,1.769-1.768,1.769c-0.977,0-1.769-0.791-1.769-1.769s0.792-1.768,1.769-1.768
	C56.09,194.876,56.882,195.666,56.882,196.644"/>
<path fill="#8B9FAA" d="M30.557,145.277c-1.814,0-3.298-1.484-3.298-3.299v-9.645c0-1.814,1.484-3.298,3.298-3.298h49.114
	c1.814,0,3.299,1.483,3.299,3.298v9.645c0,1.814-1.484,3.299-3.299,3.299H30.557z"/>
<rect x="30.695" y="131.704" fill="#FFFFFF" width="8.908" height="3.538"/>
<rect x="40.679" y="131.704" fill="#FFFFFF" width="8.908" height="3.538"/>
<rect x="50.661" y="131.704" fill="#FFFFFF" width="8.908" height="3.538"/>
<rect x="60.643" y="131.704" fill="#FFFFFF" width="8.907" height="3.538"/>
<rect x="70.624" y="131.704" fill="#FFFFFF" width="8.908" height="3.538"/>
<rect x="30.695" y="139.07" fill="#FFFFFF" width="8.908" height="3.539"/>
<rect x="40.679" y="139.07" fill="#FFFFFF" width="8.908" height="3.539"/>
<rect x="50.661" y="139.07" fill="#FFFFFF" width="8.908" height="3.539"/>
<rect x="60.643" y="139.07" fill="#FFFFFF" width="8.907" height="3.539"/>
<rect x="70.624" y="139.07" fill="#FFFFFF" width="8.908" height="3.539"/>
<path fill="#ADC6D2" d="M104.776,27.669l0.001-21.316c0-1.779-1.456-3.236-3.236-3.236H8.688c-1.78,0-3.236,1.457-3.236,3.236
	v47.265c0,1.78,1.456,3.236,3.236,3.236h92.854c1.779,0,3.236-1.456,3.236-3.236L104.776,27.669z"/>
<path opacity="0.05" d="M104.777,6.354c0-1.78-1.456-3.236-3.236-3.236H8.687c-1.78,0-3.236,1.456-3.236,3.236v47.265
	c0,1.78,1.456,3.236,3.236,3.236L104.777,6.354z"/>
<path fill="#ADC6D2" d="M108.516,3.06c0-1.683-1.377-3.06-3.061-3.06H4.772c-1.683,0-3.06,1.377-3.06,3.06v2.166
	c0,1.683,1.377,3.06,3.06,3.06h100.683c1.684,0,3.061-1.377,3.061-3.06V3.06z"/>
<path fill="#8B9FAA" d="M104.776,157.753H5.452v1.362h99.325V157.753z M104.776,97.251H5.453v1.363h99.324V97.251z"/>
<path fill="#8B9FAA" d="M79.271,97.232c0,13.341-10.814,24.157-24.157,24.157c-13.341,0-24.156-10.816-24.156-24.157
	s10.815-24.157,24.156-24.157C68.456,73.076,79.271,83.892,79.271,97.232"/>
<path fill="#FFFFFF" d="M75.838,97.232c0,11.445-9.278,20.725-20.724,20.725c-11.445,0-20.723-9.279-20.723-20.725
	c0-11.445,9.278-20.724,20.723-20.724C66.56,76.508,75.838,85.788,75.838,97.232"/>
<path fill="#8B9FAA" d="M60.304,84.975c0,2.917-2.363,5.281-5.28,5.281s-5.281-2.364-5.281-5.281s2.364-5.281,5.281-5.281
	S60.304,82.058,60.304,84.975"/>
<path fill="#8B9FAA" d="M89.731,47.964c0,2.176-1.765,3.941-3.941,3.941c-2.176,0-3.941-1.765-3.941-3.941
	c0-2.176,1.766-3.941,3.941-3.941C87.967,44.023,89.731,45.788,89.731,47.964"/>
<path fill="#8B9FAA" d="M99.977,47.964c0,2.176-1.764,3.941-3.94,3.941c-2.176,0-3.94-1.765-3.94-3.941
	c0-2.176,1.765-3.941,3.94-3.941C98.213,44.023,99.977,45.788,99.977,47.964"/>
</svg>
