<?xml version="1.0" encoding="utf-8"?>
<!-- Generator: Adobe Illustrator 15.0.0, SVG Export Plug-In . SVG Version: 6.00 Build 0)  -->
<!DOCTYPE svg PUBLIC "-//W3C//DTD SVG 1.1//EN" "http://www.w3.org/Graphics/SVG/1.1/DTD/svg11.dtd">
<svg version="1.1" id="Layer_1" xmlns="http://www.w3.org/2000/svg" xmlns:xlink="http://www.w3.org/1999/xlink" x="0px" y="0px"
	 width="137.485px" height="209.948px" viewBox="0 0 137.485 209.948" enable-background="new 0 0 137.485 209.948"
	 xml:space="preserve">
<path d="M115.169,164.86c1.78,0,3.236-1.456,3.236-3.236l-0.001-94.092c0,0-8.674-8.197-49.662-8.197
	c-40.988,0-49.661,8.197-49.661,8.197l-0.002,94.092c0,1.78,1.456,3.236,3.236,3.236H115.169z"/>
<path d="M76.862,197.626c0,1.813-1.483,3.298-3.297,3.298H63.92c-1.814,0-3.298-1.484-3.298-3.298v-49.115
	c0-1.813,1.484-3.298,3.298-3.298h9.646c1.813,0,3.297,1.484,3.297,3.298V197.626z"/>
<path d="M86.135,192.555c0,9.606-7.787,17.394-17.393,17.394c-9.605,0-17.392-7.787-17.392-17.394
	c0-9.605,7.787-17.393,17.392-17.393C78.348,175.162,86.135,182.949,86.135,192.555"/>
<circle fill="none" stroke="#FFFFFF" stroke-miterlimit="10" cx="68.742" cy="192.555" r="11.528"/>
<path fill="#FFFFFF" d="M69.274,180.925v-32.414c0-1.813-0.097-3.299-0.216-3.299h-0.632c-0.119,0-0.216,1.485-0.216,3.299v32.414
	H69.274z"/>
<path d="M137.484,121.446l0.001-21.316c0-1.779-1.456-3.236-3.236-3.236h-24.711c-1.779,0-3.235,1.457-3.235,3.236v47.265
	c0,1.78,1.456,3.236,3.235,3.236h24.711c1.779,0,3.236-1.456,3.236-3.236L137.484,121.446z"/>
<path d="M31.182,121.446l0.001-21.316c0-1.779-1.456-3.236-3.236-3.236H3.235C1.456,96.895,0,98.352,0,100.13v47.265
	c0,1.78,1.456,3.236,3.235,3.236h24.712c1.779,0,3.236-1.456,3.236-3.236L31.182,121.446z"/>
<path d="M72.264,63.597c0,0.787-0.644,1.43-1.43,1.43h-4.183c-0.787,0-1.43-0.643-1.43-1.43V42.298c0-0.787,0.643-1.431,1.43-1.431
	h4.183c0.786,0,1.43,0.644,1.43,1.431V63.597z"/>
<rect x="44.324" y="127.615" fill="#FFFFFF" width="8.908" height="3.538"/>
<rect x="54.306" y="127.615" fill="#FFFFFF" width="8.908" height="3.538"/>
<rect x="64.288" y="127.615" fill="#FFFFFF" width="8.908" height="3.538"/>
<rect x="74.271" y="127.615" fill="#FFFFFF" width="8.908" height="3.538"/>
<rect x="84.252" y="127.615" fill="#FFFFFF" width="8.908" height="3.538"/>
<rect x="44.324" y="134.982" fill="#FFFFFF" width="8.908" height="3.538"/>
<rect x="54.306" y="134.982" fill="#FFFFFF" width="8.908" height="3.538"/>
<rect x="64.288" y="134.982" fill="#FFFFFF" width="8.908" height="3.538"/>
<rect x="74.271" y="134.982" fill="#FFFFFF" width="8.908" height="3.538"/>
<rect x="84.252" y="134.982" fill="#FFFFFF" width="8.908" height="3.538"/>
<path fill="#FFFFFF" d="M89.466,93.144c0,11.445-9.278,20.724-20.724,20.724c-11.445,0-20.723-9.278-20.723-20.724
	c0-11.445,9.278-20.724,20.723-20.724C80.188,72.419,89.466,81.699,89.466,93.144"/>
<path d="M118.404,27.669l0.001-21.316c0-1.779-1.456-3.236-3.236-3.236H22.315c-1.78,0-3.236,1.457-3.236,3.236v47.265
	c0,1.78,1.456,3.236,3.236,3.236h92.854c1.779,0,3.236-1.456,3.236-3.236L118.404,27.669z"/>
<path d="M122.144,3.06c0-1.683-1.377-3.06-3.061-3.06H18.4c-1.683,0-3.06,1.377-3.06,3.06v2.166c0,1.683,1.377,3.06,3.06,3.06
	h100.683c1.684,0,3.061-1.377,3.061-3.06V3.06z"/>
<path fill="#FFFFFF" d="M103.358,47.964c0,2.176-1.764,3.941-3.94,3.941c-2.176,0-3.94-1.765-3.94-3.941
	c0-2.176,1.765-3.941,3.94-3.941C101.595,44.023,103.358,45.788,103.358,47.964"/>
<path fill="#FFFFFF" d="M113.604,47.964c0,2.176-1.764,3.941-3.94,3.941c-2.176,0-3.94-1.765-3.94-3.941
	c0-2.176,1.765-3.941,3.94-3.941C111.841,44.023,113.604,45.788,113.604,47.964"/>
<rect x="67.33" y="86.172" transform="matrix(0.7071 0.7071 -0.7071 0.7071 86.5116 -21.1138)" width="2.824" height="15.4"/>
<rect x="67.33" y="86.172" transform="matrix(0.7071 -0.7071 0.7071 0.7071 -46.243 76.1026)" width="2.824" height="15.399"/>
<rect x="67.33" y="86.172" transform="matrix(0.7071 0.7071 -0.7071 0.7071 86.5116 -21.1138)" width="2.824" height="15.4"/>
<rect x="67.33" y="86.172" transform="matrix(0.7071 -0.7071 0.7071 0.7071 -46.243 76.1026)" width="2.824" height="15.399"/>
<path fill="#FFFFFF" d="M41.663,68.872h3.667v-3.667h-3.667V68.872z M47.746,68.872h3.667v-3.667h-3.667V68.872z M53.83,68.872
	h3.667v-3.667H53.83V68.872z"/>
<path fill="#FFFFFF" d="M87.269,5.175h5.952v7.507h16.03V2h-0.75v9.932h-14.53V4.425h-7.452v6.434H72.524V2h-0.75v9.609h15.494
	V5.175z M43.401,142.023h50.084v-0.75H43.401V142.023z M20.038,142.663V110.33h-5.083v22.333H4.538v-12.916h6V101.83H2v0.75h7.788
	v16.417h-6v14.416h11.917V111.08h3.583v32.333h6.5v19.447h0.75v-20.197H20.038z M128.038,131.08h-5.5v17.552h0.75V131.83h5.5v-14
	h6.697v-0.75h-7.447V131.08z M106.801,104.534V71.448H87.776V62.04c-0.244-0.02-0.502-0.037-0.75-0.056v10.214h19.024v8.061h-8.138
	v0.75h8.138v24.275h29.435v-0.75H106.801z M105.774,149.675h10.125v-18.672h-10.125V149.675z M106.524,131.753h8.625v17.172h-8.625
	V131.753z M43.401,124.968h50.084v-0.75H43.401V124.968z M105.774,119.059h-7.861v0.75h7.861v9.188h10.125v-18.672h-10.125V119.059z
	 M106.524,111.074h8.625v17.172h-8.625V111.074z M30.538,64.991c-0.256,0.066-0.505,0.131-0.75,0.197V81.58h10.167v29.75H28.288
	v20.25h7v31.28h0.75v-32.03h-7v-18.75h11.667V80.83H30.538V64.991z M48.106,10.518h16.68v31.546H50.157V30.53h-13.31v17.923h40.992
	V20.002h38.566v-0.75H77.089v28.451H37.597V31.28h11.81v11.534h16.129V9.768h-18.18v10.765H21.079v0.75h27.027V10.518z"/>
</svg>
