<?xml version="1.0" encoding="utf-8"?>
<!-- Generator: Adobe Illustrator 16.1.0, SVG Export Plug-In . SVG Version: 6.00 Build 0)  -->
<!DOCTYPE svg PUBLIC "-//W3C//DTD SVG 1.1//EN" "http://www.w3.org/Graphics/SVG/1.1/DTD/svg11.dtd">
<svg version="1.1" id="Layer_1" xmlns="http://www.w3.org/2000/svg" xmlns:xlink="http://www.w3.org/1999/xlink" x="0px" y="0px"
	 width="612px" height="792px" viewBox="0 0 612 792" enable-background="new 0 0 612 792" xml:space="preserve">
<path d="M342.97,194.762c61.606,0,119.826,46.386,120.595,103.647C521.659,326.994,562,381.459,562,443.462l-0.011,12.038v51.375
	c0,50-38.25,90-95,90H306H145.01c-56.75,0-95-40-95-90V468.25L50,463.283c0-43.192,23.327-82.197,57.891-108.792l-3.494-13.02
	c-1.682-6.308-2.557-12.542-2.557-18.537c0-42.544,37.161-77.142,82.775-77.142c5.111,0,10.139,0.533,15.099,1.402
	c-6.517,16.337-10.265,33.931-10.265,52.357h24.642h8.281C222.372,241.753,280.998,194.762,342.97,194.762 M278.841,360.785
	c-6.524,0-11.15,2.369-14.525,7.108l-39.349,55.417l-39.149-55.238c-2.943-4.186-7.785-7.288-14.733-7.288h-3.573
	c-9.054,0-16.209,6.197-16.209,14.03v101.707c0,7.662,6.948,13.679,15.786,13.679s16.002-6.017,16.002-13.679V413.1l27.981,37.358
	c3.365,4.38,7.578,7.116,13.473,7.116c5.896,0,10.107-2.736,13.464-7.116l28.413-37.911v63.624c0,7.646,7.155,14.029,16.002,14.029
	c9.054,0,16.2-6.196,16.2-14.029V374.815c0-7.833-7.146-14.03-16.2-14.03H278.841z M355.485,361.49c-9.046,0-16.2,6.188-16.2,14.038
	v99.517c0,7.833,7.154,14.03,16.2,14.03h41.247c46.305,0,78.3-27.889,78.3-64.163c0-35.908-31.995-63.421-78.3-63.421H355.485z"/>
<path d="M396.732,464.584c27.594,0,46.115-15.9,46.115-39.93c0-23.523-18.963-39.938-46.115-39.938h-26.739v79.868H396.732"/>
</svg>
