<?xml version="1.0" encoding="utf-8"?>
<!-- Generator: Adobe Illustrator 15.0.0, SVG Export Plug-In  -->
<!DOCTYPE svg PUBLIC "-//W3C//DTD SVG 1.0//EN" "http://www.w3.org/TR/2001/REC-SVG-20010904/DTD/svg10.dtd" [
	<!ENTITY ns_flows "http://ns.adobe.com/Flows/1.0/">
]>
<svg version="1.0"
	 xmlns="http://www.w3.org/2000/svg" xmlns:xlink="http://www.w3.org/1999/xlink" xmlns:a="http://ns.adobe.com/AdobeSVGViewerExtensions/3.0/"
	 x="0px" y="0px" width="101px" height="67px" viewBox="0 -0.5 101 67" overflow="visible" enable-background="new 0 -0.5 101 67"
	 xml:space="preserve">
<defs>
</defs>
<path d="M4.25,0.088c1.987,13.429,4.413,26.42,6.25,40c0.583-12.834,0.083-26.75,0.25-40c1.333,0,2.667,0,4,0
	c0,21.833,0,43.667,0,65.5c-1.417,0-2.833,0-4.25,0c-1.918-13.582-4.424-26.576-6.25-40.25C3.667,38.255,4.167,52.255,4,65.589
	c-1.333,0-2.667,0-4,0c0-21.584,0-43.167,0-64.75C0.09-0.737,2.959,0.464,4.25,0.088z"/>
<path d="M27.75,0.088c2.771,21.646,5.356,43.477,7.75,65.5c-1.333,0-2.667,0-4,0c-1.859-15.725-3.816-31.352-5.5-47.25
	c-2.239,15.428-3.953,31.379-5.75,47.25c-1.417,0-2.833,0-4.25,0c2.598-21.568,5.186-43.149,7.75-64.75
	C23.773-0.722,26.531,0.454,27.75,0.088z"/>
<path d="M28.75,0.088c6.583,0,13.167,0,19.75,0c0,1.333,0,2.667,0,4c-2.5,0-5,0-7.5,0c-0.583,20-0.083,41.083-0.25,61.5
	c-1.333,0-2.667,0-4,0c0-20.5,0-41,0-61.5c-2.583,0-5.167,0-7.75,0C29.044,2.788,28.239,1.025,28.75,0.088z"/>
<path d="M53,0.088c0,10.167,0,20.333,0,30.5c1.752,0.581,4.582,0.085,6.75,0.25c0-10.25,0-20.5,0-30.75c1.333,0,2.667,0,4,0
	c0,21.833,0,43.667,0,65.5c-1.333,0-2.667,0-4,0c0-10.167,0-20.334,0-30.5c-1.752-0.582-4.582-0.086-6.75-0.25
	c0,10.25,0,20.5,0,30.75c-1.334,0-2.667,0-4,0c0-21.584,0-43.167,0-64.75C49.023-0.722,51.781,0.454,53,0.088z"/>
<path d="M76.75,0.088c2.285,22.048,5.215,43.452,7.5,65.5c-1.333,0-2.667,0-4,0c-1.859-15.725-3.816-31.352-5.5-47.25
	c-2.238,15.428-3.953,31.379-5.75,47.25c-1.417,0-2.833,0-4.25,0c2.598-21.568,5.186-43.149,7.75-64.75
	C72.59-0.737,75.459,0.464,76.75,0.088z"/>
<path d="M89.75,0.088c1.986,13.429,4.412,26.42,6.25,40c0.583-12.834,0.084-26.75,0.25-40c1.333,0,2.667,0,4,0
	c0,21.833,0,43.667,0,65.5c-1.417,0-2.833,0-4.25,0c-1.918-13.582-4.424-26.576-6.25-40.25c-0.583,12.917-0.084,26.917-0.25,40.25
	c-1.333,0-2.667,0-4,0c0-21.584,0-43.167,0-64.75C85.59-0.737,88.459,0.464,89.75,0.088z"/>
</svg>
