<?xml version="1.0" standalone="no"?>
<!DOCTYPE svg PUBLIC "-//W3C//DTD SVG 1.1//EN" "http://www.w3.org/Graphics/SVG/1.1/DTD/svg11.dtd" >
<svg xmlns="http://www.w3.org/2000/svg">
<metadata></metadata>
<defs>
<font id="alegreya_sansbold" horiz-adv-x="389" >
<font-face units-per-em="1000" ascent="800" descent="-200" />
<missing-glyph horiz-adv-x="151" />
<glyph unicode="&#xa8;I" horiz-adv-x="295" d="M119 845.5q16 -16.5 16 -45.5q0 -32 -17.5 -50t-48.5 -18q-29 0 -45 16.5t-16 46.5q0 31 17.5 49t48.5 18q29 0 45 -16.5zM272 845.5q16 -16.5 16 -45.5q0 -32 -17.5 -50t-48.5 -18q-29 0 -45 16.5t-16 46.5q0 31 17.5 49t48.5 18q29 0 45 -16.5zM215 0h-137l8 192 l-8 452h138l-7 -440z" />
<glyph unicode="&#xa8;O" horiz-adv-x="643" d="M284 845.5q16 -16.5 16 -45.5q0 -32 -17.5 -50t-48.5 -18q-29 0 -45 16.5t-16 46.5q0 31 17.5 49t48.5 18q29 0 45 -16.5zM458 845.5q16 -16.5 16 -45.5q0 -32 -17.5 -50t-48.5 -18q-29 0 -45 16.5t-16 46.5q0 31 17.5 49t48.5 18q29 0 45 -16.5zM541.5 570.5 q73.5 -82.5 73.5 -234.5q0 -166 -79 -256t-225 -90q-136 0 -209.5 84.5t-73.5 239.5q0 163 79.5 251t225.5 88q135 0 208.5 -82.5zM204.5 493.5q-35.5 -49.5 -35.5 -161.5q0 -128 35.5 -182.5t117.5 -54.5q79 0 115.5 50t36.5 164q0 127 -36 180.5t-118 53.5 q-80 0 -115.5 -49.5z" />
<glyph unicode="&#xb4;Y" horiz-adv-x="558" d="M339 0h-136l8 179l-2 38l-205 427h144l14 -45l109 -245h10l121 241l19 49h140l-226 -425l-2 -40zM425 807l-4 -12q-92 -36 -215 -78l-13 4l-22 55q121 61 208 113l12 -3z" />
<glyph unicode="&#xa8;i" horiz-adv-x="254" d="M101 666.5q16 -16.5 16 -45.5q0 -32 -17.5 -50t-48.5 -18q-29 0 -45 16.5t-16 46.5q0 31 17.5 49t48.5 18q29 0 45 -16.5zM254 666.5q16 -16.5 16 -45.5q0 -32 -17.5 -50t-48.5 -18q-29 0 -45 16.5t-16 46.5q0 31 17.5 49t48.5 18q29 0 45 -16.5zM193 0h-133l7 192 l-6 264l133 11l-8 -262z" />
<glyph unicode="&#xa8;o" horiz-adv-x="494" d="M210 666.5q16 -16.5 16 -45.5q0 -32 -17.5 -50t-48.5 -18q-29 0 -45 16.5t-16 46.5q0 31 17.5 49t48.5 18q29 0 45 -16.5zM384 666.5q16 -16.5 16 -45.5q0 -32 -17.5 -50t-48.5 -18q-29 0 -45 16.5t-16 46.5q0 31 17.5 49t48.5 18q29 0 45 -16.5zM409 414q54 -60 54 -173 q0 -122 -57.5 -186.5t-166.5 -64.5q-102 0 -156 60t-54 173q0 122 57.5 186.5t166.5 64.5q102 0 156 -60zM176 352q-22 -32 -22 -103q0 -92 22.5 -131t72.5 -39q48 0 69 31.5t21 103.5q0 91 -22 130.5t-72 39.5q-47 0 -69 -32z" />
<glyph unicode="&#xb4;y" horiz-adv-x="447" d="M225 135h8l81 247l17 83h115l-151 -433q-33 -94 -88.5 -144.5t-157.5 -79.5l-10 1q-36 33 -60 80l5 14q62 11 106 34t79 63l-170 462l128 6l15 -74zM373 651l-2 -13q-22 -14 -33 -20q-125 -77 -162 -98l-13 1l-32 50q116 93 181 153l13 -1z" />
<glyph unicode="&#x7e;I" horiz-adv-x="295" d="M214 0h-136l7 192l-7 452h138l-8 -440zM301 827l-63 -89l-12 -4q-19 3 -73 20q-46 14 -55 14q-12 0 -22 -9.5t-19.5 -22.5t-13.5 -18h-11l-39 39v12l62 87l12 5q19 -3 73 -20q46 -14 55 -14q12 0 22 9.5t19.5 22.5t13.5 18h12l39 -39v-11z" />
<glyph unicode="&#x7e;i" horiz-adv-x="254" d="M193 0h-133l7 192l-6 264l133 11l-8 -262zM283 648l-63 -89l-12 -4q-19 3 -73 20q-46 14 -55 14q-12 0 -22 -9.5t-19.5 -22.5t-13.5 -18h-11l-39 39v12l62 87l12 5q19 -3 73 -20q46 -14 55 -14q12 0 22 9.5t19.5 22.5t13.5 18h12l39 -39v-11z" />
<glyph unicode="&#x7e;U" horiz-adv-x="638" d="M573 232q1 -115 -67 -178t-195 -63q-122 0 -186 61t-61 175l1 93l-3 324h136l-7 -399q-1 -143 128 -143q130 0 129 136l-7 406h138l-5 -327zM495 830l-70 -89l-13 -5q-27 3 -83 19q-60 16 -71 16t-21.5 -9t-22.5 -22t-18 -20h-12l-40 39v11l71 89l12 5q24 -3 85 -20 q56 -15 69 -15q12 0 23.5 10t23.5 23t16 18h12l39 -39v-11z" />
<glyph unicode="&#x7e;u" horiz-adv-x="522" d="M452 97.5q5 -6.5 18 -6.5q10 0 26 4l10 -8l-12 -70q-32 -21 -73 -25q-63 6 -80 75h-10q-57 -55 -117 -73q-75 0 -115 34.5t-40 99.5l3 118l-5 210l129 11l-4 -295q0 -71 60 -71q42 0 87 39v316l126 11l-8 -346q0 -17 5 -23.5zM433 651l-70 -89l-13 -5q-27 3 -83 19 q-60 16 -71 16t-21.5 -9t-22.5 -22t-18 -20h-12l-40 39v11l71 89l12 5q24 -3 85 -20q56 -15 69 -15q12 0 23.5 10t23.5 23t16 18h12l39 -39v-11z" />
<glyph unicode="&#x7e;E" horiz-adv-x="509" d="M491 101l-9 -101h-404l7 192l-7 452h408l8 -11l-10 -101l-154 5l-116 -1l-3 -155l111 -2l105 3l8 -10l-9 -101l-114 3l-103 -1l-1 -69l3 -97l113 -1l159 6zM457 830l-70 -89l-13 -5q-27 3 -83 19q-60 16 -71 16t-21.5 -9t-22.5 -22t-18 -20h-12l-40 39v11l71 89l12 5 q24 -3 85 -20q56 -15 69 -15q12 0 23.5 10t23.5 23t16 18h12l39 -39v-11z" />
<glyph unicode="&#x7e;e" horiz-adv-x="471" d="M152 215q8 -126 124 -126q65 0 134 36l11 -7l-18 -98q-70 -30 -140 -30q-111 0 -172.5 64t-61.5 176q0 113 62 178t168 65q87 0 134 -48.5t47 -134.5q0 -27 -4 -55l-19 -19zM254 386q-39 0 -64.5 -25.5t-34.5 -72.5l168 5l2 12q0 81 -71 81zM424 651l-70 -89l-13 -5 q-27 3 -83 19q-60 16 -71 16t-21.5 -9t-22.5 -22t-18 -20h-12l-40 39v11l71 89l12 5q24 -3 85 -20q56 -15 69 -15q12 0 23.5 10t23.5 23t16 18h12l39 -39v-11z" />
<glyph unicode="&#x7e;Y" horiz-adv-x="558" d="M339 0h-136l8 179l-2 38l-205 427h144l14 -45l109 -245h10l121 241l19 49h140l-226 -425l-2 -40zM451 830l-70 -89l-13 -5q-27 3 -83 19q-60 16 -71 16t-21.5 -9t-22.5 -22t-18 -20h-12l-40 39v11l71 89l12 5q24 -3 85 -20q56 -15 69 -15q12 0 23.5 10t23.5 23t16 18h12 l39 -39v-11z" />
<glyph unicode="&#x7e;y" horiz-adv-x="447" d="M225 135h8l81 247l17 83h115l-151 -433q-33 -94 -88.5 -144.5t-157.5 -79.5l-10 1q-36 33 -60 80l5 14q62 11 106 34t79 63l-170 462l128 6l15 -74zM402 651l-70 -89l-13 -5q-27 3 -83 19q-60 16 -71 16t-21.5 -9t-22.5 -22t-18 -20h-12l-40 39v11l71 89l12 5 q24 -3 85 -20q56 -15 69 -15q12 0 23.5 10t23.5 23t16 18h12l39 -39v-11z" />
<glyph unicode="fi" horiz-adv-x="597" d="M453 687l-15 -103l-13 -7q-74 34 -121 34q-40 0 -58.5 -20t-19.5 -64l-1 -66h236l73 10l8 -5l-8 -261l7 -205h-132l7 192l-4 189h-188l-3 -176l7 -205h-133l8 193l-2 188h-70l-5 7l7 73h66v38q0 106 53.5 156t166.5 50q58 0 134 -18z" />
<glyph unicode="fl" horiz-adv-x="612" d="M547 0h-133l7 193l-5 399q-61 24 -109 24q-81 0 -82 -83l-1 -72h114l4 -7l-7 -73h-112l-2 -177l7 -204h-133l7 192l-2 189h-70l-4 7l6 73h67l-1 52q-1 96 55.5 146.5t160.5 50.5q62 0 127 -16l107 8l-8 -497z" />
<glyph unicode="fj" horiz-adv-x="607" d="M453 687l-15 -103l-13 -7q-74 34 -121 34q-40 0 -58.5 -20t-19.5 -64l-1 -66h237l72 10l8 -5l-8 -261l6 -178q0 -79 -38 -131t-125 -91l-46 59v12q46 25 65 59t19 88l1 169l-4 189h-188l-3 -176l7 -205h-133l8 193l-2 188h-70l-5 7l7 73h67l-1 38q0 106 53.5 156 t166.5 50q58 0 134 -18z" />
<glyph unicode="&#x7e;G" horiz-adv-x="598" d="M553 613l-29 -122l-13 -2q-49 28 -87.5 40.5t-82.5 12.5q-89 0 -130 -53t-41 -174q0 -80 17.5 -127t54.5 -68.5t98 -21.5q38 0 85 14l2 55l-2 99l125 10l-3 -88l3 -157q-120 -40 -221 -40q-150 0 -225.5 82t-75.5 235q0 167 87.5 255.5t248.5 88.5q105 0 189 -39z M501 830l-70 -89l-13 -5q-27 3 -83 19q-60 16 -71 16t-21.5 -9t-22.5 -22t-18 -20h-12l-40 39v11l71 89l12 5q24 -3 85 -20q56 -15 69 -15q12 0 23.5 10t23.5 23t16 18h12l39 -39v-11z" />
<glyph unicode="&#x7e;g" horiz-adv-x="500" d="M431 387l-2 -4q15 -30 15 -67q0 -75 -54.5 -119.5t-147.5 -44.5q-28 0 -58 5q-15 -15 -15 -26q0 -18 24 -25t76 -14q59 -7 98.5 -17t68 -35t28.5 -71q0 -47 -29.5 -84.5t-81.5 -58.5t-118 -21q-91 0 -140 37t-49 98q31 43 83 75v5q-72 26 -72 91q27 33 68 61v5 q-73 40 -73 129q0 78 54 122t147 44q54 0 98 -18q72 13 147 40l10 -9v-83q-27 -7 -77 -15zM329 314q0 76 -78 76q-84 0 -84 -77q0 -81 79 -81q83 0 83 82zM323 -18q-29 10 -90 18q-22 2 -31 4q-48 -33 -48 -63q0 -26 24 -42t70 -16q47 0 75.5 16.5t28.5 45.5q0 27 -29 37z M428 643l-70 -89l-13 -5q-27 3 -83 19q-60 16 -71 16t-21.5 -9t-22.5 -22t-18 -20h-12l-40 39v11l71 89l12 5q24 -3 85 -20q56 -15 69 -15q12 0 23.5 10t23.5 23t16 18h12l39 -39v-11z" />
<glyph unicode="&#xd;" horiz-adv-x="333" />
<glyph unicode=" "  horiz-adv-x="151" />
<glyph unicode="&#x09;" horiz-adv-x="151" />
<glyph unicode="&#xa0;" horiz-adv-x="151" />
<glyph unicode="!" horiz-adv-x="264" d="M173 237l-76 -10l-13 13l-8 404l12 15l105 7l16 -16zM172.5 117q17.5 -18 17.5 -50q0 -34 -19 -54t-52 -20t-50.5 18t-17.5 51t19.5 53t53.5 20q31 0 48.5 -18z" />
<glyph unicode="&#x22;" horiz-adv-x="354" d="M130 413l-62 -9l-11 9l-2 222l103 7l7 -9zM280 413l-63 -9l-10 9l-2 222l102 7l8 -9z" />
<glyph unicode="#" horiz-adv-x="549" d="M398 252h90l8 -9l-7 -68h-106l-28 -143h-77l-7 9l26 134h-100l-28 -143h-77l-6 9l26 134h-84l-8 9l6 68h101l20 104h-86l-8 9l6 68h103l27 140h74l9 -10l-25 -130h101l27 140h74l9 -10l-25 -130h87l9 -9l-7 -68h-104zM232 356l-20 -104h100l21 104h-101z" />
<glyph unicode="$" horiz-adv-x="450" d="M364 53.5q-38 -44.5 -111 -57.5l-8 -132h-77l-11 11l8 118q-67 5 -127 29l17 118l13 9q33 -30 74 -48t73 -18q28 0 45.5 14t17.5 35q0 22 -20.5 35.5t-63.5 30.5q-45 19 -73.5 35.5t-49 45.5t-20.5 72q0 58 39.5 100.5t108.5 55.5l8 138h76l12 -12l-8 -123q54 -4 103 -23 l-19 -112l-18 -5q-65 48 -117 48q-28 0 -44 -13.5t-16 -32.5q0 -21 20 -34.5t63 -31.5q45 -19 73.5 -35t49 -44.5t20.5 -71.5q0 -57 -38 -101.5z" />
<glyph unicode="%" horiz-adv-x="854" d="M674 634l-466 -726l-57 34l-6 14l467 730l54 -33zM305 604.5q38 -45.5 38 -129.5q0 -92 -41.5 -140.5t-120.5 -48.5q-73 0 -111.5 45t-38.5 130q0 92 42.5 140.5t121.5 48.5q72 0 110 -45.5zM132 539.5q-17 -22.5 -17 -71.5q0 -101 72 -101q73 0 73 96q0 51 -18 75 t-56 24q-37 0 -54 -22.5zM784 312.5q38 -45.5 38 -129.5q0 -92 -41.5 -140.5t-120.5 -48.5q-73 0 -111.5 45t-38.5 130q0 92 42.5 140.5t121.5 48.5q72 0 110 -45.5zM611 247.5q-17 -22.5 -17 -71.5q0 -101 72 -101q73 0 73 96q0 51 -18 75t-56 24q-37 0 -54 -22.5z" />
<glyph unicode="&#x26;" horiz-adv-x="711" d="M557 337q12 -47 12 -90q0 -64 -24 -115l131 -118v-8q-32 -36 -72 -59h-9l-114 103q-76 -59 -198 -59q-110 0 -175.5 48.5t-65.5 132.5q0 110 114 165v7q-66 69 -66 144t54.5 118.5t155.5 43.5q88 0 163 -30l-30 -97h-17q-61 35 -120 35q-44 0 -67 -20t-23 -57 q0 -25 12 -46t44 -48l210 -190q10 29 10 66q0 44 -17 83h-61l-6 8l9 85h289l8 -9l-9 -84h-135zM410 114l-198 179q-56 -39 -56 -99q0 -53 37.5 -82t102.5 -29q69 0 114 31z" />
<glyph unicode="'" horiz-adv-x="205" d="M130 413l-62 -9l-11 9l-2 222l103 7l7 -9z" />
<glyph unicode="(" horiz-adv-x="295" d="M291 609q-60 -54 -87 -138t-27 -217q0 -126 27 -206.5t87 -135.5v-11l-48 -40h-11q-85 62 -123 154.5t-39 237.5q1 153 39 249t123 159h11l48 -41v-11z" />
<glyph unicode=")" horiz-adv-x="295" d="M3 -88q60 54 87 138t27 217q0 126 -27 206.5t-87 135.5v11l48 40h11q85 -62 123 -154.5t39 -237.5q-1 -153 -39 -249t-123 -159h-11l-48 41v11z" />
<glyph unicode="*" horiz-adv-x="383" d="M213 611l-42 -5l-7 7l-4 116q37 13 78 13l4 -8zM144 558l-10 -4l-106 32q-1 35 10 78l10 3l102 -67zM369 570l-6 -6l-120 -10l-19 38l4 9l105 40q21 -33 36 -71zM306 443q-17 -25 -55 -56l-9 2l-45 119l30 28l11 -1zM179 505l-60 -96q-24 7 -72 35l1 9l92 82l38 -19z" />
<glyph unicode="+" horiz-adv-x="480" d="M286 305h162l9 -9l-7 -81h-164v-165l-81 -6l-10 8v163h-163l-9 9l7 81h165v166l81 7l10 -10v-163z" />
<glyph unicode="," horiz-adv-x="229" d="M188 46q0 -87 -121 -173l-43 38l-1 10q55 46 55 98q0 34 -32 60l1 11q46 28 96 42q45 -36 45 -86z" />
<glyph unicode="-" horiz-adv-x="304" d="M276 226l-238 -37l-11 11v83l238 36l11 -11v-82z" />
<glyph unicode="." horiz-adv-x="229" d="M165.5 117q17.5 -18 17.5 -50q0 -34 -19 -54t-52 -20t-50.5 18t-17.5 51t19.5 53t53.5 20q31 0 48.5 -18z" />
<glyph unicode="/" horiz-adv-x="284" d="M99 -115h-92l-8 11l206 784h90l11 -12z" />
<glyph unicode="0" horiz-adv-x="521" d="M427.5 447q55.5 -66 55.5 -187q0 -128 -60 -198.5t-170 -70.5q-102 0 -158 66t-56 185q0 129 60.5 200t170.5 71q102 0 157.5 -66zM171 356.5q-29 -33.5 -29 -105.5q0 -73 29 -108t90 -35q119 0 119 137q0 145 -120 145q-60 0 -89 -33.5z" />
<glyph unicode="1" horiz-adv-x="360" d="M253 208l7 -208h-135l6 194v166l-113 -30l-10 7v107l234 67l19 -14z" />
<glyph unicode="2" horiz-adv-x="471" d="M355 478.5q44 -32.5 44 -89.5q0 -80 -112 -200l-75 -83l2 -4h135l90 8l8 -9l-16 -107l-121 6h-227l-37 -2l-7 5v81l135 133q48 49 71 81t23 56q0 20 -15 32t-42 12q-66 0 -132 -59h-15l-22 103q103 69 200 69q69 0 113 -32.5z" />
<glyph unicode="3" horiz-adv-x="431" d="M330 475q48 -38 48 -99q0 -41 -23 -79.5t-72 -65.5v-5q109 -31 109 -133q0 -55 -31.5 -98t-88.5 -66.5t-131 -23.5q-53 0 -108 10l-7 103l9 9q59 -21 111 -21q56 0 87.5 22t31.5 62q0 68 -91 71h-70l-7 9l4 91l44 2q38 1 68 24.5t30 59.5q0 27 -18 42t-50 15 q-52 0 -118 -47h-14l-20 97q86 59 181 59q78 0 126 -38z" />
<glyph unicode="4" horiz-adv-x="503" d="M387 55l5 -135l-7 -9l-104 -7l-7 8l3 144h-160l-87 -3l-9 12v84l245 357h122l-3 -348h83l8 -12l-6 -93zM279 158v197h-9l-135 -197h144z" />
<glyph unicode="5" horiz-adv-x="432" d="M386 400l-10 -10l-91 10h-116l-3 -112l62 -13q87 -18 125.5 -56.5t38.5 -102.5q0 -63 -32 -111.5t-90.5 -75t-133.5 -26.5q-52 0 -110 12l-7 104l9 9q66 -23 119 -23q55 0 87 25.5t32 67.5q0 34 -23 53.5t-75 28.5l-96 17l-9 11l5 285l16 15l58 -2h146l104 5l8 -8z" />
<glyph unicode="6" horiz-adv-x="483" d="M405.5 311.5q44.5 -49.5 44.5 -124.5q0 -54 -24.5 -99t-72.5 -71.5t-115 -26.5q-99 0 -152 59.5t-53 165.5q0 122 76 221t215 160h7l91 -59v-13q-105 -40 -163.5 -82t-83.5 -100l8 -9q45 28 101 28q77 0 121.5 -49.5zM307.5 101.5q22.5 24.5 22.5 69.5q0 97 -85 97 q-44 0 -91 -30v-21q0 -71 20.5 -105.5t69.5 -34.5q41 0 63.5 24.5z" />
<glyph unicode="7" horiz-adv-x="432" d="M357 506l49 2v-98l-165 -360l-56 -150l-107 30l-8 21l209 444h-165l-91 -9l-8 11l9 112l112 -3h221z" />
<glyph unicode="8" horiz-adv-x="493" d="M384.5 556q45.5 -39 45.5 -107q0 -80 -88 -137v-6q49 -24 77 -55.5t28 -84.5q0 -81 -58.5 -128t-155.5 -47q-91 0 -141.5 42t-50.5 109q0 93 110 143v6q-91 50 -91 139q0 76 54 120.5t144 44.5q81 0 126.5 -39zM190 484.5q-21 -18.5 -21 -50.5q0 -33 23 -52.5t66 -36.5 q32 18 50 38t18 51q0 32 -20.5 50.5t-56.5 18.5q-38 0 -59 -18.5zM173.5 215q-21.5 -20 -21.5 -56t24.5 -57.5t67.5 -21.5q44 0 68.5 21.5t24.5 54.5q0 34 -25 53.5t-77 40.5q-40 -15 -61.5 -35z" />
<glyph unicode="9" horiz-adv-x="483" d="M77.5 194.5q-44.5 49.5 -44.5 124.5q0 54 24.5 99t72.5 71.5t115 26.5q99 0 152 -59.5t53 -165.5q0 -122 -76 -221t-215 -160h-7l-91 59v13q105 40 163.5 82t83.5 100l-8 9q-45 -28 -101 -28q-77 0 -121.5 49.5zM175.5 404.5q-22.5 -24.5 -22.5 -69.5q0 -97 85 -97 q44 0 91 30v21q0 71 -20.5 105.5t-69.5 34.5q-41 0 -63.5 -24.5z" />
<glyph unicode=":" horiz-adv-x="229" d="M161.5 117q17.5 -18 17.5 -50q0 -34 -19 -54t-52 -20t-50.5 18t-17.5 51t19.5 53t53.5 20q31 0 48.5 -18zM161.5 379q17.5 -18 17.5 -50q0 -34 -19 -54t-52 -20t-50.5 18t-17.5 51t19.5 53t53.5 20q31 0 48.5 -18z" />
<glyph unicode=";" horiz-adv-x="229" d="M184 46q0 -87 -121 -173l-43 38l-1 10q55 46 55 98q0 34 -32 60l1 11q46 28 96 42q45 -36 45 -86zM161.5 379q17.5 -18 17.5 -50q0 -34 -19 -54t-52 -20t-50.5 18t-17.5 51t19.5 53t53.5 20q31 0 48.5 -18z" />
<glyph unicode="&#x3c;" horiz-adv-x="480" d="M34 314v-108l375 -143l12 9l19 74l-312 114v7l311 118l6 10l-29 76l-373 -145z" />
<glyph unicode="=" horiz-adv-x="480" d="M450 308h-418l-9 9l7 81h418l9 -9zM450 121h-418l-9 9l7 81h418l9 -9z" />
<glyph unicode="&#x3e;" horiz-adv-x="480" d="M446 314v-108l-375 -143l-12 9l-19 74l312 114v7l-311 118l-6 10l29 76l373 -145z" />
<glyph unicode="?" horiz-adv-x="340" d="M287 620q71 -41 71 -113q0 -86 -91 -138l-72 -43l-2 -5l6 -85l-93 -12l-9 9l-10 120l5 10l90 46q56 30 56 77q0 40 -43 61.5t-139 27.5l-9 13l24 74l13 7q132 -8 203 -49zM206.5 117q17.5 -18 17.5 -50q0 -34 -19 -54t-52 -20t-50.5 18t-17.5 51t19.5 53t53.5 20 q31 0 48.5 -18z" />
<glyph unicode="@" horiz-adv-x="844" d="M725 83q-98 -81 -279 -84l22 157h-12q-60 -102 -119 -163h-18q-54 20 -77.5 59.5t-23.5 100.5q0 66 26 130t78.5 112.5t128.5 66.5h6l77 -20l72 22l10 -6l-47 -346l-1 -21q79 12 123.5 69.5t44.5 146.5q0 75 -34 131t-97.5 85.5t-147.5 27.5q-101 -2 -178 -47.5 t-119.5 -124.5t-42.5 -178q0 -105 47 -180.5t133 -115.5t200 -40l5 -13l-36 -62q-132 1 -230.5 47.5t-153 135.5t-54.5 212q0 128 55.5 230.5t156.5 161t233 58.5q105 0 184 -39.5t122.5 -112.5t43.5 -171q0 -148 -98 -229zM384.5 135.5q21.5 25.5 50 76t58.5 120.5l2 15v4 l-64 20q-49 0 -77 -49t-28 -127q0 -85 26 -85q11 0 32.5 25.5z" />
<glyph unicode="A" horiz-adv-x="600" d="M446 0l-16 84l-17 60l-126 3l-111 -3l-17 -53l-17 -91h-134l218 644h161l197 -644h-138zM308 517h-9l-88 -268l86 -2l87 2z" />
<glyph unicode="B" horiz-adv-x="579" d="M547 182q0 -187 -293 -187q-86 0 -176 5l7 192l-7 452l229 1q99 0 154 -41.5t55 -119.5q0 -52 -25.5 -91t-72.5 -59q129 -30 129 -152zM351 528.5q-26 18.5 -91 18.5h-49l-3 -175l94 -3q75 20 75 97q0 44 -26 62.5zM374.5 117q34.5 25 34.5 72q0 71 -92 88l-111 -2 l-1 -71l3 -108q35 -4 69 -4q63 0 97.5 25z" />
<glyph unicode="C" horiz-adv-x="517" d="M505 613l-24 -113l-11 -5q-63 45 -140 45q-159 0 -159 -209q0 -226 163 -226q80 0 148 43l12 -7l-11 -115q-76 -35 -160 -35q-144 0 -219.5 84t-75.5 241q0 160 80.5 248t227.5 88q94 0 169 -39z" />
<glyph unicode="D" horiz-adv-x="655" d="M552 570q75 -78 75 -224q0 -171 -84 -262t-240 -91q-110 0 -225 7l7 192l-7 452l259 4q140 0 215 -78zM486 315q0 118 -38.5 171.5t-120.5 53.5q-53 0 -113 -5l-6 -331l3 -99q70 -7 116 -7q159 0 159 217z" />
<glyph unicode="E" horiz-adv-x="509" d="M491 101l-9 -101h-404l7 192l-7 452h408l8 -11l-10 -101l-154 5l-116 -1l-3 -155l111 -2l105 3l8 -10l-9 -101l-114 3l-103 -1l-1 -69l3 -97l113 -1l159 6z" />
<glyph unicode="F" horiz-adv-x="456" d="M211 362l90 -1l109 3l9 -10l-10 -101l-119 3l-81 -1l-1 -51l6 -204h-136l7 192l-7 452h383l8 -11l-10 -102l-153 6l-92 -1z" />
<glyph unicode="G" horiz-adv-x="598" d="M553 613l-29 -122l-13 -2q-49 28 -87.5 40.5t-82.5 12.5q-89 0 -130 -53t-41 -174q0 -80 17.5 -127t54.5 -68.5t98 -21.5q38 0 85 14l2 55l-2 99l125 10l-3 -88l3 -157q-120 -40 -221 -40q-150 0 -225.5 82t-75.5 235q0 167 87.5 255.5t248.5 88.5q105 0 189 -39z" />
<glyph unicode="H" horiz-adv-x="696" d="M616 0h-137l8 192l-1 75l-146 2l-131 -3l-1 -62l6 -204h-136l7 192l-7 452h138l-5 -265l138 -3l135 3l-5 265h139l-8 -440z" />
<glyph unicode="I" horiz-adv-x="295" d="M214 0h-136l7 192l-7 452h138l-8 -440z" />
<glyph unicode="J" horiz-adv-x="335" d="M253 121q0 -57 -19 -97t-61.5 -71t-116.5 -59l-41 72v12q62 32 87.5 63.5t25.5 81.5v76l-6 345l-106 -3l-10 10l7 93h245l-7 -432z" />
<glyph unicode="K" horiz-adv-x="584" d="M593 28l-2 -15q-62 -15 -133 -23l-16 8q-144 195 -232 333l-2 -127l5 -204h-136l8 192l-8 452h138l-5 -299l180 237l37 62h147l-228 -304q115 -160 247 -312z" />
<glyph unicode="L" horiz-adv-x="433" d="M422 0h-348l7 192l-7 452h138l-8 -440l3 -92h216l8 -11z" />
<glyph unicode="M" horiz-adv-x="797" d="M629 0l-10 195l-23 248h-10l-144 -375h-105l-131 375h-9l-25 -235l-14 -208h-114l65 644h156l26 -95l102 -305h9l107 305l29 95h153l58 -644h-120z" />
<glyph unicode="N" horiz-adv-x="695" d="M615 0h-146l-262 436h-9l-1 -214l5 -222h-124l7 190l-6 454h146l262 -436h9l-4 430l126 8l-8 -447z" />
<glyph unicode="O" horiz-adv-x="643" d="M542.5 570.5q73.5 -82.5 73.5 -234.5q0 -166 -79.5 -256t-225.5 -90q-136 0 -209.5 84.5t-73.5 239.5q0 163 79.5 251t225.5 88q136 0 209.5 -82.5zM205 493.5q-36 -49.5 -36 -161.5q0 -128 35.5 -182.5t117.5 -54.5q80 0 116 50t36 164q0 127 -35.5 180.5t-117.5 53.5 q-80 0 -116 -49.5z" />
<glyph unicode="P" horiz-adv-x="553" d="M480.5 594q54.5 -51 54.5 -146q0 -73 -32 -127.5t-91.5 -84.5t-139.5 -30h-64v-2l6 -204h-136l7 192l-7 452l247 1q101 0 155.5 -51zM394 436q0 54 -27.5 80.5t-84.5 28.5l-68 -4l-4 -232l92 -4q92 26 92 131z" />
<glyph unicode="Q" horiz-adv-x="649" d="M673 -197l-11 -4q-186 69 -329 191h-21q-136 0 -210 84.5t-74 239.5q0 163 79.5 251t225.5 88q136 0 209.5 -82.5t73.5 -236.5q0 -116 -42 -197t-120 -118q131 -80 277 -115l5 -14q-27 -53 -63 -87zM205 149q36 -54 118 -54q78 0 114.5 51t36.5 165q0 125 -36 178.5 t-118 53.5q-80 0 -115.5 -50t-35.5 -164q0 -126 36 -180z" />
<glyph unicode="R" horiz-adv-x="590" d="M571 32l-2 -15q-65 -23 -133 -27l-14 11q-72 124 -117 216h-97v-13l6 -204h-136l7 192l-7 452l247 1q101 0 156 -49.5t55 -141.5q0 -62 -31.5 -113.5t-88.5 -84.5q78 -124 155 -224zM309 318q85 29 85 123q0 51 -27.5 76.5t-84.5 27.5l-68 -4l-4 -219z" />
<glyph unicode="S" horiz-adv-x="498" d="M448 619l-22 -117l-20 -8q-34 24 -70.5 38t-66.5 14q-40 0 -64 -21.5t-24 -49.5q0 -29 26.5 -49t83.5 -47q55 -25 89.5 -46.5t59 -56.5t24.5 -86q0 -55 -30 -100.5t-85 -72t-127 -26.5q-95 0 -191 41l19 126l15 8q40 -35 87.5 -53.5t84.5 -18.5q44 0 68.5 21.5t24.5 51.5 q0 32 -26.5 52t-85.5 48q-54 24 -88 45t-58 56t-24 85q0 56 30 101.5t84 71.5t123 26q82 0 163 -33z" />
<glyph unicode="T" horiz-adv-x="503" d="M481 532l-121 6h-40l-5 -334l6 -204h-136l7 192l-5 346h-40l-123 -6l-9 11l9 101h457l8 -11z" />
<glyph unicode="U" horiz-adv-x="638" d="M573 232q1 -115 -67 -178t-195 -63q-122 0 -186 61t-61 175l1 93l-3 324h136l-7 -399q-1 -143 128 -143q130 0 129 136l-7 406h138l-5 -327z" />
<glyph unicode="V" horiz-adv-x="587" d="M207 0l-197 644h138l16 -85l122 -433h9l140 426l17 92h134l-217 -644h-162z" />
<glyph unicode="W" horiz-adv-x="903" d="M544 0l-96 308h-9l-97 -308h-143l-180 644h133l10 -79l114 -425h9l109 347l-46 157h138l15 -93l116 -411h9l130 416l16 88h126l-212 -644h-142z" />
<glyph unicode="X" horiz-adv-x="610" d="M598 0h-163l-30 64l-107 167l-116 -174l-29 -57h-140l206 318l-204 326h163l30 -65l101 -157l104 162l28 60h143l-194 -307z" />
<glyph unicode="Y" horiz-adv-x="558" d="M339 0h-136l8 179l-2 38l-205 427h144l14 -45l109 -245h10l121 241l19 49h140l-226 -425l-2 -40z" />
<glyph unicode="Z" horiz-adv-x="547" d="M190 103h216l109 9l5 -8l-11 -107l-145 3h-257l-77 -4v97l323 447h-204l-109 -9l-6 7l10 107l404 -1l62 1v-99z" />
<glyph unicode="[" horiz-adv-x="295" d="M295 581l-107 -14v-613l107 -13v-61l-6 -6l-209 10l7 377l-7 377l209 10l6 -7v-60z" />
<glyph unicode="\" horiz-adv-x="284" d="M196 -115h92l8 11l-206 784h-90l-11 -12z" />
<glyph unicode="]" horiz-adv-x="295" d="M-1 -60l107 14v613l-107 13v61l6 6l209 -10l-7 -377l7 -377l-209 -10l-6 7v60z" />
<glyph unicode="^" horiz-adv-x="441" d="M416 135l-75 -18l-113 286h-7l-118 -286l-11 -5l-75 28l144 349l13 7h107l144 -350z" />
<glyph unicode="_" horiz-adv-x="444" d="M452 -173h-458l-9 10l7 74h459l8 -9z" />
<glyph unicode="`" d="M73 651l2 -13q22 -14 33 -20q125 -77 162 -98l13 1l32 50q-116 93 -181 153l-13 -1z" />
<glyph unicode="a" horiz-adv-x="481" d="M364.5 439.5q43.5 -34.5 43.5 -96.5q0 -18 -6 -114q-5 -115 -5 -108q0 -17 5 -23.5t18 -6.5q10 0 26 4l10 -8l-12 -70q-32 -21 -73 -25q-63 6 -77 73h-7q-50 -53 -103 -74q-72 1 -113 38t-41 101q0 97 103 117l153 29v41q0 65 -64 65q-60 0 -143 -58l-10 6l-15 88 q88 56 190 56q77 0 120.5 -34.5zM148 144q0 -26 14 -40.5t39 -14.5q39 0 82 46l2 74l-106 -23q-31 -7 -31 -42z" />
<glyph unicode="b" horiz-adv-x="522" d="M446 411.5q47 -59.5 47 -165.5q0 -123 -61.5 -189.5t-168.5 -66.5q-51 0 -112 23l-71 -25l-16 13l8 190l-7 501l133 10l-4 -303h5q55 51 112 72q88 0 135 -59.5zM368 223q0 141 -89 141q-41 0 -86 -42l-2 -114l2 -113q37 -18 69 -18q106 0 106 146z" />
<glyph unicode="c" horiz-adv-x="385" d="M375 449l-22 -106l-11 -5q-51 28 -91 28q-46 0 -71 -33t-25 -94q0 -70 27 -107t77 -37q45 0 100 25l10 -8l-13 -103q-60 -19 -123 -19q-96 0 -150 62.5t-54 174.5q0 116 59 181.5t164 65.5q70 0 123 -25z" />
<glyph unicode="d" horiz-adv-x="525" d="M450 121q1 -17 5.5 -23.5t16.5 -6.5q10 0 27 4l9 -8l-12 -70q-32 -21 -73 -25q-64 6 -81 70h-8q-49 -45 -100 -69q-99 0 -152.5 62.5t-53.5 173.5q0 118 62 181t172 63q29 0 64 -6l-2 225l132 10l-8 -497zM152 253q0 -156 95 -156q43 0 81 41l2 55l-3 172q-39 18 -74 18 q-101 0 -101 -130z" />
<glyph unicode="e" horiz-adv-x="471" d="M152 215q8 -126 124 -126q65 0 134 36l11 -7l-18 -98q-70 -30 -140 -30q-111 0 -172.5 64t-61.5 176q0 113 62 178t168 65q87 0 134 -48.5t47 -134.5q0 -27 -4 -55l-19 -19zM254 386q-39 0 -64.5 -25.5t-34.5 -72.5l168 5l2 12q0 81 -71 81z" />
<glyph unicode="f" horiz-adv-x="329" d="M390 695l-9 -99l-9 -6q-47 20 -82 20q-62 0 -63 -71l-1 -78h113l4 -7l-6 -73h-113l-3 -176l7 -205h-133l8 193l-2 188h-70l-5 7l7 73h67l-1 55q0 90 53.5 139t150.5 49q41 0 87 -9z" />
<glyph unicode="g" horiz-adv-x="500" d="M431 387l-2 -4q15 -30 15 -67q0 -75 -54.5 -119.5t-147.5 -44.5q-28 0 -58 5q-15 -15 -15 -26q0 -18 24 -25t76 -14q59 -7 98.5 -17t68 -35t28.5 -71q0 -47 -29.5 -84.5t-81.5 -58.5t-118 -21q-91 0 -140 37t-49 98q31 43 83 75v5q-72 26 -72 91q27 33 68 61v5 q-73 40 -73 129q0 78 54 122t147 44q54 0 98 -18q72 13 147 40l10 -9v-83q-27 -7 -77 -15zM329 314q0 76 -78 76q-84 0 -84 -77q0 -81 79 -81q83 0 83 82zM323 -18q-29 10 -90 18q-22 2 -31 4q-48 -33 -48 -63q0 -26 24 -42t70 -16q47 0 75.5 16.5t28.5 45.5q0 27 -29 37z " />
<glyph unicode="h" horiz-adv-x="531" d="M335.5 344.5q-16.5 19.5 -47.5 19.5q-45 0 -95 -42l-2 -117l7 -205h-133l7 193l-6 499l133 10l-5 -303h6q55 50 120 72q76 0 116 -34.5t38 -99.5l-3 -133l6 -204h-134l8 290q1 35 -15.5 54.5z" />
<glyph unicode="i" horiz-adv-x="254" d="M180.5 675q17.5 -18 17.5 -50q0 -34 -19 -54t-52 -20t-50.5 18t-17.5 51t19.5 53t53.5 20q31 0 48.5 -18zM193 0h-133l7 192l-6 264l133 11l-8 -262z" />
<glyph unicode="j" horiz-adv-x="285" d="M191.5 675q17.5 -18 17.5 -50q0 -34 -19 -54t-52 -20t-50.5 18t-17.5 51t19.5 53t53.5 20q31 0 48.5 -18zM212 205l6 -178q0 -79 -38 -131t-125 -91l-47 59v12q46 25 65 59t19 88l1 169l-4 189h-80l-8 8l6 72h85l124 7l4 -3z" />
<glyph unicode="k" horiz-adv-x="495" d="M198 0h-133l7 193l-6 499l133 10l-8 -497zM488 22v-14q-34 -7 -124 -18l-14 6q-93 132 -152 247v9l116 165l24 48h140l-152 -210q50 -79 162 -233z" />
<glyph unicode="l" horiz-adv-x="263" d="M198 0h-133l7 193l-6 499l133 10l-8 -497z" />
<glyph unicode="m" horiz-adv-x="804" d="M562 364q-45 0 -95 -41l-2 -119l5 -204h-132l8 290q0 74 -64 74q-45 0 -96 -42v-117l6 -205h-132l7 192l-6 264l126 11v-68h6q57 51 121 72q113 0 144 -75h5q59 53 130 75q76 0 115.5 -34.5t38.5 -99.5l-3 -133l5 -204h-132l7 290q2 74 -62 74z" />
<glyph unicode="n" horiz-adv-x="527" d="M346 290q0 74 -63 74q-45 0 -96 -43v-116l6 -205h-133l7 192l-6 264l127 11v-68h6q57 51 121 72q76 0 115.5 -34.5t38.5 -99.5l-3 -133l5 -204h-133z" />
<glyph unicode="o" horiz-adv-x="494" d="M410 414q54 -60 54 -173q0 -122 -58 -186.5t-167 -64.5q-102 0 -156 60t-54 173q0 122 58 186.5t167 64.5q102 0 156 -60zM175.5 352q-21.5 -32 -21.5 -103q0 -92 22 -131t72 -39q48 0 69.5 31.5t21.5 103.5q0 91 -22.5 130.5t-71.5 39.5q-48 0 -69.5 -32z" />
<glyph unicode="p" horiz-adv-x="515" d="M440 411.5q47 -59.5 47 -166.5q0 -123 -61.5 -189t-170.5 -66q-32 0 -67 6l3 -181h-131l6 377l-6 264l127 11l-1 -68h7q52 49 112 72q88 0 135 -59.5zM362 223q0 141 -89 141q-41 0 -87 -43l-1 -116l2 -113q36 -15 69 -15q106 0 106 146z" />
<glyph unicode="q" horiz-adv-x="515" d="M456 467l-8 -262l7 -390h-132l6 210v25h-8q-41 -35 -90 -57q-97 0 -150 62.5t-53 171.5q0 119 61.5 182.5t166.5 63.5q54 0 120 -22l69 22zM152 248q0 -74 24 -112.5t69 -38.5q43 0 84 41l1 53l-3 171q-40 21 -75 21q-100 0 -100 -135z" />
<glyph unicode="r" horiz-adv-x="346" d="M341 464v-123l-13 -5q-18 7 -37 7q-58 0 -105 -74v-64l7 -205h-133l7 192l-6 264l127 11l-1 -91h7q49 90 123 90q8 0 24 -2z" />
<glyph unicode="s" horiz-adv-x="384" d="M345 450l-18 -98l-16 -5q-60 39 -109 39q-24 0 -38 -12.5t-14 -30.5q0 -21 18.5 -34t58.5 -29t66 -31t44.5 -41.5t18.5 -65.5q0 -40 -20.5 -74.5t-62.5 -56t-103 -21.5q-72 0 -149 30l15 104l13 8q31 -26 69 -41.5t67 -15.5q27 0 42 13.5t15 32.5q0 21 -18.5 34t-58.5 29 q-41 18 -67 32.5t-44.5 41.5t-18.5 67q0 65 49 106.5t133 41.5q68 0 128 -23z" />
<glyph unicode="t" horiz-adv-x="338" d="M316 115l11 -10l-13 -79q-51 -26 -104 -32q-135 14 -135 132l5 83l-1 172h-62l-5 7l7 73h59v77l121 39l9 -8l-3 -108h119l4 -7l-6 -73h-119l-6 -224q0 -32 12 -45.5t40 -13.5q32 0 67 17z" />
<glyph unicode="u" horiz-adv-x="522" d="M452 97.5q5 -6.5 18 -6.5q10 0 26 4l10 -8l-12 -70q-32 -21 -73 -25q-63 6 -80 75h-10q-57 -55 -117 -73q-75 0 -115 34.5t-40 99.5l3 118l-5 210l129 11l-4 -295q0 -71 60 -71q42 0 87 39v316l126 11l-8 -346q0 -17 5 -23.5z" />
<glyph unicode="v" horiz-adv-x="444" d="M220 125h7l84 259l17 81h116l-156 -465h-143l-132 462l124 6l13 -77z" />
<glyph unicode="w" horiz-adv-x="698" d="M202 134h8l70 254l16 77h129l10 -70l59 -260h8l68 253l16 77h112l-145 -465h-125l-71 299h-9l-83 -299h-131l-121 462l121 6l11 -73z" />
<glyph unicode="x" horiz-adv-x="461" d="M240 309l63 108l25 47h117l-134 -228l140 -232l-140 -10l-23 59l-66 107l-69 -113l-22 -47h-117l135 233l-136 228l142 7l21 -55z" />
<glyph unicode="y" horiz-adv-x="447" d="M225 135h8l81 247l17 83h115l-151 -433q-33 -94 -88.5 -144.5t-157.5 -79.5l-10 1q-36 33 -60 80l5 14q62 11 106 34t79 63l-170 462l128 6l15 -74z" />
<glyph unicode="z" horiz-adv-x="424" d="M340 465l51 1l1 -79l-225 -302h141l85 8l7 -9l-9 -86l-116 2h-184l-64 -3v78l227 304h-134l-83 -7l-8 9l10 86l99 -2h202z" />
<glyph unicode="{" horiz-adv-x="295" d="M284 648l6 -10l-11 -68q-22 5 -36 5q-54 0 -54 -61q0 -21 12 -71q11 -53 11 -69q0 -71 -68 -103v-5q33 -15 50.5 -41.5t17.5 -59.5q0 -23 -12 -71q-11 -55 -11 -70q0 -62 54 -62q14 0 36 5l11 -67l-6 -10q-30 -9 -64 -9q-66 0 -101 30.5t-35 87.5q0 35 12 93q9 45 9 66 q0 61 -69 79v63q69 18 69 79q0 22 -9 67q-12 58 -12 93q0 57 35 87.5t101 30.5q28 0 64 -9z" />
<glyph unicode="|" horiz-adv-x="307" d="M203 291v-543l-90 -7l-11 12l1 528l1 515l92 7l10 -9z" />
<glyph unicode="}" horiz-adv-x="295" d="M10 -111l-6 10l11 68q22 -5 36 -5q54 0 54 61q0 21 -12 71q-11 53 -11 69q0 71 68 103v5q-33 15 -50.5 41.5t-17.5 59.5q0 23 12 71q11 55 11 70q0 62 -54 62q-14 0 -36 -5l-11 67l6 10q30 9 64 9q66 0 101 -30.5t35 -87.5q0 -35 -12 -93q-9 -45 -9 -66q0 -61 69 -79v-63 q-69 -18 -69 -79q0 -22 9 -67q12 -58 12 -93q0 -57 -35 -87.5t-101 -30.5q-28 0 -64 9z" />
<glyph unicode="~" horiz-adv-x="480" d="M121.5 224q-13.5 -12 -43.5 -44h-13l-35 44v12l82 93l12 5q22 -3 103 -27q90 -26 105 -26q11 0 23.5 9.5t34.5 31.5l14 15h12l35 -43v-12l-82 -93l-12 -5q-29 4 -108 28q-84 24 -99 24t-28.5 -12z" />
<glyph unicode="&#xa1;" horiz-adv-x="264" d="M97 231l76 10l13 -13l8 -404l-12 -15l-105 -7l-16 16zM97.5 351q-17.5 18 -17.5 50q0 34 19 54t52 20t50.5 -18t17.5 -51t-19.5 -53t-53.5 -20q-31 0 -48.5 18z" />
<glyph unicode="&#xa2;" horiz-adv-x="383" d="M359 159l10 -8l-13 -103q-40 -12 -83 -17l-10 -155h-86l-10 11l9 149q-70 17 -108.5 77t-38.5 153q0 102 46.5 165.5t130.5 77.5l9 148h83l14 -12l-9 -136q41 -6 72 -21l-22 -106l-11 -5q-51 28 -91 28q-46 0 -71 -33t-25 -94q0 -70 27 -107t77 -37q45 0 100 25z" />
<glyph unicode="&#xa3;" horiz-adv-x="446" d="M411 -3l-126 3h-262l-5 7l6 72q73 18 73 100l-1 93h-73l-5 7l7 64h71l-1 70q-1 88 52 135t150 47q55 0 115 -16l-8 -95l-8 -6q-61 32 -109 32q-77 0 -77 -77l-1 -90h128l4 -6l-5 -65h-127l-1 -85q0 -34 -9 -55.5t-29 -37.5v-4h144l101 7l5 -7z" />
<glyph unicode="&#xa4;" horiz-adv-x="435" d="M426 489l-69 -62q22 -36 22 -78q0 -35 -20 -72l70 -59l1 -12l-57 -61l-12 1l-61 69q-37 -24 -78 -24q-39 0 -73 21l-59 -69l-12 -1l-61 57l1 13l68 60q-22 35 -22 77q0 38 21 74l-69 59l-2 12l57 60h12l63 -69q33 21 76 21q38 0 71 -19l60 69l13 2l60 -57v-12zM160 411 q-24 -24 -24 -62t24 -61.5t62 -23.5t62 24t24 61q0 38 -24 62t-62 24t-62 -24z" />
<glyph unicode="&#xa5;" horiz-adv-x="526" d="M320 172h180l6 -6l-5 -55h-187l4 -111h-114l5 111h-176l-5 7l4 54h171l-39 75h-131l-5 8l4 53h100l-102 196h120l12 -36l99 -186h8l108 182l17 40h117l-113 -196h102l6 -5l-5 -56h-138z" />
<glyph unicode="&#xa6;" horiz-adv-x="307" d="M203 377l-91 -11l-9 8v422l93 7l10 -9zM203 -252l-90 -7l-11 12l1 397l89 10l11 -12v-400z" />
<glyph unicode="&#xa7;" horiz-adv-x="431" d="M365 54q0 -41 -24.5 -76t-67.5 -55.5t-97 -20.5q-33 0 -75.5 8t-75.5 21l17 105l12 8q33 -28 69 -43.5t67 -15.5q29 0 45.5 14t16.5 32q0 20 -19.5 34.5t-61.5 35.5q-45 23 -72.5 41.5t-48 47.5t-20.5 69q0 43 25 81.5t68 61.5q-51 41 -51 97q0 41 24.5 76t67.5 56t96 21 q67 0 125 -23l-16 -101l-16 -5q-65 43 -111 43q-26 0 -42 -14t-16 -32q0 -19 18.5 -32.5t62.5 -36.5q44 -22 72.5 -40.5t49 -48t20.5 -68.5q0 -43 -25 -81t-69 -61q52 -42 52 -98zM166.5 243q24.5 -20 75.5 -46q52 25 52 65q0 29 -23.5 48t-76.5 47q-52 -27 -52 -67 q0 -27 24.5 -47z" />
<glyph unicode="&#xa8;" d="M155.752 620.281q16.0469 -16.5049 16.0469 -45.8467q0 -31.1758 -17.4219 -49.5146t-47.6807 -18.3389t-46.3047 16.5049q-16.0469 16.5049 -16.0469 46.7637t17.8809 48.5977q17.8799 18.3389 49.0557 18.3389q28.4248 0 44.4707 -16.5049zM313.752 620.281 q16.0469 -16.5049 16.0469 -45.8467q0 -31.1758 -17.4219 -49.5146t-47.6807 -18.3389t-46.3047 16.5049q-16.0469 16.5049 -16.0469 46.7637t17.8809 48.5977q17.8799 18.3389 49.0557 18.3389q28.4248 0 44.4707 -16.5049z" />
<glyph unicode="&#xa9;" horiz-adv-x="687" d="M500 560q68 -38 105.5 -107t37.5 -160t-37.5 -160t-105.5 -107t-157 -38t-157 38t-105.5 107t-37.5 160t37.5 160t105.5 107t157 38t157 -38zM210.5 519.5q-57.5 -32.5 -89 -91t-31.5 -135.5t31.5 -135.5t89 -91t132.5 -32.5t132.5 32.5t89 91t31.5 135.5t-31.5 135.5 t-89 91t-132.5 32.5t-132.5 -32.5zM454 448l-16 -70l-6 -4q-33 18 -70 18q-39 0 -58 -21.5t-19 -68.5q0 -102 81 -102q37 0 72 15l8 -4l-7 -70q-36 -14 -80 -14q-83 0 -125 42.5t-42 123.5q0 82 45 127t128 45q43 0 89 -17z" />
<glyph unicode="&#xaa;" horiz-adv-x="340" d="M262.5 628q30.5 -24 30.5 -68l-3 -77q-3 -42 -3 -62q0 -22 13 -22q11 0 16 4l7 -6l-10 -55q-23 -17 -50 -17q-25 0 -38 11t-20 37h-4q-30 -36 -72 -49q-48 1 -76 27t-28 71q0 69 73 81l99 16l1 21q0 40 -40 40q-37 0 -96 -34l-7 3l-11 67q64 36 132 36q56 0 86.5 -24z M118 431q0 -36 33 -36q23 0 45 24l1 52l-54 -10q-25 -5 -25 -30z" />
<glyph unicode="&#xab;" horiz-adv-x="429" d="M18 237l136 178l63 -33l2 -13l-104 -141l104 -140l-2 -13l-63 -34l-136 174v22zM203 237l136 178l63 -33l2 -13l-104 -141l104 -140l-2 -13l-63 -34l-136 174v22z" />
<glyph unicode="&#xac;" horiz-adv-x="480" d="M432 50l-81 -6l-10 8v163h-310l-9 9l7 81h397l6 -8v-247z" />
<glyph unicode="&#xad;" horiz-adv-x="304" d="M276 226l-238 -37l-11 11v83l238 36l11 -11v-82z" />
<glyph unicode="&#xae;" horiz-adv-x="446" d="M358 651q51 -51 51 -134q0 -85 -51 -136t-135 -51t-135 51t-51 136q0 83 51 134t135 51t135 -51zM334 405q42 42 42 112q0 68 -42 110t-110 42q-69 0 -111 -42t-42 -110q0 -70 42 -112t111 -42q68 0 110 42zM268 502q18 -28 49 -66l-1 -5q-17 -7 -47 -9l-6 4 q-20 32 -35 62h-31l2 -63h-48l1 57l-1 138l85 1q33 0 51 -16t18 -45q0 -35 -37 -58zM229 524q25 10 25 32q0 28 -35 29l-20 -1l-1 -58z" />
<glyph unicode="&#xaf;" d="M336 577h-280l-9 9l7 74h280l8 -9z" />
<glyph unicode="&#xb0;" horiz-adv-x="293" d="M238.5 615.5q37.5 -37.5 37.5 -92.5q0 -54 -37.5 -91.5t-91.5 -37.5q-55 0 -93 37.5t-38 91.5q0 55 38 92.5t93 37.5q54 0 91.5 -37.5zM94.5 574.5q-20.5 -20.5 -20.5 -51.5q0 -30 20.5 -50.5t51.5 -20.5t51.5 20.5t20.5 50.5q0 31 -20.5 51.5t-51.5 20.5t-51.5 -20.5z " />
<glyph unicode="&#xb1;" horiz-adv-x="480" d="M286 305h162l9 -9l-7 -81h-164v-165l-81 -6l-10 8v163h-163l-9 9l7 81h165v166l81 7l10 -10v-163zM450 -116h-418l-9 9l7 81h418l9 -9z" />
<glyph unicode="&#xb2;" horiz-adv-x="361" d="M270 680q34 -25 34 -69q0 -29 -19 -63t-62 -86l-51 -64l2 -2h91l67 4l5 -7l-11 -82l-94 4h-167l-26 -1l-6 3v62l94 102q39 45 54.5 66.5t15.5 39.5q0 14 -10.5 23.5t-29.5 9.5q-21 0 -46.5 -12.5t-47.5 -33.5h-12l-18 79q77 52 151 52q52 0 86 -25z" />
<glyph unicode="&#xb3;" horiz-adv-x="321" d="M242.5 680.5q34.5 -25.5 34.5 -67.5q0 -59 -61 -91v-4q72 -21 72 -90q0 -53 -49 -86t-129 -33q-39 0 -76 8l-7 74l8 7q39 -11 77 -11q73 0 73 44q0 38 -50 38h-52l-5 7l1 69l31 1q24 1 41.5 14t17.5 33q0 31 -42 31q-31 0 -78 -25h-11l-16 70q60 37 129 37 q57 0 91.5 -25.5z" />
<glyph unicode="&#xb4;" d="M316 651l-2 -13q-22 -14 -33 -20q-125 -77 -162 -98l-13 1l-32 50q116 93 181 153l13 -1z" />
<glyph unicode="&#xb5;" horiz-adv-x="522" d="M491 17q-34 -24 -71 -24q-34 0 -54 16t-32 53h-8q-52 -53 -107 -68q-22 0 -37 4v-183h-125l4 377l-4 264l125 11v-295q0 -71 62 -71q40 0 85 39v316l126 11l-8 -342q-1 -37 23 -37q9 0 25 7l10 -7z" />
<glyph unicode="&#xb6;" horiz-adv-x="522" d="M495 541h-67l-5 -344l1 -61q0 -77 -43 -128t-149 -93l-36 60v13q55 30 79 63t24 79v51l-5 361h-45q-40 -6 -61 -35.5t-21 -79.5q0 -47 24 -85t70 -61l-46 -70q-91 21 -140.5 78t-49.5 143q0 101 63.5 156.5t180.5 55.5h226l9 -11z" />
<glyph unicode="&#xb7;" horiz-adv-x="229" d="M165.5 305q17.5 -18 17.5 -50q0 -34 -19 -54t-52 -20t-50.5 18t-17.5 51t19.5 53t53.5 20q31 0 48.5 -18z" />
<glyph unicode="&#xb8;" d="M244 -67q41 -22 41 -59q0 -33 -26 -54t-68 -21q-45 0 -82 28l9 56l6 3q30 -30 59 -30q24 0 24 21q0 11 -17 20l-49 28l23 101h64l-18 -74z" />
<glyph unicode="&#xb9;" horiz-adv-x="276" d="M196 453l4 -138h-108l4 126v149l-79 -18l-7 5v83l176 46l15 -11z" />
<glyph unicode="&#xba;" horiz-adv-x="347" d="M287 611.5q37 -40.5 37 -118.5q0 -83 -40 -126.5t-116 -43.5q-71 0 -108 40.5t-37 118.5q0 83 40 126.5t116 43.5q71 0 108 -40.5zM133 561q-12 -20 -12 -68q0 -56 12.5 -78.5t41.5 -22.5t41 20t12 69q0 55 -12.5 77.5t-42.5 22.5q-28 0 -40 -20z" />
<glyph unicode="&#xbb;" horiz-adv-x="426" d="M405 221l-136 -178l-63 33l-2 13l104 141l-104 140l2 13l63 34l136 -174v-22zM221 221l-136 -178l-63 33l-2 13l104 141l-104 140l2 13l63 34l136 -174v-22z" />
<glyph unicode="&#xbc;" horiz-adv-x="747" d="M128 -92l-57 34l-6 14l468 730l54 -33l7 -19zM17 516l-7 5v83l176 46l15 -11l-5 -242l4 -138h-108l4 126v149zM662 86l5 -79l-6 -7l-83 -4l-6 5l2 86h-101l-66 -3l-7 9v65l165 228h98l-3 -221h54l6 -9l-5 -72zM576 165l-1 108h-6l-77 -108h84z" />
<glyph unicode="&#xbd;" horiz-adv-x="773" d="M594 634l-466 -726l-57 34l-6 14l468 730l54 -33zM196 397l4 -138h-108l4 126v149l-79 -18l-7 5v83l176 46l15 -11zM682 365q34 -25 34 -69q0 -29 -19 -63t-62 -86l-51 -64l2 -2h91l67 4l5 -7l-11 -82l-94 4h-167l-26 -1l-6 3v62l94 102q39 45 54.5 66.5t15.5 39.5 q0 14 -10.5 23.5t-29.5 9.5q-21 0 -46.5 -12.5t-47.5 -33.5h-12l-18 79q77 52 151 52q52 0 86 -25z" />
<glyph unicode="&#xbe;" horiz-adv-x="785" d="M166 -92l-57 34l-6 14l468 730l54 -33l7 -19zM239 286q-49 -33 -129 -33q-39 0 -76 8l-7 74l8 7q39 -11 77 -11q73 0 73 44q0 38 -50 38h-52l-5 7l1 69l31 1q24 1 41.5 14t17.5 33q0 31 -42 31q-31 0 -78 -25h-11l-16 70q60 37 129 37q57 0 91.5 -25.5t34.5 -67.5 q0 -59 -61 -91v-4q72 -21 72 -90q0 -53 -49 -86zM700 86l5 -79l-6 -7l-83 -4l-6 5l2 86h-101l-66 -3l-7 9v65l165 228h98l-3 -221h54l6 -9l-5 -72zM614 165l-1 108h-6l-77 -108h84z" />
<glyph unicode="&#xbf;" horiz-adv-x="340" d="M57 -152q-71 41 -71 113q0 86 91 138l72 43l2 5l-6 85l93 12l9 -9l10 -120l-5 -10l-90 -46q-56 -30 -56 -77q0 -40 43 -61.5t139 -27.5l9 -13l-24 -74l-13 -7q-132 8 -203 49zM137.5 351q-17.5 18 -17.5 50q0 34 19 54t52 20t50.5 -18t17.5 -51t-19.5 -53t-53.5 -20 q-31 0 -48.5 18z" />
<glyph unicode="&#xc0;" horiz-adv-x="600" d="M181 796l-4 12l34 79l12 3q87 -52 208 -113l-22 -55l-13 -4q-123 42 -215 78zM446 0l-16 84l-17 60l-126 3l-111 -3l-17 -53l-17 -91h-134l217 644h162l197 -644h-138zM308 517h-9l-88 -268l85 -2l88 2z" />
<glyph unicode="&#xc1;" horiz-adv-x="600" d="M446 0l-16 84l-17 60l-126 3l-111 -3l-17 -53l-17 -91h-134l218 644h161l197 -644h-138zM308 517h-9l-88 -268l86 -2l87 2zM450 807l-4 -12q-92 -36 -215 -78l-13 4l-22 55q121 61 208 113l12 -3z" />
<glyph unicode="&#xc2;" horiz-adv-x="600" d="M154 781q69 46 134 104h27q62 -55 134 -104l-24 -53h-13l-31 18q-37 19 -79 45q-42 -26 -79 -45l-31 -18h-13zM446 0l-16 84l-17 60l-126 3l-111 -3l-17 -53l-17 -91h-134l217 644h162l197 -644h-138zM308 517h-9l-88 -268l85 -2l88 2z" />
<glyph unicode="&#xc3;" horiz-adv-x="600" d="M446 0l-16 84l-17 60l-126 3l-111 -3l-17 -53l-17 -91h-134l218 644h161l197 -644h-138zM308 517h-9l-88 -268l86 -2l87 2zM476 830l-70 -89l-13 -5q-27 3 -83 19q-60 16 -71 16t-21.5 -9t-22.5 -22t-18 -20h-12l-40 39v11l71 89l12 5q24 -3 85 -20q56 -15 69 -15 q12 0 23.5 10t23.5 23t16 18h12l39 -39v-11z" />
<glyph unicode="&#xc4;" horiz-adv-x="600" d="M168 748.5q-16 16.5 -16 46.5q0 31 17.5 49t48.5 18q29 0 45 -16.5t16 -45.5q0 -32 -17.5 -50t-48.5 -18q-29 0 -45 16.5zM342 748.5q-16 16.5 -16 46.5q0 31 17.5 49t48.5 18q29 0 45 -16.5t16 -45.5q0 -32 -17.5 -50t-48.5 -18q-29 0 -45 16.5zM446 0l-16 84l-17 60 l-126 3l-111 -3l-17 -53l-17 -91h-134l217 644h162l197 -644h-138zM308 517h-9l-88 -268l85 -2l88 2z" />
<glyph unicode="&#xc5;" horiz-adv-x="600" d="M446 0l-16 84l-17 60l-126 3l-111 -3l-17 -53l-17 -91h-134l218 644h161l197 -644h-138zM308 517h-9l-88 -268l86 -2l87 2zM373 879q24 -24 24 -67q0 -47 -26.5 -72.5t-72.5 -25.5q-44 0 -68.5 24t-24.5 70q0 45 25.5 70t72.5 25q46 0 70 -24zM260 809q0 -40 41 -40 t41 38q0 39 -42 39q-40 0 -40 -37z" />
<glyph unicode="&#xc6;" horiz-adv-x="822" d="M805 0h-389l-5 84l-17 137l-212 -56l-35 -74l-30 -91h-135l310 644h440l9 -11l-11 -101l-155 5h-88l22 -181l194 50l10 -8l11 -95l-203 -48l18 -149h102l165 6l8 -11zM358 517h-9l-109 -231l142 37z" />
<glyph unicode="&#xc7;" horiz-adv-x="517" d="M481 148l13 -7l-11 -115q-67 -30 -140 -35l-10 -39l34 -19q41 -22 41 -59q0 -33 -26 -54t-68 -21q-45 0 -82 28l9 56l6 3q30 -30 59 -30q24 0 24 21q0 11 -17 20l-49 28l16 68q-124 13 -188 95.5t-64 227.5q0 160 80.5 248t226.5 88q95 0 170 -39l-25 -113l-10 -5 q-63 45 -140 45q-160 0 -160 -209q0 -226 164 -226q80 0 147 43z" />
<glyph unicode="&#xc8;" horiz-adv-x="509" d="M162 796l-4 12l34 79l12 3q87 -52 208 -113l-22 -55l-13 -4q-123 42 -215 78zM490 101l-8 -101h-404l8 192l-8 452h408l7 -11l-9 -101l-155 5l-115 -1l-2 -156l109 -1l106 3l8 -10l-9 -101l-114 3l-102 -1l-1 -69l3 -97l112 -1l159 6z" />
<glyph unicode="&#xc9;" horiz-adv-x="509" d="M491 101l-9 -101h-404l7 192l-7 452h408l8 -11l-10 -101l-154 5l-116 -1l-3 -155l111 -2l105 3l8 -10l-9 -101l-114 3l-103 -1l-1 -69l3 -97l113 -1l159 6zM431 807l-4 -12q-92 -36 -215 -78l-13 4l-22 55q121 61 208 113l12 -3z" />
<glyph unicode="&#xca;" horiz-adv-x="509" d="M135 781q69 46 134 104h27q62 -55 134 -104l-24 -53h-13l-31 18q-37 19 -79 45q-42 -26 -79 -45l-31 -18h-13zM490 101l-8 -101h-404l8 192l-8 452h408l7 -11l-9 -101l-155 5l-115 -1l-2 -156l109 -1l106 3l8 -10l-9 -101l-114 3l-102 -1l-1 -69l3 -97l112 -1l159 6z" />
<glyph unicode="&#xcb;" horiz-adv-x="509" d="M149 748.5q-16 16.5 -16 46.5q0 31 17.5 49t48.5 18q29 0 45 -16.5t16 -45.5q0 -32 -17.5 -50t-48.5 -18q-29 0 -45 16.5zM323 748.5q-16 16.5 -16 46.5q0 31 17.5 49t48.5 18q29 0 45 -16.5t16 -45.5q0 -32 -17.5 -50t-48.5 -18q-29 0 -45 16.5zM490 101l-8 -101h-404 l8 192l-8 452h408l7 -11l-9 -101l-155 5l-115 -1l-2 -156l109 -1l106 3l8 -10l-9 -101l-114 3l-102 -1l-1 -69l3 -97l112 -1l159 6z" />
<glyph unicode="&#xcc;" horiz-adv-x="295" d="M276 777l-22 -55l-13 -4q-123 42 -215 78l-4 12l34 79l12 3q87 -52 208 -113zM215 0h-137l8 192l-8 452h138l-7 -440z" />
<glyph unicode="&#xcd;" horiz-adv-x="295" d="M214 0h-136l7 192l-7 452h138l-8 -440zM296 807l-4 -12q-92 -36 -215 -78l-13 4l-22 55q121 61 208 113l12 -3z" />
<glyph unicode="&#xce;" horiz-adv-x="295" d="M133 885h27q62 -55 134 -104l-24 -53h-13l-31 18q-37 19 -79 45q-42 -26 -79 -45l-31 -18h-13l-25 53q69 46 134 104zM215 0h-137l8 192l-8 452h138l-7 -440z" />
<glyph unicode="&#xd0;" horiz-adv-x="680" d="M577.5 570q74.5 -78 74.5 -224q0 -171 -84 -262t-240 -91q-110 0 -224 7h-1l8 192l-1 83h-89l-6 9l5 81h88l-5 279h1l259 4q140 0 214.5 -78zM511 315q0 118 -38.5 171.5t-120.5 53.5q-51 0 -113 -5l-2 -170h117l6 -9l-4 -81h-121l-1 -71l3 -99q70 -7 116 -7 q158 0 158 217z" />
<glyph unicode="&#xd1;" horiz-adv-x="695" d="M615 0h-146l-262 436h-9l-1 -214l5 -222h-124l7 190l-6 454h146l262 -436h9l-4 430l126 8l-8 -447zM521 830l-70 -89l-13 -5q-27 3 -83 19q-60 16 -71 16t-21.5 -9t-22.5 -22t-18 -20h-12l-40 39v11l71 89l12 5q24 -3 85 -20q56 -15 69 -15q12 0 23.5 10t23.5 23t16 18 h12l39 -39v-11z" />
<glyph unicode="&#xd2;" horiz-adv-x="643" d="M452 777l-22 -55l-13 -4q-123 42 -215 78l-4 12l34 79l12 3q87 -52 208 -113zM541.5 570.5q73.5 -82.5 73.5 -234.5q0 -166 -79 -256t-225 -90q-136 0 -209.5 84.5t-73.5 239.5q0 163 79.5 251t225.5 88q135 0 208.5 -82.5zM204.5 493.5q-35.5 -49.5 -35.5 -161.5 q0 -128 35.5 -182.5t117.5 -54.5q79 0 115.5 50t36.5 164q0 127 -36 180.5t-118 53.5q-80 0 -115.5 -49.5z" />
<glyph unicode="&#xd3;" horiz-adv-x="643" d="M542.5 570.5q73.5 -82.5 73.5 -234.5q0 -166 -79.5 -256t-225.5 -90q-136 0 -209.5 84.5t-73.5 239.5q0 163 79.5 251t225.5 88q136 0 209.5 -82.5zM205 493.5q-36 -49.5 -36 -161.5q0 -128 35.5 -182.5t117.5 -54.5q80 0 116 50t36 164q0 127 -35.5 180.5t-117.5 53.5 q-80 0 -116 -49.5zM471 807l-4 -12q-92 -36 -215 -78l-13 4l-22 55q121 61 208 113l12 -3z" />
<glyph unicode="&#xd4;" horiz-adv-x="643" d="M309 885h27q62 -55 134 -104l-24 -53h-13l-31 18q-37 19 -79 45q-42 -26 -79 -45l-31 -18h-13l-25 53q69 46 134 104zM541.5 570.5q73.5 -82.5 73.5 -234.5q0 -166 -79 -256t-225 -90q-136 0 -209.5 84.5t-73.5 239.5q0 163 79.5 251t225.5 88q135 0 208.5 -82.5z M204.5 493.5q-35.5 -49.5 -35.5 -161.5q0 -128 35.5 -182.5t117.5 -54.5q79 0 115.5 50t36.5 164q0 127 -36 180.5t-118 53.5q-80 0 -115.5 -49.5z" />
<glyph unicode="&#xd5;" horiz-adv-x="643" d="M542.5 570.5q73.5 -82.5 73.5 -234.5q0 -166 -79.5 -256t-225.5 -90q-136 0 -209.5 84.5t-73.5 239.5q0 163 79.5 251t225.5 88q136 0 209.5 -82.5zM205 493.5q-36 -49.5 -36 -161.5q0 -128 35.5 -182.5t117.5 -54.5q80 0 116 50t36 164q0 127 -35.5 180.5t-117.5 53.5 q-80 0 -116 -49.5zM497 830l-70 -89l-13 -5q-27 3 -83 19q-60 16 -71 16t-21.5 -9t-22.5 -22t-18 -20h-12l-40 39v11l71 89l12 5q24 -3 85 -20q56 -15 69 -15q12 0 23.5 10t23.5 23t16 18h12l39 -39v-11z" />
<glyph unicode="&#xd7;" horiz-adv-x="480" d="M419 375l-115 -114l115 -116v-12l-62 -53l-117 116l-117 -117l-61 54v11l115 117l-115 114v14l61 52l117 -117l117 117l62 -52v-14z" />
<glyph unicode="&#xd8;" horiz-adv-x="643" d="M615 336q0 -166 -79 -256t-225 -90q-48 0 -85 10l-57 -119l-85 31l-6 12l57 119q-107 83 -107 271q0 163 79.5 251t225.5 88q46 0 88 -11l51 106l83 -30l8 -14l-51 -106q103 -80 103 -262zM437.5 145q36.5 50 36.5 164q0 127 -36 180.5t-118 53.5q-80 0 -115.5 -49.5 t-35.5 -161.5q0 -128 35.5 -182.5t117.5 -54.5q79 0 115.5 50z" />
<glyph unicode="&#xd9;" horiz-adv-x="638" d="M451 777l-22 -55l-13 -4q-123 42 -215 78l-4 12l34 79l12 3q87 -52 208 -113zM573 232q1 -115 -67 -178t-195 -63q-122 0 -186 61t-62 175l2 93l-3 324h136l-7 -399q-1 -143 128 -143t128 136l-6 406h137l-4 -327z" />
<glyph unicode="&#xda;" horiz-adv-x="638" d="M573 232q1 -115 -67 -178t-195 -63q-122 0 -186 61t-61 175l1 93l-3 324h136l-7 -399q-1 -143 128 -143q130 0 129 136l-7 406h138l-5 -327zM470 807l-4 -12q-92 -36 -215 -78l-13 4l-22 55q121 61 208 113l12 -3z" />
<glyph unicode="&#xdb;" horiz-adv-x="638" d="M308 885h27q62 -55 134 -104l-24 -53h-13l-31 18q-37 19 -79 45q-42 -26 -79 -45l-31 -18h-13l-25 53q69 46 134 104zM573 232q1 -115 -67 -178t-195 -63q-122 0 -186 61t-62 175l2 93l-3 324h136l-7 -399q-1 -143 128 -143t128 136l-6 406h137l-4 -327z" />
<glyph unicode="&#xdc;" horiz-adv-x="638" d="M284 845.5q16 -16.5 16 -45.5q0 -32 -17.5 -50t-48.5 -18q-29 0 -45 16.5t-16 46.5q0 31 17.5 49t48.5 18q29 0 45 -16.5zM458 845.5q16 -16.5 16 -45.5q0 -32 -17.5 -50t-48.5 -18q-29 0 -45 16.5t-16 46.5q0 31 17.5 49t48.5 18q29 0 45 -16.5zM573 232 q1 -115 -67 -178t-195 -63q-122 0 -186 61t-62 175l2 93l-3 324h136l-7 -399q-1 -143 128 -143t128 136l-6 406h137l-4 -327z" />
<glyph unicode="&#xde;" horiz-adv-x="561" d="M486 493q54 -50 54 -148q0 -113 -68.5 -175t-195.5 -62l-64 -1l3 -107h-137l7 192l-5 350l-2 102h139l-2 -101h114q103 0 157 -50zM397 335q0 55 -27 80.5t-84 27.5l-72 -3l-4 -228l94 -4q93 25 93 127z" />
<glyph unicode="&#xdf;" horiz-adv-x="608" d="M435.5 329q19.5 -18 60.5 -43q35 -20 57 -37t37.5 -43t15.5 -63q0 -41 -20.5 -76t-62.5 -56t-101 -21q-69 0 -143 30l16 104l12 8q30 -26 64.5 -41.5t62.5 -15.5q26 0 41.5 13t15.5 32q0 21 -16.5 35.5t-54.5 37.5q-37 22 -61 40.5t-41 47.5t-17 69q0 38 14 60.5t42 49.5 q24 23 35 40t11 43q0 67 -81 67q-97 0 -98 -105l-5 -301l7 -204h-133l8 190l-3 191h-68l-4 7l6 73h65v29q0 101 63.5 157.5t169.5 56.5q90 0 137 -39.5t47 -101.5q0 -38 -14.5 -62.5t-42.5 -53.5q-21 -22 -31 -37.5t-10 -35.5q0 -27 19.5 -45z" />
<glyph unicode="&#xe0;" horiz-adv-x="481" d="M355 571l-32 -50l-13 -1q-37 21 -162 98q-11 6 -33 20l-2 13l48 72l13 1q65 -60 181 -153zM364.5 439.5q43.5 -34.5 43.5 -96.5q0 -18 -6 -114q-5 -115 -5 -108q0 -17 5.5 -23.5t18.5 -6.5q10 0 26 4l9 -8l-11 -70q-34 -21 -74 -25q-63 6 -77 73h-7q-50 -53 -102 -74 q-72 1 -113.5 38t-41.5 101q0 97 103 117l153 29v41q0 65 -64 65q-60 0 -143 -58l-10 6l-15 88q89 56 190 56q77 0 120.5 -34.5zM155.5 172.5q-7.5 -9.5 -7.5 -28.5q0 -26 14 -40.5t39 -14.5q39 0 82 46l2 74l-105 -23q-17 -4 -24.5 -13.5z" />
<glyph unicode="&#xe1;" horiz-adv-x="481" d="M364.5 439.5q43.5 -34.5 43.5 -96.5q0 -18 -6 -114q-5 -115 -5 -108q0 -17 5 -23.5t18 -6.5q10 0 26 4l10 -8l-12 -70q-32 -21 -73 -25q-63 6 -77 73h-7q-50 -53 -103 -74q-72 1 -113 38t-41 101q0 97 103 117l153 29v41q0 65 -64 65q-60 0 -143 -58l-10 6l-15 88 q88 56 190 56q77 0 120.5 -34.5zM148 144q0 -26 14 -40.5t39 -14.5q39 0 82 46l2 74l-106 -23q-31 -7 -31 -42zM379 651l-2 -13q-22 -14 -33 -20q-125 -77 -162 -98l-13 1l-32 50q116 93 181 153l13 -1z" />
<glyph unicode="&#xe2;" horiz-adv-x="481" d="M220 718h29q78 -86 140 -141l-33 -51h-13q-66 52 -109 92q-39 -37 -108 -92h-13l-34 51q57 52 141 141zM364.5 439.5q43.5 -34.5 43.5 -96.5q0 -18 -6 -114q-5 -115 -5 -108q0 -17 5.5 -23.5t18.5 -6.5q10 0 26 4l9 -8l-11 -70q-34 -21 -74 -25q-63 6 -77 73h-7 q-50 -53 -102 -74q-72 1 -113.5 38t-41.5 101q0 97 103 117l153 29v41q0 65 -64 65q-60 0 -143 -58l-10 6l-15 88q89 56 190 56q77 0 120.5 -34.5zM155.5 172.5q-7.5 -9.5 -7.5 -28.5q0 -26 14 -40.5t39 -14.5q39 0 82 46l2 74l-105 -23q-17 -4 -24.5 -13.5z" />
<glyph unicode="&#xe3;" horiz-adv-x="481" d="M364.5 439.5q43.5 -34.5 43.5 -96.5q0 -18 -6 -114q-5 -115 -5 -108q0 -17 5 -23.5t18 -6.5q10 0 26 4l10 -8l-12 -70q-32 -21 -73 -25q-63 6 -77 73h-7q-50 -53 -103 -74q-72 1 -113 38t-41 101q0 97 103 117l153 29v41q0 65 -64 65q-60 0 -143 -58l-10 6l-15 88 q88 56 190 56q77 0 120.5 -34.5zM148 144q0 -26 14 -40.5t39 -14.5q39 0 82 46l2 74l-106 -23q-31 -7 -31 -42zM408 651l-70 -89l-13 -5q-27 3 -83 19q-60 16 -71 16t-21.5 -9t-22.5 -22t-18 -20h-12l-40 39v11l71 89l12 5q24 -3 85 -20q56 -15 69 -15q12 0 23.5 10t23.5 23 t16 18h12l39 -39v-11z" />
<glyph unicode="&#xe4;" horiz-adv-x="481" d="M196 666.5q16 -16.5 16 -45.5q0 -32 -17.5 -50t-48.5 -18q-29 0 -45 16.5t-16 46.5q0 31 17.5 49t48.5 18q29 0 45 -16.5zM370 666.5q16 -16.5 16 -45.5q0 -32 -17.5 -50t-48.5 -18q-29 0 -45 16.5t-16 46.5q0 31 17.5 49t48.5 18q29 0 45 -16.5zM364.5 439.5 q43.5 -34.5 43.5 -96.5q0 -18 -6 -114q-5 -115 -5 -108q0 -17 5.5 -23.5t18.5 -6.5q10 0 26 4l9 -8l-11 -70q-34 -21 -74 -25q-63 6 -77 73h-7q-50 -53 -102 -74q-72 1 -113.5 38t-41.5 101q0 97 103 117l153 29v41q0 65 -64 65q-60 0 -143 -58l-10 6l-15 88q89 56 190 56 q77 0 120.5 -34.5zM155.5 172.5q-7.5 -9.5 -7.5 -28.5q0 -26 14 -40.5t39 -14.5q39 0 82 46l2 74l-105 -23q-17 -4 -24.5 -13.5z" />
<glyph unicode="&#xe5;" horiz-adv-x="481" d="M364.5 439.5q43.5 -34.5 43.5 -96.5q0 -18 -6 -114q-5 -115 -5 -108q0 -17 5 -23.5t18 -6.5q10 0 26 4l10 -8l-12 -70q-32 -21 -73 -25q-63 6 -77 73h-7q-50 -53 -103 -74q-72 1 -113 38t-41 101q0 97 103 117l153 29v41q0 65 -64 65q-60 0 -143 -58l-10 6l-15 88 q88 56 190 56q77 0 120.5 -34.5zM148 144q0 -26 14 -40.5t39 -14.5q39 0 82 46l2 74l-106 -23q-31 -7 -31 -42zM305 700q24 -24 24 -67q0 -47 -26.5 -72.5t-72.5 -25.5q-44 0 -68.5 24t-24.5 70q0 45 25.5 70t72.5 25q46 0 70 -24zM192 630q0 -40 41 -40t41 38q0 39 -42 39 q-40 0 -40 -37z" />
<glyph unicode="&#xe6;" horiz-adv-x="694" d="M621 423.5q47 -49.5 47 -140.5q0 -15 -1 -23l-13 -16l-266 -31q5 -64 33 -94.5t85 -30.5q65 0 131 36l11 -7l-19 -97q-67 -30 -134 -30q-119 0 -173 86q-55 -58 -125 -85q-77 1 -123 36.5t-46 100.5q0 49 26.5 81.5t76.5 38.5l150 16v53q0 65 -63 65q-59 0 -142 -59l-9 6 l-16 90q87 55 183 55q86 0 122 -53q54 52 137 52q81 0 128 -49.5zM414 354.5q-27 -30.5 -27 -75.5v-1l163 23q1 85 -70 85q-39 -1 -66 -31.5zM240 100.5q19 10.5 50 38.5q-7 38 -8 59l-96 -14q-39 -7 -39 -42q0 -25 14.5 -38.5t39.5 -13.5q20 0 39 10.5z" />
<glyph unicode="&#xe7;" horiz-adv-x="385" d="M358 120l11 -8l-14 -103q-51 -17 -102 -18l-9 -39l34 -19q41 -22 41 -59q0 -33 -26 -54t-68 -21q-45 0 -82 28l9 56l6 3q30 -30 59 -30q24 0 24 21q0 11 -17 20l-49 28l16 68q-77 14 -119.5 74.5t-42.5 159.5q0 116 59 181.5t164 65.5q70 0 122 -25l-22 -106l-11 -5 q-51 28 -90 28q-46 0 -71 -32.5t-25 -94.5q0 -70 27 -107t77 -37q44 0 99 25z" />
<glyph unicode="&#xe8;" horiz-adv-x="471" d="M163 618q-11 6 -33 20l-2 13l48 72l13 1q65 -60 181 -153l-32 -50l-13 -1q-37 21 -162 98zM151 215q8 -126 124 -126q65 0 135 36l11 -7l-18 -98q-72 -30 -141 -30q-110 0 -171.5 64t-61.5 176q0 113 62 178t168 65q86 0 133.5 -48.5t47.5 -134.5q0 -27 -4 -55l-19 -19z M254 386q-40 0 -65.5 -25.5t-34.5 -72.5l169 5l2 12q0 81 -71 81z" />
<glyph unicode="&#xe9;" horiz-adv-x="471" d="M152 215q8 -126 124 -126q65 0 134 36l11 -7l-18 -98q-70 -30 -140 -30q-111 0 -172.5 64t-61.5 176q0 113 62 178t168 65q87 0 134 -48.5t47 -134.5q0 -27 -4 -55l-19 -19zM254 386q-39 0 -64.5 -25.5t-34.5 -72.5l168 5l2 12q0 81 -71 81zM394 651l-2 -13 q-22 -14 -33 -20q-125 -77 -162 -98l-13 1l-32 50q116 93 181 153l13 -1z" />
<glyph unicode="&#xea;" horiz-adv-x="471" d="M95 577q57 52 141 141h29q78 -86 140 -141l-33 -51h-13q-66 52 -109 92q-39 -37 -108 -92h-13zM151 215q8 -126 124 -126q65 0 135 36l11 -7l-18 -98q-72 -30 -141 -30q-110 0 -171.5 64t-61.5 176q0 113 62 178t168 65q86 0 133.5 -48.5t47.5 -134.5q0 -27 -4 -55 l-19 -19zM254 386q-40 0 -65.5 -25.5t-34.5 -72.5l169 5l2 12q0 81 -71 81z" />
<glyph unicode="&#xeb;" horiz-adv-x="471" d="M116 569.5q-16 16.5 -16 46.5q0 31 17.5 49t48.5 18q29 0 45 -16.5t16 -45.5q0 -32 -17.5 -50t-48.5 -18q-29 0 -45 16.5zM290 569.5q-16 16.5 -16 46.5q0 31 17.5 49t48.5 18q29 0 45 -16.5t16 -45.5q0 -32 -17.5 -50t-48.5 -18q-29 0 -45 16.5zM151 215 q8 -126 124 -126q65 0 135 36l11 -7l-18 -98q-72 -30 -141 -30q-110 0 -171.5 64t-61.5 176q0 113 62 178t168 65q86 0 133.5 -48.5t47.5 -134.5q0 -27 -4 -55l-19 -19zM254 386q-40 0 -65.5 -25.5t-34.5 -72.5l169 5l2 12q0 81 -71 81z" />
<glyph unicode="&#xec;" horiz-adv-x="254" d="M250 571l-32 -50l-13 -1q-37 21 -162 98q-11 6 -33 20l-2 13l48 72l13 1q65 -60 181 -153zM193 0h-133l7 192l-6 264l133 11l-8 -262z" />
<glyph unicode="&#xed;" horiz-adv-x="254" d="M193 0h-133l7 192l-6 264l133 11l-8 -262zM274 651l-2 -13q-22 -14 -33 -20q-125 -77 -162 -98l-13 1l-32 50q116 93 181 153l13 -1z" />
<glyph unicode="&#xee;" horiz-adv-x="254" d="M115 718h29q78 -86 140 -141l-33 -51h-13q-66 52 -109 92q-39 -37 -108 -92h-13l-34 51q57 52 141 141zM193 0h-133l7 192l-6 264l133 11l-8 -262z" />
<glyph unicode="&#xf0;" horiz-adv-x="497" d="M462 248q0 -124 -57 -191t-163 -67q-99 0 -154 60t-55 174q0 113 54.5 174t157.5 61q26 0 45 -4q-28 45 -76 83l-116 -66l-11 4l-27 53l91 52q-47 27 -99 50v16l83 62h8q69 -35 112 -68l109 62l11 -3l27 -54l-91 -52q151 -142 151 -346zM321.5 113q21.5 37 21.5 122 q0 58 -9 104q-34 30 -82 30q-52 0 -76 -34.5t-24 -110.5q0 -78 24.5 -113t73.5 -35q50 0 71.5 37z" />
<glyph unicode="&#xf1;" horiz-adv-x="527" d="M346 290q0 74 -63 74q-45 0 -96 -43v-116l6 -205h-133l7 192l-6 264l127 11v-68h6q57 51 121 72q76 0 115.5 -34.5t38.5 -99.5l-3 -133l5 -204h-133zM455 651l-70 -89l-13 -5q-27 3 -83 19q-60 16 -71 16t-21.5 -9t-22.5 -22t-18 -20h-12l-40 39v11l71 89l12 5 q24 -3 85 -20q56 -15 69 -15q12 0 23.5 10t23.5 23t16 18h12l39 -39v-11z" />
<glyph unicode="&#xf2;" horiz-adv-x="494" d="M369 571l-32 -50l-13 -1q-37 21 -162 98q-11 6 -33 20l-2 13l48 72l13 1q65 -60 181 -153zM409 414q54 -60 54 -173q0 -122 -57.5 -186.5t-166.5 -64.5q-102 0 -156 60t-54 173q0 122 57.5 186.5t166.5 64.5q102 0 156 -60zM176 352q-22 -32 -22 -103q0 -92 22.5 -131 t72.5 -39q48 0 69 31.5t21 103.5q0 91 -22 130.5t-72 39.5q-47 0 -69 -32z" />
<glyph unicode="&#xf3;" horiz-adv-x="494" d="M410 414q54 -60 54 -173q0 -122 -58 -186.5t-167 -64.5q-102 0 -156 60t-54 173q0 122 58 186.5t167 64.5q102 0 156 -60zM175.5 352q-21.5 -32 -21.5 -103q0 -92 22 -131t72 -39q48 0 69.5 31.5t21.5 103.5q0 91 -22.5 130.5t-71.5 39.5q-48 0 -69.5 -32zM393 651 l-2 -13q-22 -14 -33 -20q-125 -77 -162 -98l-13 1l-32 50q116 93 181 153l13 -1z" />
<glyph unicode="&#xf4;" horiz-adv-x="494" d="M235 718h29q78 -86 140 -141l-33 -51h-13q-66 52 -109 92q-39 -37 -108 -92h-13l-34 51q57 52 141 141zM409 414q54 -60 54 -173q0 -122 -57.5 -186.5t-166.5 -64.5q-102 0 -156 60t-54 173q0 122 57.5 186.5t166.5 64.5q102 0 156 -60zM176 352q-22 -32 -22 -103 q0 -92 22.5 -131t72.5 -39q48 0 69 31.5t21 103.5q0 91 -22 130.5t-72 39.5q-47 0 -69 -32z" />
<glyph unicode="&#xf5;" horiz-adv-x="494" d="M410 414q54 -60 54 -173q0 -122 -58 -186.5t-167 -64.5q-102 0 -156 60t-54 173q0 122 58 186.5t167 64.5q102 0 156 -60zM175.5 352q-21.5 -32 -21.5 -103q0 -92 22 -131t72 -39q48 0 69.5 31.5t21.5 103.5q0 91 -22.5 130.5t-71.5 39.5q-48 0 -69.5 -32zM423 651 l-70 -89l-13 -5q-27 3 -83 19q-60 16 -71 16t-21.5 -9t-22.5 -22t-18 -20h-12l-40 39v11l71 89l12 5q24 -3 85 -20q56 -15 69 -15q12 0 23.5 10t23.5 23t16 18h12l39 -39v-11z" />
<glyph unicode="&#xf7;" horiz-adv-x="480" d="M455 215h-418l-9 9l7 81h418l9 -9zM282.236 135.382q15.4639 -15.9053 15.4639 -44.1807q0 -30.042 -16.7891 -47.7139q-16.7881 -17.6729 -45.9473 -17.6729t-44.6221 15.9053t-15.4629 45.0635q0 29.1592 17.2305 46.8311q17.2295 17.6729 47.2725 17.6729 q27.3916 0 42.8545 -15.9053zM282.236 433.382q15.4639 -15.9053 15.4639 -44.1807q0 -30.042 -16.7891 -47.7139q-16.7881 -17.6729 -45.9473 -17.6729t-44.6221 15.9053t-15.4629 45.0635q0 29.1592 17.2305 46.8311q17.2295 17.6729 47.2725 17.6729 q27.3916 0 42.8545 -15.9053z" />
<glyph unicode="&#xf8;" horiz-adv-x="494" d="M463 241q0 -122 -57.5 -186.5t-166.5 -64.5q-35 0 -67 8l-69 -123l-76 37l-3 11l66 120q-61 59 -61 180q0 122 57.5 186.5t166.5 64.5q35 0 69 -8l59 105l72 -36l7 -12l-57 -102q60 -62 60 -180zM318 110.5q21 31.5 21 103.5q0 91 -22 130.5t-72 39.5q-47 0 -69 -32 t-22 -103q0 -92 22.5 -131t72.5 -39q48 0 69 31.5z" />
<glyph unicode="&#xf9;" horiz-adv-x="522" d="M380 571l-32 -50l-13 -1q-37 21 -162 98q-11 6 -33 20l-2 13l48 72l13 1q65 -60 181 -153zM470 91q10 0 26 4l10 -8l-12 -70q-32 -21 -73 -25q-61 6 -80 75h-9q-59 -56 -118 -73q-75 0 -115 34.5t-40 99.5l3 118l-5 210l129 11l-3 -295q-2 -71 59 -71q43 0 87 39v316 l127 11l-9 -346q0 -30 23 -30z" />
<glyph unicode="&#xfa;" horiz-adv-x="522" d="M452 97.5q5 -6.5 18 -6.5q10 0 26 4l10 -8l-12 -70q-32 -21 -73 -25q-63 6 -80 75h-10q-57 -55 -117 -73q-75 0 -115 34.5t-40 99.5l3 118l-5 210l129 11l-4 -295q0 -71 60 -71q42 0 87 39v316l126 11l-8 -346q0 -17 5 -23.5zM404 651l-2 -13q-22 -14 -33 -20 q-125 -77 -162 -98l-13 1l-32 50q116 93 181 153l13 -1z" />
<glyph unicode="&#xfb;" horiz-adv-x="522" d="M245 718h29q78 -86 140 -141l-33 -51h-13q-66 52 -109 92q-39 -37 -108 -92h-13l-34 51q57 52 141 141zM470 91q10 0 26 4l10 -8l-12 -70q-32 -21 -73 -25q-61 6 -80 75h-9q-59 -56 -118 -73q-75 0 -115 34.5t-40 99.5l3 118l-5 210l129 11l-3 -295q-2 -71 59 -71 q43 0 87 39v316l127 11l-9 -346q0 -30 23 -30z" />
<glyph unicode="&#xfc;" horiz-adv-x="522" d="M221 666.5q16 -16.5 16 -45.5q0 -32 -17.5 -50t-48.5 -18q-29 0 -45 16.5t-16 46.5q0 31 17.5 49t48.5 18q29 0 45 -16.5zM395 666.5q16 -16.5 16 -45.5q0 -32 -17.5 -50t-48.5 -18q-29 0 -45 16.5t-16 46.5q0 31 17.5 49t48.5 18q29 0 45 -16.5zM470 91q10 0 26 4l10 -8 l-12 -70q-32 -21 -73 -25q-61 6 -80 75h-9q-59 -56 -118 -73q-75 0 -115 34.5t-40 99.5l3 118l-5 210l129 11l-3 -295q-2 -71 59 -71q43 0 87 39v316l127 11l-9 -346q0 -30 23 -30z" />
<glyph unicode="&#xfe;" horiz-adv-x="522" d="M445.5 411.5q46.5 -59.5 46.5 -165.5q0 -123 -61 -189.5t-169 -66.5q-34 0 -69 9l3 -184h-131l6 377l-6 500l132 10l-4 -303h6q53 50 112 72q88 0 134.5 -59.5zM368 225q0 139 -89 139q-41 0 -87 -43l-2 -114l2 -112q38 -18 69 -18q107 0 107 148z" />
<glyph unicode="&#xff;" horiz-adv-x="447" d="M190 666.5q16 -16.5 16 -45.5q0 -32 -17.5 -50t-48.5 -18q-29 0 -45 16.5t-16 46.5q0 31 17.5 49t48.5 18q29 0 45 -16.5zM364 666.5q16 -16.5 16 -45.5q0 -32 -17.5 -50t-48.5 -18q-29 0 -45 16.5t-16 46.5q0 31 17.5 49t48.5 18q29 0 45 -16.5zM225 135h9l81 247l16 83 h116l-151 -433q-33 -94 -88.5 -144.5t-157.5 -79.5l-10 1q-36 33 -60 80l5 14q62 11 106 34t79 63l-170 462l128 6l15 -74z" />
<glyph unicode="&#x100;" horiz-adv-x="600" d="M446 0l-16 84l-17 60l-126 3l-111 -3l-17 -53l-17 -91h-134l218 644h161l197 -644h-138zM308 517h-9l-88 -268l86 -2l87 2zM443 756h-280l-9 9l7 74h280l8 -9z" />
<glyph unicode="&#x101;" horiz-adv-x="481" d="M364.5 439.5q43.5 -34.5 43.5 -96.5q0 -18 -6 -114q-5 -115 -5 -108q0 -17 5 -23.5t18 -6.5q10 0 26 4l10 -8l-12 -70q-32 -21 -73 -25q-63 6 -77 73h-7q-50 -53 -103 -74q-72 1 -113 38t-41 101q0 97 103 117l153 29v41q0 65 -64 65q-60 0 -143 -58l-10 6l-15 88 q88 56 190 56q77 0 120.5 -34.5zM148 144q0 -26 14 -40.5t39 -14.5q39 0 82 46l2 74l-106 -23q-31 -7 -31 -42zM375 577h-280l-9 9l7 74h280l8 -9z" />
<glyph unicode="&#x102;" horiz-adv-x="600" d="M446 0l-16 84l-17 60l-126 3l-111 -3l-17 -53l-17 -91h-134l218 644h161l197 -644h-138zM308 517h-9l-88 -268l86 -2l87 2zM394 748q-39 -27 -95 -27q-54 0 -92.5 27t-55.5 78l31 43h19q13 -26 40 -41t63 -15q71 0 98 56h19l31 -43q-19 -51 -58 -78z" />
<glyph unicode="&#x103;" horiz-adv-x="481" d="M364.5 439.5q43.5 -34.5 43.5 -96.5q0 -18 -6 -114q-5 -115 -5 -108q0 -17 5 -23.5t18 -6.5q10 0 26 4l10 -8l-12 -70q-32 -21 -73 -25q-63 6 -77 73h-7q-50 -53 -103 -74q-72 1 -113 38t-41 101q0 97 103 117l153 29v41q0 65 -64 65q-60 0 -143 -58l-10 6l-15 88 q88 56 190 56q77 0 120.5 -34.5zM148 144q0 -26 14 -40.5t39 -14.5q39 0 82 46l2 74l-106 -23q-31 -7 -31 -42zM331.5 564q-38.5 -34 -100.5 -34q-60 0 -96.5 35t-50.5 90l31 45h19q24 -76 101 -76q78 0 100 76h19l31 -45q-15 -57 -53.5 -91z" />
<glyph unicode="&#x104;" horiz-adv-x="600" d="M515 -197q-41 0 -65 24t-24 64q0 25 11 49.5t39 59.5h-30l-16 84l-17 60l-126 3l-111 -3l-17 -53l-17 -91h-134l217 644h162l197 -644h-43q-42 -59 -42 -89q0 -33 35 -33q33 0 68 29h7l12 -54q-56 -50 -106 -50zM308 517h-9l-88 -268l85 -2l88 2z" />
<glyph unicode="&#x105;" horiz-adv-x="481" d="M369 -197q-38 0 -62 23.5t-24 60.5q0 25 14 49t51 61q-44 16 -54 68h-7q-50 -53 -102 -74q-72 1 -113.5 38t-41.5 101q0 97 103 117l153 29v41q0 65 -64 65q-60 0 -143 -58l-10 6l-15 88q89 56 190 56q77 0 120.5 -34.5t43.5 -96.5q0 -18 -6 -114q-5 -115 -5 -108 q0 -17 5.5 -23.5t18.5 -6.5q10 0 26 4l9 -8l-11 -70l-3 -2q-50 -46 -67.5 -68.5t-17.5 -38.5q0 -30 32 -30q28 0 56 28h7l13 -56q-50 -47 -96 -47zM180 186q-17 -4 -24.5 -13.5t-7.5 -28.5q0 -26 14 -40.5t39 -14.5q39 0 82 46l2 74z" />
<glyph unicode="&#x106;" horiz-adv-x="517" d="M505 613l-24 -113l-11 -5q-63 45 -140 45q-159 0 -159 -209q0 -226 163 -226q80 0 148 43l12 -7l-11 -115q-76 -35 -160 -35q-144 0 -219.5 84t-75.5 241q0 160 80.5 248t227.5 88q94 0 169 -39zM464 807l-4 -12q-92 -36 -215 -78l-13 4l-22 55q121 61 208 113l12 -3z " />
<glyph unicode="&#x107;" horiz-adv-x="385" d="M375 449l-22 -106l-11 -5q-51 28 -91 28q-46 0 -71 -33t-25 -94q0 -70 27 -107t77 -37q45 0 100 25l10 -8l-13 -103q-60 -19 -123 -19q-96 0 -150 62.5t-54 174.5q0 116 59 181.5t164 65.5q70 0 123 -25zM385 651l-2 -13q-22 -14 -33 -20q-125 -77 -162 -98l-13 1l-32 50 q116 93 181 153l13 -1z" />
<glyph unicode="&#x108;" horiz-adv-x="517" d="M302 885h27q62 -55 134 -104l-24 -53h-13l-31 18q-37 19 -79 45q-42 -26 -79 -45l-31 -18h-13l-25 53q69 46 134 104zM505 613l-25 -113l-10 -5q-63 45 -140 45q-160 0 -160 -209q0 -226 164 -226q80 0 147 43l13 -7l-11 -115q-76 -35 -160 -35q-144 0 -219.5 84 t-75.5 241q0 160 80.5 248t226.5 88q95 0 170 -39z" />
<glyph unicode="&#x109;" horiz-adv-x="385" d="M226 718h29q78 -86 140 -141l-33 -51h-13q-66 52 -109 92q-39 -37 -108 -92h-13l-34 51q57 52 141 141zM374 449l-22 -106l-11 -5q-51 28 -90 28q-46 0 -71 -32.5t-25 -94.5q0 -70 27 -107t77 -37q44 0 99 25l11 -8l-14 -103q-59 -19 -122 -19q-97 0 -150.5 62.5 t-53.5 174.5q0 116 59 181.5t164 65.5q70 0 122 -25z" />
<glyph unicode="&#x10a;" horiz-adv-x="517" d="M367.5 854q17.5 -18 17.5 -50q0 -34 -19 -54t-52 -20t-50.5 18t-17.5 51t19.5 53t53.5 20q31 0 48.5 -18zM505 613l-25 -113l-10 -5q-63 45 -140 45q-160 0 -160 -209q0 -226 164 -226q80 0 147 43l13 -7l-11 -115q-76 -35 -160 -35q-144 0 -219.5 84t-75.5 241 q0 160 80.5 248t226.5 88q95 0 170 -39z" />
<glyph unicode="&#x10b;" horiz-adv-x="385" d="M291.5 675q17.5 -18 17.5 -50q0 -34 -19 -54t-52 -20t-50.5 18t-17.5 51t19.5 53t53.5 20q31 0 48.5 -18zM374 449l-22 -106l-11 -5q-51 28 -90 28q-46 0 -71 -32.5t-25 -94.5q0 -70 27 -107t77 -37q44 0 99 25l11 -8l-14 -103q-59 -19 -122 -19q-97 0 -150.5 62.5 t-53.5 174.5q0 116 59 181.5t164 65.5q70 0 122 -25z" />
<glyph unicode="&#x10c;" horiz-adv-x="517" d="M505 613l-24 -113l-11 -5q-63 45 -140 45q-159 0 -159 -209q0 -226 163 -226q80 0 148 43l12 -7l-11 -115q-76 -35 -160 -35q-144 0 -219.5 84t-75.5 241q0 160 80.5 248t227.5 88q94 0 169 -39zM330 718h-27q-62 55 -134 104l24 53h13l31 -18q37 -19 79 -45q42 26 79 45 l31 18h13l25 -53q-69 -46 -134 -104z" />
<glyph unicode="&#x10d;" horiz-adv-x="385" d="M375 449l-22 -106l-11 -5q-51 28 -91 28q-46 0 -71 -33t-25 -94q0 -70 27 -107t77 -37q45 0 100 25l10 -8l-13 -103q-60 -19 -123 -19q-96 0 -150 62.5t-54 174.5q0 116 59 181.5t164 65.5q70 0 123 -25zM254 524h-29q-78 86 -140 141l33 51h13q66 -52 109 -92 q39 37 108 92h13l34 -51q-57 -52 -141 -141z" />
<glyph unicode="&#x10e;" horiz-adv-x="655" d="M552 570q75 -78 75 -224q0 -171 -84 -262t-240 -91q-110 0 -225 7l7 192l-7 452l259 4q140 0 215 -78zM486 315q0 118 -38.5 171.5t-120.5 53.5q-53 0 -113 -5l-6 -331l3 -99q70 -7 116 -7q159 0 159 217zM335 718h-27q-62 55 -134 104l24 53h13l31 -18q37 -19 79 -45 q42 26 79 45l31 18h13l25 -53q-69 -46 -134 -104z" />
<glyph unicode="&#x10f;" horiz-adv-x="587" d="M450 121q1 -17 5.5 -23.5t16.5 -6.5q10 0 26 4l10 -8l-12 -70q-32 -21 -73 -25q-64 6 -81 70h-8q-49 -45 -100 -69q-99 0 -152.5 62.5t-53.5 173.5q0 118 62 181t171 63q30 0 65 -6l-2 225l132 10l-8 -497zM577 436l-58 -9l-9 7l-3 204l95 6l8 -9zM152 253 q0 -156 95 -156q43 0 81 41l1 55l-2 172q-39 18 -74 18q-101 0 -101 -130z" />
<glyph unicode="&#x110;" horiz-adv-x="655" d="M552 570q75 -78 75 -224q0 -171 -84 -262t-240 -91q-110 0 -225 7l7 192l-7 452l259 4q140 0 215 -78zM486 315q0 118 -38.5 171.5t-120.5 53.5q-53 0 -113 -5l-6 -331l3 -99q70 -7 116 -7q159 0 159 217zM462 756h-280l-9 9l7 74h280l8 -9z" />
<glyph unicode="&#x111;" horiz-adv-x="531" d="M448 205l2 -84q1 -17 5.5 -23.5t16.5 -6.5q10 0 26 4l10 -8l-12 -70q-32 -21 -73 -25q-64 6 -81 70h-8q-49 -45 -100 -69q-99 0 -152.5 62.5t-53.5 173.5q0 118 62 181t171 63q30 0 65 -6l-1 75h-109l-9 9l6 64h112l-1 77l132 10l-1 -87h66l9 -10l-6 -63h-71zM327 365 q-39 18 -74 18q-101 0 -101 -130q0 -156 95 -156q43 0 81 41l1 55z" />
<glyph unicode="&#x112;" horiz-adv-x="509" d="M491 101l-9 -101h-404l7 192l-7 452h408l8 -11l-10 -101l-154 5l-116 -1l-3 -155l111 -2l105 3l8 -10l-9 -101l-114 3l-103 -1l-1 -69l3 -97l113 -1l159 6zM424 756h-280l-9 9l7 74h280l8 -9z" />
<glyph unicode="&#x113;" horiz-adv-x="471" d="M152 215q8 -126 124 -126q65 0 134 36l11 -7l-18 -98q-70 -30 -140 -30q-111 0 -172.5 64t-61.5 176q0 113 62 178t168 65q87 0 134 -48.5t47 -134.5q0 -27 -4 -55l-19 -19zM254 386q-39 0 -64.5 -25.5t-34.5 -72.5l168 5l2 12q0 81 -71 81zM390 577h-280l-9 9l7 74h280 l8 -9z" />
<glyph unicode="&#x114;" horiz-adv-x="509" d="M491 101l-9 -101h-404l7 192l-7 452h408l8 -11l-10 -101l-154 5l-116 -1l-3 -155l111 -2l105 3l8 -10l-9 -101l-114 3l-103 -1l-1 -69l3 -97l113 -1l159 6zM375 748q-39 -27 -95 -27q-54 0 -92.5 27t-55.5 78l31 43h19q13 -26 40 -41t63 -15q71 0 98 56h19l31 -43 q-19 -51 -58 -78z" />
<glyph unicode="&#x115;" horiz-adv-x="471" d="M152 215q8 -126 124 -126q65 0 134 36l11 -7l-18 -98q-70 -30 -140 -30q-111 0 -172.5 64t-61.5 176q0 113 62 178t168 65q87 0 134 -48.5t47 -134.5q0 -27 -4 -55l-19 -19zM254 386q-39 0 -64.5 -25.5t-34.5 -72.5l168 5l2 12q0 81 -71 81zM347.5 564 q-38.5 -34 -100.5 -34q-60 0 -96.5 35t-50.5 90l31 45h19q24 -76 101 -76q78 0 100 76h19l31 -45q-15 -57 -53.5 -91z" />
<glyph unicode="&#x116;" horiz-adv-x="509" d="M230.5 748q-17.5 18 -17.5 51t19.5 53t53.5 20q31 0 48.5 -18t17.5 -50q0 -34 -19 -54t-52 -20t-50.5 18zM490 101l-8 -101h-404l8 192l-8 452h408l7 -11l-9 -101l-155 5l-115 -1l-2 -156l109 -1l106 3l8 -10l-9 -101l-114 3l-102 -1l-1 -69l3 -97l112 -1l159 6z" />
<glyph unicode="&#x117;" horiz-adv-x="471" d="M197.5 569q-17.5 18 -17.5 51t19.5 53t53.5 20q31 0 48.5 -18t17.5 -50q0 -34 -19 -54t-52 -20t-50.5 18zM151 215q8 -126 124 -126q65 0 135 36l11 -7l-18 -98q-72 -30 -141 -30q-110 0 -171.5 64t-61.5 176q0 113 62 178t168 65q86 0 133.5 -48.5t47.5 -134.5 q0 -27 -4 -55l-19 -19zM254 386q-40 0 -65.5 -25.5t-34.5 -72.5l169 5l2 12q0 81 -71 81z" />
<glyph unicode="&#x118;" horiz-adv-x="509" d="M395 -197q-41 0 -66 25t-25 63q0 43 29 82l19 27h-274l8 192l-8 452h408l7 -11l-9 -101l-155 5l-115 -1l-2 -156l109 -1l106 3l8 -10l-9 -101l-114 3l-102 -1l-1 -69l3 -97l112 -1l159 6l7 -11l-8 -101h-64l-25 -38q-16 -27 -16 -47q0 -37 38 -37q30 0 65 29h7l11 -55 q-55 -49 -103 -49z" />
<glyph unicode="&#x119;" horiz-adv-x="471" d="M151 215q8 -126 124 -126q65 0 135 36l11 -7l-18 -98q-30 -13 -55 -19l-26 -39q-16 -27 -16 -47q0 -37 38 -37q30 0 65 29h7l11 -55q-55 -49 -103 -49q-41 0 -66 25t-25 63q0 43 29 82l12 17h-12q-110 0 -171.5 64t-61.5 176q0 113 62 178t168 65q86 0 133.5 -48.5 t47.5 -134.5q0 -27 -4 -55l-19 -19zM254 386q-40 0 -65.5 -25.5t-34.5 -72.5l169 5l2 12q0 81 -71 81z" />
<glyph unicode="&#x11a;" horiz-adv-x="509" d="M491 101l-9 -101h-404l7 192l-7 452h408l8 -11l-10 -101l-154 5l-116 -1l-3 -155l111 -2l105 3l8 -10l-9 -101l-114 3l-103 -1l-1 -69l3 -97l113 -1l159 6zM297 718h-27q-62 55 -134 104l24 53h13l31 -18q37 -19 79 -45q42 26 79 45l31 18h13l25 -53q-69 -46 -134 -104z " />
<glyph unicode="&#x11b;" horiz-adv-x="471" d="M152 215q8 -126 124 -126q65 0 134 36l11 -7l-18 -98q-70 -30 -140 -30q-111 0 -172.5 64t-61.5 176q0 113 62 178t168 65q87 0 134 -48.5t47 -134.5q0 -27 -4 -55l-19 -19zM254 386q-39 0 -64.5 -25.5t-34.5 -72.5l168 5l2 12q0 81 -71 81zM264 524h-29q-78 86 -140 141 l33 51h13q66 -52 109 -92q39 37 108 92h13l34 -51q-57 -52 -141 -141z" />
<glyph unicode="&#x11c;" horiz-adv-x="598" d="M313 885h27q62 -55 134 -104l-24 -53h-13l-31 18q-37 19 -79 45q-42 -26 -79 -45l-31 -18h-13l-25 53q69 46 134 104zM552 613l-29 -122l-12 -2q-49 28 -88 40.5t-83 12.5q-89 0 -129.5 -52.5t-40.5 -174.5q0 -80 17 -127t54 -68.5t98 -21.5q39 0 86 14l2 55l-3 99 l126 10l-3 -88l2 -157q-119 -40 -220 -40q-150 0 -225.5 82t-75.5 235q0 167 87.5 255.5t248.5 88.5q106 0 188 -39z" />
<glyph unicode="&#x11d;" horiz-adv-x="500" d="M99 569q57 52 141 141h29q78 -86 140 -141l-33 -51h-13q-66 52 -109 92q-39 -37 -108 -92h-13zM431 387l-2 -4q15 -30 15 -67q0 -75 -54.5 -119.5t-147.5 -44.5q-28 0 -58 5q-15 -15 -15 -26q0 -18 24 -25t76 -14q59 -7 98.5 -17t68 -35t28.5 -71q0 -47 -29.5 -84.5 t-81.5 -58.5t-118 -21q-91 0 -140 37t-49 98q29 42 83 75v5q-72 26 -72 91q27 33 68 61v5q-73 38 -73 129q0 78 54 122t146 44q55 0 99 -19q74 15 148 41l10 -9v-83q-31 -8 -78 -15zM329 314q0 76 -79 76q-83 0 -83 -77q0 -81 79 -81q83 0 83 82zM323 -18q-29 10 -90 18 q-22 2 -31 4q-48 -33 -48 -63q0 -26 24 -42t70 -16q47 0 75.5 16.5t28.5 45.5q0 27 -29 37z" />
<glyph unicode="&#x11e;" horiz-adv-x="598" d="M553 613l-29 -122l-13 -2q-49 28 -87.5 40.5t-82.5 12.5q-89 0 -130 -53t-41 -174q0 -80 17.5 -127t54.5 -68.5t98 -21.5q38 0 85 14l2 55l-2 99l125 10l-3 -88l3 -157q-120 -40 -221 -40q-150 0 -225.5 82t-75.5 235q0 167 87.5 255.5t248.5 88.5q105 0 189 -39z M419 748q-39 -27 -95 -27q-54 0 -92.5 27t-55.5 78l31 43h19q13 -26 40 -41t63 -15q71 0 98 56h19l31 -43q-19 -51 -58 -78z" />
<glyph unicode="&#x11f;" horiz-adv-x="500" d="M431 387l-2 -4q15 -30 15 -67q0 -75 -54.5 -119.5t-147.5 -44.5q-28 0 -58 5q-15 -15 -15 -26q0 -18 24 -25t76 -14q59 -7 98.5 -17t68 -35t28.5 -71q0 -47 -29.5 -84.5t-81.5 -58.5t-118 -21q-91 0 -140 37t-49 98q31 43 83 75v5q-72 26 -72 91q27 33 68 61v5 q-73 40 -73 129q0 78 54 122t147 44q54 0 98 -18q72 13 147 40l10 -9v-83q-27 -7 -77 -15zM329 314q0 76 -78 76q-84 0 -84 -77q0 -81 79 -81q83 0 83 82zM323 -18q-29 10 -90 18q-22 2 -31 4q-48 -33 -48 -63q0 -26 24 -42t70 -16q47 0 75.5 16.5t28.5 45.5q0 27 -29 37z M351.5 556q-38.5 -34 -100.5 -34q-60 0 -96.5 35t-50.5 90l31 45h19q24 -76 101 -76q78 0 100 76h19l31 -45q-15 -57 -53.5 -91z" />
<glyph unicode="&#x120;" horiz-adv-x="598" d="M553 613l-29 -122l-13 -2q-49 28 -87.5 40.5t-82.5 12.5q-89 0 -130 -53t-41 -174q0 -80 17.5 -127t54.5 -68.5t98 -21.5q38 0 85 14l2 55l-2 99l125 10l-3 -88l3 -157q-120 -40 -221 -40q-150 0 -225.5 82t-75.5 235q0 167 87.5 255.5t248.5 88.5q105 0 189 -39z M378.5 854q17.5 -18 17.5 -50q0 -34 -19 -54t-52 -20t-50.5 18t-17.5 51t19.5 53t53.5 20q31 0 48.5 -18z" />
<glyph unicode="&#x121;" horiz-adv-x="500" d="M201.5 561q-17.5 18 -17.5 51t19.5 53t53.5 20q31 0 48.5 -18t17.5 -50q0 -34 -19 -54t-52 -20t-50.5 18zM431 387l-2 -4q15 -30 15 -67q0 -75 -54.5 -119.5t-147.5 -44.5q-28 0 -58 5q-15 -15 -15 -26q0 -18 24 -25t76 -14q59 -7 98.5 -17t68 -35t28.5 -71 q0 -47 -29.5 -84.5t-81.5 -58.5t-118 -21q-91 0 -140 37t-49 98q29 42 83 75v5q-72 26 -72 91q27 33 68 61v5q-73 38 -73 129q0 78 54 122t146 44q55 0 99 -19q74 15 148 41l10 -9v-83q-31 -8 -78 -15zM329 314q0 76 -79 76q-83 0 -83 -77q0 -81 79 -81q83 0 83 82zM323 -18 q-29 10 -90 18q-22 2 -31 4q-48 -33 -48 -63q0 -26 24 -42t70 -16q47 0 75.5 16.5t28.5 45.5q0 27 -29 37z" />
<glyph unicode="&#x122;" horiz-adv-x="598" d="M552 613l-29 -122l-12 -2q-49 28 -88 40.5t-83 12.5q-89 0 -129.5 -52.5t-40.5 -174.5q0 -80 17 -127t54 -68.5t98 -21.5q39 0 86 14l2 55l-3 99l126 10l-3 -88l2 -157q-119 -40 -220 -40q-150 0 -225.5 82t-75.5 235q0 167 87.5 255.5t248.5 88.5q106 0 188 -39z M377 -116q0 -79 -108 -156l-39 34l-1 9q50 41 50 88q0 30 -28 54v10q44 26 86 37q40 -31 40 -76z" />
<glyph unicode="&#x123;" horiz-adv-x="500" d="M187 603q0 71 85 152l43 -28l2 -9q-38 -39 -38 -79q0 -43 37 -65v-10q-32 -28 -77 -48q-52 27 -52 87zM431 387l-2 -4q15 -30 15 -67q0 -75 -54.5 -119.5t-147.5 -44.5q-28 0 -58 5q-15 -15 -15 -26q0 -18 24 -25t76 -14q59 -7 98.5 -17t68 -35t28.5 -71 q0 -47 -29.5 -84.5t-81.5 -58.5t-118 -21q-91 0 -140 37t-49 98q29 42 83 75v5q-72 26 -72 91q27 33 68 61v5q-73 38 -73 129q0 78 54 122t146 44q55 0 99 -19q74 15 148 41l10 -9v-83q-31 -8 -78 -15zM329 314q0 76 -79 76q-83 0 -83 -77q0 -81 79 -81q83 0 83 82zM323 -18 q-29 10 -90 18q-22 2 -31 4q-48 -33 -48 -63q0 -26 24 -42t70 -16q47 0 75.5 16.5t28.5 45.5q0 27 -29 37z" />
<glyph unicode="&#x124;" horiz-adv-x="696" d="M198 781q69 46 134 104h27q62 -55 134 -104l-24 -53h-13l-31 18q-37 19 -79 45q-42 -26 -79 -45l-31 -18h-13zM616 0h-137l8 192l-1 75l-147 2l-129 -3l-1 -62l6 -204h-137l8 192l-8 452h138l-4 -265l136 -3l136 3l-5 265h138l-7 -440z" />
<glyph unicode="&#x125;" horiz-adv-x="531" d="M209 755q-37 19 -79 45q-42 -26 -79 -45l-31 -18h-13l-25 53q69 46 134 104h27q62 -55 134 -104l-24 -53h-13zM335.5 344.5q-16.5 19.5 -47.5 19.5q-45 0 -95 -42l-2 -117l7 -205h-133l7 193l-6 499l133 10l-5 -303h6q55 50 120 72q76 0 116 -34.5t38 -99.5l-3 -133 l6 -204h-134l8 290q1 35 -15.5 54.5z" />
<glyph unicode="&#x126;" horiz-adv-x="728" d="M624 204l5 -204h-136l8 192l-1 75l-147 2l-130 -3l-1 -62l6 -204h-137l8 192l-5 283h-62l-6 7l5 71h62l-2 91h138l-1 -91h267l-2 91h138l-1 -91h66l6 -8l-5 -70h-69zM226 475l-1 -96l137 -3l136 3l-2 96h-270z" />
<glyph unicode="&#x127;" horiz-adv-x="532" d="M336.5 344.5q-16.5 19.5 -47.5 19.5q-45 0 -95 -42l-2 -117l7 -205h-133l7 193l-4 349h-64l-9 9l5 64h67l-1 77l133 10l-1 -87h111l9 -10l-6 -63h-116l-2 -143h6q55 50 120 72q76 0 116 -34.5t38 -99.5l-3 -133l6 -204h-134l8 290q1 35 -15.5 54.5z" />
<glyph unicode="&#x12a;" horiz-adv-x="295" d="M214 0h-136l7 192l-7 452h138l-8 -440zM261 756h-226l-9 9l7 74h225l9 -9z" />
<glyph unicode="&#x12b;" horiz-adv-x="254" d="M193 0h-133l7 192l-6 264l133 11l-8 -262zM243 577h-226l-9 9l7 74h225l9 -9z" />
<glyph unicode="&#x12c;" horiz-adv-x="295" d="M214 0h-136l7 192l-7 452h138l-8 -440zM239 748q-39 -27 -95 -27q-54 0 -92.5 27t-55.5 78l31 43h19q13 -26 40 -41t63 -15q71 0 98 56h19l31 -43q-19 -51 -58 -78z" />
<glyph unicode="&#x12d;" horiz-adv-x="254" d="M193 0h-133l7 192l-6 264l133 11l-8 -262zM226.5 564q-38.5 -34 -100.5 -34q-60 0 -96.5 35t-50.5 90l31 45h19q24 -76 101 -76q78 0 100 76h19l31 -45q-15 -57 -53.5 -91z" />
<glyph unicode="&#x12e;" horiz-adv-x="295" d="M107 -89q0 -33 34 -33q28 0 54 23h8l10 -60q-44 -38 -90 -38q-41 0 -65 24.5t-24 63.5q0 24 9.5 48t34.5 61l8 192l-8 452h138l-7 -440l6 -204h-68q-40 -58 -40 -89z" />
<glyph unicode="&#x12f;" horiz-adv-x="254" d="M76.5 569q-17.5 18 -17.5 51t19.5 53t53.5 20q31 0 48.5 -18t17.5 -50q0 -34 -19 -54t-52 -20t-50.5 18zM195 -159q-44 -38 -90 -38q-41 0 -65 24.5t-24 63.5q0 24 9.5 48t34.5 61l7 192l-6 264l133 11l-8 -262l7 -205h-64q-40 -58 -40 -89q0 -33 34 -33q28 0 54 23h8z " />
<glyph unicode="&#x130;" horiz-adv-x="295" d="M198.5 854q17.5 -18 17.5 -50q0 -34 -19 -54t-52 -20t-50.5 18t-17.5 51t19.5 53t53.5 20q31 0 48.5 -18zM215 0h-137l8 192l-8 452h138l-7 -440z" />
<glyph unicode="&#x131;" horiz-adv-x="254" d="M193 0h-133l7 192l-6 264l133 11l-8 -262z" />
<glyph unicode="&#x132;" horiz-adv-x="630" d="M214 0h-136l7 192l-7 452h138l-8 -440zM548 121q0 -57 -19 -97t-61.5 -71t-116.5 -59l-41 72v12q62 32 87.5 63.5t25.5 81.5v76l-6 345l-106 -3l-10 10l7 93h245l-7 -432z" />
<glyph unicode="&#x133;" horiz-adv-x="539" d="M180.5 675q17.5 -18 17.5 -50q0 -34 -19 -54t-52 -20t-50.5 18t-17.5 51t19.5 53t53.5 20q31 0 48.5 -18zM445.5 675q17.5 -18 17.5 -50q0 -34 -19 -54t-52 -20t-50.5 18t-17.5 51t19.5 53t53.5 20q31 0 48.5 -18zM466 205l6 -178q0 -79 -38 -131t-125 -91l-46 59v12 q45 25 64 59t19 88l2 169l-4 189h-81l-8 8l7 72h84l124 7l4 -3zM193 0h-133l7 192l-6 264l133 11l-8 -262z" />
<glyph unicode="&#x134;" horiz-adv-x="335" d="M295 781l-24 -53h-13l-31 18q-37 19 -79 45q-42 -26 -79 -45l-31 -18h-13l-25 53q69 46 134 104h27q62 -55 134 -104zM250 212l2 -91q0 -57 -18.5 -97t-61 -71t-116.5 -59l-41 72v12q62 32 87 63.5t25 81.5v76l-5 345l-107 -3l-9 10l6 93h246z" />
<glyph unicode="&#x135;" horiz-adv-x="285" d="M126 718h29q78 -86 140 -141l-33 -51h-13q-66 52 -109 92q-39 -37 -108 -92h-13l-34 51q57 52 141 141zM212 205l6 -178q0 -79 -38 -131t-125 -91l-47 59v12q46 25 65 59t19 88l1 169l-4 189h-80l-8 8l6 72h85l124 7l4 -3z" />
<glyph unicode="&#x136;" horiz-adv-x="584" d="M593 28l-2 -15q-61 -15 -134 -23l-15 8q-144 195 -232 333l-2 -127l6 -204h-137l8 192l-8 452h138l-5 -299l180 237l37 62h147l-228 -304q115 -160 247 -312zM373 -116q0 -79 -108 -156l-39 34l-1 9q50 41 50 88q0 30 -28 54v10q44 26 86 37q40 -31 40 -76z" />
<glyph unicode="&#x137;" horiz-adv-x="495" d="M198 0h-133l7 193l-6 499l133 10l-8 -497zM488 22v-14q-34 -7 -124 -18l-14 6q-93 132 -152 247v9l116 165l24 48h140l-152 -210q50 -79 162 -233zM339 -116q0 -79 -108 -156l-39 34l-1 9q50 41 50 88q0 30 -28 54v10q44 26 86 37q40 -31 40 -76z" />
<glyph unicode="&#x138;" horiz-adv-x="493" d="M193 0h-133l7 192l-6 264l133 11l-8 -262zM486 22v-14q-34 -7 -124 -18l-14 6q-93 132 -152 247v9l116 165l24 48h140l-152 -210q50 -79 162 -233z" />
<glyph unicode="&#x139;" horiz-adv-x="433" d="M422 0h-348l7 192l-7 452h138l-8 -440l3 -92h216l8 -11zM361 807l-4 -12q-92 -36 -215 -78l-13 4l-22 55q121 61 208 113l12 -3z" />
<glyph unicode="&#x13a;" horiz-adv-x="263" d="M198 0h-133l7 193l-6 499l133 10l-8 -497zM280 843l-4 -12q-92 -36 -215 -78l-13 4l-22 55q121 61 208 113l12 -3z" />
<glyph unicode="&#x13b;" horiz-adv-x="433" d="M422 0h-348l8 192l-8 452h138l-7 -440l3 -92h215l8 -11zM308 -116q0 -79 -108 -156l-39 34l-1 9q50 41 50 88q0 30 -28 54v10q44 26 86 37q40 -31 40 -76z" />
<glyph unicode="&#x13c;" horiz-adv-x="263" d="M198 0h-133l7 193l-6 499l133 10l-8 -497zM205 -116q0 -79 -108 -156l-39 34l-1 9q50 41 50 88q0 30 -28 54v10q44 26 86 37q40 -31 40 -76z" />
<glyph unicode="&#x13d;" horiz-adv-x="467" d="M431 101l-9 -101h-348l8 192l-8 452h138l-7 -440l3 -92h215zM330 585l95 6l8 -9l-33 -200l-58 -9l-10 8z" />
<glyph unicode="&#x13e;" horiz-adv-x="317" d="M198 0h-133l7 193l-6 499l133 10l-8 -497zM316 437l-58 -9l-10 8l-2 204l95 6l8 -9z" />
<glyph unicode="&#x13f;" horiz-adv-x="455" d="M422 0h-348l7 192l-7 452h138l-8 -440l3 -92h216l8 -11zM416.5 442q17.5 -18 17.5 -50q0 -34 -19 -54t-52 -20t-50.5 18t-17.5 51t19.5 53t53.5 20q31 0 48.5 -18z" />
<glyph unicode="&#x140;" horiz-adv-x="370" d="M198 0h-133l7 193l-6 499l133 10l-8 -497zM354.5 345q17.5 -18 17.5 -50q0 -34 -19 -54t-52 -20t-50.5 18t-17.5 51t19.5 53t53.5 20q31 0 48.5 -18z" />
<glyph unicode="&#x141;" horiz-adv-x="449" d="M439 0h-349l8 192l-1 56l-60 -31l-13 6l-24 79l95 49l-5 293h139l-4 -226l102 52l13 -6l24 -78l-141 -73l-2 -109l3 -92h216l8 -11z" />
<glyph unicode="&#x142;" horiz-adv-x="288" d="M210 0h-132l7 193l-1 100l-58 -29l-7 2l-26 77l90 46l-4 303l132 10l-4 -261l58 30l6 -3l27 -77l-92 -48l-2 -138z" />
<glyph unicode="&#x143;" horiz-adv-x="695" d="M615 0h-146l-262 436h-9l-1 -214l5 -222h-124l7 190l-6 454h146l262 -436h9l-4 430l126 8l-8 -447zM495 807l-4 -12q-92 -36 -215 -78l-13 4l-22 55q121 61 208 113l12 -3z" />
<glyph unicode="&#x144;" horiz-adv-x="527" d="M346 290q0 74 -63 74q-45 0 -96 -43v-116l6 -205h-133l7 192l-6 264l127 11v-68h6q57 51 121 72q76 0 115.5 -34.5t38.5 -99.5l-3 -133l5 -204h-133zM425 651l-2 -13q-22 -14 -33 -20q-125 -77 -162 -98l-13 1l-32 50q116 93 181 153l13 -1z" />
<glyph unicode="&#x145;" horiz-adv-x="695" d="M615 0h-146l-262 436h-9l-1 -214l6 -222h-125l8 190l-7 454h146l262 -436h9l-4 430l127 8l-9 -447zM420 -116q0 -79 -108 -156l-39 34l-1 9q50 41 50 88q0 30 -28 54v10q44 26 86 37q40 -31 40 -76z" />
<glyph unicode="&#x146;" horiz-adv-x="527" d="M193 0h-133l7 192l-6 264l127 11l-1 -68h8q55 50 120 72q76 0 116 -34.5t38 -99.5l-3 -133l6 -204h-134l8 290q1 35 -15.5 54.5t-47.5 19.5q-45 0 -96 -43l-1 -116zM342 -116q0 -79 -108 -156l-39 34l-1 9q50 41 50 88q0 30 -28 54v10q44 26 86 37q40 -31 40 -76z" />
<glyph unicode="&#x147;" horiz-adv-x="695" d="M615 0h-146l-262 436h-9l-1 -214l5 -222h-124l7 190l-6 454h146l262 -436h9l-4 430l126 8l-8 -447zM361 718h-27q-62 55 -134 104l24 53h13l31 -18q37 -19 79 -45q42 26 79 45l31 18h13l25 -53q-69 -46 -134 -104z" />
<glyph unicode="&#x148;" horiz-adv-x="527" d="M346 290q0 74 -63 74q-45 0 -96 -43v-116l6 -205h-133l7 192l-6 264l127 11v-68h6q57 51 121 72q76 0 115.5 -34.5t38.5 -99.5l-3 -133l5 -204h-133zM295 524h-29q-78 86 -140 141l33 51h13q66 -52 109 -92q39 37 108 92h13l34 -51q-57 -52 -141 -141z" />
<glyph unicode="&#x14a;" horiz-adv-x="695" d="M613 56q0 -56 -18.5 -96t-61 -71.5t-116.5 -59.5l-41 72v13q79 40 101 87l-270 435h-9l-1 -214l5 -222h-124l7 190l-6 454h146l262 -427h9l-4 421l126 8l-8 -447z" />
<glyph unicode="&#x14b;" horiz-adv-x="533" d="M434 -104q-38 -52 -124 -91l-46 59v12q44 26 63 59.5t19 87.5v267q0 74 -63 74q-45 0 -96 -43v-116l6 -205h-133l7 192l-6 264l127 11v-68h6q57 51 121 72q76 0 115.5 -34.5t38.5 -99.5l-3 -133l6 -177q0 -79 -38 -131z" />
<glyph unicode="&#x14c;" horiz-adv-x="643" d="M542.5 570.5q73.5 -82.5 73.5 -234.5q0 -166 -79.5 -256t-225.5 -90q-136 0 -209.5 84.5t-73.5 239.5q0 163 79.5 251t225.5 88q136 0 209.5 -82.5zM205 493.5q-36 -49.5 -36 -161.5q0 -128 35.5 -182.5t117.5 -54.5q80 0 116 50t36 164q0 127 -35.5 180.5t-117.5 53.5 q-80 0 -116 -49.5zM464 756h-280l-9 9l7 74h280l8 -9z" />
<glyph unicode="&#x14d;" horiz-adv-x="494" d="M410 414q54 -60 54 -173q0 -122 -58 -186.5t-167 -64.5q-102 0 -156 60t-54 173q0 122 58 186.5t167 64.5q102 0 156 -60zM175.5 352q-21.5 -32 -21.5 -103q0 -92 22 -131t72 -39q48 0 69.5 31.5t21.5 103.5q0 91 -22.5 130.5t-71.5 39.5q-48 0 -69.5 -32zM389 577h-280 l-9 9l7 74h280l8 -9z" />
<glyph unicode="&#x14e;" horiz-adv-x="643" d="M542.5 570.5q73.5 -82.5 73.5 -234.5q0 -166 -79.5 -256t-225.5 -90q-136 0 -209.5 84.5t-73.5 239.5q0 163 79.5 251t225.5 88q136 0 209.5 -82.5zM205 493.5q-36 -49.5 -36 -161.5q0 -128 35.5 -182.5t117.5 -54.5q80 0 116 50t36 164q0 127 -35.5 180.5t-117.5 53.5 q-80 0 -116 -49.5zM415 748q-39 -27 -95 -27q-54 0 -92.5 27t-55.5 78l31 43h19q13 -26 40 -41t63 -15q71 0 98 56h19l31 -43q-19 -51 -58 -78z" />
<glyph unicode="&#x14f;" horiz-adv-x="494" d="M410 414q54 -60 54 -173q0 -122 -58 -186.5t-167 -64.5q-102 0 -156 60t-54 173q0 122 58 186.5t167 64.5q102 0 156 -60zM175.5 352q-21.5 -32 -21.5 -103q0 -92 22 -131t72 -39q48 0 69.5 31.5t21.5 103.5q0 91 -22.5 130.5t-71.5 39.5q-48 0 -69.5 -32zM346.5 564 q-38.5 -34 -100.5 -34q-60 0 -96.5 35t-50.5 90l31 45h19q24 -76 101 -76q78 0 100 76h19l31 -45q-15 -57 -53.5 -91z" />
<glyph unicode="&#x150;" horiz-adv-x="643" d="M542.5 570.5q73.5 -82.5 73.5 -234.5q0 -166 -79.5 -256t-225.5 -90q-136 0 -209.5 84.5t-73.5 239.5q0 163 79.5 251t225.5 88q136 0 209.5 -82.5zM205 493.5q-36 -49.5 -36 -161.5q0 -128 35.5 -182.5t117.5 -54.5q80 0 116 50t36 164q0 127 -35.5 180.5t-117.5 53.5 q-80 0 -116 -49.5zM204 780q64 81 80 103l11 2l61 -40l1 -11q-55 -55 -124 -116l-12 -3l-42 34zM350 769q48 59 89 114l10 2l62 -40l1 -11q-60 -59 -125 -116l-11 -3l-42 34z" />
<glyph unicode="&#x151;" horiz-adv-x="494" d="M410 414q54 -60 54 -173q0 -122 -58 -186.5t-167 -64.5q-102 0 -156 60t-54 173q0 122 58 186.5t167 64.5q102 0 156 -60zM175.5 352q-21.5 -32 -21.5 -103q0 -92 22 -131t72 -39q48 0 69.5 31.5t21.5 103.5q0 91 -22.5 130.5t-71.5 39.5q-48 0 -69.5 -32zM232 726l10 2 l61 -44l1 -10q-55 -62 -144 -151l-12 -3l-41 34q69 89 125 172zM384 726l11 2l61 -44l1 -10q-55 -62 -144 -151l-12 -3l-41 34q73 97 124 172z" />
<glyph unicode="&#x152;" horiz-adv-x="869" d="M454 650q56 -6 82 -6h309l8 -11l-10 -101l-150 5h-121l-1 -156l107 -2l109 3l8 -10l-10 -101l-116 3l-101 -1v-71l1 -94l112 -2l161 6l8 -11l-9 -101h-305q-37 1 -102 -6q-66 -6 -102 -6q-145 0 -224.5 86t-79.5 241q0 162 85.5 251.5t238.5 89.5q38 0 102 -6zM210 493.5 q-41 -52.5 -41 -168.5q0 -121 41.5 -177t132.5 -56q61 0 82 13q20 10 19 43l-4 341q-1 34 -13 43q-21 14 -86 14q-90 0 -131 -52.5z" />
<glyph unicode="&#x153;" horiz-adv-x="770" d="M447 215q8 -126 127 -126q65 0 134 36l12 -7l-19 -98q-70 -30 -140 -30q-111 0 -167 76q-53 -76 -161 -76q-99 0 -153 61t-54 175q0 119 57.5 183t161.5 64t153 -72q55 72 160 72q86 0 133 -48.5t47 -134.5q0 -36 -4 -55l-19 -19zM553 386q-84 0 -103 -99l171 5l2 13 q0 81 -70 81zM317.5 110.5q21.5 31.5 21.5 103.5q0 91 -22.5 130.5t-71.5 39.5q-48 0 -69.5 -32t-21.5 -103q0 -92 22 -131t72 -39q48 0 69.5 31.5z" />
<glyph unicode="&#x154;" horiz-adv-x="590" d="M571 32l-2 -15q-65 -23 -133 -27l-14 11q-72 124 -117 216h-97v-13l6 -204h-136l7 192l-7 452l247 1q101 0 156 -49.5t55 -141.5q0 -62 -31.5 -113.5t-88.5 -84.5q78 -124 155 -224zM309 318q85 29 85 123q0 51 -27.5 76.5t-84.5 27.5l-68 -4l-4 -219zM441 830l-2 -13 q-22 -14 -33 -20q-125 -77 -162 -98l-13 1l-32 50q116 93 181 153l13 -1z" />
<glyph unicode="&#x155;" horiz-adv-x="346" d="M341 464v-123l-13 -5q-18 7 -37 7q-58 0 -105 -74v-64l7 -205h-133l7 192l-6 264l127 11l-1 -91h7q49 90 123 90q8 0 24 -2zM346 651l-2 -13q-22 -14 -33 -20q-125 -77 -162 -98l-13 1l-32 50q116 93 181 153l13 -1z" />
<glyph unicode="&#x156;" horiz-adv-x="590" d="M570 32l-2 -15q-65 -23 -132 -27l-15 11q-75 133 -117 216h-95v-13l6 -204h-137l8 192l-8 452l247 1q101 0 156 -49.5t55 -141.5q0 -62 -32 -113.5t-89 -84.5q89 -138 155 -224zM309 318q85 29 85 123q0 51 -27.5 76.5t-84.5 27.5l-68 -4l-3 -219zM370 -116 q0 -79 -108 -156l-39 34l-1 9q50 41 50 88q0 30 -28 54v10q44 26 86 37q40 -31 40 -76z" />
<glyph unicode="&#x157;" horiz-adv-x="346" d="M341 464v-123l-14 -5q-17 7 -36 7q-59 0 -105 -74v-64l7 -205h-133l7 192l-6 264l127 11l-1 -91h7q49 90 122 90q9 0 25 -2zM200 -116q0 -79 -108 -156l-39 34l-1 9q50 41 50 88q0 30 -28 54v10q44 26 86 37q40 -31 40 -76z" />
<glyph unicode="&#x158;" horiz-adv-x="590" d="M571 32l-2 -15q-65 -23 -133 -27l-14 11q-72 124 -117 216h-97v-13l6 -204h-136l7 192l-7 452l247 1q101 0 156 -49.5t55 -141.5q0 -62 -31.5 -113.5t-88.5 -84.5q78 -124 155 -224zM309 318q85 29 85 123q0 51 -27.5 76.5t-84.5 27.5l-68 -4l-4 -219zM310 703h-29 q-78 86 -140 141l33 51h13q66 -52 109 -92q39 37 108 92h13l34 -51q-57 -52 -141 -141z" />
<glyph unicode="&#x159;" horiz-adv-x="346" d="M341 464v-123l-13 -5q-18 7 -37 7q-58 0 -105 -74v-64l7 -205h-133l7 192l-6 264l127 11l-1 -91h7q49 90 123 90q8 0 24 -2zM216 524h-29q-78 86 -140 141l33 51h13q66 -52 109 -92q39 37 108 92h13l34 -51q-57 -52 -141 -141z" />
<glyph unicode="&#x15a;" horiz-adv-x="498" d="M448 619l-22 -117l-20 -8q-34 24 -70.5 38t-66.5 14q-40 0 -64 -21.5t-24 -49.5q0 -29 26.5 -49t83.5 -47q55 -25 89.5 -46.5t59 -56.5t24.5 -86q0 -55 -30 -100.5t-85 -72t-127 -26.5q-95 0 -191 41l19 126l15 8q40 -35 87.5 -53.5t84.5 -18.5q44 0 68.5 21.5t24.5 51.5 q0 32 -26.5 52t-85.5 48q-54 24 -88 45t-58 56t-24 85q0 56 30 101.5t84 71.5t123 26q82 0 163 -33zM405 830l-2 -13q-22 -14 -33 -20q-125 -77 -162 -98l-13 1l-32 50q116 93 181 153l13 -1z" />
<glyph unicode="&#x15b;" horiz-adv-x="384" d="M345 450l-18 -98l-16 -5q-60 39 -109 39q-24 0 -38 -12.5t-14 -30.5q0 -21 18.5 -34t58.5 -29t66 -31t44.5 -41.5t18.5 -65.5q0 -40 -20.5 -74.5t-62.5 -56t-103 -21.5q-72 0 -149 30l15 104l13 8q31 -26 69 -41.5t67 -15.5q27 0 42 13.5t15 32.5q0 21 -18.5 34t-58.5 29 q-41 18 -67 32.5t-44.5 41.5t-18.5 67q0 65 49 106.5t133 41.5q68 0 128 -23zM338 651l-2 -13q-22 -14 -33 -20q-125 -77 -162 -98l-13 1l-32 50q116 93 181 153l13 -1z" />
<glyph unicode="&#x15c;" horiz-adv-x="498" d="M247 897h29q78 -86 140 -141l-33 -51h-13q-66 52 -109 92q-39 -37 -108 -92h-13l-34 51q57 52 141 141zM448 619l-22 -117l-20 -8q-34 24 -70.5 38t-66.5 14q-40 0 -64 -21.5t-24 -49.5q0 -29 26.5 -49t83.5 -47q55 -25 89.5 -46.5t59 -56.5t24.5 -86q0 -55 -30 -100.5 t-85 -72t-127 -26.5q-95 0 -191 41l19 126l15 8q40 -35 87.5 -53.5t84.5 -18.5q44 0 68.5 21.5t24.5 51.5q0 32 -26.5 52t-85.5 48q-54 24 -88 45t-58 56t-24 85q0 56 30 101.5t84 71.5t123 26q82 0 163 -33z" />
<glyph unicode="&#x15d;" horiz-adv-x="384" d="M180 718h29q78 -86 140 -141l-33 -51h-13q-66 52 -109 92q-39 -37 -108 -92h-13l-34 51q57 52 141 141zM345 450l-17 -98l-17 -5q-59 39 -109 39q-24 0 -38 -12.5t-14 -30.5q0 -21 18.5 -34t58.5 -29t66 -31t44.5 -41.5t18.5 -65.5q0 -40 -20.5 -74.5t-62.5 -56 t-103 -21.5q-71 0 -149 30l16 104l12 8q32 -26 69.5 -41.5t66.5 -15.5q27 0 42 13.5t15 32.5q0 21 -18.5 34t-58.5 29q-41 18 -66.5 32.5t-44 41.5t-18.5 67q0 65 48.5 106.5t133.5 41.5q69 0 127 -23z" />
<glyph unicode="&#x15e;" horiz-adv-x="498" d="M411.5 62q-52.5 -54 -140.5 -67l-10 -43l34 -19q41 -22 41 -59q0 -33 -26 -54t-68 -21q-45 0 -82 28l9 56l6 3q30 -30 59 -30q24 0 24 21q0 11 -17 20l-49 28l15 66q-88 3 -176 41l19 126l15 8q40 -35 87.5 -53.5t84.5 -18.5q44 0 68.5 21.5t24.5 51.5q0 32 -26.5 52 t-85.5 48q-54 24 -88 45t-58 56t-24 85q0 56 30 101.5t84 71.5t123 26q82 0 163 -33l-22 -117l-20 -8q-34 24 -70.5 38t-66.5 14q-40 0 -64 -21.5t-24 -49.5q0 -29 26.5 -49t83.5 -47q55 -25 89.5 -46.5t59 -56.5t24.5 -86q0 -74 -52.5 -128z" />
<glyph unicode="&#x15f;" horiz-adv-x="384" d="M320 46.5q-36 -41.5 -104 -52.5l-10 -42l34 -19q41 -22 41 -59q0 -33 -26 -54t-68 -21q-45 0 -82 28l9 56l6 3q30 -30 59 -30q24 0 24 21q0 12 -17 20l-49 28l15 66q-63 3 -131 29l16 104l12 8q32 -26 69.5 -41.5t66.5 -15.5q27 0 42 13.5t15 32.5q0 21 -18.5 34 t-58.5 29q-41 18 -66.5 32.5t-44 41.5t-18.5 67q0 65 48.5 106.5t133.5 41.5q69 0 127 -23l-17 -98l-17 -5q-59 39 -109 39q-24 0 -38 -12.5t-14 -30.5q0 -21 18.5 -34t58.5 -29t66 -31t44.5 -41.5t18.5 -65.5q0 -54 -36 -95.5z" />
<glyph unicode="&#x160;" horiz-adv-x="498" d="M448 619l-22 -117l-20 -8q-34 24 -70.5 38t-66.5 14q-40 0 -64 -21.5t-24 -49.5q0 -29 26.5 -49t83.5 -47q55 -25 89.5 -46.5t59 -56.5t24.5 -86q0 -55 -30 -100.5t-85 -72t-127 -26.5q-95 0 -191 41l19 126l15 8q40 -35 87.5 -53.5t84.5 -18.5q44 0 68.5 21.5t24.5 51.5 q0 32 -26.5 52t-85.5 48q-54 24 -88 45t-58 56t-24 85q0 56 30 101.5t84 71.5t123 26q82 0 163 -33zM275 703h-29q-78 86 -140 141l33 51h13q66 -52 109 -92q39 37 108 92h13l34 -51q-57 -52 -141 -141z" />
<glyph unicode="&#x161;" horiz-adv-x="384" d="M345 450l-18 -98l-16 -5q-60 39 -109 39q-24 0 -38 -12.5t-14 -30.5q0 -21 18.5 -34t58.5 -29t66 -31t44.5 -41.5t18.5 -65.5q0 -40 -20.5 -74.5t-62.5 -56t-103 -21.5q-72 0 -149 30l15 104l13 8q31 -26 69 -41.5t67 -15.5q27 0 42 13.5t15 32.5q0 21 -18.5 34t-58.5 29 q-41 18 -67 32.5t-44.5 41.5t-18.5 67q0 65 49 106.5t133 41.5q68 0 128 -23zM208 524h-29q-78 86 -140 141l33 51h13q66 -52 109 -92q39 37 108 92h13l34 -51q-57 -52 -141 -141z" />
<glyph unicode="&#x162;" horiz-adv-x="503" d="M481 532l-122 6h-38l-6 -334l6 -204h-39l-12 -48l34 -19q41 -22 41 -59q0 -33 -26 -54t-68 -21q-45 0 -82 28l9 56l6 3q30 -30 59 -30q24 0 24 21q0 11 -17 20l-49 28l17 75h-33l8 192l-6 346h-41l-122 -6l-9 11l9 101h457l8 -11z" />
<glyph unicode="&#x163;" horiz-adv-x="338" d="M316 115l10 -10l-12 -79q-51 -25 -98 -31l-10 -43l34 -19q41 -22 41 -59q0 -33 -26 -54t-68 -21q-45 0 -82 28l9 56l6 3q30 -30 59 -30q24 0 24 21q0 12 -17 20l-49 28l18 81q-80 28 -80 120l5 83l-1 172h-63l-4 7l6 73h60v77l120 39l10 -8l-3 -108h118l5 -7l-7 -73h-118 l-6 -224q-1 -32 11.5 -45.5t40.5 -13.5q32 0 67 17z" />
<glyph unicode="&#x164;" horiz-adv-x="503" d="M481 532l-121 6h-40l-5 -334l6 -204h-136l7 192l-5 346h-40l-123 -6l-9 11l9 101h457l8 -11zM269 703h-29q-78 86 -140 141l33 51h13q66 -52 109 -92q39 37 108 92h13l34 -51q-57 -52 -141 -141z" />
<glyph unicode="&#x165;" horiz-adv-x="338" d="M316 115l11 -10l-13 -79q-51 -26 -104 -32q-135 14 -135 132l5 83l-1 172h-62l-5 7l7 73h59v77l121 39l9 -8l-3 -108h119l4 -7l-6 -73h-119l-6 -224q0 -32 12 -45.5t40 -13.5q32 0 67 17zM317 507l-58 -9l-9 7l-3 204l95 6l8 -9z" />
<glyph unicode="&#x166;" horiz-adv-x="503" d="M317 341h98l9 -9l-6 -65h-102l-1 -63l6 -204h-136l8 192l-1 75h-90l-9 9l5 65h93l-4 197h-41l-122 -6l-9 11l9 101h457l8 -11l-8 -101l-122 6h-38z" />
<glyph unicode="&#x167;" horiz-adv-x="343" d="M319 115l10 -10l-12 -79q-53 -26 -104 -32q-135 13 -135 132l5 83v14h-58l-9 9l5 65h61v84h-63l-4 7l6 73h60v77l120 39l10 -8l-3 -108h118l4 -7l-6 -73h-118l-2 -84h104l9 -9l-5 -65h-110l-2 -66q-1 -32 11.5 -45.5t40.5 -13.5q32 0 67 17z" />
<glyph unicode="&#x16a;" horiz-adv-x="638" d="M573 232q1 -115 -67 -178t-195 -63q-122 0 -186 61t-61 175l1 93l-3 324h136l-7 -399q-1 -143 128 -143q130 0 129 136l-7 406h138l-5 -327zM462 756h-280l-9 9l7 74h280l8 -9z" />
<glyph unicode="&#x16b;" horiz-adv-x="522" d="M452 97.5q5 -6.5 18 -6.5q10 0 26 4l10 -8l-12 -70q-32 -21 -73 -25q-63 6 -80 75h-10q-57 -55 -117 -73q-75 0 -115 34.5t-40 99.5l3 118l-5 210l129 11l-4 -295q0 -71 60 -71q42 0 87 39v316l126 11l-8 -346q0 -17 5 -23.5zM400 577h-280l-9 9l7 74h280l8 -9z" />
<glyph unicode="&#x16c;" horiz-adv-x="638" d="M573 232q1 -115 -67 -178t-195 -63q-122 0 -186 61t-61 175l1 93l-3 324h136l-7 -399q-1 -143 128 -143q130 0 129 136l-7 406h138l-5 -327zM418.5 743q-38.5 -34 -100.5 -34q-60 0 -96.5 35t-50.5 90l31 45h19q24 -76 101 -76q78 0 100 76h19l31 -45q-15 -57 -53.5 -91z " />
<glyph unicode="&#x16d;" horiz-adv-x="522" d="M452 97.5q5 -6.5 18 -6.5q10 0 26 4l10 -8l-12 -70q-32 -21 -73 -25q-63 6 -80 75h-10q-57 -55 -117 -73q-75 0 -115 34.5t-40 99.5l3 118l-5 210l129 11l-4 -295q0 -71 60 -71q42 0 87 39v316l126 11l-8 -346q0 -17 5 -23.5zM356.5 564q-38.5 -34 -100.5 -34 q-60 0 -96.5 35t-50.5 90l31 45h19q24 -76 101 -76q78 0 100 76h19l31 -45q-15 -57 -53.5 -91z" />
<glyph unicode="&#x16e;" horiz-adv-x="638" d="M573 232q1 -115 -67 -178t-195 -63q-122 0 -186 61t-61 175l1 93l-3 324h136l-7 -399q-1 -143 128 -143q130 0 129 136l-7 406h138l-5 -327zM392 879q24 -24 24 -67q0 -47 -26.5 -72.5t-72.5 -25.5q-44 0 -68.5 24t-24.5 70q0 45 25.5 70t72.5 25q46 0 70 -24zM279 809 q0 -40 41 -40t41 38q0 39 -42 39q-40 0 -40 -37z" />
<glyph unicode="&#x16f;" horiz-adv-x="522" d="M452 97.5q5 -6.5 18 -6.5q10 0 26 4l10 -8l-12 -70q-32 -21 -73 -25q-63 6 -80 75h-10q-57 -55 -117 -73q-75 0 -115 34.5t-40 99.5l3 118l-5 210l129 11l-4 -295q0 -71 60 -71q42 0 87 39v316l126 11l-8 -346q0 -17 5 -23.5zM330 700q24 -24 24 -67q0 -47 -26.5 -72.5 t-72.5 -25.5q-44 0 -68.5 24t-24.5 70q0 45 25.5 70t72.5 25q46 0 70 -24zM217 630q0 -40 41 -40t41 38q0 39 -42 39q-40 0 -40 -37z" />
<glyph unicode="&#x170;" horiz-adv-x="638" d="M573 232q1 -115 -67 -178t-195 -63q-122 0 -186 61t-61 175l1 93l-3 324h136l-7 -399q-1 -143 128 -143q130 0 129 136l-7 406h138l-5 -327zM202 780q64 81 80 103l11 2l61 -40l1 -11q-55 -55 -124 -116l-12 -3l-42 34zM348 769q48 59 89 114l10 2l62 -40l1 -11 q-60 -59 -125 -116l-11 -3l-42 34z" />
<glyph unicode="&#x171;" horiz-adv-x="522" d="M452 97.5q5 -6.5 18 -6.5q10 0 26 4l10 -8l-12 -70q-32 -21 -73 -25q-63 6 -80 75h-10q-57 -55 -117 -73q-75 0 -115 34.5t-40 99.5l3 118l-5 210l129 11l-4 -295q0 -71 60 -71q42 0 87 39v316l126 11l-8 -346q0 -17 5 -23.5zM242 726l10 2l61 -44l1 -10 q-55 -62 -144 -151l-12 -3l-41 34q69 89 125 172zM394 726l11 2l61 -44l1 -10q-55 -62 -144 -151l-12 -3l-41 34q73 97 124 172z" />
<glyph unicode="&#x172;" horiz-adv-x="638" d="M573 232q2 -125 -78 -188l-54 -86q-17 -25 -17 -48q0 -33 36 -33q34 0 67 30h8l12 -54q-56 -50 -105 -50q-41 0 -65.5 24.5t-24.5 63.5t27 77l22 33q-39 -10 -90 -10q-122 0 -186 61t-62 175l2 93l-3 324h136l-7 -399q-1 -143 128 -143t128 136l-6 406h137l-4 -327z" />
<glyph unicode="&#x173;" horiz-adv-x="522" d="M417 -197q-38 0 -62 23.5t-24 60.5q0 25 14 49t51 62q-41 17 -55 69h-9q-59 -56 -118 -73q-75 0 -115 34.5t-40 99.5l3 118l-5 210l129 11l-3 -295q-2 -71 59 -71q43 0 87 39v316l127 11l-9 -346q0 -30 23 -30q10 0 26 4l10 -8l-12 -70l-6 -4q-49 -46 -66 -67.5 t-17 -37.5q0 -30 32 -30q28 0 56 28h7l13 -56q-50 -47 -96 -47z" />
<glyph unicode="&#x174;" horiz-adv-x="903" d="M431 885h27q62 -55 134 -104l-24 -53h-13l-31 18q-37 19 -79 45q-42 -26 -79 -45l-31 -18h-13l-25 53q69 46 134 104zM544 0l-96 308h-9l-97 -308h-143l-180 644h132l11 -79l113 -425h9l109 347l-45 157h138l15 -93l116 -411h9l130 416l16 88h126l-212 -644h-142z" />
<glyph unicode="&#x175;" horiz-adv-x="698" d="M341 718h29q78 -86 140 -141l-33 -51h-13q-66 52 -109 92q-39 -37 -108 -92h-13l-34 51q57 52 141 141zM202 134h7l70 254l17 77h128l10 -70l60 -260h7l69 253l16 77h111l-144 -465h-125l-72 299h-9l-83 -299h-130l-121 462l121 6l10 -73z" />
<glyph unicode="&#x176;" horiz-adv-x="558" d="M129 781q69 46 134 104h27q62 -55 134 -104l-24 -53h-13l-31 18q-37 19 -79 45q-42 -26 -79 -45l-31 -18h-13zM339 0h-136l8 179l-1 36l-206 429h143l15 -45l109 -245h9l122 241l18 49h140l-225 -425l-2 -40z" />
<glyph unicode="&#x177;" horiz-adv-x="447" d="M214 718h29q78 -86 140 -141l-33 -51h-13q-66 52 -109 92q-39 -37 -108 -92h-13l-34 51q57 52 141 141zM225 135h9l81 247l16 83h116l-151 -433q-33 -94 -88.5 -144.5t-157.5 -79.5l-10 1q-36 33 -60 80l5 14q62 11 106 34t79 63l-170 462l128 6l15 -74z" />
<glyph unicode="&#x178;" horiz-adv-x="558" d="M143 748.5q-16 16.5 -16 46.5q0 31 17.5 49t48.5 18q29 0 45 -16.5t16 -45.5q0 -32 -17.5 -50t-48.5 -18q-29 0 -45 16.5zM317 748.5q-16 16.5 -16 46.5q0 31 17.5 49t48.5 18q29 0 45 -16.5t16 -45.5q0 -32 -17.5 -50t-48.5 -18q-29 0 -45 16.5zM339 0h-136l8 179l-1 36 l-206 429h143l15 -45l109 -245h9l122 241l18 49h140l-225 -425l-2 -40z" />
<glyph unicode="&#x179;" horiz-adv-x="547" d="M190 103h216l109 9l5 -8l-11 -107l-145 3h-257l-77 -4v97l323 447h-204l-109 -9l-6 7l10 107l404 -1l62 1v-99zM425 807l-4 -12q-92 -36 -215 -78l-13 4l-22 55q121 61 208 113l12 -3z" />
<glyph unicode="&#x17a;" horiz-adv-x="424" d="M340 465l51 1l1 -79l-225 -302h141l85 8l7 -9l-9 -86l-116 2h-184l-64 -3v78l227 304h-134l-83 -7l-8 9l10 86l99 -2h202zM355 651l-2 -13q-22 -14 -33 -20q-125 -77 -162 -98l-13 1l-32 50q116 93 181 153l13 -1z" />
<glyph unicode="&#x17b;" horiz-adv-x="547" d="M328.5 854q17.5 -18 17.5 -50q0 -34 -19 -54t-52 -20t-50.5 18t-17.5 51t19.5 53t53.5 20q31 0 48.5 -18zM190 103h217l109 9l4 -8l-10 -107l-146 3h-257l-77 -4v97l323 447h-204l-109 -9l-6 7l11 107l404 -1l62 1v-99z" />
<glyph unicode="&#x17c;" horiz-adv-x="424" d="M262.5 675q17.5 -18 17.5 -50q0 -34 -19 -54t-52 -20t-50.5 18t-17.5 51t19.5 53t53.5 20q31 0 48.5 -18zM340 465l51 1l1 -79l-225 -302h141l85 8l7 -9l-9 -86l-116 2h-183l-64 -3l-1 78l227 304h-133l-84 -7l-7 9l9 86l100 -2h201z" />
<glyph unicode="&#x17d;" horiz-adv-x="547" d="M190 103h216l109 9l5 -8l-11 -107l-145 3h-257l-77 -4v97l323 447h-204l-109 -9l-6 7l10 107l404 -1l62 1v-99zM291 718h-27q-62 55 -134 104l24 53h13l31 -18q37 -19 79 -45q42 26 79 45l31 18h13l25 -53q-69 -46 -134 -104z" />
<glyph unicode="&#x17e;" horiz-adv-x="424" d="M340 465l51 1l1 -79l-225 -302h141l85 8l7 -9l-9 -86l-116 2h-184l-64 -3v78l227 304h-134l-83 -7l-8 9l10 86l99 -2h202zM225 524h-29q-78 86 -140 141l33 51h13q66 -52 109 -92q39 37 108 92h13l34 -51q-57 -52 -141 -141z" />
<glyph unicode="&#x192;" horiz-adv-x="316" d="M407 611l-19 -88l-9 -5q-41 17 -73 17q-64 0 -75 -68l-11 -82h102l3 -8l-7 -66h-108l-18 -126l-15 -130q-8 -72 -39 -117t-101 -88l-54 53l1 10q39 29 57 59.5t25 79.5l15 122l16 137h-66l-4 7l7 67h71l8 62q10 84 66 128.5t148 44.5q37 0 80 -9z" />
<glyph unicode="&#x1a0;" horiz-adv-x="650" d="M641 749q20 -27 20 -67q0 -49 -33 -81.5t-84 -39.5q72 -82 72 -229q0 -160 -80 -251t-223 -91q-137 0 -211 84.5t-74 238.5q0 107 36 183.5t102 116.5t156 40q52 0 119 -20q36 -12 56 -12q27 0 43.5 14.5t16.5 38.5q0 37 -31 66l3 10q33 26 64 26q28 0 48 -27zM204.5 493 q-35.5 -50 -35.5 -166q0 -124 36 -178t118 -54q80 0 115.5 51t35.5 168q0 123 -36 176t-118 53q-80 0 -115.5 -50z" />
<glyph unicode="&#x1a1;" horiz-adv-x="495" d="M519 574q20 -24 20 -60q0 -33 -16 -61.5t-42.5 -45.5t-56.5 -17q40 -56 40 -150q0 -121 -57.5 -185.5t-165.5 -64.5q-104 0 -158 60t-54 176q0 120 58 184t167 64q37 0 86 -15q31 -9 46 -9q24 0 37 12.5t13 33.5q0 30 -31 61l3 11q35 30 65 30q26 0 46 -24zM175.5 350.5 q-21.5 -33.5 -21.5 -107.5q0 -89 22 -126.5t72 -37.5q48 0 69.5 33t21.5 108q0 88 -22 126t-72 38q-48 0 -69.5 -33.5z" />
<glyph unicode="&#x1af;" horiz-adv-x="648" d="M645 636.5q-25 -30.5 -68 -46.5l-3 -273l-1 -85q1 -115 -67 -178t-195 -63q-122 0 -186 61t-62 175l2 93l-3 324h136l-7 -399q-1 -143 128 -143t128 136l-6 406h64q62 0 62 49q0 32 -32 60l3 10q35 26 64 26q27 0 47.5 -24.5t20.5 -59.5q0 -38 -25 -68.5z" />
<glyph unicode="&#x1b0;" horiz-adv-x="531" d="M525.5 592q20.5 -24 20.5 -59q0 -39 -25.5 -69.5t-67.5 -45.5l-6 -296q0 -30 23 -30q11 0 27 4l9 -8l-12 -71q-34 -23 -72 -24q-65 3 -86 72h-7q-54 -52 -115 -71q-75 0 -115 34.5t-40 99.5l3 118l-5 210l129 11l-4 -295q0 -71 60 -71q42 0 87 39v316l45 6q68 10 68 53 q0 32 -31 60l3 11q37 30 65 30q26 0 46.5 -24z" />
<glyph unicode="&#x1cd;" horiz-adv-x="600" d="M446 0l-16 84l-17 60l-126 3l-111 -3l-17 -53l-17 -91h-134l218 644h161l197 -644h-138zM308 517h-9l-88 -268l86 -2l87 2zM316 718h-27q-62 55 -134 104l24 53h13l31 -18q37 -19 79 -45q42 26 79 45l31 18h13l25 -53q-69 -46 -134 -104z" />
<glyph unicode="&#x1ce;" horiz-adv-x="481" d="M364.5 439.5q43.5 -34.5 43.5 -96.5q0 -18 -6 -114q-5 -115 -5 -108q0 -17 5 -23.5t18 -6.5q10 0 26 4l10 -8l-12 -70q-32 -21 -73 -25q-63 6 -77 73h-7q-50 -53 -103 -74q-72 1 -113 38t-41 101q0 97 103 117l153 29v41q0 65 -64 65q-60 0 -143 -58l-10 6l-15 88 q88 56 190 56q77 0 120.5 -34.5zM148 144q0 -26 14 -40.5t39 -14.5q39 0 82 46l2 74l-106 -23q-31 -7 -31 -42zM248 524h-29q-78 86 -140 141l33 51h13q66 -52 109 -92q39 37 108 92h13l34 -51q-57 -52 -141 -141z" />
<glyph unicode="&#x1cf;" horiz-adv-x="295" d="M214 0h-136l7 192l-7 452h138l-8 -440zM161 718h-27q-62 55 -134 104l24 53h13l31 -18q37 -19 79 -45q42 26 79 45l31 18h13l25 -53q-69 -46 -134 -104z" />
<glyph unicode="&#x1d0;" horiz-adv-x="254" d="M193 0h-133l7 192l-6 264l133 11l-8 -262zM143 524h-29q-78 86 -140 141l33 51h13q66 -52 109 -92q39 37 108 92h13l34 -51q-57 -52 -141 -141z" />
<glyph unicode="&#x1d1;" horiz-adv-x="643" d="M542.5 570.5q73.5 -82.5 73.5 -234.5q0 -166 -79.5 -256t-225.5 -90q-136 0 -209.5 84.5t-73.5 239.5q0 163 79.5 251t225.5 88q136 0 209.5 -82.5zM205 493.5q-36 -49.5 -36 -161.5q0 -128 35.5 -182.5t117.5 -54.5q80 0 116 50t36 164q0 127 -35.5 180.5t-117.5 53.5 q-80 0 -116 -49.5zM337 718h-27q-62 55 -134 104l24 53h13l31 -18q37 -19 79 -45q42 26 79 45l31 18h13l25 -53q-69 -46 -134 -104z" />
<glyph unicode="&#x1d2;" horiz-adv-x="494" d="M410 414q54 -60 54 -173q0 -122 -58 -186.5t-167 -64.5q-102 0 -156 60t-54 173q0 122 58 186.5t167 64.5q102 0 156 -60zM175.5 352q-21.5 -32 -21.5 -103q0 -92 22 -131t72 -39q48 0 69.5 31.5t21.5 103.5q0 91 -22.5 130.5t-71.5 39.5q-48 0 -69.5 -32zM263 524h-29 q-78 86 -140 141l33 51h13q66 -52 109 -92q39 37 108 92h13l34 -51q-57 -52 -141 -141z" />
<glyph unicode="&#x1d3;" horiz-adv-x="638" d="M573 232q1 -115 -67 -178t-195 -63q-122 0 -186 61t-61 175l1 93l-3 324h136l-7 -399q-1 -143 128 -143q130 0 129 136l-7 406h138l-5 -327zM335 703h-29q-78 86 -140 141l33 51h13q66 -52 109 -92q39 37 108 92h13l34 -51q-57 -52 -141 -141z" />
<glyph unicode="&#x1d4;" horiz-adv-x="522" d="M452 97.5q5 -6.5 18 -6.5q10 0 26 4l10 -8l-12 -70q-32 -21 -73 -25q-63 6 -80 75h-10q-57 -55 -117 -73q-75 0 -115 34.5t-40 99.5l3 118l-5 210l129 11l-4 -295q0 -71 60 -71q42 0 87 39v316l126 11l-8 -346q0 -17 5 -23.5zM273 524h-29q-78 86 -140 141l33 51h13 q66 -52 109 -92q39 37 108 92h13l34 -51q-57 -52 -141 -141z" />
<glyph unicode="&#x1d5;" horiz-adv-x="638" d="M573 232q1 -115 -67 -178t-195 -63q-122 0 -186 61t-61 175l1 93l-3 324h136l-7 -399q-1 -143 128 -143q130 0 129 136l-7 406h138l-5 -327zM462 896h-279l-10 10l7 75h280l9 -10zM279 823.5q15 -15.5 15 -44.5t-17 -47t-46 -18q-59 0 -59 61q0 29 17 46.5t47 17.5 q28 0 43 -15.5zM453 823.5q15 -15.5 15 -44.5t-17 -47t-46 -18q-59 0 -59 61q0 29 17 46.5t47 17.5q28 0 43 -15.5z" />
<glyph unicode="&#x1d6;" horiz-adv-x="522" d="M452 97.5q5 -6.5 18 -6.5q10 0 26 4l10 -8l-12 -70q-32 -21 -73 -25q-63 6 -80 75h-10q-57 -55 -117 -73q-75 0 -115 34.5t-40 99.5l3 118l-5 210l129 11l-4 -295q0 -71 60 -71q42 0 87 39v316l126 11l-8 -346q0 -17 5 -23.5zM400 717h-279l-10 10l7 75h280l9 -10z M217 644.5q15 -15.5 15 -44.5t-17 -47t-46 -18q-59 0 -59 61q0 29 17 46.5t47 17.5q28 0 43 -15.5zM391 644.5q15 -15.5 15 -44.5t-17 -47t-46 -18q-59 0 -59 61q0 29 17 46.5t47 17.5q28 0 43 -15.5z" />
<glyph unicode="&#x1d7;" horiz-adv-x="638" d="M573 232q1 -115 -67 -178t-195 -63q-122 0 -186 61t-61 175l1 93l-3 324h136l-7 -399q-1 -143 128 -143q130 0 129 136l-7 406h138l-5 -327zM445 936l-7 -12q-145 -27 -225 -38l-12 5l-11 59q128 38 223 75l12 -6zM279 823.5q15 -15.5 15 -44.5t-17 -47t-46 -18 q-59 0 -59 61q0 29 17 46.5t47 17.5q28 0 43 -15.5zM453 823.5q15 -15.5 15 -44.5t-17 -47t-46 -18q-59 0 -59 61q0 29 17 46.5t47 17.5q28 0 43 -15.5z" />
<glyph unicode="&#x1d8;" horiz-adv-x="522" d="M452 97.5q5 -6.5 18 -6.5q10 0 26 4l10 -8l-12 -70q-32 -21 -73 -25q-63 6 -80 75h-10q-57 -55 -117 -73q-75 0 -115 34.5t-40 99.5l3 118l-5 210l129 11l-4 -295q0 -71 60 -71q42 0 87 39v316l126 11l-8 -346q0 -17 5 -23.5zM383 757l-7 -12q-145 -27 -225 -38l-12 5 l-11 59q128 38 223 75l12 -6zM217 644.5q15 -15.5 15 -44.5t-17 -47t-46 -18q-59 0 -59 61q0 29 17 46.5t47 17.5q28 0 43 -15.5zM391 644.5q15 -15.5 15 -44.5t-17 -47t-46 -18q-59 0 -59 61q0 29 17 46.5t47 17.5q28 0 43 -15.5z" />
<glyph unicode="&#x1d9;" horiz-adv-x="638" d="M573 232q1 -115 -67 -178t-195 -63q-122 0 -186 61t-61 175l1 93l-3 324h136l-7 -399q-1 -143 128 -143q130 0 129 136l-7 406h138l-5 -327zM334 853h-27q-63 53 -134 104l24 53h13l110 -63l110 63h13l25 -53q-68 -46 -134 -104zM279 823.5q15 -15.5 15 -44.5t-17 -47 t-46 -18q-59 0 -59 61q0 29 17 46.5t47 17.5q28 0 43 -15.5zM453 823.5q15 -15.5 15 -44.5t-17 -47t-46 -18q-59 0 -59 61q0 29 17 46.5t47 17.5q28 0 43 -15.5z" />
<glyph unicode="&#x1da;" horiz-adv-x="522" d="M452 97.5q5 -6.5 18 -6.5q10 0 26 4l10 -8l-12 -70q-32 -21 -73 -25q-63 6 -80 75h-10q-57 -55 -117 -73q-75 0 -115 34.5t-40 99.5l3 118l-5 210l129 11l-4 -295q0 -71 60 -71q42 0 87 39v316l126 11l-8 -346q0 -17 5 -23.5zM272 674h-27q-63 53 -134 104l24 53h13 l110 -63l110 63h13l25 -53q-68 -46 -134 -104zM217 644.5q15 -15.5 15 -44.5t-17 -47t-46 -18q-59 0 -59 61q0 29 17 46.5t47 17.5q28 0 43 -15.5zM391 644.5q15 -15.5 15 -44.5t-17 -47t-46 -18q-59 0 -59 61q0 29 17 46.5t47 17.5q28 0 43 -15.5z" />
<glyph unicode="&#x1db;" horiz-adv-x="638" d="M573 232q1 -115 -67 -178t-195 -63q-122 0 -186 61t-61 175l1 93l-3 324h136l-7 -399q-1 -143 128 -143q130 0 129 136l-7 406h138l-5 -327zM445 950l-12 -59l-12 -5q-83 11 -225 38l-6 12l19 83l12 6q97 -38 224 -75zM279 823.5q15 -15.5 15 -44.5t-17 -47t-46 -18 q-59 0 -59 61q0 29 17 46.5t47 17.5q28 0 43 -15.5zM453 823.5q15 -15.5 15 -44.5t-17 -47t-46 -18q-59 0 -59 61q0 29 17 46.5t47 17.5q28 0 43 -15.5z" />
<glyph unicode="&#x1dc;" horiz-adv-x="522" d="M452 97.5q5 -6.5 18 -6.5q10 0 26 4l10 -8l-12 -70q-32 -21 -73 -25q-63 6 -80 75h-10q-57 -55 -117 -73q-75 0 -115 34.5t-40 99.5l3 118l-5 210l129 11l-4 -295q0 -71 60 -71q42 0 87 39v316l126 11l-8 -346q0 -17 5 -23.5zM383 771l-12 -59l-12 -5q-83 11 -225 38 l-6 12l19 83l12 6q97 -38 224 -75zM217 644.5q15 -15.5 15 -44.5t-17 -47t-46 -18q-59 0 -59 61q0 29 17 46.5t47 17.5q28 0 43 -15.5zM391 644.5q15 -15.5 15 -44.5t-17 -47t-46 -18q-59 0 -59 61q0 29 17 46.5t47 17.5q28 0 43 -15.5z" />
<glyph unicode="&#x1ea;" horiz-adv-x="643" d="M390 -85q0 -37 38 -37q30 0 65 29h7l11 -55q-55 -49 -103 -49q-41 0 -66 25t-25 63q0 43 29 82l14 20q-24 -3 -49 -3q-136 0 -209.5 84.5t-73.5 239.5q0 163 79.5 251t225.5 88q135 0 208.5 -82.5t73.5 -234.5q0 -124 -45 -206.5t-130 -116.5l-34 -51q-16 -27 -16 -47z M204.5 149.5q35.5 -54.5 117.5 -54.5q79 0 115.5 50t36.5 164q0 127 -36 180.5t-118 53.5q-80 0 -115.5 -49.5t-35.5 -161.5q0 -128 35.5 -182.5z" />
<glyph unicode="&#x1eb;" horiz-adv-x="494" d="M272 -86q0 -37 38 -37q30 0 65 29h7l11 -55q-55 -49 -103 -49q-41 0 -66 25t-25 63q0 43 29 82l13 18h-2q-102 0 -156 60t-54 173q0 122 57.5 186.5t166.5 64.5q102 0 156 -60t54 -173q0 -99 -38 -160.5t-112 -81.5l-25 -38q-16 -27 -16 -47zM176.5 118 q22.5 -39 72.5 -39q48 0 69 31.5t21 103.5q0 91 -22 130.5t-72 39.5q-47 0 -69 -32t-22 -103q0 -92 22.5 -131z" />
<glyph unicode="&#x1fa;" horiz-adv-x="600" d="M203 855q117 38 222 80l12 -5l21 -83l-6 -11q-109 -25 -224 -45l-12 6zM446 0l-16 82l-17 59l-126 3l-111 -3l-17 -52l-17 -89h-134l220 621q-17 23 -17 61q0 45 25.5 70t72.5 25q46 0 70 -24t24 -67q0 -40 -20 -65l201 -621h-138zM266 683q0 -40 41 -40t41 38 q0 39 -42 39q-40 0 -40 -37zM308 505h-9l-88 -261l85 -2l87 2z" />
<glyph unicode="&#x1fb;" horiz-adv-x="481" d="M384 793l-6 -11q-109 -25 -224 -45l-12 6l-13 58q117 38 222 80l12 -5zM305 700q24 -24 24 -67q0 -47 -26.5 -72.5t-72.5 -25.5q-44 0 -68.5 24t-24.5 70q0 45 25.5 70t72.5 25q46 0 70 -24zM192 630q0 -40 41 -40t41 38q0 39 -42 39q-40 0 -40 -37zM364.5 439.5 q43.5 -34.5 43.5 -96.5q0 -18 -6 -114q-5 -115 -5 -108q0 -17 5.5 -23.5t18.5 -6.5q10 0 26 4l9 -8l-11 -70q-34 -21 -74 -25q-63 6 -77 73h-7q-50 -53 -102 -74q-72 1 -113.5 38t-41.5 101q0 97 103 117l153 29v41q0 65 -64 65q-60 0 -143 -58l-10 6l-15 88q89 56 190 56 q77 0 120.5 -34.5zM155.5 172.5q-7.5 -9.5 -7.5 -28.5q0 -26 14 -40.5t39 -14.5q39 0 82 46l2 74l-105 -23q-17 -4 -24.5 -13.5z" />
<glyph unicode="&#x1fc;" horiz-adv-x="822" d="M805 0h-389l-5 84l-17 137l-212 -56l-35 -74l-30 -91h-135l310 644h440l9 -11l-11 -101l-155 5h-88l22 -181l194 50l10 -8l11 -95l-203 -48l18 -149h102l165 6l8 -11zM358 517h-9l-109 -231l142 37zM651 807l-4 -12q-92 -36 -215 -78l-13 4l-22 55q121 61 208 113l12 -3z " />
<glyph unicode="&#x1fd;" horiz-adv-x="694" d="M621 423.5q47 -49.5 47 -140.5q0 -15 -1 -23l-13 -16l-266 -31q5 -64 33 -94.5t85 -30.5q65 0 131 36l11 -7l-19 -97q-67 -30 -134 -30q-119 0 -173 86q-55 -58 -125 -85q-77 1 -123 36.5t-46 100.5q0 49 26.5 81.5t76.5 38.5l150 16v53q0 65 -63 65q-59 0 -142 -59l-9 6 l-16 90q87 55 183 55q86 0 122 -53q54 52 137 52q81 0 128 -49.5zM414 354.5q-27 -30.5 -27 -75.5v-1l163 23q1 85 -70 85q-39 -1 -66 -31.5zM240 100.5q19 10.5 50 38.5q-7 38 -8 59l-96 -14q-39 -7 -39 -42q0 -25 14.5 -38.5t39.5 -13.5q20 0 39 10.5zM495 651l-2 -13 q-22 -14 -33 -20q-125 -77 -162 -98l-13 1l-32 50q116 93 181 153l13 -1z" />
<glyph unicode="&#x1fe;" horiz-adv-x="643" d="M615 336q0 -166 -79 -256t-225 -90q-48 0 -85 10l-57 -119l-85 31l-6 12l57 119q-107 83 -107 271q0 163 79.5 251t225.5 88q46 0 88 -11l51 106l83 -30l8 -14l-51 -106q103 -80 103 -262zM437.5 145q36.5 50 36.5 164q0 127 -36 180.5t-118 53.5q-80 0 -115.5 -49.5 t-35.5 -161.5q0 -128 35.5 -182.5t117.5 -54.5q79 0 115.5 50zM470 808l-4 -12q-92 -36 -215 -78l-13 4l-22 55q121 61 208 113l12 -3z" />
<glyph unicode="&#x1ff;" horiz-adv-x="494" d="M463 241q0 -122 -57.5 -186.5t-166.5 -64.5q-35 0 -67 8l-69 -123l-76 37l-3 11l66 120q-61 59 -61 180q0 122 57.5 186.5t166.5 64.5q35 0 69 -8l59 105l72 -36l7 -12l-57 -102q60 -62 60 -180zM318 110.5q21 31.5 21 103.5q0 91 -22 130.5t-72 39.5q-47 0 -69 -32 t-22 -103q0 -92 22.5 -131t72.5 -39q48 0 69 31.5zM392 651l-2 -13q-22 -14 -33 -20q-125 -77 -162 -98l-13 1l-32 50q116 93 181 153l13 -1z" />
<glyph unicode="&#x218;" horiz-adv-x="498" d="M448 619l-22 -117l-20 -8q-34 24 -70.5 38t-66.5 14q-40 0 -64 -21.5t-24 -49.5q0 -29 26.5 -49t83.5 -47q55 -25 89.5 -46.5t59 -56.5t24.5 -86q0 -55 -30 -100.5t-85 -72t-127 -26.5q-95 0 -191 41l19 126l15 8q40 -35 87.5 -53.5t84.5 -18.5q44 0 68.5 21.5t24.5 51.5 q0 32 -26.5 52t-85.5 48q-54 24 -88 45t-58 56t-24 85q0 56 30 101.5t84 71.5t123 26q82 0 163 -33zM315 -116q0 -79 -108 -156l-39 34l-1 9q50 41 50 88q0 30 -28 54v10q44 26 86 37q40 -31 40 -76z" />
<glyph unicode="&#x219;" horiz-adv-x="384" d="M345 450l-17 -98l-17 -5q-59 39 -109 39q-24 0 -38 -12.5t-14 -30.5q0 -21 18.5 -34t58.5 -29t66 -31t44.5 -41.5t18.5 -65.5q0 -40 -20.5 -74.5t-62.5 -56t-103 -21.5q-71 0 -149 30l16 104l12 8q32 -26 69.5 -41.5t66.5 -15.5q27 0 42 13.5t15 32.5q0 21 -18.5 34 t-58.5 29q-41 18 -66.5 32.5t-44 41.5t-18.5 67q0 65 48.5 106.5t133.5 41.5q69 0 127 -23zM260 -116q0 -79 -108 -156l-39 34l-1 9q50 41 50 88q0 30 -28 54v10q44 26 86 37q40 -31 40 -76z" />
<glyph unicode="&#x21a;" horiz-adv-x="503" d="M481 532l-122 6h-38l-6 -334l6 -204h-136l8 192l-6 346h-41l-122 -6l-9 11l9 101h457l8 -11zM324 -116q0 -79 -108 -156l-39 34l-1 9q50 41 50 88q0 30 -28 54v10q44 26 86 37q40 -31 40 -76z" />
<glyph unicode="&#x21b;" horiz-adv-x="338" d="M316 115l10 -10l-12 -79q-53 -26 -104 -32q-135 13 -135 132l5 83l-1 172h-63l-4 7l6 73h60v77l120 39l10 -8l-3 -108h118l5 -7l-7 -73h-118l-6 -224q-1 -32 11.5 -45.5t40.5 -13.5q32 0 67 17zM260 -116q0 -79 -108 -156l-39 34l-1 9q50 41 50 88q0 30 -28 54v10 q44 26 86 37q40 -31 40 -76z" />
<glyph unicode="&#x237;" horiz-adv-x="285" d="M212 205l6 -178q0 -79 -38 -131t-125 -91l-46 59v12q45 25 64 59t19 88l2 169l-4 189h-81l-8 8l7 72h84l124 7l4 -3z" />
<glyph unicode="&#x2c6;" d="M179 717h29q78 -86 140 -141l-33 -51h-13q-66 52 -109 92q-39 -37 -108 -92h-13l-34 51q57 52 141 141z" />
<glyph unicode="&#x2c7;" d="M208 524h-29q-78 86 -140 141l33 51h13q66 -52 109 -92q39 37 108 92h13l34 -51q-57 -52 -141 -141z" />
<glyph unicode="&#x2c9;" d="M336 577h-280l-9 9l7 74h280l8 -9z" />
<glyph unicode="&#x2d8;" d="M291.5 564q-38.5 -34 -100.5 -34q-60 0 -96.5 35t-50.5 90l31 45h19q24 -76 101 -76q78 0 100 76h19l31 -45q-15 -57 -53.5 -91z" />
<glyph unicode="&#x2d9;" horiz-adv-x="255" d="M178.5 674q17.5 -18 17.5 -50q0 -34 -19 -54t-52 -20t-50.5 18t-17.5 51t19.5 53t53.5 20q31 0 48.5 -18z" />
<glyph unicode="&#x2da;" d="M266 700q24 -24 24 -67q0 -47 -26.5 -72.5t-72.5 -25.5q-44 0 -68.5 24t-24.5 70q0 45 25.5 70t72.5 25q46 0 70 -24zM153 630q0 -40 41 -40t41 38q0 39 -42 39q-40 0 -40 -37z" />
<glyph unicode="&#x2db;" d="M169 -85q0 -37 38 -37q30 0 65 29h7l11 -55q-55 -49 -103 -49q-41 0 -66 25t-25 63q0 43 29 82l64 90h63l-67 -101q-16 -27 -16 -47z" />
<glyph unicode="&#x2dc;" d="M369 651l-70 -89l-13 -5q-27 3 -83 19q-60 16 -71 16t-21.5 -9t-22.5 -22t-18 -20h-12l-40 39v11l71 89l12 5q24 -3 85 -20q56 -15 69 -15q12 0 23.5 10t23.5 23t16 18h12l39 -39v-11z" />
<glyph unicode="&#x2dd;" d="M144 726l10 2l61 -44l1 -10q-55 -62 -144 -151l-12 -3l-41 34q69 89 125 172zM296 726l11 2l61 -44l1 -10q-55 -62 -144 -151l-12 -3l-41 34q73 97 124 172z" />
<glyph unicode="&#x303;" horiz-adv-x="0" d="M369 651l-71 -90l-12 -4q-22 3 -84 20q-56 15 -70 15q-11 0 -21.5 -9t-22.5 -22t-18 -20h-12l-40 39v11l71 89l13 5q9 -1 83 -19q53 -16 70 -16q12 0 23.5 10t23.5 23t16 18h12l39 -39v-11z" />
<glyph unicode="&#x323;" horiz-adv-x="0" d="M171.5 -105q17.5 -18 17.5 -50q0 -34 -19 -54t-52 -20t-50.5 18t-17.5 51t19.5 53t53.5 20q31 0 48.5 -18z" />
<glyph unicode="&#x326;" horiz-adv-x="0" d="M182.447 -121.784q0 -77.9521 -108.416 -155.007l-38.5273 34.0469l-0.896484 8.96094q49.2803 41.2148 49.2803 87.8066q0 30.4648 -28.6719 53.7598l0.895508 9.85645q41.2168 25.0879 86.0156 37.6318q40.3203 -32.2559 40.3203 -77.0557z" />
<glyph unicode="&#x394;" horiz-adv-x="600" d="M8 0l217 644h162l197 -644h-576zM163 104h262l-117 413h-9z" />
<glyph unicode="&#x3a9;" horiz-adv-x="754" d="M542 617q65 -36 97.5 -98t32.5 -141q0 -73 -29 -143t-86 -129l2 -4h78l84 8l7 -8l-15 -108l-115 6h-141l-38 -2l-6 5v86q117 104 117 266q0 89 -38.5 139t-116.5 50t-115 -48.5t-37 -135.5q0 -164 116 -271v-86l-6 -5l-38 2h-164l-99 -4l-7 9l15 104l92 -8l61 1l2 4 q-114 114 -114 261q0 81 35 146t103 102.5t164 37.5q94 0 159 -36z" />
<glyph unicode="&#x3bc;" horiz-adv-x="522" d="M491 17q-34 -24 -71 -24q-34 0 -54 16t-32 53h-8q-52 -53 -107 -68q-22 0 -37 4v-183h-125l4 377l-4 264l125 11v-295q0 -71 62 -71q40 0 85 39v316l126 11l-8 -342q-1 -37 23 -37q9 0 25 7l10 -7z" />
<glyph unicode="&#x3c0;" horiz-adv-x="672" d="M533 125q0 -37 23 -37q14 0 32 8l10 -7l-14 -72q-45 -24 -72 -24q-44 0 -71 26.5t-27 87.5v292h-131v-194l4 -295h-129l4 282l-3 207h-17q-14 0 -28 -12t-39 -39l-24 -26h-14l-40 50v14l91 111l18 8h399l118 2l8 -11l-9 -99l-85 1z" />
<glyph unicode="&#x1e80;" horiz-adv-x="903" d="M574 777l-22 -55l-13 -4q-123 42 -215 78l-4 12l34 79l12 3q87 -52 208 -113zM544 0l-96 308h-9l-97 -308h-143l-180 644h132l11 -79l113 -425h9l109 347l-45 157h138l15 -93l116 -411h9l130 416l16 88h126l-212 -644h-142z" />
<glyph unicode="&#x1e81;" horiz-adv-x="698" d="M476 571l-32 -50l-13 -1q-37 21 -162 98q-11 6 -33 20l-2 13l48 72l13 1q65 -60 181 -153zM202 134h7l70 254l17 77h128l10 -70l60 -260h7l69 253l16 77h111l-144 -465h-125l-72 299h-9l-83 -299h-130l-121 462l121 6l10 -73z" />
<glyph unicode="&#x1e82;" horiz-adv-x="903" d="M544 0l-96 308h-9l-97 -308h-143l-180 644h133l10 -79l114 -425h9l109 347l-46 157h138l15 -93l116 -411h9l130 416l16 88h126l-212 -644h-142zM594 807l-4 -12q-92 -36 -215 -78l-13 4l-22 55q121 61 208 113l12 -3z" />
<glyph unicode="&#x1e83;" horiz-adv-x="698" d="M202 134h8l70 254l16 77h129l10 -70l59 -260h8l68 253l16 77h112l-145 -465h-125l-71 299h-9l-83 -299h-131l-121 462l121 6l11 -73zM500 651l-2 -13q-22 -14 -33 -20q-125 -77 -162 -98l-13 1l-32 50q116 93 181 153l13 -1z" />
<glyph unicode="&#x1e84;" horiz-adv-x="903" d="M407 845.5q16 -16.5 16 -45.5q0 -32 -17.5 -50t-48.5 -18q-29 0 -45 16.5t-16 46.5q0 31 17.5 49t48.5 18q29 0 45 -16.5zM581 845.5q16 -16.5 16 -45.5q0 -32 -17.5 -50t-48.5 -18q-29 0 -45 16.5t-16 46.5q0 31 17.5 49t48.5 18q29 0 45 -16.5zM544 0l-96 308h-9 l-97 -308h-143l-180 644h132l11 -79l113 -425h9l109 347l-45 157h138l15 -93l116 -411h9l130 416l16 88h126l-212 -644h-142z" />
<glyph unicode="&#x1e85;" horiz-adv-x="698" d="M317 666.5q16 -16.5 16 -45.5q0 -32 -17.5 -50t-48.5 -18q-29 0 -45 16.5t-16 46.5q0 31 17.5 49t48.5 18q29 0 45 -16.5zM491 666.5q16 -16.5 16 -45.5q0 -32 -17.5 -50t-48.5 -18q-29 0 -45 16.5t-16 46.5q0 31 17.5 49t48.5 18q29 0 45 -16.5zM202 134h7l70 254l17 77 h128l10 -70l60 -260h7l69 253l16 77h111l-144 -465h-125l-72 299h-9l-83 -299h-130l-121 462l121 6l10 -73z" />
<glyph unicode="&#x1e9e;" horiz-adv-x="668" d="M466 635.5q61 -16.5 133 -50.5l6 -20l-144 -188q70 -34 108.5 -59.5t59 -59t20.5 -80.5q0 -60 -29.5 -102t-79 -63.5t-110.5 -21.5q-94 0 -176 41l19 126l15 8q37 -33 77.5 -52t73.5 -19q34 0 55 19t21 49q0 38 -47 71t-165 80l-5 21l139 185q-56 23 -107 23 q-136 0 -136 -128l-3 -210l6 -205h-137l8 190l-4 225q-1 108 71.5 172.5t203.5 64.5q66 0 127 -16.5z" />
<glyph unicode="&#x1ea0;" horiz-adv-x="600" d="M446 0l-16 84l-17 60l-126 3l-111 -3l-17 -53l-17 -91h-134l217 644h162l197 -644h-138zM308 517h-9l-88 -268l85 -2l88 2zM347.5 -70q17.5 -18 17.5 -50q0 -34 -19 -54t-52 -20t-50.5 18t-17.5 51t19.5 53t53.5 20q31 0 48.5 -18z" />
<glyph unicode="&#x1ea1;" horiz-adv-x="481" d="M364.5 439.5q43.5 -34.5 43.5 -96.5q0 -18 -6 -114q-5 -115 -5 -108q0 -17 5.5 -23.5t18.5 -6.5q10 0 26 4l9 -8l-11 -70q-34 -21 -74 -25q-63 6 -77 73h-7q-50 -53 -102 -74q-72 1 -113.5 38t-41.5 101q0 97 103 117l153 29v41q0 65 -64 65q-60 0 -143 -58l-10 6l-15 88 q89 56 190 56q77 0 120.5 -34.5zM155.5 172.5q-7.5 -9.5 -7.5 -28.5q0 -26 14 -40.5t39 -14.5q39 0 82 46l2 74l-105 -23q-17 -4 -24.5 -13.5zM284.5 -70q17.5 -18 17.5 -50q0 -34 -19 -54t-52 -20t-50.5 18t-17.5 51t19.5 53t53.5 20q31 0 48.5 -18z" />
<glyph unicode="&#x1ea2;" horiz-adv-x="600" d="M446 0l-16 84l-17 60l-126 3l-111 -3l-17 -53l-17 -91h-134l218 644h161l197 -644h-138zM308 517h-9l-88 -268l86 -2l87 2zM349 899q23 -20 23 -51q0 -20 -12 -38t-43 -45l23 -39l-49 -28l-42 66q24 18 38 37t14 34q0 22 -28 22q-33 0 -64 -25l-22 36q49 51 105 51 q34 0 57 -20z" />
<glyph unicode="&#x1ea3;" horiz-adv-x="481" d="M364.5 439.5q43.5 -34.5 43.5 -96.5q0 -18 -6 -114q-5 -115 -5 -108q0 -17 5 -23.5t18 -6.5q10 0 26 4l10 -8l-12 -70q-32 -21 -73 -25q-63 6 -77 73h-7q-50 -53 -103 -74q-72 1 -113 38t-41 101q0 97 103 117l153 29v41q0 65 -64 65q-60 0 -143 -58l-10 6l-15 88 q88 56 190 56q77 0 120.5 -34.5zM148 144q0 -26 14 -40.5t39 -14.5q39 0 82 46l2 74l-106 -23q-31 -7 -31 -42zM281 720q23 -20 23 -51q0 -20 -12 -38t-43 -45l23 -39l-49 -28l-42 66q24 18 38 37t14 34q0 22 -28 22q-33 0 -64 -25l-22 36q49 51 105 51q34 0 57 -20z" />
<glyph unicode="&#x1ea4;" horiz-adv-x="600" d="M446 0l-16 84l-17 60l-126 3l-111 -3l-17 -53l-17 -91h-134l218 644h161l197 -644h-138zM308 517h-9l-88 -268l86 -2l87 2zM506 956l-95 -123h-9l-45 34l70 124l10 4l66 -29zM287 865h27q62 -55 134 -104l-24 -53h-13l-31 18q-37 19 -79 45q-42 -26 -79 -45l-31 -18h-13 l-25 53q69 46 134 104z" />
<glyph unicode="&#x1ea5;" horiz-adv-x="481" d="M364.5 439.5q43.5 -34.5 43.5 -96.5q0 -18 -6 -114q-5 -115 -5 -108q0 -17 5 -23.5t18 -6.5q10 0 26 4l10 -8l-12 -70q-32 -21 -73 -25q-63 6 -77 73h-7q-50 -53 -103 -74q-72 1 -113 38t-41 101q0 97 103 117l153 29v41q0 65 -64 65q-60 0 -143 -58l-10 6l-15 88 q88 56 190 56q77 0 120.5 -34.5zM148 144q0 -26 14 -40.5t39 -14.5q39 0 82 46l2 74l-106 -23q-31 -7 -31 -42zM438 777l-95 -123h-9l-45 34l70 124l10 4l66 -29zM219 686h27q62 -55 134 -104l-24 -53h-13l-31 18q-37 19 -79 45q-42 -26 -79 -45l-31 -18h-13l-25 53 q69 46 134 104z" />
<glyph unicode="&#x1ea6;" horiz-adv-x="600" d="M446 0l-16 84l-17 60l-126 3l-111 -3l-17 -53l-17 -91h-134l218 644h161l197 -644h-138zM308 517h-9l-88 -268l86 -2l87 2zM463 867l-45 -34h-9l-95 123l3 10l67 29l9 -4zM287 865h27q62 -55 134 -104l-24 -53h-13l-31 18q-37 19 -79 45q-42 -26 -79 -45l-31 -18h-13 l-25 53q69 46 134 104z" />
<glyph unicode="&#x1ea7;" horiz-adv-x="481" d="M364.5 439.5q43.5 -34.5 43.5 -96.5q0 -18 -6 -114q-5 -115 -5 -108q0 -17 5 -23.5t18 -6.5q10 0 26 4l10 -8l-12 -70q-32 -21 -73 -25q-63 6 -77 73h-7q-50 -53 -103 -74q-72 1 -113 38t-41 101q0 97 103 117l153 29v41q0 65 -64 65q-60 0 -143 -58l-10 6l-15 88 q88 56 190 56q77 0 120.5 -34.5zM148 144q0 -26 14 -40.5t39 -14.5q39 0 82 46l2 74l-106 -23q-31 -7 -31 -42zM395 688l-45 -34h-9l-95 123l3 10l67 29l9 -4zM219 686h27q62 -55 134 -104l-24 -53h-13l-31 18q-37 19 -79 45q-42 -26 -79 -45l-31 -18h-13l-25 53 q69 46 134 104z" />
<glyph unicode="&#x1ea8;" horiz-adv-x="600" d="M325 956l-22 34q45 48 100 48q33 0 55 -19t22 -48q0 -19 -12 -36.5t-42 -42.5l22 -37l-46 -27l-40 63q50 36 50 67q0 22 -27 22q-31 0 -60 -24zM153 761q69 46 134 104h27q62 -55 134 -104l-24 -53h-13l-31 18q-37 19 -79 45q-42 -26 -79 -45l-31 -18h-13zM446 0l-16 84 l-17 60l-126 3l-111 -3l-17 -53l-17 -91h-134l217 644h162l197 -644h-138zM308 517h-9l-88 -268l85 -2l88 2z" />
<glyph unicode="&#x1ea9;" horiz-adv-x="481" d="M390 840q22 -19 22 -48q0 -19 -12 -36.5t-42 -42.5l22 -37l-46 -27l-40 63q50 36 50 67q0 22 -27 22q-31 0 -60 -24l-22 34q45 48 100 48q33 0 55 -19zM219 686h27q62 -55 134 -104l-24 -53h-13l-31 18q-37 19 -79 45q-42 -26 -79 -45l-31 -18h-13l-25 53q69 46 134 104z M364.5 439.5q43.5 -34.5 43.5 -96.5q0 -18 -6 -114q-5 -115 -5 -108q0 -17 5.5 -23.5t18.5 -6.5q10 0 26 4l9 -8l-11 -70q-34 -21 -74 -25q-63 6 -77 73h-7q-50 -53 -102 -74q-72 1 -113.5 38t-41.5 101q0 97 103 117l153 29v41q0 65 -64 65q-60 0 -143 -58l-10 6l-15 88 q89 56 190 56q77 0 120.5 -34.5zM155.5 172.5q-7.5 -9.5 -7.5 -28.5q0 -26 14 -40.5t39 -14.5q39 0 82 46l2 74l-105 -23q-17 -4 -24.5 -13.5z" />
<glyph unicode="&#x1eaa;" horiz-adv-x="600" d="M143 907v11l65 84l12 4q17 -2 77 -18q53 -15 65 -15q11 0 22 9.5t22 22.5t14 17h11l36 -37v-11l-65 -84l-11 -5q-25 4 -77 19q-53 15 -66 15q-10 0 -20 -8.5t-20.5 -21t-16.5 -19.5h-11zM448 761l-24 -53h-13l-31 18q-37 19 -79 45q-42 -26 -79 -45l-31 -18h-13l-25 53 q69 46 134 104h27q62 -55 134 -104zM446 0l-16 84l-17 60l-126 3l-111 -3l-17 -53l-17 -91h-134l217 644h162l197 -644h-138zM308 517h-9l-88 -268l85 -2l88 2z" />
<glyph unicode="&#x1eab;" horiz-adv-x="481" d="M399 795l-65 -84l-11 -5q-25 4 -77 19t-66 15q-10 0 -20 -8.5t-20.5 -21t-16.5 -19.5h-11l-37 37v11l65 84l12 4q17 -2 77 -18q53 -15 65 -15q11 0 22 9.5t22 22.5t14 17h11l36 -37v-11zM219 686h27q62 -55 134 -104l-24 -53h-13l-31 18q-37 19 -79 45q-42 -26 -79 -45 l-31 -18h-13l-25 53q69 46 134 104zM364.5 439.5q43.5 -34.5 43.5 -96.5q0 -18 -6 -114q-5 -115 -5 -108q0 -17 5.5 -23.5t18.5 -6.5q10 0 26 4l9 -8l-11 -70q-34 -21 -74 -25q-63 6 -77 73h-7q-50 -53 -102 -74q-72 1 -113.5 38t-41.5 101q0 97 103 117l153 29v41 q0 65 -64 65q-60 0 -143 -58l-10 6l-15 88q89 56 190 56q77 0 120.5 -34.5zM155.5 172.5q-7.5 -9.5 -7.5 -28.5q0 -26 14 -40.5t39 -14.5q39 0 82 46l2 74l-105 -23q-17 -4 -24.5 -13.5z" />
<glyph unicode="&#x1eac;" horiz-adv-x="600" d="M153 781q69 46 134 104h27q62 -55 134 -104l-24 -53h-13l-31 18q-37 19 -79 45q-42 -26 -79 -45l-31 -18h-13zM446 0l-16 84l-17 60l-126 3l-111 -3l-17 -53l-17 -91h-134l217 644h162l197 -644h-138zM308 517h-9l-88 -268l85 -2l88 2zM347.5 -70q17.5 -18 17.5 -50 q0 -34 -19 -54t-52 -20t-50.5 18t-17.5 51t19.5 53t53.5 20q31 0 48.5 -18z" />
<glyph unicode="&#x1ead;" horiz-adv-x="481" d="M220 718h29q78 -86 140 -141l-33 -51h-13q-66 52 -109 92q-39 -37 -108 -92h-13l-34 51q57 52 141 141zM364.5 439.5q43.5 -34.5 43.5 -96.5q0 -18 -6 -114q-5 -115 -5 -108q0 -17 5.5 -23.5t18.5 -6.5q10 0 26 4l9 -8l-11 -70q-34 -21 -74 -25q-63 6 -77 73h-7 q-50 -53 -102 -74q-72 1 -113.5 38t-41.5 101q0 97 103 117l153 29v41q0 65 -64 65q-60 0 -143 -58l-10 6l-15 88q89 56 190 56q77 0 120.5 -34.5zM155.5 172.5q-7.5 -9.5 -7.5 -28.5q0 -26 14 -40.5t39 -14.5q39 0 82 46l2 74l-105 -23q-17 -4 -24.5 -13.5zM284.5 -70 q17.5 -18 17.5 -50q0 -34 -19 -54t-52 -20t-50.5 18t-17.5 51t19.5 53t53.5 20q31 0 48.5 -18z" />
<glyph unicode="&#x1eae;" horiz-adv-x="600" d="M446 0l-16 84l-17 60l-126 3l-111 -3l-17 -53l-17 -91h-134l218 644h161l197 -644h-138zM308 517h-9l-88 -268l86 -2l87 2zM417 948q-61 -61 -112 -108l-11 -3l-42 33l21 29q48 64 71 97l10 2l61 -40zM394 728q-39 -27 -95 -27q-54 0 -92.5 27t-55.5 78l31 43h19 q13 -26 40 -41t63 -15q71 0 98 56h19l31 -43q-19 -51 -58 -78z" />
<glyph unicode="&#x1eaf;" horiz-adv-x="481" d="M364.5 439.5q43.5 -34.5 43.5 -96.5q0 -18 -6 -114q-5 -115 -5 -108q0 -17 5 -23.5t18 -6.5q10 0 26 4l10 -8l-12 -70q-32 -21 -73 -25q-63 6 -77 73h-7q-50 -53 -103 -74q-72 1 -113 38t-41 101q0 97 103 117l153 29v41q0 65 -64 65q-60 0 -143 -58l-10 6l-15 88 q88 56 190 56q77 0 120.5 -34.5zM148 144q0 -26 14 -40.5t39 -14.5q39 0 82 46l2 74l-106 -23q-31 -7 -31 -42zM349 769q-61 -61 -112 -108l-11 -3l-42 33l21 29q48 64 71 97l10 2l61 -40zM326 549q-39 -27 -95 -27q-54 0 -92.5 27t-55.5 78l31 43h19q13 -26 40 -41t63 -15 q71 0 98 56h19l31 -43q-19 -51 -58 -78z" />
<glyph unicode="&#x1eb0;" horiz-adv-x="600" d="M446 0l-16 84l-17 60l-126 3l-111 -3l-17 -53l-17 -91h-134l218 644h161l197 -644h-138zM308 517h-9l-88 -268l86 -2l87 2zM352 870l-42 -33l-12 3q-74 70 -111 108l1 10l62 40l10 -2q43 -62 92 -126zM394 728q-39 -27 -95 -27q-54 0 -92.5 27t-55.5 78l31 43h19 q13 -26 40 -41t63 -15q71 0 98 56h19l31 -43q-19 -51 -58 -78z" />
<glyph unicode="&#x1eb1;" horiz-adv-x="481" d="M364.5 439.5q43.5 -34.5 43.5 -96.5q0 -18 -6 -114q-5 -115 -5 -108q0 -17 5 -23.5t18 -6.5q10 0 26 4l10 -8l-12 -70q-32 -21 -73 -25q-63 6 -77 73h-7q-50 -53 -103 -74q-72 1 -113 38t-41 101q0 97 103 117l153 29v41q0 65 -64 65q-60 0 -143 -58l-10 6l-15 88 q88 56 190 56q77 0 120.5 -34.5zM148 144q0 -26 14 -40.5t39 -14.5q39 0 82 46l2 74l-106 -23q-31 -7 -31 -42zM284 691l-42 -33l-12 3q-74 70 -111 108l1 10l62 40l10 -2q43 -62 92 -126zM326 549q-39 -27 -95 -27q-54 0 -92.5 27t-55.5 78l31 43h19q13 -26 40 -41t63 -15 q71 0 98 56h19l31 -43q-19 -51 -58 -78z" />
<glyph unicode="&#x1eb2;" horiz-adv-x="600" d="M214 966l-22 36q49 51 105 51q34 0 57 -20t23 -51q0 -20 -12 -38t-43 -45l23 -39l-49 -28l-42 66q24 18 38 37t14 34q0 22 -28 22q-33 0 -64 -25zM206.5 728q-38.5 27 -55.5 78l31 43h19q13 -26 40 -41t63 -15q71 0 98 56h19l31 -43q-19 -51 -58 -78t-95 -27 q-54 0 -92.5 27zM446 0l-16 84l-17 60l-126 3l-111 -3l-17 -53l-17 -91h-134l217 644h162l197 -644h-138zM308 517h-9l-88 -268l85 -2l88 2z" />
<glyph unicode="&#x1eb3;" horiz-adv-x="481" d="M286 854q23 -20 23 -51q0 -20 -12 -38t-43 -45l23 -39l-49 -28l-42 66q24 18 38 37t14 34q0 22 -28 22q-33 0 -64 -25l-22 36q49 51 105 51q34 0 57 -20zM326 549q-39 -27 -95 -27q-54 0 -92.5 27t-55.5 78l31 43h19q13 -26 40 -41t63 -15q71 0 98 56h19l31 -43 q-19 -51 -58 -78zM364.5 439.5q43.5 -34.5 43.5 -96.5q0 -18 -6 -114q-5 -115 -5 -108q0 -17 5.5 -23.5t18.5 -6.5q10 0 26 4l9 -8l-11 -70q-34 -21 -74 -25q-63 6 -77 73h-7q-50 -53 -102 -74q-72 1 -113.5 38t-41.5 101q0 97 103 117l153 29v41q0 65 -64 65 q-60 0 -143 -58l-10 6l-15 88q89 56 190 56q77 0 120.5 -34.5zM155.5 172.5q-7.5 -9.5 -7.5 -28.5q0 -26 14 -40.5t39 -14.5q39 0 82 46l2 74l-105 -23q-17 -4 -24.5 -13.5z" />
<glyph unicode="&#x1eb4;" horiz-adv-x="600" d="M143 907v11l65 84l12 4q17 -2 77 -18q53 -15 65 -15q11 0 22 9.5t22 22.5t14 17h11l36 -37v-11l-65 -84l-11 -5q-25 4 -77 19q-53 15 -66 15q-10 0 -20 -8.5t-20.5 -21t-16.5 -19.5h-11zM401 842h18l29 -40q-17 -49 -55 -75.5t-90 -26.5t-88.5 26.5t-53.5 75.5l29 40h19 q25 -53 98 -53q68 0 94 53zM446 0l-16 84l-17 60l-126 3l-111 -3l-17 -53l-17 -91h-134l217 644h162l197 -644h-138zM308 517h-9l-88 -268l85 -2l88 2z" />
<glyph unicode="&#x1eb5;" horiz-adv-x="481" d="M399 795l-65 -84l-11 -5q-25 4 -77 19t-66 15q-10 0 -20 -8.5t-20.5 -21t-16.5 -19.5h-11l-37 37v11l65 84l12 4q17 -2 77 -18q53 -15 65 -15q11 0 22 9.5t22 22.5t14 17h11l36 -37v-11zM325 547.5q-38 -26.5 -90 -26.5t-88.5 26.5t-53.5 75.5l29 40h19q25 -53 98 -53 q68 0 94 53h18l29 -40q-17 -49 -55 -75.5zM364.5 439.5q43.5 -34.5 43.5 -96.5q0 -18 -6 -114q-5 -115 -5 -108q0 -17 5.5 -23.5t18.5 -6.5q10 0 26 4l9 -8l-11 -70q-34 -21 -74 -25q-63 6 -77 73h-7q-50 -53 -102 -74q-72 1 -113.5 38t-41.5 101q0 97 103 117l153 29v41 q0 65 -64 65q-60 0 -143 -58l-10 6l-15 88q89 56 190 56q77 0 120.5 -34.5zM155.5 172.5q-7.5 -9.5 -7.5 -28.5q0 -26 14 -40.5t39 -14.5q39 0 82 46l2 74l-105 -23q-17 -4 -24.5 -13.5z" />
<glyph unicode="&#x1eb6;" horiz-adv-x="600" d="M206 747.5q-38 27.5 -55 78.5l31 42h19q27 -55 103 -55q71 0 98 55h19l31 -42q-19 -51 -58.5 -78.5t-94.5 -27.5t-93 27.5zM446 0l-16 84l-17 60l-126 3l-111 -3l-17 -53l-17 -91h-134l217 644h162l197 -644h-138zM308 517h-9l-88 -268l85 -2l88 2zM347.5 -70 q17.5 -18 17.5 -50q0 -34 -19 -54t-52 -20t-50.5 18t-17.5 51t19.5 53t53.5 20q31 0 48.5 -18z" />
<glyph unicode="&#x1eb7;" horiz-adv-x="481" d="M334.5 564.5q-38.5 -34.5 -99.5 -34.5t-97.5 35t-49.5 90l30 45h19q25 -76 101 -76q77 0 101 76h19l30 -45q-15 -56 -53.5 -90.5zM364.5 439.5q43.5 -34.5 43.5 -96.5q0 -18 -6 -114q-5 -115 -5 -108q0 -17 5.5 -23.5t18.5 -6.5q10 0 26 4l9 -8l-11 -70q-34 -21 -74 -25 q-63 6 -77 73h-7q-50 -53 -102 -74q-72 1 -113.5 38t-41.5 101q0 97 103 117l153 29v41q0 65 -64 65q-60 0 -143 -58l-10 6l-15 88q89 56 190 56q77 0 120.5 -34.5zM155.5 172.5q-7.5 -9.5 -7.5 -28.5q0 -26 14 -40.5t39 -14.5q39 0 82 46l2 74l-105 -23q-17 -4 -24.5 -13.5 zM284.5 -70q17.5 -18 17.5 -50q0 -34 -19 -54t-52 -20t-50.5 18t-17.5 51t19.5 53t53.5 20q31 0 48.5 -18z" />
<glyph unicode="&#x1eb8;" horiz-adv-x="509" d="M490 101l-8 -101h-404l8 192l-8 452h408l7 -11l-9 -101l-155 5l-115 -1l-2 -156l109 -1l106 3l8 -10l-9 -101l-114 3l-102 -1l-1 -69l3 -97l112 -1l159 6zM345.5 -70q17.5 -18 17.5 -50q0 -34 -19 -54t-52 -20t-50.5 18t-17.5 51t19.5 53t53.5 20q31 0 48.5 -18z" />
<glyph unicode="&#x1eb9;" horiz-adv-x="471" d="M151 215q8 -126 124 -126q65 0 135 36l11 -7l-18 -98q-72 -30 -141 -30q-110 0 -171.5 64t-61.5 176q0 113 62 178t168 65q86 0 133.5 -48.5t47.5 -134.5q0 -27 -4 -55l-19 -19zM254 386q-40 0 -65.5 -25.5t-34.5 -72.5l169 5l2 12q0 81 -71 81zM169.5 -70 q17.5 -18 17.5 -50q0 -34 -19 -54t-52 -20t-50.5 18t-17.5 51t19.5 53t53.5 20q31 0 48.5 -18z" />
<glyph unicode="&#x1eba;" horiz-adv-x="509" d="M491 101l-9 -101h-404l7 192l-7 452h408l8 -11l-10 -101l-154 5l-116 -1l-3 -155l111 -2l105 3l8 -10l-9 -101l-114 3l-103 -1l-1 -69l3 -97l113 -1l159 6zM330 899q23 -20 23 -51q0 -20 -12 -38t-43 -45l23 -39l-49 -28l-42 66q24 18 38 37t14 34q0 22 -28 22 q-33 0 -64 -25l-22 36q49 51 105 51q34 0 57 -20z" />
<glyph unicode="&#x1ebb;" horiz-adv-x="471" d="M152 215q8 -126 124 -126q65 0 134 36l11 -7l-18 -98q-70 -30 -140 -30q-111 0 -172.5 64t-61.5 176q0 113 62 178t168 65q87 0 134 -48.5t47 -134.5q0 -27 -4 -55l-19 -19zM254 386q-39 0 -64.5 -25.5t-34.5 -72.5l168 5l2 12q0 81 -71 81zM297 720q23 -20 23 -51 q0 -20 -12 -38t-43 -45l23 -39l-49 -28l-42 66q24 18 38 37t14 34q0 22 -28 22q-33 0 -64 -25l-22 36q49 51 105 51q34 0 57 -20z" />
<glyph unicode="&#x1ebe;" horiz-adv-x="509" d="M491 101l-9 -101h-404l7 192l-7 452h408l8 -11l-10 -101l-154 5l-116 -1l-3 -155l111 -2l105 3l8 -10l-9 -101l-114 3l-103 -1l-1 -69l3 -97l113 -1l159 6zM487 956l-95 -123h-9l-45 34l70 124l10 4l66 -29zM268 865h27q62 -55 134 -104l-24 -53h-13l-31 18 q-37 19 -79 45q-42 -26 -79 -45l-31 -18h-13l-25 53q69 46 134 104z" />
<glyph unicode="&#x1ebf;" horiz-adv-x="471" d="M152 215q8 -126 124 -126q65 0 134 36l11 -7l-18 -98q-70 -30 -140 -30q-111 0 -172.5 64t-61.5 176q0 113 62 178t168 65q87 0 134 -48.5t47 -134.5q0 -27 -4 -55l-19 -19zM254 386q-39 0 -64.5 -25.5t-34.5 -72.5l168 5l2 12q0 81 -71 81zM454 777l-95 -123h-9l-45 34 l70 124l10 4l66 -29zM235 686h27q62 -55 134 -104l-24 -53h-13l-31 18q-37 19 -79 45q-42 -26 -79 -45l-31 -18h-13l-25 53q69 46 134 104z" />
<glyph unicode="&#x1ec0;" horiz-adv-x="509" d="M491 101l-9 -101h-404l7 192l-7 452h408l8 -11l-10 -101l-154 5l-116 -1l-3 -155l111 -2l105 3l8 -10l-9 -101l-114 3l-103 -1l-1 -69l3 -97l113 -1l159 6zM444 867l-45 -34h-9l-95 123l3 10l67 29l9 -4zM268 865h27q62 -55 134 -104l-24 -53h-13l-31 18q-37 19 -79 45 q-42 -26 -79 -45l-31 -18h-13l-25 53q69 46 134 104z" />
<glyph unicode="&#x1ec1;" horiz-adv-x="471" d="M152 215q8 -126 124 -126q65 0 134 36l11 -7l-18 -98q-70 -30 -140 -30q-111 0 -172.5 64t-61.5 176q0 113 62 178t168 65q87 0 134 -48.5t47 -134.5q0 -27 -4 -55l-19 -19zM254 386q-39 0 -64.5 -25.5t-34.5 -72.5l168 5l2 12q0 81 -71 81zM411 688l-45 -34h-9l-95 123 l3 10l67 29l9 -4zM235 686h27q62 -55 134 -104l-24 -53h-13l-31 18q-37 19 -79 45q-42 -26 -79 -45l-31 -18h-13l-25 53q69 46 134 104z" />
<glyph unicode="&#x1ec2;" horiz-adv-x="509" d="M306 956l-22 34q45 48 100 48q33 0 55 -19t22 -48q0 -19 -12 -36.5t-42 -42.5l22 -37l-46 -27l-40 63q50 36 50 67q0 22 -27 22q-31 0 -60 -24zM134 761q69 46 134 104h27q62 -55 134 -104l-24 -53h-13l-31 18q-37 19 -79 45q-42 -26 -79 -45l-31 -18h-13zM490 101 l-8 -101h-404l8 192l-8 452h408l7 -11l-9 -101l-155 5l-115 -1l-2 -156l109 -1l106 3l8 -10l-9 -101l-114 3l-102 -1l-1 -69l3 -97l112 -1l159 6z" />
<glyph unicode="&#x1ec3;" horiz-adv-x="471" d="M273 777l-22 34q45 48 100 48q33 0 55 -19t22 -48q0 -19 -12 -36.5t-42 -42.5l22 -37l-46 -27l-40 63q50 36 50 67q0 22 -27 22q-31 0 -60 -24zM101 582q69 46 134 104h27q62 -55 134 -104l-24 -53h-13l-31 18q-37 19 -79 45q-42 -26 -79 -45l-31 -18h-13zM151 215 q8 -126 124 -126q65 0 135 36l11 -7l-18 -98q-72 -30 -141 -30q-110 0 -171.5 64t-61.5 176q0 113 62 178t168 65q86 0 133.5 -48.5t47.5 -134.5q0 -27 -4 -55l-19 -19zM254 386q-40 0 -65.5 -25.5t-34.5 -72.5l169 5l2 12q0 81 -71 81z" />
<glyph unicode="&#x1ec4;" horiz-adv-x="509" d="M491 101l-9 -101h-404l7 192l-7 452h408l8 -11l-10 -101l-154 5l-116 -1l-3 -155l111 -2l105 3l8 -10l-9 -101l-114 3l-103 -1l-1 -69l3 -97l113 -1l159 6zM444 867l-45 -34h-9l-95 123l3 10l67 29l9 -4zM268 865h27q62 -55 134 -104l-24 -53h-13l-31 18q-37 19 -79 45 q-42 -26 -79 -45l-31 -18h-13l-25 53q69 46 134 104z" />
<glyph unicode="&#x1ec5;" horiz-adv-x="471" d="M91 728v11l65 84l12 4q17 -2 77 -18q53 -15 65 -15q11 0 22 9.5t22 22.5t14 17h11l36 -37v-11l-65 -84l-11 -5q-25 4 -77 19t-66 15q-10 0 -20 -8.5t-20.5 -21t-16.5 -19.5h-11zM396 582l-24 -53h-13l-31 18q-37 19 -79 45q-42 -26 -79 -45l-31 -18h-13l-25 53 q69 46 134 104h27q62 -55 134 -104zM151 215q8 -126 124 -126q65 0 135 36l11 -7l-18 -98q-72 -30 -141 -30q-110 0 -171.5 64t-61.5 176q0 113 62 178t168 65q86 0 133.5 -48.5t47.5 -134.5q0 -27 -4 -55l-19 -19zM254 386q-40 0 -65.5 -25.5t-34.5 -72.5l169 5l2 12 q0 81 -71 81z" />
<glyph unicode="&#x1ec6;" horiz-adv-x="509" d="M135 781q69 46 134 104h27q62 -55 134 -104l-24 -53h-13l-31 18q-37 19 -79 45q-42 -26 -79 -45l-31 -18h-13zM490 101l-8 -101h-404l8 192l-8 452h408l7 -11l-9 -101l-155 5l-115 -1l-2 -156l109 -1l106 3l8 -10l-9 -101l-114 3l-102 -1l-1 -69l3 -97l112 -1l159 6z M345.5 -70q17.5 -18 17.5 -50q0 -34 -19 -54t-52 -20t-50.5 18t-17.5 51t19.5 53t53.5 20q31 0 48.5 -18z" />
<glyph unicode="&#x1ec7;" horiz-adv-x="471" d="M95 577q57 52 141 141h29q78 -86 140 -141l-33 -51h-13q-66 52 -109 92q-39 -37 -108 -92h-13zM151 215q8 -126 124 -126q65 0 135 36l11 -7l-18 -98q-72 -30 -141 -30q-110 0 -171.5 64t-61.5 176q0 113 62 178t168 65q86 0 133.5 -48.5t47.5 -134.5q0 -27 -4 -55 l-19 -19zM254 386q-40 0 -65.5 -25.5t-34.5 -72.5l169 5l2 12q0 81 -71 81zM169.5 -70q17.5 -18 17.5 -50q0 -34 -19 -54t-52 -20t-50.5 18t-17.5 51t19.5 53t53.5 20q31 0 48.5 -18z" />
<glyph unicode="&#x1ec8;" horiz-adv-x="295" d="M214 0h-136l7 192l-7 452h138l-8 -440zM195 899q23 -20 23 -51q0 -20 -12 -38t-43 -45l23 -39l-49 -28l-42 66q24 18 38 37t14 34q0 22 -28 22q-33 0 -64 -25l-22 36q49 51 105 51q34 0 57 -20z" />
<glyph unicode="&#x1ec9;" horiz-adv-x="254" d="M193 0h-133l7 192l-6 264l133 11l-8 -262zM177 720q23 -20 23 -51q0 -20 -12 -38t-43 -45l23 -39l-49 -28l-42 66q24 18 38 37t14 34q0 22 -28 22q-33 0 -64 -25l-22 36q49 51 105 51q34 0 57 -20z" />
<glyph unicode="&#x1eca;" horiz-adv-x="295" d="M215 0h-137l8 192l-8 452h138l-7 -440zM192.5 -70q17.5 -18 17.5 -50q0 -34 -19 -54t-52 -20t-50.5 18t-17.5 51t19.5 53t53.5 20q31 0 48.5 -18z" />
<glyph unicode="&#x1ecb;" horiz-adv-x="254" d="M180.5 675q17.5 -18 17.5 -50q0 -34 -19 -54t-52 -20t-50.5 18t-17.5 51t19.5 53t53.5 20q31 0 48.5 -18zM193 0h-133l7 192l-6 264l133 11l-8 -262zM178.5 -70q17.5 -18 17.5 -50q0 -34 -19 -54t-52 -20t-50.5 18t-17.5 51t19.5 53t53.5 20q31 0 48.5 -18z" />
<glyph unicode="&#x1ecc;" horiz-adv-x="643" d="M541.5 570.5q73.5 -82.5 73.5 -234.5q0 -166 -79 -256t-225 -90q-136 0 -209.5 84.5t-73.5 239.5q0 163 79.5 251t225.5 88q135 0 208.5 -82.5zM204.5 493.5q-35.5 -49.5 -35.5 -161.5q0 -128 35.5 -182.5t117.5 -54.5q79 0 115.5 50t36.5 164q0 127 -36 180.5t-118 53.5 q-80 0 -115.5 -49.5zM375.5 -70q17.5 -18 17.5 -50q0 -34 -19 -54t-52 -20t-50.5 18t-17.5 51t19.5 53t53.5 20q31 0 48.5 -18z" />
<glyph unicode="&#x1ecd;" horiz-adv-x="494" d="M409 414q54 -60 54 -173q0 -122 -57.5 -186.5t-166.5 -64.5q-102 0 -156 60t-54 173q0 122 57.5 186.5t166.5 64.5q102 0 156 -60zM176 352q-22 -32 -22 -103q0 -92 22.5 -131t72.5 -39q48 0 69 31.5t21 103.5q0 91 -22 130.5t-72 39.5q-47 0 -69 -32zM303.5 -70 q17.5 -18 17.5 -50q0 -34 -19 -54t-52 -20t-50.5 18t-17.5 51t19.5 53t53.5 20q31 0 48.5 -18z" />
<glyph unicode="&#x1ece;" horiz-adv-x="643" d="M542.5 570.5q73.5 -82.5 73.5 -234.5q0 -166 -79.5 -256t-225.5 -90q-136 0 -209.5 84.5t-73.5 239.5q0 163 79.5 251t225.5 88q136 0 209.5 -82.5zM205 493.5q-36 -49.5 -36 -161.5q0 -128 35.5 -182.5t117.5 -54.5q80 0 116 50t36 164q0 127 -35.5 180.5t-117.5 53.5 q-80 0 -116 -49.5zM370 899q23 -20 23 -51q0 -20 -12 -38t-43 -45l23 -39l-49 -28l-42 66q24 18 38 37t14 34q0 22 -28 22q-33 0 -64 -25l-22 36q49 51 105 51q34 0 57 -20z" />
<glyph unicode="&#x1ecf;" horiz-adv-x="494" d="M410 414q54 -60 54 -173q0 -122 -58 -186.5t-167 -64.5q-102 0 -156 60t-54 173q0 122 58 186.5t167 64.5q102 0 156 -60zM175.5 352q-21.5 -32 -21.5 -103q0 -92 22 -131t72 -39q48 0 69.5 31.5t21.5 103.5q0 91 -22.5 130.5t-71.5 39.5q-48 0 -69.5 -32zM296 720 q23 -20 23 -51q0 -20 -12 -38t-43 -45l23 -39l-49 -28l-42 66q24 18 38 37t14 34q0 22 -28 22q-33 0 -64 -25l-22 36q49 51 105 51q34 0 57 -20z" />
<glyph unicode="&#x1ed0;" horiz-adv-x="643" d="M542.5 570.5q73.5 -82.5 73.5 -234.5q0 -166 -79.5 -256t-225.5 -90q-136 0 -209.5 84.5t-73.5 239.5q0 163 79.5 251t225.5 88q136 0 209.5 -82.5zM205 493.5q-36 -49.5 -36 -161.5q0 -128 35.5 -182.5t117.5 -54.5q80 0 116 50t36 164q0 127 -35.5 180.5t-117.5 53.5 q-80 0 -116 -49.5zM527 956l-95 -123h-9l-45 34l70 124l10 4l66 -29zM308 865h27q62 -55 134 -104l-24 -53h-13l-31 18q-37 19 -79 45q-42 -26 -79 -45l-31 -18h-13l-25 53q69 46 134 104z" />
<glyph unicode="&#x1ed1;" horiz-adv-x="494" d="M410 414q54 -60 54 -173q0 -122 -58 -186.5t-167 -64.5q-102 0 -156 60t-54 173q0 122 58 186.5t167 64.5q102 0 156 -60zM175.5 352q-21.5 -32 -21.5 -103q0 -92 22 -131t72 -39q48 0 69.5 31.5t21.5 103.5q0 91 -22.5 130.5t-71.5 39.5q-48 0 -69.5 -32zM453 777 l-95 -123h-9l-45 34l70 124l10 4l66 -29zM234 686h27q62 -55 134 -104l-24 -53h-13l-31 18q-37 19 -79 45q-42 -26 -79 -45l-31 -18h-13l-25 53q69 46 134 104z" />
<glyph unicode="&#x1ed2;" horiz-adv-x="643" d="M542.5 570.5q73.5 -82.5 73.5 -234.5q0 -166 -79.5 -256t-225.5 -90q-136 0 -209.5 84.5t-73.5 239.5q0 163 79.5 251t225.5 88q136 0 209.5 -82.5zM205 493.5q-36 -49.5 -36 -161.5q0 -128 35.5 -182.5t117.5 -54.5q80 0 116 50t36 164q0 127 -35.5 180.5t-117.5 53.5 q-80 0 -116 -49.5zM484 867l-45 -34h-9l-95 123l3 10l67 29l9 -4zM308 865h27q62 -55 134 -104l-24 -53h-13l-31 18q-37 19 -79 45q-42 -26 -79 -45l-31 -18h-13l-25 53q69 46 134 104z" />
<glyph unicode="&#x1ed3;" horiz-adv-x="494" d="M410 414q54 -60 54 -173q0 -122 -58 -186.5t-167 -64.5q-102 0 -156 60t-54 173q0 122 58 186.5t167 64.5q102 0 156 -60zM175.5 352q-21.5 -32 -21.5 -103q0 -92 22 -131t72 -39q48 0 69.5 31.5t21.5 103.5q0 91 -22.5 130.5t-71.5 39.5q-48 0 -69.5 -32zM410 688 l-45 -34h-9l-95 123l3 10l67 29l9 -4zM234 686h27q62 -55 134 -104l-24 -53h-13l-31 18q-37 19 -79 45q-42 -26 -79 -45l-31 -18h-13l-25 53q69 46 134 104z" />
<glyph unicode="&#x1ed4;" horiz-adv-x="643" d="M479 1019q22 -19 22 -48q0 -19 -12 -36.5t-42 -42.5l22 -37l-46 -27l-40 63q50 36 50 67q0 22 -27 22q-31 0 -60 -24l-22 34q45 48 100 48q33 0 55 -19zM308 865h27q62 -55 134 -104l-24 -53h-13l-31 18q-37 19 -79 45q-42 -26 -79 -45l-31 -18h-13l-25 53q69 46 134 104 zM541.5 570.5q73.5 -82.5 73.5 -234.5q0 -166 -79 -256t-225 -90q-136 0 -209.5 84.5t-73.5 239.5q0 163 79.5 251t225.5 88q135 0 208.5 -82.5zM204.5 493.5q-35.5 -49.5 -35.5 -161.5q0 -128 35.5 -182.5t117.5 -54.5q79 0 115.5 50t36.5 164q0 127 -36 180.5t-118 53.5 q-80 0 -115.5 -49.5z" />
<glyph unicode="&#x1ed5;" horiz-adv-x="494" d="M405 840q22 -19 22 -48q0 -19 -12 -36.5t-42 -42.5l22 -37l-46 -27l-40 63q50 36 50 67q0 22 -27 22q-31 0 -60 -24l-22 34q45 48 100 48q33 0 55 -19zM234 686h27q62 -55 134 -104l-24 -53h-13l-31 18q-37 19 -79 45q-42 -26 -79 -45l-31 -18h-13l-25 53q69 46 134 104z M409 414q54 -60 54 -173q0 -122 -57.5 -186.5t-166.5 -64.5q-102 0 -156 60t-54 173q0 122 57.5 186.5t166.5 64.5q102 0 156 -60zM176 352q-22 -32 -22 -103q0 -92 22.5 -131t72.5 -39q48 0 69 31.5t21 103.5q0 91 -22 130.5t-72 39.5q-47 0 -69 -32z" />
<glyph unicode="&#x1ed6;" horiz-adv-x="643" d="M488 974l-65 -84l-11 -5q-25 4 -77 19q-53 15 -66 15q-10 0 -20 -8.5t-20.5 -21t-16.5 -19.5h-11l-37 37v11l65 84l12 4q17 -2 77 -18q53 -15 65 -15q11 0 22 9.5t22 22.5t14 17h11l36 -37v-11zM308 865h27q62 -55 134 -104l-24 -53h-13l-31 18q-37 19 -79 45 q-42 -26 -79 -45l-31 -18h-13l-25 53q69 46 134 104zM541.5 570.5q73.5 -82.5 73.5 -234.5q0 -166 -79 -256t-225 -90q-136 0 -209.5 84.5t-73.5 239.5q0 163 79.5 251t225.5 88q135 0 208.5 -82.5zM204.5 493.5q-35.5 -49.5 -35.5 -161.5q0 -128 35.5 -182.5t117.5 -54.5 q79 0 115.5 50t36.5 164q0 127 -36 180.5t-118 53.5q-80 0 -115.5 -49.5z" />
<glyph unicode="&#x1ed7;" horiz-adv-x="494" d="M414 795l-65 -84l-11 -5q-25 4 -77 19q-53 15 -66 15q-10 0 -20 -8.5t-20.5 -21t-16.5 -19.5h-11l-37 37v11l65 84l12 4q17 -2 77 -18q52 -15 65 -15q11 0 22 9.5t22 22.5t14 17h11l36 -37v-11zM234 686h27q62 -55 134 -104l-24 -53h-13l-31 18q-37 19 -79 45 q-42 -26 -79 -45l-31 -18h-13l-25 53q69 46 134 104zM409 414q54 -60 54 -173q0 -122 -57.5 -186.5t-166.5 -64.5q-102 0 -156 60t-54 173q0 122 57.5 186.5t166.5 64.5q102 0 156 -60zM176 352q-22 -32 -22 -103q0 -92 22.5 -131t72.5 -39q48 0 69 31.5t21 103.5 q0 91 -22 130.5t-72 39.5q-47 0 -69 -32z" />
<glyph unicode="&#x1ed8;" horiz-adv-x="643" d="M314 881h27q62 -55 134 -104l-24 -53h-13l-31 18q-37 19 -79 45q-42 -26 -79 -45l-31 -18h-13l-25 53q69 46 134 104zM541.5 570.5q73.5 -82.5 73.5 -234.5q0 -166 -79 -256t-225 -90q-136 0 -209.5 84.5t-73.5 239.5q0 163 79.5 251t225.5 88q135 0 208.5 -82.5z M204.5 493.5q-35.5 -49.5 -35.5 -161.5q0 -128 35.5 -182.5t117.5 -54.5q79 0 115.5 50t36.5 164q0 127 -36 180.5t-118 53.5q-80 0 -115.5 -49.5zM375.5 -70q17.5 -18 17.5 -50q0 -34 -19 -54t-52 -20t-50.5 18t-17.5 51t19.5 53t53.5 20q31 0 48.5 -18z" />
<glyph unicode="&#x1ed9;" horiz-adv-x="494" d="M235 718h29q78 -86 140 -141l-33 -51h-13q-66 52 -109 92q-39 -37 -108 -92h-13l-34 51q57 52 141 141zM409 414q54 -60 54 -173q0 -122 -57.5 -186.5t-166.5 -64.5q-102 0 -156 60t-54 173q0 122 57.5 186.5t166.5 64.5q102 0 156 -60zM176 352q-22 -32 -22 -103 q0 -92 22.5 -131t72.5 -39q48 0 69 31.5t21 103.5q0 91 -22 130.5t-72 39.5q-47 0 -69 -32zM307.5 -70q17.5 -18 17.5 -50q0 -34 -19 -54t-52 -20t-50.5 18t-17.5 51t19.5 53t53.5 20q31 0 48.5 -18z" />
<glyph unicode="&#x1eda;" horiz-adv-x="650" d="M641 749q20 -27 20 -67q0 -49 -33 -81.5t-84 -39.5q72 -82 72 -229q0 -160 -80 -251t-223 -91q-137 0 -211 84.5t-74 238.5q0 107 36 183.5t102 116.5t156 40q52 0 119 -20q36 -12 56 -12q27 0 43.5 14.5t16.5 38.5q0 37 -31 66l3 10q33 26 64 26q28 0 48 -27zM204.5 493 q-35.5 -50 -35.5 -166q0 -124 36 -178t118 -54q80 0 115.5 51t35.5 168q0 123 -36 176t-118 53q-80 0 -115.5 -50zM471 807l-4 -12q-92 -36 -215 -78l-13 4l-22 55q121 61 208 113l12 -3z" />
<glyph unicode="&#x1edb;" horiz-adv-x="495" d="M519 574q20 -24 20 -60q0 -33 -16 -61.5t-42.5 -45.5t-56.5 -17q40 -56 40 -150q0 -121 -57.5 -185.5t-165.5 -64.5q-104 0 -158 60t-54 176q0 120 58 184t167 64q37 0 86 -15q31 -9 46 -9q24 0 37 12.5t13 33.5q0 30 -31 61l3 11q35 30 65 30q26 0 46 -24zM175.5 350.5 q-21.5 -33.5 -21.5 -107.5q0 -89 22 -126.5t72 -37.5q48 0 69.5 33t21.5 108q0 88 -22 126t-72 38q-48 0 -69.5 -33.5zM391 651l-2 -13q-22 -14 -33 -20q-125 -77 -162 -98l-13 1l-32 50q116 93 181 153l13 -1z" />
<glyph unicode="&#x1edc;" horiz-adv-x="650" d="M452 777l-22 -55l-13 -4q-123 42 -215 78l-4 12l34 79l12 3q87 -52 208 -113zM640.5 749q20.5 -27 20.5 -67q0 -49 -33 -81.5t-84 -39.5q71 -83 71 -229q0 -161 -79.5 -251.5t-223.5 -90.5q-137 0 -210.5 84.5t-73.5 238.5q0 108 36 184.5t102 116t156 39.5q52 0 119 -20 q36 -12 56 -12q27 0 43.5 14.5t16.5 38.5q0 37 -31 66l2 10q35 26 64 26q28 0 48.5 -27zM204 493q-35 -50 -35 -166q0 -124 36 -178t118 -54q80 0 115.5 51t35.5 168q0 123 -36 176t-118 53q-81 0 -116 -50z" />
<glyph unicode="&#x1edd;" horiz-adv-x="495" d="M338 571l-32 -50l-13 -1q-37 21 -162 98q-11 6 -33 20l-2 13l48 72l13 1q74 -69 181 -153zM518.5 573.5q20.5 -24.5 20.5 -59.5q0 -33 -16 -61.5t-42.5 -45.5t-56.5 -17q39 -55 39 -150q0 -121 -57.5 -185.5t-164.5 -64.5q-104 0 -158 60t-54 176q0 120 58 184t167 64 q38 0 85 -15q31 -9 47 -9q24 0 37 12.5t13 33.5q0 31 -32 61l3 11q37 30 65 30q26 0 46.5 -24.5zM176 350.5q-22 -33.5 -22 -107.5q0 -89 22 -126.5t73 -37.5q48 0 69 33t21 108q0 88 -22 126t-72 38q-47 0 -69 -33.5z" />
<glyph unicode="&#x1ede;" horiz-adv-x="650" d="M641 749q20 -27 20 -67q0 -49 -33 -81.5t-84 -39.5q72 -82 72 -229q0 -160 -80 -251t-223 -91q-137 0 -211 84.5t-74 238.5q0 107 36 183.5t102 116.5t156 40q52 0 119 -20q36 -12 56 -12q27 0 43.5 14.5t16.5 38.5q0 37 -31 66l3 10q33 26 64 26q28 0 48 -27zM204.5 493 q-35.5 -50 -35.5 -166q0 -124 36 -178t118 -54q80 0 115.5 51t35.5 168q0 123 -36 176t-118 53q-80 0 -115.5 -50zM370 899q23 -20 23 -51q0 -20 -12 -38t-43 -45l23 -39l-49 -28l-42 66q24 18 38 37t14 34q0 22 -28 22q-33 0 -64 -25l-22 36q49 51 105 51q34 0 57 -20z" />
<glyph unicode="&#x1edf;" horiz-adv-x="495" d="M519 574q20 -24 20 -60q0 -33 -16 -61.5t-42.5 -45.5t-56.5 -17q40 -56 40 -150q0 -121 -57.5 -185.5t-165.5 -64.5q-104 0 -158 60t-54 176q0 120 58 184t167 64q37 0 86 -15q31 -9 46 -9q24 0 37 12.5t13 33.5q0 30 -31 61l3 11q35 30 65 30q26 0 46 -24zM175.5 350.5 q-21.5 -33.5 -21.5 -107.5q0 -89 22 -126.5t72 -37.5q48 0 69.5 33t21.5 108q0 88 -22 126t-72 38q-48 0 -69.5 -33.5zM294 720q23 -20 23 -51q0 -20 -12 -38t-43 -45l23 -39l-49 -28l-42 66q24 18 38 37t14 34q0 22 -28 22q-33 0 -64 -25l-22 36q49 51 105 51q34 0 57 -20z " />
<glyph unicode="&#x1ee0;" horiz-adv-x="650" d="M641 749q20 -27 20 -67q0 -49 -33 -81.5t-84 -39.5q72 -82 72 -229q0 -160 -80 -251t-223 -91q-137 0 -211 84.5t-74 238.5q0 107 36 183.5t102 116.5t156 40q52 0 119 -20q36 -12 56 -12q27 0 43.5 14.5t16.5 38.5q0 37 -31 66l3 10q33 26 64 26q28 0 48 -27zM204.5 493 q-35.5 -50 -35.5 -166q0 -124 36 -178t118 -54q80 0 115.5 51t35.5 168q0 123 -36 176t-118 53q-80 0 -115.5 -50zM497 830l-70 -89l-13 -5q-27 3 -83 19q-60 16 -71 16t-21.5 -9t-22.5 -22t-18 -20h-12l-40 39v11l71 89l12 5q24 -3 85 -20q56 -15 69 -15q12 0 23.5 10 t23.5 23t16 18h12l39 -39v-11z" />
<glyph unicode="&#x1ee1;" horiz-adv-x="495" d="M519 574q20 -24 20 -60q0 -33 -16 -61.5t-42.5 -45.5t-56.5 -17q40 -56 40 -150q0 -121 -57.5 -185.5t-165.5 -64.5q-104 0 -158 60t-54 176q0 120 58 184t167 64q37 0 86 -15q31 -9 46 -9q24 0 37 12.5t13 33.5q0 30 -31 61l3 11q35 30 65 30q26 0 46 -24zM175.5 350.5 q-21.5 -33.5 -21.5 -107.5q0 -89 22 -126.5t72 -37.5q48 0 69.5 33t21.5 108q0 88 -22 126t-72 38q-48 0 -69.5 -33.5zM421 651l-70 -89l-13 -5q-27 3 -83 19q-60 16 -71 16t-21.5 -9t-22.5 -22t-18 -20h-12l-40 39v11l71 89l12 5q24 -3 85 -20q56 -15 69 -15q12 0 23.5 10 t23.5 23t16 18h12l39 -39v-11z" />
<glyph unicode="&#x1ee2;" horiz-adv-x="650" d="M640.5 749q20.5 -27 20.5 -67q0 -49 -33 -81.5t-84 -39.5q71 -83 71 -229q0 -161 -79.5 -251.5t-223.5 -90.5q-137 0 -210.5 84.5t-73.5 238.5q0 108 36 184.5t102 116t156 39.5q52 0 119 -20q36 -12 56 -12q27 0 43.5 14.5t16.5 38.5q0 37 -31 66l2 10q35 26 64 26 q28 0 48.5 -27zM204 493q-35 -50 -35 -166q0 -124 36 -178t118 -54q80 0 115.5 51t35.5 168q0 123 -36 176t-118 53q-81 0 -116 -50zM375.5 -70q17.5 -18 17.5 -50q0 -34 -19 -54t-52 -20t-50.5 18t-17.5 51t19.5 53t53.5 20q31 0 48.5 -18z" />
<glyph unicode="&#x1ee3;" horiz-adv-x="495" d="M518.5 573.5q20.5 -24.5 20.5 -59.5q0 -33 -16 -61.5t-42.5 -45.5t-56.5 -17q39 -55 39 -150q0 -121 -57.5 -185.5t-164.5 -64.5q-104 0 -158 60t-54 176q0 120 58 184t167 64q38 0 85 -15q31 -9 47 -9q24 0 37 12.5t13 33.5q0 31 -32 61l3 11q37 30 65 30 q26 0 46.5 -24.5zM176 350.5q-22 -33.5 -22 -107.5q0 -89 22 -126.5t73 -37.5q48 0 69 33t21 108q0 88 -22 126t-72 38q-47 0 -69 -33.5zM305.5 -70q17.5 -18 17.5 -50q0 -34 -19 -54t-52 -20t-50.5 18t-17.5 51t19.5 53t53.5 20q31 0 48.5 -18z" />
<glyph unicode="&#x1ee4;" horiz-adv-x="638" d="M573 232q1 -115 -67 -178t-195 -63q-122 0 -186 61t-62 175l2 93l-3 324h136l-7 -399q-1 -143 128 -143t128 136l-6 406h137l-4 -327zM368.5 -70q17.5 -18 17.5 -50q0 -34 -19 -54t-52 -20t-50.5 18t-17.5 51t19.5 53t53.5 20q31 0 48.5 -18z" />
<glyph unicode="&#x1ee5;" horiz-adv-x="522" d="M470 91q10 0 26 4l10 -8l-12 -70q-32 -21 -73 -25q-61 6 -80 75h-9q-59 -56 -118 -73q-75 0 -115 34.5t-40 99.5l3 118l-5 210l129 11l-3 -295q-2 -71 59 -71q43 0 87 39v316l127 11l-9 -346q0 -30 23 -30zM313.5 -70q17.5 -18 17.5 -50q0 -34 -19 -54t-52 -20t-50.5 18 t-17.5 51t19.5 53t53.5 20q31 0 48.5 -18z" />
<glyph unicode="&#x1ee6;" horiz-adv-x="638" d="M573 232q1 -115 -67 -178t-195 -63q-122 0 -186 61t-61 175l1 93l-3 324h136l-7 -399q-1 -143 128 -143q130 0 129 136l-7 406h138l-5 -327zM369 899q23 -20 23 -51q0 -20 -12 -38t-43 -45l23 -39l-49 -28l-42 66q24 18 38 37t14 34q0 22 -28 22q-33 0 -64 -25l-22 36 q49 51 105 51q34 0 57 -20z" />
<glyph unicode="&#x1ee7;" horiz-adv-x="522" d="M452 97.5q5 -6.5 18 -6.5q10 0 26 4l10 -8l-12 -70q-32 -21 -73 -25q-63 6 -80 75h-10q-57 -55 -117 -73q-75 0 -115 34.5t-40 99.5l3 118l-5 210l129 11l-4 -295q0 -71 60 -71q42 0 87 39v316l126 11l-8 -346q0 -17 5 -23.5zM307 720q23 -20 23 -51q0 -20 -12 -38 t-43 -45l23 -39l-49 -28l-42 66q24 18 38 37t14 34q0 22 -28 22q-33 0 -64 -25l-22 36q49 51 105 51q34 0 57 -20z" />
<glyph unicode="&#x1ee8;" horiz-adv-x="648" d="M645 636.5q-25 -30.5 -68 -46.5l-3 -273l-1 -85q1 -115 -67 -178t-195 -63q-122 0 -186 61t-62 175l2 93l-3 324h136l-7 -399q-1 -143 128 -143t128 136l-6 406h64q62 0 62 49q0 32 -32 60l3 10q35 26 64 26q27 0 47.5 -24.5t20.5 -59.5q0 -38 -25 -68.5zM470 807l-4 -12 q-92 -36 -215 -78l-13 4l-22 55q121 61 208 113l12 -3z" />
<glyph unicode="&#x1ee9;" horiz-adv-x="531" d="M525.5 592q20.5 -24 20.5 -59q0 -39 -25.5 -69.5t-67.5 -45.5l-6 -296q0 -30 23 -30q11 0 27 4l9 -8l-12 -71q-34 -23 -72 -24q-65 3 -86 72h-7q-54 -52 -115 -71q-75 0 -115 34.5t-40 99.5l3 118l-5 210l129 11l-4 -295q0 -71 60 -71q42 0 87 39v316l45 6q68 10 68 53 q0 32 -31 60l3 11q37 30 65 30q26 0 46.5 -24zM387 651l-2 -13q-22 -14 -33 -20q-125 -77 -162 -98l-13 1l-32 50q116 93 181 153l13 -1z" />
<glyph unicode="&#x1eea;" horiz-adv-x="648" d="M201 796l-4 12l34 79l12 3q87 -52 208 -113l-22 -55l-13 -4q-123 42 -215 78zM645 636.5q-25 -30.5 -68 -46.5l-3 -273l-1 -85q1 -115 -67 -178t-195 -63q-122 0 -186 61t-62 175l2 93l-3 324h136l-7 -399q-1 -143 128 -143t128 136l-6 406h64q62 0 62 49q0 32 -32 60 l3 10q35 26 64 26q27 0 47.5 -24.5t20.5 -59.5q0 -38 -25 -68.5z" />
<glyph unicode="&#x1eeb;" horiz-adv-x="531" d="M363 571l-32 -50l-13 -1q-37 21 -162 98q-11 6 -33 20l-2 13l48 72l13 1q65 -60 181 -153zM526 592q20 -24 20 -59q0 -39 -25.5 -69.5t-66.5 -45.5l-7 -296q0 -30 24 -30q10 0 26 4l10 -8l-13 -71q-34 -23 -72 -24q-65 3 -85 72h-8q-54 -53 -115 -71q-75 0 -115 34.5 t-40 99.5l3 118l-5 210l129 11l-3 -295q-2 -71 60 -71q42 0 86 39v316l45 6q68 10 68 53q0 32 -30 60l2 11q37 30 66 30q26 0 46 -24z" />
<glyph unicode="&#x1eec;" horiz-adv-x="648" d="M645 636.5q-25 -30.5 -68 -46.5l-3 -273l-1 -85q1 -115 -67 -178t-195 -63q-122 0 -186 61t-62 175l2 93l-3 324h136l-7 -399q-1 -143 128 -143t128 136l-6 406h64q62 0 62 49q0 32 -32 60l3 10q35 26 64 26q27 0 47.5 -24.5t20.5 -59.5q0 -38 -25 -68.5zM369 900 q23 -20 23 -51q0 -20 -12 -38t-43 -45l23 -39l-49 -28l-42 66q24 18 38 37t14 34q0 22 -28 22q-33 0 -64 -25l-22 36q49 51 105 51q34 0 57 -20z" />
<glyph unicode="&#x1eed;" horiz-adv-x="531" d="M525.5 592q20.5 -24 20.5 -59q0 -39 -25.5 -69.5t-67.5 -45.5l-6 -296q0 -30 23 -30q11 0 27 4l9 -8l-12 -71q-34 -23 -72 -24q-65 3 -86 72h-7q-54 -52 -115 -71q-75 0 -115 34.5t-40 99.5l3 118l-5 210l129 11l-4 -295q0 -71 60 -71q42 0 87 39v316l45 6q68 10 68 53 q0 32 -31 60l3 11q37 30 65 30q26 0 46.5 -24zM290 720q23 -20 23 -51q0 -20 -12 -38t-43 -45l23 -39l-49 -28l-42 66q24 18 38 37t14 34q0 22 -28 22q-33 0 -64 -25l-22 36q49 51 105 51q34 0 57 -20z" />
<glyph unicode="&#x1eee;" horiz-adv-x="648" d="M645 636.5q-25 -30.5 -68 -46.5l-3 -273l-1 -85q1 -115 -67 -178t-195 -63q-122 0 -186 61t-62 175l2 93l-3 324h136l-7 -399q-1 -143 128 -143t128 136l-6 406h64q62 0 62 49q0 32 -32 60l3 10q35 26 64 26q27 0 47.5 -24.5t20.5 -59.5q0 -38 -25 -68.5zM495 830 l-70 -89l-13 -5q-27 3 -83 19q-60 16 -71 16t-21.5 -9t-22.5 -22t-18 -20h-12l-40 39v11l71 89l12 5q24 -3 85 -20q56 -15 69 -15q12 0 23.5 10t23.5 23t16 18h12l39 -39v-11z" />
<glyph unicode="&#x1eef;" horiz-adv-x="531" d="M525.5 592q20.5 -24 20.5 -59q0 -39 -25.5 -69.5t-67.5 -45.5l-6 -296q0 -30 23 -30q11 0 27 4l9 -8l-12 -71q-34 -23 -72 -24q-65 3 -86 72h-7q-54 -52 -115 -71q-75 0 -115 34.5t-40 99.5l3 118l-5 210l129 11l-4 -295q0 -71 60 -71q42 0 87 39v316l45 6q68 10 68 53 q0 32 -31 60l3 11q37 30 65 30q26 0 46.5 -24zM416 651l-70 -89l-13 -5q-27 3 -83 19q-60 16 -71 16t-21.5 -9t-22.5 -22t-18 -20h-12l-40 39v11l71 89l12 5q24 -3 85 -20q56 -15 69 -15q12 0 23.5 10t23.5 23t16 18h12l39 -39v-11z" />
<glyph unicode="&#x1ef0;" horiz-adv-x="648" d="M645 636.5q-25 -30.5 -68 -46.5l-3 -273l-1 -85q1 -115 -67 -178t-195 -63q-122 0 -186 61t-62 175l2 93l-3 324h136l-7 -399q-1 -143 128 -143t128 136l-6 406h64q62 0 62 49q0 32 -32 60l3 10q35 26 64 26q27 0 47.5 -24.5t20.5 -59.5q0 -38 -25 -68.5zM370.5 -70 q17.5 -18 17.5 -50q0 -34 -19 -54t-52 -20t-50.5 18t-17.5 51t19.5 53t53.5 20q31 0 48.5 -18z" />
<glyph unicode="&#x1ef1;" horiz-adv-x="531" d="M526 592q20 -24 20 -59q0 -39 -25.5 -69.5t-66.5 -45.5l-7 -296q0 -30 24 -30q10 0 26 4l10 -8l-13 -71q-34 -23 -72 -24q-65 3 -85 72h-8q-54 -53 -115 -71q-75 0 -115 34.5t-40 99.5l3 118l-5 210l129 11l-3 -295q-2 -71 60 -71q42 0 86 39v316l45 6q68 10 68 53 q0 32 -30 60l2 11q37 30 66 30q26 0 46 -24zM311.5 -70q17.5 -18 17.5 -50q0 -34 -19 -54t-52 -20t-50.5 18t-17.5 51t19.5 53t53.5 20q31 0 48.5 -18z" />
<glyph unicode="&#x1ef2;" horiz-adv-x="558" d="M155 796l-4 12l34 79l12 3q87 -52 208 -113l-22 -55l-13 -4q-123 42 -215 78zM339 0h-136l8 179l-1 36l-206 429h143l15 -45l109 -245h9l122 241l18 49h140l-225 -425l-2 -40z" />
<glyph unicode="&#x1ef3;" horiz-adv-x="447" d="M349 571l-32 -50l-13 -1q-37 21 -162 98q-11 6 -33 20l-2 13l48 72l13 1q65 -60 181 -153zM225 135h9l81 247l16 83h116l-151 -433q-33 -94 -88.5 -144.5t-157.5 -79.5l-10 1q-36 33 -60 80l5 14q62 11 106 34t79 63l-170 462l128 6l15 -74z" />
<glyph unicode="&#x1ef4;" horiz-adv-x="558" d="M4 644h143l15 -45l109 -245h9l122 241l18 49h140l-225 -425l-2 -40l6 -179h-136l8 179l-1 36zM322.5 -70q17.5 -18 17.5 -50q0 -34 -19 -54t-52 -20t-50.5 18t-17.5 51t19.5 53t53.5 20q31 0 48.5 -18z" />
<glyph unicode="&#x1ef5;" horiz-adv-x="460" d="M225 135h9l81 247l16 83h116l-151 -433q-33 -94 -88.5 -144.5t-157.5 -79.5l-10 1q-36 33 -60 80l5 14q62 11 106 34t79 63l-170 462l128 6l15 -74zM397.5 -60q16.5 -17 16.5 -47q0 -32 -18.5 -50.5t-49.5 -18.5q-63 0 -63 64q0 32 18.5 50.5t49.5 18.5q30 0 46.5 -17z " />
<glyph unicode="&#x1ef6;" horiz-adv-x="558" d="M339 0h-136l8 179l-2 38l-205 427h144l14 -45l109 -245h10l121 241l19 49h140l-226 -425l-2 -40zM324 899q23 -20 23 -51q0 -20 -12 -38t-43 -45l23 -39l-49 -28l-42 66q24 18 38 37t14 34q0 22 -28 22q-33 0 -64 -25l-22 36q49 51 105 51q34 0 57 -20z" />
<glyph unicode="&#x1ef7;" horiz-adv-x="447" d="M225 135h8l81 247l17 83h115l-151 -433q-33 -94 -88.5 -144.5t-157.5 -79.5l-10 1q-36 33 -60 80l5 14q62 11 106 34t79 63l-170 462l128 6l15 -74zM276 720q23 -20 23 -51q0 -20 -12 -38t-43 -45l23 -39l-49 -28l-42 66q24 18 38 37t14 34q0 22 -28 22q-33 0 -64 -25 l-22 36q49 51 105 51q34 0 57 -20z" />
<glyph unicode="&#x2013;" horiz-adv-x="466" d="M475 213h-481l-9 9l7 81h480l9 -10z" />
<glyph unicode="&#x2014;" horiz-adv-x="889" d="M900 213h-909l-8 9l6 81h908l9 -10z" />
<glyph unicode="&#x2018;" horiz-adv-x="207" d="M33 485q0 76 92 164l46 -30l2 -10q-40 -44 -40 -85q0 -47 40 -71v-11q-42 -32 -83 -51q-57 31 -57 94z" />
<glyph unicode="&#x2019;" horiz-adv-x="207" d="M175 556q0 -76 -92 -164l-46 30l-2 10q40 44 40 85q0 47 -40 71v11q42 32 83 51q57 -31 57 -94z" />
<glyph unicode="&#x201a;" horiz-adv-x="229" d="M184 46q0 -87 -121 -173l-43 38l-1 10q55 46 55 98q0 34 -32 60l1 11q46 28 96 42q45 -36 45 -86z" />
<glyph unicode="&#x201c;" horiz-adv-x="367" d="M196 486q0 76 92 164l46 -30l2 -10q-40 -44 -40 -85q0 -47 40 -71v-11q-42 -32 -83 -51q-57 31 -57 94zM30 486q0 76 92 164l46 -30l2 -10q-40 -44 -40 -85q0 -47 40 -71v-11q-42 -32 -83 -51q-57 31 -57 94z" />
<glyph unicode="&#x201d;" horiz-adv-x="365" d="M332 556q0 -76 -92 -164l-46 30l-2 10q40 44 40 85q0 47 -40 71v11q42 32 83 51q57 -31 57 -94zM174 556q0 -76 -92 -164l-46 30l-2 10q40 44 40 85q0 47 -40 71v11q42 32 83 51q57 -31 57 -94z" />
<glyph unicode="&#x201e;" horiz-adv-x="394" d="M348 46q0 -87 -121 -173l-43 38l-1 10q55 46 55 98q0 34 -32 60l1 11q46 28 96 42q45 -36 45 -86zM184 46q0 -87 -121 -173l-43 38l-1 10q55 46 55 98q0 34 -32 60l1 11q46 28 96 42q45 -36 45 -86z" />
<glyph unicode="&#x2020;" horiz-adv-x="502" d="M294 323v-34v-377l-82 -6l-9 10v365v42h-155l-8 9l7 80h156l1 173l84 6l8 -7l-1 -172h158l10 -9l-7 -80h-162z" />
<glyph unicode="&#x2021;" horiz-adv-x="502" d="M463 148l-7 -79h-162v-157l-82 -6l-9 10v153h-155l-8 9l7 80h156v123v53h-155l-8 9l7 80h156l1 162l84 6l8 -7l-1 -161h158l10 -9l-7 -80h-162v-45v-131h159z" />
<glyph unicode="&#x2022;" horiz-adv-x="277" d="M201.501 350.279q21.7295 -22.3516 21.7295 -62.0859q0 -42.2168 -23.5918 -67.0508t-64.5684 -24.834t-62.7061 22.3496q-21.7295 22.3516 -21.7295 63.3271t24.2129 65.8096t66.4316 24.834q38.4922 0 60.2217 -22.3496z" />
<glyph unicode="&#x2024;" horiz-adv-x="229" d="M165.5 117q17.5 -18 17.5 -50q0 -34 -19 -54t-52 -20t-50.5 18t-17.5 51t19.5 53t53.5 20q31 0 48.5 -18z" />
<glyph unicode="&#x2025;" horiz-adv-x="430" d="M361.5 117q17.5 -18 17.5 -50q0 -34 -19 -54t-52 -20t-50.5 18t-17.5 51t19.5 53t53.5 20q31 0 48.5 -18zM161.5 117q17.5 -18 17.5 -50q0 -34 -19 -54t-52 -20t-50.5 18t-17.5 51t19.5 53t53.5 20q31 0 48.5 -18z" />
<glyph unicode="&#x2026;" horiz-adv-x="631" d="M361.5 117q17.5 -18 17.5 -50q0 -34 -19 -54t-52 -20t-50.5 18t-17.5 51t19.5 53t53.5 20q31 0 48.5 -18zM562.5 117q17.5 -18 17.5 -50q0 -34 -19 -54t-52 -20t-50.5 18t-17.5 51t19.5 53t53.5 20q31 0 48.5 -18zM161.5 117q17.5 -18 17.5 -50q0 -34 -19 -54t-52 -20 t-50.5 18t-17.5 51t19.5 53t53.5 20q31 0 48.5 -18z" />
<glyph unicode="&#x2030;" horiz-adv-x="1229" d="M674 634l-466 -726l-57 34l-6 14l467 730l54 -33zM305 604.5q38 -45.5 38 -129.5q0 -92 -41.5 -140.5t-120.5 -48.5q-73 0 -111.5 45t-38.5 130q0 92 42.5 140.5t121.5 48.5q72 0 110 -45.5zM132 539.5q-17 -22.5 -17 -71.5q0 -101 72 -101q73 0 73 96q0 51 -18 75 t-56 24q-37 0 -54 -22.5zM784 312.5q38 -45.5 38 -129.5q0 -92 -41.5 -140.5t-120.5 -48.5q-73 0 -111.5 45t-38.5 130q0 92 42.5 140.5t121.5 48.5q72 0 110 -45.5zM1158.5 312.5q38.5 -45.5 38.5 -129.5q0 -92 -41.5 -140.5t-120.5 -48.5q-73 0 -111.5 45t-38.5 130 q0 92 42.5 140.5t121.5 48.5q71 0 109.5 -45.5zM611 247.5q-17 -22.5 -17 -71.5q0 -101 72 -101q73 0 73 96q0 51 -18 75t-56 24q-37 0 -54 -22.5zM986 247.5q-17 -22.5 -17 -71.5q0 -101 72 -101q73 0 73 96q0 51 -18 75t-56 24q-37 0 -54 -22.5z" />
<glyph unicode="&#x2032;" horiz-adv-x="205" d="M130 413l-62 -9l-11 9l-2 222l103 7l7 -9z" />
<glyph unicode="&#x2033;" horiz-adv-x="358" d="M283 413l-62 -9l-11 9l-2 222l103 7l7 -9zM130 413l-62 -9l-11 9l-2 222l103 7l7 -9z" />
<glyph unicode="&#x2039;" horiz-adv-x="244" d="M22 236l136 178l63 -33l2 -13l-104 -141l104 -140l-2 -13l-63 -34l-136 174v22z" />
<glyph unicode="&#x203a;" horiz-adv-x="246" d="M226 221l-136 -178l-63 33l-2 13l104 141l-104 140l2 13l63 34l136 -174v-22z" />
<glyph unicode="&#x2044;" horiz-adv-x="104" d="M299 634l-466 -726l-57 34l-6 14l468 730l54 -33z" />
<glyph unicode="&#x2070;" horiz-adv-x="375" d="M305 657.5q38 -49.5 38 -141.5q0 -100 -41.5 -153t-120.5 -53q-73 0 -111.5 49.5t-38.5 141.5q0 100 42.5 153t121.5 53q72 0 110 -49.5zM132 586.5q-17 -24.5 -17 -77.5q0 -57 17.5 -84t54.5 -27q73 0 73 105q0 56 -18 82t-56 26q-37 0 -54 -24.5z" />
<glyph unicode="&#x2074;" horiz-adv-x="367" d="M282 401l5 -79l-6 -7l-83 -4l-6 5l2 86h-101l-66 -3l-7 9v65l165 228h98l-3 -221h54l6 -9l-5 -72zM196 480l-1 108h-6l-77 -108h84z" />
<glyph unicode="&#x2075;" horiz-adv-x="320" d="M278 621l-7 -7l-65 7h-72l-1 -59l42 -10q57 -12 84 -38t27 -69q0 -62 -49 -99t-129 -37q-41 0 -81 8l-6 72l7 8q39 -11 80 -11q36 0 55.5 13t19.5 36q0 18 -13 28.5t-43 16.5l-70 12l-6 8l1 190l11 12l41 -1h106l72 3l6 -6z" />
<glyph unicode="&#x2076;" horiz-adv-x="350" d="M292.5 522.5q30.5 -33.5 30.5 -81.5q0 -56 -38.5 -94t-110.5 -38q-69 0 -108 39.5t-39 108.5q0 79 51.5 143.5t145.5 106.5h6l67 -45v-10q-66 -25 -102 -49t-53 -56l5 -6q30 15 60 15q55 0 85.5 -33.5zM227 431q0 54 -51 54q-24 0 -52 -13v-13q0 -43 11.5 -64t40.5 -21 q51 0 51 57z" />
<glyph unicode="&#x2077;" horiz-adv-x="311" d="M252 701l35 1v-75l-101 -213l-42 -106l-86 22l-6 16l131 270h-94l-67 -6l-6 9l8 84l83 -2h145z" />
<glyph unicode="&#x2078;" horiz-adv-x="360" d="M279.5 680q32.5 -26 32.5 -70q0 -53 -60 -88v-5q33 -16 51.5 -36.5t18.5 -54.5q0 -55 -41 -86t-111 -31q-64 0 -99.5 27t-35.5 72q0 62 76 91v4q-65 33 -65 92q0 51 39.5 81t103.5 30q58 0 90.5 -26zM135 598q0 -19 14 -30.5t42 -23.5q37 25 37 54q0 18 -12.5 28.5 t-33.5 10.5q-47 0 -47 -39zM123 422q0 -21 14.5 -33.5t41.5 -12.5t42 12t15 30q0 20 -16 31.5t-49 23.5q-48 -15 -48 -51z" />
<glyph unicode="&#x2079;" horiz-adv-x="351" d="M286 668q39 -40 39 -111q0 -78 -52 -142.5t-146 -105.5h-6l-66 44v10q65 24 101.5 48.5t53.5 56.5l-5 6q-28 -14 -61 -14q-53 0 -84.5 33.5t-31.5 81.5q0 55 39 94t111 39q69 0 108 -40zM228 545v11q0 44 -11.5 65t-40.5 21q-52 0 -52 -57q0 -54 52 -54q27 0 52 14z" />
<glyph unicode="&#x20a3;" horiz-adv-x="406" d="M185 292h80l96 2l6 -9l-7 -80l-104 2h-72l-1 -47l1 -21h111l5 -7l-4 -46h-111l3 -86h-112l3 86h-60l-4 6l3 47h63v11l-5 353h329l7 -9l-8 -80l-132 4h-84z" />
<glyph unicode="&#x20ac;" horiz-adv-x="467" d="M6 278l4 59h71q22 84 84 129.5t157 45.5q66 0 130 -27l-21 -99l-10 -5q-47 29 -104 29q-83 0 -105 -73h142l6 -6l-5 -61h-345zM430 120l11 -6l-10 -98q-53 -23 -118 -23q-199 0 -234 168h-69l-4 7l4 60h344l6 -7l-5 -60h-140q27 -67 105 -67q58 0 110 26z" />
<glyph unicode="&#x2113;" horiz-adv-x="263" d="M198 0h-133l7 193l-6 499l133 10l-8 -497z" />
<glyph unicode="&#x2122;" horiz-adv-x="590" d="M219 637l-3 -48l-50 2h-12l-2 -110l3 -76h-66l3 70l-1 116h-12l-51 -2l-4 5l4 48h188zM482 405l-3 71l-7 68h-4l-49 -117h-52l-43 117h-4l-7 -61l-5 -78h-57l26 237h78l9 -34l31 -93h4l34 91l10 36h77l21 -237h-59z" />
<glyph unicode="&#x2126;" horiz-adv-x="754" d="M542 617q65 -36 97.5 -98t32.5 -141q0 -73 -29 -143t-86 -129l2 -4h78l84 8l7 -8l-15 -108l-115 6h-141l-38 -2l-6 5v86q117 104 117 266q0 89 -38.5 139t-116.5 50t-115 -48.5t-37 -135.5q0 -164 116 -271v-86l-6 -5l-38 2h-164l-99 -4l-7 9l15 104l92 -8l61 1l2 4 q-114 114 -114 261q0 81 35 146t103 102.5t164 37.5q94 0 159 -36z" />
<glyph unicode="&#x212e;" horiz-adv-x="788" d="M588 605.5q84 -44.5 133.5 -120.5t49.5 -166v-7h-595q-7 0 -7 -5v-181q0 -10 10 -22q43 -44 102 -69.5t125 -25.5q71 0 134.5 28.5t108.5 78.5h45q-51 -59 -127 -93t-162 -34q-100 0 -184.5 44.5t-134 120t-49.5 165.5t49.5 166t134 120.5t184.5 44.5q99 0 183 -44.5z M282 605.5q-58 -24.5 -102 -69.5q-11 -9 -11 -24v-175q0 -6 7 -6h458q6 0 6 6v179q0 12 -11 23q-44 43 -101.5 67t-121.5 24q-66 0 -124 -24.5z" />
<glyph unicode="&#x215b;" horiz-adv-x="760" d="M594 634l-466 -726l-57 34l-6 14l468 730l54 -33zM196 397l4 -138h-108l4 126v149l-79 -18l-7 5v83l176 46l15 -11zM678.5 365q32.5 -26 32.5 -70q0 -53 -60 -88v-5q33 -16 51.5 -36.5t18.5 -54.5q0 -55 -41 -86t-111 -31q-64 0 -99.5 27t-35.5 72q0 62 76 91v4 q-65 33 -65 92q0 51 39.5 81t103.5 30q58 0 90.5 -26zM534 283q0 -19 14 -30.5t42 -23.5q37 25 37 54q0 18 -12.5 28.5t-33.5 10.5q-47 0 -47 -39zM522 107q0 -21 14.5 -33.5t41.5 -12.5t42 12t15 30q0 20 -16 31.5t-49 23.5q-48 -15 -48 -51z" />
<glyph unicode="&#x215c;" horiz-adv-x="798" d="M632 634l-466 -726l-57 34l-6 14l468 730l54 -33zM242.5 624.5q34.5 -25.5 34.5 -67.5q0 -59 -61 -91v-4q72 -21 72 -90q0 -53 -49 -86t-129 -33q-39 0 -76 8l-7 74l8 7q39 -11 77 -11q73 0 73 44q0 38 -50 38h-52l-5 7l1 69l31 1q24 1 41.5 14t17.5 33q0 31 -42 31 q-31 0 -78 -25h-11l-16 70q60 37 129 37q57 0 91.5 -25.5zM716.5 365q32.5 -26 32.5 -70q0 -53 -60 -88v-5q33 -16 51.5 -36.5t18.5 -54.5q0 -55 -41 -86t-111 -31q-64 0 -99.5 27t-35.5 72q0 62 76 91v4q-65 33 -65 92q0 51 39.5 81t103.5 30q58 0 90.5 -26zM572 283 q0 -19 14 -30.5t42 -23.5q37 25 37 54q0 18 -12.5 28.5t-33.5 10.5q-47 0 -47 -39zM560 107q0 -21 14.5 -33.5t41.5 -12.5t42 12t15 30q0 20 -16 31.5t-49 23.5q-48 -15 -48 -51z" />
<glyph unicode="&#x215d;" horiz-adv-x="780" d="M614 634l-466 -726l-57 34l-6 14l468 730l54 -33zM278 565l-7 -7l-65 7h-72l-1 -59l42 -10q57 -12 84 -38t27 -69q0 -62 -49 -99t-129 -37q-41 0 -81 8l-6 72l7 8q39 -11 80 -11q36 0 55.5 13t19.5 36q0 18 -13 28.5t-43 16.5l-70 12l-6 8l1 190l11 12l41 -1h106l72 3 l6 -6zM699.5 365q32.5 -26 32.5 -70q0 -53 -60 -88v-5q33 -16 51.5 -36.5t18.5 -54.5q0 -55 -41 -86t-111 -31q-64 0 -99.5 27t-35.5 72q0 62 76 91v4q-65 33 -65 92q0 51 39.5 81t103.5 30q58 0 90.5 -26zM555 283q0 -19 14 -30.5t42 -23.5q37 25 37 54q0 18 -12.5 28.5 t-33.5 10.5q-47 0 -47 -39zM543 107q0 -21 14.5 -33.5t41.5 -12.5t42 12t15 30q0 20 -16 31.5t-49 23.5q-48 -15 -48 -51z" />
<glyph unicode="&#x215e;" horiz-adv-x="757" d="M591 634l-466 -726l-57 34l-6 14l468 730l54 -33zM252 645l35 1v-75l-101 -213l-42 -106l-86 22l-6 16l131 270h-94l-67 -6l-6 9l8 84l83 -2h145zM675.5 365q32.5 -26 32.5 -70q0 -53 -60 -88v-5q33 -16 51.5 -36.5t18.5 -54.5q0 -55 -41 -86t-111 -31q-64 0 -99.5 27 t-35.5 72q0 62 76 91v4q-65 33 -65 92q0 51 39.5 81t103.5 30q58 0 90.5 -26zM531 283q0 -19 14 -30.5t42 -23.5q37 25 37 54q0 18 -12.5 28.5t-33.5 10.5q-47 0 -47 -39zM519 107q0 -21 14.5 -33.5t41.5 -12.5t42 12t15 30q0 20 -16 31.5t-49 23.5q-48 -15 -48 -51z" />
<glyph unicode="&#x2190;" horiz-adv-x="532" d="M24 226v20l197 203l72 -17v-17l-131 -138l334 6l8 -10l-5 -83l-338 6l132 -139v-17l-72 -17z" />
<glyph unicode="&#x2191;" horiz-adv-x="532" d="M256 480h20l203 -197l-17 -72h-17l-138 131l6 -334l-10 -8l-83 5l6 338l-139 -132h-17l-17 72z" />
<glyph unicode="&#x2192;" horiz-adv-x="532" d="M506 248v-20l-197 -203l-72 17v17l131 138l-334 -6l-8 10l5 83l338 -6l-132 139v17l72 17z" />
<glyph unicode="&#x2193;" horiz-adv-x="532" d="M276 -7h-20l-203 197l17 72h17l138 -131l-6 334l10 8l83 -5l-6 -338l139 132h17l17 -72z" />
<glyph unicode="&#x2196;" horiz-adv-x="532" d="M94.9277 401.825l14.1387 14.1396l282.788 4.24121l38.8838 -62.9199l-12.0186 -12.0186l-190.175 -4.94922l240.37 -231.886l-1.41406 -12.7256l-62.2139 -55.1436l-234.714 243.197l-4.94922 -191.589l-12.0186 -12.0186l-62.9199 38.8838z" />
<glyph unicode="&#x2197;" horiz-adv-x="532" d="M420.825 420.072l14.1396 -14.1387l4.24121 -282.788l-62.9199 -38.8838l-12.0186 12.0186l-4.94922 190.175l-231.886 -240.37l-12.7256 1.41406l-55.1436 62.2139l243.197 234.714l-191.589 4.94922l-12.0186 12.0186l38.8838 62.9199z" />
<glyph unicode="&#x2198;" horiz-adv-x="532" d="M434.072 67.1748l-14.1387 -14.1396l-282.788 -4.24121l-38.8838 62.9199l12.0186 12.0186l190.175 4.94922l-240.37 231.886l1.41406 12.7256l62.2139 55.1436l234.714 -243.197l4.94922 191.589l12.0186 12.0186l62.9199 -38.8838z" />
<glyph unicode="&#x2199;" horiz-adv-x="532" d="M111.175 55.9277l-14.1396 14.1387l-4.24121 282.788l62.9199 38.8838l12.0186 -12.0186l4.94922 -190.175l231.886 240.37l12.7256 -1.41406l55.1436 -62.2139l-243.197 -234.714l191.589 -4.94922l12.0186 -12.0186l-38.8838 -62.9199z" />
<glyph unicode="&#x2202;" horiz-adv-x="519" d="M406 531q87 -114 87 -266q0 -128 -63.5 -201.5t-177.5 -73.5q-109 0 -167 62.5t-58 160.5q0 61 23.5 111.5t69 80t108.5 29.5q49 -1 101 -32l10 9q-62 152 -287 228v12l94 67h9q164 -73 251 -187zM366 257q0 26 -1 38q-55 40 -106 40q-107 0 -107 -123q0 -62 26.5 -95 t77.5 -33q110 0 110 173z" />
<glyph unicode="&#x2206;" horiz-adv-x="600" d="M8 0l217 644h162l197 -644h-576zM163 104h262l-117 413h-9z" />
<glyph unicode="&#x220f;" horiz-adv-x="695" d="M586 204l5 -204h-136l8 192l-6 346h-224l-5 -334l5 -204h-136l7 192l-5 344l-51 -2l-9 11l9 99h600l9 -11l-9 -99l-57 2z" />
<glyph unicode="&#x2211;" horiz-adv-x="515" d="M482 535l-104 6h-184l183 -207v-21l-184 -211h176l117 8l9 -11l-9 -100l-364 1l-92 -2v95l200 231l-198 219v101l450 1l8 -11z" />
<glyph unicode="&#x2212;" horiz-adv-x="480" d="M450 215h-418l-9 9l7 81h418l9 -9z" />
<glyph unicode="&#x2215;" horiz-adv-x="284" d="M99 -115h-92l-8 11l206 784h90l11 -12z" />
<glyph unicode="&#x2219;" horiz-adv-x="277" d="M202 311.5q22 -22.5 22 -61.5q0 -43 -24 -67.5t-65 -24.5q-40 0 -62 22t-22 63q0 42 24 66.5t66 24.5q39 0 61 -22.5z" />
<glyph unicode="&#x221a;" horiz-adv-x="503" d="M168 0l-101 373h-92l-5 6l4 86h180l5 -6l88 -343h9l190 585l11 9h89l-235 -710h-143z" />
<glyph unicode="&#x221e;" horiz-adv-x="480" d="M453 371q35 -42 35 -111q0 -71 -35.5 -110t-92.5 -39q-37 0 -64.5 19t-50.5 57q-43 -76 -124 -76q-62 0 -96.5 41t-34.5 110q0 71 34.5 111t93.5 40q38 0 65 -19t51 -55q43 74 123 74q61 0 96 -42zM80 312.5q-16 -17.5 -16 -49.5q0 -31 15.5 -48.5t41.5 -17.5q28 0 46 20 t34 57q-31 56 -76 56q-29 0 -45 -17.5zM309 307q-17 -20 -32 -56q16 -29 33.5 -44t43.5 -15q27 0 43 17.5t16 50.5q0 31 -15 49t-42 18q-30 0 -47 -20z" />
<glyph unicode="&#x222b;" horiz-adv-x="295" d="M357 703l-8 -94l-10 -6q-44 18 -76 18q-59 0 -60 -64l2 -503q1 -72 -27.5 -118t-100.5 -89l-57 56v11q37 30 52.5 60t14.5 76l-5 486q0 84 51 130t144 46q40 0 80 -9z" />
<glyph unicode="&#x2248;" horiz-adv-x="480" d="M132.5 319q-13.5 -12 -43.5 -44h-13l-35 44v12l82 93l12 5q22 -3 103 -27q90 -26 105 -26q11 0 23.5 9.5t34.5 31.5l14 15h12l35 -43v-12l-82 -93l-12 -5q-29 4 -108 28q-84 24 -99 24t-28.5 -12zM132.5 132q-13.5 -12 -43.5 -44h-13l-35 44v12l82 93l12 5q22 -3 103 -27 q90 -26 105 -26q11 0 23.5 9.5t34.5 31.5l14 15h12l35 -43v-12l-82 -93l-12 -5q-29 4 -108 28q-84 24 -99 24t-28.5 -12z" />
<glyph unicode="&#x2260;" horiz-adv-x="480" d="M457 201l-7 -81h-203l-34 -142h-83l-7 10l31 132h-122l-9 9l7 81h145l23 99h-166l-9 9l7 81h189l33 140h82l9 -10l-31 -130h136l9 -9l-7 -81h-159l-23 -99h180z" />
<glyph unicode="&#x2264;" horiz-adv-x="480" d="M439 385l-311 -118v-7l312 -114l-19 -74l-12 -9l-375 143v108l9 12l373 145l29 -76zM450 -116h-418l-9 9l7 81h418l9 -9z" />
<glyph unicode="&#x2265;" horiz-adv-x="480" d="M446 314v-108l-375 -143l-12 9l-19 74l312 114v7l-311 118l-6 10l29 76l373 -145zM450 -116h-418l-9 9l7 81h418l9 -9z" />
<glyph unicode="&#x25ca;" horiz-adv-x="513" d="M470 300l-1 -38l-156 -345l-101 -4l-11 6l-156 341v36l156 346l103 5l9 -5zM132 275l124 -265h6l120 271l-125 270h-6z" />
<glyph unicode="&#x25fc;" horiz-adv-x="470" d="M0 470h470v-470h-470v470z" />
<glyph unicode="&#xf6d7;" d="M319 757l-7 -12q-145 -27 -225 -38l-12 5l-11 59q128 38 223 75l12 -6zM153 644.5q15 -15.5 15 -44.5t-17 -47t-46 -18q-59 0 -59 61q0 29 17 46.5t47 17.5q28 0 43 -15.5zM327 644.5q15 -15.5 15 -44.5t-17 -47t-46 -18q-59 0 -59 61q0 29 17 46.5t47 17.5 q28 0 43 -15.5z" />
<glyph unicode="&#xf6d8;" d="M319 771l-12 -59l-12 -5q-83 11 -225 38l-6 12l19 83l12 6q97 -38 224 -75zM153 644.5q15 -15.5 15 -44.5t-17 -47t-46 -18q-59 0 -59 61q0 29 17 46.5t47 17.5q28 0 43 -15.5zM327 644.5q15 -15.5 15 -44.5t-17 -47t-46 -18q-59 0 -59 61q0 29 17 46.5t47 17.5 q28 0 43 -15.5z" />
<glyph horiz-adv-x="630" d="M214 0h-136l7 192l-7 452h138l-8 -440zM296 807l-4 -12q-92 -36 -215 -78l-13 4l-22 55q121 61 208 113l12 -3zM548 121q0 -57 -19 -97t-61.5 -71t-116.5 -59l-41 72v12q62 32 87.5 63.5t25.5 81.5v76l-6 345l-106 -3l-10 10l7 93h245l-7 -432zM592 807l-4 -12 q-92 -36 -215 -78l-13 4l-22 55q121 61 208 113l12 -3z" />
<glyph horiz-adv-x="649" d="M596 -185l-10 -5q-154 88 -255 180h-19q-136 0 -210 84.5t-74 239.5q0 163 79.5 251t225.5 88q136 0 209.5 -82.5t73.5 -236.5q0 -116 -42 -197t-120 -118q93 -60 201 -101l6 -14q-30 -58 -65 -89zM205 149.5q36 -54.5 118 -54.5q79 0 115 51t36 166q0 124 -36 177.5 t-118 53.5q-80 0 -115.5 -50t-35.5 -164q0 -125 36 -179.5z" />
<glyph horiz-adv-x="454" d="M195 369.5q-29 -34.5 -29 -108.5q0 -159 123 -159q60 0 115 30l11 -6l-8 -77h147v-49h-654v49h219q-80 62 -80 200q0 143 89 207h-228v49h654v-49h-133l-16 -81l-11 -5q-47 34 -111 34q-59 0 -88 -34.5z" />
<glyph horiz-adv-x="570" d="M449 456q80 -58 80 -186q0 -152 -93 -221h234v-49h-770v49h182l4 103l-4 304h-182v49h770v-49h-221zM287 94q116 0 116 148q0 86 -28 123t-90 37q-41 0 -83 -3l-5 -235l2 -63q51 -7 88 -7z" />
<glyph horiz-adv-x="279" d="M198 49h181v-49h-479v49h175l3 101l-4 306h-174v49h479v-49h-179l-6 -294z" />
<glyph horiz-adv-x="400" d="M191 164l1 -57h172l7 -10l-4 -48h133v-49h-600v49h174l4 103l-5 304h-173v49h600v-49h-303z" />
<glyph horiz-adv-x="686" d="M617 49h169v-49h-886v49h163l43 407h-206v49h886v-49h-206zM258 456l9 -29l70 -185h8l74 183l11 31h-172zM508 171l-14 155h-8l-106 -238h-92l-96 238h-7l-16 -146l-7 -131h351z" />
<glyph horiz-adv-x="519" d="M343 49h276v-49h-719v49h270l-128 407h-142v49h719v-49h-135zM159 456l6 -31l90 -306h7l104 299l7 38h-214z" />
<glyph horiz-adv-x="536" d="M484 49h152v-49h-736v49h161l139 200l-139 207h-161v49h736v-49h-164l-129 -190zM275 335l74 103l9 18h-164l11 -22zM266 178l-83 -109l-10 -20h179l-12 25z" />
<glyph horiz-adv-x="254" d="M180.5 675q17.5 -18 17.5 -50q0 -34 -19 -54t-52 -20t-50.5 18t-17.5 51t19.5 53t53.5 20q31 0 48.5 -18zM193 0h-133l7 192l-6 264l133 11l-8 -262z" />
<glyph horiz-adv-x="668" d="M466 635.5q61 -16.5 133 -50.5l6 -20l-144 -188q70 -34 108.5 -59.5t59 -59t20.5 -80.5q0 -60 -29.5 -102t-79 -63.5t-110.5 -21.5q-94 0 -176 41l19 126l15 8q37 -33 77.5 -52t73.5 -19q34 0 55 19t21 49q0 38 -47 71t-165 80l-5 21l139 185q-56 23 -107 23 q-136 0 -136 -128l-3 -210l6 -205h-137l8 190l-4 225q-1 108 71.5 172.5t203.5 64.5q66 0 127 -16.5z" />
<glyph horiz-adv-x="323" d="M221 205l7 -205h-133l8 193l-2 188h-70l-5 7l7 73h67l-1 41q-1 90 51.5 139t148.5 49q39 0 81 -9l-8 -95l-9 -6q-43 17 -75 17q-61 0 -62 -71l-1 -65h240l4 -7l-6 -73h-239z" />
<glyph horiz-adv-x="539" d="M193 0h-133l7 192l-6 264l133 11l-8 -262zM274 651l-2 -13q-22 -14 -33 -20q-125 -77 -162 -98l-13 1l-32 50q116 93 181 153l13 -1zM466 205l6 -178q0 -79 -38 -131t-125 -91l-46 59v12q45 25 64 59t19 88l2 169l-4 189h-81l-8 8l7 72h84l124 7l4 -3zM539 651l-2 -13 q-22 -14 -33 -20q-125 -77 -162 -98l-13 1l-32 50q116 93 181 153l13 -1z" />
<glyph horiz-adv-x="349" d="M475 685l-27 -96l-10 -6q-73 33 -130 33q-81 0 -82 -83l-1 -72h113l4 -7l-6 -73h-112l-3 -177l7 -204h-133l8 192l-3 189h-69l-5 7l7 73h66l-1 52q0 96 56 146.5t160 50.5q76 0 161 -25z" />
<glyph horiz-adv-x="340" d="M262.5 628q30.5 -24 30.5 -68l-3 -77q-3 -42 -3 -62q0 -22 13 -22q11 0 16 4l7 -6l-10 -55q-23 -17 -50 -17q-25 0 -38 11t-20 37h-4q-30 -36 -72 -49q-48 1 -76 27t-28 71q0 69 73 81l99 16l1 21q0 40 -40 40q-37 0 -96 -34l-7 3l-11 67q64 36 132 36q56 0 86.5 -24z M118 431q0 -36 33 -36q23 0 45 24l1 52l-54 -10q-25 -5 -25 -30z" />
<glyph horiz-adv-x="363" d="M307 607.5q32 -40.5 32 -112.5q0 -83 -42 -127.5t-116 -44.5q-43 0 -85 15l-46 -14l-9 10l4 125l-4 337l104 6l-4 -203h3q34 40 73 49q58 0 90 -40.5zM243 482q0 85 -58 85q-23 0 -45 -18l-1 -77l1 -77q20 -6 34 -6q69 0 69 93z" />
<glyph horiz-adv-x="265" d="M261 633l-18 -79l-8 -4q-33 18 -57 18q-57 0 -57 -75q0 -88 63 -88q27 0 64 14l8 -6l-11 -76q-40 -14 -86 -14q-64 0 -100 42.5t-36 117.5q0 80 41 124.5t114 44.5q43 0 83 -19z" />
<glyph horiz-adv-x="367" d="M332 399q9 0 15 4l8 -6l-11 -55q-24 -17 -57 -17q-23 0 -36.5 10t-21.5 36h-4q-33 -38 -69 -45q-61 0 -97 42t-36 114q0 82 43 125.5t119 43.5q13 0 36 -5l-2 150l103 6l-4 -382q0 -21 14 -21zM134.5 560.5q-15.5 -19.5 -15.5 -65.5q0 -93 55 -93q25 0 50 25l-3 148 q-20 5 -38 5q-33 0 -48.5 -19.5z" />
<glyph horiz-adv-x="328" d="M274.5 617q34.5 -34 34.5 -96q0 -22 -3 -40l-7 -11h-179q4 -36 21.5 -53.5t53.5 -17.5q47 0 97 20l7 -6l-10 -72q-51 -18 -104 -18q-77 0 -119.5 43.5t-42.5 120.5t41 120.5t113 43.5q63 0 97.5 -34zM220 534q0 23 -12.5 36t-33.5 13q-46 0 -54 -64l99 1z" />
<glyph horiz-adv-x="212" d="M277 798l-6 -75l-8 -6q-31 14 -56 14q-38 0 -38 -41v-48h73l3 -5l-4 -56h-73l-1 -112l4 -139h-103l5 128l-2 123h-46l-3 6l4 55h44v30q0 64 38.5 98t109.5 34q28 0 59 -6z" />
<glyph horiz-adv-x="346" d="M310 589l-1 -1q11 -20 11 -43q0 -52 -38 -81.5t-104 -29.5q-22 0 -40 3q-8 -8 -8 -15q0 -11 15 -15t49 -8q42 -4 69 -10.5t47.5 -24.5t20.5 -52q0 -50 -43.5 -81.5t-115.5 -31.5q-64 0 -99 24t-35 63q11 25 55 51v3q-48 19 -48 65q16 19 49 42v4q-53 28 -53 89 q0 52 37.5 81.5t103.5 29.5q41 0 72 -14q42 8 96 30l8 -6v-65q-26 -6 -48 -7zM229 542q0 45 -48 45q-49 0 -49 -45q0 -48 48 -48q49 0 49 48zM224 316q-18 6 -57 10l-23 3q-23 -17 -23 -35t15.5 -28t44.5 -10q28 0 44.5 10t16.5 28q0 16 -18 22z" />
<glyph horiz-adv-x="366" d="M232 517q0 49 -42 49q-23 0 -48 -18l-1 -79l4 -139h-104l5 129l-4 337l103 6l-2 -204h2q43 43 84 49q48 0 74 -22.5t25 -65.5l-3 -90l4 -139h-103z" />
<glyph horiz-adv-x="183" d="M146 752q0 -26 -14.5 -41t-39.5 -15q-50 0 -50 53q0 25 15 40.5t40 15.5q49 0 49 -53zM145 330h-104l6 129l-4 179l102 8l-4 -177z" />
<glyph horiz-adv-x="207" d="M132 791q13 -14 13 -39t-14.5 -40.5t-38.5 -15.5q-52 0 -52 53q0 25 15 40.5t40 15.5q24 0 37 -14zM146 469l4 -119q0 -53 -25 -89t-80 -62l-35 46v9q43 30 43 93v112l-1 106l-42 -2l-5 7l5 72h43l96 5l2 -2z" />
<glyph horiz-adv-x="342" d="M339 348l-1 -11q-24 -5 -96 -14l-11 5q-57 91 -91 165v-24l5 -139h-104l5 129l-4 337l103 6l-5 -300l71 108l15 35h106l-93 -141q26 -47 100 -156z" />
<glyph horiz-adv-x="183" d="M144 330h-103l5 129l-4 337l102 6l-4 -333z" />
<glyph horiz-adv-x="555" d="M421 518q0 50 -42 50q-22 0 -49 -19l-3 -80l4 -139h-102l5 188q0 50 -43 50q-25 0 -52 -21v-78l4 -139h-102l5 129l-4 179l97 8v-48h5q42 42 86 49q74 0 94 -50h3q41 43 91 50q48 0 74 -22.5t25 -65.5l-1 -90l2 -139h-102z" />
<glyph horiz-adv-x="366" d="M231 517q0 49 -42 49q-23 0 -48 -18v-79l4 -139h-104l5 129l-4 179l99 8v-48h4q41 42 85 49q48 0 73.5 -22.5t24.5 -65.5l-2 -90l3 -139h-104z" />
<glyph horiz-adv-x="347" d="M287 611.5q37 -40.5 37 -118.5q0 -83 -40 -126.5t-116 -43.5q-71 0 -108 40.5t-37 118.5q0 83 40 126.5t116 43.5q71 0 108 -40.5zM133 561q-12 -20 -12 -68q0 -56 12.5 -78.5t41.5 -22.5t41 20t12 69q0 55 -12.5 77.5t-42.5 22.5q-28 0 -40 -20z" />
<glyph horiz-adv-x="370" d="M306 608q32 -40 32 -112q0 -84 -42 -128.5t-116 -44.5q-20 0 -39 3l1 -120h-101l3 253l-3 179l98 8v-47h4q34 41 73 49q58 0 90 -40zM241 482q0 84 -57 84q-25 0 -45 -17v-80l1 -74q18 -6 33 -6q68 0 68 93z" />
<glyph horiz-adv-x="356" d="M319 646l-3 -180l2 -260h-101l5 145v14h-5q-32 -34 -62 -39q-62 0 -97 42t-35 114q0 81 42.5 125t114.5 44q32 0 83 -15l49 16zM134 560.5q-15 -19.5 -15 -65.5q0 -93 53 -93q25 0 49 24v147q-16 7 -40 7q-32 0 -47 -19.5z" />
<glyph horiz-adv-x="243" d="M239 644v-90l-11 -4q-12 3 -22 3q-36 0 -66 -37v-47l5 -139h-104l5 129l-4 179l98 8v-63h5q29 62 78 62q9 0 16 -1z" />
<glyph horiz-adv-x="274" d="M243 635l-13 -73l-12 -4q-46 27 -76 27t-30 -25q0 -11 12 -19t36 -17q42 -17 65.5 -36.5t23.5 -59.5q0 -44 -32.5 -75t-95.5 -31q-48 0 -105 20l12 77l9 7q23 -18 49 -28t45 -10q15 0 23.5 7t8.5 17q0 12 -11.5 20t-37.5 18q-43 18 -66 37.5t-23 58.5q0 46 35 75.5 t94 29.5q43 0 89 -16z" />
<glyph horiz-adv-x="232" d="M218 414l7 -8l-9 -57q-37 -19 -65 -22q-48 0 -74.5 23t-25.5 63l1 70v98h-40l-4 6l5 55h39v66l96 21l6 -6l-2 -81h72l3 -5l-5 -56h-72l-3 -129q0 -46 36 -46q16 0 35 8z" />
<glyph horiz-adv-x="362" d="M328 399q10 0 16 4l7 -6l-10 -55q-23 -17 -52 -17q-25 0 -40 12t-24 41h-4q-41 -45 -83 -50q-47 0 -72.5 22.5t-25.5 65.5l1 67l-3 155l98 8v-190q0 -47 37 -47q27 0 49 22v207l98 8l-5 -225q0 -22 13 -22z" />
<glyph horiz-adv-x="303" d="M153 428h6l47 157l12 60h89l-100 -315h-112l-86 313l97 4l8 -56z" />
<glyph horiz-adv-x="479" d="M144 435h5l39 153l11 57h102l7 -51l33 -157h6l38 151l11 57h88l-96 -315h-99l-41 185h-8l-48 -185h-103l-80 313l95 4l7 -53z" />
<glyph horiz-adv-x="319" d="M167 547l37 63l17 34h90l-89 -155l90 -155l-109 -8l-16 43l-35 62l-40 -67l-15 -34h-91l88 158l-87 154l111 5l14 -40z" />
<glyph horiz-adv-x="296" d="M147 433h6l47 152l12 60h88l-99 -289q-22 -66 -57.5 -98.5t-109.5 -56.5h-8q-28 29 -44 62l3 10q73 12 119 57l-116 313l99 4l10 -53z" />
<glyph horiz-adv-x="300" d="M236 645l38 1v-62l-143 -190h87l57 4l5 -7l-6 -62l-83 1h-122l-48 -2v61l144 193h-82l-56 -4l-5 8l6 60l69 -1h139z" />
<glyph horiz-adv-x="328" d="M221 205l7 -205h-133l8 193l-2 188h-70l-5 7l7 73h67l-1 41q-1 90 50.5 139t146.5 49q34 0 74 -8l-8 -95l-9 -6q-37 16 -69 16q-57 0 -58 -71l-1 -65h239l4 -7l-6 -73h-238z" />
<glyph horiz-adv-x="279" />
<glyph horiz-adv-x="315" />
<glyph horiz-adv-x="477" />
<glyph horiz-adv-x="521" d="M425.5 518q54.5 -76 54.5 -217q0 -150 -58.5 -230t-168.5 -80q-103 0 -158 75.5t-55 217.5q0 149 59.5 229.5t169.5 80.5q102 0 156.5 -76zM143 293q0 -185 117 -185t117 178q0 183 -118 183q-116 0 -116 -176z" />
<glyph horiz-adv-x="374" d="M264 208l6 -208h-134l6 194l-1 248l-126 -29l-9 7v106l246 68l20 -14z" />
<glyph horiz-adv-x="498" d="M371 556.5q46 -37.5 46 -101.5q0 -45 -27.5 -99t-90.5 -133l-87 -114l2 -4h155l96 8l7 -10l-15 -109l-127 6h-243l-39 -2l-7 5v82l140 165q57 70 81 106.5t24 66.5q0 25 -17 41.5t-49 16.5q-33 0 -70.5 -19.5t-70.5 -54.5h-14l-23 104q105 83 211 83q72 0 118 -37.5z" />
<glyph horiz-adv-x="440" d="M332 558.5q48 -37.5 48 -99.5q0 -40 -22.5 -78t-71.5 -65v-4q110 -31 110 -133q0 -55 -31 -97.5t-88 -66t-131 -23.5q-54 0 -107 10l-8 104l9 8q57 -21 111 -21q55 0 86.5 22t31.5 61q0 68 -91 71h-70l-7 8l3 92l44 1q38 1 67.5 24t29.5 59q0 28 -18 42.5t-50 14.5 q-51 0 -118 -47h-14l-20 97q83 58 180 58q79 0 127 -37.5z" />
<glyph horiz-adv-x="504" d="M385 141l5 -131l-7 -10l-103 -7l-7 9l3 140h-159l-87 -2l-8 11v85l242 350h123l-3 -342h81l8 -11l-6 -93zM278 244l-1 192h-8l-133 -192h142z" />
<glyph horiz-adv-x="438" d="M386 480l-9 -9l-92 10h-115l-3 -110l62 -13q88 -18 126.5 -57t38.5 -103q0 -62 -32 -109t-89.5 -72.5t-132.5 -25.5q-51 0 -111 12l-8 103l10 10q60 -23 119 -23q55 0 86.5 23.5t31.5 64.5q0 33 -23 52.5t-75 29.5l-96 17l-9 10l2 283l16 16l58 -3h146l104 6l8 -9z" />
<glyph horiz-adv-x="481" d="M405 311.5q44 -49.5 44 -124.5q0 -54 -24.5 -99t-72.5 -71.5t-115 -26.5q-99 0 -152 59.5t-53 165.5q0 122 76 221t215 160h7l92 -59v-13q-106 -40 -164.5 -82t-82.5 -100l7 -9q45 28 101 28q78 0 122 -49.5zM307 101.5q23 24.5 23 69.5q0 97 -86 97q-44 0 -91 -30v-21 q0 -71 20.5 -105.5t69.5 -34.5q41 0 64 24.5z" />
<glyph horiz-adv-x="426" d="M350 586l49 1v-96l-158 -353l-57 -149l-107 30l-8 20l201 437h-156l-91 -8l-7 11l9 110l111 -3h214z" />
<glyph horiz-adv-x="493" d="M384.5 556q45.5 -39 45.5 -107q0 -84 -94 -135v-7q52 -24 81.5 -56t29.5 -85q0 -81 -58.5 -128t-155.5 -47q-91 0 -141.5 42t-50.5 109q0 96 116 142v6q-45 23 -71 56t-26 84q0 76 54 120.5t144 44.5q81 0 126.5 -39zM190 484.5q-21 -18.5 -21 -50.5q0 -33 23 -52.5 t66 -36.5q32 18 50 38t18 51q0 32 -20.5 50.5t-56.5 18.5q-38 0 -59 -18.5zM173.5 215q-21.5 -20 -21.5 -56t24.5 -57.5t67.5 -21.5q44 0 68.5 21.5t24.5 54.5q0 34 -25 53.5t-77 40.5q-40 -15 -61.5 -35z" />
<glyph horiz-adv-x="480" d="M399 537q53 -59 53 -165q0 -122 -76 -221.5t-215 -159.5h-7l-91 59v13q105 39 163.5 81.5t82.5 100.5l-7 8q-48 -28 -101 -28q-77 0 -121.5 49.5t-44.5 124.5q0 54 24.5 99t72.5 71.5t115 26.5q99 0 152 -59zM331 349v21q0 71 -20.5 105t-69.5 34q-41 0 -63.5 -24 t-22.5 -70q0 -96 85 -96q44 0 91 30z" />
<glyph horiz-adv-x="375" d="M305 221.5q38 -49.5 38 -141.5q0 -100 -41.5 -153t-120.5 -53q-73 0 -111.5 49.5t-38.5 141.5q0 100 42.5 153t121.5 53q72 0 110 -49.5zM132 150.5q-17 -24.5 -17 -77.5q0 -57 17.5 -84t54.5 -27q73 0 73 105q0 56 -18 82t-56 26q-37 0 -54 -24.5z" />
<glyph horiz-adv-x="276" d="M196 18l4 -138h-108l4 126v149l-79 -18l-7 5v83l176 46l15 -11z" />
<glyph horiz-adv-x="361" d="M270 245q34 -25 34 -69q0 -29 -19 -63t-62 -86l-51 -64l2 -2h91l67 4l5 -7l-11 -82l-94 4h-167l-26 -1l-6 3v62l94 102q39 45 54.5 66.5t15.5 39.5q0 14 -10.5 23.5t-29.5 9.5q-21 0 -46.5 -12.5t-47.5 -33.5h-12l-18 79q77 52 151 52q52 0 86 -25z" />
<glyph horiz-adv-x="321" d="M242.5 245.5q34.5 -25.5 34.5 -67.5q0 -59 -61 -91v-4q72 -21 72 -90q0 -53 -49 -86t-129 -33q-39 0 -76 8l-7 74l8 7q39 -11 77 -11q73 0 73 44q0 38 -50 38h-52l-5 7l1 69l31 1q24 1 41.5 14t17.5 33q0 31 -42 31q-31 0 -78 -25h-11l-16 70q60 37 129 37 q57 0 91.5 -25.5z" />
<glyph horiz-adv-x="367" d="M282 -34l5 -79l-6 -7l-83 -4l-6 5l2 86h-101l-66 -3l-7 9v65l165 228h98l-3 -221h54l6 -9l-5 -72zM196 45l-1 108h-6l-77 -108h84z" />
<glyph horiz-adv-x="320" d="M278 186l-7 -7l-65 7h-72l-1 -59l42 -10q57 -12 84 -38t27 -69q0 -62 -49 -99t-129 -37q-41 0 -81 8l-6 72l7 8q39 -11 80 -11q36 0 55.5 13t19.5 36q0 18 -13 28.5t-43 16.5l-70 12l-6 8l1 190l11 12l41 -1h106l72 3l6 -6z" />
<glyph horiz-adv-x="350" d="M292.5 87.5q30.5 -33.5 30.5 -81.5q0 -56 -38.5 -94t-110.5 -38q-69 0 -108 39.5t-39 108.5q0 79 51.5 143.5t145.5 106.5h6l67 -45v-10q-66 -25 -102 -49t-53 -56l5 -6q30 15 60 15q55 0 85.5 -33.5zM227 -4q0 54 -51 54q-24 0 -52 -13v-13q0 -43 11.5 -64t40.5 -21 q51 0 51 57z" />
<glyph horiz-adv-x="311" d="M252 266l35 1v-75l-101 -213l-42 -106l-86 22l-6 16l131 270h-94l-67 -6l-6 9l8 84l83 -2h145z" />
<glyph horiz-adv-x="360" d="M279.5 245q32.5 -26 32.5 -70q0 -53 -60 -88v-5q33 -16 51.5 -36.5t18.5 -54.5q0 -55 -41 -86t-111 -31q-64 0 -99.5 27t-35.5 72q0 62 76 91v4q-65 33 -65 92q0 51 39.5 81t103.5 30q58 0 90.5 -26zM135 163q0 -19 14 -30.5t42 -23.5q37 25 37 54q0 18 -12.5 28.5 t-33.5 10.5q-47 0 -47 -39zM123 -13q0 -21 14.5 -33.5t41.5 -12.5t42 12t15 30q0 20 -16 31.5t-49 23.5q-48 -15 -48 -51z" />
<glyph horiz-adv-x="351" d="M286 233q39 -40 39 -111q0 -78 -52 -142.5t-146 -105.5h-6l-66 44v10q65 24 101.5 48.5t53.5 56.5l-5 6q-28 -14 -61 -14q-53 0 -84.5 33.5t-31.5 81.5q0 55 39 94t111 39q69 0 108 -40zM228 110v11q0 44 -11.5 65t-40.5 21q-52 0 -52 -57q0 -54 52 -54q27 0 52 14z" />
<glyph horiz-adv-x="475" d="M394.5 518q51.5 -76 51.5 -217q0 -149 -56 -229.5t-160 -80.5q-97 0 -149 75.5t-52 217.5q0 149 56 229.5t161 80.5q97 0 148.5 -76zM131 293q0 -185 106 -185t106 178q0 183 -107 183q-105 0 -105 -176z" />
<glyph horiz-adv-x="475" d="M317 208l6 -208h-135l7 194l-1 248l-154 -29l-9 7v106l274 68l19 -14z" />
<glyph horiz-adv-x="475" d="M357.5 556.5q45.5 -37.5 45.5 -101.5q0 -45 -27 -98.5t-88 -133.5l-82 -114l3 -4h145l93 7l7 -11l-15 -107l-124 6h-235l-38 -2l-7 5v82l135 165q56 72 78.5 107.5t22.5 65.5q0 25 -16 41.5t-46 16.5q-32 0 -68 -20t-67 -54h-15l-22 104q102 83 205 83q70 0 115.5 -37.5z " />
<glyph horiz-adv-x="475" d="M351.5 558q49.5 -38 49.5 -99q0 -40 -23.5 -78t-73.5 -65v-4q115 -32 115 -133q0 -55 -32.5 -97.5t-90.5 -66t-134 -23.5q-56 0 -111 10l-8 104l9 8q60 -21 114 -21q59 0 92 22t33 61q0 68 -97 71h-72l-7 8l3 92l45 1q41 1 72 24t31 59q0 28 -19 42.5t-53 14.5 q-53 0 -123 -47h-13l-21 97q86 58 185 58q80 0 129.5 -38z" />
<glyph horiz-adv-x="475" d="M367 141l6 -131l-7 -10l-104 -7l-7 9l3 140h-149l-85 -2l-9 11v85l232 350h121l-3 -342h78l8 -11l-7 -93zM260 244l-1 192h-8l-122 -192h131z" />
<glyph horiz-adv-x="475" d="M414 482l-10 -9l-87 10h-133l-4 -111l66 -13q90 -20 133 -59t43 -103q0 -62 -33 -108.5t-93.5 -72t-139.5 -25.5q-54 0 -114 12l-9 95l10 9q60 -15 113 -15q65 0 102.5 24.5t37.5 67.5q0 31 -26 50.5t-82 29.5l-100 18l-9 10l2 281l15 16l61 -3h160l101 6l8 -9z" />
<glyph horiz-adv-x="475" d="M399.5 311.5q43.5 -49.5 43.5 -124.5q0 -54 -24 -99t-71.5 -71.5t-114.5 -26.5q-97 0 -149.5 59.5t-52.5 165.5q0 122 75 221t212 160h7l91 -59v-13q-105 -40 -162.5 -82t-81.5 -100l8 -9q45 28 99 28q77 0 120.5 -49.5zM301.5 101.5q22.5 24.5 22.5 69.5q0 97 -84 97 q-44 0 -89 -31v-20q0 -71 20 -105.5t68 -34.5q40 0 62.5 24.5z" />
<glyph horiz-adv-x="475" d="M384 586l52 1v-96l-176 -353l-59 -149l-107 30l-8 20l221 437h-177l-94 -8l-8 11l9 110l115 -3h232z" />
<glyph horiz-adv-x="475" d="M373 556q45 -39 45 -107q0 -85 -91 -135v-7q51 -24 79 -56t28 -85q0 -81 -57 -128t-153 -47q-89 0 -138.5 42t-49.5 109q0 96 112 142v6q-44 23 -68.5 55.5t-24.5 84.5q0 76 53 120.5t141 44.5q79 0 124 -39zM183.5 484.5q-20.5 -18.5 -20.5 -50.5q0 -33 22 -52.5 t63 -36.5q31 17 48 37.5t17 51.5q0 32 -19.5 50.5t-53.5 18.5q-36 0 -56.5 -18.5zM166.5 215q-20.5 -20 -20.5 -56t24 -57.5t66 -21.5t65.5 21.5t23.5 54.5q0 34 -24.5 53.5t-74.5 40.5q-39 -15 -59.5 -35z" />
<glyph horiz-adv-x="475" d="M393.5 537q52.5 -59 52.5 -165q0 -123 -75 -222t-212 -159h-7l-92 59v13q104 39 162 81t82 100l-8 9q-48 -28 -98 -28q-77 0 -121 49.5t-44 124.5q0 54 24 99t71.5 71.5t114.5 26.5q98 0 150.5 -59zM326 350v20q0 71 -20 105t-69 34q-40 0 -62 -24t-22 -70q0 -96 84 -96 q44 0 89 31z" />
<glyph horiz-adv-x="475" d="M394.5 447q52.5 -66 52.5 -187q0 -128 -57 -198.5t-160 -70.5q-96 0 -149 66t-53 185q0 129 57.5 200t161.5 71q95 0 147.5 -66zM157 356.5q-26 -33.5 -26 -105.5q0 -73 26 -108t81 -35q107 0 107 137q0 145 -108 145q-54 0 -80 -33.5z" />
<glyph horiz-adv-x="475" d="M314 208l5 -208h-133l5 194v166l-144 -30l-11 7v107l265 67l19 -14z" />
<glyph horiz-adv-x="475" d="M356 478.5q44 -32.5 44 -89.5q0 -80 -112 -200l-75 -83l3 -4h134l90 8l8 -9l-16 -107l-121 6h-227l-36 -2l-7 5v81l134 133q93 93 93 137q0 20 -14.5 32t-41.5 12q-31 0 -66.5 -16t-65.5 -43h-15l-22 103q101 69 200 69q69 0 113 -32.5z" />
<glyph horiz-adv-x="475" d="M357 475q51 -38 51 -100q0 -40 -25.5 -79t-77.5 -65v-5q119 -34 119 -140q0 -53 -33.5 -94.5t-93.5 -64t-139 -22.5q-56 0 -114 10l-7 98l9 8q62 -15 116 -15q64 0 99.5 22t35.5 62q0 68 -104 71h-74l-7 9l4 91l48 2q41 1 74.5 24.5t33.5 59.5q0 28 -20 42.5t-57 14.5 q-56 0 -127 -43h-14l-19 93q89 59 189 59q82 0 133 -38z" />
<glyph horiz-adv-x="475" d="M370 55l5 -135l-8 -9l-103 -7l-7 8l3 144h-151l-86 -3l-8 12v84l234 357h122l-3 -348h79l7 -12l-6 -93zM262 158l-1 197h-8l-124 -197h133z" />
<glyph horiz-adv-x="475" d="M417 402l-10 -10l-88 10h-135l-4 -114l67 -13q90 -19 133 -58t43 -104q0 -62 -34 -110t-96 -74t-143 -26q-51 0 -113 12l-7 95l9 10q60 -15 114 -15q66 0 105 25.5t39 68.5q0 32 -26.5 51t-83.5 30l-101 18l-10 10l6 285l16 15l61 -2h161l103 5l8 -8z" />
<glyph horiz-adv-x="475" d="M400 311.5q44 -49.5 44 -123.5q0 -55 -23.5 -100t-70.5 -71.5t-115 -26.5q-96 0 -150 60t-54 165q0 122 75 221t213 160h7l82 -59v-13q-101 -40 -156.5 -82t-78.5 -100l8 -9q44 28 98 28q77 0 121 -49.5zM302.5 102q22.5 25 22.5 73q0 93 -85 93q-43 0 -87 -27l-1 -24 q0 -70 19.5 -105t66.5 -35q42 0 64.5 25z" />
<glyph horiz-adv-x="475" d="M387 506l52 2v-98l-180 -360l-60 -150l-107 30l-8 21l226 444h-182l-95 -8l-8 12l9 110l116 -3h237z" />
<glyph horiz-adv-x="475" d="M373 556q45 -39 45 -107q0 -85 -91 -135v-7q51 -24 79 -56t28 -85q0 -81 -57 -128t-153 -47q-89 0 -138.5 42t-49.5 109q0 96 112 142v6q-44 23 -68.5 55.5t-24.5 84.5q0 76 53 120.5t141 44.5q79 0 124 -39zM183.5 484.5q-20.5 -18.5 -20.5 -50.5q0 -33 22 -52.5 t63 -36.5q31 17 48 37.5t17 51.5q0 32 -19.5 50.5t-53.5 18.5q-36 0 -56.5 -18.5zM166.5 215q-20.5 -20 -20.5 -56t24 -57.5t66 -21.5t65.5 21.5t23.5 54.5q0 34 -24.5 53.5t-74.5 40.5q-39 -15 -59.5 -35z" />
<glyph horiz-adv-x="475" d="M390 454.5q54 -59.5 54 -164.5q0 -122 -75 -221t-213 -160h-6l-83 59v14q100 38 155.5 80t79.5 100l-8 9q-49 -28 -98 -28q-78 0 -121.5 49.5t-43.5 125.5q0 54 23.5 98.5t70.5 71t115 26.5q96 0 150 -59.5zM322 265l1 23q0 70 -19.5 104.5t-66.5 34.5q-42 0 -64.5 -25 t-22.5 -72q0 -93 85 -93q43 0 87 28z" />
<glyph horiz-adv-x="375" d="M305 341.5q38 -49.5 38 -141.5q0 -100 -41.5 -153t-120.5 -53q-73 0 -111.5 49.5t-38.5 141.5q0 100 42.5 153t121.5 53q72 0 110 -49.5zM132 270.5q-17 -24.5 -17 -77.5q0 -57 17.5 -84t54.5 -27q73 0 73 105q0 56 -18 82t-56 26q-37 0 -54 -24.5z" />
<glyph horiz-adv-x="276" d="M196 138l4 -138h-108l4 126v149l-79 -18l-7 5v83l176 46l15 -11z" />
<glyph horiz-adv-x="361" d="M270 365q34 -25 34 -69q0 -29 -19 -63t-62 -86l-51 -64l2 -2h91l67 4l5 -7l-11 -82l-94 4h-167l-26 -1l-6 3v62l94 102q39 45 54.5 66.5t15.5 39.5q0 14 -10.5 23.5t-29.5 9.5q-21 0 -46.5 -12.5t-47.5 -33.5h-12l-18 79q77 52 151 52q52 0 86 -25z" />
<glyph horiz-adv-x="321" d="M242.5 365.5q34.5 -25.5 34.5 -67.5q0 -59 -61 -91v-4q72 -21 72 -90q0 -53 -49 -86t-129 -33q-39 0 -76 8l-7 74l8 7q39 -11 77 -11q73 0 73 44q0 38 -50 38h-52l-5 7l1 69l31 1q24 1 41.5 14t17.5 33q0 31 -42 31q-31 0 -78 -25h-11l-16 70q60 37 129 37 q57 0 91.5 -25.5z" />
<glyph horiz-adv-x="367" d="M282 86l5 -79l-6 -7l-83 -4l-6 5l2 86h-101l-66 -3l-7 9v65l165 228h98l-3 -221h54l6 -9l-5 -72zM196 165l-1 108h-6l-77 -108h84z" />
<glyph horiz-adv-x="320" d="M278 306l-7 -7l-65 7h-72l-1 -59l42 -10q57 -12 84 -38t27 -69q0 -62 -49 -99t-129 -37q-41 0 -81 8l-6 72l7 8q39 -11 80 -11q36 0 55.5 13t19.5 36q0 18 -13 28.5t-43 16.5l-70 12l-6 8l1 190l11 12l41 -1h106l72 3l6 -6z" />
<glyph horiz-adv-x="350" d="M292.5 207.5q30.5 -33.5 30.5 -81.5q0 -56 -38.5 -94t-110.5 -38q-69 0 -108 39.5t-39 108.5q0 79 51.5 143.5t145.5 106.5h6l67 -45v-10q-66 -25 -102 -49t-53 -56l5 -6q30 15 60 15q55 0 85.5 -33.5zM227 116q0 54 -51 54q-24 0 -52 -13v-13q0 -43 11.5 -64t40.5 -21 q51 0 51 57z" />
<glyph horiz-adv-x="311" d="M252 386l35 1v-75l-101 -213l-42 -106l-86 22l-6 16l131 270h-94l-67 -6l-6 9l8 84l83 -2h145z" />
<glyph horiz-adv-x="360" d="M279.5 365q32.5 -26 32.5 -70q0 -53 -60 -88v-5q33 -16 51.5 -36.5t18.5 -54.5q0 -55 -41 -86t-111 -31q-64 0 -99.5 27t-35.5 72q0 62 76 91v4q-65 33 -65 92q0 51 39.5 81t103.5 30q58 0 90.5 -26zM135 283q0 -19 14 -30.5t42 -23.5q37 25 37 54q0 18 -12.5 28.5 t-33.5 10.5q-47 0 -47 -39zM123 107q0 -21 14.5 -33.5t41.5 -12.5t42 12t15 30q0 20 -16 31.5t-49 23.5q-48 -15 -48 -51z" />
<glyph horiz-adv-x="351" d="M286 353q39 -40 39 -111q0 -78 -52 -142.5t-146 -105.5h-6l-66 44v10q65 24 101.5 48.5t53.5 56.5l-5 6q-28 -14 -61 -14q-53 0 -84.5 33.5t-31.5 81.5q0 55 39 94t111 39q69 0 108 -40zM228 230v11q0 44 -11.5 65t-40.5 21q-52 0 -52 -57q0 -54 52 -54q27 0 52 14z" />
<glyph horiz-adv-x="375" d="M305 600.5q38 -49.5 38 -141.5q0 -100 -41.5 -153t-120.5 -53q-73 0 -111.5 49.5t-38.5 141.5q0 100 42.5 153t121.5 53q72 0 110 -49.5zM132 529.5q-17 -24.5 -17 -77.5q0 -57 17.5 -84t54.5 -27q73 0 73 105q0 56 -18 82t-56 26q-37 0 -54 -24.5z" />
<glyph horiz-adv-x="276" d="M196 397l4 -138h-108l4 126v149l-79 -18l-7 5v83l176 46l15 -11z" />
<glyph horiz-adv-x="361" d="M270 624q34 -25 34 -69q0 -29 -19 -63t-62 -86l-51 -64l2 -2h91l67 4l5 -7l-11 -82l-94 4h-167l-26 -1l-6 3v62l94 102q39 45 54.5 66.5t15.5 39.5q0 14 -10.5 23.5t-29.5 9.5q-21 0 -46.5 -12.5t-47.5 -33.5h-12l-18 79q77 52 151 52q52 0 86 -25z" />
<glyph horiz-adv-x="321" d="M242.5 624.5q34.5 -25.5 34.5 -67.5q0 -59 -61 -91v-4q72 -21 72 -90q0 -53 -49 -86t-129 -33q-39 0 -76 8l-7 74l8 7q39 -11 77 -11q73 0 73 44q0 38 -50 38h-52l-5 7l1 69l31 1q24 1 41.5 14t17.5 33q0 31 -42 31q-31 0 -78 -25h-11l-16 70q60 37 129 37 q57 0 91.5 -25.5z" />
<glyph horiz-adv-x="367" d="M282 345l5 -79l-6 -7l-83 -4l-6 5l2 86h-101l-66 -3l-7 9v65l165 228h98l-3 -221h54l6 -9l-5 -72zM196 424l-1 108h-6l-77 -108h84z" />
<glyph horiz-adv-x="320" d="M278 565l-7 -7l-65 7h-72l-1 -59l42 -10q57 -12 84 -38t27 -69q0 -62 -49 -99t-129 -37q-41 0 -81 8l-6 72l7 8q39 -11 80 -11q36 0 55.5 13t19.5 36q0 18 -13 28.5t-43 16.5l-70 12l-6 8l1 190l11 12l41 -1h106l72 3l6 -6z" />
<glyph horiz-adv-x="350" d="M292.5 466.5q30.5 -33.5 30.5 -81.5q0 -56 -38.5 -94t-110.5 -38q-69 0 -108 39.5t-39 108.5q0 79 51.5 143.5t145.5 106.5h6l67 -45v-10q-66 -25 -102 -49t-53 -56l5 -6q30 15 60 15q55 0 85.5 -33.5zM227 375q0 54 -51 54q-24 0 -52 -13v-13q0 -43 11.5 -64t40.5 -21 q51 0 51 57z" />
<glyph horiz-adv-x="311" d="M252 645l35 1v-75l-101 -213l-42 -106l-86 22l-6 16l131 270h-94l-67 -6l-6 9l8 84l83 -2h145z" />
<glyph horiz-adv-x="360" d="M279.5 624q32.5 -26 32.5 -70q0 -53 -60 -88v-5q33 -16 51.5 -36.5t18.5 -54.5q0 -55 -41 -86t-111 -31q-64 0 -99.5 27t-35.5 72q0 62 76 91v4q-65 33 -65 92q0 51 39.5 81t103.5 30q58 0 90.5 -26zM135 542q0 -19 14 -30.5t42 -23.5q37 25 37 54q0 18 -12.5 28.5 t-33.5 10.5q-47 0 -47 -39zM123 366q0 -21 14.5 -33.5t41.5 -12.5t42 12t15 30q0 20 -16 31.5t-49 23.5q-48 -15 -48 -51z" />
<glyph horiz-adv-x="351" d="M286 612q39 -40 39 -111q0 -78 -52 -142.5t-146 -105.5h-6l-66 44v10q65 24 101.5 48.5t53.5 56.5l-5 6q-28 -14 -61 -14q-53 0 -84.5 33.5t-31.5 81.5q0 55 39 94t111 39q69 0 108 -40zM228 489v11q0 44 -11.5 65t-40.5 21q-52 0 -52 -57q0 -54 52 -54q27 0 52 14z" />
<glyph horiz-adv-x="712" d="M692 273l-11 -82h-129q-23 -98 -88.5 -150.5t-169.5 -52.5q-123 0 -193 71t-70 196q0 77 27.5 135.5t77.5 90.5t115 32q61 0 93.5 -26t32.5 -69l-1 -11q180 136 256 304h11q39 -36 52 -84q-29 -69 -113 -156t-198 -166t-228 -128q35 -94 147 -94q79 0 122.5 50.5 t45.5 140.5l9 10h204zM171 385.5q-28 -42.5 -29 -115.5q65 27 116 58q37 24 37 60q0 40 -48 40t-76 -42.5z" />
<glyph d="M320 628l-4 -12q-92 -36 -215 -78l-13 4l-22 55q121 61 208 113l12 -3z" />
<glyph d="M287 569q-39 -27 -95 -27q-54 0 -92.5 27t-55.5 78l31 43h19q13 -26 40 -41t63 -15q71 0 98 56h19l31 -43q-19 -51 -58 -78z" />
<glyph d="M208 539h-27q-62 55 -134 104l24 53h13l31 -18q37 -19 79 -45q42 26 79 45l31 18h13l25 -53q-69 -46 -134 -104z" />
<glyph d="M179 706h27q62 -55 134 -104l-24 -53h-13l-31 18q-37 19 -79 45q-42 -26 -79 -45l-31 -18h-13l-25 53q69 46 134 104z" />
<glyph d="M69 628l4 -12q92 -36 215 -78l13 4l22 55q-121 61 -208 113l-12 -3z" />
<glyph d="M52 601q64 81 80 103l11 2l61 -40l1 -11q-55 -55 -124 -116l-12 -3l-42 34zM198 590q48 59 89 114l10 2l62 -40l1 -11q-60 -59 -125 -116l-11 -3l-42 34z" />
<glyph d="M215 512l-58 -9l-9 7l-3 204l95 6l8 -9z" />
<glyph d="M164.752 620.281q16.0469 -16.5049 16.0469 -45.8467q0 -31.1758 -17.4219 -49.5146t-47.6807 -18.3389t-46.3047 16.5049q-16.0469 16.5049 -16.0469 46.7637t17.8809 48.5977q17.8799 18.3389 49.0557 18.3389q28.4248 0 44.4707 -16.5049zM304.752 620.281 q16.0469 -16.5049 16.0469 -45.8467q0 -31.1758 -17.4219 -49.5146t-47.6807 -18.3389t-46.3047 16.5049q-16.0469 16.5049 -16.0469 46.7637t17.8809 48.5977q17.8799 18.3389 49.0557 18.3389q28.4248 0 44.4707 -16.5049z" />
<glyph d="M309 577h-226l-9 9l7 74h225l9 -9z" />
<glyph d="M348 648l-63 -89l-12 -4q-19 3 -73 20q-46 14 -55 14q-12 0 -22 -9.5t-19.5 -22.5t-13.5 -18h-11l-39 39v12l62 87l12 5q19 -3 73 -20q46 -14 55 -14q12 0 22 9.5t19.5 22.5t13.5 18h12l39 -39v-11z" />
<glyph horiz-adv-x="598" d="M289 845.5q16 -16.5 16 -45.5q0 -32 -17.5 -50t-48.5 -18q-29 0 -45 16.5t-16 46.5q0 31 17.5 49t48.5 18q29 0 45 -16.5zM463 845.5q16 -16.5 16 -45.5q0 -32 -17.5 -50t-48.5 -18q-29 0 -45 16.5t-16 46.5q0 31 17.5 49t48.5 18q29 0 45 -16.5zM552 613l-29 -122 l-12 -2q-49 28 -88 40.5t-83 12.5q-89 0 -129.5 -52.5t-40.5 -174.5q0 -80 17 -127t54 -68.5t98 -21.5q39 0 86 14l2 55l-3 99l126 10l-3 -88l2 -157q-119 -40 -220 -40q-150 0 -225.5 82t-75.5 235q0 167 87.5 255.5t248.5 88.5q106 0 188 -39z" />
<glyph d="M310 769q-61 -61 -112 -108l-11 -3l-42 33l21 29q48 64 71 97l10 2l61 -40zM287 549q-39 -27 -95 -27q-54 0 -92.5 27t-55.5 78l31 43h19q13 -26 40 -41t63 -15q71 0 98 56h19l31 -43q-19 -51 -58 -78z" />
<glyph d="M245 691l-42 -33l-12 3q-74 70 -111 108l1 10l62 40l10 -2q43 -62 92 -126zM287 549q-39 -27 -95 -27q-54 0 -92.5 27t-55.5 78l31 43h19q13 -26 40 -41t63 -15q71 0 98 56h19l31 -43q-19 -51 -58 -78z" />
<glyph d="M287 549q-39 -27 -95 -27q-54 0 -92.5 27t-55.5 78l31 43h19q13 -26 40 -41t63 -15q71 0 98 56h19l31 -43q-19 -51 -58 -78zM247 854q23 -20 23 -51q0 -20 -12 -38t-43 -45l23 -39l-49 -28l-42 66q24 18 38 37t14 34q0 22 -28 22q-33 0 -64 -25l-22 36q49 51 105 51 q34 0 57 -20z" />
<glyph d="M285.213 547.647q-37.2627 -25.7969 -90.7676 -25.7969q-51.5938 0 -88.3789 25.7969q-36.7842 25.7979 -53.0273 74.5254l29.6191 41.084h18.1533q12.4209 -24.8418 38.2178 -39.1738q25.7969 -14.3311 60.1934 -14.3311q67.8359 0 93.6338 53.5049h18.1533 l29.6182 -41.084q-18.1533 -48.7275 -55.415 -74.5254zM358.253 784.094l-64.7363 -83.8174l-12.0225 -4.70898q-24.9697 2.8252 -76.7588 17.8936q-55.4883 15.0684 -65.6611 15.0684t-19.8828 -8.47559q-9.71094 -8.47656 -20.8086 -20.7197 q-11.0977 -12.2422 -16.6465 -18.835h-11.0977l-36.9922 36.7295v10.3594l65.6611 83.8174l11.0977 4.70898q22.1953 -2.8252 78.6084 -18.8359q51.7891 -14.126 63.8115 -14.126q11.0977 0 21.7334 9.41797q10.6348 9.41699 21.7324 21.6602t14.7969 16.9521h11.0977 l36.0674 -36.7295v-10.3594z" />
<glyph horiz-adv-x="461" d="M350 432q55 -32 87 -87t32 -119t-32 -119t-87 -87t-119 -32t-119 32t-87 87t-32 119t32 119t87 87t119 32t119 -32z" />
<glyph horiz-adv-x="641" d="M486.5 604.5q76.5 -44.5 121 -121t44.5 -166.5t-44.5 -166t-121 -120.5t-166.5 -44.5t-166 44.5t-120.5 120.5t-44.5 166t44.5 166.5t120.5 121t166 44.5t166.5 -44.5z" />
<glyph d="M399 777l-95 -123h-9l-45 34l70 124l10 4l66 -29zM180 686h27q62 -55 134 -104l-24 -53h-13l-31 18q-37 19 -79 45q-42 -26 -79 -45l-31 -18h-13l-25 53q69 46 134 104z" />
<glyph d="M356 688l-45 -34h-9l-95 123l3 10l67 29l9 -4zM180 686h27q62 -55 134 -104l-24 -53h-13l-31 18q-37 19 -79 45q-42 -26 -79 -45l-31 -18h-13l-25 53q69 46 134 104z" />
<glyph d="M180 686h27q62 -55 134 -104l-24 -53h-13l-31 18q-37 19 -79 45q-42 -26 -79 -45l-31 -18h-13l-25 53q69 46 134 104zM344.327 833.367q21.8955 -19.0391 21.8955 -48.5508q0 -19.0391 -11.4238 -36.1738q-11.4229 -17.1357 -40.9346 -42.8389l21.8955 -37.127 l-46.6465 -26.6553l-39.9824 62.8301q22.8477 17.1357 36.1748 35.2227q13.3271 18.0879 13.3271 32.3672q0 20.9434 -26.6543 20.9434q-31.415 0 -60.9258 -23.7998l-20.9434 34.2715q46.6465 48.5498 99.9561 48.5498q32.3672 0 54.2617 -19.0391z" />
<glyph d="M180 686h27q62 -55 134 -104l-24 -53h-13l-31 18q-37 19 -79 45q-42 -26 -79 -45l-31 -18h-13l-25 53q69 46 134 104zM358.253 784.094l-64.7363 -83.8174l-12.0225 -4.70898q-24.9697 2.8252 -76.7588 17.8936q-55.4883 15.0684 -65.6611 15.0684t-19.8828 -8.47559 q-9.71094 -8.47656 -20.8086 -20.7197q-11.0977 -12.2422 -16.6465 -18.835h-11.0977l-36.9922 36.7295v10.3594l65.6611 83.8174l11.0977 4.70898q22.1953 -2.8252 78.6084 -18.8359q51.7891 -14.126 63.8115 -14.126q11.0977 0 21.7334 9.41797 q10.6348 9.41699 21.7324 21.6602t14.7969 16.9521h11.0977l36.0674 -36.7295v-10.3594z" />
<glyph d="M208 674h-27q-63 53 -134 104l24 53h13l110 -63l110 63h13l25 -53q-68 -46 -134 -104zM153 644.5q15 -15.5 15 -44.5t-17 -47t-46 -18q-59 0 -59 61q0 29 17 46.5t47 17.5q28 0 43 -15.5zM327 644.5q15 -15.5 15 -44.5t-17 -47t-46 -18q-59 0 -59 61q0 29 17 46.5 t47 17.5q28 0 43 -15.5z" />
<glyph d="M336 717h-279l-10 10l7 75h280l9 -10zM153 644.5q15 -15.5 15 -44.5t-17 -47t-46 -18q-59 0 -59 61q0 29 17 46.5t47 17.5q28 0 43 -15.5zM327 644.5q15 -15.5 15 -44.5t-17 -47t-46 -18q-59 0 -59 61q0 29 17 46.5t47 17.5q28 0 43 -15.5z" />
<glyph horiz-adv-x="421" d="M62 369h297l-149 -297z" />
<glyph d="M336 577h-280l-9 9l7 74h280l8 -9z" />
<glyph horiz-adv-x="783" d="M683 444v-423q0 -80 -80 -80h-423q-80 0 -80 80v423q0 80 80 80h423q80 0 80 -80zM191 93h74v180q0 12 24 12q43 0 43 -56v-136h74v178q0 32 -22 52.5t-56 20.5l-48 -28q-6 -4 -9 -4q-6 0 -6 9v116h-74v-344zM435 320v-18h26q10 0 10 -10v-132q0 -32 22 -52.5t56 -20.5 l63 37v25q-12 -4 -26 -4q-22 0 -31.5 13.5t-9.5 43.5v90q0 10 10 10h58v36h-58q-10 0 -10 10v28h-21z" />
<glyph horiz-adv-x="500" d="M120 561.5q-16 16.5 -16 46.5q0 31 17.5 49t48.5 18q29 0 45 -16.5t16 -45.5q0 -32 -17.5 -50t-48.5 -18q-29 0 -45 16.5zM293 561.5q-16 16.5 -16 46.5q0 31 17.5 49t48.5 18q29 0 45 -16.5t16 -45.5q0 -32 -17.5 -50t-48.5 -18q-29 0 -45 16.5zM431 387l-2 -4 q15 -30 15 -67q0 -75 -54.5 -119.5t-147.5 -44.5q-28 0 -58 5q-15 -15 -15 -26q0 -18 24 -25t76 -14q59 -7 98.5 -17t68 -35t28.5 -71q0 -47 -29.5 -84.5t-81.5 -58.5t-118 -21q-91 0 -140 37t-49 98q29 42 83 75v5q-72 26 -72 91q27 33 68 61v5q-73 38 -73 129q0 78 54 122 t146 44q55 0 99 -19q74 15 148 41l10 -9v-83q-31 -8 -78 -15zM329 314q0 76 -79 76q-83 0 -83 -77q0 -81 79 -81q83 0 83 82zM323 -18q-29 10 -90 18q-22 2 -31 4q-48 -33 -48 -63q0 -26 24 -42t70 -16q47 0 75.5 16.5t28.5 45.5q0 27 -29 37z" />
<glyph d="M243 721q23 -20 23 -51q0 -20 -12 -38t-43 -45l23 -39l-49 -28l-42 66q24 18 38 37t14 34q0 22 -28 22q-33 0 -64 -25l-22 36q49 51 105 51q34 0 57 -20z" />
<glyph horiz-adv-x="421" d="M37 230l296 149v-297z" />
<glyph horiz-adv-x="145" d="M99 243l-62 -12l-11 11l-2 286l102 9l8 -12z" />
<glyph horiz-adv-x="421" d="M88 82v297l296 -149z" />
</font>
</defs>
</svg>
