<?xml version="1.0" encoding="utf-8"?>
<!-- Generator: Adobe Illustrator 15.0.0, SVG Export Plug-In . SVG Version: 6.00 Build 0)  -->
<!DOCTYPE svg PUBLIC "-//W3C//DTD SVG 1.1//EN" "http://www.w3.org/Graphics/SVG/1.1/DTD/svg11.dtd">
<svg version="1.1" id="Layer_1" xmlns="http://www.w3.org/2000/svg" xmlns:xlink="http://www.w3.org/1999/xlink" x="0px" y="0px"
	 width="21.94px" height="267.034px" viewBox="0 0 21.94 267.034" enable-background="new 0 0 21.94 267.034" xml:space="preserve">
<path fill="#4A4434" d="M8.18,242.352c-1.611,2.537-3.668,5.291-5.351,9.024c-1.686,3.729-2.843,8.368-2.829,14.276
	c0,0.472,0.015,0.926,0.028,1.382h9.409c-0.018-0.448-0.033-0.9-0.034-1.382c0.008-4.234,0.673-7.107,1.628-9.535
	c0.722-1.821,1.642-3.421,2.729-5.118c1.611-2.536,3.668-5.29,5.351-9.024c1.688-3.729,2.844-8.367,2.829-14.275
	c0.008-5.254-0.893-9.498-2.289-13c-1.041-2.626-2.324-4.807-3.552-6.725c-1.86-2.884-3.523-5.176-4.69-7.8
	c-1.165-2.629-1.992-5.663-2.006-10.429c0.008-4.234,0.673-7.109,1.628-9.537c0.722-1.822,1.643-3.422,2.729-5.119
	c1.611-2.535,3.668-5.291,5.351-9.025c1.688-3.729,2.844-8.367,2.829-14.277c0.008-5.254-0.893-9.497-2.289-13
	c-1.041-2.626-2.324-4.807-3.552-6.723c-1.86-2.885-3.523-5.176-4.69-7.801c-1.165-2.629-1.992-5.663-2.006-10.429
	c0.008-4.232,0.673-7.104,1.628-9.531c0.722-1.821,1.642-3.42,2.729-5.116c1.611-2.535,3.668-5.289,5.351-9.022
	c1.688-3.729,2.844-8.365,2.829-14.273c0.008-5.254-0.893-9.497-2.289-12.999c-1.041-2.626-2.324-4.807-3.552-6.724
	c-1.86-2.884-3.523-5.175-4.69-7.8c-1.165-2.629-1.992-5.663-2.006-10.428c0.008-4.233,0.673-7.104,1.628-9.531
	c0.722-1.821,1.642-3.42,2.729-5.116c1.611-2.535,3.668-5.288,5.351-9.021C20.798,10.544,21.955,5.907,21.94,0h-9.401h-0.002
	c-0.008,4.232-0.672,7.104-1.627,9.531c-0.722,1.821-1.642,3.419-2.729,5.116c-1.61,2.535-3.667,5.288-5.351,9.021
	C1.143,27.397-0.014,32.033,0,37.941c-0.008,5.254,0.894,9.497,2.29,12.999c1.04,2.626,2.325,4.807,3.551,6.724
	c1.861,2.884,3.523,5.175,4.691,7.8c1.165,2.629,1.993,5.663,2.004,10.428c-0.008,4.233-0.672,7.104-1.627,9.531
	c-0.722,1.821-1.642,3.42-2.729,5.117c-1.611,2.535-3.667,5.288-5.351,9.021C1.143,103.29-0.014,107.927,0,113.834
	c-0.008,5.254,0.894,9.498,2.29,13c1.04,2.626,2.325,4.807,3.551,6.724c1.861,2.883,3.523,5.176,4.691,7.799
	c1.165,2.629,1.993,5.664,2.004,10.43c-0.008,4.234-0.672,7.107-1.627,9.537c-0.722,1.822-1.643,3.422-2.729,5.119
	c-1.611,2.535-3.668,5.291-5.351,9.024c-1.687,3.73-2.843,8.368-2.829,14.278c-0.008,5.254,0.894,9.497,2.29,13
	c1.04,2.626,2.325,4.807,3.551,6.723c1.861,2.885,3.523,5.176,4.691,7.801c1.165,2.629,1.993,5.664,2.004,10.43
	c-0.008,4.234-0.672,7.107-1.627,9.535C10.187,239.055,9.267,240.655,8.18,242.352"/>
</svg>
