<?xml version="1.0" encoding="utf-8"?>
<!-- Generator: Adobe Illustrator 15.0.0, SVG Export Plug-In . SVG Version: 6.00 Build 0)  -->
<!DOCTYPE svg PUBLIC "-//W3C//DTD SVG 1.1//EN" "http://www.w3.org/Graphics/SVG/1.1/DTD/svg11.dtd">
<svg version="1.1" id="Layer_1" xmlns="http://www.w3.org/2000/svg" xmlns:xlink="http://www.w3.org/1999/xlink" x="0px" y="0px"
	 width="489.605px" height="181.954px" viewBox="0 0 489.605 181.954" enable-background="new 0 0 489.605 181.954"
	 xml:space="preserve">
<path opacity="0.1" d="M9.226,84.446v0.026c-0.172-0.013-0.345-0.026-0.52-0.026C3.898,84.446,0,88.345,0,93.152
	c0,3.008,1.529,5.655,3.849,7.219v1.398C1.529,103.334,0,105.98,0,108.988c0,0.034,0.006,0.066,0.006,0.1S0,109.153,0,109.188
	c0,3.008,1.529,5.655,3.849,7.219v1.398C1.529,119.368,0,122.016,0,125.023c0,0.034,0.006,0.066,0.006,0.099
	c0,0.034-0.006,0.066-0.006,0.1c0,3.009,1.529,5.656,3.849,7.22v1.398C1.529,135.403,0,138.051,0,141.059
	c0,0.034,0.006,0.066,0.006,0.099c0,0.034-0.006,0.066-0.006,0.1c0,3.009,1.529,5.655,3.849,7.22v1.398
	C1.529,151.438,0,154.086,0,157.094c0,0.034,0.006,0.065,0.006,0.099c0,0.034-0.006,0.066-0.006,0.1c0,3.009,1.529,5.655,3.849,7.22
	v1.397C1.529,167.474,0,170.12,0,173.129c0,4.808,3.898,8.706,8.706,8.706c0.175,0,0.348-0.014,0.52-0.026v0.145H93.31
	c2.615,0,4.734-2.119,4.734-4.733V89.424c0-2.749-2.228-4.978-4.977-4.978H9.226z"/>
<path fill="#E2F49F" d="M9.226,77.956v0.026c-0.172-0.013-0.345-0.026-0.52-0.026C3.898,77.956,0,81.854,0,86.662
	c0,3.008,1.529,5.655,3.849,7.219v1.398C1.529,96.843,0,99.49,0,102.498c0,0.034,0.006,0.065,0.006,0.099
	c0,0.034-0.006,0.066-0.006,0.101c0,3.008,1.529,5.654,3.849,7.219v1.397C1.529,112.878,0,115.525,0,118.533
	c0,0.034,0.006,0.065,0.006,0.099c0,0.034-0.006,0.066-0.006,0.1c0,3.009,1.529,5.655,3.849,7.22v1.397
	C1.529,128.913,0,131.56,0,134.568c0,0.033,0.006,0.065,0.006,0.099c0,0.034-0.006,0.066-0.006,0.099
	c0,3.01,1.529,5.656,3.849,7.221v1.397C1.529,144.948,0,147.595,0,150.603c0,0.034,0.006,0.066,0.006,0.1
	c0,0.034-0.006,0.065-0.006,0.099c0,3.009,1.529,5.656,3.849,7.22v1.398C1.529,160.983,0,163.63,0,166.638
	c0,4.809,3.898,8.706,8.706,8.706c0.175,0,0.348-0.013,0.52-0.025v0.145H93.31c2.615,0,4.734-2.12,4.734-4.734V82.933
	c0-2.749-2.228-4.977-4.977-4.977H9.226z"/>
<path fill="#C9E57C" d="M93.067,77.956H61.563v65.528l34.353,27.027c1.275,1.119,1.2,2.872,0.279,3.964
	c1.123-0.864,1.849-2.22,1.849-3.747V82.933C98.044,80.184,95.816,77.956,93.067,77.956"/>
<path opacity="0.1" d="M484.787,53.729H98.044v97.507h386.742c2.661,0,4.818-2.157,4.818-4.819V58.548
	C489.605,55.886,487.448,53.729,484.787,53.729"/>
<path opacity="0.1" d="M98.044,151.236V85.367c0-2.749-2.228-4.977-4.977-4.977H61.563v63.094l9.853,7.752H98.044z"/>
<path fill="#FFFFFF" d="M484.787,144.745H64.785c-2.661,0-4.818-2.156-4.818-4.818V52.058c0-2.662,2.157-4.819,4.818-4.819h420.002
	c2.661,0,4.818,2.157,4.818,4.819v87.869C489.605,142.589,487.448,144.745,484.787,144.745"/>
<path fill="#FFFFFF" d="M177.645,60.472c-6.451-0.002-12.903,0-19.355,0c-2.532,0-2.532,0-2.532,2.525c0,2.372,0,4.744,0,7.115
	c-2.089-3.698-5.021-6.327-8.696-8.168c-4.717-2.364-9.7-2.781-14.845-1.977c-8.798,1.376-15.709,5.842-20.909,12.964
	c-4.083,5.591-6.372,11.901-6.914,18.815c-0.689,8.792,0.511,17.217,4.995,24.974c3.066,5.303,7.335,9.351,12.853,12.029
	c5.766,2.798,11.88,3.77,18.23,3.163c3.697-0.354,7.224-1.357,10.386-3.397c2.67-1.722,4.87-3.87,6.086-6.921
	c0.086,2.555,0.085,5.078,0.086,7.6c0.002,1.692,0.27,1.956,1.997,1.956c4.562,0.002,9.124,0.001,13.686,0.001
	c1.727,0,3.454,0.009,5.181-0.004c1.07-0.007,1.387-0.322,1.449-1.388c0.015-0.26,0.009-0.522,0.009-0.782
	c0-22.255,0-44.511,0-66.766C179.352,60.605,179.225,60.473,177.645,60.472 M144.83,110.48c-8.333,1.877-16.903-3.714-17.339-13.136
	c-0.181-3.919,0.577-7.601,3.039-10.745c2.881-3.678,6.819-5.182,11.396-5.118c8.203,0.115,13.746,6.017,13.787,14.62
	C155.748,103.397,151.618,108.952,144.83,110.48 M111.334,59.362c-5.875-2.555-11.767-5.071-17.649-7.611
	c-0.842-0.364-1.399-0.181-1.828,0.656c-1.958,3.823-5.206,5.972-9.331,6.669c-5.937,1.002-11.088-0.497-14.76-5.547
	c-2.575-3.543-3.06-7.605-2.38-11.838c0.475-2.963,1.629-5.634,3.816-7.745c3.758-3.629,8.335-4.528,13.298-3.608
	c4.135,0.765,7.597,2.676,9.551,6.653c0.377,0.767,0.894,0.636,1.54,0.361c5.417-2.303,10.845-4.58,16.266-6.872
	c2.98-1.261,3.014-1.284,1.707-4.267c-3.493-7.97-9.323-13.54-17.427-16.683C87.786,7.066,81.17,6.453,74.447,7.174
	c-10.245,1.1-18.686,5.601-24.931,13.874c-5.353,7.091-7.584,15.236-7.762,24.048c0.215,2.331,0.294,4.685,0.669,6.99
	c2.235,13.741,9.861,23.09,23.006,27.784c6.341,2.265,12.923,2.614,19.569,1.9c3.838-0.412,7.558-1.349,11.051-3.042
	c7.468-3.619,12.581-9.523,16.232-16.826C112.853,60.757,112.551,59.891,111.334,59.362 M233.14,120.362
	c-0.332-2.154-0.661-4.31-1.017-6.461c-0.297-1.79-0.989-2.225-2.75-1.96c-1.348,0.203-2.718,0.406-4.074,0.378
	c-2.598-0.052-4.854-0.948-6.319-3.251c-0.961-1.509-1.175-3.22-1.175-4.968c-0.002-8.211-0.002-16.422,0.001-24.632
	c0-0.345,0.033-0.69,0.053-1.086c0.307,0,0.531-0.003,0.753,0c3.354,0.047,6.708,0.105,10.062,0.138
	c1.986,0.019,2.354-0.349,2.357-2.316c0.007-4.594,0.002-9.188,0.002-13.782c0-1.769-0.168-1.946-1.944-1.949
	c-3.356-0.007-6.712-0.002-10.068-0.002c-0.376-0.001-0.752,0-1.215,0c0-0.609-0.007-1.06,0.001-1.51
	c0.084-4.981,0.184-9.962,0.251-14.943c0.029-2.095-0.856-3.018-2.931-3.025c-6.419-0.02-12.838-0.012-19.256-0.004
	c-1.187,0.002-1.401,0.233-1.431,1.445c-0.123,4.98-0.245,9.96-0.358,14.94c-0.023,0.999-0.003,1.999-0.003,2.95
	c-0.286,0.079-0.379,0.127-0.472,0.127c-1.727,0.01-3.453,0.013-5.18,0.02c-1.456,0.005-1.705,0.232-1.708,1.697
	c-0.011,4.887-0.01,9.775,0,14.662c0.003,1.287,0.259,1.522,1.567,1.528c1.856,0.008,3.712,0.002,5.729,0.002
	c0,0.466-0.001,0.816,0,1.167c0.011,8.862,0.002,17.725,0.041,26.587c0.019,4.207,0.32,8.389,1.522,12.462
	c1.492,5.056,4.214,9.126,9.041,11.565c3.185,1.609,6.589,2.342,10.118,2.704c6.509,0.67,12.525-0.868,18.241-3.868
	c0.943-0.495,1.315-1.25,1.125-2.344C233.743,124.551,233.461,122.453,233.14,120.362 M366.472,59.503
	c-4.16-1.229-8.404-1.392-12.674-0.873c-6.015,0.731-10.938,3.445-14.513,8.399c-0.9,1.248-1.599,2.641-2.478,4.114v-1.162
	c0-10.851,0.001-21.701-0.003-32.552c0-0.684-0.01-1.369-0.056-2.051c-0.041-0.626-0.338-1.041-1.037-1.049
	c-0.356-0.003-0.714-0.054-1.07-0.054c-6.582-0.004-13.164-0.003-19.746-0.002c-1.876,0-1.877,0.002-1.877,1.857
	c0,30.955,0,61.911,0,92.866c0,0.228-0.006,0.457,0.002,0.684c0.042,1.384,0.127,1.469,1.54,1.47
	c6.517,0.002,13.033,0.011,19.551-0.004c2.781-0.006,2.69,0.416,2.692-2.688c0.009-14.044-0.001-28.088,0.02-42.132
	c0.001-0.56,0.114-1.179,0.37-1.667c2.065-3.951,5.274-6.088,9.816-5.992c2.86,0.06,5.39,0.863,7.144,3.324
	c1.411,1.977,1.748,4.236,1.748,6.585c0.002,13.652,0.001,27.306,0.002,40.959c0,1.535,0.076,1.614,1.589,1.615
	c5.963,0.003,11.926,0.001,17.889,0.001c0.912,0,1.825,0.008,2.737-0.002c1.23-0.012,1.46-0.244,1.504-1.495
	c0.007-0.194,0.003-0.391,0.003-0.586c0.001-16.031,0-32.062,0.001-48.095c0-3.075-0.332-6.109-1.191-9.069
	C376.623,65.675,372.808,61.375,366.472,59.503 M306.25,97.671c-0.52-0.267-1.069-0.476-1.606-0.707
	c-5.288-2.273-10.578-4.543-15.863-6.823c-0.827-0.356-1.521-0.503-2.034,0.511c-1.956,3.871-5.237,6.031-9.396,6.729
	c-5.815,0.975-10.893-0.472-14.574-5.352c-2.643-3.503-3.203-7.56-2.571-11.795c0.552-3.705,2.125-6.904,5.22-9.166
	c3.926-2.87,8.338-3.362,12.93-2.228c3.693,0.913,6.796,2.79,8.531,6.392c0.357,0.74,0.836,0.733,1.517,0.444
	c5.444-2.319,10.901-4.609,16.353-6.915c2.91-1.231,2.961-1.301,1.692-4.209c-3.48-7.977-9.297-13.569-17.4-16.709
	c-6.861-2.658-13.997-3.214-21.235-2.187c-9.067,1.286-16.668,5.376-22.498,12.491c-6.007,7.331-8.506,15.907-8.789,25.299
	c0.37,2.998,0.532,6.04,1.148,8.986c2.484,11.877,9.277,20.316,20.554,24.958c7.576,3.119,15.47,3.632,23.502,2.387
	c12.061-1.868,20.093-9.01,25.432-19.609C307.712,99.074,307.37,98.244,306.25,97.671 M461.17,95.946h0.03
	c0-24.323,0-28.32-0.001-32.319c0-0.684-0.01-1.369-0.056-2.051c-0.041-0.626-0.339-1.041-1.037-1.048
	c-0.357-0.004-0.714-0.055-1.071-0.055c-6.582-0.003-13.164-0.003-19.746-0.002c-1.876,0-1.877,0.002-1.877,1.857v33.674
	c-0.004,3.035-0.784,5.92-2.729,8.497c-2.807,3.72-6.448,5.386-10.613,5.482c-4.164-0.097-7.806-1.763-10.613-5.482
	c-1.985-2.631-2.759-5.583-2.729-8.688h-0.023c0-24.2,0-28.193-0.001-32.184c0-0.684-0.01-1.369-0.056-2.051
	c-0.041-0.626-0.338-1.041-1.037-1.048c-0.357-0.004-0.714-0.055-1.071-0.055c-6.582-0.003-13.164-0.003-19.746-0.002
	c-1.876,0-1.877,0.002-1.877,1.857v33.619h0.03c-0.011,0.22-0.023,0.438-0.03,0.659c0.371,2.997,0.533,6.039,1.149,8.985
	c1.562,7.476,4.836,13.589,9.857,18.251c4.694,4.762,10.611,7.938,18.072,9.095c2.706,0.419,5.395,0.633,8.063,0.621
	c2.668,0.012,5.356-0.202,8.062-0.621c1.858-0.288,3.619-0.702,5.291-1.233v2.432h0.007c-0.002,3.089-0.691,6.025-2.672,8.65
	c-3.682,4.879-8.588,6.325-14.402,5.351c-4.159-0.697-7.44-2.857-9.396-6.728c-0.512-1.015-1.207-0.868-2.033-0.512
	c-5.285,2.281-10.576,4.55-15.864,6.824c-0.536,0.231-1.087,0.44-1.606,0.706c-1.118,0.573-1.462,1.403-0.91,2.498
	c5.338,10.599,13.371,17.741,25.432,19.61c8.032,1.244,15.927,0.731,23.502-2.388c11.277-4.643,18.069-13.082,20.554-24.959
	c0.616-2.945,0.777-5.987,1.148-8.984c-0.001-0.023-0.002-0.046-0.003-0.069h0.003V96.862c0.01-0.086,0.02-0.172,0.03-0.257
	c-0.007-0.217-0.02-0.432-0.03-0.647V95.946z"/>
<path fill="none" stroke="#FFFFFF" stroke-width="13.782" stroke-linecap="round" stroke-linejoin="round" stroke-miterlimit="10" d="
	M177.645,60.472c-6.451-0.002-12.903,0-19.355,0c-2.532,0-2.532,0-2.532,2.525c0,2.372,0,4.744,0,7.115
	c-2.089-3.698-5.021-6.327-8.696-8.168c-4.717-2.364-9.7-2.781-14.845-1.977c-8.798,1.376-15.709,5.842-20.909,12.964
	c-4.083,5.591-6.372,11.901-6.914,18.815c-0.689,8.792,0.511,17.217,4.995,24.974c3.066,5.303,7.335,9.351,12.853,12.029
	c5.766,2.798,11.88,3.77,18.23,3.163c3.697-0.354,7.224-1.357,10.386-3.397c2.67-1.722,4.87-3.87,6.086-6.921
	c0.086,2.555,0.085,5.078,0.086,7.6c0.002,1.692,0.27,1.956,1.997,1.956c4.562,0.002,9.124,0.001,13.686,0.001
	c1.727,0,3.454,0.009,5.181-0.004c1.07-0.007,1.387-0.322,1.449-1.388c0.015-0.26,0.009-0.522,0.009-0.782
	c0-22.255,0-44.511,0-66.766C179.352,60.605,179.225,60.473,177.645,60.472z M144.83,110.48
	c-8.333,1.877-16.903-3.714-17.339-13.136c-0.181-3.919,0.577-7.601,3.039-10.745c2.881-3.678,6.819-5.182,11.396-5.118
	c8.203,0.115,13.746,6.017,13.787,14.62C155.748,103.397,151.618,108.952,144.83,110.48z M111.334,59.362
	c-5.875-2.555-11.767-5.071-17.649-7.611c-0.842-0.364-1.399-0.181-1.828,0.656c-1.958,3.823-5.206,5.972-9.331,6.669
	c-5.937,1.002-11.088-0.497-14.76-5.547c-2.575-3.543-3.06-7.605-2.38-11.838c0.475-2.963,1.629-5.634,3.816-7.745
	c3.758-3.629,8.335-4.528,13.298-3.608c4.135,0.765,7.597,2.676,9.551,6.653c0.377,0.767,0.894,0.636,1.54,0.361
	c5.417-2.303,10.845-4.58,16.266-6.872c2.98-1.261,3.014-1.284,1.707-4.267c-3.493-7.97-9.323-13.54-17.427-16.683
	C87.786,7.066,81.17,6.453,74.447,7.174c-10.245,1.1-18.686,5.601-24.931,13.874c-5.353,7.091-7.584,15.236-7.762,24.048
	c0.215,2.331,0.294,4.685,0.669,6.99c2.235,13.741,9.861,23.09,23.006,27.784c6.341,2.265,12.923,2.614,19.569,1.9
	c3.838-0.412,7.558-1.349,11.051-3.042c7.468-3.619,12.581-9.523,16.232-16.826C112.853,60.757,112.551,59.891,111.334,59.362z
	 M233.14,120.362c-0.332-2.154-0.661-4.31-1.017-6.461c-0.297-1.79-0.989-2.225-2.75-1.96c-1.348,0.203-2.718,0.406-4.074,0.378
	c-2.598-0.052-4.854-0.948-6.319-3.251c-0.961-1.509-1.175-3.22-1.175-4.968c-0.002-8.211-0.002-16.422,0.001-24.632
	c0-0.345,0.033-0.69,0.053-1.086c0.307,0,0.531-0.003,0.753,0c3.354,0.047,6.708,0.105,10.062,0.138
	c1.986,0.019,2.354-0.349,2.357-2.316c0.007-4.594,0.002-9.188,0.002-13.782c0-1.769-0.168-1.946-1.944-1.949
	c-3.356-0.007-6.712-0.002-10.068-0.002c-0.376-0.001-0.752,0-1.215,0c0-0.609-0.007-1.06,0.001-1.51
	c0.084-4.981,0.184-9.962,0.251-14.943c0.029-2.095-0.856-3.018-2.931-3.025c-6.419-0.02-12.838-0.012-19.256-0.004
	c-1.187,0.002-1.401,0.233-1.431,1.445c-0.123,4.98-0.245,9.96-0.358,14.94c-0.023,0.999-0.003,1.999-0.003,2.95
	c-0.286,0.079-0.379,0.127-0.472,0.127c-1.727,0.01-3.453,0.013-5.18,0.02c-1.456,0.005-1.705,0.232-1.708,1.697
	c-0.011,4.887-0.01,9.775,0,14.662c0.003,1.287,0.259,1.522,1.567,1.528c1.856,0.008,3.712,0.002,5.729,0.002
	c0,0.466-0.001,0.816,0,1.167c0.011,8.862,0.002,17.725,0.041,26.587c0.019,4.207,0.32,8.389,1.522,12.462
	c1.492,5.056,4.214,9.126,9.041,11.565c3.185,1.609,6.589,2.342,10.118,2.704c6.509,0.67,12.525-0.868,18.241-3.868
	c0.943-0.495,1.315-1.25,1.125-2.344C233.743,124.551,233.461,122.453,233.14,120.362z M366.472,59.503
	c-4.16-1.229-8.404-1.392-12.674-0.873c-6.015,0.731-10.938,3.445-14.513,8.399c-0.9,1.248-1.599,2.641-2.478,4.114v-1.162
	c0-10.851,0.001-21.701-0.003-32.552c0-0.684-0.01-1.369-0.056-2.051c-0.041-0.626-0.338-1.041-1.037-1.049
	c-0.356-0.003-0.714-0.054-1.07-0.054c-6.582-0.004-13.164-0.003-19.746-0.002c-1.876,0-1.877,0.002-1.877,1.857
	c0,30.955,0,61.911,0,92.866c0,0.228-0.006,0.457,0.002,0.684c0.042,1.384,0.127,1.469,1.54,1.47
	c6.517,0.002,13.033,0.011,19.551-0.004c2.781-0.006,2.69,0.416,2.692-2.688c0.009-14.044-0.001-28.088,0.02-42.132
	c0.001-0.56,0.114-1.179,0.37-1.667c2.065-3.951,5.274-6.088,9.816-5.992c2.86,0.06,5.39,0.863,7.144,3.324
	c1.411,1.977,1.748,4.236,1.748,6.585c0.002,13.652,0.001,27.306,0.002,40.959c0,1.535,0.076,1.614,1.589,1.615
	c5.963,0.003,11.926,0.001,17.889,0.001c0.912,0,1.825,0.008,2.737-0.002c1.23-0.012,1.46-0.244,1.504-1.495
	c0.007-0.194,0.003-0.391,0.003-0.586c0.001-16.031,0-32.062,0.001-48.095c0-3.075-0.332-6.109-1.191-9.069
	C376.623,65.675,372.808,61.375,366.472,59.503z M306.25,97.671c-0.52-0.267-1.069-0.476-1.606-0.707
	c-5.288-2.273-10.578-4.543-15.863-6.823c-0.827-0.356-1.521-0.503-2.034,0.511c-1.956,3.871-5.237,6.031-9.396,6.729
	c-5.815,0.975-10.893-0.472-14.574-5.352c-2.643-3.503-3.203-7.56-2.571-11.795c0.552-3.705,2.125-6.904,5.22-9.166
	c3.926-2.87,8.338-3.362,12.93-2.228c3.693,0.913,6.796,2.79,8.531,6.392c0.357,0.74,0.836,0.733,1.517,0.444
	c5.444-2.319,10.901-4.609,16.353-6.915c2.91-1.231,2.961-1.301,1.692-4.209c-3.48-7.977-9.297-13.569-17.4-16.709
	c-6.861-2.658-13.997-3.214-21.235-2.187c-9.067,1.286-16.668,5.376-22.498,12.491c-6.007,7.331-8.506,15.907-8.789,25.299
	c0.37,2.998,0.532,6.04,1.148,8.986c2.484,11.877,9.277,20.316,20.554,24.958c7.576,3.119,15.47,3.632,23.502,2.387
	c12.061-1.868,20.093-9.01,25.432-19.609C307.712,99.074,307.37,98.244,306.25,97.671z M461.17,95.946h0.03
	c0-24.323,0-28.32-0.001-32.319c0-0.684-0.01-1.369-0.056-2.051c-0.041-0.626-0.339-1.041-1.037-1.048
	c-0.357-0.004-0.714-0.055-1.071-0.055c-6.582-0.003-13.164-0.003-19.746-0.002c-1.876,0-1.877,0.002-1.877,1.857v33.674
	c-0.004,3.035-0.784,5.92-2.729,8.497c-2.807,3.72-6.448,5.386-10.613,5.482c-4.164-0.097-7.806-1.763-10.613-5.482
	c-1.985-2.631-2.759-5.583-2.729-8.688h-0.023c0-24.2,0-28.193-0.001-32.184c0-0.684-0.01-1.369-0.056-2.051
	c-0.041-0.626-0.338-1.041-1.037-1.048c-0.357-0.004-0.714-0.055-1.071-0.055c-6.582-0.003-13.164-0.003-19.746-0.002
	c-1.876,0-1.877,0.002-1.877,1.857v33.619h0.03c-0.011,0.22-0.023,0.438-0.03,0.659c0.371,2.997,0.533,6.039,1.149,8.985
	c1.562,7.476,4.836,13.589,9.857,18.251c4.694,4.762,10.611,7.938,18.072,9.095c2.706,0.419,5.395,0.633,8.063,0.621
	c2.668,0.012,5.356-0.202,8.062-0.621c1.858-0.288,3.619-0.702,5.291-1.233v2.432h0.007c-0.002,3.089-0.691,6.025-2.672,8.65
	c-3.682,4.879-8.588,6.325-14.402,5.351c-4.159-0.697-7.44-2.857-9.396-6.728c-0.512-1.015-1.207-0.868-2.033-0.512
	c-5.285,2.281-10.576,4.55-15.864,6.824c-0.536,0.231-1.087,0.44-1.606,0.706c-1.118,0.573-1.462,1.403-0.91,2.498
	c5.338,10.599,13.371,17.741,25.432,19.61c8.032,1.244,15.927,0.731,23.502-2.388c11.277-4.643,18.069-13.082,20.554-24.959
	c0.616-2.945,0.777-5.987,1.148-8.984c-0.001-0.023-0.002-0.046-0.003-0.069h0.003V96.862c0.01-0.086,0.02-0.172,0.03-0.257
	c-0.007-0.217-0.02-0.432-0.03-0.647V95.946z"/>
<path fill="#B93849" d="M41.753,45.096c0.178-8.811,2.409-16.957,7.762-24.048c6.246-8.273,14.686-12.774,24.932-13.874
	c6.724-0.721,13.339-0.108,19.69,2.356c8.105,3.143,13.934,8.713,17.427,16.683c1.308,2.983,1.274,3.006-1.707,4.267
	c-5.421,2.292-10.849,4.569-16.266,6.873c-0.646,0.274-1.162,0.405-1.539-0.362c-1.955-3.977-5.416-5.887-9.551-6.653
	c-4.964-0.92-9.54-0.021-13.299,3.608c-2.187,2.111-3.34,4.783-3.816,7.745c-0.679,4.233-0.195,8.295,2.381,11.838
	c3.671,5.05,8.822,6.55,14.759,5.547c4.125-0.697,7.373-2.846,9.332-6.669c0.428-0.837,0.986-1.02,1.827-0.656
	c5.882,2.54,11.775,5.056,17.65,7.612c1.215,0.528,1.518,1.395,0.945,2.54c-3.651,7.303-8.764,13.207-16.232,16.826
	c-3.493,1.693-7.212,2.63-11.051,3.042c-6.645,0.714-13.227,0.364-19.568-1.901c-13.145-4.693-20.772-14.042-23.006-27.784
	C42.048,49.781,41.969,47.427,41.753,45.096"/>
<path fill="#B93849" d="M41.753,45.096c0.178-8.811,2.409-16.957,7.762-24.048c6.246-8.273,14.686-12.774,24.932-13.874
	c6.724-0.721,13.339-0.108,19.69,2.356c8.105,3.143,13.934,8.713,17.427,16.683c1.308,2.983,1.274,3.006-1.707,4.267
	c-5.421,2.292-10.849,4.569-16.266,6.873c-0.646,0.274-1.162,0.405-1.539-0.362c-1.955-3.977-5.416-5.887-9.551-6.653
	c-4.964-0.92-9.54-0.021-13.299,3.608c-2.187,2.111-3.34,4.783-3.816,7.745c-0.679,4.233-0.195,8.295,2.381,11.838
	c3.671,5.05,8.822,6.55,14.759,5.547c4.125-0.697,7.373-2.846,9.332-6.669c0.428-0.837,0.986-1.02,1.827-0.656
	c5.882,2.54,11.775,5.056,17.65,7.612c1.215,0.528,1.518,1.395,0.945,2.54c-3.651,7.303-8.764,13.207-16.232,16.826
	c-3.493,1.693-7.212,2.63-11.051,3.042c-6.645,0.714-13.227,0.364-19.568-1.901c-13.145-4.693-20.772-14.042-23.006-27.784
	C42.048,49.781,41.969,47.427,41.753,45.096"/>
<path opacity="0.1" d="M77.157,129.901c-6.602,0-12.623,0.323-17.19,0.854v5.023c4.567,0.531,10.588,0.854,17.19,0.854
	c14.271,0,25.839-1.507,25.839-3.366C102.996,131.409,91.428,129.901,77.157,129.901"/>
<path fill="#B03545" d="M78.686,59.409c-4.443-0.052-8.301-1.816-11.221-5.833c-2.576-3.543-3.06-7.604-2.381-11.838
	c0.476-2.962,1.629-5.634,3.816-7.745c2.853-2.754,6.179-3.933,9.786-3.94V6.947c-1.507,0.021-3.021,0.111-4.541,0.275
	c-10.245,1.099-18.686,5.6-24.932,13.873c-5.353,7.091-7.584,15.237-7.762,24.048c0.216,2.331,0.295,4.685,0.67,6.99
	c2.234,13.741,9.861,23.09,23.006,27.785c4.422,1.579,8.962,2.225,13.559,2.229V59.409z"/>
<path fill="#B93849" d="M336.808,71.143c0.879-1.473,1.577-2.866,2.478-4.114c3.574-4.954,8.498-7.668,14.513-8.399
	c4.269-0.519,8.513-0.356,12.674,0.873c6.335,1.871,10.15,6.172,11.962,12.401c0.86,2.96,1.191,5.993,1.191,9.068
	c0,16.031,0,32.063,0,48.096c0,0.194,0.004,0.391-0.003,0.586c-0.044,1.25-0.273,1.482-1.504,1.495
	c-0.912,0.008-1.825,0.002-2.737,0.002c-5.963,0-11.926,0.001-17.889-0.002c-1.513,0-1.589-0.079-1.589-1.615
	c-0.001-13.653,0-27.306-0.002-40.96c0-2.347-0.338-4.607-1.748-6.584c-1.755-2.46-4.283-3.264-7.145-3.324
	c-4.541-0.096-7.75,2.041-9.815,5.992c-0.256,0.489-0.37,1.107-0.37,1.667c-0.02,14.044-0.012,28.088-0.02,42.132
	c-0.002,3.104,0.089,2.683-2.692,2.689c-6.517,0.014-13.034,0.006-19.551,0.004c-1.413-0.001-1.498-0.086-1.54-1.471
	c-0.007-0.228-0.002-0.456-0.002-0.684c0-30.956,0-61.911,0-92.867c0-1.854,0-1.856,1.876-1.857
	c6.583-0.001,13.165-0.001,19.747,0.002c0.356,0.001,0.713,0.051,1.07,0.055c0.699,0.007,0.995,0.422,1.037,1.049
	c0.046,0.682,0.057,1.367,0.057,2.051c0.003,10.85,0.002,21.701,0.002,32.552V71.143z"/>
<path fill="#B93849" d="M336.808,71.143c0.879-1.473,1.577-2.866,2.478-4.114c3.574-4.954,8.498-7.668,14.513-8.399
	c4.269-0.519,8.513-0.356,12.674,0.873c6.335,1.871,10.15,6.172,11.962,12.401c0.86,2.96,1.191,5.993,1.191,9.068
	c0,16.031,0,32.063,0,48.096c0,0.194,0.004,0.391-0.003,0.586c-0.044,1.25-0.273,1.482-1.504,1.495
	c-0.912,0.008-1.825,0.002-2.737,0.002c-5.963,0-11.926,0.001-17.889-0.002c-1.513,0-1.589-0.079-1.589-1.615
	c-0.001-13.653,0-27.306-0.002-40.96c0-2.347-0.338-4.607-1.748-6.584c-1.755-2.46-4.283-3.264-7.145-3.324
	c-4.541-0.096-7.75,2.041-9.815,5.992c-0.256,0.489-0.37,1.107-0.37,1.667c-0.02,14.044-0.012,28.088-0.02,42.132
	c-0.002,3.104,0.089,2.683-2.692,2.689c-6.517,0.014-13.034,0.006-19.551,0.004c-1.413-0.001-1.498-0.086-1.54-1.471
	c-0.007-0.228-0.002-0.456-0.002-0.684c0-30.956,0-61.911,0-92.867c0-1.854,0-1.856,1.876-1.857
	c6.583-0.001,13.165-0.001,19.747,0.002c0.356,0.001,0.713,0.051,1.07,0.055c0.699,0.007,0.995,0.422,1.037,1.049
	c0.046,0.682,0.057,1.367,0.057,2.051c0.003,10.85,0.002,21.701,0.002,32.552V71.143z"/>
<path fill="#B03545" d="M346.02,60.92c-2.72,1.412-5.081,3.447-7.036,6.156c-0.9,1.248-1.599,2.641-2.478,4.114v-1.162
	c0-10.851,0.001-21.702-0.003-32.552c0-0.684-0.011-1.369-0.056-2.051c-0.042-0.626-0.338-1.041-1.037-1.049
	c-0.357-0.004-0.714-0.054-1.07-0.054c-6.582-0.004-13.164-0.003-19.747-0.003c-1.876,0.001-1.876,0.003-1.876,1.858
	c0,30.955,0,61.911,0,92.866c0,0.228-0.005,0.456,0.002,0.684c0.042,1.384,0.127,1.469,1.54,1.47
	c6.517,0.002,13.033,0.011,19.551-0.004c2.781-0.006,2.69,0.416,2.691-2.688c0.009-14.044,0-28.088,0.021-42.133
	c0-0.559,0.114-1.178,0.37-1.667c1.959-3.747,4.95-5.858,9.128-5.985V60.92z"/>
<path fill="#B93849" d="M194.014,78.361c-2.017,0-3.873,0.006-5.729-0.002c-1.307-0.006-1.564-0.241-1.567-1.528
	c-0.01-4.887-0.01-9.775,0-14.662c0.003-1.465,0.252-1.692,1.708-1.697c1.727-0.007,3.454-0.01,5.18-0.02
	c0.094,0,0.187-0.048,0.472-0.128c0-0.95-0.019-1.95,0.003-2.95c0.113-4.979,0.236-9.959,0.359-14.939
	c0.03-1.212,0.243-1.444,1.43-1.445c6.419-0.008,12.838-0.016,19.256,0.004c2.075,0.007,2.96,0.93,2.931,3.025
	c-0.067,4.981-0.166,9.962-0.251,14.943c-0.007,0.45-0.001,0.901-0.001,1.509h1.215c3.356,0.001,6.712-0.004,10.068,0.003
	c1.776,0.003,1.944,0.18,1.944,1.949c0,4.594,0.005,9.188-0.002,13.782c-0.003,1.967-0.371,2.335-2.357,2.316
	c-3.354-0.033-6.707-0.091-10.061-0.138c-0.223-0.003-0.446,0-0.754,0c-0.02,0.396-0.052,0.741-0.052,1.086
	c-0.003,8.21-0.003,16.421-0.002,24.632c0,1.748,0.214,3.459,1.175,4.968c1.465,2.303,3.721,3.199,6.32,3.251
	c1.355,0.028,2.726-0.175,4.074-0.378c1.76-0.265,2.452,0.17,2.749,1.96c0.357,2.151,0.685,4.307,1.017,6.461
	c0.323,2.091,0.603,4.188,0.964,6.271c0.189,1.094-0.182,1.849-1.126,2.344c-5.716,3-11.732,4.538-18.241,3.868
	c-3.529-0.362-6.933-1.095-10.118-2.705c-4.826-2.438-7.549-6.509-9.041-11.564c-1.202-4.073-1.503-8.255-1.521-12.463
	c-0.04-8.861-0.031-17.724-0.042-26.586C194.014,79.177,194.014,78.827,194.014,78.361"/>
<path fill="#B93849" d="M194.014,78.361c-2.017,0-3.873,0.006-5.729-0.002c-1.307-0.006-1.564-0.241-1.567-1.528
	c-0.01-4.887-0.01-9.775,0-14.662c0.003-1.465,0.252-1.692,1.708-1.697c1.727-0.007,3.454-0.01,5.18-0.02
	c0.094,0,0.187-0.048,0.472-0.128c0-0.95-0.019-1.95,0.003-2.95c0.113-4.979,0.236-9.959,0.359-14.939
	c0.03-1.212,0.243-1.444,1.43-1.445c6.419-0.008,12.838-0.016,19.256,0.004c2.075,0.007,2.96,0.93,2.931,3.025
	c-0.067,4.981-0.166,9.962-0.251,14.943c-0.007,0.45-0.001,0.901-0.001,1.509h1.215c3.356,0.001,6.712-0.004,10.068,0.003
	c1.776,0.003,1.944,0.18,1.944,1.949c0,4.594,0.005,9.188-0.002,13.782c-0.003,1.967-0.371,2.335-2.357,2.316
	c-3.354-0.033-6.707-0.091-10.061-0.138c-0.223-0.003-0.446,0-0.754,0c-0.02,0.396-0.052,0.741-0.052,1.086
	c-0.003,8.21-0.003,16.421-0.002,24.632c0,1.748,0.214,3.459,1.175,4.968c1.465,2.303,3.721,3.199,6.32,3.251
	c1.355,0.028,2.726-0.175,4.074-0.378c1.76-0.265,2.452,0.17,2.749,1.96c0.357,2.151,0.685,4.307,1.017,6.461
	c0.323,2.091,0.603,4.188,0.964,6.271c0.189,1.094-0.182,1.849-1.126,2.344c-5.716,3-11.732,4.538-18.241,3.868
	c-3.529-0.362-6.933-1.095-10.118-2.705c-4.826-2.438-7.549-6.509-9.041-11.564c-1.202-4.073-1.503-8.255-1.521-12.463
	c-0.04-8.861-0.031-17.724-0.042-26.586C194.014,79.177,194.014,78.827,194.014,78.361"/>
<path fill="#B03545" d="M217.6,105.9c-0.069-0.575-0.098-1.161-0.098-1.752c-0.001-8.211-0.001-16.422,0.002-24.633
	c0-0.345,0.033-0.689,0.053-1.085c0.015,0,0.028,0,0.043,0V60.519h-0.096c0-0.609-0.007-1.059,0.001-1.51
	c0.03-1.801,0.062-3.602,0.095-5.404V42.707c-0.335-1.141-1.221-1.66-2.775-1.665c-6.419-0.021-12.838-0.012-19.257-0.004
	c-1.187,0.001-1.4,0.233-1.43,1.445c-0.123,4.98-0.245,9.959-0.358,14.939c-0.023,1-0.004,2-0.004,2.95
	c-0.285,0.079-0.378,0.127-0.471,0.128c-1.727,0.01-3.454,0.013-5.18,0.019c-1.456,0.006-1.706,0.232-1.709,1.698
	c-0.01,4.887-0.01,9.774,0.001,14.662c0.002,1.286,0.259,1.522,1.567,1.528c1.856,0.008,3.711,0.002,5.729,0.002
	c0,0.465,0,0.816,0,1.167c0.011,8.862,0.002,17.725,0.042,26.587c0.019,4.208,0.319,8.388,1.521,12.462
	c1.491,5.055,4.214,9.126,9.041,11.564c3.184,1.609,6.589,2.343,10.117,2.705c1.069,0.11,2.123,0.154,3.166,0.149V105.9z"/>
<path fill="#B93849" d="M155.758,70.112c0-2.372,0-4.743,0-7.115c0-2.526,0-2.526,2.532-2.526c6.451,0,12.903-0.001,19.355,0.001
	c1.579,0.001,1.706,0.133,1.706,1.739c0.001,22.255,0,44.51,0,66.766c0,0.261,0.007,0.522-0.008,0.781
	c-0.062,1.066-0.379,1.382-1.45,1.389c-1.727,0.013-3.454,0.005-5.181,0.005c-4.561,0-9.123,0.001-13.685-0.001
	c-1.727,0-1.996-0.265-1.997-1.956c-0.001-2.523,0-5.045-0.087-7.601c-1.216,3.051-3.416,5.198-6.085,6.921
	c-3.162,2.04-6.69,3.044-10.386,3.397c-6.351,0.606-12.465-0.365-18.23-3.163c-5.519-2.678-9.788-6.727-12.854-12.029
	c-4.484-7.757-5.683-16.182-4.994-24.974c0.541-6.914,2.83-13.224,6.913-18.816c5.201-7.122,12.112-11.587,20.909-12.963
	c5.146-0.805,10.129-0.387,14.846,1.976C150.736,63.785,153.669,66.414,155.758,70.112 M155.713,96.102
	c-0.041-8.604-5.584-14.505-13.788-14.62c-4.577-0.063-8.515,1.439-11.396,5.118c-2.461,3.145-3.22,6.826-3.038,10.745
	c0.436,9.422,9.005,15.014,17.339,13.137C151.618,108.952,155.748,103.396,155.713,96.102"/>
<path fill="#B93849" d="M155.758,70.112c0-2.372,0-4.743,0-7.115c0-2.526,0-2.526,2.532-2.526c6.451,0,12.903-0.001,19.355,0.001
	c1.579,0.001,1.706,0.133,1.706,1.739c0.001,22.255,0,44.51,0,66.766c0,0.261,0.007,0.522-0.008,0.781
	c-0.062,1.066-0.379,1.382-1.45,1.389c-1.727,0.013-3.454,0.005-5.181,0.005c-4.561,0-9.123,0.001-13.685-0.001
	c-1.727,0-1.996-0.265-1.997-1.956c-0.001-2.523,0-5.045-0.087-7.601c-1.216,3.051-3.416,5.198-6.085,6.921
	c-3.162,2.04-6.69,3.044-10.386,3.397c-6.351,0.606-12.465-0.365-18.23-3.163c-5.519-2.678-9.788-6.727-12.854-12.029
	c-4.484-7.757-5.683-16.182-4.994-24.974c0.541-6.914,2.83-13.224,6.913-18.816c5.201-7.122,12.112-11.587,20.909-12.963
	c5.146-0.805,10.129-0.387,14.846,1.976C150.736,63.785,153.669,66.414,155.758,70.112 M155.713,96.102
	c-0.041-8.604-5.584-14.505-13.788-14.62c-4.577-0.063-8.515,1.439-11.396,5.118c-2.461,3.145-3.22,6.826-3.038,10.745
	c0.436,9.422,9.005,15.014,17.339,13.137C151.618,108.952,155.748,103.396,155.713,96.102"/>
<path fill="#B03545" d="M141.481,110.887c-7.257,0.096-13.909-5.223-14.292-13.494c-0.181-3.92,0.577-7.601,3.039-10.744
	c2.85-3.642,6.737-5.148,11.253-5.117V60.145c-3.106-0.657-6.304-0.641-9.567-0.13c-8.797,1.375-15.708,5.841-20.909,12.963
	c-4.082,5.592-6.371,11.901-6.913,18.816c-0.689,8.791,0.511,17.217,4.995,24.973c3.066,5.305,7.335,9.353,12.853,12.029
	c5.765,2.798,11.88,3.771,18.23,3.164c0.44-0.042,0.877-0.094,1.311-0.155V110.887z"/>
<path fill="#9B2D3B" d="M157.692,97.451c0-9.113-7.387-16.5-16.5-16.5c-9.113,0-16.5,7.387-16.5,16.5s7.387,16.5,16.5,16.5
	C150.305,113.951,157.692,106.564,157.692,97.451"/>
<path fill="#FFFFFF" d="M156.417,95.887c0-8.249-6.687-14.936-14.936-14.936s-14.936,6.687-14.936,14.936
	s6.687,14.937,14.936,14.937S156.417,104.136,156.417,95.887"/>
<path fill="#B93849" d="M145.272,88.304c0-2.094-1.698-3.792-3.792-3.792c-2.094,0-3.791,1.698-3.791,3.792s1.697,3.792,3.791,3.792
	C143.575,92.096,145.272,90.397,145.272,88.304"/>
<path fill="none" stroke="#D86777" stroke-width="4.864" stroke-linecap="round" stroke-linejoin="round" stroke-miterlimit="10" d="
	M48.855,34.266c1.105-3.647,2.776-6.935,5.029-9.92c5.229-6.926,12.146-10.763,21.147-11.728c1.557-0.168,3.099-0.252,4.584-0.252"
	/>
<path fill="#B93849" d="M236.525,83.447c0.283-9.393,2.782-17.97,8.789-25.301c5.83-7.115,13.43-11.204,22.498-12.49
	c7.238-1.027,14.373-0.472,21.235,2.187c8.103,3.14,13.92,8.732,17.401,16.708c1.269,2.909,1.218,2.979-1.693,4.21
	c-5.451,2.305-10.908,4.596-16.354,6.915c-0.679,0.289-1.158,0.296-1.515-0.444c-1.737-3.602-4.839-5.479-8.533-6.392
	c-4.59-1.134-9.003-0.643-12.929,2.227c-3.096,2.262-4.667,5.462-5.221,9.166c-0.631,4.235-0.07,8.292,2.572,11.795
	c3.682,4.88,8.76,6.326,14.573,5.352c4.16-0.696,7.441-2.857,9.397-6.728c0.512-1.016,1.207-0.868,2.032-0.512
	c5.285,2.28,10.576,4.55,15.864,6.823c0.537,0.231,1.087,0.44,1.607,0.706c1.118,0.574,1.461,1.403,0.91,2.498
	c-5.34,10.6-13.371,17.741-25.432,19.61c-8.033,1.245-15.927,0.731-23.503-2.387c-11.276-4.644-18.069-13.082-20.553-24.958
	C237.057,89.486,236.896,86.445,236.525,83.447"/>
<path fill="#B93849" d="M236.525,83.447c0.283-9.393,2.782-17.97,8.789-25.301c5.83-7.115,13.43-11.204,22.498-12.49
	c7.238-1.027,14.373-0.472,21.235,2.187c8.103,3.14,13.92,8.732,17.401,16.708c1.269,2.909,1.218,2.979-1.693,4.21
	c-5.451,2.305-10.908,4.596-16.354,6.915c-0.679,0.289-1.158,0.296-1.515-0.444c-1.737-3.602-4.839-5.479-8.533-6.392
	c-4.59-1.134-9.003-0.643-12.929,2.227c-3.096,2.262-4.667,5.462-5.221,9.166c-0.631,4.235-0.07,8.292,2.572,11.795
	c3.682,4.88,8.76,6.326,14.573,5.352c4.16-0.696,7.441-2.857,9.397-6.728c0.512-1.016,1.207-0.868,2.032-0.512
	c5.285,2.28,10.576,4.55,15.864,6.823c0.537,0.231,1.087,0.44,1.607,0.706c1.118,0.574,1.461,1.403,0.91,2.498
	c-5.34,10.6-13.371,17.741-25.432,19.61c-8.033,1.245-15.927,0.731-23.503-2.387c-11.276-4.644-18.069-13.082-20.553-24.958
	C237.057,89.486,236.896,86.445,236.525,83.447"/>
<path fill="#B03545" d="M273.543,97.706c-4.349-0.056-8.147-1.76-11.067-5.63c-2.644-3.503-3.203-7.56-2.572-11.795
	c0.552-3.705,2.125-6.904,5.22-9.166c2.62-1.916,5.458-2.767,8.42-2.787V45.23c-2.001,0.029-4.013,0.187-6.033,0.473
	c-9.067,1.287-16.668,5.376-22.498,12.491c-6.007,7.331-8.506,15.908-8.789,25.301c0.37,2.998,0.532,6.039,1.148,8.986
	c2.484,11.876,9.276,20.314,20.554,24.958c5.081,2.092,10.305,3.006,15.618,3.01V97.706z"/>
<path fill="none" stroke="#D86777" stroke-width="4.864" stroke-linecap="round" stroke-linejoin="round" stroke-miterlimit="10" d="
	M243.852,72.56c1.105-3.647,2.776-6.935,5.029-9.92c5.229-6.926,12.146-10.763,21.147-11.728c1.557-0.168,3.098-0.252,4.584-0.252"
	/>
<path fill="#B93849" d="M461.031,95.958v-0.011h0.03c-0.001-24.323,0-28.322-0.001-32.32c0-0.684-0.011-1.369-0.057-2.051
	c-0.041-0.626-0.338-1.041-1.037-1.049c-0.356-0.003-0.714-0.054-1.07-0.054c-6.582-0.004-13.164-0.003-19.746-0.002
	c-1.877,0-1.877,0.002-1.877,1.857V95.11v0.837v0.055c-0.004,3.035-0.784,5.92-2.729,8.497c-2.806,3.72-6.448,5.385-10.612,5.483
	c-4.165-0.099-7.807-1.764-10.613-5.483c-1.985-2.631-2.759-5.584-2.73-8.688h-0.022c0-24.201,0-28.193-0.001-32.185
	c0-0.684-0.01-1.369-0.057-2.051c-0.041-0.626-0.338-1.041-1.037-1.049c-0.356-0.003-0.714-0.054-1.07-0.054
	c-6.582-0.004-13.164-0.003-19.746-0.002c-1.876,0-1.877,0.002-1.877,1.857v33.619h0.03c-0.012,0.219-0.023,0.437-0.03,0.658
	c0.371,2.998,0.533,6.04,1.148,8.985c1.563,7.477,4.836,13.589,9.858,18.251c4.693,4.763,10.611,7.938,18.072,9.095
	c2.706,0.42,5.395,0.634,8.062,0.622c2.667,0.012,5.357-0.202,8.063-0.622c1.857-0.288,3.619-0.701,5.291-1.233v2.431h0.007
	c-0.002,3.09-0.692,6.026-2.672,8.65c-3.683,4.88-8.588,6.327-14.402,5.352c-4.16-0.696-7.44-2.856-9.396-6.728
	c-0.513-1.014-1.207-0.868-2.033-0.511c-5.285,2.279-10.576,4.55-15.864,6.822c-0.537,0.231-1.087,0.44-1.606,0.707
	c-1.119,0.573-1.463,1.403-0.91,2.497c5.338,10.601,13.371,17.741,25.431,19.61c8.033,1.245,15.927,0.732,23.503-2.387
	c11.277-4.643,18.069-13.081,20.553-24.958c0.616-2.946,0.778-5.988,1.149-8.986c-0.001-0.023-0.002-0.046-0.003-0.069h0.003V96.862
	c0.01-0.085,0.019-0.171,0.03-0.257C461.054,96.388,461.042,96.173,461.031,95.958"/>
<path fill="#B03545" d="M423.617,148.457c-1.192,0.031-2.429-0.059-3.713-0.273c-4.16-0.697-7.441-2.856-9.396-6.728
	c-0.513-1.015-1.207-0.868-2.033-0.512c-5.285,2.28-10.576,4.551-15.864,6.823c-0.537,0.232-1.087,0.441-1.607,0.707
	c-1.118,0.573-1.461,1.403-0.91,2.497c5.339,10.6,13.371,17.741,25.433,19.61c2.715,0.421,5.415,0.635,8.092,0.622V148.457z"/>
<path fill="#B03545" d="M397.482,123.89c4.693,4.762,10.611,7.938,18.072,9.094c2.705,0.42,5.396,0.634,8.062,0.622v-23.577
	c-4.159-0.1-7.797-1.766-10.602-5.481c-1.984-2.631-2.758-5.583-2.729-8.688h-0.024c0-24.2,0.001-28.193,0-32.184
	c-0.001-0.684-0.011-1.369-0.056-2.051c-0.042-0.626-0.339-1.041-1.038-1.049c-0.356-0.003-0.713-0.054-1.07-0.054
	c-6.583-0.004-13.165-0.003-19.747-0.002c-1.876,0-1.877,0.002-1.877,1.857v33.62h0.031c-0.012,0.219-0.023,0.438-0.031,0.657
	c0.371,2.998,0.533,6.04,1.149,8.986C389.188,113.114,392.459,119.228,397.482,123.89"/>
<path fill="none" stroke="#D86777" stroke-width="4.864" stroke-linecap="round" stroke-linejoin="round" stroke-miterlimit="10" d="
	M405.778,101.285c0.623,2.362,1.683,4.539,3.169,6.511c3.674,4.869,8.812,7.518,14.856,7.658l0.128,0.003l0.127-0.003"/>
<path opacity="0.1" d="M303.941,130.997c0,1.587-13.131,2.874-29.328,2.874c-16.198,0-29.328-1.287-29.328-2.874
	s13.13-2.874,29.328-2.874C290.81,128.123,303.941,129.41,303.941,130.997"/>
<path fill="#FFFFFF" d="M92.56,45.23c0-7.149-5.795-12.944-12.944-12.944S66.671,38.081,66.671,45.23s5.796,12.944,12.945,12.944
	S92.56,52.379,92.56,45.23"/>
</svg>
