<?xml version="1.0" encoding="utf-8"?>
<!-- Generator: Adobe Illustrator 17.0.0, SVG Export Plug-In . SVG Version: 6.00 Build 0)  -->
<!DOCTYPE svg PUBLIC "-//W3C//DTD SVG 1.1//EN" "http://www.w3.org/Graphics/SVG/1.1/DTD/svg11.dtd">
<svg version="1.1" id="Layer_1" xmlns="http://www.w3.org/2000/svg" xmlns:xlink="http://www.w3.org/1999/xlink" x="0px" y="0px"
	 width="714.972px" height="759.139px" viewBox="0 0 714.972 759.139" enable-background="new 0 0 714.972 759.139"
	 xml:space="preserve">
<g>
	<path opacity="0.08" fill="#010101" d="M694.133,307.76c-9.092-16.905-20.733-37.012-22.928-40.793
		c-0.601-1.284-1.281-2.456-2.023-3.454l-28.3-38.08c-4.973-6.692-14.429-8.085-21.121-3.112c-0.848,0.63-1.609,1.333-2.284,2.092
		l-0.001-0.001c-0.307,0.345-0.593,0.702-0.863,1.069c-0.097,0.132-0.183,0.271-0.276,0.405c-0.171,0.248-0.34,0.497-0.495,0.754
		c-0.098,0.163-0.187,0.33-0.278,0.496c-0.132,0.239-0.26,0.478-0.379,0.722c-0.085,0.177-0.164,0.355-0.242,0.534
		c-0.106,0.244-0.207,0.49-0.3,0.738c-0.068,0.182-0.134,0.365-0.195,0.549c-0.085,0.256-0.16,0.515-0.231,0.775
		c-0.049,0.18-0.1,0.36-0.143,0.542c-0.062,0.267-0.111,0.536-0.159,0.805c-5.178-3.597-12.272-3.693-17.611,0.275
		c-0.848,0.63-1.609,1.333-2.284,2.092l-0.001-0.001c-0.307,0.345-0.593,0.702-0.863,1.069c-0.098,0.132-0.183,0.271-0.276,0.406
		c-0.171,0.248-0.34,0.497-0.495,0.754c-0.098,0.163-0.186,0.33-0.278,0.496c-0.132,0.239-0.261,0.478-0.379,0.723
		c-0.085,0.177-0.165,0.355-0.243,0.535c-0.106,0.243-0.206,0.488-0.299,0.736c-0.069,0.183-0.135,0.366-0.196,0.551
		c-0.085,0.256-0.16,0.514-0.231,0.774c-0.049,0.181-0.101,0.36-0.143,0.542c-0.062,0.267-0.111,0.535-0.159,0.805
		c-5.178-3.597-12.272-3.693-17.611,0.275c-0.848,0.63-1.609,1.333-2.284,2.092l-0.001-0.001c-0.307,0.344-0.593,0.702-0.863,1.069
		c-0.098,0.133-0.183,0.272-0.277,0.407c-0.171,0.248-0.34,0.496-0.494,0.753c-0.098,0.163-0.186,0.33-0.278,0.496
		c-0.132,0.239-0.26,0.478-0.379,0.722c-0.085,0.177-0.164,0.355-0.243,0.534c-0.106,0.244-0.206,0.489-0.3,0.738
		c-0.068,0.183-0.134,0.365-0.196,0.55c-0.085,0.256-0.16,0.514-0.231,0.774c-0.027,0.1-0.064,0.198-0.089,0.298l-32.355-43.535
		c-4.973-6.692-14.429-8.085-21.121-3.112c-6.692,4.973-8.085,14.429-3.112,21.121l43.419,58.423l0.02,10.356l0,0l0.061,31.622
		c0.332,4.436,2.604,8.501,6.21,11.107l49.681,36.027c12.813,9.26,30.151,9.145,42.839-0.285l35.724-26.55
		C700.52,336.569,704.213,326.502,694.133,307.76z"/>
	<g>
		<path fill="#C07759" d="M682.86,268.202c-7.109,5.284-17.155,3.804-22.439-3.306l-33.971-45.71
			c-5.284-7.109-3.804-17.155,3.306-22.439c7.109-5.284,17.155-3.804,22.439,3.306l30.066,40.456
			C687.545,247.619,689.969,262.919,682.86,268.202z"/>
	</g>
	<path fill="#AB644B" d="M658.694,241.173l-31.365-42.204c-4.948,5.56-5.493,14.008-0.879,20.217l26.552,35.727l4.119-3.061
		C660.504,249.338,661.209,244.557,658.694,241.173z"/>
	<g>
		<path fill="#C07759" d="M661.844,283.821c-7.109,5.284-17.155,3.804-22.439-3.306l-37.876-50.964
			c-5.284-7.109-3.804-17.155,3.306-22.439c7.109-5.284,17.155-3.804,22.439,3.306l37.876,50.964
			C670.433,268.492,668.953,278.537,661.844,283.821z"/>
	</g>
	<path fill="#AB644B" d="M633.774,251.538l-31.365-42.204c-4.948,5.56-5.493,14.008-0.879,20.217l26.552,35.727l4.119-3.061
		C635.584,259.703,636.288,254.922,633.774,251.538z"/>
	<g>
		<path fill="#C07759" d="M636.923,294.186c-7.109,5.284-17.155,3.804-22.439-3.306l-37.876-50.964
			c-5.284-7.109-3.804-17.155,3.306-22.439c7.109-5.284,17.155-3.804,22.439,3.306l37.876,50.964
			C645.513,278.856,644.033,288.902,636.923,294.186z"/>
	</g>
	<path fill="#AB644B" d="M608.853,261.903l-31.365-42.204c-4.948,5.56-5.493,14.008-0.879,20.217l26.552,35.727l4.119-3.061
		C610.663,270.068,611.368,265.287,608.853,261.903z"/>
	<path fill="#C07759" d="M602.679,299.646l-8.071-5.834l-2.684-35.832c-0.661-8.833-8.358-15.457-17.19-14.795
		c-8.834,0.66-15.457,8.357-14.795,17.19l0.087,45.608c0.353,4.713,2.767,9.031,6.598,11.8l52.781,38.275
		c13.613,9.838,32.032,9.715,45.512-0.303l37.953-28.207c12.683-9.426,16.607-20.121,5.898-40.033
		c-10.709-19.912-24.751-44.013-24.751-44.013L602.679,299.646z"/>
	<path fill="#AB644B" d="M610.564,319.077l-49.314-66.355c-1.027,2.33-1.514,4.938-1.311,7.654l0.023,12.013l35.804,48.176
		c2.515,3.384,7.296,4.088,10.68,1.573L610.564,319.077z"/>
	<path fill="#C07759" d="M646.901,351.508c-7.109,5.284-17.155,3.804-22.439-3.306L513.813,199.318
		c-5.284-7.109-3.804-17.155,3.306-22.439s17.155-3.804,22.439,3.306l110.649,148.885
		C655.49,336.178,654.01,346.224,646.901,351.508z"/>
	<path fill="#E69F7A" d="M521.544,182.833c-5.07,3.768-7.237,9.467-4.832,12.704l9.889,13.307c0,0,2.693-4.992,7.763-8.76
		c5.07-3.768,10.626-4.907,10.626-4.907l-9.889-13.307C532.696,178.634,526.614,179.066,521.544,182.833z"/>
</g>
<g>
	<g>
		<path fill="#FFFFFF" d="M437.416,198.281H306.893c-2.595,0-4.7-2.104-4.7-4.7v0c0-2.596,2.104-4.7,4.7-4.7h130.523
			c2.596,0,4.7,2.104,4.7,4.7v0C442.116,196.177,440.012,198.281,437.416,198.281z"/>
	</g>
	<g>
		<path fill="#FFFFFF" d="M282.494,198.281h-70.523c-2.596,0-4.7-2.104-4.7-4.7v0c0-2.596,2.104-4.7,4.7-4.7h70.523
			c2.596,0,4.7,2.104,4.7,4.7v0C287.194,196.177,285.09,198.281,282.494,198.281z"/>
	</g>
	<g>
		<path fill="#FFFFFF" d="M187.572,198.281h-40.523c-2.596,0-4.7-2.104-4.7-4.7v0c0-2.596,2.104-4.7,4.7-4.7h40.523
			c2.596,0,4.7,2.104,4.7,4.7v0C192.271,196.177,190.167,198.281,187.572,198.281z"/>
	</g>
	<g>
		<path fill="#FFFFFF" d="M122.649,198.281H97.126c-2.596,0-4.7-2.104-4.7-4.7v0c0-2.596,2.104-4.7,4.7-4.7h25.523
			c2.596,0,4.7,2.104,4.7,4.7v0C127.349,196.177,125.245,198.281,122.649,198.281z"/>
	</g>
	<g>
		<path fill="#FFFFFF" d="M72.727,198.281h-5.523c-2.596,0-4.7-2.104-4.7-4.7v0c0-2.596,2.104-4.7,4.7-4.7h5.523
			c2.596,0,4.7,2.104,4.7,4.7v0C77.427,196.177,75.323,198.281,72.727,198.281z"/>
	</g>
	<g>
		<path fill="#FFFFFF" d="M439.093,196.904l-36.834-36.834c-1.835-1.835-1.835-4.811,0-6.646v0c1.835-1.835,4.811-1.835,6.646,0
			l36.834,36.834c1.835,1.835,1.835,4.811,0,6.646h0C443.904,198.74,440.929,198.74,439.093,196.904z"/>
	</g>
	<g>
		<path fill="#FFFFFF" d="M408.905,233.739l36.834-36.834c1.835-1.835,1.835-4.811,0-6.646h0c-1.835-1.835-4.811-1.835-6.646,0
			l-36.834,36.834c-1.835,1.835-1.835,4.811,0,6.646l0,0C404.094,235.574,407.07,235.574,408.905,233.739z"/>
	</g>
</g>
<g>
	<g id="iIgcNd.tif">
		<g>
			<path fill="#E1EAA0" d="M225.397,31.445c0,3.356,0,6.566,0,9.855c-2.73,0-5.303,0-7.971,0c0-10.559,0-21.117,0-31.745
				c2.472,0,4.927,0,7.506,0c0.032,0.726,0.064,1.43,0.104,2.327c1.409-1.681,3.16-2.426,5.17-2.701
				c5.904-0.806,10.88,2.598,12.201,8.421c0.657,2.895,0.551,5.79-0.213,8.654C240.035,34.348,230.204,35.959,225.397,31.445z
				 M234.912,21.72c0.055-2.939-1.896-5.084-4.658-5.122c-2.79-0.038-4.745,1.915-4.819,4.814c-0.076,3.004,1.944,5.166,4.853,5.193
				C232.919,26.63,234.858,24.581,234.912,21.72z"/>
			<path fill="#E1EAA0" d="M439.813,11.323c0-3.569,0-7.04,0-10.613c2.59,0,5.124,0,7.819,0c0.019,0.369,0.058,0.787,0.058,1.206
				c0.003,10.03-0.018,20.06,0.03,30.09c0.006,1.23-0.349,1.617-1.56,1.528c-1.391-0.103-2.796-0.024-4.194-0.024
				c-1.863,0-1.863,0-2.008-1.92c-1.917,1.908-4.25,2.28-6.745,2.177c-2.506-0.103-4.795-0.791-6.748-2.402
				c-2.28-1.881-3.345-4.407-3.757-7.261c-0.48-3.323-0.156-6.514,1.457-9.528c3.127-5.843,11.413-6.867,15.284-3.348
				C439.496,11.271,439.584,11.266,439.813,11.323z M430.415,21.554c-0.001,2.926,2.04,5.005,4.918,5.01
				c2.707,0.005,4.661-2.083,4.66-4.982c0-2.845-1.984-4.914-4.731-4.934C432.415,16.626,430.416,18.649,430.415,21.554z"/>
			<path fill="#E1EAA0" d="M391.016,33.482c-2.322,0-4.516,0.027-6.707-0.036c-0.256-0.007-0.66-0.477-0.712-0.781
				c-0.11-0.646-0.034-1.324-0.034-2.316c-2.211,3.287-5.252,3.744-8.498,3.314c-3.44-0.456-6.099-2.22-7.795-5.322
				c-2.652-4.853-2.126-11.366,1.402-15.395c2.636-3.01,5.987-4.301,9.99-3.46c1.83,0.384,3.257,1.437,4.47,3.313
				c0-1.273,0-2.231,0-3.246c2.698,0,5.238,0,7.884,0C391.016,17.483,391.016,25.402,391.016,33.482z M373.544,21.605
				c-0.005,2.882,2.011,4.951,4.825,4.952c2.709,0.001,4.724-2.087,4.753-4.928c0.03-2.908-1.976-4.996-4.788-4.982
				C375.479,16.662,373.549,18.659,373.544,21.605z"/>
			<path fill="#E1EAA0" d="M418.28,33.438c-2.584,0-5.131,0-7.786,0c-0.039-0.531-0.106-1.035-0.107-1.539
				c-0.011-4.356,0.013-8.711-0.024-13.067c-0.014-1.624-0.705-2.619-1.899-3.014c-1.402-0.464-3.127,0.013-3.962,1.237
				c-0.333,0.487-0.532,1.166-0.538,1.76c-0.044,4.395-0.022,8.791-0.027,13.187c-0.001,0.467-0.043,0.934-0.068,1.417
				c-2.702,0-5.284,0-7.936,0c0-7.959,0-15.854,0-23.925c2.369,0,4.748-0.022,7.126,0.038c0.214,0.005,0.557,0.526,0.594,0.837
				c0.088,0.738,0.028,1.494,0.131,2.306c1.828-2.987,4.582-3.979,7.845-3.889c3.971,0.109,6.597,2.376,6.724,6.33
				c0.193,5.987,0.06,11.984,0.061,17.977C418.413,33.165,418.36,33.238,418.28,33.438z"/>
			<path fill="#E1EAA0" d="M185.869,23.067c-1.593,3.426-3.087,6.686-4.638,9.919c-0.215,0.447-0.708,0.761-1.073,1.136
				c-0.282-0.408-0.648-0.78-0.833-1.228c-3.082-7.435-6.142-14.88-9.204-22.323c-0.118-0.287-0.214-0.584-0.396-1.084
				c2.141,0,4.151,0,6.161,0c2.046,0,2.06-0.005,2.765,1.882c0.933,2.497,1.843,5.003,2.837,7.706
				c1.178-2.817,2.281-5.456,3.384-8.095c0.108-0.257,0.166-0.548,0.324-0.768c0.192-0.267,0.51-0.697,0.693-0.66
				c0.307,0.062,0.668,0.387,0.801,0.691c1.119,2.555,2.19,5.131,3.278,7.699c0.119,0.28,0.258,0.552,0.498,1.065
				c0.746-2.069,1.401-3.928,2.089-5.775c0.457-1.226,0.642-2.87,1.536-3.525c0.843-0.618,2.454-0.2,3.728-0.216
				c1.222-0.016,2.444-0.003,3.881-0.003c-0.831,2.061-1.581,3.935-2.341,5.804c-2.401,5.906-4.798,11.814-7.224,17.71
				c-0.18,0.436-0.575,0.784-0.87,1.172c-0.313-0.385-0.723-0.727-0.925-1.164c-1.335-2.895-2.626-5.811-3.93-8.72
				C186.251,23.934,186.094,23.575,185.869,23.067z"/>
			<path fill="#E1EAA0" d="M302.726,23.486c-0.03,1.697,0.702,2.867,2.086,3.552c2.921,1.444,5.316,0.419,7.52-1.983
				c0.981,1.385,1.906,2.658,2.796,3.954c1.349,1.964,1.303,2.125-0.765,3.326c-5.504,3.198-12.882,2.148-16.671-2.284
				c-4.28-5.005-4.406-16.425,4.067-20.052c3.441-1.473,6.994-1.654,10.449-0.036c5.564,2.607,6.506,8.425,5.542,12.869
				c-0.064,0.297-0.844,0.619-1.294,0.624c-4.115,0.048-8.231,0.028-12.346,0.029C303.677,23.486,303.243,23.486,302.726,23.486z
				 M310.611,19.282c-0.286-2.656-1.808-4.112-4.083-4c-2.198,0.109-3.706,1.7-3.75,4C305.361,19.282,307.943,19.282,310.611,19.282
				z"/>
			<path fill="#E1EAA0" d="M254.004,23.486c0.011,1.821,0.82,2.995,2.274,3.649c2.854,1.283,5.186,0.291,7.248-1.997
				c0.289,0.307,0.552,0.528,0.744,0.799c0.854,1.204,1.701,2.414,2.525,3.639c0.853,1.268,0.82,1.521-0.504,2.356
				c-2.94,1.856-6.135,2.585-9.601,2.107c-5.095-0.703-8.619-3.416-9.955-8.394c-1.398-5.209-0.721-10.114,3.55-13.934
				c3.802-3.401,10.511-3.788,14.638-0.95c4.371,3.006,4.958,8.102,4.129,12.037c-0.064,0.305-0.827,0.652-1.269,0.657
				c-4.115,0.05-8.23,0.03-12.346,0.03C255.001,23.486,254.566,23.486,254.004,23.486z M261.885,19.27
				c-0.21-2.548-1.659-4.009-3.91-3.991c-2.241,0.017-3.784,1.56-3.941,3.991C256.652,19.27,259.267,19.27,261.885,19.27z"/>
			<path fill="#E1EAA0" d="M157.882,34.697c-2.214-0.575-4.408-0.98-6.476-1.731c-1.738-0.632-2.854-2.117-3.693-3.769
				c-0.339-0.667-0.315-1.075,0.492-1.353c1.394-0.48,2.769-1.018,4.126-1.595c0.578-0.246,0.834-0.081,1.145,0.407
				c1.17,1.835,2.848,2.509,4.929,2.023c0.858-0.201,1.617-0.583,1.761-1.559c0.145-0.99-0.468-1.629-1.284-1.944
				c-1.297-0.5-2.649-0.857-3.976-1.278c-0.683-0.217-1.374-0.415-2.045-0.667c-3.444-1.295-4.905-3.237-4.951-6.55
				c-0.045-3.246,1.515-5.671,4.768-6.879c3.915-1.454,7.895-1.528,11.782,0.187c1.551,0.684,2.648,1.865,3.3,3.469
				c0.305,0.749,0.119,1.082-0.617,1.318c-1.442,0.462-2.883,0.941-4.288,1.501c-0.628,0.25-0.905,0.072-1.269-0.419
				c-1.153-1.555-2.761-2.029-4.567-1.522c-0.529,0.149-1.161,0.785-1.267,1.297c-0.076,0.366,0.562,1.153,1.029,1.309
				c1.696,0.566,3.456,0.939,5.188,1.396c0.538,0.142,1.076,0.294,1.6,0.481c2.967,1.062,5.112,2.875,5.253,6.255
				c0.148,3.552-1.27,6.406-4.563,7.872C162.301,33.818,160.085,34.115,157.882,34.697z"/>
			<path fill="#E1EAA0" d="M322.457,15.625c-2.382-0.304-2.382-0.304-2.382-2.651c0-0.72,0.061-1.446-0.014-2.158
				c-0.112-1.062,0.289-1.489,1.348-1.335c0.304,0.044,0.621,0.007,1.057,0.007c0-1.053-0.024-2.003,0.004-2.951
				c0.122-4.032,2.139-6.19,6.161-6.497c2.651-0.202,5.078,0.355,7,2.387c0.491,0.519,0.617,0.938,0.158,1.555
				c-0.634,0.853-1.184,1.769-1.829,2.747c-0.853-1.005-1.841-1.653-2.976-0.97c-1.421,0.856-0.751,2.337-0.898,3.685
				c1.389,0,2.656,0,4.114,0c0,1.941,0.021,3.798-0.037,5.653c-0.005,0.158-0.524,0.409-0.817,0.429
				c-0.868,0.057-1.743,0.021-2.78,0.021c0,0.535,0,0.959,0,1.382c0,5.118-0.02,10.237,0.018,15.355
				c0.007,0.928-0.234,1.264-1.209,1.223c-1.836-0.078-3.681-0.085-5.516,0.001c-1.091,0.051-1.441-0.26-1.427-1.389
				c0.059-5.038,0.025-10.077,0.025-15.115C322.457,16.566,322.457,16.129,322.457,15.625z"/>
			<path fill="#E1EAA0" d="M347.992,9.488c1.226,0,2.416,0.019,3.605-0.008c0.612-0.014,0.86,0.21,0.847,0.839
				c-0.029,1.439-0.037,2.879,0.002,4.318c0.02,0.744-0.298,0.995-0.994,0.981c-1.117-0.022-2.234-0.006-3.435-0.006
				c-0.037,0.236-0.111,0.497-0.112,0.758c-0.009,2.559-0.023,5.118,0.001,7.677c0.02,2.218,1.008,3.118,3.215,3.002
				c1.589-0.084,1.586-0.083,1.812,1.546c0.099,0.712,0.2,1.424,0.323,2.132c0.322,1.855,0.32,1.837-1.378,2.556
				c-2.346,0.994-4.751,1.014-7.155,0.355c-2.863-0.785-4.581-3.144-4.735-6.625c-0.145-3.273-0.115-6.554-0.16-9.831
				c-0.006-0.476-0.001-0.951-0.001-1.477c-0.298-0.062-0.519-0.149-0.74-0.149c-1.842-0.001-1.734,0.227-1.738-1.75
				c-0.002-1,0.065-2.005-0.018-2.997c-0.09-1.071,0.31-1.479,1.359-1.329c0.31,0.045,0.633,0.007,1.276,0.007
				c0-1.834,0.046-3.614-0.019-5.389c-0.035-0.946,0.281-1.268,1.224-1.238c1.797,0.057,3.599,0.049,5.397,0.003
				c1.101-0.028,1.484,0.43,1.441,1.51C347.944,6.008,347.992,7.647,347.992,9.488z"/>
			<path fill="#E1EAA0" d="M283.181,0.645c2.632,0,5.182,0,7.854,0c0,10.913,0,21.791,0,32.754c-2.602,0-5.178,0-7.854,0
				C283.181,22.531,283.181,11.649,283.181,0.645z"/>
			<path fill="#E1EAA0" d="M212.577,33.441c-2.681,0-5.229,0-7.87,0c0-7.966,0-15.89,0-23.884c2.595,0,5.175,0,7.87,0
				C212.577,17.486,212.577,25.408,212.577,33.441z"/>
			<path fill="#E1EAA0" d="M204.618,0.659c2.726,0,5.272,0,8.044,0c0,1.868,0.022,3.722-0.033,5.573
				c-0.006,0.195-0.465,0.535-0.719,0.54c-2.157,0.043-4.315,0.052-6.471-0.008c-0.28-0.008-0.775-0.457-0.785-0.717
				C204.584,4.298,204.618,2.545,204.618,0.659z"/>
		</g>
	</g>
	<path fill="#E1EAA0" d="M502.092,32.927c1.711,0.648,3.302,1.409,4.978,1.833c1.206,0.305,2.548,0.337,3.791,0.182
		c2.838-0.354,4.059-2.164,4.039-5.651c-0.069-0.011-0.175-0.059-0.205-0.029c-3.182,3.164-6.956,3.072-10.795,1.737
		c-3.812-1.325-5.656-4.341-6.242-8.215c-0.491-3.247-0.202-6.386,1.493-9.266c3.056-5.193,10.711-6.594,15.374-2.852
		c0.083,0.067,0.193,0.101,0.377,0.193c0.033-0.65,0.062-1.23,0.1-1.983c2.438,0,4.857-0.023,7.275,0.044
		c0.196,0.005,0.53,0.624,0.537,0.963c0.048,2.317,0.046,4.635,0.021,6.953c-0.044,4.035,0.012,8.076-0.228,12.1
		c-0.127,2.121-0.587,4.278-1.256,6.3c-1.352,4.091-4.454,6.136-8.632,6.745c-4.357,0.634-8.396-0.435-12.298-2.23
		c-0.298-0.137-0.666-0.752-0.58-0.995C500.542,36.774,501.344,34.827,502.092,32.927z M510.155,25.507
		c2.708,0.019,4.729-1.939,4.778-4.628c0.05-2.752-2.1-5.014-4.742-4.988c-2.721,0.026-4.79,2.066-4.828,4.761
		C505.324,23.461,507.325,25.488,510.155,25.507z"/>
	<path fill="#E1EAA0" d="M535.695,0.084c0,3.942,0,7.884,0,12.073c0.288-0.247,0.407-0.306,0.46-0.401
		c2.278-4.106,7.742-4.192,10.581-2.846c2.306,1.093,3.381,3.145,3.433,5.516c0.134,6.071,0.045,12.146,0.045,18.328
		c-2.596,0-5.169,0-7.888,0c-0.038-0.434-0.119-0.928-0.12-1.423c-0.01-4.198,0.019-8.396-0.029-12.594
		c-0.009-0.811-0.142-1.701-0.503-2.409c-0.596-1.169-2.111-1.553-3.604-1.134c-1.368,0.384-2.304,1.505-2.307,2.838
		c-0.011,4.438-0.003,8.876-0.007,13.314c0,0.47-0.039,0.94-0.062,1.46c-2.687,0-5.268,0-7.932,0c0-10.908,0-21.766,0-32.722
		C530.336,0.084,532.948,0.084,535.695,0.084z"/>
	<path fill="#E1EAA0" d="M556.111,15.135c-0.21-0.106-0.278-0.166-0.351-0.174c-2.128-0.225-2.128-0.224-2.128-2.345
		c0-0.84,0.047-1.683-0.013-2.518c-0.066-0.914,0.209-1.378,1.203-1.242c0.386,0.053,0.785,0.009,1.37,0.009
		c0-2.205,0-4.312,0-6.563c2.573,0,4.958-0.041,7.337,0.057c0.267,0.011,0.694,0.798,0.716,1.241
		c0.084,1.705,0.034,3.417,0.034,5.265c1.155,0,2.302,0.026,3.448-0.01c0.687-0.022,1.031,0.154,1.004,0.93
		c-0.049,1.398-0.05,2.8,0,4.197c0.029,0.828-0.358,1.033-1.085,1.014c-1.109-0.028-2.219-0.007-3.416-0.007
		c0,3.111-0.088,6.179,0.036,9.239c0.064,1.582,1.188,2.271,2.986,2.206c1.735-0.063,1.729-0.062,1.974,1.626
		c0.143,0.988,0.387,1.968,0.428,2.959c0.017,0.406-0.271,1.036-0.605,1.213c-2.671,1.413-5.491,1.601-8.349,0.668
		c-3.103-1.014-4.255-3.503-4.418-6.477c-0.181-3.31-0.126-6.633-0.171-9.951C556.105,16.003,556.111,15.534,556.111,15.135z"/>
	<g>
		<g>
			<path fill="#E1EAA0" d="M307.091,81.628c-7.515-0.03-12.683-5.247-12.669-12.789c0.014-7.409,5.403-12.744,12.825-12.695
				c7.297,0.048,12.593,5.416,12.546,12.717C319.746,76.456,314.57,81.657,307.091,81.628z M307.203,63.815
				c-2.793-0.017-4.871,2.148-4.876,5.081c-0.005,2.946,2.146,5.243,4.907,5.24c2.623-0.003,4.685-2.296,4.666-5.19
				C311.881,65.989,309.906,63.831,307.203,63.815z"/>
			<path fill="#E1EAA0" d="M278.826,56.857c0-1.86,0.056-3.616-0.021-5.366c-0.046-1.042,0.366-1.295,1.323-1.262
				c1.757,0.06,3.519,0.049,5.277,0.004c1.08-0.028,1.508,0.387,1.465,1.487c-0.066,1.666-0.017,3.336-0.017,5.138
				c1.166,0,2.314,0.028,3.461-0.01c0.697-0.023,1.022,0.172,0.996,0.939c-0.048,1.398-0.05,2.8,0,4.197
				c0.029,0.836-0.375,1.023-1.093,1.006c-1.108-0.027-2.218-0.007-3.406-0.007c0,3.117-0.089,6.187,0.037,9.247
				c0.065,1.58,1.19,2.265,2.992,2.197c1.725-0.064,1.719-0.064,1.966,1.634c0.144,0.987,0.387,1.969,0.428,2.959
				c0.017,0.405-0.277,1.032-0.613,1.209c-2.673,1.409-5.493,1.597-8.35,0.66c-3.102-1.018-4.249-3.509-4.411-6.483
				c-0.18-3.31-0.125-6.633-0.17-9.951c-0.006-0.468-0.001-0.936-0.001-1.333c-0.218-0.106-0.286-0.163-0.359-0.171
				c-2.12-0.213-2.12-0.213-2.12-2.352c0-0.84,0.05-1.683-0.013-2.518c-0.07-0.928,0.231-1.365,1.211-1.233
				C277.791,56.9,278.188,56.857,278.826,56.857z"/>
		</g>
		<g>
			<path fill="#E1EAA0" d="M334.343,56.89c2.557,0,5.029,0,7.658,0c0,1.039,0,2.05,0,3.062c1.878-2.632,4.332-3.871,7.452-3.799
				c3.116,0.071,5.62,1.129,6.72,4.382c2.279-3.98,6.542-5.462,10.814-3.798c2.279,0.888,3.453,2.665,3.733,5.007
				c0.184,1.541,0.191,3.109,0.2,4.665c0.024,4.358-0.029,8.717,0.034,13.074c0.016,1.131-0.342,1.435-1.433,1.394
				c-2.154-0.08-4.313-0.024-6.622-0.024c-0.028-0.477-0.074-0.896-0.075-1.315c-0.005-4.078-0.002-8.157-0.005-12.235
				c0-0.48,0.014-0.963-0.039-1.438c-0.168-1.497-0.924-2.453-2.122-2.737c-1.366-0.324-3.009,0.243-3.701,1.387
				c-0.249,0.411-0.348,0.971-0.351,1.465c-0.026,4.478-0.015,8.956-0.015,13.434c0,0.428,0,0.857,0,1.362c-2.72,0-5.299,0-7.98,0
				c-0.028-0.481-0.079-0.95-0.08-1.419c-0.006-3.878-0.001-7.757-0.007-11.635c-0.001-0.559-0.013-1.12-0.065-1.677
				c-0.25-2.654-2.583-3.825-4.856-2.444c-0.888,0.539-1.316,1.271-1.304,2.369c0.045,4.438,0.019,8.876,0.019,13.314
				c0,0.471,0,0.942,0,1.491c-2.718,0-5.296,0-7.977,0C334.343,72.859,334.343,64.932,334.343,56.89z"/>
			<path fill="#E1EAA0" d="M387.507,81.628c-7.515-0.013-12.702-5.225-12.698-12.76c0.004-7.419,5.375-12.759,12.796-12.724
				c7.301,0.035,12.596,5.378,12.575,12.688C400.159,76.415,394.984,81.64,387.507,81.628z M382.713,68.911
				c0,2.944,2.159,5.237,4.922,5.226c2.619-0.01,4.679-2.314,4.652-5.204c-0.028-2.961-2.003-5.107-4.711-5.117
				C384.784,63.805,382.713,65.974,382.713,68.911z"/>
			<path fill="#E1EAA0" d="M434.756,70.856c-0.038,1.689,0.684,2.844,2.018,3.519c2.948,1.493,5.385,0.473,7.618-1.987
				c1.27,1.872,2.486,3.581,3.572,5.37c0.141,0.231-0.27,1.037-0.628,1.294c-2.733,1.965-5.843,2.762-9.161,2.455
				c-5.136-0.474-8.99-2.913-10.538-8.005c-1.614-5.309-1.052-10.338,3.275-14.31c5.176-4.752,14.221-3.663,17.65,2.033
				c1.651,2.742,1.793,5.729,1.324,8.804c-0.127,0.833-0.703,0.829-1.327,0.829c-4.115-0.004-8.231-0.002-12.346-0.002
				C435.776,70.856,435.34,70.856,434.756,70.856z M442.638,66.651c-0.284-2.655-1.807-4.112-4.082-4
				c-2.197,0.108-3.705,1.698-3.751,4C437.387,66.651,439.969,66.651,442.638,66.651z"/>
			<path fill="#E1EAA0" d="M426.62,56.857c-0.236,0.571-0.364,0.944-0.539,1.294c-3.73,7.451-7.46,14.902-11.216,22.34
				c-0.233,0.461-0.683,0.812-1.032,1.213c-0.394-0.402-0.918-0.738-1.162-1.217c-3.819-7.497-7.602-15.013-11.39-22.526
				c-0.14-0.278-0.244-0.574-0.416-0.984c0.38-0.048,0.669-0.115,0.958-0.116c2.278-0.009,4.558,0.043,6.834-0.028
				c0.951-0.03,1.4,0.242,1.715,1.181c0.987,2.946,2.092,5.853,3.159,8.772c0.12,0.329,0.284,0.643,0.527,1.186
				c1.194-3.431,2.363-6.636,3.406-9.881c0.318-0.989,0.774-1.289,1.776-1.259C421.633,56.905,424.029,56.857,426.62,56.857z"/>
		</g>
	</g>
	<path fill="#E1EAA0" d="M470.888,32.821c-2.712,0-5.26,0-7.903,0c0-7.963,0-15.887,0-23.883c2.513,0,5.013,0,7.656,0
		c0.047,0.715,0.096,1.449,0.16,2.416c1.262-1.738,2.773-2.787,4.741-3.13c3.524-0.616,6.589,1.57,6.848,4.959
		c0.029,0.38-0.111,0.883-0.361,1.155c-1.326,1.439-2.692,2.845-4.093,4.211c-0.36,0.351-0.898,0.518-1.439,0.816
		c-0.135-0.649-0.199-1.08-0.316-1.495c-0.413-1.464-1.358-2.067-2.875-1.857c-1.351,0.187-2.331,1.249-2.333,2.577
		c-0.009,4.236-0.001,8.472-0.007,12.707C470.965,31.769,470.919,32.241,470.888,32.821z"/>
	<path fill="#E1EAA0" d="M493.649,32.82c-2.679,0-5.227,0-7.868,0c0-7.965,0-15.889,0-23.884c2.593,0,5.172,0,7.868,0
		C493.649,16.863,493.649,24.784,493.649,32.82z"/>
	<path fill="#E1EAA0" d="M485.689,0.053c2.73,0,5.309,0,8.052,0c0,1.857,0.027,3.686-0.037,5.512
		c-0.007,0.213-0.514,0.577-0.796,0.584c-2.116,0.049-4.235,0.059-6.351-0.01c-0.298-0.01-0.817-0.502-0.83-0.789
		C485.649,3.638,485.689,1.92,485.689,0.053z"/>
</g>
<g>
	<g>
		<g id="BIyiQw.tif">
			<g>
				<path fill="#FFFFFF" d="M478.494,535.47c0-1.031,0-2.439,0-3.967c3.977,0,7.799,0,11.807,0c0,11.855,0,23.766,0,35.963
					c-3.436,0-6.895,0.027-10.351-0.049c-0.285-0.006-0.747-0.687-0.794-1.093c-0.116-0.999-0.038-2.02-0.183-3.156
					c-1.57,2.295-3.699,3.662-6.307,4.324c-9.417,2.389-18.409-3.655-20.118-13.592c-1.1-6.393-0.106-12.328,4.215-17.418
					c3.99-4.699,10.884-6.839,16.084-4.699C474.91,532.63,476.658,534.242,478.494,535.47z M464.044,549.663
					c0.011,4.323,3.068,7.413,7.315,7.393c4.058-0.019,7.085-3.207,7.095-7.469c0.01-4.378-3.017-7.479-7.26-7.438
					C466.915,542.192,464.033,545.22,464.044,549.663z"/>
				<path fill="#FFFFFF" d="M389.69,568.641c-11.304-0.01-19.118-7.851-19.116-19.181c0.002-11.164,8.074-19.202,19.236-19.155
					c10.986,0.046,18.951,8.071,18.932,19.072C408.721,560.781,400.936,568.652,389.69,568.641z M382.464,549.501
					c-0.004,4.431,3.238,7.882,7.394,7.872c3.942-0.01,7.043-3.47,7.008-7.819c-0.036-4.453-3.007-7.688-7.078-7.708
					C385.589,541.826,382.468,545.087,382.464,549.501z"/>
				<path fill="#FFFFFF" d="M270.877,552.437c-0.059,2.577,1.072,4.327,3.16,5.355c4.4,2.165,7.997,0.597,11.352-3.057
					c1.91,2.846,3.735,5.482,5.424,8.202c0.183,0.295-0.256,1.301-0.675,1.595c-6.202,4.354-12.957,5.223-20,2.567
					c-6.434-2.426-9.83-7.428-10.798-14.122c-1-6.923,0.324-13.176,5.711-18.072c6.228-5.66,17.281-5.976,23.428-0.668
					c5.31,4.585,6.141,10.575,5.122,17.087c-0.2,1.279-1.207,1.11-2.092,1.111c-6.191,0.005-12.382,0.003-18.573,0.003
					C272.283,552.437,271.629,552.437,270.877,552.437z M282.743,546.115c-0.459-4.024-2.743-6.197-6.163-6.019
					c-3.309,0.173-5.59,2.594-5.612,6.019C274.853,546.115,278.737,546.115,282.743,546.115z"/>
				<path fill="#FFFFFF" d="M309.119,552.437c0.036,2.761,1.254,4.528,3.45,5.5c4.292,1.9,7.812,0.447,10.783-2.945
					c0.384,0.294,0.727,0.45,0.914,0.715c1.517,2.161,2.985,4.357,4.51,6.513c0.713,1.008,0.521,1.761-0.454,2.419
					c-6.584,4.445-13.627,5.233-20.859,2.055c-6.826-2.999-9.733-8.836-10.111-15.986c-0.395-7.466,1.906-13.853,8.718-17.717
					c5.519-3.13,11.46-3.574,17.304-0.895c8.321,3.814,9.834,12.507,8.38,19.332c-0.096,0.453-1.256,0.957-1.927,0.965
					c-6.19,0.074-12.381,0.044-18.572,0.044C310.599,552.437,309.945,552.437,309.119,552.437z M321.023,546.112
					c-0.555-4.159-2.931-6.315-6.403-5.999c-3.248,0.296-5.454,2.754-5.346,5.999C313.157,546.112,317.042,546.112,321.023,546.112z
					"/>
				<path fill="#FFFFFF" d="M439.157,545.976c-3.463-4.285-8.73-5.082-11.983-1.942c-2.93,2.829-2.819,8.479,0.221,11.211
					c3.467,3.115,8.282,2.265,11.729-2.213c3.074,1.318,6.215,2.621,9.3,4.047c0.335,0.155,0.637,1.165,0.455,1.533
					c-2.839,5.75-7.389,9.225-13.839,9.906c-3.68,0.389-7.32,0.086-10.813-1.31c-8.672-3.468-12.005-11.818-10.87-20.263
					c1.98-14.722,15.884-19.494,27.02-15.066c3.979,1.582,6.776,4.508,8.372,8.487c0.185,0.462-0.069,1.547-0.412,1.704
					C445.299,543.46,442.193,544.707,439.157,545.976z"/>
				<path fill="#FFFFFF" d="M222.553,527.272c-1.255-1.581-2.712-2.456-4.369-1.564c-2.252,1.212-1.196,3.506-1.49,5.587
					c2.085,0,4.038,0,6.249,0c0,2.93,0.039,5.67-0.06,8.405c-0.01,0.28-0.834,0.719-1.306,0.757
					c-1.301,0.105-2.615,0.036-4.156,0.036c0,9.07,0,17.936,0,26.975c-3.89,0-7.546,0.046-11.197-0.076
					c-0.34-0.011-0.918-1.087-0.923-1.672c-0.063-7.519-0.042-15.038-0.042-22.557c0-0.832,0-1.665,0-2.636
					c-1.177-0.064-2.23-0.121-3.559-0.193c0-2.739-0.035-5.423,0.05-8.104c0.009-0.294,0.678-0.73,1.098-0.813
					c0.692-0.136,1.43-0.037,2.412-0.037c0-1.188-0.005-2.305,0.001-3.423c0.042-7.794,4.057-11.414,11.867-10.791
					c3.061,0.244,5.695,1.289,7.867,3.503c0.79,0.805,1.054,1.47,0.285,2.477C224.339,524.378,223.56,525.731,222.553,527.272z"/>
				<path fill="#FFFFFF" d="M240.351,567.403c-4.102,0-7.932,0-11.893,0c0-11.992,0-23.911,0-35.928c3.819,0,7.583,0,11.543,0
					c0.068,1.099,0.137,2.203,0.227,3.664c1.871-2.602,4.094-4.149,6.988-4.693c5.374-1.011,10.074,2.291,10.447,7.461
					c0.041,0.569-0.19,1.318-0.569,1.729c-1.997,2.163-4.05,4.279-6.16,6.332c-0.535,0.521-1.348,0.755-2.187,1.203
					c-0.143-0.892-0.194-1.425-0.317-1.941c-0.565-2.371-1.959-3.376-4.29-3.122c-2.171,0.237-3.655,1.889-3.658,4.112
					c-0.007,6.312,0.001,12.624-0.008,18.936C240.473,565.865,240.399,566.574,240.351,567.403z"/>
				<path fill="#FFFFFF" d="M364.838,567.415c-4.014,0-7.848,0-11.828,0c0-16.424,0-32.795,0-49.279c3.89,0,7.769,0,11.828,0
					C364.838,534.502,364.838,550.869,364.838,567.415z"/>
				<path fill="#FFFFFF" d="M497.768,518.078c3.958,0,7.793,0,11.814,0c0,16.415,0,32.779,0,49.271c-3.913,0-7.787,0-11.814,0
					C497.768,551.002,497.768,534.632,497.768,518.078z"/>
			</g>
		</g>
		<g id="xbrwrb.tif">
			<g>
				<path fill="#FFFFFF" d="M370.285,620.822c0,4.38,0.001,8.385,0,12.391c-0.001,2.707-0.003,2.707-2.727,2.707
					c-3.054,0-6.108,0-9.292,0c0-16.029,0-31.912,0-47.89c3.747,0,7.441,0,11.301,0c0,1.128,0,2.185,0,3.516
					c5.017-4.967,10.677-5.098,16.613-3.019c4.54,1.59,7.564,4.893,9.039,9.401c1.929,5.895,1.858,11.853-0.588,17.609
					C390.655,624.895,377.956,627.829,370.285,620.822z M384.575,606.412c0.111-4.432-2.78-7.675-6.929-7.773
					c-4.206-0.099-7.171,2.804-7.318,7.164c-0.152,4.529,2.845,7.801,7.223,7.883C381.517,613.76,384.468,610.704,384.575,606.412z"
					/>
				<path fill="#FFFFFF" d="M293.237,625.199c-11.298,0.035-19.171-7.802-19.192-19.105c-0.021-11.184,8.009-19.243,19.161-19.23
					c10.999,0.013,18.962,7.972,19.007,18.997C312.26,617.238,304.482,625.165,293.237,625.199z M285.938,606.003
					c-0.023,4.443,3.185,7.909,7.337,7.927c3.953,0.017,7.064-3.401,7.064-7.762c0.001-4.44-2.969-7.723-7.023-7.764
					C289.099,598.361,285.961,601.593,285.938,606.003z"/>
				<path fill="#FFFFFF" d="M420.667,625.199c-11.299,0.037-19.174-7.799-19.196-19.101c-0.022-11.117,7.915-19.162,18.976-19.234
					c11.088-0.072,19.142,7.898,19.192,18.993C439.689,617.233,431.911,625.162,420.667,625.199z M420.55,598.405
					c-4.174,0.033-7.231,3.346-7.188,7.79c0.042,4.334,3.263,7.724,7.349,7.735c3.951,0.011,7.06-3.415,7.053-7.774
					C427.757,601.633,424.722,598.372,420.55,598.405z"/>
				<path fill="#FFFFFF" d="M339.828,620.08c-3.886,5.019-12.304,6.593-17.487,3.518c-3.024-1.794-4.442-4.703-4.497-7.985
					c-0.149-8.836,0.006-17.677,0.056-26.515c0.002-0.34,0.17-0.679,0.298-1.157c3.628,0,7.226,0.004,10.825-0.002
					c1.294-0.002,0.992,0.962,0.989,1.676c-0.031,6.314-0.087,12.628-0.134,18.942c-0.005,0.601-0.026,1.204,0.005,1.803
					c0.161,3.114,1.816,4.684,4.75,4.659c2.311-0.019,5.08-1.858,4.985-4.991c-0.198-6.549-0.064-13.108-0.054-19.662
					c0.001-0.767,0.085-1.534,0.134-2.36c3.976,0,7.816,0,11.823,0c0,11.922,0,23.846,0,36.016c-3.522,0-7.104,0.027-10.684-0.048
					c-0.301-0.006-0.761-0.66-0.845-1.073C339.829,622.092,339.88,621.242,339.828,620.08z"/>
				<path fill="#FFFFFF" d="M478.468,623.966c-3.891,0-7.726,0-11.701,0c-0.055-0.822-0.148-1.586-0.149-2.351
					c-0.014-6.492,0.018-12.985-0.029-19.476c-0.019-2.562-1.047-4.095-2.898-4.688c-2.189-0.702-4.828,0.102-6.066,2.035
					c-0.45,0.702-0.668,1.67-0.675,2.52c-0.054,6.612-0.03,13.225-0.03,19.837c0,0.649,0,1.297,0,2.068c-4.08,0-7.957,0-11.993,0
					c0-11.884,0-23.805,0-35.967c3.482,0,7.005-0.04,10.524,0.059c0.373,0.011,0.965,0.807,1.035,1.298
					c0.157,1.095,0.049,2.227,0.21,3.423c2.756-4.519,6.917-5.982,11.827-5.84c5.905,0.17,9.844,3.49,10.057,9.377
					c0.329,9.063,0.102,18.147,0.104,27.222C478.683,623.588,478.593,623.694,478.468,623.966z"/>
				<path fill="#FFFFFF" d="M261.021,609.58c3.096,1.332,6.118,2.642,9.15,3.929c0.954,0.405,1.043,0.964,0.579,1.846
					c-3.13,5.943-7.929,9.357-14.711,9.788c-3.395,0.216-6.72-0.102-9.914-1.377c-8.678-3.465-12.009-11.814-10.875-20.259
					c1.978-14.724,15.877-19.498,27.017-15.073c3.979,1.581,6.777,4.505,8.375,8.484c0.186,0.463-0.064,1.549-0.406,1.706
					c-3.04,1.392-6.147,2.64-9.183,3.909c-3.481-4.284-8.728-5.081-11.982-1.945c-2.932,2.826-2.825,8.476,0.214,11.211
					C252.749,614.918,257.579,614.068,261.021,609.58z"/>
			</g>
		</g>
	</g>
	<g>
		<g id="eFiTTC.tif">
			<g>
				<path fill="#FFFFFF" d="M331.114,710.465c0-0.601,0-1.083,0-1.565c-0.002-2.588,0.009-5.177-0.015-7.765
					c-0.007-0.795-0.217-1.548-1.043-1.9c-0.79-0.336-1.607-0.276-2.229,0.304c-0.349,0.326-0.665,0.885-0.675,1.346
					c-0.061,2.869-0.031,5.74-0.031,8.61c0,0.279,0,0.558,0,0.903c-1.706,0-3.356,0-5.094,0c-0.023-0.262-0.07-0.554-0.071-0.847
					c-0.006-2.511-0.002-5.023-0.005-7.534c0-0.358-0.016-0.717-0.043-1.075c-0.067-0.86-0.425-1.532-1.292-1.812
					c-0.782-0.253-1.883,0.071-2.35,0.752c-0.198,0.289-0.278,0.71-0.28,1.072c-0.022,2.844-0.012,5.689-0.012,8.533
					c0,0.3,0,0.601,0,0.938c-1.76,0-3.415,0-5.123,0c0-5.089,0-10.152,0-15.278c1.599,0,3.223,0,4.943,0c0,0.638,0,1.289,0,1.941
					c1.165-1.698,2.725-2.488,4.706-2.455c1.993,0.033,3.619,0.681,4.345,2.799c1.317-2.596,3.524-3.08,6.084-2.66
					c1.833,0.301,3.043,1.543,3.24,3.398c0.138,1.294,0.127,2.607,0.136,3.912c0.019,2.537-0.011,5.074,0.017,7.611
					c0.007,0.608-0.178,0.802-0.79,0.784C334.102,710.436,332.67,710.465,331.114,710.465z"/>
				<path fill="#FFFFFF" d="M344.248,709.07c0,2.25,0,4.313,0,6.416c-1.747,0-3.398,0-5.1,0c0-6.776,0-13.525,0-20.337
					c1.572,0,3.164,0,4.828,0c0,0.466,0,0.915,0,1.516c1.604-1.775,3.531-2.052,5.607-1.729c1.819,0.283,3.322,1.135,4.415,2.651
					c2.13,2.956,1.854,8.407-0.5,11.075C351.448,710.983,346.768,711.62,344.248,709.07z M350.363,702.924
					c0.035-1.883-1.216-3.258-2.986-3.282c-1.788-0.024-3.041,1.229-3.088,3.087c-0.048,1.925,1.247,3.31,3.112,3.327
					C349.087,706.072,350.329,704.758,350.363,702.924z"/>
				<path fill="#FFFFFF" d="M254.111,689.42c1.685,0,3.319,0,5.068,0c0,2.563,0,5.105,0,7.647c0.94-1.327,2.116-2.149,3.666-2.357
					c3.073-0.412,5.617,0.784,5.664,4.594c0.043,3.51,0.012,7.021,0.011,10.532c0,0.175-0.029,0.349-0.049,0.574
					c-1.681,0-3.333,0-5.052,0c-0.022-0.32-0.064-0.644-0.065-0.969c-0.006-2.767,0.007-5.535-0.012-8.302
					c-0.008-1.094-0.444-1.746-1.233-2c-0.932-0.3-2.058,0.042-2.586,0.866c-0.192,0.299-0.285,0.712-0.288,1.074
					c-0.023,2.819-0.013,5.637-0.013,8.456c0,0.276,0,0.552,0,0.879c-1.742,0-3.394,0-5.112,0
					C254.111,703.445,254.111,696.468,254.111,689.42z"/>
				<path fill="#FFFFFF" d="M229.004,697.171c0-0.793,0-1.397,0-2.042c1.692,0,3.32,0,5.018,0c0,5.078,0,10.153,0,15.333
					c-1.471,0-2.921,0.014-4.37-0.022c-0.139-0.004-0.361-0.307-0.387-0.493c-0.059-0.418-0.018-0.851-0.018-1.486
					c-1.438,2.126-3.414,2.406-5.518,2.111c-2.237-0.314-3.93-1.507-5.003-3.528c-1.616-3.046-1.242-7.205,0.974-9.737
					c1.689-1.93,3.835-2.759,6.402-2.222C227.258,695.325,227.915,695.825,229.004,697.171z M222.824,702.864
					c0.001,1.845,1.298,3.165,3.106,3.161c1.732-0.004,3.023-1.354,3.034-3.171c0.011-1.864-1.278-3.194-3.082-3.18
					C224.055,699.688,222.823,700.974,222.824,702.864z"/>
				<path fill="#FFFFFF" d="M302.515,710.961c-4.814,0.008-8.16-3.332-8.165-8.152c-0.005-4.762,3.422-8.192,8.175-8.181
					c4.684,0.011,8.077,3.411,8.086,8.105C310.621,707.584,307.306,710.953,302.515,710.961z M299.416,702.784
					c-0.01,1.893,1.358,3.369,3.127,3.376c1.684,0.007,3.009-1.451,3.009-3.308c0-1.892-1.266-3.29-2.993-3.307
					C300.762,699.527,299.425,700.905,299.416,702.784z"/>
				<path fill="#FFFFFF" d="M398.749,704.057c-0.02,1.085,0.446,1.836,1.332,2.274c1.87,0.925,3.408,0.278,4.903-1.358
					c0.122,0.242,0.195,0.436,0.309,0.603c0.447,0.655,0.911,1.298,1.359,1.952c0.917,1.339,0.891,1.447-0.505,2.239
					c-3.531,2.003-8.21,1.317-10.621-1.499c-2.745-3.205-2.83-10.525,2.599-12.854c2.205-0.946,4.482-1.063,6.697-0.027
					c3.553,1.661,4.177,5.372,3.558,8.246c-0.041,0.191-0.538,0.401-0.826,0.404c-2.637,0.031-5.275,0.018-7.913,0.019
					C399.363,704.057,399.084,704.057,398.749,704.057z M398.753,701.336c1.711,0,3.379,0,5.052,0
					c-0.207-1.677-1.128-2.573-2.558-2.538C399.839,698.832,398.904,699.767,398.753,701.336z"/>
				<path fill="#FFFFFF" d="M371.066,704.057c-0.02,1.087,0.463,1.807,1.333,2.282c1.464,0.799,2.587,0.526,4.877-1.218
					c0.537,0.762,1.079,1.518,1.608,2.284c1.042,1.507,1.016,1.6-0.629,2.466c-3.568,1.878-8.047,1.162-10.414-1.605
					c-2.744-3.207-2.826-10.526,2.604-12.852c2.205-0.945,4.482-1.061,6.697-0.024c3.563,1.668,4.172,5.392,3.554,8.248
					c-0.041,0.191-0.54,0.398-0.828,0.401c-2.637,0.031-5.275,0.018-7.913,0.018C371.676,704.057,371.398,704.057,371.066,704.057z
					 M376.124,701.364c-0.213-1.73-1.182-2.632-2.638-2.569c-1.074,0.047-2.386,0.817-2.374,2.569
					C372.767,701.364,374.422,701.364,376.124,701.364z"/>
				<path fill="#FFFFFF" d="M206.491,704.057c0.025,1.179,0.542,1.931,1.478,2.347c1.833,0.814,3.324,0.165,4.769-1.441
					c0.124,0.25,0.195,0.446,0.309,0.612c0.446,0.655,0.911,1.298,1.359,1.952c0.918,1.34,0.892,1.447-0.503,2.239
					c-3.53,2.003-8.21,1.318-10.622-1.497c-2.745-3.204-2.832-10.525,2.596-12.854c2.204-0.946,4.481-1.064,6.697-0.028
					c3.549,1.659,4.179,5.364,3.56,8.245c-0.041,0.192-0.538,0.402-0.825,0.406c-2.637,0.031-5.275,0.019-7.913,0.019
					C207.118,704.057,206.84,704.057,206.491,704.057z M211.546,701.358c-0.127-1.674-1.16-2.658-2.651-2.556
					c-1.419,0.097-2.42,1.2-2.317,2.556C208.233,701.358,209.888,701.358,211.546,701.358z"/>
				<path fill="#FFFFFF" d="M247.566,704.304c1.33,0.57,2.67,1.124,3.982,1.737c0.14,0.066,0.242,0.542,0.151,0.723
					c-1.156,2.301-2.98,3.763-5.562,4.106c-2.266,0.301-4.474,0.043-6.393-1.32c-2.799-1.988-3.58-4.834-3.09-8.065
					c1.037-6.836,8.104-8.16,12.288-5.768c1.265,0.723,2.145,1.797,2.734,3.126c0.187,0.423,0.197,0.692-0.306,0.89
					c-1.141,0.448-2.258,0.959-3.403,1.398c-0.177,0.068-0.54-0.037-0.66-0.188c-0.917-1.152-2.344-1.583-3.783-1.09
					c-1.261,0.432-1.979,1.605-1.933,3.161c0.042,1.433,0.858,2.5,2.204,2.885c1.438,0.411,2.682-0.047,3.532-1.298
					C247.384,704.516,247.454,704.442,247.566,704.304z"/>
				<path fill="#FFFFFF" d="M288.789,701.315c-1.096-1.504-2.467-1.982-4.011-1.471c-1.237,0.41-1.966,1.509-1.974,2.977
					c-0.007,1.458,0.762,2.612,2.022,3.032c1.549,0.517,2.79,0.052,3.957-1.548c1.327,0.568,2.685,1.132,4.019,1.749
					c0.128,0.059,0.217,0.506,0.132,0.677c-1.193,2.389-3.093,3.851-5.771,4.167c-1.591,0.188-3.173,0.067-4.686-0.536
					c-3.729-1.486-5.133-5.027-4.661-8.616c0.823-6.258,6.7-8.335,11.489-6.46c1.697,0.664,2.88,1.913,3.603,3.592
					c0.146,0.339,0.224,0.627-0.216,0.809C291.397,700.222,290.105,700.765,288.789,701.315z"/>
				<path fill="#FFFFFF" d="M383.669,690.879c1.649,0,3.178-0.026,4.703,0.036c0.171,0.007,0.445,0.511,0.459,0.795
					c0.054,1.093,0.022,2.19,0.022,3.374c0.74,0,1.476,0.017,2.21-0.006c0.44-0.014,0.661,0.099,0.644,0.596
					c-0.031,0.896-0.032,1.794,0,2.69c0.019,0.531-0.23,0.662-0.695,0.65c-0.711-0.018-1.423-0.005-2.19-0.005
					c0,1.994-0.056,3.96,0.023,5.921c0.041,1.014,0.762,1.456,1.914,1.414c1.112-0.04,1.108-0.04,1.265,1.042
					c0.092,0.633,0.248,1.262,0.274,1.896c0.011,0.26-0.173,0.664-0.388,0.777c-1.712,0.906-3.52,1.026-5.351,0.428
					c-1.988-0.65-2.727-2.245-2.831-4.152c-0.116-2.122-0.08-4.251-0.11-6.378c-0.004-0.301-0.001-0.603-0.001-0.857
					c-0.135-0.068-0.178-0.107-0.225-0.111c-1.364-0.144-1.364-0.143-1.364-1.503c0-0.538,0.03-1.078-0.008-1.614
					c-0.042-0.586,0.134-0.883,0.771-0.796c0.247,0.034,0.503,0.006,0.878,0.006C383.669,693.672,383.669,692.321,383.669,690.879z"
					/>
				<path fill="#FFFFFF" d="M363.292,689.444c0,7.001,0,13.958,0,20.968c-1.697,0-3.348,0-5.062,0c0-6.968,0-13.943,0-20.968
					C359.882,689.444,361.534,689.444,363.292,689.444z"/>
			</g>
		</g>
		<g id="g3MxSS.tif">
			<g>
				<path fill="#FFFFFF" d="M487.531,710.45c-1.78,0-3.415,0-5.113,0c-0.019-0.327-0.052-0.628-0.052-0.928
					c-0.004-2.486-0.001-4.971-0.004-7.457c0-0.358-0.008-0.718-0.042-1.075c-0.16-1.701-1.655-2.452-3.112-1.567
					c-0.569,0.345-0.844,0.814-0.837,1.518c0.029,2.844,0.012,5.689,0.012,8.533c0,0.302,0,0.604,0,0.956c-1.741,0-3.394,0-5.112,0
					c0-5.072,0-10.153,0-15.281c1.601,0,3.204,0,4.908,0c0,0.64,0,1.288,0,1.937c1.204-1.688,2.777-2.482,4.776-2.435
					c1.996,0.047,3.606,0.718,4.305,2.812c1.465-2.556,4.195-3.503,6.933-2.439c1.431,0.556,2.176,1.668,2.386,3.133
					c0.119,0.832,0.13,1.684,0.135,2.528c0.015,2.973-0.017,5.945,0.022,8.918c0.009,0.724-0.218,0.92-0.918,0.894
					c-1.38-0.052-2.764-0.015-4.245-0.015c-0.018-0.305-0.048-0.574-0.048-0.842c-0.004-2.614-0.001-5.228-0.003-7.842
					c0-0.307,0.009-0.617-0.025-0.922c-0.108-0.96-0.591-1.572-1.359-1.755c-0.875-0.208-1.929,0.155-2.372,0.888
					c-0.16,0.264-0.223,0.622-0.225,0.939c-0.017,2.87-0.01,5.74-0.01,8.61C487.531,709.832,487.531,710.107,487.531,710.45z"/>
				<path fill="#FFFFFF" d="M446.603,696.443c0-0.497,0-0.872,0-1.338c1.583,0,3.112-0.011,4.641,0.02
					c0.136,0.003,0.386,0.284,0.383,0.431c-0.114,4.959,0.445,9.947-0.455,14.87c-0.498,2.725-1.888,4.845-4.773,5.628
					c-3.271,0.888-6.327,0.17-9.282-1.247c-0.137-0.066-0.262-0.426-0.206-0.581c0.454-1.245,0.953-2.474,1.464-3.773
					c0.67,0.307,1.284,0.695,1.953,0.871c1.001,0.263,2.041,0.527,3.065,0.525c2.224-0.004,3.261-1.293,3.142-3.801
					c-0.921,1.011-2.001,1.547-3.292,1.697c-4.431,0.512-7.673-2.204-7.83-6.669c-0.037-1.061,0.036-2.17,0.311-3.189
					C437.001,695.167,442.566,693.361,446.603,696.443z M440.446,702.699c-0.01,1.76,1.256,3.039,3.038,3.068
					c1.766,0.029,3.094-1.26,3.098-3.007c0.004-1.741-1.33-3.141-3.006-3.155C441.815,699.59,440.456,700.934,440.446,702.699z"/>
				<path fill="#FFFFFF" d="M421.061,689.444c1.761,0,3.367,0,5.083,0c0,0.304,0,0.576,0,0.847c0,6.403,0,12.806,0,19.209
					c0,0.997-0.002,0.997-1.023,0.998c-0.922,0.001-1.844,0-2.766,0c-1.096,0-1.096,0-1.141-1.053
					c-0.715,0.341-1.415,0.842-2.187,1.015c-3.43,0.768-7.852-0.384-8.837-5.577c-0.345-1.816-0.266-3.621,0.346-5.378
					c1.673-4.8,7.518-5.77,10.525-3.151C421.061,694.016,421.061,691.762,421.061,689.444z M418.163,699.69
					c-1.793-0.008-3.071,1.266-3.092,3.082c-0.022,1.922,1.287,3.277,3.165,3.275c1.732-0.002,2.981-1.35,2.973-3.207
					C421.2,701.014,419.928,699.698,418.163,699.69z"/>
				<path fill="#FFFFFF" d="M465.062,697.139c0-0.734,0-1.321,0-1.972c1.682,0,3.329,0,5.041,0c0,5.065,0,10.141,0,15.31
					c-1.486,0-2.937,0.014-4.387-0.023c-0.135-0.003-0.349-0.316-0.375-0.505c-0.057-0.417-0.018-0.846-0.018-1.385
					c-2.321,3.368-8.132,2.398-10.194-0.912c-1.908-3.063-1.72-7.629,0.656-10.34c1.69-1.928,3.841-2.75,6.406-2.21
					C463.322,695.339,463.928,695.802,465.062,697.139z M458.902,702.911c0.011,1.836,1.323,3.147,3.135,3.131
					c1.723-0.015,3.011-1.387,3.003-3.201c-0.008-1.837-1.27-3.147-3.035-3.15C460.141,699.687,458.891,700.984,458.902,702.911z"/>
				<path fill="#FFFFFF" d="M504.246,704.073c0.006,1.163,0.522,1.916,1.454,2.337c1.829,0.825,3.324,0.191,4.619-1.244
					c0.163,0.134,0.323,0.218,0.416,0.349c0.632,0.9,1.241,1.816,1.877,2.713c0.3,0.423,0.25,0.749-0.172,1.035
					c-2.774,1.881-5.747,2.231-8.815,0.921c-2.957-1.262-4.222-3.755-4.392-6.832c-0.175-3.179,0.817-5.873,3.694-7.567
					c2.866-1.688,6.721-1.395,8.972,0.659c2.151,1.963,2.489,4.479,1.995,7.184c-0.035,0.191-0.527,0.421-0.81,0.425
					c-2.637,0.033-5.275,0.019-7.913,0.02C504.889,704.073,504.61,704.073,504.246,704.073z M504.256,701.352
					c1.711,0,3.379,0,5.052,0c-0.205-1.676-1.126-2.573-2.557-2.539C505.344,698.848,504.409,699.781,504.256,701.352z"/>
			</g>
		</g>
	</g>
	<g>
		<path fill="#9FCD84" d="M211.452,474.448h-45.089c-1.265,0-2.29,1.026-2.29,2.29v7.633c0,1.264,1.025,2.29,2.29,2.29h45.089
			c1.265,0,2.29-1.026,2.29-2.29v-7.633C213.742,475.473,212.717,474.448,211.452,474.448z"/>
		<path fill="#9FCD84" d="M278.866,746.926h-45.09c-1.265,0-2.29,1.026-2.29,2.29v7.633c0,1.264,1.025,2.29,2.29,2.29h45.09
			c1.265,0,2.29-1.026,2.29-2.29v-7.633C281.156,747.952,280.131,746.926,278.866,746.926z"/>
		<path fill="#9FCD84" d="M346.5,746.926h-45.09c-1.265,0-2.29,1.026-2.29,2.29v7.633c0,1.264,1.025,2.29,2.29,2.29h45.09
			c1.265,0,2.29-1.026,2.29-2.29v-7.633C348.79,747.952,347.765,746.926,346.5,746.926z"/>
		<path fill="#9FCD84" d="M346.72,474.448h-45.089c-1.265,0-2.29,1.026-2.29,2.29v7.633c0,1.264,1.025,2.29,2.29,2.29h45.089
			c1.265,0,2.29-1.026,2.29-2.29v-7.633C349.01,475.473,347.985,474.448,346.72,474.448z"/>
		<path fill="#9FCD84" d="M279.086,474.448h-45.089c-1.265,0-2.29,1.026-2.29,2.29v7.633c0,1.264,1.025,2.29,2.29,2.29h45.089
			c1.265,0,2.29-1.026,2.29-2.29v-7.633C281.376,475.473,280.351,474.448,279.086,474.448z"/>
		<path fill="#9FCD84" d="M211.232,746.926h-45.09c-1.265,0-2.29,1.026-2.29,2.29v7.633c0,1.264,1.025,2.29,2.29,2.29h45.09
			c1.265,0,2.29-1.026,2.29-2.29v-7.633C213.522,747.952,212.497,746.926,211.232,746.926z"/>
		<path fill="#9FCD84" d="M110.449,709.151h7.633c1.265,0,2.29-1.026,2.29-2.29v-45.09c0-1.264-1.025-2.29-2.29-2.29h-7.633
			c-1.265,0-2.29,1.026-2.29,2.29v45.09C108.159,708.125,109.184,709.151,110.449,709.151z"/>
		<path fill="#9FCD84" d="M143.818,474.448h-11.235c-13.468,0-24.425,10.957-24.425,24.425v5.087c0,1.264,1.025,2.29,2.29,2.29
			h7.633c1.265,0,2.29-1.026,2.29-2.29v-5.087c0-6.734,5.479-12.213,12.213-12.213h11.235c1.265,0,2.29-1.026,2.29-2.29v-7.633
			C146.108,475.473,145.083,474.448,143.818,474.448z"/>
		<path fill="#9FCD84" d="M110.449,641.517h7.633c1.265,0,2.29-1.026,2.29-2.29v-45.09c0-1.264-1.025-2.29-2.29-2.29h-7.633
			c-1.265,0-2.29,1.026-2.29,2.29v45.09C108.159,640.491,109.184,641.517,110.449,641.517z"/>
		<path fill="#9FCD84" d="M143.598,746.926h-11.014c-6.734,0-12.213-5.479-12.213-12.213v-5.309c0-1.264-1.025-2.29-2.29-2.29
			h-7.633c-1.265,0-2.29,1.026-2.29,2.29v5.309c0,13.468,10.957,24.425,24.425,24.425h11.014c1.265,0,2.29-1.026,2.29-2.29v-7.633
			C145.888,747.952,144.863,746.926,143.598,746.926z"/>
		<path fill="#9FCD84" d="M110.449,573.883h7.633c1.265,0,2.29-1.026,2.29-2.29v-45.09c0-1.264-1.025-2.29-2.29-2.29h-7.633
			c-1.265,0-2.29,1.026-2.29,2.29v45.09C108.159,572.857,109.184,573.883,110.449,573.883z"/>
		<path fill="#9FCD84" d="M414.356,474.448h-45.09c-1.265,0-2.29,1.026-2.29,2.29v7.633c0,1.264,1.025,2.29,2.29,2.29h45.09
			c1.265,0,2.29-1.026,2.29-2.29v-7.633C416.646,475.473,415.621,474.448,414.356,474.448z"/>
		<path fill="#9FCD84" d="M414.134,746.926h-45.089c-1.265,0-2.29,1.026-2.29,2.29v7.633c0,1.264,1.025,2.29,2.29,2.29h45.089
			c1.265,0,2.29-1.026,2.29-2.29v-7.633C416.424,747.952,415.399,746.926,414.134,746.926z"/>
		<path fill="#9FCD84" d="M605.551,659.481h-7.633c-1.265,0-2.29,1.026-2.29,2.29v45.09c0,1.264,1.025,2.29,2.29,2.29h7.633
			c1.265,0,2.29-1.026,2.29-2.29v-45.09C607.841,660.507,606.816,659.481,605.551,659.481z"/>
		<path fill="#9FCD84" d="M605.551,591.847h-7.633c-1.265,0-2.29,1.026-2.29,2.29v45.09c0,1.264,1.025,2.29,2.29,2.29h7.633
			c1.265,0,2.29-1.026,2.29-2.29v-45.09C607.841,592.873,606.816,591.847,605.551,591.847z"/>
		<path fill="#9FCD84" d="M583.416,474.448h-11.235c-1.265,0-2.29,1.026-2.29,2.29v7.633c0,1.264,1.025,2.29,2.29,2.29h11.235
			c6.734,0,12.213,5.479,12.213,12.213v5.087c0,1.264,1.025,2.29,2.29,2.29h7.633c1.265,0,2.29-1.026,2.29-2.29v-5.087
			C607.841,485.405,596.884,474.448,583.416,474.448z"/>
		<path fill="#9FCD84" d="M605.551,524.213h-7.633c-1.265,0-2.29,1.026-2.29,2.29v45.09c0,1.264,1.025,2.29,2.29,2.29h7.633
			c1.265,0,2.29-1.026,2.29-2.29v-45.09C607.841,525.239,606.816,524.213,605.551,524.213z"/>
		<path fill="#9FCD84" d="M605.551,727.115h-7.633c-1.265,0-2.29,1.026-2.29,2.29v5.309c0,6.734-5.479,12.213-12.213,12.213h-11.014
			c-1.265,0-2.29,1.026-2.29,2.29v7.633c0,1.264,1.025,2.29,2.29,2.29h11.014c13.468,0,24.425-10.957,24.425-24.425v-5.309
			C607.841,728.141,606.816,727.115,605.551,727.115z"/>
		<path fill="#9FCD84" d="M436.914,486.66h45.089c1.265,0,2.29-1.026,2.29-2.29v-7.633c0-1.264-1.025-2.29-2.29-2.29h-45.089
			c-1.265,0-2.29,1.026-2.29,2.29v7.633C434.624,485.634,435.649,486.66,436.914,486.66z"/>
		<path fill="#9FCD84" d="M549.859,746.926h-45.09c-1.265,0-2.29,1.026-2.29,2.29v7.633c0,1.264,1.025,2.29,2.29,2.29h45.09
			c1.265,0,2.29-1.026,2.29-2.29v-7.633C552.148,747.952,551.124,746.926,549.859,746.926z"/>
		<path fill="#9FCD84" d="M482.225,746.926h-45.09c-1.265,0-2.29,1.026-2.29,2.29v7.633c0,1.264,1.025,2.29,2.29,2.29h45.09
			c1.265,0,2.29-1.026,2.29-2.29v-7.633C484.514,747.952,483.49,746.926,482.225,746.926z"/>
		<path fill="#9FCD84" d="M504.548,486.66h45.089c1.265,0,2.29-1.026,2.29-2.29v-7.633c0-1.264-1.025-2.29-2.29-2.29h-45.089
			c-1.265,0-2.29,1.026-2.29,2.29v7.633C502.258,485.634,503.283,486.66,504.548,486.66z"/>
	</g>
	<g id="kcNPMj.tif">
		<g>
			<path fill="#E1EAA0" d="M345.306,657.318c-0.464,2.558-0.923,5.044-1.361,7.534c-0.116,0.659-0.212,1.329-0.228,1.997
				c-0.018,0.78,0.42,1.14,1.2,1.091c0.802-0.05,1.377-0.482,1.809-1.123c1.016-1.509,1.327-3.236,1.418-4.996
				c0.076-1.467,0.016-2.941,0.016-4.457c1.129,0,2.245,0,3.45,0c0.041,0.706,0.104,1.412,0.121,2.119
				c0.061,2.553-0.135,5.066-1.228,7.43c-1.267,2.739-3.898,4.174-6.768,3.709c-1.131-0.183-1.981-0.717-2.42-1.893
				c-0.843,0.86-1.756,1.523-2.912,1.793c-1.101,0.257-2.196,0.271-3.272-0.075c-1.533-0.493-2.307-1.883-2.013-3.689
				c0.456-2.799,0.961-5.589,1.446-8.383c0.059-0.338,0.122-0.674,0.186-1.029c1.186,0,2.329,0,3.558,0
				c-0.203,1.203-0.397,2.366-0.597,3.529c-0.309,1.792-0.634,3.581-0.929,5.375c-0.233,1.416,0.589,2.06,1.937,1.536
				c0.865-0.336,1.346-1.009,1.508-1.893c0.488-2.661,0.966-5.324,1.41-7.993c0.078-0.471,0.241-0.608,0.701-0.592
				C343.31,657.341,344.282,657.318,345.306,657.318z"/>
			<path fill="#E1EAA0" d="M372.14,670.322c-1.195,0-2.339,0-3.56,0c1.056-5.965,2.105-11.897,3.161-17.86c1.18,0,2.344,0,3.574,0
				c-0.33,1.856-0.657,3.698-1.001,5.637c0.223-0.143,0.385-0.247,0.548-0.351c1.27-0.815,2.651-1.029,4.107-0.701
				c1.416,0.318,2.254,1.257,2.212,2.716c-0.037,1.31-0.263,2.62-0.471,3.92c-0.324,2.029-0.703,4.05-1.06,6.073
				c-0.033,0.188-0.08,0.373-0.121,0.563c-1.189,0-2.333,0-3.548,0c0.254-1.455,0.502-2.875,0.748-4.295
				c0.262-1.514,0.543-3.024,0.774-4.543c0.232-1.527-0.563-2.172-2.037-1.684c-0.987,0.327-1.615,1.021-1.802,2.032
				c-0.501,2.702-0.961,5.411-1.438,8.117C372.207,670.051,372.178,670.154,372.14,670.322z"/>
			<path fill="#E1EAA0" d="M365.347,657.293c1.115,0,2.172,0,3.318,0c-0.134,0.863-0.238,1.669-0.405,2.462
				c-0.029,0.137-0.327,0.304-0.505,0.31c-0.95,0.031-1.902,0.014-2.917,0.014c-0.392,2.241-0.803,4.447-1.153,6.662
				c-0.123,0.78,0.321,1.268,1.12,1.244c0.634-0.018,1.262-0.203,1.976-0.328c0.149,0.559,0.348,1.215,0.481,1.884
				c0.026,0.13-0.166,0.389-0.316,0.455c-1.564,0.688-3.19,0.964-4.874,0.549c-1.376-0.339-2.13-1.257-2.044-2.689
				c0.077-1.291,0.324-2.574,0.544-3.852c0.62-3.603,1.265-7.202,1.902-10.802c0.041-0.233,0.093-0.464,0.147-0.733
				c1.156,0,2.294,0,3.547,0C365.898,654.057,365.632,655.619,365.347,657.293z"/>
			<path fill="#E1EAA0" d="M356.571,670.313c-1.208,0-2.371,0-3.604,0c0.264-1.486,0.523-2.946,0.782-4.407
				c0.477-2.685,0.965-5.368,1.42-8.056c0.074-0.437,0.235-0.579,0.668-0.567c0.971,0.027,1.944,0.008,3.017,0.008
				C358.089,661.654,357.336,665.947,356.571,670.313z"/>
			<path fill="#E1EAA0" d="M357.42,655.405c-1.052,0.008-1.708-0.58-1.705-1.528c0.003-1.227,1.05-2.217,2.331-2.204
				c0.983,0.01,1.688,0.677,1.688,1.595C359.734,654.456,358.717,655.396,357.42,655.405z"/>
		</g>
	</g>
	
		<line fill="none" stroke="#E1EAA0" stroke-width="3" stroke-linecap="round" stroke-linejoin="round" stroke-miterlimit="10" x1="393.175" y1="664.008" x2="511.48" y2="664.008"/>
	
		<line fill="none" stroke="#E1EAA0" stroke-width="3" stroke-linecap="round" stroke-linejoin="round" stroke-miterlimit="10" x1="203.607" y1="664.008" x2="320.619" y2="664.008"/>
</g>
</svg>
