<?xml version="1.0" encoding="utf-8"?>
<!-- Generator: Adobe Illustrator 17.0.0, SVG Export Plug-In . SVG Version: 6.00 Build 0)  -->
<!DOCTYPE svg PUBLIC "-//W3C//DTD SVG 1.1//EN" "http://www.w3.org/Graphics/SVG/1.1/DTD/svg11.dtd">
<svg version="1.1" id="Layer_1" xmlns="http://www.w3.org/2000/svg" xmlns:xlink="http://www.w3.org/1999/xlink" x="0px" y="0px"
	 width="1035.431px" height="480.715px" viewBox="0 0 1035.431 480.715" enable-background="new 0 0 1035.431 480.715"
	 xml:space="preserve">
<rect x="6.567" y="0" opacity="0.5" fill="#EEF2D6" width="1022.297" height="474.617"/>
<g>
	<line fill="none" stroke="#FFFFFF" stroke-width="5" stroke-miterlimit="10" x1="517.715" y1="0.002" x2="517.715" y2="474.617"/>
</g>
<g>
	<line fill="none" stroke="#FFFFFF" stroke-width="5" stroke-miterlimit="10" x1="1028.864" y1="237.544" x2="6.568" y2="237.544"/>
</g>
<g opacity="0.5">
	<path fill="#4A4434" d="M307.515,70.109c-11.601-11.607-27.665-18.796-45.374-18.794c-17.709-0.002-33.772,7.187-45.374,18.794
		c-11.607,11.601-18.796,27.665-18.794,45.373c-0.002,17.709,7.188,33.773,18.794,45.374c11.601,11.607,27.665,18.796,45.374,18.795
		c17.709,0.002,33.772-7.188,45.374-18.795c11.607-11.601,18.796-27.665,18.794-45.374h0
		C326.311,97.774,319.122,81.71,307.515,70.109z M319.441,115.482c-0.002,15.834-6.408,30.137-16.783,40.518
		c-10.38,10.375-24.683,16.781-40.517,16.783c-15.834-0.002-30.137-6.408-40.517-16.783c-10.375-10.38-16.781-24.684-16.783-40.518
		c0.002-15.834,6.408-30.137,16.783-40.517c10.38-10.375,24.683-16.781,40.517-16.783c15.834,0.002,30.137,6.408,40.517,16.783
		C313.033,85.345,319.44,99.648,319.441,115.482L319.441,115.482z M232.653,136.547h-1.646c-0.152,0-0.263,0.125-0.263,0.263v3.485
		h-3.956v-3.485c0-0.138-0.11-0.263-0.263-0.263h-1.646c-0.138,0-0.263,0.125-0.263,0.263v9.156c0,0.138,0.124,0.262,0.263,0.262
		h1.646c0.152,0,0.263-0.123,0.263-0.262v-3.638h3.956v3.638c0,0.138,0.11,0.262,0.263,0.262h1.646c0.138,0,0.263-0.123,0.263-0.262
		v-9.156C232.916,136.672,232.791,136.547,232.653,136.547z M240.453,136.547h-5.726c-0.152,0-0.263,0.125-0.263,0.263v9.156
		c0,0.138,0.11,0.262,0.263,0.262h5.726c0.152,0,0.263-0.123,0.263-0.262v-1.509c0-0.138-0.11-0.262-0.263-0.262h-3.831v-1.867
		h3.153c0.138,0,0.263-0.111,0.263-0.263v-1.508c0-0.138-0.124-0.263-0.263-0.263h-3.153v-1.714h3.831
		c0.152,0,0.263-0.125,0.263-0.263v-1.508C240.715,136.672,240.605,136.547,240.453,136.547z M246.925,138.497
		c0.678,0,1.355,0.249,1.866,0.706c0.097,0.097,0.249,0.097,0.346,0l1.079-1.12c0.111-0.111,0.111-0.276-0.014-0.387
		c-0.94-0.858-1.964-1.286-3.346-1.286c-2.767,0-4.993,2.226-4.993,4.992c0,2.767,2.227,4.965,4.993,4.965
		c1.231,0,2.42-0.428,3.36-1.341c0.097-0.097,0.111-0.277,0.014-0.374l-1.078-1.148c-0.083-0.097-0.263-0.097-0.36-0.013
		c-0.498,0.428-1.203,0.663-1.853,0.663c-1.563,0-2.724-1.272-2.724-2.807C244.214,139.796,245.362,138.497,246.925,138.497z
		 M255.969,141.111l3.236-4.052c0.152-0.207,0.014-0.512-0.249-0.512h-1.742c-0.083,0-0.208,0.069-0.263,0.138l-3.07,3.83v-3.636
		c0-0.181-0.152-0.333-0.332-0.333h-1.618c-0.194,0-0.332,0.152-0.332,0.333v9.016c0,0.18,0.138,0.332,0.332,0.332h1.618
		c0.18,0,0.332-0.152,0.332-0.332v-4.121l3.195,4.343c0.027,0.042,0.152,0.097,0.248,0.097h1.909c0.263,0,0.415-0.305,0.263-0.512
		L255.969,141.111z M272.176,136.547h-1.797c-0.125,0-0.18,0.069-0.221,0.125l-1.922,2.835l-1.923-2.835
		c-0.042-0.056-0.111-0.125-0.221-0.125h-1.798c-0.221,0-0.332,0.221-0.221,0.401l3.057,4.618v4.4c0,0.138,0.11,0.262,0.262,0.262
		h1.646c0.138,0,0.263-0.123,0.263-0.262v-4.412l3.098-4.606C272.508,136.768,272.397,136.547,272.176,136.547z M279.216,136.547
		h-5.726c-0.152,0-0.262,0.125-0.262,0.263v9.156c0,0.138,0.11,0.262,0.262,0.262h5.726c0.152,0,0.262-0.123,0.262-0.262v-1.509
		c0-0.138-0.11-0.262-0.262-0.262h-3.831v-1.867h3.153c0.139,0,0.263-0.111,0.263-0.263v-1.508c0-0.138-0.124-0.263-0.263-0.263
		h-3.153v-1.714h3.831c0.152,0,0.262-0.125,0.262-0.263v-1.508C279.478,136.672,279.368,136.547,279.216,136.547z M285.023,136.56
		c-0.042-0.082-0.138-0.152-0.235-0.152h-0.138c-0.097,0-0.193,0.069-0.235,0.152l-4.329,9.308
		c-0.083,0.179,0.027,0.359,0.235,0.359h1.521c0.276,0,0.429-0.166,0.498-0.332l0.498-1.106h3.762l0.498,1.093
		c0.124,0.263,0.235,0.345,0.484,0.345h1.535c0.208,0,0.318-0.18,0.235-0.359L285.023,136.56z M283.668,142.909l1.038-2.282h0.014
		l1.051,2.282H283.668z M298.244,136.547h-1.646c-0.152,0-0.263,0.125-0.263,0.263v3.485h-3.956v-3.485
		c0-0.138-0.11-0.263-0.263-0.263h-1.646c-0.138,0-0.263,0.125-0.263,0.263v9.156c0,0.138,0.124,0.262,0.263,0.262h1.646
		c0.152,0,0.263-0.123,0.263-0.262v-3.638h3.956v3.638c0,0.138,0.11,0.262,0.263,0.262h1.646c0.138,0,0.263-0.123,0.263-0.262
		v-9.156C298.506,136.672,298.382,136.547,298.244,136.547z M224.588,130.288H298.6v-6.868h-74.013V130.288z M297.567,82.957h-6.477
		c-0.598,0-1.034,0.49-1.034,1.034v13.714h-15.565V83.99c0-0.544-0.436-1.034-1.035-1.034h-6.476c-0.544,0-1.035,0.49-1.035,1.034
		v33.172h8.545v-11.459h15.565v11.459h8.544V83.99C298.601,83.446,298.111,82.957,297.567,82.957z M231.656,117.163h24.962
		c4.346-3.567,7.1-8.983,7.1-15.103c0-10.887-8.708-19.648-19.592-19.648c-10.884,0-19.538,8.761-19.538,19.648
		C224.587,108.18,227.324,113.595,231.656,117.163z M244.126,91.12c5.986,0,10.884,4.953,10.884,10.94
		c0,5.93-4.898,10.83-10.884,10.83c-5.932,0-10.83-4.899-10.83-10.83C233.296,96.072,238.194,91.12,244.126,91.12z"/>
</g>
<g opacity="0.5">
	<polygon fill="#676154" points="686.727,385.144 715.617,392.388 715.798,379.456 	"/>
	<polygon fill="#676154" points="861.345,313.284 832.454,306.04 832.274,318.971 	"/>
	<g>
		<g>
			<path fill="#4A4434" d="M817.504,334.618l-1.946,0.306v6.755c0.383-0.028,0.894-0.076,2.041-0.257
				c2.712-0.427,4.627-2.073,4.627-4.282C822.226,334.931,820.408,334.161,817.504,334.618z M797.243,337.551
				c-4.084,0.643-7.05,4.248-7.05,8.665c0,4.386,2.966,7.089,7.05,6.445c4.052-0.637,7.019-4.242,7.019-8.658
				C804.262,339.616,801.295,336.913,797.243,337.551z M686.711,340.748v44.403l174.634-27.488v-44.404L686.711,340.748z
				 M712.981,368.903l-15.251,2.401v-3.234l2.394-0.377v-14.6l-2.394,0.377v-3.233l8.775-1.381v3.233l-2.777,0.438v14.632
				l5.775-0.911v-2.976l3.479-0.547V368.903z M731.741,365.95l-15.697,2.471v-3.234l2.393-0.377v-14.598l-2.393,0.377v-3.233
				l15.665-2.466v6.018l-3.446,0.544v-2.818l-6.221,0.979v5.635l6.349-1v3.073l-6.349,1v5.955l6.254-0.985v-2.817l3.445-0.542
				V365.95z M753.533,362.519l-3.446,0.543v-1.568c-1.467,1.382-3.349,2.48-5.711,2.851c-5.167,0.814-10.081-2.511-10.081-9.265
				c0-6.499,4.913-11.756,11.038-12.72c4.883-0.767,8.137,1.282,8.137,3.81c0,1.537-0.989,2.749-2.297,2.954
				c-1.436,0.226-2.425-0.514-2.425-1.89c0-0.417,0.095-0.848,0.223-1.125c-0.607-0.384-1.819-0.674-3.733-0.373
				c-4.085,0.643-7.21,4.177-7.21,8.724c0,4.641,3.35,7.091,6.891,6.533c2.201-0.346,3.733-1.066,5.073-2.143v-3.617l-5.233,0.825
				v-3.074l8.773-1.382V362.519z M778.579,358.802l-2.01,0.316l-5.615-12.082l-5.647,13.855l-2.011,0.316l-5.743-17.152
				l-2.232,0.352v-3.233l8.932-1.406V343l-2.774,0.436l3.413,10.541l5.201-13.081l1.913-0.301l5.201,11.443l3.191-11.579
				l-2.872,0.451v-3.232l8.933-1.406v3.233l-2.233,0.353L778.579,358.802z M797.148,356.039c-6.349,0.999-10.689-3.088-10.689-9.235
				c0-6.178,4.467-11.62,10.849-12.625c6.349-0.999,10.687,3.089,10.687,9.236C807.995,349.594,803.529,355.034,797.148,356.039z
				 M827.618,350.859l-4.85,0.763l-4.211-7.34c-0.447,0.101-0.861,0.198-1.275,0.264c-0.671,0.105-1.277,0.201-1.723,0.239v4.739
				l2.617-0.412v3.234l-8.614,1.357v-3.234l2.392-0.378v-14.598l-2.392,0.376v-3.232l8.135-1.282
				c4.817-0.757,8.262,0.781,8.262,5.07c0,2.722-1.659,5.064-3.956,6.355l3.223,5.222l2.393-0.376V350.859z M849.441,329.591
				l-2.265,0.356l-5.871,6.72l5.361,7.959l2.775-0.436v3.234l-5.041,0.793l-5.838-8.685l-3.031,3.455v3.394l2.617-0.413v3.235
				l-8.614,1.355v-3.235l2.392-0.375v-14.6l-2.392,0.378v-3.234l8.614-1.355v3.169l-2.617,0.412v7.14l7.051-8.25l-2.393,0.378v-3.17
				l9.252-1.457V329.591z M852.749,346.742l-0.308,0.049v-0.285l-0.27,0.043v1.031l0.212-0.033v0.31l-0.804,0.125v-0.31l0.212-0.032
				v-1.032l-0.27,0.043v0.284l-0.309,0.049v-0.588l1.536-0.241V346.742z M855.088,347.431l-0.759,0.119v-0.31l0.206-0.033
				l-0.032-0.801l-0.385,0.893l-0.168,0.027l-0.392-0.771l-0.031,0.811l0.205-0.032v0.31l-0.752,0.119v-0.31l0.199-0.033
				l0.052-1.032L853,346.424v-0.309l0.675-0.106l0.373,0.792l0.348-0.905l0.674-0.106v0.309l-0.232,0.037l0.052,1.017l0.199-0.031
				V347.431z"/>
		</g>
	</g>
</g>
<g opacity="0.5">
	<polygon fill="#4A4434" points="283.955,295.215 283.955,309.953 280.002,313.835 280.002,305.396 269.934,314.87 251.976,288.683 
		251.976,314.76 233.275,287.489 233.275,309.934 227.902,316 227.902,345.984 236.413,358.547 236.413,344.367 255.514,372.077 
		255.514,352.063 260.545,345.717 260.545,376.029 280.002,357.554 280.002,342.231 283.955,338.561 283.955,346.889 
		294.656,337.062 294.656,285.009 	"/>
	<g>
		<path fill="#4A4434" d="M220.458,403.806c0-3.193,1.572-7.27,6.091-7.27c0.706,0,1.334,0.109,1.903,0.285l0.879-1.439
			c-0.885-0.236-1.815-0.369-2.782-0.369c-5.403,0-9.824,3.979-9.824,8.793c0,2.946,1.631,5.564,4.114,7.172l1.217-1.996
			C220.923,407.53,220.458,405.555,220.458,403.806z"/>
		<path fill="#4A4434" d="M231.246,396.096l-0.005,2.758c1.026,1.436,1.447,3.309,1.447,4.952c0,3.241-1.572,7.269-6.139,7.269
			c-0.998,0-1.845-0.205-2.57-0.545l-0.003,1.798c0.822,0.201,1.683,0.319,2.573,0.319c5.401,0,9.822-3.978,9.822-8.84
			C236.372,400.505,234.293,397.598,231.246,396.096z"/>
	</g>
	<g>
		<path fill="#4A4434" d="M206.479,412.011v-0.935c2.756,0,3.2-0.641,3.2-4.135v-7.187l-6.006,12.898h-0.837l-5.956-12.799v7.089
			c0,3.495,0.443,4.135,3.2,4.135v0.935h-7.926v-0.935c2.757,0,3.2-0.641,3.2-4.135v-6.301c0-3.495-0.443-4.086-3.2-4.086v-0.935
			h6.055l5.858,12.554l5.859-12.554h5.956v0.935c-2.757,0-3.2,0.591-3.2,4.086v6.301c0,3.495,0.443,4.135,3.2,4.135v0.935H206.479z"
			/>
		<path fill="#4A4434" d="M236.866,411.076c2.757,0,3.2-0.641,3.2-4.135v-6.301c0-3.495-0.443-4.086-3.2-4.086v-0.935h8.812
			c7.04,0,10.092,3.692,10.092,8.172c0,4.479-3.052,8.221-10.092,8.221h-8.812V411.076z M245.827,397.095c-0.197,0-2.364,0-2.364,0
			v10.682c0,2.265,0.247,2.708,2.019,2.708h0.345c5.119,0,6.054-3.742,6.054-6.745C251.881,400.836,250.946,397.095,245.827,397.095
			z"/>
		<path fill="#4A4434" d="M310.616,400.246h-0.787l-0.247-0.936c-0.443-1.625-0.985-2.215-4.479-2.215h-2.707v5.513
			c3.839,0,4.135-0.344,4.135-2.904h0.935v7.336h-0.935c0-2.56-0.295-2.905-4.135-2.905v2.264c0,3.495,0.443,4.086,3.002,4.086h0.69
			c3.495,0,4.037-0.591,4.479-2.216l0.247-0.886h0.738l-0.295,4.628h-15.457v-0.935c2.757,0,3.199-0.641,3.199-4.135v-6.301
			c0-3.495-0.443-4.086-3.199-4.086v-0.935h14.473L310.616,400.246z"/>
		<path fill="#4A4434" d="M318.837,397.095c-3.544,0-4.086,0.59-4.479,2.215l-0.247,0.936h-0.837l0.395-4.628h18.116l0.345,4.628
			h-0.789l-0.245-0.936c-0.443-1.625-0.935-2.215-4.479-2.215h-2.216v9.846c0,3.495,0.444,4.135,3.201,4.135v0.935h-9.748v-0.935
			c2.707,0,3.2-0.641,3.2-4.135v-9.846H318.837z"/>
	</g>
	<g>
		<path fill="#4A4434" d="M292.007,400.787h1.033v-5.809h-0.935c-0.148,0.591-0.393,1.132-0.64,1.329
			c-0.48-0.395-1.142-0.753-1.923-0.991v1.606C290.981,397.583,291.752,399.075,292.007,400.787z"/>
		<path fill="#4A4434" d="M291.22,402.953l-2.709-1.329c-2.362-1.083-3.395-1.772-3.395-3.053c0-1.134,1.09-1.884,2.339-1.996
			l0.891-1.505c-0.235-0.026-0.473-0.043-0.72-0.043c-3.052,0-5.267,2.018-5.267,4.382c0,2.166,1.475,3.79,3.445,4.726l2.807,1.33
			c2.017,0.935,3.15,1.92,3.15,3.2c0,1.477-1.28,2.363-2.855,2.363c-2.904,0-5.169-1.92-5.564-5.169h-0.983v6.794h0.935
			c0.098-0.689,0.54-1.427,0.787-1.673c0.738,0.64,2.462,1.673,4.43,1.673c3.299,0,6.006-2.166,6.006-5.268
			C294.517,405.907,293.582,404.085,291.22,402.953z"/>
	</g>
	<g>
		<path fill="#4A4434" d="M265.572,410.485c-2.56,0-3.004-0.591-3.004-4.086v-2.264c3.841,0,4.136,0.345,4.136,2.905h0.935v-7.336
			h-0.935c0,2.56-0.295,2.904-4.136,2.904v-5.513h2.709c3.495,0,4.037,0.59,4.479,2.215l0.245,0.936h0.789l-0.345-4.628h-14.474
			v0.935c2.756,0,3.199,0.591,3.199,4.086v6.301c0,3.495-0.443,4.135-3.199,4.135v0.935h9.338l0.903-1.526H265.572z"/>
		<path fill="#4A4434" d="M271.726,407.383h-0.739l-0.245,0.886c-0.375,1.379-0.831,2.012-3.095,2.172v1.57h3.785L271.726,407.383z"
			/>
	</g>
</g>
<g opacity="0.5">
	<g>
		<path fill="#4A4434" d="M677.886,101.769l1.278-3.68c-2.342-2.517-0.213-7.359-4.258-9.489
			c-1.916-6.585-0.426-13.557-2.555-20.141c-0.852,5.616,0.213,13.363-0.852,19.366c-1.491,0.968-3.194,2.905-2.555,4.454
			c0.639-2.13,2.98-0.581,4.046-1.356c1.916,1.743,0.213,5.035,0.213,7.553c-1.916-0.968,0.213-4.261-1.703-5.616l-0.639,5.81
			h-2.768c-0.852,0.581-1.277,1.355-1.491,2.324C670.221,102.931,674.693,99.445,677.886,101.769z"/>
	</g>
	<g>
		<path fill="#4A4434" d="M670.435,107.966c-0.852,1.743-3.619,4.067-1.491,6.004c5.749-2.711,10.22-8.328,15.968-11.039
			c3.194-1.549,1.491,2.905,4.258,2.711c7.665-4.454,12.774-12.201,20.865-15.299l1.49,2.518c5.749-0.194,7.026-6.778,12.136-9.296
			c2.342-3.099,9.156-1.356,8.517-6.004c-6.387,2.324-12.136,6.004-17.459,10.457c-0.639-0.774-1.277-2.324-2.768-2.13
			c-7.452,3.292-13.413,10.264-19.588,15.299c-3.406,1.162-1.064-3.099-3.832-3.292c-6.6,1.743-11.284,7.94-17.033,11.619
			L670.435,107.966z"/>
	</g>
	<g>
		<path fill="#4A4434" d="M670.435,104.48c-0.426-1.549-1.703-0.193-2.981-1.162c-3.619,6.584-5.109,13.943-8.303,20.721
			l0.639,0.581C667.88,119.973,663.621,110.097,670.435,104.48z"/>
	</g>
	<g>
		<path fill="#4A4434" d="M667.453,123.846c1.916,1.163,4.258,0.582,6.174,0c3.194,0.194,5.749-0.387,9.156-1.549
			c5.109-1.549-0.639-5.228,0.638-8.326c-1.49-1.937-1.277-5.616-4.258-6.004c-3.62,4.067,2.555,7.359,2.342,11.62
			c-3.407,0-6.6,2.13-10.645,1.356C669.157,120.941,666.389,121.91,667.453,123.846z"/>
	</g>
	<g>
		<path fill="#4A4434" d="M673.202,133.336l-1.065,0.968l-2.554-1.549c0,2.518-3.619,2.711-4.685,5.035
			c-0.852,3.485-1.277,7.165,1.703,9.877c2.13,1.742,4.471,2.904,7.665,2.323c3.619-0.387,5.323-3.68,8.517-4.26
			c-1.278-2.518-5.323-2.518-7.878-3.487c-0.639-1.937-2.555-3.873-1.916-6.003c2.98,0.775,4.896,3.68,5.535,6.197
			c0.213-0.194,0.213-0.387,0.639-0.194c0.851,0.775,1.916,0.775,2.768-0.387c2.555-1.355,0.638-3.099,0-5.035
			c-1.278-2.905-4.685-4.454-8.091-4.067l6.388-5.035c2.98-1.549,6.813-5.423,9.581-3.099c4.471-1.355,7.878-4.842,12.349-6.391
			c4.045-2.711,10.645-2.324,12.562-7.553c-7.239,2.13-13.413,6.197-20.014,9.683c-0.852,0.775-2.342,0.581-2.342-0.775
			c-6.387,0.387-11.497,5.809-17.033,8.909l-1.491-2.131c-7.239,1.938-13.413,6.392-20.227,9.685l-0.852-1.163
			c-1.703,1.549-3.406,2.905-3.193,5.035c0.639,0.774,1.491,0.968,2.555,0.774c5.962-3.679,11.923-7.745,18.31-10.264
			C670.435,131.787,672.137,132.949,673.202,133.336z M677.034,145.149c-1.277,1.355-3.407,0-4.897,0
			c-2.341-0.968-3.619-3.485-2.129-5.423C672.99,140.694,672.351,145.73,677.034,145.149z"/>
	</g>
	<g>
		<path fill="#4A4434" d="M671.712,119.779l0.639-1.356l0.639,1.162l0.851-0.775l1.065,0.775l0.213-0.194
			c0.425-1.743,0.852-4.841-2.129-4.454l-0.639,2.131l-0.639-1.356c-0.425,0-1.064-0.193-1.277,0.194
			C670.435,117.455,670.221,119.392,671.712,119.779z"/>
	</g>
	<g>
		<path fill="#4A4434" d="M661.918,147.28c-0.639-3.099-1.277-6.585-0.639-9.877l-0.638-0.581
			c-5.962,1.162-2.555,8.328-2.981,11.233C659.15,148.635,660.853,148.248,661.918,147.28z"/>
	</g>
	<g>
		<path fill="#4A4434" d="M690.448,151.153c-0.639-5.616-1.491-12.782-0.214-18.398c1.916-6.971-7.451-5.616-10.007-2.518
			c1.277,0,2.341,0.968,3.407,0.193c2.768,5.811,0,12.395,1.277,18.786c-0.852,2.13-3.407,1.549-5.535,1.549
			c-5.11,2.13-11.072,0.581-16.82,1.355c-1.491,0.582-3.833,0-4.685,1.744c6.388,1.742,13.2-0.968,20.014,0.387
			c3.803,0.546,7.98-0.254,12.004,0.61l3.137-0.245l1.679-1.527C694.068,150.959,691.513,152.702,690.448,151.153z"/>
	</g>
	<g>
		<path fill="#4A4434" d="M706.674,132.641v-9.687c0-0.173-0.039-0.305-0.117-0.394c-0.079-0.089-0.218-0.162-0.419-0.218v-0.268
			h6.387c1.399,0,2.473,0.159,3.223,0.478c1.074,0.464,1.869,1.231,2.383,2.298c0.408,0.839,0.613,1.82,0.613,2.944
			c0,1.974-0.607,3.478-1.821,4.512c-0.509,0.436-1.105,0.748-1.788,0.936c-0.682,0.188-1.552,0.281-2.61,0.281h-6.387v-0.268
			c0.201-0.056,0.341-0.128,0.419-0.218C706.635,132.946,706.674,132.814,706.674,132.641z M709.174,131.635h3.141
			c1.002,0,1.755-0.136,2.259-0.411c1.08-0.587,1.621-1.731,1.621-3.43c0-1.23-0.291-2.172-0.873-2.826
			c-0.325-0.363-0.716-0.622-1.176-0.776c-0.459-0.153-1.069-0.23-1.83-0.23h-3.141V131.635z"/>
		<path fill="#4A4434" d="M725.848,123.927c1.494,0,2.739,0.38,3.735,1.141c1.192,0.917,1.788,2.194,1.788,3.833
			c0,1.538-0.596,2.765-1.788,3.682c-0.985,0.761-2.224,1.141-3.719,1.141c-1.494,0-2.733-0.38-3.719-1.141
			c-1.197-0.916-1.796-2.169-1.796-3.757c0-1.604,0.599-2.857,1.796-3.757C723.137,124.324,724.371,123.944,725.848,123.927z
			 M725.857,125.705c-0.969,0-1.758,0.31-2.368,0.931c-0.566,0.582-0.848,1.311-0.848,2.189c0,0.872,0.282,1.6,0.848,2.181
			c0.61,0.627,1.403,0.939,2.377,0.939c0.968,0,1.758-0.313,2.368-0.939c0.565-0.576,0.848-1.289,0.848-2.139
			c0-0.923-0.283-1.666-0.848-2.231C727.617,126.027,726.825,125.717,725.857,125.705z"/>
		<path fill="#4A4434" d="M739.79,126.997l-2.057,5.108c-0.101,0.252-0.151,0.458-0.151,0.621c0,0.313,0.185,0.503,0.554,0.57v0.226
			h-3.5v-0.226c0.336-0.084,0.503-0.274,0.503-0.57c0-0.151-0.05-0.358-0.151-0.621l-2.485-6.408
			c-0.19-0.492-0.351-0.82-0.483-0.986c-0.132-0.165-0.329-0.281-0.592-0.348v-0.235h3.571v0.235
			c-0.347,0.112-0.52,0.288-0.52,0.528c0,0.117,0.056,0.319,0.168,0.604l1.768,4.437l1.755-4.403
			c0.106-0.263,0.159-0.464,0.159-0.604c0-0.28-0.187-0.467-0.562-0.562v-0.235h4.181v0.235c-0.364,0.117-0.546,0.313-0.546,0.587
			c0,0.124,0.048,0.305,0.143,0.545l1.713,4.437l1.713-4.479c0.073-0.195,0.109-0.366,0.109-0.512c0-0.156-0.039-0.277-0.118-0.361
			c-0.078-0.084-0.221-0.156-0.428-0.218v-0.235h3.659v0.235c-0.274,0.101-0.474,0.228-0.6,0.381
			c-0.126,0.154-0.284,0.471-0.474,0.952l-2.518,6.408c-0.09,0.229-0.134,0.431-0.134,0.604c0,0.324,0.19,0.52,0.57,0.587v0.226
			h-3.643v-0.226c0.358-0.101,0.537-0.304,0.537-0.612c0-0.078-0.062-0.271-0.185-0.579L739.79,126.997z"/>
		<path fill="#4A4434" d="M751.835,127.332v5.327c0,0.173,0.04,0.307,0.122,0.403c0.081,0.095,0.219,0.17,0.415,0.226v0.235h-3.12
			v-0.235c0.196-0.05,0.334-0.123,0.415-0.218c0.081-0.095,0.122-0.229,0.122-0.403v-7.683c0-0.173-0.039-0.305-0.117-0.394
			c-0.079-0.089-0.218-0.165-0.419-0.226v-0.235h3.608v0.235c-0.246,0.062-0.369,0.171-0.369,0.327c0,0.134,0.09,0.29,0.268,0.47
			l5.039,4.999v-5.175c0-0.173-0.04-0.307-0.117-0.398c-0.079-0.093-0.218-0.166-0.419-0.223v-0.235h3.12v0.235
			c-0.201,0.056-0.342,0.13-0.419,0.222c-0.079,0.092-0.117,0.225-0.117,0.399v7.675c0,0.173,0.039,0.306,0.117,0.398
			c0.078,0.092,0.218,0.169,0.419,0.23v0.235h-3.364v-0.235c0.245-0.05,0.369-0.152,0.369-0.308c0-0.078-0.034-0.158-0.101-0.241
			c-0.067-0.084-0.221-0.247-0.462-0.491L751.835,127.332z"/>
		<path fill="#4A4434" d="M767.445,125.831v6.828c0,0.173,0.039,0.306,0.117,0.398c0.079,0.092,0.218,0.169,0.419,0.23v0.235h-3.321
			v-0.235c0.196-0.05,0.334-0.123,0.416-0.218c0.081-0.095,0.121-0.229,0.121-0.403v-6.835h-2.768c-0.179,0-0.315,0.04-0.406,0.12
			c-0.093,0.08-0.167,0.219-0.223,0.417h-0.226v-2.776h0.226c0.05,0.196,0.122,0.334,0.214,0.415
			c0.093,0.082,0.229,0.122,0.407,0.122h7.791c0.179,0,0.315-0.039,0.407-0.117c0.092-0.078,0.166-0.218,0.223-0.419h0.226v2.776
			h-0.226c-0.056-0.198-0.13-0.337-0.223-0.417c-0.091-0.079-0.227-0.12-0.406-0.12H767.445z"/>
		<path fill="#4A4434" d="M777.427,123.927c1.493,0,2.739,0.38,3.734,1.141c1.191,0.917,1.787,2.194,1.787,3.833
			c0,1.538-0.596,2.765-1.787,3.682c-0.985,0.761-2.225,1.141-3.718,1.141c-1.494,0-2.734-0.38-3.719-1.141
			c-1.197-0.916-1.796-2.169-1.796-3.757c0-1.604,0.599-2.857,1.796-3.757C774.715,124.324,775.949,123.944,777.427,123.927z
			 M777.434,125.705c-0.968,0-1.758,0.31-2.368,0.931c-0.566,0.582-0.848,1.311-0.848,2.189c0,0.872,0.282,1.6,0.848,2.181
			c0.61,0.627,1.403,0.939,2.377,0.939c0.968,0,1.757-0.313,2.368-0.939c0.564-0.576,0.848-1.289,0.848-2.139
			c0-0.923-0.284-1.666-0.848-2.231C779.195,126.027,778.403,125.717,777.434,125.705z"/>
		<path fill="#4A4434" d="M791.367,126.997l-2.057,5.108c-0.101,0.252-0.152,0.458-0.152,0.621c0,0.313,0.185,0.503,0.554,0.57
			v0.226h-3.5v-0.226c0.335-0.084,0.503-0.274,0.503-0.57c0-0.151-0.05-0.358-0.151-0.621l-2.485-6.408
			c-0.19-0.492-0.351-0.82-0.483-0.986c-0.131-0.165-0.329-0.281-0.592-0.348v-0.235h3.571v0.235
			c-0.347,0.112-0.52,0.288-0.52,0.528c0,0.117,0.056,0.319,0.168,0.604l1.768,4.437l1.754-4.403c0.107-0.263,0.16-0.464,0.16-0.604
			c0-0.28-0.188-0.467-0.563-0.562v-0.235h4.181v0.235c-0.364,0.117-0.545,0.313-0.545,0.587c0,0.124,0.047,0.305,0.143,0.545
			l1.713,4.437l1.712-4.479c0.073-0.195,0.109-0.366,0.109-0.512c0-0.156-0.039-0.277-0.117-0.361
			c-0.079-0.084-0.221-0.156-0.428-0.218v-0.235h3.659v0.235c-0.274,0.101-0.474,0.228-0.6,0.381
			c-0.126,0.154-0.284,0.471-0.474,0.952l-2.518,6.408c-0.09,0.229-0.134,0.431-0.134,0.604c0,0.324,0.19,0.52,0.57,0.587v0.226
			h-3.643v-0.226c0.358-0.101,0.537-0.304,0.537-0.612c0-0.078-0.062-0.271-0.185-0.579L791.367,126.997z"/>
		<path fill="#4A4434" d="M803.412,127.332v5.327c0,0.173,0.04,0.307,0.122,0.403c0.081,0.095,0.219,0.17,0.415,0.226v0.235h-3.12
			v-0.235c0.196-0.05,0.334-0.123,0.415-0.218c0.082-0.095,0.122-0.229,0.122-0.403v-7.683c0-0.173-0.039-0.305-0.117-0.394
			c-0.078-0.089-0.218-0.165-0.419-0.226v-0.235h3.608v0.235c-0.246,0.062-0.369,0.171-0.369,0.327c0,0.134,0.089,0.29,0.268,0.47
			l5.039,4.999v-5.175c0-0.173-0.039-0.307-0.117-0.398c-0.078-0.093-0.218-0.166-0.419-0.223v-0.235h3.12v0.235
			c-0.201,0.056-0.341,0.13-0.419,0.222c-0.079,0.092-0.117,0.225-0.117,0.399v7.675c0,0.173,0.039,0.306,0.117,0.398
			c0.078,0.092,0.218,0.169,0.419,0.23v0.235h-3.365v-0.235c0.246-0.05,0.37-0.152,0.37-0.308c0-0.078-0.034-0.158-0.101-0.241
			c-0.067-0.084-0.22-0.247-0.461-0.491L803.412,127.332z"/>
		<path fill="#4A4434" d="M818.952,132.641v-9.687c0-0.173-0.039-0.305-0.117-0.394s-0.218-0.162-0.419-0.218v-0.268h6.387
			c1.398,0,2.473,0.159,3.222,0.478c1.074,0.464,1.869,1.231,2.383,2.298c0.409,0.839,0.613,1.82,0.613,2.944
			c0,1.974-0.607,3.478-1.822,4.512c-0.509,0.436-1.105,0.748-1.787,0.936c-0.683,0.188-1.553,0.281-2.61,0.281h-6.387v-0.268
			c0.201-0.056,0.341-0.128,0.419-0.218C818.914,132.946,818.952,132.814,818.952,132.641z M821.452,131.635h3.141
			c1.002,0,1.755-0.136,2.258-0.411c1.08-0.587,1.621-1.731,1.621-3.43c0-1.23-0.291-2.172-0.873-2.826
			c-0.325-0.363-0.717-0.622-1.176-0.776c-0.459-0.153-1.07-0.23-1.831-0.23h-3.141V131.635z"/>
		<path fill="#4A4434" d="M835.518,129.53v2.29h5.963c0.173,0,0.306-0.039,0.399-0.115c0.092-0.078,0.166-0.218,0.222-0.422h0.235
			v2.776h-0.235c-0.05-0.196-0.123-0.334-0.218-0.415c-0.095-0.082-0.229-0.122-0.403-0.122h-8.748v-0.235
			c0.196-0.05,0.334-0.123,0.415-0.218c0.082-0.095,0.122-0.229,0.122-0.403v-7.683c0-0.173-0.039-0.305-0.117-0.394
			c-0.079-0.089-0.218-0.165-0.419-0.226v-0.235h8.488c0.179,0,0.314-0.039,0.407-0.117c0.091-0.078,0.166-0.218,0.222-0.419h0.226
			v2.776h-0.226c-0.056-0.204-0.13-0.344-0.222-0.422c-0.093-0.076-0.228-0.115-0.407-0.115h-5.703v2.063h3.539
			c0.173,0,0.306-0.039,0.398-0.117c0.093-0.079,0.169-0.218,0.231-0.419h0.226v2.709h-0.226c-0.056-0.198-0.13-0.337-0.222-0.417
			c-0.093-0.08-0.228-0.12-0.407-0.12H835.518z"/>
		<path fill="#4A4434" d="M846.38,127.332v5.327c0,0.173,0.04,0.307,0.122,0.403c0.081,0.095,0.219,0.17,0.415,0.226v0.235h-3.12
			v-0.235c0.196-0.05,0.334-0.123,0.415-0.218c0.082-0.095,0.122-0.229,0.122-0.403v-7.683c0-0.173-0.039-0.305-0.117-0.394
			c-0.078-0.089-0.218-0.165-0.419-0.226v-0.235h3.608v0.235c-0.246,0.062-0.369,0.171-0.369,0.327c0,0.134,0.089,0.29,0.268,0.47
			l5.039,4.999v-5.175c0-0.173-0.039-0.307-0.117-0.398c-0.079-0.093-0.218-0.166-0.419-0.223v-0.235h3.12v0.235
			c-0.201,0.056-0.341,0.13-0.419,0.222c-0.079,0.092-0.117,0.225-0.117,0.399v7.675c0,0.173,0.039,0.306,0.117,0.398
			c0.078,0.092,0.218,0.169,0.419,0.23v0.235h-3.365v-0.235c0.246-0.05,0.37-0.152,0.37-0.308c0-0.078-0.034-0.158-0.101-0.241
			c-0.067-0.084-0.22-0.247-0.461-0.491L846.38,127.332z"/>
		<path fill="#4A4434" d="M861.726,130.548l2.279-4.968c0.134-0.285,0.201-0.498,0.201-0.637c0-0.28-0.182-0.472-0.545-0.579v-0.235
			h3.632v0.235c-0.224,0.073-0.387,0.162-0.487,0.268c-0.101,0.107-0.229,0.325-0.386,0.654l-3.29,6.919
			c-0.117,0.246-0.176,0.434-0.176,0.562c0,0.28,0.185,0.456,0.554,0.528v0.226h-3.684v-0.226c0.364-0.072,0.545-0.249,0.545-0.528
			c0-0.128-0.059-0.316-0.176-0.562l-3.29-6.919c-0.157-0.335-0.284-0.555-0.382-0.659c-0.098-0.103-0.262-0.191-0.491-0.264v-0.235
			h3.763v0.235c-0.358,0.112-0.537,0.305-0.537,0.579c0,0.123,0.07,0.335,0.21,0.637L861.726,130.548z"/>
		<path fill="#4A4434" d="M871.179,129.53v2.29h5.963c0.173,0,0.306-0.039,0.399-0.115c0.091-0.078,0.166-0.218,0.222-0.422h0.235
			v2.776h-0.235c-0.05-0.196-0.123-0.334-0.218-0.415c-0.095-0.082-0.229-0.122-0.403-0.122h-8.748v-0.235
			c0.196-0.05,0.334-0.123,0.415-0.218c0.082-0.095,0.122-0.229,0.122-0.403v-7.683c0-0.173-0.039-0.305-0.117-0.394
			c-0.079-0.089-0.218-0.165-0.419-0.226v-0.235h8.488c0.179,0,0.314-0.039,0.407-0.117c0.091-0.078,0.166-0.218,0.222-0.419h0.226
			v2.776h-0.226c-0.056-0.204-0.13-0.344-0.222-0.422c-0.093-0.076-0.228-0.115-0.407-0.115h-5.703v2.063h3.539
			c0.173,0,0.307-0.039,0.398-0.117c0.093-0.079,0.169-0.218,0.231-0.419h0.226v2.709h-0.226c-0.056-0.198-0.13-0.337-0.222-0.417
			c-0.093-0.08-0.228-0.12-0.407-0.12H871.179z"/>
		<path fill="#4A4434" d="M882.243,129.664v2.996c0,0.173,0.039,0.306,0.117,0.397c0.078,0.092,0.218,0.169,0.419,0.23v0.235h-3.321
			v-0.235c0.196-0.05,0.334-0.123,0.415-0.218c0.082-0.095,0.122-0.229,0.122-0.403v-7.683c0-0.173-0.039-0.305-0.117-0.394
			c-0.079-0.089-0.218-0.165-0.419-0.226v-0.235h6.156c0.8,0,1.409,0.041,1.828,0.122c0.419,0.081,0.794,0.227,1.124,0.44
			c0.676,0.441,1.015,1.163,1.015,2.164c0,0.76-0.208,1.355-0.624,1.782c-0.417,0.428-1.09,0.737-2.017,0.927l1.778,2.477
			c0.324,0.457,0.583,0.768,0.776,0.932c0.192,0.165,0.412,0.27,0.658,0.314v0.235h-3.95v-0.235
			c0.291-0.078,0.437-0.204,0.437-0.377c0-0.122-0.09-0.31-0.269-0.56l-1.876-2.686H882.243z M882.243,127.961h3.388
			c0.515,0,0.894-0.056,1.141-0.168c0.347-0.151,0.52-0.45,0.52-0.897c0-0.396-0.122-0.674-0.365-0.83
			c-0.244-0.156-0.676-0.235-1.296-0.235h-3.388V127.961z"/>
		<path fill="#4A4434" d="M709.174,146.833v3.774c0,0.168,0.04,0.297,0.122,0.39c0.081,0.091,0.219,0.163,0.415,0.213v0.268h-3.573
			v-0.268c0.201-0.056,0.341-0.129,0.419-0.218c0.078-0.089,0.117-0.218,0.117-0.386v-9.695c0-0.173-0.039-0.305-0.117-0.394
			c-0.079-0.089-0.218-0.162-0.419-0.218v-0.268h7.146c0.833,0,1.494,0.056,1.984,0.168c0.489,0.112,0.921,0.305,1.296,0.579
			c0.386,0.285,0.688,0.66,0.906,1.124c0.218,0.481,0.327,0.99,0.327,1.526c0,0.772-0.207,1.449-0.621,2.03
			c-0.358,0.498-0.832,0.851-1.422,1.061c-0.59,0.209-1.413,0.314-2.47,0.314H709.174z M709.174,144.946h3.816
			c0.76,0,1.294-0.081,1.602-0.243c0.196-0.106,0.353-0.275,0.474-0.508c0.12-0.232,0.18-0.487,0.18-0.767
			c0-0.274-0.06-0.527-0.18-0.759c-0.12-0.232-0.278-0.401-0.474-0.507c-0.302-0.162-0.836-0.243-1.602-0.243h-3.816V144.946z"/>
		<path fill="#4A4434" d="M725.008,149.131h-4.32l-0.486,1.023c-0.117,0.246-0.176,0.439-0.176,0.579
			c0,0.268,0.179,0.439,0.537,0.512v0.235h-3.451v-0.235c0.212-0.034,0.37-0.098,0.474-0.193c0.103-0.095,0.225-0.282,0.365-0.562
			l3.43-6.944c0.128-0.262,0.193-0.492,0.193-0.688c0-0.229-0.157-0.408-0.47-0.537v-0.235h3.648v0.235
			c-0.308,0.124-0.461,0.313-0.461,0.57c0,0.185,0.07,0.411,0.21,0.679l3.556,6.735c0.196,0.366,0.349,0.603,0.461,0.711
			c0.112,0.108,0.282,0.185,0.512,0.229v0.235h-3.837v-0.235c0.363-0.061,0.545-0.231,0.545-0.509c0-0.173-0.07-0.387-0.21-0.644
			L725.008,149.131z M724.331,147.814l-1.538-3.022l-1.464,3.022H724.331z"/>
		<path fill="#4A4434" d="M732.923,147.621v2.996c0,0.173,0.039,0.306,0.117,0.397c0.078,0.092,0.218,0.169,0.419,0.23v0.235h-3.321
			v-0.235c0.196-0.05,0.334-0.123,0.415-0.218c0.081-0.095,0.122-0.229,0.122-0.403v-7.683c0-0.173-0.039-0.305-0.117-0.394
			c-0.078-0.089-0.218-0.165-0.419-0.226v-0.235h6.156c0.799,0,1.409,0.041,1.828,0.122c0.419,0.081,0.794,0.227,1.124,0.44
			c0.676,0.441,1.015,1.163,1.015,2.164c0,0.76-0.209,1.355-0.625,1.782c-0.417,0.428-1.089,0.737-2.017,0.927l1.778,2.477
			c0.324,0.457,0.583,0.769,0.776,0.933c0.193,0.164,0.412,0.269,0.658,0.313v0.235h-3.95v-0.235
			c0.291-0.078,0.437-0.204,0.437-0.377c0-0.123-0.09-0.31-0.269-0.56l-1.876-2.686H732.923z M732.923,145.919h3.388
			c0.514,0,0.894-0.056,1.141-0.168c0.347-0.151,0.52-0.45,0.52-0.897c0-0.396-0.122-0.674-0.365-0.83
			c-0.243-0.156-0.675-0.235-1.296-0.235h-3.388V145.919z"/>
		<path fill="#4A4434" d="M747.333,143.788v6.828c0,0.173,0.039,0.306,0.117,0.398c0.078,0.092,0.218,0.169,0.419,0.23v0.235h-3.321
			v-0.235c0.196-0.05,0.334-0.123,0.415-0.218c0.081-0.095,0.122-0.229,0.122-0.403v-6.835h-2.768c-0.179,0-0.315,0.04-0.407,0.12
			c-0.092,0.08-0.167,0.219-0.222,0.417h-0.226v-2.776h0.226c0.05,0.196,0.122,0.334,0.214,0.415
			c0.092,0.082,0.228,0.122,0.407,0.122h7.791c0.179,0,0.315-0.039,0.407-0.117c0.092-0.078,0.167-0.218,0.223-0.419h0.227v2.776
			h-0.227c-0.056-0.198-0.13-0.337-0.222-0.417c-0.092-0.079-0.228-0.12-0.407-0.12H747.333z"/>
		<path fill="#4A4434" d="M754.74,145.29v5.327c0,0.173,0.04,0.307,0.121,0.403c0.081,0.095,0.22,0.17,0.416,0.226v0.235h-3.12
			v-0.235c0.196-0.05,0.334-0.123,0.415-0.218c0.081-0.095,0.122-0.229,0.122-0.403v-7.683c0-0.173-0.039-0.305-0.117-0.394
			c-0.079-0.089-0.218-0.165-0.419-0.226v-0.235h3.607v0.235c-0.246,0.062-0.369,0.171-0.369,0.327c0,0.134,0.09,0.29,0.268,0.47
			l5.04,4.999v-5.175c0-0.173-0.04-0.307-0.117-0.398c-0.079-0.093-0.218-0.166-0.419-0.223v-0.235h3.12v0.235
			c-0.201,0.056-0.342,0.13-0.419,0.222c-0.079,0.092-0.117,0.225-0.117,0.399v7.675c0,0.173,0.039,0.306,0.117,0.398
			c0.078,0.092,0.218,0.169,0.419,0.23v0.235h-3.364v-0.235c0.245-0.05,0.369-0.152,0.369-0.308c0-0.077-0.034-0.158-0.101-0.241
			c-0.067-0.083-0.221-0.247-0.462-0.491L754.74,145.29z"/>
		<path fill="#4A4434" d="M767.725,147.487v2.29h5.962c0.174,0,0.307-0.039,0.399-0.116c0.092-0.077,0.166-0.217,0.222-0.421h0.235
			v2.776h-0.235c-0.05-0.196-0.123-0.334-0.218-0.415c-0.095-0.082-0.229-0.122-0.403-0.122h-8.747v-0.235
			c0.195-0.05,0.334-0.123,0.415-0.218c0.081-0.095,0.122-0.229,0.122-0.403v-7.683c0-0.173-0.04-0.305-0.117-0.394
			c-0.079-0.089-0.218-0.165-0.419-0.226v-0.235h8.488c0.178,0,0.314-0.039,0.406-0.117c0.092-0.078,0.166-0.218,0.222-0.419h0.227
			v2.776h-0.227c-0.056-0.204-0.13-0.344-0.222-0.422c-0.092-0.076-0.228-0.115-0.406-0.115h-5.703v2.063h3.539
			c0.172,0,0.306-0.039,0.398-0.117c0.092-0.079,0.169-0.218,0.23-0.419h0.227v2.709h-0.227c-0.056-0.198-0.13-0.337-0.222-0.417
			c-0.092-0.08-0.228-0.12-0.406-0.12H767.725z"/>
		<path fill="#4A4434" d="M778.788,147.621v2.996c0,0.173,0.038,0.306,0.117,0.397c0.078,0.092,0.218,0.169,0.419,0.23v0.235h-3.321
			v-0.235c0.195-0.05,0.334-0.123,0.415-0.218c0.081-0.095,0.122-0.229,0.122-0.403v-7.683c0-0.173-0.04-0.305-0.117-0.394
			c-0.079-0.089-0.218-0.165-0.419-0.226v-0.235h6.156c0.799,0,1.409,0.041,1.828,0.122c0.419,0.081,0.793,0.227,1.124,0.44
			c0.676,0.441,1.014,1.163,1.014,2.164c0,0.76-0.207,1.355-0.624,1.782c-0.418,0.428-1.09,0.737-2.017,0.927l1.778,2.477
			c0.323,0.457,0.583,0.769,0.776,0.933c0.192,0.164,0.412,0.269,0.657,0.313v0.235h-3.95v-0.235
			c0.291-0.078,0.436-0.204,0.436-0.377c0-0.123-0.09-0.31-0.268-0.56l-1.877-2.686H778.788z M778.788,145.919h3.388
			c0.514,0,0.894-0.056,1.141-0.168c0.346-0.151,0.52-0.45,0.52-0.897c0-0.396-0.122-0.674-0.365-0.83
			c-0.244-0.156-0.676-0.235-1.296-0.235h-3.388V145.919z"/>
		<path fill="#4A4434" d="M797.048,142.933l-1.132,2.189l-0.201-0.109c0-0.185-0.059-0.33-0.176-0.436
			c-0.319-0.285-0.788-0.52-1.409-0.705s-1.25-0.277-1.887-0.277c-0.542,0-1.023,0.075-1.443,0.226
			c-0.604,0.218-0.906,0.534-0.906,0.948c0,0.274,0.146,0.468,0.436,0.583c0.29,0.115,0.852,0.206,1.686,0.273l1.325,0.101
			c1.157,0.09,2.038,0.313,2.642,0.671c0.336,0.201,0.612,0.47,0.83,0.805c0.274,0.419,0.411,0.892,0.411,1.417
			c0,0.956-0.431,1.711-1.292,2.264c-0.822,0.531-1.934,0.797-3.338,0.797c-1.414,0-2.781-0.299-4.101-0.897
			c-0.089-0.039-0.165-0.059-0.226-0.059c-0.112,0-0.215,0.067-0.31,0.201l-0.21-0.084l0.965-2.298l0.21,0.084
			c0,0.034,0,0.056,0,0.067c0,0.146,0.056,0.268,0.168,0.369c0.28,0.246,0.763,0.46,1.451,0.642
			c0.688,0.181,1.367,0.272,2.038,0.272c0.592,0,1.124-0.079,1.594-0.235c0.582-0.19,0.872-0.498,0.872-0.923
			c0-0.341-0.201-0.579-0.604-0.713c-0.268-0.089-0.752-0.165-1.451-0.226l-1.317-0.109c-0.71-0.056-1.253-0.129-1.627-0.218
			c-0.374-0.089-0.701-0.221-0.981-0.394c-0.358-0.223-0.637-0.528-0.839-0.914s-0.302-0.808-0.302-1.266
			c0-1.029,0.441-1.814,1.325-2.357c0.805-0.492,1.8-0.738,2.986-0.738c0.643,0,1.243,0.072,1.799,0.213
			c0.557,0.143,1.221,0.393,1.992,0.751c0.229,0.106,0.389,0.159,0.478,0.159s0.204-0.061,0.344-0.185L797.048,142.933z"/>
		<path fill="#4A4434" d="M806.652,147.386h-5.25v3.229c0,0.173,0.039,0.306,0.117,0.399c0.078,0.091,0.218,0.169,0.419,0.23v0.235
			h-3.321v-0.235c0.196-0.05,0.334-0.123,0.415-0.218c0.082-0.095,0.122-0.229,0.122-0.403v-7.683c0-0.173-0.039-0.305-0.117-0.394
			c-0.078-0.089-0.218-0.165-0.419-0.226v-0.235h3.321v0.235c-0.201,0.056-0.341,0.13-0.419,0.222
			c-0.079,0.092-0.117,0.224-0.117,0.397v2.744h5.25v-2.744c0-0.173-0.038-0.303-0.113-0.393c-0.076-0.088-0.217-0.165-0.424-0.226
			v-0.235h3.321v0.235c-0.201,0.056-0.341,0.13-0.419,0.222c-0.078,0.092-0.117,0.225-0.117,0.399v7.675
			c0,0.173,0.039,0.306,0.117,0.398c0.079,0.092,0.218,0.169,0.419,0.23v0.235h-3.321v-0.235c0.196-0.05,0.334-0.124,0.415-0.219
			c0.082-0.095,0.122-0.229,0.122-0.403V147.386z"/>
		<path fill="#4A4434" d="M813.877,142.941v7.675c0,0.173,0.039,0.306,0.117,0.398s0.218,0.169,0.419,0.23v0.235h-3.321v-0.235
			c0.196-0.05,0.334-0.123,0.415-0.218c0.082-0.095,0.122-0.229,0.122-0.403v-7.683c0-0.173-0.039-0.305-0.117-0.394
			c-0.078-0.089-0.218-0.165-0.419-0.226v-0.235h3.321v0.235c-0.201,0.056-0.341,0.13-0.419,0.222S813.877,142.768,813.877,142.941z
			"/>
		<path fill="#4A4434" d="M818.823,147.621v2.996c0,0.173,0.039,0.306,0.117,0.397c0.079,0.092,0.218,0.169,0.419,0.23v0.235h-3.321
			v-0.235c0.196-0.05,0.334-0.123,0.415-0.218c0.082-0.095,0.122-0.229,0.122-0.403v-7.683c0-0.173-0.039-0.305-0.117-0.394
			c-0.079-0.089-0.218-0.165-0.419-0.226v-0.235h6.123c1.213,0,2.127,0.181,2.743,0.545c0.358,0.213,0.637,0.515,0.839,0.906
			c0.201,0.391,0.302,0.83,0.302,1.317c0,0.934-0.319,1.629-0.956,2.085c-0.637,0.455-1.613,0.683-2.927,0.683H818.823z
			 M818.823,145.919h3.204c0.587,0,0.995-0.056,1.225-0.168c0.335-0.162,0.503-0.461,0.503-0.897s-0.168-0.735-0.503-0.897
			c-0.223-0.112-0.632-0.168-1.225-0.168h-3.204V145.919z"/>
		<path fill="#4A4434" d="M826.649,153.576c0.458-0.302,0.788-0.595,0.99-0.881c0.201-0.285,0.344-0.654,0.428-1.107
			c-0.268,0.062-0.464,0.092-0.587,0.092c-0.369,0-0.666-0.129-0.889-0.386c-0.223-0.257-0.335-0.592-0.335-1.006
			s0.113-0.743,0.34-0.99c0.226-0.246,0.527-0.369,0.901-0.369c0.503,0,0.889,0.207,1.157,0.621
			c0.235,0.374,0.352,0.822,0.352,1.342c0,1.23-0.651,2.303-1.954,3.221L826.649,153.576z"/>
		<path fill="#4A4434" d="M836.436,150.599v-9.695c0-0.168-0.039-0.297-0.117-0.386c-0.078-0.089-0.218-0.162-0.419-0.218v-0.268
			h3.573v0.268c-0.201,0.05-0.341,0.121-0.419,0.214c-0.079,0.091-0.117,0.222-0.117,0.39v9.695c0,0.173,0.04,0.306,0.121,0.399
			c0.082,0.091,0.22,0.163,0.416,0.213v0.268h-3.573v-0.268c0.201-0.056,0.341-0.129,0.419-0.218
			C836.397,150.904,836.436,150.772,836.436,150.599z"/>
		<path fill="#4A4434" d="M843.943,145.29v5.327c0,0.173,0.04,0.307,0.122,0.403c0.081,0.095,0.219,0.17,0.415,0.226v0.235h-3.12
			v-0.235c0.196-0.05,0.334-0.123,0.415-0.218c0.082-0.095,0.122-0.229,0.122-0.403v-7.683c0-0.173-0.039-0.305-0.117-0.394
			c-0.079-0.089-0.218-0.165-0.419-0.226v-0.235h3.608v0.235c-0.246,0.062-0.369,0.171-0.369,0.327c0,0.134,0.089,0.29,0.268,0.47
			l5.039,4.999v-5.175c0-0.173-0.039-0.307-0.117-0.398c-0.079-0.093-0.218-0.166-0.419-0.223v-0.235h3.12v0.235
			c-0.201,0.056-0.341,0.13-0.419,0.222c-0.078,0.092-0.117,0.225-0.117,0.399v7.675c0,0.173,0.039,0.306,0.117,0.398
			c0.079,0.092,0.218,0.169,0.419,0.23v0.235h-3.365v-0.235c0.246-0.05,0.37-0.152,0.37-0.308c0-0.077-0.034-0.158-0.101-0.241
			c-0.067-0.083-0.22-0.247-0.461-0.491L843.943,145.29z"/>
		<path fill="#4A4434" d="M863.263,148.108l1.417,2.072l-0.193,0.143c-0.134-0.095-0.24-0.143-0.319-0.143
			c-0.095,0-0.316,0.104-0.663,0.31c-0.766,0.448-1.443,0.758-2.03,0.931s-1.263,0.26-2.03,0.26c-1.532,0-2.781-0.366-3.749-1.099
			c-0.548-0.419-0.984-0.945-1.308-1.577c-0.347-0.682-0.52-1.423-0.52-2.223c0-1.101,0.319-2.074,0.956-2.919
			c1.001-1.319,2.536-1.979,4.604-1.979c0.766,0,1.447,0.087,2.042,0.26c0.596,0.173,1.274,0.484,2.034,0.931
			c0.347,0.207,0.567,0.31,0.663,0.31c0.079,0,0.185-0.047,0.319-0.143l0.193,0.151l-1.417,2.055l-0.185-0.133
			c0.005-0.067,0.011-0.108,0.017-0.125c0.005-0.05,0.008-0.087,0.008-0.109c0-0.272-0.377-0.582-1.132-0.926
			c-0.716-0.328-1.437-0.493-2.164-0.493c-1.018,0-1.857,0.268-2.516,0.803c-0.755,0.602-1.132,1.375-1.132,2.317
			c0,0.948,0.377,1.723,1.132,2.326c0.666,0.53,1.504,0.794,2.516,0.794c0.794,0,1.585-0.198,2.374-0.595
			c0.615-0.313,0.923-0.587,0.923-0.822c0-0.011-0.008-0.089-0.025-0.235L863.263,148.108z"/>
		<path fill="#4A4434" d="M867.971,148.93c0.386,0,0.711,0.134,0.977,0.403c0.265,0.268,0.398,0.595,0.398,0.981
			c0,0.374-0.136,0.696-0.407,0.965c-0.271,0.268-0.594,0.403-0.968,0.403c-0.38,0-0.705-0.136-0.973-0.407
			c-0.268-0.271-0.403-0.596-0.403-0.977c0-0.374,0.133-0.695,0.398-0.96C867.259,149.071,867.585,148.935,867.971,148.93z"/>
	</g>
</g>
</svg>
