<?xml version="1.0" encoding="utf-8"?>
<!-- Generator: Adobe Illustrator 17.0.0, SVG Export Plug-In . SVG Version: 6.00 Build 0)  -->
<!DOCTYPE svg PUBLIC "-//W3C//DTD SVG 1.1//EN" "http://www.w3.org/Graphics/SVG/1.1/DTD/svg11.dtd">
<svg version="1.1" id="Layer_1" xmlns="http://www.w3.org/2000/svg" xmlns:xlink="http://www.w3.org/1999/xlink" x="0px" y="0px"
	 width="487.929px" height="887.24px" viewBox="0 0 487.929 887.24" enable-background="new 0 0 487.929 887.24"
	 xml:space="preserve">
<g>
	<path opacity="0.03" fill="#010101" d="M17.347,80.831v0.025c-0.165-0.013-0.33-0.025-0.498-0.025
		c-4.602,0-8.333,3.731-8.333,8.333c0,2.88,1.464,5.414,3.685,6.911v1.338c-2.221,1.497-3.685,4.031-3.685,6.911
		c0,0.032,0.006,0.063,0.006,0.095c0,0.032-0.006,0.063-0.006,0.095c0,2.88,1.464,5.414,3.685,6.911v1.338
		c-2.221,1.497-3.685,4.031-3.685,6.911c0,0.032,0.006,0.063,0.006,0.095c0,0.032-0.006,0.063-0.006,0.095
		c0,2.88,1.464,5.414,3.685,6.911v1.338c-2.221,1.497-3.685,4.031-3.685,6.911c0,0.032,0.006,0.063,0.006,0.095
		c0,0.032-0.006,0.063-0.006,0.095c0,2.88,1.464,5.414,3.685,6.911v1.338c-2.221,1.497-3.685,4.031-3.685,6.911
		c0,0.032,0.006,0.063,0.006,0.095c0,0.032-0.006,0.063-0.006,0.095c0,2.88,1.464,5.414,3.685,6.911v1.338
		c-2.221,1.497-3.685,4.031-3.685,6.911c0,4.602,3.731,8.333,8.333,8.333c0.168,0,0.333-0.012,0.498-0.025v0.139h80.488
		c2.503,0,4.532-2.029,4.532-4.532V85.596c0-2.631-2.133-4.764-4.764-4.764H17.347z"/>
	<path fill="#BAD97C" d="M17.347,74.618v0.025c-0.165-0.013-0.33-0.025-0.498-0.025c-4.602,0-8.333,3.731-8.333,8.333
		c0,2.88,1.464,5.414,3.685,6.911V91.2c-2.221,1.497-3.685,4.031-3.685,6.911c0,0.032,0.006,0.063,0.006,0.095
		c0,0.032-0.006,0.063-0.006,0.095c0,2.88,1.464,5.414,3.685,6.911v1.338c-2.221,1.497-3.685,4.031-3.685,6.911
		c0,0.032,0.006,0.063,0.006,0.095c0,0.032-0.006,0.063-0.006,0.095c0,2.88,1.464,5.414,3.685,6.911v1.338
		c-2.221,1.497-3.685,4.031-3.685,6.911c0,0.032,0.006,0.063,0.006,0.095c0,0.032-0.006,0.063-0.006,0.095
		c0,2.88,1.464,5.414,3.685,6.911v1.338c-2.221,1.497-3.685,4.031-3.685,6.911c0,0.032,0.006,0.063,0.006,0.095
		c0,0.032-0.006,0.063-0.006,0.095c0,2.88,1.464,5.414,3.685,6.911v1.338c-2.221,1.497-3.685,4.031-3.685,6.911
		c0,4.602,3.731,8.333,8.333,8.333c0.168,0,0.333-0.012,0.498-0.025v0.139h80.488c2.503,0,4.532-2.029,4.532-4.532V79.383
		c0-2.631-2.133-4.764-4.764-4.764H17.347z"/>
	<path fill="#9FCD84" d="M97.603,74.618H67.446v62.726l32.884,25.872c1.22,1.071,1.149,2.749,0.267,3.795
		c1.075-0.829,1.77-2.125,1.77-3.587V79.383C102.367,76.751,100.234,74.618,97.603,74.618z"/>
	<path opacity="0.03" fill="#010101" d="M472.568,51.428H102.367v93.337h370.202c2.547,0,4.613-2.065,4.613-4.613V56.04
		C477.181,53.493,475.116,51.428,472.568,51.428z"/>
	<path opacity="0.03" fill="#010101" d="M102.367,144.764V81.712c0-2.631-2.133-4.764-4.764-4.764H67.446v60.396l9.431,7.42H102.367
		z"/>
	<path fill="#EEF2D6" d="M472.568,138.551H70.53c-2.547,0-4.613-2.065-4.613-4.613V49.827c0-2.547,2.065-4.613,4.613-4.613h402.039
		c2.547,0,4.613,2.065,4.613,4.613v84.112C477.181,136.486,475.116,138.551,472.568,138.551z"/>
	<g>
		<path fill="#EEF2D6" d="M456.587,91.333l-0.001-30.43c0-0.644-0.007-1.499-0.067-2.399c-0.272-4.111-3.431-7.124-7.434-7.162
			l-0.146-0.01c-0.34-0.025-0.68-0.044-1.016-0.044l-10.391-0.003l-8.515,0.001c-5.412,0-8.392,2.974-8.392,8.373v32.226
			c-0.002,1.688-0.409,3.013-1.282,4.169c-1.318,1.747-2.788,2.537-4.893,2.622c-2.105-0.085-3.575-0.875-4.894-2.623
			c-0.891-1.182-1.299-2.542-1.283-4.28c0.002-0.202-0.006-0.402-0.022-0.601l-0.001-30.269c0-0.643-0.007-1.498-0.067-2.399
			c-0.272-4.111-3.431-7.124-7.434-7.162l-0.146-0.01c-0.34-0.025-0.68-0.044-1.016-0.044l-10.392-0.003l-8.514,0.001
			c-4.785,0-7.669,2.324-8.273,6.595c-2.839-3.435-6.619-5.891-11.224-7.251c-4.557-1.346-9.496-1.7-14.797-1.059
			c-3.199,0.39-6.174,1.261-8.872,2.586l-0.001-16.336c0-0.689-0.009-1.512-0.068-2.401c-0.276-4.107-3.434-7.118-7.434-7.156
			l-0.147-0.01c-0.34-0.025-0.68-0.044-1.015-0.044l-10.543-0.003l-8.363,0.001c-5.412,0-8.393,2.974-8.393,8.373v14.557
			c-3.723-4.157-8.392-7.334-13.967-9.495c-7.293-2.825-15.265-3.663-23.636-2.473c-10.502,1.489-19.153,6.303-25.712,14.307
			c-1.036,1.264-1.989,2.569-2.86,3.916c-1.273-2.644-3.877-4.096-7.558-4.105l-4.123-0.004c0.054-3.02,0.107-6.041,0.148-9.06
			c0.049-3.53-1.361-5.714-2.552-6.925c-1.187-1.207-3.335-2.647-6.829-2.657c-6.154-0.02-12.306-0.012-18.465-0.005
			c-4.714,0.007-7.836,3.076-7.952,7.817c-0.09,3.628-0.179,7.257-0.264,10.886c-1.575,0.155-2.932,0.641-4.026,1.415
			c-1.341-0.955-3.094-1.468-5.19-1.469l-18.53-0.001c-3.211,0-5.548,0.824-7.038,2.5c-0.248-0.133-0.499-0.264-0.753-0.391
			c-5.407-2.71-11.496-3.557-18.186-2.512c-4.335,0.678-8.328,2.013-11.962,3.993c-0.855-1.797-2.385-3.238-4.376-4.106
			c-3.442-1.498-6.891-2.98-10.34-4.463c-2.191-0.941-4.381-1.884-6.572-2.831c-1.091-0.47-2.206-0.71-3.313-0.71
			c-2.927,0-5.514,1.64-6.921,4.387c-0.859,1.676-2.103,2.54-4.16,2.887c-0.741,0.125-1.447,0.189-2.097,0.189
			c-2.459,0-4.134-0.859-5.598-2.873c-0.749-1.03-1.678-2.816-1.101-6.408c0.35-2.176,1.15-3.162,1.721-3.714
			c1.843-1.779,3.958-2.266,6.947-1.713c2.95,0.547,3.87,1.666,4.424,2.794c1.305,2.653,3.789,4.236,6.646,4.236
			c1.445,0,2.595-0.419,3.327-0.731c3.197-1.359,6.398-2.709,9.599-4.059l5.96-2.516c2.09-0.883,4.692-1.984,5.918-5.065
			c1.229-3.087,0.097-5.668-0.811-7.741c-4.059-9.261-10.902-15.812-20.338-19.473c-6.721-2.606-14.101-3.504-21.937-2.663
			C67.199,1.58,57.635,6.917,50.649,16.17c-5.603,7.421-8.551,16.459-8.76,26.861c-0.005,0.247,0.004,0.494,0.027,0.739
			c0.062,0.664,0.11,1.328,0.159,1.994c0.122,1.648,0.247,3.352,0.539,5.148c2.524,15.525,11.624,26.503,26.315,31.749
			c4.752,1.698,9.742,2.522,15.255,2.522h0.001c2.049,0,4.201-0.12,6.398-0.355c4.395-0.472,8.467-1.559,12.113-3.233
			c-0.398,1.858-0.674,3.763-0.827,5.709c-0.833,10.64,1.014,19.707,5.647,27.721c3.628,6.274,8.72,11.034,15.134,14.147
			c6.454,3.133,13.543,4.368,20.957,3.66c3.975-0.379,7.589-1.403,10.779-3.052c1.463,1.523,3.627,2.353,6.353,2.353l15.987,0.004
			c0.708,0,1.416-0.001,2.117-0.007c4.48-0.029,7.667-3.059,7.93-7.541c0.02-0.331,0.022-0.663,0.02-0.996l-0.001-42.179
			c0.275,0.053,0.559,0.096,0.848,0.127l0.002,2.107c0.003,5.985,0.007,11.968,0.034,17.953c0.017,3.743,0.228,8.69,1.727,13.767
			c2.077,7.038,6.116,12.115,12.005,15.09c3.445,1.741,7.254,2.777,11.986,3.263c1.18,0.122,2.374,0.183,3.551,0.183h0.001
			c5.969,0,11.743-1.507,17.648-4.607c3.451-1.811,5.18-5.339,4.512-9.21c-0.218-1.255-0.402-2.516-0.588-3.777
			c-0.103-0.703-0.207-1.405-0.315-2.105l-0.099-0.64c-0.288-1.875-0.577-3.749-0.888-5.619c-0.114-0.688-0.276-1.321-0.48-1.9
			c4.083,5.408,9.613,9.604,16.45,12.419c7.892,3.249,16.619,4.159,26.018,2.704c8.973-1.391,16.451-5.427,22.345-12.041v14.346
			l-0.001,0.151c-0.001,0.233-0.001,0.466,0.006,0.706c0.15,4.881,3.164,7.797,8.065,7.8l10.584,0.005
			c2.716,0,5.431-0.002,8.188-0.008c0.25,0,0.471,0.005,0.666,0.008c0.228,0.004,0.432,0.007,0.614,0.007
			c4.371,0,6.27-2.551,7.013-4.072c0.826-1.69,0.825-3.223,0.824-4.847l0.005-15.422c0.001-8.13,0.002-16.262,0.013-24.391
			c0.834-1.261,1.69-1.523,2.881-1.523l0.136,0.002c1.33,0.028,1.511,0.281,1.608,0.418c0.192,0.268,0.447,0.817,0.447,2.473
			l0.002,39.206c0,5.096,3.032,8.14,8.114,8.143l7.241,0.002l9.886-0.001l1.597,0.003c0.362,0,0.724-0.001,1.085-0.005
			c4.676-0.045,7.804-3.104,7.969-7.794c0.008-0.227,0.008-0.455,0.008-0.682l0-8.22c1.745,2.913,3.857,5.532,6.325,7.842
			c2.806,2.825,5.952,5.117,9.412,6.865c-2.635,1.135-5.272,2.268-7.908,3.4l-4.544,1.95c-0.439,0.183-0.986,0.41-1.576,0.712
			c-4.332,2.22-5.912,6.941-3.755,11.228c6.451,12.807,16.283,20.317,29.225,22.323c2.906,0.451,5.777,0.679,8.531,0.679
			c6.152,0,12.035-1.138,17.488-3.382c12.62-5.196,20.788-15.1,23.619-28.64c0.476-2.273,0.697-4.458,0.911-6.57
			c0.087-0.859,0.173-1.718,0.279-2.573c0.021-0.172,0.035-0.36,0.042-0.548c0.006-0.108,0.008-0.218,0.008-0.328V93.082
			c0.022-0.24,0.032-0.481,0.028-0.724c0.014-0.171,0.02-0.344,0.02-0.519C456.606,91.669,456.6,91.5,456.587,91.333z
			 M150.973,92.02c0.011,2.279-0.66,6.258-5.271,7.297c-0.544,0.122-1.099,0.185-1.65,0.185c-3.281,0-6.708-2.277-6.909-6.629
			c-0.156-3.37,0.789-4.99,1.513-5.914c0.918-1.173,2.284-2.373,5.447-2.373l0.176,0.002
			C150.289,84.673,150.962,89.814,150.973,92.02z M228.872,100.486c-0.561,0-1.141,0.046-1.777,0.142
			c-0.951,0.143-1.934,0.291-2.679,0.291l-0.105-0.001c-0.321-0.007-0.514-0.042-0.612-0.067c-0.032-0.112-0.099-0.44-0.1-1.207
			c0-5.981,0-11.962,0-17.935c1.247,0.018,2.495,0.034,3.743,0.046l0.2,0.001c0.326,0,0.645-0.012,0.955-0.036
			c0.056,0.512,0.107,1.025,0.159,1.539c0.214,2.112,0.435,4.295,0.91,6.567c0.971,4.641,2.568,8.853,4.756,12.597
			C232.721,101.05,230.716,100.486,228.872,100.486z M283.998,79.429c-2.93,0-5.505,1.632-6.887,4.367
			c-0.853,1.69-2.109,2.559-4.198,2.91c-0.726,0.122-1.418,0.183-2.056,0.183c-2.415,0-4.072-0.829-5.538-2.774
			c-0.77-1.021-1.733-2.789-1.203-6.345c0.399-2.678,1.473-3.77,2.365-4.421c1.309-0.957,2.666-1.402,4.271-1.402
			c0.81,0,1.696,0.117,2.63,0.348c2.566,0.635,3.365,1.66,3.809,2.58c1.308,2.712,3.819,4.33,6.717,4.33
			c1.083,0,2.149-0.229,3.26-0.701c3.412-1.454,6.829-2.895,10.246-4.337l4.136-1.746v13.823l-2.982-1.282
			c-3.671-1.577-7.342-3.155-11.006-4.736C286.77,79.884,285.537,79.429,283.998,79.429z M414.239,134.439l0.17-0.001l0.228,0.001
			c1.044,0,2.102-0.033,3.167-0.096c-1.496,1.111-3.331,1.366-5.83,0.949c-1.143-0.192-2.036-0.538-2.75-1.09
			C410.916,134.36,412.593,134.439,414.239,134.439z"/>
		<path opacity="0.1" fill="#010101" d="M82.372,124.342c-6.32,0-12.083,0.309-16.455,0.817v4.81
			c4.372,0.508,10.135,0.817,16.455,0.817c13.66,0,24.734-1.443,24.734-3.222S96.033,124.342,82.372,124.342z"/>
		<g>
			<path fill="#BA394A" d="M330.919,68.097c0.841-1.41,1.51-2.743,2.372-3.938c3.421-4.742,8.134-7.34,13.892-8.04
				c4.086-0.497,8.149-0.341,12.132,0.836c6.064,1.791,9.717,5.908,11.45,11.87c0.824,2.834,1.141,5.737,1.141,8.681
				c0,15.346,0,30.692,0,46.038c0,0.187,0.003,0.374-0.003,0.561c-0.042,1.197-0.262,1.419-1.439,1.431
				c-0.873,0.008-1.747,0.002-2.62,0.002c-5.708,0-11.416,0.002-17.124-0.001c-1.449-0.001-1.521-0.076-1.521-1.547
				c-0.001-13.069,0-26.138-0.002-39.207c0-2.247-0.323-4.41-1.673-6.303c-1.68-2.355-4.1-3.124-6.838-3.182
				c-4.347-0.091-7.419,1.954-9.397,5.736c-0.245,0.468-0.354,1.061-0.355,1.596c-0.019,13.443-0.011,26.887-0.018,40.33
				c-0.002,2.972,0.084,2.569-2.578,2.574c-6.238,0.013-12.476,0.005-18.715,0.003c-1.353,0-1.434-0.082-1.474-1.407
				c-0.007-0.218-0.002-0.437-0.002-0.655c0-29.632,0-59.263,0-88.895c0-1.775,0.001-1.777,1.796-1.778
				c6.301-0.001,12.601-0.001,18.902,0.002c0.342,0,0.683,0.049,1.025,0.052c0.669,0.007,0.953,0.404,0.993,1.004
				c0.044,0.653,0.053,1.309,0.053,1.963c0.003,10.387,0.002,20.773,0.002,31.16C330.919,67.31,330.919,67.635,330.919,68.097z"/>
		</g>
		<path fill="#BA394A" d="M48.483,43.163c0.17-8.435,2.306-16.232,7.43-23.02c5.979-7.919,14.058-12.228,23.865-13.28
			c6.436-0.691,12.768-0.103,18.848,2.255c7.758,3.009,13.338,8.34,16.682,15.97c1.251,2.855,1.22,2.877-1.634,4.084
			c-5.189,2.195-10.385,4.374-15.57,6.579c-0.618,0.263-1.113,0.388-1.474-0.346c-1.871-3.807-5.185-5.635-9.143-6.369
			c-4.751-0.88-9.132-0.02-12.73,3.454c-2.093,2.021-3.197,4.578-3.652,7.414c-0.65,4.052-0.187,7.94,2.279,11.332
			c3.514,4.834,8.445,6.27,14.128,5.31c3.948-0.667,7.058-2.724,8.932-6.384c0.41-0.801,0.944-0.976,1.75-0.628
			c5.63,2.432,11.271,4.84,16.895,7.286c1.163,0.506,1.453,1.335,0.905,2.432c-3.495,6.991-8.389,12.642-15.538,16.107
			c-3.344,1.621-6.904,2.517-10.578,2.912c-6.362,0.683-12.662,0.348-18.732-1.82c-12.583-4.494-19.883-13.443-22.022-26.596
			C48.766,47.648,48.69,45.395,48.483,43.163z"/>
		<g>
			<path fill="#BA394A" d="M194.232,75.006c-1.931,0-3.707,0.006-5.484-0.002c-1.252-0.005-1.497-0.231-1.5-1.463
				c-0.01-4.678-0.01-9.357,0-14.035c0.003-1.403,0.242-1.619,1.635-1.625c1.653-0.006,3.306-0.009,4.958-0.019
				c0.089-0.001,0.178-0.046,0.451-0.122c0-0.909-0.019-1.867,0.003-2.824c0.108-4.767,0.225-9.534,0.343-14.3
				c0.029-1.16,0.233-1.382,1.369-1.383c6.144-0.008,12.288-0.016,18.433,0.004c1.986,0.006,2.833,0.89,2.806,2.896
				c-0.065,4.768-0.16,9.535-0.24,14.303c-0.007,0.431-0.001,0.862-0.001,1.445c0.443,0,0.803,0,1.163,0
				c3.212,0,6.425-0.004,9.637,0.002c1.7,0.003,1.861,0.172,1.861,1.866c0,4.398,0.005,8.795-0.002,13.193
				c-0.003,1.882-0.355,2.235-2.256,2.216c-3.21-0.032-6.421-0.087-9.631-0.131c-0.213-0.003-0.427,0-0.721,0
				c-0.019,0.379-0.05,0.709-0.051,1.039c-0.003,7.86-0.003,15.719-0.002,23.579c0,1.673,0.205,3.311,1.125,4.756
				c1.403,2.203,3.562,3.062,6.049,3.112c1.298,0.026,2.609-0.168,3.9-0.362c1.685-0.254,2.347,0.162,2.632,1.876
				c0.342,2.059,0.656,4.122,0.974,6.184c0.309,2.001,0.577,4.009,0.922,6.003c0.181,1.047-0.174,1.77-1.077,2.244
				c-5.472,2.872-11.23,4.343-17.461,3.703c-3.378-0.347-6.637-1.049-9.685-2.589c-4.62-2.335-7.226-6.231-8.654-11.07
				c-1.151-3.899-1.439-7.901-1.457-11.929c-0.038-8.483-0.029-16.966-0.04-25.449C194.232,75.787,194.232,75.451,194.232,75.006z"
				/>
		</g>
		<g>
			<path fill="#BA394A" d="M157.612,67.11c0-2.27,0-4.54,0-6.81c0-2.418,0-2.418,2.424-2.418c6.176,0,12.352-0.001,18.527,0.001
				c1.512,0,1.633,0.127,1.633,1.664c0,21.303,0,42.607,0,63.91c0,0.249,0.006,0.5-0.008,0.748c-0.059,1.02-0.363,1.322-1.387,1.329
				c-1.653,0.012-3.306,0.003-4.959,0.003c-4.367,0-8.733,0.001-13.1,0c-1.653,0-1.91-0.253-1.911-1.872
				c-0.002-2.415,0-4.83-0.083-7.275c-1.164,2.921-3.27,4.976-5.825,6.625c-3.026,1.953-6.403,2.913-9.941,3.252
				c-6.079,0.581-11.932-0.35-17.451-3.028c-5.282-2.563-9.369-6.438-12.304-11.515c-4.292-7.425-5.44-15.49-4.781-23.905
				c0.519-6.619,2.71-12.659,6.618-18.011c4.978-6.817,11.593-11.092,20.015-12.409c4.925-0.77,9.696-0.371,14.211,1.892
				C152.805,61.053,155.612,63.57,157.612,67.11z M157.569,91.988c-0.039-8.236-5.345-13.885-13.198-13.995
				c-4.381-0.061-8.151,1.378-10.908,4.9c-2.356,3.009-3.082,6.533-2.909,10.285c0.417,9.019,8.62,14.371,16.597,12.574
				C153.649,104.288,157.602,98.972,157.569,91.988z"/>
			<circle fill="#9C2F3C" cx="143.669" cy="93.28" r="15.794"/>
			<circle fill="#FFFFFF" cx="143.946" cy="91.782" r="14.297"/>
			<circle fill="#BA394A" cx="143.946" cy="84.524" r="3.629"/>
		</g>
		<g>
			<path fill="#D96878" d="M55.283,35.125c-0.224,0-0.451-0.033-0.676-0.101c-1.23-0.373-1.926-1.672-1.553-2.903
				c1.128-3.722,2.872-7.161,5.184-10.224C63.651,14.727,70.799,10.756,80.09,9.76c1.574-0.169,3.134-0.254,4.637-0.254
				c1.286,0,2.328,1.042,2.328,2.328s-1.042,2.328-2.328,2.328c-1.337,0-2.73,0.077-4.14,0.228
				c-7.941,0.853-14.036,4.226-18.632,10.315c-2.008,2.66-3.462,5.528-4.444,8.768C57.205,34.478,56.282,35.125,55.283,35.125z"/>
		</g>
		<g>
			<path fill="#BA394A" d="M234.925,79.875c0.271-8.991,2.663-17.201,8.413-24.219c5.581-6.811,12.856-10.725,21.536-11.956
				c6.929-0.983,13.758-0.451,20.327,2.094c7.757,3.005,13.325,8.358,16.656,15.994c1.215,2.784,1.166,2.851-1.62,4.03
				c-5.218,2.207-10.441,4.399-15.653,6.619c-0.65,0.277-1.109,0.284-1.451-0.425c-1.662-3.448-4.631-5.244-8.167-6.118
				c-4.394-1.086-8.618-0.615-12.377,2.132c-2.962,2.165-4.468,5.228-4.996,8.774c-0.604,4.055-0.068,7.937,2.462,11.29
				c3.524,4.671,8.384,6.056,13.95,5.123c3.982-0.667,7.122-2.735,8.995-6.44c0.491-0.971,1.155-0.831,1.947-0.489
				c5.059,2.183,10.123,4.355,15.185,6.532c0.515,0.221,1.04,0.421,1.538,0.676c1.071,0.549,1.399,1.343,0.872,2.391
				c-5.11,10.146-12.799,16.982-24.344,18.771c-7.689,1.192-15.245,0.701-22.497-2.285c-10.794-4.444-17.297-12.522-19.674-23.891
				C235.435,85.656,235.28,82.744,234.925,79.875z"/>
			<g>
				<path fill="#D96878" d="M241.939,71.782c-0.224,0-0.451-0.033-0.676-0.101c-1.23-0.373-1.926-1.672-1.553-2.903
					c1.127-3.72,2.872-7.16,5.184-10.223c5.414-7.172,12.562-11.143,21.852-12.139c1.574-0.169,3.134-0.254,4.637-0.254
					c1.286,0,2.328,1.042,2.328,2.328c0,1.285-1.042,2.328-2.328,2.328c-1.337,0-2.73,0.077-4.14,0.228
					c-7.941,0.853-14.035,4.226-18.632,10.315c-2.009,2.661-3.462,5.529-4.444,8.767C243.862,71.134,242.938,71.782,241.939,71.782z
					"/>
			</g>
		</g>
		<g>
			<path fill="#BA394A" d="M449.829,91.851V91.84h0.029c0-23.282,0-27.11-0.001-30.938c0-0.655-0.01-1.31-0.053-1.963
				c-0.04-0.599-0.324-0.997-0.993-1.004c-0.342-0.004-0.683-0.052-1.025-0.052c-6.301-0.003-12.601-0.003-18.902-0.002
				c-1.796,0-1.796,0.002-1.796,1.778c0,4.194,0,8.39,0,31.38c0,0.265,0,0.53,0,0.801v0.053c-0.004,2.905-0.751,5.667-2.612,8.133
				c-2.687,3.561-6.173,5.155-10.159,5.248c-3.987-0.093-7.473-1.687-10.159-5.248c-1.9-2.518-2.641-5.344-2.613-8.316h-0.022
				c0-23.165,0-26.987-0.001-30.807c0-0.655-0.01-1.31-0.053-1.963c-0.04-0.599-0.324-0.997-0.993-1.004
				c-0.342-0.004-0.683-0.052-1.025-0.052c-6.301-0.003-12.601-0.003-18.902-0.002c-1.796,0-1.796,0.002-1.796,1.778
				c0,4.242,0,8.484,0,32.181h0.029c-0.011,0.21-0.023,0.419-0.029,0.63c0.355,2.87,0.51,5.781,1.1,8.601
				c1.497,7.156,4.629,13.007,9.436,17.47c4.493,4.558,10.158,7.599,17.3,8.705c2.59,0.401,5.164,0.606,7.718,0.595
				c2.553,0.011,5.128-0.194,7.718-0.595c1.778-0.276,3.465-0.671,5.065-1.18v2.327h0.007c-0.002,2.957-0.663,5.768-2.558,8.28
				c-3.524,4.671-8.22,6.056-13.786,5.123c-3.982-0.667-7.122-2.735-8.995-6.44c-0.491-0.971-1.155-0.831-1.947-0.489
				c-5.059,2.183-10.123,4.355-15.185,6.532c-0.514,0.221-1.04,0.421-1.538,0.676c-1.071,0.549-1.399,1.343-0.872,2.391
				c5.11,10.146,12.799,16.982,24.344,18.771c7.689,1.192,15.245,0.701,22.497-2.285c10.794-4.444,17.297-12.522,19.674-23.891
				c0.59-2.82,0.745-5.732,1.1-8.601c-0.001-0.022-0.002-0.044-0.003-0.066h0.003V92.716c0.01-0.082,0.018-0.164,0.029-0.246
				C449.851,92.262,449.839,92.057,449.829,91.851z"/>
			<g>
				<path fill="#D96878" d="M414.315,112.843c-0.018,0-0.036,0-0.053,0l-0.122-0.003c-6.524-0.152-12.065-3.007-16.025-8.256
					c-1.601-2.121-2.753-4.49-3.427-7.041c-0.328-1.243,0.414-2.516,1.657-2.845c1.246-0.326,2.517,0.415,2.845,1.657
					c0.518,1.962,1.406,3.788,2.641,5.424c3.072,4.073,7.366,6.288,12.415,6.405l0.068,0.002l0.069-0.002
					c1.305-0.001,2.351,0.989,2.381,2.274c0.029,1.285-0.989,2.351-2.274,2.381l-0.122,0.003
					C414.351,112.843,414.333,112.843,414.315,112.843z"/>
			</g>
		</g>
		<ellipse opacity="0.1" fill="#010101" cx="271.383" cy="125.391" rx="28.074" ry="2.751"/>
	</g>
	<circle fill="#EEF2D6" cx="84.727" cy="43.292" r="12.391"/>
	<g>
		<path fill="#EEF2D6" d="M168.003,164.986c0,1.633-1.35,2.969-3,2.969H123.29c-1.65,0-3-1.336-3-2.969s1.35-2.969,3-2.969h41.713
			C166.653,162.018,168.003,163.354,168.003,164.986z"/>
	</g>
	<g>
		<path fill="#EEF2D6" d="M365.563,164.986c0,1.633-1.35,2.969-3,2.969h-41.713c-1.65,0-3-1.336-3-2.969s1.35-2.969,3-2.969h41.713
			C364.213,162.018,365.563,163.354,365.563,164.986z"/>
	</g>
	<g id="lGGAQK.tif_1_">
		<g>
			<path fill="#BA394A" d="M258.202,170.97c0-4.196,0-8.357,0-12.613c0.579,0,1.149,0,1.719,0c0.595,0,1.192,0.018,1.786-0.006
				c0.454-0.018,0.619,0.173,0.591,0.611c-0.023,0.35-0.005,0.702,0.062,1.09c0.88-1.464,2.187-2.068,3.801-2.042
				c1.608,0.027,2.945,0.558,3.592,2.349c0.508-1.192,1.288-1.834,2.341-2.133c1.544-0.437,3.73-0.253,4.686,1.123
				c0.483,0.695,0.684,1.479,0.695,2.281c0.041,2.959,0.02,5.918,0.031,8.877c0.001,0.372-0.146,0.509-0.517,0.503
				c-1.046-0.015-2.094-0.028-3.139,0.005c-0.495,0.016-0.618-0.189-0.615-0.635c0.012-2.183,0.021-4.367-0.008-6.55
				c-0.007-0.508-0.09-1.045-0.278-1.513c-0.25-0.621-1.065-0.825-1.935-0.597c-0.599,0.157-1.088,0.762-1.089,1.361
				c-0.002,2.346-0.001,4.691-0.001,7.037c0,0.268,0,0.535,0,0.887c-0.722,0-1.4,0-2.078,0c-0.523,0-1.049-0.028-1.569,0.008
				c-0.446,0.031-0.555-0.156-0.552-0.562c0.012-2.075,0.016-4.15-0.002-6.225c-0.005-0.517-0.055-1.044-0.166-1.549
				c-0.163-0.739-0.831-1.124-1.652-1.027c-0.946,0.113-1.515,0.635-1.518,1.433c-0.008,2.382-0.001,4.764-0.006,7.145
				c0,0.246-0.036,0.492-0.055,0.74C260.922,170.97,259.576,170.97,258.202,170.97z"/>
			<path fill="#BA394A" d="M225.037,170.976c0-5.755,0-11.453,0-17.207c1.376,0,2.732,0,4.177,0c0,2.092,0,4.17,0,6.281
				c0.536-0.512,0.964-1.022,1.487-1.401c1.317-0.954,4.258-0.881,5.348,0.53c0.621,0.803,0.84,1.72,0.856,2.661
				c0.051,2.886,0.018,5.774,0.028,8.661c0.001,0.371-0.133,0.514-0.508,0.508c-1.082-0.015-2.166-0.022-3.248,0.003
				c-0.449,0.01-0.542-0.18-0.54-0.582c0.013-2.31,0.012-4.619-0.001-6.929c-0.002-0.351-0.016-0.737-0.157-1.046
				c-0.338-0.742-1.072-0.972-2.081-0.739c-0.636,0.147-1.179,0.849-1.18,1.554c-0.004,2.31-0.001,4.619-0.004,6.929
				c0,0.249-0.027,0.498-0.043,0.775C227.786,170.976,226.441,170.976,225.037,170.976z"/>
			<path fill="#BA394A" d="M288.833,169.609c-0.608,0.415-1.146,0.909-1.777,1.189c-1.636,0.726-3.261,0.43-4.76-0.405
				c-1.581-0.881-2.406-2.328-2.758-4.09c-0.396-1.979-0.108-3.816,0.974-5.52c1.16-1.827,3.467-2.858,5.587-2.452
				c0.803,0.154,1.514,0.541,2.046,1.199c0.106,0.131,0.227,0.251,0.455,0.5c0-0.489,0.005-0.823-0.002-1.157
				c-0.007-0.354,0.13-0.525,0.512-0.52c1.065,0.015,2.13,0.01,3.195,0.001c0.396-0.004,0.527,0.167,0.526,0.559
				c-0.01,3.845-0.011,7.69,0,11.535c0.001,0.426-0.145,0.573-0.566,0.563c-0.956-0.022-1.914-0.029-2.87,0.003
				c-0.437,0.015-0.588-0.145-0.566-0.556C288.846,170.155,288.833,169.85,288.833,169.609z M283.533,164.759
				c-0.059,1.636,1.243,2.637,2.523,2.635c1.266-0.002,2.521-0.941,2.513-2.696c-0.008-1.643-1.228-2.599-2.491-2.589
				C284.65,162.12,283.525,163.06,283.533,164.759z"/>
			<path fill="#BA394A" d="M187.153,171.388c-4.015,0.044-6.725-2.899-6.662-6.843c0.061-3.774,2.915-6.562,6.736-6.545
				c3.886,0.017,6.623,2.85,6.612,6.749C193.828,168.754,190.866,171.511,187.153,171.388z M184.583,164.708
				c0.09,0.379,0.149,0.769,0.276,1.135c0.471,1.365,2.273,2.067,3.514,1.347c1.047-0.608,1.369-1.595,1.299-2.754
				c-0.045-0.734-0.298-1.373-0.875-1.837c-0.856-0.688-1.811-0.75-2.776-0.277C185.053,162.797,184.673,163.651,184.583,164.708z"
				/>
			<path fill="#BA394A" d="M196.026,171.006c0-1.092,0-2.083,0-3.073c0-2.96,0-5.92,0.001-8.88c0-0.693,0.003-0.694,0.716-0.695
				c0.939-0.001,1.877,0.012,2.816-0.004c0.417-0.007,0.598,0.169,0.59,0.577c-0.007,0.354-0.002,0.708,0.12,1.096
				c0.139-0.19,0.269-0.387,0.418-0.569c0.981-1.204,2.321-1.497,3.774-1.428c1.03,0.049,1.965,0.36,2.649,1.213
				c0.619,0.772,0.795,1.693,0.808,2.621c0.041,2.869,0.015,5.739,0.025,8.609c0.001,0.387-0.133,0.547-0.539,0.539
				c-1.028-0.021-2.058-0.031-3.086,0.004c-0.501,0.017-0.658-0.149-0.654-0.644c0.019-2.256,0.014-4.512,0.001-6.768
				c-0.002-0.372-0.01-0.775-0.147-1.11c-0.308-0.756-1.022-0.997-2.061-0.783c-0.648,0.133-1.212,0.828-1.213,1.521
				c-0.004,2.346-0.001,4.693-0.003,7.039c0,0.733-0.003,0.734-0.749,0.734C198.359,171.006,197.226,171.006,196.026,171.006z"/>
			<path fill="#BA394A" d="M242.997,165.716c-0.063,0.95,0.337,1.629,1.239,2.003c1.491,0.619,2.687,0.062,3.781-1.126
				c0.446,0.615,0.872,1.201,1.294,1.789c0.135,0.189,0.26,0.385,0.386,0.58c0.428,0.668,0.42,0.783-0.241,1.191
				c-1.695,1.046-3.507,1.47-5.5,1.072c-2.231-0.446-3.853-1.642-4.629-3.794c-0.913-2.531-0.747-4.977,0.967-7.166
				c0.81-1.034,1.891-1.721,3.191-1.94c0.895-0.151,1.826-0.258,2.723-0.18c2.074,0.179,3.855,1.529,4.553,3.698
				c0.36,1.12,0.298,2.273,0.178,3.425c-0.049,0.467-0.386,0.448-0.718,0.448c-2.201,0-4.403,0-6.604,0
				C243.421,165.716,243.226,165.716,242.997,165.716z M242.995,163.545c1.388,0,2.742,0,4.093,0
				c0.06-1.234-0.845-2.154-2.065-2.147C243.843,161.406,242.962,162.314,242.995,163.545z"/>
			<path fill="#BA394A" d="M214.748,161.498c0-0.959,0.003-1.858-0.001-2.758c-0.002-0.421,0.299-0.375,0.567-0.382
				c0.729-0.021,0.734-0.02,0.748-0.74c0.014-0.757,0.029-1.514,0.022-2.271c-0.003-0.314,0.084-0.455,0.429-0.449
				c1.064,0.018,2.128,0.012,3.192,0.004c0.411-0.003,0.591,0.186,0.584,0.59c-0.013,0.811-0.005,1.623-0.033,2.434
				c-0.012,0.337,0.109,0.448,0.435,0.435c0.486-0.018,0.974,0.003,1.461-0.005c0.342-0.006,0.497,0.163,0.498,0.49
				c0.002,0.739-0.004,1.479,0.002,2.218c0.003,0.368-0.169,0.515-0.532,0.499c-0.468-0.021-0.938-0.007-1.406-0.027
				c-0.308-0.013-0.463,0.072-0.459,0.419c0.014,1.443-0.009,2.886,0.016,4.328c0.015,0.871,0.569,1.346,1.482,1.344
				c1.016-0.002,1.016-0.002,1.167,0.986c0.076,0.497,0.174,0.993,0.21,1.493c0.012,0.17-0.083,0.447-0.212,0.513
				c-1.697,0.869-3.43,0.991-5.148,0.078c-1.239-0.658-1.589-1.869-1.652-3.13c-0.09-1.799-0.076-3.605-0.059-5.408
				c0.005-0.509-0.148-0.684-0.637-0.628C215.228,161.554,215.029,161.515,214.748,161.498z"/>
			<path fill="#BA394A" d="M295.063,153.713c0.693,0,1.373,0,2.053,0c0.541,0,1.082,0.015,1.623-0.001
				c0.375-0.011,0.504,0.148,0.5,0.515c-0.013,1.19-0.004,2.38-0.004,3.57c0,4.148,0.001,8.295,0,12.443
				c0,0.765-0.003,0.765-0.777,0.766c-1.117,0.001-2.233,0-3.395,0C295.063,165.247,295.063,159.527,295.063,153.713z"/>
			<path fill="#BA394A" d="M301.392,170.974c0-5.75,0-11.447,0-17.203c1.373,0,2.729,0,4.14,0c0,5.725,0,11.448,0,17.203
				C304.144,170.974,302.799,170.974,301.392,170.974z"/>
		</g>
	</g>
</g>
<g>
	<g>
		<circle opacity="0.06" fill="#010101" cx="243.497" cy="492.543" r="162.979"/>
		<circle fill="#9FCD84" cx="244.513" cy="456.932" r="171.599"/>
		<circle fill="#BAD97C" cx="244.513" cy="448.15" r="162.979"/>
	</g>
	<g id="f2hJPX.tif_1_" opacity="0.03">
		<g>
			<path fill="#010101" d="M249.697,427.886c0.121-1.329,0.209-2.296,0.319-3.51c5.393,0,10.694,0,16.291,0
				c0,14.46,0,28.931,0,43.45c-5.09,0-9.979,0-15.006,0c-0.149-1.322-0.279-2.476-0.452-4.016
				c-5.009,4.794-10.732,6.374-17.289,5.06c-7.825-1.568-12.915-6.194-15.156-13.758c-2.116-7.142-1.849-14.235,1.258-21.139
				C224.777,422.603,241.193,418.987,249.697,427.886z M248.457,446.277c-0.017-4.074-2.749-6.949-6.616-6.961
				c-4.011-0.012-6.974,2.987-6.966,7.05c0.009,4.163,2.836,7.06,6.909,7.08C245.895,453.465,248.476,450.693,248.457,446.277z"/>
			<path fill="#010101" d="M182.062,439.366c-1.913-0.106-3.415-0.188-5.164-0.285c0-4.893,0-9.739,0-14.775
				c1.631-0.115,3.129-0.221,5.175-0.366c0-3.886,0.137-7.787-0.049-11.671c-0.121-2.521,0.837-3.2,3.223-3.131
				c5.116,0.146,10.24,0.045,15.586,0.045c0,5.074,0,9.737,0,14.853c3.207,0,6.194,0,9.366,0c0,5.224,0,9.997,0,15.196
				c-2.974,0-5.948,0-9.166,0c0,3.986-0.13,7.561,0.048,11.121c0.109,2.181,1.626,3.222,3.804,3.229
				c1.183,0.004,2.366,0.001,3.862,0.001c0.417,4.03,0.906,7.91,1.133,11.805c0.036,0.621-0.988,1.682-1.718,1.908
				c-5.319,1.645-10.741,2.093-16.155,0.503c-6.217-1.826-9.619-6.667-9.911-14.259
				C181.916,448.871,182.062,444.191,182.062,439.366z"/>
			<path fill="#010101" d="M326.729,439.364c-2.001-0.118-3.499-0.206-5.199-0.307c0-4.887,0-9.656,0-14.732
				c1.597-0.12,3.184-0.239,5.216-0.392c0-3.966,0.113-7.884-0.043-11.791c-0.093-2.316,0.74-3.055,3.013-3
				c5.212,0.128,10.429,0.04,15.872,0.04c0,5.171,0,9.83,0,14.833c3.129,0,6.032,0,9.202,0c0,5.195,0,10.05,0,15.311
				c-2.96,0-5.953,0-9.221,0c0,3.547-0.115,6.703,0.031,9.847c0.158,3.402,1.378,4.637,4.731,4.324
				c2.686-0.25,3.457,0.666,3.474,3.195c0.018,2.614,0.632,5.227,0.611,7.837c-0.008,0.954-1,2.639-1.703,2.728
				c-4.511,0.572-9.157,1.521-13.588,0.971c-8.042-0.999-12.036-6.198-12.365-14.818
				C326.586,448.835,326.729,444.246,326.729,439.364z"/>
			<path fill="#010101" d="M172.189,432.556c-4.645,1.571-7.912,2.812-11.269,3.717c-0.834,0.225-2.263-0.362-2.9-1.053
				c-2.138-2.322-4.722-2.716-7.498-1.974c-0.804,0.215-1.696,1.379-1.858,2.238c-0.097,0.512,1.056,1.68,1.809,1.853
				c2.333,0.539,4.736,0.815,7.125,1.065c8.386,0.878,13.494,4.604,14.846,11.125c1.351,6.515-1.069,11.788-6.31,15.46
				c-8.917,6.249-18.59,6.832-28.225,1.926c-2.932-1.493-5.067-4.551-8.2-7.486c4.902-1.784,8.721-3.173,12.73-4.632
				c2.034,2.725,4.47,5.031,8.115,4.468c1.365-0.211,2.567-1.474,3.844-2.257c-1.047-1.031-1.925-2.557-3.178-2.984
				c-2.137-0.729-4.51-0.759-6.781-1.099c-6.355-0.951-11.151-4.656-12.175-9.939c-1.231-6.351,0.216-11.997,5.58-16.135
				c6.944-5.356,20.801-6.062,28.018-1.128C168.132,427.276,169.719,429.831,172.189,432.556z"/>
			<path fill="#010101" d="M294.469,467.929c-6.568,0-12.572,0-18.829,0c0-14.545,0-29.007,0-43.632c6.078,0,12.042,0,18.17,0
				c0.172,1.509,0.327,2.864,0.51,4.466c1.474-1.376,2.614-2.68,3.979-3.675c7.002-5.106,16.535-1.705,18.043,6.399
				c0.132,0.71,0.335,1.725-0.025,2.159c-3.179,3.835-6.477,7.57-9.74,11.335c-0.407-0.309-0.813-0.619-1.22-0.928
				c-0.231-0.677-0.513-1.342-0.683-2.034c-0.715-2.91-2.542-4.236-5.512-3.84c-2.939,0.393-4.678,2.348-4.685,5.26
				C294.455,451.507,294.469,459.576,294.469,467.929z"/>
		</g>
	</g>
	<g id="f2hJPX.tif">
		<g>
			<path fill="#FFFFFF" d="M249.697,434.798c0.121-1.329,0.209-2.296,0.319-3.51c5.393,0,10.694,0,16.291,0
				c0,14.46,0,28.931,0,43.45c-5.09,0-9.979,0-15.006,0c-0.149-1.322-0.279-2.476-0.452-4.016
				c-5.009,4.794-10.732,6.374-17.289,5.06c-7.825-1.568-12.915-6.194-15.156-13.758c-2.116-7.142-1.849-14.235,1.258-21.139
				C224.777,429.515,241.193,425.899,249.697,434.798z M248.457,453.189c-0.017-4.074-2.749-6.949-6.616-6.961
				c-4.011-0.012-6.974,2.987-6.966,7.05c0.009,4.163,2.836,7.06,6.909,7.08C245.895,460.377,248.476,457.604,248.457,453.189z"/>
			<path fill="#FFFFFF" d="M182.062,446.277c-1.913-0.106-3.415-0.188-5.164-0.285c0-4.893,0-9.739,0-14.775
				c1.631-0.115,3.129-0.221,5.175-0.366c0-3.886,0.137-7.787-0.049-11.671c-0.121-2.521,0.837-3.2,3.223-3.131
				c5.116,0.146,10.24,0.045,15.586,0.045c0,5.074,0,9.737,0,14.853c3.207,0,6.194,0,9.366,0c0,5.224,0,9.997,0,15.196
				c-2.974,0-5.948,0-9.166,0c0,3.986-0.13,7.561,0.048,11.121c0.109,2.181,1.626,3.222,3.804,3.229
				c1.183,0.004,2.366,0.001,3.862,0.001c0.417,4.03,0.906,7.91,1.133,11.805c0.036,0.621-0.988,1.682-1.718,1.908
				c-5.319,1.645-10.741,2.093-16.155,0.503c-6.217-1.826-9.619-6.667-9.911-14.259
				C181.916,455.783,182.062,451.103,182.062,446.277z"/>
			<path fill="#FFFFFF" d="M326.729,446.275c-2.001-0.118-3.499-0.206-5.199-0.307c0-4.887,0-9.656,0-14.732
				c1.597-0.12,3.184-0.239,5.216-0.392c0-3.966,0.113-7.884-0.043-11.791c-0.093-2.316,0.74-3.055,3.013-3
				c5.212,0.128,10.429,0.04,15.872,0.04c0,5.171,0,9.83,0,14.833c3.129,0,6.032,0,9.202,0c0,5.195,0,10.05,0,15.311
				c-2.96,0-5.953,0-9.221,0c0,3.547-0.115,6.703,0.031,9.847c0.158,3.402,1.378,4.637,4.731,4.324
				c2.686-0.25,3.457,0.666,3.474,3.195c0.018,2.614,0.632,5.227,0.611,7.837c-0.008,0.954-1,2.639-1.703,2.728
				c-4.511,0.572-9.157,1.521-13.588,0.971c-8.042-0.999-12.036-6.198-12.365-14.818
				C326.586,455.747,326.729,451.157,326.729,446.275z"/>
			<path fill="#FFFFFF" d="M172.189,439.468c-4.645,1.571-7.912,2.812-11.269,3.717c-0.834,0.225-2.263-0.362-2.9-1.053
				c-2.138-2.322-4.722-2.716-7.498-1.974c-0.804,0.215-1.696,1.379-1.858,2.238c-0.097,0.512,1.056,1.68,1.809,1.853
				c2.333,0.539,4.736,0.815,7.125,1.065c8.386,0.878,13.494,4.604,14.846,11.125c1.351,6.515-1.069,11.788-6.31,15.46
				c-8.917,6.249-18.59,6.832-28.225,1.926c-2.932-1.493-5.067-4.551-8.2-7.486c4.902-1.784,8.721-3.173,12.73-4.632
				c2.034,2.725,4.47,5.031,8.115,4.468c1.365-0.211,2.567-1.474,3.844-2.257c-1.047-1.031-1.925-2.557-3.178-2.984
				c-2.137-0.729-4.51-0.759-6.781-1.099c-6.355-0.951-11.151-4.656-12.175-9.939c-1.231-6.351,0.216-11.997,5.58-16.134
				c6.944-5.356,20.801-6.062,28.018-1.128C168.132,434.187,169.719,436.743,172.189,439.468z"/>
			<path fill="#FFFFFF" d="M294.469,474.841c-6.568,0-12.572,0-18.829,0c0-14.545,0-29.007,0-43.632c6.078,0,12.042,0,18.17,0
				c0.172,1.509,0.327,2.864,0.51,4.466c1.474-1.376,2.614-2.68,3.979-3.675c7.002-5.106,16.535-1.705,18.043,6.399
				c0.132,0.71,0.335,1.725-0.025,2.159c-3.179,3.835-6.477,7.57-9.74,11.335c-0.407-0.309-0.813-0.619-1.22-0.928
				c-0.231-0.677-0.513-1.342-0.683-2.034c-0.715-2.91-2.542-4.236-5.512-3.84c-2.939,0.393-4.678,2.348-4.685,5.26
				C294.455,458.419,294.469,466.487,294.469,474.841z"/>
		</g>
	</g>
</g>
<g>
	<g>
		<g id="Hl3XMX.tif_2_">
			<g>
				<path fill="#4A4434" d="M159.6,245.24c1.86-0.736,3.658-1.422,5.608-2.135c0.887,2.369,1.769,4.727,2.728,7.286
					c1.21-2.727,3.521-3.744,6.184-4.044c2.694-0.303,4.901,0.57,6.478,2.455c1.808,2.161,2.472,4.683,2.166,7.444
					c-0.585,5.277-6.747,7.821-10.458,5.849c-0.01,0.12-0.029,0.214-0.022,0.306c0.113,1.541,0.115,1.534-1.38,2.099
					c-0.997,0.377-1.99,0.761-3.037,1.176C165.107,258.853,162.366,252.083,159.6,245.24z M170.349,256.198
					c0.705,1.846,2.518,2.629,4.429,1.944c1.831-0.657,2.729-2.44,2.111-4.251c-0.633-1.856-2.476-2.684-4.458-1.971
					C170.481,252.62,169.647,254.36,170.349,256.198z"/>
				<path fill="#4A4434" d="M100.843,308.968c-1.473,1.439-2.799,2.776-4.156,4.182c-5.422-5.275-11.013-10.721-16.291-15.852
					c1.496-1.52,2.995-3.001,4.619-4.556c1.866,1.919,3.764,3.871,5.681,5.841c-0.33-2.896,1.064-5.043,3.508-6.682
					c2.137-1.433,4.305-1.418,5.954,0.328c2.867,3.035,5.58,6.262,8.32,9.377c0.031,0.036,0.028,0.102,0.054,0.209
					c-1.396,1.227-2.796,2.491-4.227,3.824c-0.265-0.25-0.537-0.48-0.778-0.738c-2.037-2.179-4.079-4.397-6.146-6.579
					c-0.811-0.856-1.695-1.012-2.579-0.55c-1.05,0.549-1.776,1.762-1.601,2.842c0.064,0.394,0.304,0.787,0.578,1.073
					c2.102,2.199,4.239,4.378,6.342,6.54C100.349,308.46,100.575,308.693,100.843,308.968z"/>
				<path fill="#4A4434" d="M141.377,278.373c-1.6,0.917-3.167,1.842-4.775,2.822c-0.218-0.304-0.436-0.576-0.619-0.869
					c-1.547-2.482-3.085-4.987-4.655-7.467c-0.616-0.974-1.434-1.295-2.369-1.028c-1.111,0.317-2.038,1.332-2.076,2.395
					c-0.014,0.387,0.141,0.81,0.349,1.135c1.601,2.501,3.238,4.985,4.852,7.463c0.174,0.267,0.348,0.534,0.547,0.839
					c-1.646,1.056-3.187,2.077-4.772,3.159c-4.211-6.091-8.519-12.277-12.666-18.313c1.716-1.15,3.433-2.268,5.284-3.436
					c1.446,2.234,2.907,4.48,4.378,6.736c0.229-2.828,1.969-4.612,4.625-5.705c2.326-0.958,4.407-0.523,5.662,1.466
					c2.181,3.456,4.168,7.049,6.218,10.571C141.384,278.18,141.369,278.242,141.377,278.373z"/>
				<path fill="#4A4434" d="M73.344,342.393c-0.986,1.497-1.889,2.943-2.83,4.37c-0.11,0.167-0.553,0.26-0.753,0.179
					c-0.428-0.173-0.798-0.484-1.386-0.865c1.038,2.781,0.055,4.981-1.513,7.057c-1.643,2.174-3.745,3.372-6.311,3.469
					c-3.963,0.151-7.873-2.508-8.901-6.508c-0.776-3.019-0.128-5.986,2.115-8.575c1.026-1.184,2.281-1.814,3.928-1.95
					c-0.753-0.486-1.319-0.85-1.918-1.235c1.201-1.923,2.355-3.707,3.579-5.542C63.936,335.921,68.664,339.197,73.344,342.393z
					 M58.965,349.692c1.766,1.066,3.835,0.406,4.99-1.538c1.11-1.868,0.706-4.042-0.986-5.164c-1.734-1.149-3.857-0.559-5.041,1.446
					C56.726,346.469,57.158,348.602,58.965,349.692z"/>
				<path fill="#4A4434" d="M145.958,268.236c0.582,1.084,1.476,1.514,2.618,1.43c2.241-0.164,3.437-1.489,4.118-3.517
					c0.281,0.096,0.518,0.149,0.723,0.254c0.913,0.466,1.816,0.943,2.704,1.44c0.918,0.515,0.963,0.679,0.35,1.584
					c-1.361,2.008-3.164,3.42-5.501,4.24c-3.434,1.206-6.508,0.813-9.009-1.658c-2.617-2.586-3.868-5.718-2.222-9.498
					c1.466-3.366,6.016-5.913,9.687-5.518c3.888,0.419,5.693,3.392,6.25,6.042c0.043,0.205-0.367,0.647-0.659,0.784
					c-2.72,1.279-5.437,2.574-8.125,3.941C146.607,267.903,146.323,268.048,145.958,268.236z M149.88,263.12
					c-0.984-1.514-2.452-1.9-3.949-1.073c-1.446,0.799-1.953,2.27-1.257,3.656C146.381,264.828,148.097,263.975,149.88,263.12z"/>
				<path fill="#4A4434" d="M190.581,251.217c0.322,1.178,1.088,1.793,2.208,1.96c2.192,0.328,3.652-0.668,4.732-2.512
					c0.262,0.162,0.479,0.265,0.654,0.412c0.779,0.653,1.548,1.315,2.297,1.994c0.775,0.703,0.783,0.873-0.007,1.616
					c-1.755,1.65-3.805,2.623-6.241,2.9c-3.579,0.407-6.457-0.661-8.319-3.599c-1.95-3.075-2.462-6.371-0.055-9.68
					c2.142-2.946,7.077-4.434,10.532-3.248c3.659,1.256,4.756,4.54,4.715,7.24c-0.003,0.209-0.495,0.549-0.808,0.618
					c-2.907,0.646-5.813,1.307-8.702,2.04C191.281,251.037,190.975,251.115,190.581,251.217z M195.484,247.116
					c-0.622-1.687-1.951-2.381-3.574-1.904c-1.568,0.461-2.378,1.78-2.008,3.27C191.738,248.008,193.578,247.557,195.484,247.116z"
					/>
				<path fill="#4A4434" d="M50.998,360.985c-2.674,0.809-4.301,3.358-3.729,5.7c0.515,2.11,2.982,3.209,4.854,2.243
					c2.136-1.102,2.901-3.666,1.845-6.358c1.305-1.233,2.628-2.479,3.998-3.634c0.15-0.126,0.677,0.003,0.797,0.199
					c1.587,2.571,1.946,5.378,0.845,8.512c-0.944,2.686-2.34,5.062-4.655,6.691c-3.325,2.339-6.575,2.12-9.571,0.176
					c-5.995-3.892-4.683-12.443,0.012-17.238c1.677-1.713,3.622-2.474,5.69-2.358c0.241,0.013,0.628,0.386,0.605,0.592
					C51.479,357.34,51.215,359.175,50.998,360.985z"/>
				<path fill="#4A4434" d="M86.592,314.189c1.511-0.754,3.039-1.517,4.592-2.188c0.163-0.07,0.62,0.208,0.691,0.424
					c0.885,2.722,0.601,5.341-1.107,7.843c-1.499,2.197-3.362,3.956-5.933,4.782c-3.466,1.113-6.395,0.134-8.749-2.231
					c-5.835-5.864-0.863-14.141,4.775-16.236c1.583-0.588,3.126-0.572,4.628-0.133c0.591,0.173,0.784,0.408,0.491,1.057
					c-0.582,1.291-1.116,2.6-1.61,3.921c-0.173,0.464-0.356,0.585-0.848,0.548c-1.908-0.141-3.945,1.716-4.151,3.735
					c-0.2,1.958,1.575,3.792,3.531,3.741c1.922-0.05,3.74-1.838,3.829-3.79C86.755,315.199,86.647,314.74,86.592,314.189z"/>
				<path fill="#4A4434" d="M211.599,254.471c-1.588-0.133-3.148-0.137-4.669-0.369c-1.279-0.195-2.244-1.021-3.048-1.99
					c-0.325-0.392-0.362-0.664,0.166-0.956c0.913-0.505,1.811-1.041,2.697-1.594c0.379-0.237,0.58-0.157,0.857,0.125
					c1.045,1.063,2.293,1.305,3.702,0.749c0.58-0.229,1.074-0.565,1.072-1.227c-0.002-0.671-0.504-1.026-1.118-1.142
					c-0.975-0.184-1.977-0.261-2.971-0.375c-0.512-0.059-1.027-0.104-1.536-0.184c-2.611-0.413-3.919-1.472-4.392-3.641
					c-0.463-2.125,0.356-3.951,2.623-5.181c2.729-1.48,5.726-2.009,8.791-1.277c1.223,0.292,2.146,0.97,2.77,1.973
					c0.292,0.469,0.181,0.707-0.34,0.934c-1.02,0.446-2.033,0.909-3.005,1.43c-0.435,0.233-0.655,0.143-0.971-0.142
					c-1.004-0.903-2.243-1.033-3.511-0.478c-0.371,0.162-0.761,0.661-0.779,1.011c-0.013,0.251,0.543,0.691,0.901,0.738
					c1.299,0.169,2.618,0.215,3.923,0.33c0.406,0.036,0.812,0.079,1.21,0.149c2.258,0.396,3.965,1.41,4.355,3.643
					c0.411,2.346-0.35,4.356-2.497,5.65C214.553,253.414,213.052,253.84,211.599,254.471z"/>
				<path fill="#4A4434" d="M115.216,280.822c1.241,1.676,2.414,3.333,3.669,4.924c0.761,0.965,1.729,0.925,2.865,0.044
					c0.972-0.753,0.971-0.747,1.767,0.071c0.477,0.49,1.009,0.934,1.428,1.465c0.175,0.222,0.282,0.687,0.159,0.918
					c-1.054,1.982-2.672,3.315-4.821,4.011c-2.11,0.684-3.751-0.141-5.041-1.6c-1.511-1.709-2.896-3.537-4.334-5.311
					c-0.206-0.254-0.404-0.513-0.596-0.759c-0.159,0.049-0.255,0.056-0.325,0.103c-1.312,0.886-1.311,0.891-2.228-0.259
					c-0.171-0.215-0.342-0.429-0.513-0.643c-1.047-1.312-1.052-1.318,0.461-2.699c-0.719-0.918-1.421-1.875-2.185-2.772
					c-0.421-0.494-0.428-0.836,0.247-1.31c1.17-0.822,2.309-1.688,3.45-2.545c0.647-0.486,1.078-0.464,1.473,0.119
					c0.633,0.934,1.334,1.829,2.083,2.843c0.704-0.506,1.441-1.001,2.146-1.534c0.465-0.351,0.765-0.39,1.07,0.082
					c0.501,0.776,1.042,1.533,1.619,2.261c0.379,0.479,0.2,0.773-0.294,1.099C116.635,279.782,115.978,280.272,115.216,280.822z"/>
				<path fill="#4A4434" d="M221.168,240.395c-0.158-0.071-0.184-0.094-0.21-0.094c-1.646,0.01-1.647,0.015-1.829-1.491
					c-0.061-0.505-0.076-1.02-0.194-1.513c-0.168-0.702,0.112-1.011,0.91-1c0.236,0.003,0.475-0.049,0.957-0.101
					c-0.137-1.221-0.234-2.409-0.416-3.585c-0.097-0.627,0.121-0.868,0.844-0.923c1.379-0.106,2.758-0.243,4.133-0.393
					c0.842-0.092,1.161,0.192,1.189,0.915c0.043,1.095,0.172,2.185,0.276,3.413c0.817-0.067,1.677-0.104,2.529-0.203
					c0.625-0.073,0.864,0.1,0.875,0.67c0.017,0.909,0.092,1.818,0.185,2.724c0.051,0.496-0.175,0.679-0.689,0.706
					c-0.826,0.043-1.649,0.116-2.536,0.189c-0.014,0.16-0.054,0.339-0.039,0.513c0.139,1.708,0.273,3.416,0.435,5.122
					c0.14,1.478,0.893,2.017,2.46,1.827c1.128-0.137,1.127-0.134,1.361,0.945c0.102,0.471,0.206,0.942,0.324,1.41
					c0.309,1.224,0.303,1.21-0.849,1.772c-1.592,0.777-3.255,0.925-4.972,0.64c-2.045-0.339-3.42-1.773-3.789-4.078
					c-0.347-2.167-0.571-4.353-0.849-6.53C221.233,241.012,221.201,240.695,221.168,240.395z"/>
				<path fill="#4A4434" d="M65.869,330.93c-1.365,1.498-1.363,1.504-2.801,0.49c-0.346-0.244-0.668-0.53-1.041-0.721
					c-0.734-0.375-0.916-0.861-0.188-1.641c0.153-0.164,0.265-0.372,0.546-0.771c-1.047-0.751-2.028-1.504-3.054-2.162
					c-0.558-0.358-0.543-0.714-0.076-1.337c0.909-1.212,1.796-2.438,2.671-3.666c0.542-0.761,0.984-0.797,1.547-0.328
					c0.861,0.718,1.788,1.372,2.803,2.144c0.542-0.722,1.135-1.447,1.669-2.21c0.402-0.576,0.708-0.605,1.146-0.223
					c0.695,0.606,1.426,1.181,2.184,1.719c0.501,0.356,0.455,0.701,0.049,1.197c-0.547,0.667-1.055,1.37-1.613,2.116
					c0.123,0.13,0.237,0.286,0.384,0.4c1.436,1.104,2.876,2.219,4.331,3.306c1.258,0.939,2.271,0.733,3.17-0.733
					c0.52-0.849,0.959-0.951,1.671-0.466c0.626,0.426,1.356,0.698,1.968,1.134c0.227,0.162,0.415,0.623,0.354,0.907
					c-0.464,2.187-1.616,3.953-3.379,5.329c-1.976,1.542-3.925,1.265-5.739,0.112c-1.961-1.246-3.839-2.65-5.749-3.981
					C66.444,331.35,66.173,331.149,65.869,330.93z"/>
			</g>
		</g>
		<g id="bmBrWt.tif_2_">
			<g>
				<path fill="#4A4434" d="M264.029,251.733c0.734,0.403,1.364,0.884,2.079,1.128c1.113,0.379,2.265,0.745,3.425,0.875
					c1.85,0.207,2.93-0.598,3.446-2.314c0.107-0.356,0.19-0.719,0.263-0.999c-0.948,0.336-1.862,0.855-2.836,0.997
					c-5.157,0.751-9.179-2.599-9.075-7.611c0.041-1.968,0.476-3.83,1.843-5.399c2.714-3.116,8.403-3.284,11.64-0.265
					c0.096-0.452,0.18-0.846,0.287-1.345c1.795,0.232,3.58,0.464,5.349,0.785c0.169,0.031,0.393,0.498,0.361,0.731
					c-0.258,1.855-0.535,3.709-0.876,5.551c-0.521,2.813-1.015,5.634-1.669,8.419c-0.412,1.756-1.269,3.365-2.695,4.592
					c-2.247,1.933-4.871,1.917-7.556,1.501c-1.969-0.305-3.774-1.119-5.535-2.063c-0.488-0.261-0.579-0.519-0.316-1.005
					C262.797,254.138,263.391,252.943,264.029,251.733z M267.073,243.886c-0.19,1.826,1.093,3.286,3.069,3.535
					c1.958,0.247,3.606-0.901,3.845-2.71c0.238-1.804-1.1-3.453-3.015-3.675C268.953,240.801,267.265,242.05,267.073,243.886z"/>
				<path fill="#4A4434" d="M376.459,296.521c0.214-0.29,0.411-0.587,0.637-0.86c1.907-2.301,3.87-4.607,5.788-6.935
					c0.745-0.905,0.773-1.805,0.183-2.587c-0.689-0.914-1.938-1.429-2.975-1.127c-0.411,0.12-0.807,0.417-1.071,0.74
					c-1.918,2.349-3.809,4.73-5.679,7.083c-0.202,0.254-0.425,0.49-0.659,0.759c-1.542-1.185-3.037-2.299-4.591-3.425
					c4.465-5.993,9.14-12.072,13.439-17.997c1.692,1.192,3.393,2.424,5.165,3.747c-1.609,2.091-3.277,4.211-5.08,6.48
					c0.287-0.003,0.387,0.02,0.462-0.007c3.182-1.152,6.641,1.477,7.768,3.593c0.917,1.721,0.615,3.333-0.455,4.6
					c-2.739,3.245-5.668,6.408-8.496,9.623C379.455,298.975,378.016,297.777,376.459,296.521z"/>
				<path fill="#4A4434" d="M309.089,261.182c-5.027-1.563-7.649-5.844-6.323-10.702c1.305-4.778,6.126-7.232,11.46-5.592
					c5.347,1.644,7.934,6.393,6.238,11.04C318.726,260.692,314.092,262.738,309.089,261.182z M308.321,252.02
					c-0.581,1.889,0.449,3.797,2.34,4.392c1.797,0.565,3.697-0.418,4.312-2.259c0.628-1.88-0.294-3.719-2.202-4.331
					C310.799,249.189,308.898,250.141,308.321,252.02z"/>
				<path fill="#4A4434" d="M287.974,255.183c-1.907-0.386-3.663-0.717-5.492-1.037c0.948-5.244,1.892-10.467,2.855-15.79
					c1.733,0.304,3.475,0.612,5.199,1.001c0.18,0.041,0.392,0.451,0.382,0.675c-0.022,0.491-0.177,0.972-0.328,1.697
					c2.221-2.129,4.746-2.179,7.412-1.147c2.286,0.886,3.438,2.635,2.929,4.901c-0.885,3.942-1.995,7.834-3.015,11.746
					c-0.012,0.045-0.067,0.079-0.138,0.158c-1.731-0.438-3.49-0.859-5.315-1.27c0.057-0.349,0.094-0.691,0.17-1.024
					c0.646-2.819,1.314-5.632,1.944-8.454c0.247-1.11-0.097-1.891-0.933-2.339c-0.991-0.531-2.341-0.444-3.109,0.28
					c-0.279,0.263-0.468,0.666-0.548,1.036c-0.622,2.851-1.207,5.71-1.803,8.566C288.119,254.491,288.054,254.8,287.974,255.183z"/>
				<path fill="#4A4434" d="M342.515,266.869c-0.544,1.011-0.424,1.95,0.258,2.813c1.438,1.82,3.279,2.007,5.528,1.338
					c0.194,1.554,0.381,3.008,0.48,4.461c0.011,0.16-0.392,0.457-0.63,0.476c-3.552,0.273-6.498-0.847-8.937-3.381
					c-2.228-2.315-2.734-5.003-1.869-7.906c0.895-3.002,2.668-5.283,6.095-6.084c3.365-0.787,7.935,0.96,9.998,3.816
					c2.418,3.348,1.282,6.779-0.843,9.207c-0.385,0.439-0.765,0.158-1.148-0.055c-2.65-1.469-5.326-2.88-8.024-4.232
					C343.138,267.179,342.853,267.037,342.515,266.869z M349.042,267.014c0.71-1.818-0.007-3.342-1.786-3.926
					c-1.492-0.49-3.023,0.129-3.332,1.313C345.624,265.241,347.313,266.102,349.042,267.014z"/>
				<path fill="#4A4434" d="M392.408,301.165c-0.868,0.85-1.024,1.825-0.605,2.886c0.883,2.235,2.67,2.96,5.121,2.956
					c-0.289,1.616-0.552,3.126-0.899,4.607c-0.038,0.16-0.534,0.329-0.779,0.275c-3.629-0.796-6.215-2.8-7.878-6.035
					c-1.519-2.955-1.208-5.761,0.551-8.391c1.819-2.719,4.295-4.469,7.958-4.256c4.236,0.246,8.69,4.212,9.194,8.224
					c0.436,3.467-1.397,5.705-4.038,7.436c-0.518,0.34-0.816-0.082-1.131-0.405c-2.204-2.255-4.448-4.452-6.732-6.589
					C392.929,301.648,392.688,301.424,392.408,301.165z M398.903,303.203c1.183-1.391,1.106-2.907-0.184-4.104
					c-1.285-1.192-2.937-1.22-4.213-0.068C395.988,300.397,397.452,301.786,398.903,303.203z"/>
				<path fill="#4A4434" d="M366.917,269.6c0.713-1.093,1.385-2.073,1.987-3.087c0.298-0.503,0.598-0.596,1.202-0.198
					c1.215,0.802,2.449,1.58,3.685,2.357c0.689,0.433,0.806,0.841,0.387,1.403c-0.674,0.905-1.293,1.858-2.011,2.892
					c0.727,0.481,1.453,0.995,2.207,1.467c0.501,0.314,0.627,0.581,0.278,1.02c-0.563,0.706-1.109,1.434-1.586,2.202
					c-0.374,0.602-0.755,0.501-1.289,0.106c-0.633-0.468-1.303-0.89-2.009-1.36c-0.127,0.139-0.267,0.264-0.371,0.412
					c-1.013,1.437-2.038,2.873-3.034,4.325c-0.838,1.223-0.594,2.131,0.733,2.964c1.039,0.652,1.033,0.654,0.505,1.675
					c-0.315,0.609-0.567,1.255-0.939,1.824c-0.155,0.237-0.567,0.489-0.829,0.451c-2.242-0.33-4.036-1.403-5.394-3.175
					c-1.333-1.74-1.081-3.533-0.114-5.208c1.133-1.962,2.422-3.845,3.641-5.76c0.174-0.274,0.356-0.543,0.526-0.802
					c-0.102-0.131-0.142-0.216-0.211-0.264c-1.275-0.906-1.278-0.901-0.529-2.065c0.309-0.481,0.662-0.941,0.915-1.449
					c0.332-0.665,0.755-0.803,1.439-0.24C366.291,269.244,366.519,269.352,366.917,269.6z"/>
				<path fill="#4A4434" d="M333.089,259.925c0.089-0.457,0.164-0.74,0.196-1.03c0.115-1.019-0.375-1.668-1.477-1.972
					c-0.977-0.27-1.924,0.116-2.272,0.939c-1.107,2.62-2.205,5.244-3.309,7.864c-0.123,0.292-0.276,0.571-0.435,0.896
					c-1.734-0.713-3.422-1.382-5.18-2.048c1.925-4.965,3.846-9.92,5.784-14.918c1.791,0.679,3.561,1.374,5.425,2.132
					c-0.155,0.46-0.314,0.927-0.524,1.547c1.341-0.73,2.689-0.927,4.164-0.549c2.608,0.668,4.14,2.927,3.397,5.051
					c-0.098,0.281-0.391,0.582-0.685,0.689c-1.258,0.46-2.532,0.883-3.807,1.286C334,259.927,333.567,259.886,333.089,259.925z"/>
				<path fill="#4A4434" d="M258.722,235.322c-0.314,5.34-0.624,10.617-0.937,15.944c-1.857-0.106-3.659-0.185-5.525-0.242
					c0.17-5.312,0.34-10.614,0.511-15.963C254.731,235.122,256.674,235.206,258.722,235.322z"/>
				<path fill="#4A4434" d="M242.068,245.16c-0.077,0.392-0.07,0.774-0.225,1.085c-1.244,2.491-2.463,4.983-3.651,7.478
					c-0.402,0.844-1.202,0.551-1.877,0.533c-0.669-0.017-0.46-0.564-0.479-0.912c-0.132-2.375-0.237-4.752-0.351-7.128
					c-0.013-0.264-0.025-0.527-0.041-0.848C237.657,245.264,239.793,245.197,242.068,245.16z"/>
				<path fill="#4A4434" d="M259.126,229.413c-0.071,1.208-0.121,2.406-0.238,3.598c-0.016,0.162-0.376,0.425-0.571,0.419
					c-1.638-0.053-3.277-0.119-4.913-0.22c-0.22-0.014-0.592-0.366-0.596-0.563c-0.023-1.146,0.044-2.293,0.082-3.507
					C254.943,229.202,256.933,229.287,259.126,229.413z"/>
			</g>
		</g>
		<g id="y9tOzp.tif_2_">
			<g>
				<path fill="#4A4434" d="M421.389,334.413c-1.046,0.669-1.414,1.617-1.233,2.758c0.401,2.529,2.068,3.705,4.57,4.235
					c-0.614,1.589-1.164,3.074-1.82,4.49c-0.085,0.185-0.753,0.224-1.06,0.086c-2.349-1.058-4.12-2.764-5.368-5.006
					c-1.931-3.469-2.254-6.849,0.043-10.003c2.395-3.287,5.633-5.162,10.071-3.964c4.298,1.16,7.951,6.35,7.522,10.653
					c-0.354,3.549-2.655,5.404-5.627,6.574c-0.545,0.214-0.763-0.221-1.002-0.605c-1.775-2.843-3.604-5.624-5.486-8.343
					C421.803,335.006,421.608,334.726,421.389,334.413z M427.529,337.934c1.524-1.27,1.726-2.894,0.604-4.384
					c-1.084-1.44-2.763-1.783-4.165-0.851C425.164,334.401,426.339,336.127,427.529,337.934z"/>
				<path fill="#4A4434" d="M426.086,357.284c-0.436-1.307-0.971-2.589-1.321-3.908c-0.456-1.716-0.12-3.298,0.702-4.77
					c0.303-0.543,0.592-0.751,1.179-0.221c0.844,0.763,1.73,1.486,2.621,2.205c0.373,0.301,0.439,0.54,0.22,0.947
					c-0.754,1.402-0.479,2.743,0.504,4.05c0.47,0.625,1.031,1.132,1.801,0.872c0.833-0.282,0.913-1.08,0.761-1.878
					c-0.217-1.138-0.534-2.26-0.814-3.386c-0.109-0.438-0.212-0.878-0.298-1.319c-0.567-2.919,0.039-4.676,2.116-5.97
					c2.039-1.271,4.238-1.081,6.39,0.864c2.593,2.343,4.315,5.337,4.776,8.881c0.184,1.415-0.145,2.651-0.946,3.687
					c-0.364,0.471-0.652,0.495-1.104,0.002c-0.863-0.94-1.745-1.857-2.665-2.716c-0.394-0.368-0.439-0.629-0.252-1.088
					c0.551-1.352,0.261-2.703-0.781-3.836c-0.335-0.365-1.014-0.647-1.417-0.557c-0.265,0.059-0.526,0.878-0.431,1.302
					c0.324,1.441,0.799,2.863,1.187,4.304c0.112,0.415,0.206,0.836,0.281,1.257c0.46,2.568,0.051,4.798-2.151,6.044
					c-2.313,1.31-4.632,1.113-6.887-0.606C428.1,360.331,427.1,358.835,426.086,357.284z"/>
				<path fill="#4A4434" d="M447.526,369.037c-2.086,0.93-4.171,1.802-6.187,2.785c-1.11,0.542-1.286,1.572-0.706,2.909
					c0.632,1.459,0.625,1.468-0.585,2.266c-0.348,0.23-0.703,0.446-1.049,0.675c-1.268,0.841-1.26,0.831-2.369-0.42
					c-1.341-1.513-2.124-3.28-2.451-5.243c-0.392-2.357,0.541-4.282,2.808-5.508c2.149-1.163,4.39-2.215,6.58-3.31
					c0.318-0.159,0.639-0.308,0.983-0.474c-0.055-0.226-0.072-0.391-0.135-0.537c-0.626-1.455-0.629-1.452,0.563-2.038
					c0.636-0.313,1.299-0.573,1.89-0.946c0.675-0.425,1.084-0.204,1.383,0.652c0.09,0.258,0.236,0.499,0.474,0.997
					c1.203-0.577,2.367-1.086,3.456-1.676c0.591-0.32,0.903-0.126,1.239,0.63c0.652,1.468,1.329,2.933,2.018,4.397
					c0.426,0.906,0.254,1.335-0.443,1.602c-1.065,0.408-2.114,0.919-3.327,1.458c0.391,0.888,0.762,1.831,1.198,2.743
					c0.328,0.685,0.212,0.993-0.361,1.2c-0.904,0.328-1.802,0.712-2.682,1.142c-0.58,0.283-0.879,0.061-1.132-0.59
					C448.351,370.876,447.96,370.024,447.526,369.037z"/>
				<path fill="#4A4434" d="M416.019,322.962c0.307-0.335,0.495-0.514,0.653-0.717c0.726-0.932,0.648-1.811-0.228-2.693
					c-0.818-0.824-1.946-0.933-2.784-0.266c-2.386,1.898-4.779,3.809-7.12,5.684c-0.263,0.211-0.548,0.393-0.859,0.615
					c-1.271-1.553-2.52-3.034-3.83-4.543c4.279-3.65,8.775-7.405,13.071-11.073c1.362,1.53,2.692,3.065,4.075,4.711
					c-0.377,0.351-0.761,0.707-1.276,1.182c1.645-0.011,3.014,0.491,4.219,1.596c2.129,1.952,2.455,4.849,0.66,6.475
					c-0.237,0.215-0.671,0.347-1.006,0.299c-1.432-0.207-2.863-0.454-4.285-0.719C416.901,323.437,416.513,323.177,416.019,322.962z
					"/>
			</g>
		</g>
	</g>
</g>
<g>
	<g>
		<polygon fill="#9FCD84" points="120.663,857.023 248.308,756.152 229.858,680.361 104.478,779.442 		"/>
		<path fill="#BAD97C" d="M480.117,804.683v0.022c0.146-0.011,0.292-0.022,0.441-0.022c4.071,0,7.371,3.3,7.371,7.371
			c0,2.547-1.295,4.789-3.259,6.112v1.184c1.964,1.324,3.259,3.565,3.259,6.112c0,0.028-0.005,0.056-0.005,0.084
			c0,0.028,0.005,0.055,0.005,0.084c0,2.547-1.295,4.789-3.259,6.113v1.184c1.964,1.324,3.259,3.565,3.259,6.113
			c0,0.028-0.005,0.055-0.005,0.084c0,0.028,0.005,0.055,0.005,0.084c0,2.547-1.295,4.789-3.259,6.113v1.184
			c1.964,1.324,3.259,3.566,3.259,6.113c0,0.028-0.005,0.055-0.005,0.084c0,0.028,0.005,0.055,0.005,0.084
			c0,2.547-1.295,4.789-3.259,6.113v1.184c1.964,1.324,3.259,3.565,3.259,6.112c0,0.028-0.005,0.056-0.005,0.084
			c0,0.028,0.005,0.055,0.005,0.084c0,2.547-1.295,4.789-3.259,6.113v1.184c1.964,1.324,3.259,3.565,3.259,6.113
			c0,4.071-3.3,7.371-7.371,7.371c-0.149,0-0.295-0.011-0.441-0.022v0.123h-71.193c-2.214,0-4.009-1.795-4.009-4.009v-74.335
			c0-2.327,1.887-4.214,4.214-4.214H480.117z"/>
		<path fill="#9FCD84" d="M409.13,804.683h26.674v55.482l-29.086,22.884c-1.079,0.947-1.016,2.431-0.236,3.356
			c-0.951-0.733-1.565-1.88-1.565-3.173v-74.335C404.916,806.569,406.803,804.683,409.13,804.683z"/>
		<path fill="#BAD97C" d="M7.812,700.364v0.022c-0.146-0.011-0.292-0.022-0.441-0.022c-4.071,0-7.371,3.3-7.371,7.371
			c0,2.547,1.295,4.789,3.259,6.113v1.184C1.295,716.355,0,718.597,0,721.144c0,0.028,0.005,0.055,0.005,0.084
			c0,0.028-0.005,0.055-0.005,0.084c0,2.547,1.295,4.789,3.259,6.112v1.184C1.295,729.932,0,732.173,0,734.72
			c0,0.028,0.005,0.055,0.005,0.084c0,0.028-0.005,0.055-0.005,0.084c0,2.547,1.295,4.789,3.259,6.113v1.184
			C1.295,743.508,0,745.75,0,748.297c0,0.028,0.005,0.055,0.005,0.084c0,0.028-0.005,0.055-0.005,0.084
			c0,2.547,1.295,4.789,3.259,6.113v1.184C1.295,757.085,0,759.326,0,761.874c0,0.028,0.005,0.055,0.005,0.084
			c0,0.028-0.005,0.055-0.005,0.084c0,2.547,1.295,4.789,3.259,6.112v1.184C1.295,770.661,0,772.903,0,775.45
			c0,4.071,3.3,7.371,7.371,7.371c0.149,0,0.295-0.011,0.441-0.022v0.123h71.193c2.214,0,4.009-1.795,4.009-4.009v-74.335
			c0-2.327-1.887-4.214-4.214-4.214H7.812z"/>
		<path fill="#9FCD84" d="M78.799,700.364H52.125v55.482l29.086,22.884c1.079,0.947,1.016,2.431,0.236,3.356
			c0.951-0.733,1.565-1.88,1.565-3.173v-74.335C83.013,702.251,81.126,700.364,78.799,700.364z"/>
		<path fill="#EEF2D6" d="M107.077,861.043h326.318c2.253,0,4.08-1.827,4.08-4.08v-74.398c0-2.253-1.827-4.08-4.08-4.08H107.077
			c-2.253,0-4.08,1.827-4.08,4.08v74.398C102.997,859.216,104.824,861.043,107.077,861.043z"/>
		<path fill="#EEF2D6" d="M55.095,757.119h175.216c2.253,0,4.08-1.827,4.08-4.08v-74.398c0-2.253-1.827-4.08-4.08-4.08H55.095
			c-2.253,0-4.08,1.827-4.08,4.08v74.398C51.015,755.292,52.841,757.119,55.095,757.119z"/>
		<g>
			<path fill="#BA394A" d="M156.662,727.737c0,3.956,0,7.584,0,11.259c-3.046,0-5.92,0-8.909,0c0-11.932,0-23.841,0-35.837
				c2.76,0,5.53,0,8.482,0c0,0.819,0,1.634,0,2.662c4.575-5.482,16.983-4.194,19.536,5.721c0.915,3.554,0.812,7.116-0.172,10.674
				C173.146,731.094,162.04,732.897,156.662,727.737z M167.464,716.903c0.074-3.316-2.11-5.747-5.219-5.808
				c-3.15-0.062-5.367,2.127-5.466,5.395c-0.103,3.392,2.158,5.84,5.439,5.889C165.19,722.424,167.392,720.125,167.464,716.903z"/>
			<path fill="#BA394A" d="M141.63,730.136c-2.615,0-5.089,0.03-7.561-0.04c-0.289-0.008-0.748-0.536-0.806-0.878
				c-0.125-0.729-0.038-1.494-0.038-2.616c-2.492,3.706-5.92,4.222-9.582,3.739c-3.938-0.52-6.951-2.566-8.866-6.115
				c-2.918-5.407-2.288-12.753,1.65-17.25c2.973-3.395,6.751-4.852,11.267-3.906c2.029,0.425,3.166,1.291,5.042,3.588
				c0-1.285,0-2.364,0-3.51c3.043,0,5.908,0,8.894,0C141.63,712.089,141.63,721.02,141.63,730.136z M121.924,716.704
				c-0.017,3.259,2.24,5.606,5.406,5.622c3.063,0.015,5.34-2.316,5.395-5.522c0.056-3.277-2.201-5.657-5.362-5.655
				C124.134,711.151,121.942,713.391,121.924,716.704z"/>
			<path fill="#BA394A" d="M104.435,703.072c1.401,0,2.663,0.046,3.92-0.015c0.908-0.044,1.175,0.313,1.142,1.18
				c-0.056,1.486-0.071,2.979,0.004,4.463c0.053,1.053-0.399,1.334-1.355,1.293c-1.205-0.052-2.414-0.013-3.728-0.013
				c0,3.502-0.091,6.961,0.039,10.412c0.064,1.706,1.255,2.503,3.092,2.503c2.183,0,2.187-0.001,2.559,2.221
				c0.171,1.021,0.407,2.043,0.441,3.07c0.014,0.417-0.323,1.053-0.683,1.242c-3.064,1.608-6.289,1.822-9.547,0.712
				c-3.421-1.166-4.686-3.958-4.863-7.256c-0.203-3.779-0.142-7.572-0.194-11.359c-0.007-0.485-0.001-0.971-0.001-1.377
				c-0.229-0.121-0.304-0.19-0.386-0.199c-2.409-0.265-2.409-0.264-2.409-2.772c0-0.857,0.063-1.72-0.015-2.569
				c-0.105-1.145,0.237-1.73,1.484-1.545c0.392,0.058,0.8,0.009,1.415,0.009c0-2.478,0-4.855,0-7.457c2.224,0,4.239,0,6.254,0
				c2.901,0,2.89,0,2.838,2.86C104.413,699.953,104.435,701.432,104.435,703.072z"/>
		</g>
		<g>
			<path fill="#BA394A" d="M289.987,833.714c-3.13,0-6.043,0-9.033,0c0-12.32,0-24.567,0-36.91c2.908,0,5.815,0,8.926,0
				c0,4.445,0,8.918,0,13.408c0.281-0.02,0.409,0.001,0.428-0.035c2.227-4.202,7.288-4.892,10.966-3.817
				c3.188,0.932,4.838,3.337,4.931,6.407c0.21,6.93,0.066,13.871,0.066,20.915c-2.938,0-5.843,0-8.887,0
				c-0.041-0.529-0.123-1.094-0.124-1.659c-0.013-4.915,0.014-9.831-0.027-14.746c-0.016-1.881-0.857-3.053-2.262-3.448
				c-1.65-0.464-3.523,0.112-4.429,1.53c-0.358,0.561-0.525,1.336-0.531,2.016c-0.043,4.915-0.023,9.83-0.023,14.746
				C289.987,832.607,289.987,833.094,289.987,833.714z"/>
			<path fill="#BA394A" d="M169.838,830.422c-4.113,5.941-14.332,4.182-17.938-1.61c-3.356-5.391-3.029-13.424,1.151-18.197
				c2.973-3.395,6.757-4.843,11.272-3.893c2.002,0.421,3.078,1.243,4.991,3.515c0-1.19,0-2.236,0-3.398c3.023,0,5.921,0,8.936,0
				c0,8.91,0,17.841,0,26.943c-2.611,0-5.164,0.024-7.716-0.04c-0.239-0.006-0.618-0.553-0.664-0.886
				C169.768,832.123,169.838,831.366,169.838,830.422z M164.051,814.798c-3.245-0.025-5.47,2.188-5.51,5.482
				c-0.04,3.282,2.177,5.651,5.329,5.695c3.13,0.044,5.454-2.328,5.472-5.583C169.36,817.165,167.144,814.822,164.051,814.798z"/>
			<path fill="#BA394A" d="M209.524,833.739c-2.915,0-5.79,0-8.775,0c-0.042-0.613-0.114-1.184-0.115-1.756
				c-0.011-4.868,0.013-9.736-0.022-14.603c-0.014-1.925-0.779-3.072-2.165-3.521c-1.637-0.53-3.619,0.069-4.551,1.517
				c-0.338,0.526-0.506,1.251-0.511,1.887c-0.041,4.958-0.022,9.916-0.023,14.874c0,0.487,0,0.973,0,1.555c-3.054,0-5.96,0-8.989,0
				c0-8.901,0-17.839,0-26.959c2.646,0,5.331-0.025,8.014,0.043c0.236,0.006,0.612,0.604,0.654,0.96
				c0.098,0.828,0.031,1.676,0.15,2.579c2.065-3.383,5.18-4.486,8.861-4.382c4.473,0.127,7.43,2.7,7.569,7.157
				c0.21,6.753,0.062,13.517,0.061,20.276C209.683,833.446,209.617,833.526,209.524,833.739z"/>
			<path fill="#BA394A" d="M259.73,822.013c-1.661,3.603-3.236,7.023-4.815,10.44c-0.188,0.408-0.353,0.84-0.618,1.195
				c-0.251,0.335-0.62,0.583-0.937,0.869c-0.284-0.315-0.678-0.584-0.834-0.954c-1.237-2.941-2.423-5.904-3.637-8.855
				c-2.342-5.694-4.694-11.385-7.037-17.079c-0.097-0.237-0.153-0.49-0.279-0.904c2.947,0,5.77-0.03,8.59,0.041
				c0.324,0.008,0.781,0.523,0.927,0.9c1.238,3.181,2.418,6.384,3.707,9.824c0.623-1.467,1.175-2.751,1.714-4.041
				c0.814-1.949,1.597-3.912,2.449-5.845c0.154-0.349,0.585-0.814,0.872-0.803c0.303,0.012,0.707,0.476,0.861,0.832
				c1.375,3.173,2.704,6.365,4.184,9.877c0.261-0.655,0.425-1.033,0.565-1.42c1.004-2.791,2.022-5.578,2.989-8.381
				c0.261-0.756,0.66-1.024,1.469-1.006c2.474,0.053,4.949,0.019,7.685,0.019c-0.731,1.81-1.393,3.46-2.062,5.107
				c-2.875,7.079-5.752,14.157-8.629,21.234c-0.085,0.208-0.151,0.433-0.278,0.613c-0.221,0.313-0.483,0.597-0.728,0.894
				c-0.307-0.294-0.728-0.533-0.901-0.892c-1.036-2.145-2.029-4.311-3.007-6.483C261.226,825.524,260.518,823.834,259.73,822.013z"
				/>
			<path fill="#BA394A" d="M329.885,824.235c1.433,2.137,2.801,4.114,4.068,6.155c0.136,0.219-0.197,0.973-0.513,1.194
				c-4.652,3.263-9.717,3.913-14.996,1.919c-4.823-1.821-7.367-5.573-8.091-10.592c-0.749-5.192,0.246-9.879,4.287-13.548
				c4.711-4.277,13.054-4.476,17.669-0.406c3.895,3.435,4.494,7.896,3.731,12.726c-0.152,0.961-0.911,0.826-1.572,0.827
				c-4.642,0.005-9.284,0.003-13.926,0.003c-0.489,0-0.979,0-1.539,0c-0.042,1.936,0.808,3.249,2.375,4.018
				C324.678,828.15,327.373,826.969,329.885,824.235z M327.869,817.764c-0.192-2.925-2.02-4.675-4.649-4.501
				c-2.495,0.165-4.252,2.092-4.092,4.501C322.039,817.764,324.952,817.764,327.869,817.764z"/>
			<path fill="#BA394A" d="M372.863,822.512c-0.041,1.937,0.809,3.249,2.376,4.018c3.3,1.62,5.996,0.438,8.507-2.295
				c1.433,2.137,2.801,4.115,4.068,6.156c0.136,0.219-0.198,0.973-0.513,1.194c-4.652,3.263-9.717,3.912-14.997,1.918
				c-4.822-1.821-7.367-5.573-8.091-10.593c-0.748-5.192,0.246-9.879,4.288-13.548c4.711-4.277,13.054-4.476,17.669-0.405
				c3.895,3.436,4.494,7.896,3.73,12.726c-0.152,0.961-0.912,0.826-1.573,0.826c-4.642,0.005-9.284,0.003-13.926,0.003
				C373.913,822.512,373.424,822.512,372.863,822.512z M381.765,817.773c-0.369-3.04-2.077-4.654-4.638-4.513
				c-2.483,0.137-4.204,1.976-4.183,4.513C375.856,817.773,378.769,817.773,381.765,817.773z"/>
			<path fill="#BA394A" d="M212.518,806.726c3.18,0,6.062-0.049,8.939,0.056c0.4,0.015,0.934,0.717,1.133,1.211
				c1.497,3.709,2.924,7.446,4.376,11.173c0.112,0.288,0.249,0.567,0.484,1.098c0.9-3.044,1.731-5.855,2.561-8.666
				c0.382-1.294,0.716-2.605,1.171-3.872c0.14-0.39,0.6-0.937,0.927-0.946c2.781-0.075,5.566-0.043,8.552-0.043
				c-0.177,0.695-0.257,1.216-0.441,1.698c-4.211,11.048-8.441,22.088-12.638,33.141c-0.322,0.849-0.755,1.17-1.678,1.146
				c-2.472-0.065-4.947-0.022-7.718-0.022c0.713-1.858,1.334-3.52,1.987-5.169c0.695-1.755,1.372-3.521,2.151-5.239
				c0.409-0.902,0.346-1.655-0.042-2.548c-3.101-7.134-6.158-14.287-9.221-21.438C212.876,807.871,212.751,807.408,212.518,806.726z
				"/>
			<path fill="#BA394A" d="M355.732,818.591c-0.111-0.7-0.148-1.1-0.241-1.487c-0.425-1.776-1.471-2.528-3.22-2.335
				c-1.628,0.18-2.736,1.418-2.737,3.088c-0.005,4.733,0.001,9.465-0.006,14.198c-0.001,0.531-0.058,1.063-0.093,1.661
				c-3.006,0-5.914,0-8.919,0c0-8.977,0-17.914,0-26.922c2.87,0,5.692,0,8.652,0c0.053,0.827,0.107,1.656,0.177,2.751
				c1.4-1.961,3.072-3.115,5.241-3.522c4.029-0.757,7.552,1.724,7.829,5.6c0.03,0.426-0.146,0.986-0.431,1.295
				c-1.465,1.59-2.972,3.145-4.523,4.653C357.031,817.99,356.401,818.206,355.732,818.591z"/>
		</g>
	</g>
	<g>
		<defs>
			<rect id="SVGID_3_" x="157.98" y="515.607" width="224.95" height="262.877"/>
		</defs>
		<clipPath id="SVGID_1_">
			<use xlink:href="#SVGID_3_"  overflow="visible"/>
		</clipPath>
		<g clip-path="url(#SVGID_1_)">
			<g>
				<path fill="#C07759" d="M328.211,760.963c-9.697,0-17.557-7.86-17.557-17.557v-62.347c0-9.697,7.861-17.557,17.557-17.557
					s17.557,7.861,17.557,17.557v55.18C345.769,745.936,337.908,760.963,328.211,760.963z"/>
			</g>
			<path fill="#AB644B" d="M324.628,721.433v-57.565c-7.978,1.654-13.974,8.722-13.974,17.19v48.731h5.618
				C320.887,729.79,324.628,726.048,324.628,721.433z"/>
			<g>
				<path fill="#C07759" d="M299.546,760.963c-9.697,0-17.557-7.86-17.557-17.557v-69.513c0-9.697,7.861-17.557,17.557-17.557
					c9.697,0,17.557,7.86,17.557,17.557v69.513C317.104,753.102,309.243,760.963,299.546,760.963z"/>
			</g>
			<path fill="#AB644B" d="M295.963,714.267v-57.565c-7.978,1.654-13.974,8.722-13.974,17.19v48.731h5.618
				C292.221,722.623,295.963,718.882,295.963,714.267z"/>
			<g>
				<path fill="#C07759" d="M270.881,753.797c-9.697,0-17.557-7.861-17.557-17.557v-69.513c0-9.697,7.861-17.557,17.557-17.557
					c9.697,0,17.557,7.861,17.557,17.557v69.513C288.438,745.936,280.578,753.797,270.881,753.797z"/>
			</g>
			<path fill="#AB644B" d="M267.298,707.101v-57.565c-7.978,1.654-13.974,8.722-13.974,17.19v48.731h5.618
				C263.556,715.457,267.298,711.716,267.298,707.101z"/>
			<path fill="#C07759" d="M237.227,736.232l-3.282-10.396l21.04-33.236c5.187-8.192,2.75-19.039-5.443-24.225
				c-8.193-5.189-19.039-2.75-24.225,5.443l-29.706,40.131c-2.768,4.372-3.466,9.742-1.908,14.677l21.383,68.097
				c5.536,17.533,21.801,29.454,40.188,29.454h51.767c17.3,0,27.731-6.835,31.324-31.324c3.593-24.489,6.993-54.836,6.993-54.836
				L237.227,736.232z"/>
			<path fill="#AB644B" d="M231.466,758.455v-90.506c-2.424,1.377-4.555,3.35-6.15,5.869l-7.824,10.57v65.71
				c0,4.615,3.741,8.357,8.357,8.357H231.466z"/>
			<path fill="#C07759" d="M242.216,810.679c-9.697,0-17.557-7.861-17.557-17.557V590.047c0-9.697,7.861-17.557,17.557-17.557
				c9.697,0,17.557,7.86,17.557,17.557v203.074C259.773,802.818,251.913,810.679,242.216,810.679z"/>
			<path fill="#E69F7A" d="M242.216,580.611c-6.915,0-12.541,3.592-12.541,8.007v18.15c0,0,5.626-2.628,12.541-2.628
				s12.541,2.628,12.541,2.628v-18.15C254.757,584.204,249.131,580.611,242.216,580.611z"/>
		</g>
	</g>
</g>
</svg>
