<?xml version="1.0" encoding="utf-8"?>
<!-- Generator: Adobe Illustrator 17.0.0, SVG Export Plug-In . SVG Version: 6.00 Build 0)  -->
<!DOCTYPE svg PUBLIC "-//W3C//DTD SVG 1.1//EN" "http://www.w3.org/Graphics/SVG/1.1/DTD/svg11.dtd">
<svg version="1.1" id="Layer_1" xmlns="http://www.w3.org/2000/svg" xmlns:xlink="http://www.w3.org/1999/xlink" x="0px" y="0px"
	 width="342.922px" height="133.5px" viewBox="0 0 342.922 133.5" enable-background="new 0 0 342.922 133.5" xml:space="preserve">
<g>
	<g>
		<path fill="#FFFFFF" d="M342.922,131.5c0,1.1-0.9,2-2,2H2c-1.1,0-2-0.9-2-2v-11.068c0-1.1,0.9-2,2-2h338.922c1.1,0,2,0.9,2,2
			V131.5z"/>
	</g>
	<g>
		<g id="F8eaXe.tif_1_">
			<g>
				<path fill="#FFFFFF" d="M158.094,0c4.877,0,9.438,0,14.371,0c0,6.909,0,13.666,0,21.214c5.513-5.626,11.637-6.304,18.066-4.549
					c10.574,2.886,16.563,13.535,14.746,25.714c-1.637,10.973-7.033,17.22-16.442,19.031c-5.916,1.139-11.117-0.404-16.754-5.209
					c0.281,5.156-2.89,5.268-6.497,4.988c-2.422-0.188-4.87-0.036-7.49-0.036C158.094,40.657,158.094,20.466,158.094,0z
					 M172.937,38.739c-0.068,5.299,3.677,9.397,8.71,9.533c4.925,0.133,8.995-3.96,9.119-9.17c0.124-5.214-3.73-9.383-8.759-9.475
					C176.873,29.533,173.006,33.418,172.937,38.739z"/>
				<path fill="#FFFFFF" d="M299.597,19.855c0-6.778,0-13.114,0-19.734c4.915,0,9.632,0,14.56,0c0,20.198,0,40.364,0,60.781
					c-4.526,0-8.942,0-13.68,0c-0.159-0.737-0.356-1.652-0.556-2.577c-0.208-0.014-0.48-0.122-0.623-0.031
					c-14.048,9.038-30.659,0.307-31.782-16.858c-0.223-3.402,0.016-6.993,0.873-10.28C272.045,17.135,286.989,11.56,299.597,19.855z
					 M299.871,38.996c0.023-5.44-3.602-9.306-8.788-9.375c-5.117-0.068-8.956,3.9-8.948,9.249c0.008,5.434,3.96,9.458,9.236,9.406
					C296.29,48.229,299.848,44.344,299.871,38.996z"/>
				<path fill="#FFFFFF" d="M243.843,21.32c0.998-5.028,0.998-5.038,6.619-5.024c2.571,0.006,5.142,0.054,7.712,0.103
					c0.202,0.004,0.401,0.164,0.846,0.358c0,14.582,0,29.264,0,44.153c-4.566,0-8.985,0-13.692,0
					c-0.13-1.491-0.26-2.975-0.438-5.018c-3.324,4.081-7.387,5.823-12.145,5.835c-4.579,0.012-8.859-1.125-12.586-3.893
					c-12.469-9.261-11.086-31.776,2.408-39.437C229.971,14.193,237.331,15.204,243.843,21.32z M244.127,38.972
					c0.045-5.461-3.587-9.334-8.773-9.354c-5.203-0.02-8.903,3.797-8.956,9.239c-0.052,5.304,3.749,9.352,8.838,9.412
					C240.33,48.33,244.082,44.408,244.127,38.972z"/>
				<path fill="#FFFFFF" d="M74.164,62.545c-14.099-0.036-23.731-9.774-23.682-23.941C50.53,24.931,60.635,14.91,74.309,14.977
					c13.763,0.067,23.491,9.999,23.425,23.915C97.667,52.953,88.073,62.581,74.164,62.545z M65.241,38.439
					c-0.172,5.602,3.695,9.979,8.904,10.078c5.019,0.096,8.596-3.682,8.81-9.306c0.211-5.555-3.185-9.604-8.237-9.819
					C69.413,29.166,65.408,32.989,65.241,38.439z"/>
				<path fill="#FFFFFF" d="M42.713,60.941c-4.924,0-9.681,0-14.907,0c0-2.293,0-4.491,0-6.69
					c-0.002-6.708,0.046-13.417-0.024-20.125c-0.044-4.239-1.995-6.245-5.748-6.178c-3.828,0.069-6.246,2.432-6.267,6.285
					c-0.041,7.603-0.013,15.206-0.013,22.808c0,1.212,0,2.423,0,3.853c-5.023,0-9.771,0-14.755,0c0-14.699,0-29.402,0-44.59
					c4.148,0,8.356-0.078,12.555,0.083c0.641,0.025,1.555,1.065,1.78,1.806c0.308,1.016,0.077,2.195,0.077,4.389
					c3.333-4.968,7.353-7.014,12.356-7.486c8.475-0.8,14.322,3.11,14.791,11.598C43.185,38.022,42.713,49.409,42.713,60.941z"/>
				<path fill="#FFFFFF" d="M122.362,27.663c0,5.327-0.017,10.131,0.005,14.936c0.023,5.155,1.476,6.564,6.576,6.462
					c0.657-0.013,1.314-0.002,2.326-0.002c0.461,3.079,1.017,6.024,1.259,8.994c0.055,0.677-0.822,1.764-1.538,2.114
					c-5.171,2.535-10.549,2.817-15.908,0.718c-5.415-2.121-7.266-6.784-7.463-12.062c-0.258-6.904-0.063-13.825-0.063-20.942
					c-1.682-0.16-2.975-0.284-4.53-0.432c0-3.577,0-7.175,0-10.908c1.445-0.174,2.739-0.329,4.352-0.523c0-3.85,0-7.625,0-11.931
					c4.726,0,9.143-0.089,13.548,0.112c0.554,0.025,1.433,1.556,1.484,2.429c0.182,3.092,0.071,6.202,0.071,9.435
					c0.744,0.09,1.274,0.193,1.808,0.214c6.576,0.262,6.576,0.259,6.569,6.89c-0.001,1.319,0,2.639,0,4.496
					c-1.747,0-3.139,0-4.532,0C125.045,27.663,123.765,27.663,122.362,27.663z"/>
				<path fill="#FFFFFF" d="M327.03,0.699c5.467,0,10.242,0,15.745,0c0,6.181-0.305,12.198,0.078,18.171
					c0.465,7.245-1.523,13.865-3.858,20.532c-0.8,2.286-2.199,2.36-4.094,2.358c-1.909-0.001-3.143-0.187-4.025-2.425
					c-2.868-7.285-4.279-14.706-3.896-22.547C327.237,11.568,327.03,6.326,327.03,0.699z"/>
				<path fill="#FFFFFF" d="M327.907,45.704c4.913,0,9.568,0,14.493,0c0,5.008,0,9.956,0,15.159c-4.733,0-9.463,0-14.493,0
					C327.907,55.954,327.907,51.014,327.907,45.704z"/>
			</g>
		</g>
	</g>
</g>
</svg>
