<?xml version="1.0" encoding="utf-8"?>
<!-- Generator: Adobe Illustrator 17.0.0, SVG Export Plug-In . SVG Version: 6.00 Build 0)  -->
<!DOCTYPE svg PUBLIC "-//W3C//DTD SVG 1.1//EN" "http://www.w3.org/Graphics/SVG/1.1/DTD/svg11.dtd">
<svg version="1.1" id="Layer_1" xmlns="http://www.w3.org/2000/svg" xmlns:xlink="http://www.w3.org/1999/xlink" x="0px" y="0px"
	 width="401.043px" height="132.519px" viewBox="0 0 401.043 132.519" enable-background="new 0 0 401.043 132.519"
	 xml:space="preserve">
<g>
	<g>
		<path fill="#4A4434" d="M401.043,130.519c0,1.1-0.9,2-2,2H2c-1.1,0-2-0.9-2-2v-11.068c0-1.1,0.9-2,2-2h397.043c1.1,0,2,0.9,2,2
			V130.519z"/>
	</g>
	<g id="AdZaVO_1_">
		<g>
			<path fill="#4A4434" d="M32.069,19.454c0.068-1.055,0.136-2.103,0.22-3.417c4.5,0,8.893-0.042,13.281,0.079
				c0.353,0.01,0.951,1.129,0.966,1.744c0.091,3.76,0.085,7.524,0.04,11.285c-0.096,8.027-0.092,16.059-0.41,24.078
				c-0.205,5.153-1.284,10.198-3.992,14.711c-3.827,6.377-10,8.386-16.93,8.851c-6.896,0.463-13.304-1.446-19.487-4.25
				c-0.582-0.264-1.359-1.354-1.213-1.77c1.277-3.658,2.743-7.25,4.129-10.801c3.059,1.18,5.86,2.577,8.825,3.301
				c2.325,0.567,4.904,0.661,7.282,0.331c5.209-0.723,7.47-4.139,7.143-9.697c-2.432,1.145-4.857,2.838-7.528,3.439
				C16.61,59.09,7.833,56.951,3.481,49.576c-4.317-7.315-4.498-15.116-1.212-22.919c5.395-12.813,21.804-13.718,29.269-7.255
				C31.62,19.472,31.798,19.431,32.069,19.454z M23.378,46.46c5.133,0.004,8.787-3.643,8.733-8.715
				c-0.054-5.084-3.736-8.802-8.729-8.813c-4.953-0.011-8.744,3.766-8.811,8.779C14.506,42.606,18.382,46.457,23.378,46.46z"/>
			<path fill="#4A4434" d="M313.437,56.568c-10.244,8.186-26.372,3.261-30.435-9.4c-2.725-8.49-2.228-16.873,3.365-24.343
				c6.196-8.275,19.12-9.629,26.136-3.654c0.097,0.083,0.256,0.093,0.635,0.222c0-6.456,0-12.833,0-19.393c4.887,0,9.529,0,14.354,0
				c0.038,0.763,0.104,1.461,0.105,2.16c0.006,18.367-0.026,36.735,0.047,55.102c0.008,2.072-0.55,2.837-2.672,2.701
				c-2.593-0.167-5.204-0.039-7.807-0.04C313.867,59.923,313.867,59.923,313.437,56.568z M313.509,38.201
				c0.027-5.275-3.584-9.095-8.645-9.147c-5.015-0.051-8.851,3.799-8.905,8.94c-0.055,5.192,3.775,9.194,8.87,9.27
				C309.865,47.339,313.482,43.562,313.509,38.201z"/>
			<path fill="#4A4434" d="M261.647,54.466c-5.163,6.229-13.693,7.74-21.065,4.109c-6.673-3.287-10.215-8.804-11.283-15.935
				c-1.336-8.922,0.653-16.877,7.887-22.846c4.538-3.744,9.8-5.156,15.631-3.805c3.035,0.703,4.66,1.883,7.868,5.445
				c0.06-0.78,0.145-1.38,0.146-1.98c0.002-4.037-0.101-3.405,3.563-3.434c3.039-0.023,6.08,0.056,9.116-0.031
				c1.444-0.041,2.048,0.31,2.042,1.909c-0.056,13.314-0.056,26.628,0,39.942c0.007,1.656-0.569,2.111-2.144,2.062
				c-3.181-0.1-6.369-0.11-9.549,0.002c-1.714,0.061-2.404-0.518-2.229-2.233C261.725,56.743,261.647,55.797,261.647,54.466z
				 M260.809,38.113c-0.01-5.349-3.573-9.075-8.665-9.06c-5.21,0.015-8.794,3.769-8.797,9.213c-0.003,5.141,3.79,9.005,8.833,8.999
				C257.187,47.259,260.819,43.406,260.809,38.113z"/>
			<path fill="#4A4434" d="M66.97,41.634c0.043,3.243,1.446,5.387,4.106,6.584c5.251,2.362,9.54,0.567,13.731-4.04
				c0.331,0.687,0.521,1.248,0.842,1.72c1.261,1.852,2.577,3.666,3.848,5.512c2.709,3.933,2.647,4.423-1.579,6.599
				c-6.285,3.236-12.901,4.117-19.759,2.186C61.43,58.3,56.758,53.95,54.337,47.482c-2.553-6.821-2.597-13.769,0.631-20.441
				c4.144-8.564,11.44-12.258,20.6-12.086c10.053,0.188,17.212,6,18.982,15.165c0.578,2.994,0.224,6.176,0.23,9.271
				c0.003,1.702-0.891,2.298-2.633,2.278c-7.52-0.084-15.042-0.036-22.564-0.036C68.794,41.634,68.005,41.634,66.97,41.634z
				 M67.089,33.792c4.835,0,9.531,0,14.232,0c-0.21-4.453-2.795-7.045-6.942-7.137C70.328,26.565,67.635,29.136,67.089,33.792z"/>
			<path fill="#4A4434" d="M216.17,44.393c2.347,3.413,4.584,6.493,6.557,9.734c0.277,0.456-0.502,2.044-1.197,2.525
				c-5.321,3.683-11.292,5.065-17.693,4.338c-18.653-2.118-22.798-21.452-17.554-33.52c5.263-12.112,21.002-15.754,31.124-9.763
				c6.409,3.794,9.14,9.766,9.261,17.072c0.113,6.853,0.125,6.853-6.565,6.853c-6.364,0-12.728,0-19.093,0c-0.785,0-1.569,0-2.469,0
				c0.038,3.272,1.49,5.454,4.248,6.648C207.975,50.527,212.207,48.771,216.17,44.393z M212.82,33.848
				c0.104-4.375-2.837-7.277-7.155-7.197c-4.089,0.076-7.075,3.215-6.794,7.197C203.52,33.848,208.173,33.848,212.82,33.848z"/>
			<path fill="#4A4434" d="M339.92,74.249c1.878-4.704,3.3-9.124,5.375-13.212c1.978-3.896,1.743-7.178-0.089-11.125
				c-4.74-10.215-8.971-20.666-13.397-31.026c-0.331-0.774-0.597-1.575-1.084-2.87c1.692,0,3.019,0,4.345,0
				c3.111,0,6.225,0.086,9.331-0.037c1.501-0.06,2.175,0.504,2.684,1.852c2.47,6.548,5.029,13.062,7.784,20.179
				c0.424-1.205,0.694-1.881,0.9-2.575c1.708-5.745,3.454-11.479,5.071-17.249c0.448-1.597,1.192-2.252,2.878-2.201
				c3.397,0.104,6.799,0.025,10.199,0.033c2.577,0.006,2.73,0.175,1.836,2.549c-5.547,14.732-11.106,29.458-16.691,44.176
				c-1.281,3.375-2.635,6.725-4.058,10.042c-0.257,0.598-1.003,1.386-1.541,1.4C349.133,74.299,344.799,74.249,339.92,74.249z"/>
			<path fill="#4A4434" d="M116.037,16.016c2.107,0,4.186,0.058,6.26-0.021c1.332-0.051,1.792,0.473,1.761,1.77
				c-0.062,2.529-0.055,5.061-0.007,7.591c0.026,1.397-0.563,1.943-1.948,1.898c-2.006-0.065-4.015-0.017-6.086-0.017
				c0,5.869-0.167,11.563,0.073,17.24c0.114,2.709,2.331,4.064,5.631,3.6c2.299-0.324,3.142,0.325,3.263,2.586
				c0.104,1.937,0.704,3.85,0.782,5.786c0.031,0.782-0.535,1.993-1.184,2.333c-4.835,2.535-9.921,2.864-15.103,1.165
				c-5.617-1.842-7.737-6.317-8.063-11.676c-0.368-6.054-0.254-12.138-0.345-18.208c-0.013-0.856-0.002-1.712-0.002-2.706
				c-1.548-0.147-2.938-0.279-4.49-0.426c0-3.348-0.051-6.521,0.061-9.69c0.015-0.422,0.802-1.055,1.324-1.169
				c0.892-0.194,1.856-0.053,3.381-0.053c0-3.397,0.088-6.685-0.035-9.964c-0.066-1.754,0.558-2.246,2.247-2.185
				c3.249,0.117,6.508,0.103,9.758,0.01c2.093-0.06,2.826,0.827,2.753,2.86C115.957,9.752,116.037,12.771,116.037,16.016z"/>
			<path fill="#4A4434" d="M171.881,35.289c-0.122-1.02-0.154-1.446-0.226-1.865c-0.55-3.177-2.235-4.62-5.111-4.388
				c-2.855,0.23-4.756,2.355-4.757,5.328c-0.002,7.81-0.039,15.621,0.03,23.43c0.014,1.581-0.394,2.16-2.061,2.114
				c-4.111-0.113-8.228-0.037-12.534-0.037c0-14.638,0-29.117,0-43.726c4.682,0,9.265,0,14.06,0c0,1.444,0,2.779,0,4.113
				c2.404-2.785,5.143-4.686,8.677-5.374c6.55-1.276,12.11,2.593,12.807,9.028c0.073,0.677-0.191,1.601-0.644,2.089
				c-2.461,2.647-5,5.225-7.587,7.748C173.922,34.348,173.016,34.646,171.881,35.289z"/>
			<path fill="#4A4434" d="M381.8,13.291c0-2.684,0.035-6.803-0.02-10.92c-0.019-1.412,0.551-1.924,1.921-1.908
				c3.757,0.044,7.515,0.043,11.273,0.002c1.305-0.014,1.748,0.517,1.759,1.806c0.064,8.019,0.211,16.038,0.263,24.058
				c0.006,0.981-0.301,1.993-0.608,2.943c-0.952,2.951-2.137,5.838-2.917,8.832c-0.613,2.353-1.876,2.922-4.168,2.917
				c-2.322-0.005-3.233-0.8-4.124-2.981C382.103,30.516,381.016,22.766,381.8,13.291z"/>
			<path fill="#4A4434" d="M397.009,52.291c-0.001,1.88-0.029,3.761,0.009,5.64c0.026,1.328-0.434,1.986-1.891,1.961
				c-3.759-0.064-7.52-0.051-11.28-0.005c-1.197,0.015-1.705-0.419-1.695-1.632c0.032-3.977,0.035-7.954,0-11.931
				c-0.012-1.339,0.601-1.728,1.863-1.709c3.687,0.055,7.377,0.081,11.062-0.01c1.572-0.039,2.019,0.591,1.953,2.047
				C396.945,48.528,397.009,50.411,397.009,52.291z"/>
		</g>
	</g>
</g>
</svg>
