<?xml version="1.0" encoding="utf-8"?>
<!-- Generator: Adobe Illustrator 17.0.0, SVG Export Plug-In . SVG Version: 6.00 Build 0)  -->
<!DOCTYPE svg PUBLIC "-//W3C//DTD SVG 1.1//EN" "http://www.w3.org/Graphics/SVG/1.1/DTD/svg11.dtd">
<svg version="1.1" id="Layer_1" xmlns="http://www.w3.org/2000/svg" xmlns:xlink="http://www.w3.org/1999/xlink" x="0px" y="0px"
	 width="198.9px" height="105.8px" viewBox="0 0 198.9 105.8" enable-background="new 0 0 198.9 105.8" xml:space="preserve">
<path opacity="0.1" fill="#010101" d="M7.2,81.2L7.2,81.2c-0.1,0-0.3,0-0.4,0c-3.8,0-6.8-3-6.8-6.8C0,72,1.2,70,3,68.7v-1.1
	c-1.8-1.2-3-3.3-3-5.6c0,0,0-0.1,0-0.1c0,0,0-0.1,0-0.1c0-2.3,1.2-4.4,3-5.6v-1.1c-1.8-1.2-3-3.3-3-5.6c0,0,0-0.1,0-0.1
	c0,0,0-0.1,0-0.1c0-2.3,1.2-4.4,3-5.6v-1.1c-1.8-1.2-3-3.3-3-5.6c0,0,0-0.1,0-0.1c0,0,0-0.1,0-0.1c0-2.3,1.2-4.4,3-5.6v-1.1
	c-1.8-1.2-3-3.3-3-5.6c0,0,0-0.1,0-0.1c0,0,0-0.1,0-0.1c0-2.3,1.2-4.4,3-5.6v-1.1c-1.8-1.2-3-3.3-3-5.6c0-3.8,3-6.8,6.8-6.8
	c0.1,0,0.3,0,0.4,0V5.1h53c2,0,3.7,1.7,3.7,3.7v68.5c0,2.1-1.7,3.9-3.9,3.9H7.2z"/>
<path fill="#E1EAA0" d="M7.2,76.1L7.2,76.1c-0.1,0-0.3,0-0.4,0c-3.8,0-6.8-3-6.8-6.8c0-2.3,1.2-4.4,3-5.6v-1.1c-1.8-1.2-3-3.3-3-5.6
	c0,0,0-0.1,0-0.1c0,0,0-0.1,0-0.1c0-2.3,1.2-4.4,3-5.6v-1.1c-1.8-1.2-3-3.3-3-5.6c0,0,0-0.1,0-0.1c0,0,0-0.1,0-0.1
	c0-2.3,1.2-4.4,3-5.6v-1.1c-1.8-1.2-3-3.3-3-5.6c0,0,0-0.1,0-0.1c0,0,0-0.1,0-0.1c0-2.3,1.2-4.4,3-5.6V25c-1.8-1.2-3-3.3-3-5.6
	c0,0,0-0.1,0-0.1c0,0,0-0.1,0-0.1c0-2.3,1.2-4.4,3-5.6v-1.1c-1.8-1.2-3-3.3-3-5.6c0-3.8,3-6.8,6.8-6.8c0.1,0,0.3,0,0.4,0V0h53
	c2,0,3.7,1.7,3.7,3.7v68.5c0,2.1-1.7,3.9-3.9,3.9H7.2z"/>
<path fill="#C9DE7E" d="M60,76.1H35.4V25L62.2,3.9c1-0.9,0.9-2.2,0.2-3.1c0.9,0.7,1.4,1.7,1.4,2.9v68.5C63.9,74.4,62.1,76.1,60,76.1
	z"/>
<path opacity="0.1" fill="#010101" d="M195.1,29.7h-7.9H63.9H38.1c-2.1,0-3.8,1.7-3.8,3.8V102c0,2.1,1.7,3.8,3.8,3.8h25.7h123.4h7.9
	c2.1,0,3.8-1.7,3.8-3.8V33.4C198.9,31.4,197.2,29.7,195.1,29.7z"/>
<path fill="#FFFFFF" d="M195.1,24H37.9c-2.1,0-3.8,1.7-3.8,3.8v68.6c0,2.1,1.7,3.8,3.8,3.8h157.2c2.1,0,3.8-1.7,3.8-3.8V27.7
	C198.9,25.7,197.2,24,195.1,24z"/>
</svg>
