<?xml version="1.0" encoding="utf-8"?>
<!-- Generator: Adobe Illustrator 17.0.0, SVG Export Plug-In . SVG Version: 6.00 Build 0)  -->
<!DOCTYPE svg PUBLIC "-//W3C//DTD SVG 1.1//EN" "http://www.w3.org/Graphics/SVG/1.1/DTD/svg11.dtd">
<svg version="1.1" id="Layer_1" xmlns="http://www.w3.org/2000/svg" xmlns:xlink="http://www.w3.org/1999/xlink" x="0px" y="0px"
	 width="492.689px" height="183.096px" viewBox="0 0 492.689 183.096" enable-background="new 0 0 492.689 183.096"
	 xml:space="preserve">
<g>
	<path opacity="0.1" fill="#010101" d="M9.284,84.975v0.026c-0.173-0.013-0.347-0.026-0.524-0.026c-4.838,0-8.76,3.922-8.76,8.76
		c0,3.027,1.539,5.691,3.873,7.265v1.407C1.539,103.98,0,106.645,0,109.672c0,0.034,0.006,0.066,0.006,0.1
		c0,0.034-0.006,0.066-0.006,0.1c0,3.027,1.539,5.691,3.873,7.265v1.407C1.539,120.116,0,122.78,0,125.808
		c0,0.034,0.006,0.066,0.006,0.1c0,0.034-0.006,0.066-0.006,0.1c0,3.027,1.539,5.691,3.873,7.265v1.407
		C1.539,136.252,0,138.916,0,141.944c0,0.034,0.006,0.066,0.006,0.1c0,0.034-0.006,0.066-0.006,0.1c0,3.027,1.539,5.691,3.873,7.265
		v1.407C1.539,152.388,0,155.052,0,158.08c0,0.034,0.006,0.066,0.006,0.1c0,0.034-0.006,0.066-0.006,0.1
		c0,3.027,1.539,5.691,3.873,7.265v1.407C1.539,168.524,0,171.188,0,174.215c0,4.838,3.922,8.76,8.76,8.76
		c0.177,0,0.35-0.013,0.524-0.026v0.146h84.613c2.631,0,4.764-2.133,4.764-4.764V89.983c0-2.766-2.242-5.009-5.009-5.009H9.284z"/>
	<path fill="#E1EAA0" d="M9.284,78.443v0.026c-0.173-0.013-0.347-0.026-0.524-0.026c-4.838,0-8.76,3.922-8.76,8.76
		c0,3.027,1.539,5.691,3.873,7.265v1.407C1.539,97.449,0,100.113,0,103.14c0,0.034,0.006,0.066,0.006,0.1
		c0,0.034-0.006,0.066-0.006,0.1c0,3.027,1.539,5.691,3.873,7.265v1.407C1.539,113.585,0,116.249,0,119.276
		c0,0.034,0.006,0.066,0.006,0.1c0,0.034-0.006,0.066-0.006,0.1c0,3.027,1.539,5.691,3.873,7.265v1.407
		C1.539,129.721,0,132.385,0,135.412c0,0.034,0.006,0.066,0.006,0.1c0,0.034-0.006,0.066-0.006,0.1c0,3.027,1.539,5.691,3.873,7.265
		v1.407C1.539,145.857,0,148.521,0,151.548c0,0.034,0.006,0.066,0.006,0.1c0,0.034-0.006,0.066-0.006,0.1
		c0,3.027,1.539,5.691,3.873,7.265v1.407C1.539,161.993,0,164.657,0,167.684c0,4.838,3.922,8.76,8.76,8.76
		c0.177,0,0.35-0.013,0.524-0.026v0.146h84.613c2.631,0,4.764-2.133,4.764-4.764V83.452c0-2.766-2.242-5.009-5.009-5.009H9.284z"/>
	<path fill="#C9DE7E" d="M93.653,78.443H61.951v65.941l34.569,27.198c1.283,1.126,1.208,2.89,0.281,3.989
		c1.13-0.871,1.861-2.234,1.861-3.771V83.452C98.662,80.686,96.419,78.443,93.653,78.443z"/>
	<path opacity="0.1" fill="#010101" d="M487.84,54.064H98.662v98.121H487.84c2.678,0,4.849-2.171,4.849-4.849V58.913
		C492.689,56.235,490.518,54.064,487.84,54.064z"/>
	<path opacity="0.1" fill="#010101" d="M98.662,152.185V85.901c0-2.766-2.242-5.009-5.009-5.009H61.951v63.492l9.915,7.801H98.662z"
		/>
	<path fill="#FFFFFF" d="M487.84,145.653H65.193c-2.678,0-4.849-2.171-4.849-4.849V52.381c0-2.678,2.171-4.849,4.849-4.849H487.84
		c2.678,0,4.849,2.171,4.849,4.849v88.423C492.689,143.482,490.518,145.653,487.84,145.653z"/>
	<g>
		<path fill="#FFFFFF" d="M471.039,96.015l-0.001-31.99c0-0.677-0.008-1.576-0.071-2.522c-0.286-4.322-3.607-7.489-7.815-7.53
			l-0.154-0.011c-0.357-0.027-0.715-0.046-1.068-0.046l-10.924-0.003l-8.951,0.001c-5.689,0-8.822,3.126-8.822,8.802v33.878
			c-0.002,1.775-0.43,3.167-1.348,4.383c-1.386,1.837-2.931,2.667-5.144,2.757c-2.213-0.089-3.758-0.92-5.145-2.757
			c-0.937-1.242-1.365-2.672-1.348-4.5c0.002-0.212-0.006-0.423-0.023-0.632l-0.001-31.82c0-0.676-0.008-1.574-0.071-2.522
			c-0.286-4.322-3.607-7.489-7.815-7.53l-0.154-0.011c-0.357-0.027-0.715-0.046-1.068-0.046l-10.925-0.003l-8.951,0.001
			c-5.03,0-8.062,2.443-8.697,6.933c-2.985-3.611-6.959-6.193-11.799-7.623c-4.791-1.415-9.982-1.788-15.556-1.113
			c-3.363,0.41-6.49,1.326-9.327,2.718l-0.001-17.173c0-0.724-0.009-1.589-0.071-2.524c-0.29-4.318-3.61-7.482-7.815-7.523
			l-0.154-0.011c-0.357-0.027-0.714-0.046-1.067-0.046L325.67,27.55l-8.791,0.001c-5.689,0-8.823,3.126-8.823,8.802v15.303
			c-3.914-4.37-8.822-7.71-14.683-9.981c-7.667-2.97-16.048-3.851-24.847-2.6c-11.041,1.565-20.135,6.626-27.03,15.04
			c-1.089,1.329-2.091,2.7-3.007,4.117c-1.338-2.779-4.075-4.306-7.945-4.315l-4.335-0.004c0.057-3.175,0.113-6.35,0.155-9.524
			c0.051-3.711-1.43-6.007-2.682-7.28c-1.248-1.269-3.506-2.783-7.179-2.793c-6.469-0.021-12.936-0.013-19.411-0.005
			c-4.956,0.008-8.238,3.234-8.36,8.217c-0.094,3.814-0.188,7.629-0.278,11.444c-1.656,0.163-3.082,0.674-4.233,1.488
			c-1.41-1.004-3.252-1.543-5.457-1.544l-19.479-0.001c-3.375,0-5.833,0.867-7.399,2.628c-0.261-0.14-0.525-0.277-0.792-0.411
			c-5.685-2.849-12.085-3.739-19.118-2.641c-4.557,0.712-8.754,2.116-12.575,4.198c-0.899-1.889-2.507-3.404-4.6-4.316
			c-3.619-1.574-7.244-3.133-10.87-4.691c-2.303-0.99-4.605-1.98-6.909-2.976c-1.147-0.494-2.319-0.746-3.483-0.746
			c-3.077,0-5.797,1.724-7.276,4.612c-0.903,1.762-2.211,2.67-4.374,3.035c-0.779,0.132-1.521,0.199-2.204,0.199
			c-2.586,0-4.346-0.903-5.884-3.02c-0.788-1.083-1.764-2.96-1.158-6.736c0.368-2.288,1.209-3.325,1.81-3.904
			c1.937-1.87,4.161-2.382,7.304-1.801c3.101,0.575,4.068,1.751,4.651,2.937c1.371,2.789,3.983,4.454,6.987,4.454
			c1.519,0,2.728-0.44,3.497-0.768c3.361-1.429,6.726-2.848,10.091-4.267l6.265-2.644c2.197-0.929,4.932-2.085,6.222-5.324
			c1.292-3.245,0.102-5.958-0.853-8.138c-4.267-9.736-11.46-16.623-21.38-20.471c-7.066-2.74-14.824-3.683-23.062-2.8
			c-12.485,1.34-22.54,6.951-29.883,16.678c-5.89,7.802-8.989,17.303-9.209,28.238c-0.005,0.259,0.004,0.519,0.028,0.777
			c0.065,0.698,0.116,1.396,0.168,2.096c0.128,1.733,0.26,3.524,0.567,5.412c2.654,16.321,12.22,27.862,27.663,33.377
			c4.996,1.785,10.241,2.651,16.037,2.651h0.001c2.154,0,4.417-0.126,6.726-0.373c4.621-0.496,8.901-1.639,12.734-3.399
			c-0.419,1.954-0.709,3.955-0.869,6.001c-0.876,11.185,1.066,20.718,5.936,29.142c3.814,6.596,9.167,11.6,15.91,14.872
			c6.785,3.293,14.238,4.592,22.031,3.847c4.178-0.398,7.978-1.475,11.332-3.209c1.538,1.601,3.813,2.473,6.679,2.473l16.807,0.004
			c0.744,0,1.488-0.001,2.226-0.007c4.71-0.03,8.06-3.215,8.336-7.928c0.021-0.348,0.023-0.697,0.021-1.047l-0.001-44.341
			c0.289,0.056,0.587,0.101,0.892,0.134l0.002,2.215c0.003,6.291,0.007,12.582,0.035,18.873c0.018,3.935,0.24,9.135,1.815,14.472
			c2.183,7.399,6.43,12.736,12.62,15.864c3.621,1.83,7.625,2.92,12.6,3.431c1.24,0.128,2.496,0.193,3.733,0.193h0.001
			c6.275,0,12.345-1.584,18.553-4.843c3.628-1.904,5.446-5.612,4.743-9.682c-0.229-1.32-0.423-2.644-0.618-3.97
			c-0.109-0.739-0.217-1.477-0.331-2.213l-0.104-0.673c-0.303-1.971-0.607-3.942-0.933-5.907c-0.12-0.723-0.29-1.389-0.504-1.998
			c4.292,5.685,10.106,10.096,17.293,13.055c8.297,3.416,17.471,4.372,27.352,2.843c9.433-1.462,17.295-5.706,23.49-12.658v15.082
			l-0.001,0.159c-0.001,0.245-0.001,0.49,0.006,0.742c0.158,5.131,3.326,8.197,8.479,8.2l11.127,0.005
			c2.855,0,5.71-0.002,8.608-0.009c0.263,0,0.495,0.005,0.7,0.009c0.239,0.004,0.454,0.008,0.646,0.008
			c4.595,0,6.592-2.682,7.373-4.281c0.869-1.777,0.868-3.388,0.867-5.095l0.005-16.213c0.001-8.547,0.002-17.095,0.013-25.641
			c0.877-1.326,1.777-1.601,3.028-1.601l0.143,0.002c1.398,0.029,1.588,0.296,1.69,0.439c0.201,0.282,0.47,0.859,0.47,2.6
			l0.002,41.216c0,5.357,3.188,8.557,8.529,8.56l7.612,0.002l10.393-0.001l1.679,0.003c0.38,0,0.761-0.001,1.141-0.005
			c4.916-0.047,8.204-3.264,8.378-8.194c0.008-0.239,0.009-0.479,0.008-0.717l0-8.641c1.835,3.062,4.054,5.816,6.65,8.244
			c2.95,2.97,6.257,5.379,9.895,7.217c-2.77,1.193-5.542,2.384-8.314,3.574l-4.777,2.05c-0.462,0.193-1.036,0.431-1.656,0.749
			c-4.554,2.334-6.215,7.297-3.947,11.803c6.781,13.463,17.118,21.358,30.723,23.467c3.055,0.474,6.073,0.713,8.969,0.713
			c6.467,0,12.652-1.196,18.384-3.555c13.267-5.462,21.853-15.874,24.83-30.108c0.5-2.39,0.733-4.687,0.958-6.906
			c0.091-0.903,0.182-1.806,0.293-2.704c0.022-0.181,0.037-0.378,0.044-0.576c0.006-0.114,0.008-0.229,0.008-0.345V97.853
			c0.024-0.253,0.033-0.506,0.029-0.761c0.014-0.18,0.021-0.362,0.021-0.545C471.06,96.368,471.053,96.19,471.039,96.015z
			 M149.76,96.737c0.011,2.396-0.694,6.579-5.542,7.671c-0.572,0.129-1.156,0.195-1.734,0.195c-3.449,0-7.051-2.394-7.263-6.968
			c-0.164-3.543,0.829-5.246,1.591-6.217c0.966-1.233,2.401-2.494,5.726-2.494l0.185,0.002
			C149.041,89.014,149.748,94.418,149.76,96.737z M231.652,105.637c-0.59,0-1.2,0.048-1.868,0.149
			c-0.999,0.15-2.033,0.306-2.816,0.306l-0.11-0.001c-0.338-0.007-0.54-0.044-0.644-0.071c-0.033-0.118-0.104-0.463-0.105-1.269
			c0-6.287,0-12.575,0.001-18.854c1.311,0.019,2.623,0.035,3.935,0.048l0.21,0.001c0.343,0,0.678-0.013,1.004-0.037
			c0.058,0.539,0.113,1.078,0.168,1.618c0.225,2.22,0.457,4.516,0.956,6.904c1.021,4.879,2.7,9.307,5,13.243
			C235.697,106.23,233.59,105.637,231.652,105.637z M289.603,83.501c-3.08,0-5.787,1.716-7.24,4.591
			c-0.897,1.777-2.217,2.691-4.413,3.059c-0.763,0.128-1.49,0.193-2.161,0.193c-2.539,0-4.28-0.872-5.822-2.916
			c-0.81-1.073-1.822-2.932-1.265-6.671c0.42-2.815,1.549-3.963,2.486-4.647c1.376-1.006,2.803-1.474,4.49-1.474
			c0.852,0,1.783,0.123,2.765,0.366c2.698,0.667,3.538,1.745,4.004,2.712c1.375,2.851,4.014,4.552,7.062,4.552
			c1.139,0,2.259-0.241,3.427-0.737c3.587-1.528,7.179-3.043,10.771-4.559l4.349-1.836v14.531l-3.135-1.347
			c-3.859-1.658-7.718-3.317-11.57-4.978C292.517,83.979,291.222,83.501,289.603,83.501z M426.52,141.33l0.179-0.001l0.24,0.001
			c1.098,0,2.21-0.034,3.329-0.101c-1.572,1.168-3.502,1.436-6.129,0.997c-1.201-0.201-2.14-0.566-2.891-1.146
			C423.027,141.247,424.79,141.33,426.52,141.33z"/>
		<path opacity="0.1" fill="#010101" d="M77.643,130.716c-6.644,0-12.702,0.325-17.299,0.859v5.056
			c4.596,0.534,10.655,0.859,17.299,0.859c14.361,0,26.002-1.517,26.002-3.387C103.645,132.233,92.003,130.716,77.643,130.716z"/>
		<g>
			<path fill="#BA394A" d="M338.929,71.587c0.884-1.482,1.588-2.884,2.494-4.14c3.596-4.985,8.551-7.717,14.604-8.452
				c4.296-0.522,8.566-0.358,12.754,0.879c6.375,1.883,10.215,6.211,12.037,12.479c0.866,2.979,1.199,6.031,1.199,9.126
				c0,16.133,0,32.265,0,48.398c0,0.197,0.003,0.394-0.004,0.59c-0.044,1.258-0.275,1.492-1.513,1.504
				c-0.918,0.009-1.836,0.002-2.754,0.002c-6.001,0-12.001,0.002-18.002-0.001c-1.523-0.001-1.599-0.08-1.599-1.626
				c-0.001-13.739,0-27.478-0.002-41.217c0-2.362-0.34-4.636-1.759-6.626c-1.766-2.475-4.31-3.284-7.189-3.345
				c-4.57-0.096-7.799,2.054-9.878,6.03c-0.257,0.492-0.372,1.115-0.373,1.677c-0.02,14.132-0.011,28.265-0.019,42.397
				c-0.002,3.124,0.089,2.7-2.71,2.706c-6.558,0.014-13.116,0.006-19.674,0.004c-1.422,0-1.507-0.086-1.55-1.479
				c-0.007-0.229-0.002-0.459-0.002-0.689c0-31.151,0-62.301,0-93.452c0-1.866,0.001-1.868,1.889-1.869
				c6.624-0.001,13.247-0.001,19.871,0.002c0.359,0,0.718,0.051,1.077,0.055c0.703,0.007,1.002,0.425,1.044,1.055
				c0.046,0.686,0.056,1.376,0.056,2.064c0.003,10.919,0.002,21.838,0.002,32.757C338.929,70.76,338.929,71.102,338.929,71.587z"/>
		</g>
		<path fill="#BA394A" d="M42.016,45.376c0.179-8.867,2.424-17.064,7.811-24.199c6.285-8.325,14.779-12.855,25.089-13.961
			c6.766-0.726,13.423-0.109,19.814,2.37c8.156,3.163,14.022,8.768,17.537,16.789c1.316,3.002,1.282,3.024-1.718,4.293
			c-5.455,2.307-10.918,4.598-16.368,6.916c-0.65,0.276-1.17,0.408-1.549-0.364c-1.967-4.002-5.45-5.924-9.611-6.695
			c-4.995-0.925-9.6-0.021-13.382,3.631c-2.201,2.125-3.361,4.813-3.84,7.794c-0.684,4.26-0.196,8.347,2.395,11.912
			c3.695,5.082,8.878,6.591,14.853,5.582c4.151-0.701,7.419-2.864,9.39-6.711c0.431-0.842,0.992-1.026,1.839-0.66
			c5.919,2.557,11.849,5.088,17.761,7.66c1.223,0.532,1.527,1.404,0.951,2.556c-3.674,7.349-8.819,13.29-16.334,16.933
			c-3.515,1.704-7.258,2.646-11.12,3.061C78.845,83,72.222,82.648,65.841,80.369C52.613,75.645,44.939,66.238,42.69,52.41
			C42.313,50.09,42.233,47.722,42.016,45.376z"/>
		<g>
			<path fill="#BA394A" d="M195.236,78.851c-2.03,0-3.897,0.006-5.765-0.002c-1.316-0.006-1.574-0.243-1.577-1.538
				c-0.01-4.918-0.011-9.836,0-14.754c0.003-1.474,0.254-1.702,1.719-1.708c1.738-0.006,3.475-0.01,5.213-0.02
				c0.094-0.001,0.187-0.049,0.475-0.128c0-0.956-0.02-1.963,0.003-2.969c0.114-5.011,0.237-10.022,0.361-15.033
				c0.03-1.219,0.245-1.453,1.439-1.454c6.459-0.008,12.918-0.016,19.378,0.004c2.088,0.007,2.978,0.935,2.95,3.044
				c-0.068,5.012-0.168,10.024-0.253,15.036c-0.008,0.453-0.001,0.907-0.001,1.519c0.466,0,0.844,0,1.222,0
				c3.377,0,6.754-0.005,10.131,0.002c1.787,0.004,1.956,0.181,1.956,1.962c0,4.623,0.005,9.246-0.002,13.869
				c-0.003,1.979-0.374,2.35-2.372,2.33c-3.375-0.033-6.75-0.091-10.125-0.138c-0.224-0.003-0.449,0-0.758,0
				c-0.02,0.398-0.053,0.745-0.053,1.092c-0.003,8.262-0.003,16.525-0.002,24.787c0,1.759,0.215,3.481,1.182,4.999
				c1.475,2.316,3.744,3.219,6.36,3.272c1.364,0.028,2.743-0.177,4.1-0.381c1.771-0.267,2.468,0.171,2.767,1.972
				c0.359,2.164,0.689,4.333,1.024,6.501c0.324,2.104,0.606,4.214,0.969,6.311c0.191,1.101-0.183,1.86-1.132,2.359
				c-5.752,3.019-11.806,4.566-18.356,3.893c-3.551-0.365-6.977-1.103-10.181-2.722c-4.857-2.454-7.597-6.551-9.098-11.638
				c-1.21-4.099-1.512-8.306-1.531-12.541c-0.04-8.918-0.031-17.836-0.042-26.754C195.236,79.672,195.236,79.319,195.236,78.851z"/>
		</g>
		<g>
			<path fill="#BA394A" d="M156.739,70.55c0-2.387,0-4.773,0-7.16c0-2.542,0-2.542,2.548-2.542c6.492,0,12.985-0.001,19.477,0.001
				c1.589,0,1.717,0.133,1.717,1.75c0,22.395,0,44.791,0,67.186c0,0.262,0.007,0.525-0.009,0.787
				c-0.062,1.073-0.381,1.39-1.458,1.398c-1.738,0.012-3.476,0.003-5.214,0.003c-4.591,0-9.181,0.001-13.772,0
				c-1.738-0.001-2.008-0.266-2.009-1.968c-0.002-2.539,0-5.077-0.087-7.648c-1.224,3.07-3.437,5.231-6.124,6.965
				c-3.182,2.053-6.731,3.063-10.451,3.418c-6.391,0.611-12.543-0.368-18.345-3.183c-5.553-2.695-9.849-6.768-12.934-12.105
				c-4.512-7.805-5.719-16.284-5.026-25.13c0.545-6.958,2.848-13.308,6.957-18.934c5.233-7.167,12.188-11.661,21.041-13.045
				c5.178-0.81,10.193-0.39,14.939,1.989C151.686,64.183,154.637,66.828,156.739,70.55z M156.694,96.703
				c-0.041-8.659-5.619-14.597-13.875-14.712c-4.606-0.065-8.569,1.449-11.468,5.151c-2.477,3.163-3.24,6.868-3.058,10.813
				c0.439,9.481,9.062,15.108,17.448,13.219C152.573,109.634,156.729,104.045,156.694,96.703z"/>
			<circle fill="#9C2F3C" cx="142.081" cy="98.061" r="16.604"/>
			<circle fill="#FFFFFF" cx="142.372" cy="96.487" r="15.03"/>
			<circle fill="#BA394A" cx="142.372" cy="88.856" r="3.815"/>
		</g>
		<g>
			<path fill="#D96878" d="M49.164,36.926c-0.235,0-0.474-0.034-0.711-0.106c-1.293-0.392-2.024-1.758-1.632-3.051
				c1.186-3.913,3.019-7.529,5.45-10.748c5.691-7.538,13.205-11.713,22.972-12.761c1.655-0.178,3.295-0.267,4.874-0.267
				c1.352,0,2.447,1.096,2.447,2.447s-1.096,2.447-2.447,2.447c-1.406,0-2.87,0.081-4.352,0.24
				c-8.348,0.896-14.755,4.443-19.587,10.843c-2.111,2.797-3.639,5.812-4.672,9.218C51.185,36.245,50.214,36.926,49.164,36.926z"/>
		</g>
		<g>
			<path fill="#BA394A" d="M238.015,83.969c0.285-9.452,2.8-18.083,8.845-25.46c5.867-7.16,13.515-11.275,22.64-12.569
				c7.284-1.033,14.463-0.474,21.368,2.201c8.154,3.159,14.008,8.787,17.51,16.814c1.277,2.927,1.225,2.997-1.703,4.236
				c-5.485,2.32-10.977,4.625-16.456,6.958c-0.684,0.291-1.166,0.298-1.525-0.447c-1.747-3.625-4.869-5.513-8.586-6.432
				c-4.62-1.141-9.06-0.647-13.011,2.241c-3.114,2.276-4.697,5.496-5.252,9.224c-0.635,4.262-0.072,8.344,2.588,11.869
				c3.705,4.91,8.814,6.366,14.665,5.385c4.186-0.702,7.488-2.875,9.456-6.77c0.516-1.021,1.215-0.874,2.046-0.515
				c5.319,2.295,10.642,4.579,15.964,6.867c0.541,0.233,1.094,0.443,1.617,0.711c1.126,0.577,1.471,1.412,0.916,2.513
				c-5.372,10.666-13.455,17.853-25.592,19.734c-8.083,1.253-16.026,0.737-23.65-2.402c-11.348-4.672-18.183-13.164-20.683-25.115
				C238.551,90.046,238.388,86.986,238.015,83.969z"/>
			<g>
				<path fill="#D96878" d="M245.389,75.461c-0.235,0-0.474-0.034-0.711-0.106c-1.293-0.392-2.024-1.758-1.632-3.051
					c1.185-3.911,3.019-7.527,5.45-10.747c5.692-7.539,13.206-11.714,22.972-12.762c1.655-0.178,3.295-0.267,4.874-0.267
					c1.352,0,2.447,1.096,2.447,2.447s-1.096,2.447-2.447,2.447c-1.406,0-2.87,0.081-4.352,0.24
					c-8.348,0.896-14.754,4.443-19.587,10.844c-2.112,2.798-3.64,5.813-4.672,9.217C247.41,74.78,246.439,75.461,245.389,75.461z"/>
			</g>
		</g>
		<g>
			<path fill="#BA394A" d="M463.934,96.559v-0.011h0.03c0-24.476,0-28.5-0.001-32.523c0-0.688-0.01-1.378-0.056-2.064
				c-0.042-0.63-0.341-1.048-1.044-1.055c-0.359-0.004-0.718-0.055-1.078-0.055c-6.624-0.004-13.247-0.003-19.871-0.002
				c-1.888,0-1.889,0.002-1.889,1.869c0,4.409,0,8.82,0,32.989c0,0.279,0,0.558,0,0.842v0.056c-0.004,3.054-0.789,5.957-2.746,8.55
				c-2.824,3.744-6.489,5.419-10.68,5.517c-4.191-0.098-7.856-1.774-10.68-5.517c-1.997-2.647-2.776-5.618-2.747-8.743h-0.023
				c0-24.353,0-28.37-0.001-32.387c0-0.688-0.01-1.378-0.056-2.064c-0.042-0.63-0.34-1.048-1.044-1.055
				c-0.359-0.004-0.718-0.055-1.077-0.055c-6.624-0.004-13.247-0.003-19.871-0.002c-1.888,0-1.889,0.002-1.889,1.869
				c0,4.46,0,8.919,0,33.831h0.031c-0.012,0.22-0.024,0.441-0.031,0.663c0.373,3.017,0.536,6.077,1.156,9.042
				c1.573,7.523,4.866,13.674,9.92,18.366c4.723,4.792,10.678,7.988,18.186,9.152c2.723,0.422,5.429,0.637,8.113,0.625
				c2.684,0.012,5.391-0.203,8.114-0.625c1.87-0.29,3.643-0.706,5.325-1.241v2.446h0.007c-0.002,3.109-0.697,6.063-2.689,8.705
				c-3.705,4.91-8.641,6.366-14.493,5.385c-4.186-0.702-7.487-2.875-9.456-6.77c-0.516-1.021-1.215-0.874-2.046-0.515
				c-5.318,2.295-10.642,4.579-15.964,6.867c-0.541,0.233-1.094,0.443-1.617,0.711c-1.126,0.577-1.471,1.412-0.916,2.513
				c5.372,10.666,13.455,17.853,25.592,19.734c8.083,1.253,16.026,0.737,23.65-2.402c11.348-4.672,18.183-13.164,20.683-25.115
				c0.62-2.965,0.783-6.026,1.156-9.042c-0.001-0.023-0.002-0.046-0.003-0.069h0.003V97.469c0.01-0.086,0.019-0.173,0.03-0.259
				C463.958,96.992,463.946,96.775,463.934,96.559z"/>
			<g>
				<path fill="#D96878" d="M426.601,118.628c-0.019,0-0.037,0-0.056,0l-0.129-0.003c-6.858-0.16-12.684-3.161-16.846-8.679
					c-1.683-2.23-2.895-4.72-3.602-7.402c-0.345-1.307,0.435-2.645,1.742-2.99c1.309-0.343,2.646,0.436,2.991,1.742
					c0.544,2.063,1.478,3.982,2.777,5.702c3.23,4.282,7.743,6.611,13.052,6.734l0.072,0.002l0.073-0.002
					c1.372-0.001,2.471,1.04,2.503,2.391c0.031,1.351-1.04,2.472-2.391,2.503l-0.129,0.003
					C426.638,118.628,426.619,118.628,426.601,118.628z"/>
			</g>
		</g>
		<ellipse opacity="0.1" fill="#010101" cx="276.342" cy="131.819" rx="29.513" ry="2.892"/>
	</g>
	<circle fill="#FFFFFF" cx="80.117" cy="45.511" r="13.026"/>
	<g>
		<path fill="#E1EAA0" d="M167.662,175.064c0,0.825-0.675,1.5-1.5,1.5h-47.158c-0.825,0-1.5-0.675-1.5-1.5v-3.242
			c0-0.825,0.675-1.5,1.5-1.5h47.158c0.825,0,1.5,0.675,1.5,1.5V175.064z"/>
	</g>
	<g>
		<path fill="#E1EAA0" d="M375.35,175.064c0,0.825-0.675,1.5-1.5,1.5h-47.158c-0.825,0-1.5-0.675-1.5-1.5v-3.242
			c0-0.825,0.675-1.5,1.5-1.5h47.158c0.825,0,1.5,0.675,1.5,1.5V175.064z"/>
	</g>
	<g id="lGGAQK.tif">
		<g>
			<path fill="#FFFFFF" d="M262.485,179.734c0-4.412,0-8.786,0-13.26c0.609,0,1.208,0,1.807,0c0.626,0,1.253,0.019,1.878-0.006
				c0.477-0.019,0.651,0.181,0.621,0.642c-0.024,0.368-0.005,0.738,0.065,1.146c0.925-1.539,2.3-2.174,3.996-2.146
				c1.691,0.028,3.096,0.586,3.776,2.469c0.534-1.253,1.354-1.928,2.461-2.242c1.623-0.46,3.921-0.266,4.926,1.18
				c0.508,0.73,0.719,1.555,0.73,2.398c0.043,3.11,0.021,6.221,0.032,9.332c0.001,0.391-0.154,0.535-0.544,0.529
				c-1.1-0.016-2.201-0.03-3.3,0.006c-0.521,0.017-0.649-0.199-0.647-0.668c0.012-2.295,0.022-4.591-0.009-6.885
				c-0.007-0.534-0.095-1.099-0.293-1.59c-0.263-0.653-1.119-0.867-2.034-0.628c-0.63,0.165-1.144,0.801-1.144,1.431
				c-0.002,2.466-0.001,4.932-0.001,7.398c0,0.281,0,0.563,0,0.932c-0.759,0-1.471,0-2.184,0c-0.55,0-1.102-0.03-1.65,0.009
				c-0.469,0.033-0.583-0.164-0.581-0.591c0.013-2.181,0.017-4.363-0.002-6.544c-0.005-0.544-0.057-1.098-0.174-1.628
				c-0.171-0.777-0.874-1.182-1.736-1.079c-0.995,0.118-1.593,0.668-1.596,1.506c-0.008,2.504-0.002,5.008-0.006,7.512
				c0,0.259-0.038,0.517-0.058,0.778C265.344,179.734,263.93,179.734,262.485,179.734z"/>
			<path fill="#FFFFFF" d="M227.62,179.74c0-6.05,0-12.04,0-18.089c1.446,0,2.872,0,4.391,0c0,2.2,0,4.384,0,6.603
				c0.563-0.538,1.013-1.074,1.563-1.472c1.384-1.003,4.476-0.926,5.623,0.558c0.653,0.844,0.883,1.808,0.9,2.798
				c0.054,3.034,0.019,6.07,0.03,9.105c0.001,0.39-0.14,0.54-0.534,0.534c-1.138-0.016-2.277-0.023-3.414,0.003
				c-0.472,0.011-0.57-0.189-0.568-0.612c0.014-2.428,0.013-4.856-0.001-7.284c-0.002-0.369-0.017-0.775-0.165-1.1
				c-0.355-0.78-1.127-1.022-2.188-0.777c-0.669,0.155-1.239,0.893-1.241,1.634c-0.005,2.428-0.001,4.856-0.004,7.284
				c0,0.262-0.028,0.523-0.045,0.814C230.51,179.74,229.096,179.74,227.62,179.74z"/>
			<path fill="#FFFFFF" d="M294.687,178.303c-0.639,0.437-1.204,0.955-1.869,1.25c-1.72,0.764-3.428,0.452-5.004-0.425
				c-1.662-0.926-2.529-2.447-2.9-4.299c-0.416-2.08-0.113-4.011,1.024-5.803c1.22-1.921,3.645-3.004,5.874-2.577
				c0.844,0.162,1.592,0.569,2.151,1.26c0.112,0.138,0.239,0.264,0.478,0.526c0-0.514,0.006-0.865-0.002-1.216
				c-0.008-0.372,0.137-0.552,0.538-0.547c1.119,0.015,2.239,0.011,3.359,0.001c0.417-0.004,0.554,0.176,0.553,0.588
				c-0.011,4.042-0.012,8.084,0,12.126c0.001,0.448-0.152,0.602-0.595,0.592c-1.005-0.023-2.012-0.03-3.017,0.003
				c-0.459,0.015-0.618-0.152-0.595-0.585C294.7,178.877,294.687,178.556,294.687,178.303z M289.114,173.204
				c-0.062,1.72,1.307,2.772,2.652,2.77c1.331-0.002,2.651-0.989,2.642-2.834c-0.008-1.727-1.291-2.732-2.619-2.721
				C290.288,170.43,289.106,171.418,289.114,173.204z"/>
			<path fill="#FFFFFF" d="M187.794,180.174c-4.221,0.046-7.07-3.048-7.003-7.194c0.064-3.967,3.064-6.898,7.081-6.88
				c4.085,0.018,6.962,2.996,6.951,7.095C194.811,177.404,191.697,180.303,187.794,180.174z M185.092,173.151
				c0.095,0.398,0.157,0.808,0.29,1.193c0.495,1.435,2.389,2.173,3.694,1.416c1.101-0.639,1.44-1.677,1.365-2.895
				c-0.047-0.771-0.314-1.444-0.92-1.931c-0.9-0.723-1.904-0.789-2.918-0.291C185.586,171.142,185.186,172.039,185.092,173.151z"/>
			<path fill="#FFFFFF" d="M197.122,179.772c0-1.148,0-2.189,0-3.231c0-3.112,0-6.224,0.001-9.335c0-0.729,0.003-0.73,0.752-0.73
				c0.987-0.001,1.974,0.012,2.96-0.004c0.439-0.007,0.629,0.178,0.62,0.606c-0.008,0.372-0.002,0.745,0.126,1.152
				c0.146-0.2,0.283-0.406,0.439-0.598c1.031-1.266,2.44-1.574,3.967-1.501c1.083,0.052,2.066,0.378,2.785,1.275
				c0.651,0.811,0.836,1.78,0.85,2.756c0.043,3.016,0.016,6.034,0.026,9.05c0.001,0.406-0.139,0.575-0.566,0.567
				c-1.081-0.022-2.164-0.033-3.244,0.004c-0.527,0.018-0.692-0.157-0.687-0.677c0.02-2.372,0.015-4.744,0.001-7.115
				c-0.002-0.391-0.011-0.814-0.154-1.167c-0.324-0.794-1.074-1.048-2.167-0.824c-0.681,0.14-1.274,0.871-1.276,1.599
				c-0.005,2.467-0.001,4.933-0.003,7.4c0,0.771-0.003,0.771-0.787,0.772C199.574,179.772,198.383,179.772,197.122,179.772z"/>
			<path fill="#FFFFFF" d="M246.5,174.21c-0.066,0.999,0.354,1.712,1.302,2.106c1.567,0.65,2.825,0.065,3.975-1.183
				c0.468,0.647,0.917,1.262,1.36,1.881c0.142,0.198,0.274,0.404,0.406,0.61c0.45,0.702,0.441,0.824-0.254,1.252
				c-1.782,1.099-3.687,1.545-5.781,1.127c-2.345-0.469-4.05-1.727-4.866-3.988c-0.96-2.661-0.785-5.232,1.016-7.533
				c0.851-1.087,1.988-1.809,3.354-2.039c0.94-0.158,1.92-0.271,2.863-0.19c2.18,0.188,4.053,1.608,4.786,3.887
				c0.379,1.177,0.313,2.39,0.187,3.6c-0.051,0.49-0.406,0.471-0.755,0.471c-2.314,0-4.628,0-6.942,0
				C246.946,174.21,246.741,174.21,246.5,174.21z M246.499,171.928c1.459,0,2.883,0,4.303,0c0.063-1.298-0.889-2.265-2.171-2.257
				C247.39,169.679,246.464,170.634,246.499,171.928z"/>
			<path fill="#FFFFFF" d="M216.803,169.776c0-1.008,0.003-1.953-0.001-2.899c-0.002-0.442,0.314-0.394,0.596-0.402
				c0.767-0.022,0.772-0.021,0.786-0.778c0.015-0.796,0.03-1.592,0.023-2.388c-0.003-0.33,0.088-0.478,0.451-0.472
				c1.118,0.019,2.237,0.012,3.356,0.004c0.432-0.003,0.621,0.196,0.614,0.62c-0.014,0.853-0.005,1.707-0.035,2.559
				c-0.012,0.354,0.115,0.471,0.458,0.458c0.511-0.019,1.024,0.003,1.535-0.006c0.359-0.006,0.523,0.171,0.524,0.515
				c0.002,0.777-0.004,1.555,0.002,2.332c0.003,0.387-0.178,0.542-0.559,0.525c-0.492-0.022-0.986-0.007-1.478-0.028
				c-0.324-0.014-0.487,0.075-0.483,0.441c0.015,1.517-0.009,3.034,0.017,4.55c0.015,0.916,0.598,1.415,1.558,1.412
				c1.068-0.003,1.068-0.003,1.227,1.037c0.08,0.523,0.183,1.044,0.221,1.57c0.013,0.179-0.087,0.47-0.223,0.54
				c-1.784,0.913-3.606,1.042-5.412,0.082c-1.303-0.692-1.67-1.965-1.737-3.291c-0.095-1.892-0.08-3.79-0.062-5.685
				c0.005-0.535-0.155-0.719-0.67-0.66C217.308,169.835,217.099,169.794,216.803,169.776z"/>
			<path fill="#FFFFFF" d="M301.236,161.592c0.729,0,1.444,0,2.159,0c0.569,0.001,1.138,0.015,1.706-0.001
				c0.394-0.011,0.53,0.156,0.526,0.541c-0.014,1.251-0.004,2.502-0.004,3.753c0,4.36,0.001,8.72,0,13.08
				c0,0.804-0.003,0.805-0.817,0.805c-1.174,0.001-2.347,0-3.569,0C301.236,173.718,301.236,167.704,301.236,161.592z"/>
			<path fill="#FFFFFF" d="M307.889,179.738c0-6.045,0-12.034,0-18.085c1.443,0,2.869,0,4.352,0c0,6.019,0,12.035,0,18.085
				C310.782,179.738,309.368,179.738,307.889,179.738z"/>
		</g>
	</g>
</g>
</svg>
