<svg xmlns="http://www.w3.org/2000/svg" width="819.326" height="1489.62" viewBox="0 0 819.326 1489.62"><path fill="#C9DE7E" d="M440.839 504.471c-.565 3.788-4.094 6.4-7.882 5.835-3.788-.565-6.4-4.094-5.835-7.882l4.498-30.145c.565-3.788 4.094-6.4 7.882-5.835 3.788.565 6.4 4.094 5.835 7.882l-4.498 30.145zM272.871 25.94c3.773-.656 7.364 1.87 8.02 5.644.656 3.773-1.87 7.364-5.644 8.02l-30.028 5.223c-3.773.656-7.364-1.87-8.02-5.644-.656-3.773 1.87-7.364 5.644-8.02l30.028-5.223zM204.29 542.947c3.773-.656 7.364 1.87 8.02 5.644.656 3.773-1.87 7.364-5.644 8.02l-30.028 5.223c-3.773.656-7.364-1.87-8.02-5.644-.656-3.773 1.87-7.364 5.644-8.02l30.028-5.223zM721.646 17.815c-.486-3.799 2.2-7.272 5.999-7.758 3.799-.486 7.272 2.2 7.758 5.999l3.867 30.232c.486 3.799-2.2 7.272-5.999 7.758-3.799.486-7.272-2.2-7.758-5.999l-3.867-30.232zM389.352 184.147c-.486-3.799 2.2-7.272 5.999-7.758 3.799-.486 7.272 2.2 7.758 5.999l3.867 30.232c.486 3.799-2.2 7.272-5.999 7.758-3.799.486-7.272-2.2-7.758-5.999l-3.867-30.232zM455.336 1413.333c-.486-3.799 2.2-7.272 5.999-7.758 3.799-.486 7.272 2.2 7.758 5.999l3.867 30.232c.486 3.799-2.2 7.272-5.999 7.758-3.799.486-7.272-2.2-7.758-5.999l-3.867-30.232zM207.839 192.471c-.565 3.788-4.094 6.4-7.882 5.835-3.788-.565-6.4-4.094-5.835-7.882l4.498-30.145c.565-3.788 4.094-6.4 7.882-5.835 3.788.565 6.4 4.094 5.835 7.882l-4.498 30.145zM685.071 451.621c-3.389 1.784-7.582.482-9.366-2.907-1.784-3.389-.482-7.582 2.907-9.366l26.971-14.195c3.389-1.784 7.582-.482 9.366 2.907 1.784 3.389.482 7.582-2.907 9.366l-26.971 14.195zM469.632 87.103c-3.389 1.784-7.582.482-9.366-2.907-1.784-3.389-.482-7.582 2.907-9.366l26.971-14.195c3.389-1.784 7.582-.482 9.366 2.907 1.784 3.389.482 7.582-2.907 9.366l-26.971 14.195zM258.302 410.805c-3.786-.579-6.385-4.118-5.806-7.903.579-3.786 4.118-6.385 7.903-5.806l30.128 4.609c3.786.579 6.385 4.118 5.806 7.903-.579 3.786-4.118 6.385-7.903 5.806l-30.128-4.609zM114.058 351.031c-1.722 3.421-5.891 4.798-9.312 3.076-3.421-1.722-4.798-5.891-3.076-9.312l13.704-27.224c1.722-3.421 5.891-4.798 9.312-3.076 3.421 1.722 4.798 5.891 3.076 9.312l-13.704 27.224zM688.846 304.769c-1.722 3.421-5.891 4.798-9.312 3.076-3.421-1.722-4.798-5.891-3.076-9.312l13.704-27.224c1.722-3.421 5.891-4.798 9.312-3.076 3.421 1.722 4.798 5.891 3.076 9.312l-13.704 27.224zM35.838 581.399c1.582 3.488.036 7.598-3.452 9.179-3.488 1.581-7.598.036-9.179-3.452l-12.586-27.758c-1.582-3.488-.036-7.598 3.452-9.179 3.488-1.582 7.598-.036 9.179 3.452l12.586 27.758zM105.838 106.399c1.582 3.488.036 7.598-3.452 9.179-3.488 1.582-7.598.036-9.179-3.452l-12.586-27.758c-1.582-3.488-.036-7.598 3.452-9.179 3.488-1.582 7.598-.036 9.179 3.452l12.586 27.758zM489.838 349.399c1.582 3.488.036 7.598-3.452 9.179-3.488 1.582-7.598.036-9.179-3.452l-12.586-27.758c-1.582-3.488-.036-7.598 3.452-9.179 3.488-1.582 7.598-.036 9.179 3.452l12.586 27.758zM644.838 150.399c1.582 3.488.036 7.598-3.452 9.179-3.488 1.582-7.598.036-9.179-3.452l-12.586-27.758c-1.582-3.488-.036-7.598 3.452-9.179 3.488-1.582 7.598-.036 9.179 3.452l12.586 27.758zM729.818 1174.427c-3.814-.352-6.62-3.729-6.268-7.542.352-3.814 3.729-6.62 7.542-6.268l30.35 2.8c3.814.352 6.62 3.729 6.268 7.542-.352 3.814-3.729 6.62-7.542 6.268l-30.35-2.8zM52.149 1310.504c-2.145 3.173-6.456 4.006-9.629 1.86-3.173-2.145-4.006-6.456-1.86-9.629l17.072-25.249c2.145-3.173 6.456-4.006 9.629-1.86 3.173 2.145 4.006 6.456 1.86 9.629l-17.072 25.249zM125.244 814.352c3.687 1.037 5.835 4.866 4.798 8.553-1.037 3.687-4.866 5.835-8.553 4.798l-29.34-8.253c-3.687-1.037-5.835-4.866-4.798-8.553 1.037-3.687 4.866-5.835 8.553-4.798l29.34 8.253zM648.914 1361.004c3.687 1.037 5.835 4.866 4.798 8.553-1.037 3.687-4.866 5.835-8.553 4.798l-29.34-8.253c-3.687-1.037-5.835-4.866-4.798-8.553 1.037-3.687 4.866-5.835 8.553-4.798l29.34 8.253zM792.675 1344.909c1.202-3.636 5.124-5.61 8.76-4.408s5.61 5.124 4.408 8.76l-9.564 28.939c-1.202 3.636-5.124 5.61-8.76 4.408s-5.61-5.124-4.408-8.76l9.564-28.939zM581.037 1024.135c-1.639-3.461-.161-7.596 3.301-9.235 3.462-1.639 7.596-.161 9.235 3.301l13.04 27.548c1.639 3.462.161 7.596-3.301 9.235-3.462 1.639-7.596.161-9.235-3.301l-13.04-27.548zM158.931 1005.593c3.717-.921 7.478 1.346 8.399 5.063.921 3.717-1.346 7.478-5.063 8.399l-29.584 7.331c-3.717.921-7.478-1.346-8.399-5.063-.921-3.717 1.346-7.478 5.063-8.399l29.584-7.331zM295.263 1368.279c-3.827.146-7.048-2.839-7.193-6.666-.146-3.827 2.839-7.048 6.666-7.193l30.456-1.16c3.827-.146 7.048 2.839 7.193 6.666.146 3.827-2.839 7.048-6.666 7.193l-30.456 1.16zM550.288 1191.748c-3.165-2.157-3.982-6.471-1.825-9.635 2.157-3.165 6.471-3.982 9.635-1.825l25.186 17.165c3.165 2.157 3.982 6.471 1.825 9.635-2.157 3.165-6.471 3.982-9.636 1.825l-25.185-17.165zM362.071 1237.448c-3.03 2.342-7.385 1.784-9.727-1.246-2.342-3.03-1.784-7.385 1.246-9.727l24.115-18.639c3.03-2.342 7.385-1.784 9.727 1.246 2.342 3.03 1.784 7.385-1.246 9.727l-24.115 18.639zM784.408 801.502c-3.03 2.342-7.385 1.784-9.727-1.246-2.342-3.03-1.784-7.385 1.246-9.727l24.115-18.639c3.03-2.342 7.385-1.784 9.727 1.246 2.342 3.03 1.784 7.385-1.246 9.727l-24.115 18.639zM88.152 1417.024c-3.165-2.157-3.982-6.471-1.825-9.635 2.157-3.165 6.471-3.982 9.636-1.825l25.186 17.165c3.165 2.157 3.982 6.471 1.825 9.635-2.157 3.165-6.471 3.982-9.636 1.825l-25.186-17.165zM163.297 1191.784c-.079 3.829-3.248 6.869-7.077 6.789-3.829-.079-6.869-3.248-6.789-7.077l.632-30.472c.079-3.829 3.248-6.869 7.077-6.789 3.829.079 6.869 3.248 6.789 7.077l-.632 30.472zM389.023 1079.207c-.079 3.829-3.248 6.869-7.077 6.789-3.829-.079-6.869-3.248-6.789-7.077l.632-30.472c.079-3.829 3.248-6.869 7.077-6.789 3.829.079 6.869 3.248 6.789 7.077l-.632 30.472zM373.95 603.194c-2.948-2.445-3.356-6.817-.911-9.764 2.445-2.948 6.817-3.356 9.764-.911l23.46 19.457c2.948 2.445 3.356 6.817.911 9.764-2.445 2.948-6.817 3.356-9.764.911l-23.46-19.457zM557.02 769.062c-3.823-.224-6.741-3.506-6.516-7.329.224-3.823 3.506-6.741 7.329-6.516l30.426 1.786c3.823.224 6.741 3.506 6.516 7.329-.224 3.823-3.506 6.741-7.329 6.516l-30.426-1.786zM464.308 935.073c-.396 3.809-3.805 6.576-7.615 6.18-3.809-.396-6.576-3.805-6.18-7.615l3.153-30.315c.396-3.809 3.805-6.576 7.615-6.18 3.809.396 6.576 3.805 6.18 7.615l-3.153 30.315zM693.847 932.84c3.553 1.43 5.274 5.469 3.844 9.022-1.43 3.553-5.469 5.274-9.022 3.844l-28.274-11.38c-3.553-1.43-5.274-5.469-3.844-9.022 1.43-3.553 5.469-5.274 9.022-3.844l28.274 11.38zM298.658 713.071c3.553 1.43 5.274 5.469 3.844 9.022-1.43 3.553-5.469 5.274-9.022 3.844l-28.274-11.38c-3.553-1.43-5.274-5.469-3.844-9.022 1.43-3.553 5.469-5.274 9.022-3.844l28.274 11.38zM650.728 589.865c2.459-2.936 6.833-3.323 9.769-.864s3.323 6.833.864 9.769l-19.569 23.366c-2.459 2.936-6.833 3.323-9.769.864s-3.323-6.833-.864-9.769l19.569-23.366zM241.328 874.162c-.742-3.757 1.703-7.404 5.461-8.146 3.757-.741 7.404 1.703 8.146 5.461l5.901 29.902c.741 3.757-1.703 7.404-5.461 8.146-3.757.742-7.404-1.703-8.146-5.461l-5.901-29.902z"/></svg>