<?xml version="1.0" encoding="utf-8"?>
<!-- Generator: Adobe Illustrator 15.0.0, SVG Export Plug-In . SVG Version: 6.00 Build 0)  -->
<!DOCTYPE svg PUBLIC "-//W3C//DTD SVG 1.1//EN" "http://www.w3.org/Graphics/SVG/1.1/DTD/svg11.dtd">
<svg version="1.1" id="Layer_1" xmlns="http://www.w3.org/2000/svg" xmlns:xlink="http://www.w3.org/1999/xlink" x="0px" y="0px"
	 width="115.406px" height="148.459px" viewBox="0 0 115.406 148.459" enable-background="new 0 0 115.406 148.459"
	 xml:space="preserve">
<rect x="3.918" fill="#BC3948" width="107.569" height="142.05"/>
<rect x="3.918" fill="#C94153" width="53.252" height="141.651"/>
<path fill="#A02E3C" d="M0,141.052c0.422,4.16,3.935,7.407,8.207,7.407h98.993c4.272,0,7.786-3.247,8.207-7.407H0z"/>
<path fill="#B43649" d="M57.17,141.052H0c0.421,4.16,3.935,7.407,8.207,7.407H57.17V141.052z"/>
<path fill="#A02E3C" d="M82.568,61.646c0,14.11-11.438,25.548-25.548,25.548c-14.11,0-25.549-11.438-25.549-25.548
	c0-14.11,11.438-25.549,25.549-25.549C71.13,36.097,82.568,47.535,82.568,61.646"/>
<path fill="#FFFFFF" d="M80.426,59.327c0,12.927-10.479,23.407-23.406,23.407c-12.927,0-23.406-10.48-23.406-23.407
	c0-12.927,10.479-23.407,23.406-23.407C69.947,35.92,80.426,46.4,80.426,59.327"/>
<path fill="#A02E3C" d="M62.887,71.39c0,3.24-2.627,5.867-5.867,5.867c-3.241,0-5.867-2.626-5.867-5.867
	c0-3.24,2.626-5.867,5.867-5.867C60.26,65.523,62.887,68.15,62.887,71.39"/>
<path fill="#FFFFFF" d="M55.247,69.388c0,0.863-0.699,1.562-1.562,1.562s-1.562-0.699-1.562-1.562s0.7-1.562,1.562-1.562
	S55.247,68.525,55.247,69.388"/>
<path fill="#A02E3C" d="M42.171,94.95c0.516,7.583,6.813,13.579,14.528,13.579c7.714,0,14.012-5.996,14.527-13.579H42.171z"/>
<path fill="#FFFFFF" d="M48.854,95.301c0.077,1.132,1.016,2.025,2.166,2.025c1.15,0,2.089-0.894,2.166-2.025H48.854z"/>
<path fill="#FFFFFF" d="M54.533,95.301c0.076,1.132,1.016,2.025,2.166,2.025c1.15,0,2.089-0.894,2.166-2.025H54.533z"/>
<path fill="#FFFFFF" d="M60.212,95.301c0.076,1.132,1.016,2.025,2.166,2.025s2.089-0.894,2.166-2.025H60.212z"/>
</svg>
