<?xml version="1.0" encoding="utf-8"?>
<!-- Generator: Adobe Illustrator 15.0.0, SVG Export Plug-In . SVG Version: 6.00 Build 0)  -->
<!DOCTYPE svg PUBLIC "-//W3C//DTD SVG 1.1//EN" "http://www.w3.org/Graphics/SVG/1.1/DTD/svg11.dtd">
<svg version="1.1" id="Layer_1" xmlns="http://www.w3.org/2000/svg" xmlns:xlink="http://www.w3.org/1999/xlink" x="0px" y="0px"
	 width="116.527px" height="116.527px" viewBox="0 0 116.527 116.527" enable-background="new 0 0 116.527 116.527"
	 xml:space="preserve">
<path fill="#AA81BA" d="M58.263,116.527c-10.245,0-20.324-2.7-29.15-7.808l12.642-21.841c4.988,2.889,10.696,4.414,16.508,4.414
	c14.631,0,27.329-9.389,31.596-23.364l24.135,7.368C106.463,99.958,84.068,116.527,58.263,116.527"/>
<path fill="#AA81BA" d="M15.653,98C5.56,87.18,0,73.068,0,58.262C0,37.53,11.157,18.196,29.117,7.805l12.638,21.841
	c-10.191,5.897-16.521,16.863-16.521,28.617c0,8.394,3.15,16.394,8.871,22.525L15.653,98z"/>
<path fill="#AA81BA" d="M116.527,58.263H91.292c0-18.212-14.816-33.029-33.029-33.029c-2.52,0-5.023,0.282-7.442,0.838L45.163,1.481
	C49.435,0.498,53.842,0,58.263,0C90.39,0,116.527,26.136,116.527,58.263"/>
<path fill="#553F8A" d="M34.124,80.731c-1.284-1.37-6.476,1.403-11.596,6.198c-5.12,4.794-8.23,9.792-6.946,11.163
	c1.285,1.372,6.476-1.403,11.596-6.197C32.298,87.101,35.408,82.102,34.124,80.731"/>
<path fill="#553F8A" d="M114.109,75.378c0.497-1.622-4.538-4.602-11.245-6.656c-6.706-2.054-12.546-2.402-13.043-0.78
	c-0.496,1.622,4.538,4.602,11.245,6.654C107.773,76.651,113.612,77,114.109,75.378"/>
<path fill="#553F8A" d="M50.914,26.167c1.717-0.405,1.803-6.268,0.191-13.095C49.492,6.246,46.793,1.04,45.076,1.446
	c-1.718,0.405-1.803,6.268-0.191,13.095C46.498,21.367,49.196,26.572,50.914,26.167"/>
<path fill="#A87EB8" d="M41.706,86.881c-1.543-0.887-5.604,3.285-9.07,9.318c-3.467,6.032-5.027,11.643-3.484,12.528
	c1.543,0.888,5.604-3.285,9.071-9.317C41.688,93.377,43.249,87.768,41.706,86.881"/>
<path fill="#A87EB8" d="M116.505,58.302c0.002-1.586-5.647-2.875-12.615-2.878c-6.969-0.003-12.618,1.28-12.618,2.867
	c-0.001,1.586,5.647,2.875,12.614,2.878C110.856,61.172,116.505,59.89,116.505,58.302"/>
<path fill="#A87EB8" d="M41.792,29.618c1.68-0.981,0.2-6.644-3.306-12.648c-3.507-6.004-7.712-10.076-9.392-9.095
	c-1.681,0.982-0.2,6.645,3.306,12.649C35.907,26.528,40.112,30.599,41.792,29.618"/>
</svg>
