<?xml version="1.0" encoding="utf-8"?>
<!-- Generator: Adobe Illustrator 15.0.2, SVG Export Plug-In . SVG Version: 6.00 Build 0)  -->
<!DOCTYPE svg PUBLIC "-//W3C//DTD SVG 1.1//EN" "http://www.w3.org/Graphics/SVG/1.1/DTD/svg11.dtd">
<svg version="1.1" xmlns="http://www.w3.org/2000/svg" xmlns:xlink="http://www.w3.org/1999/xlink" x="0px" y="0px" width="612px"
	 height="792px" viewBox="0 0 612 792" enable-background="new 0 0 612 792" xml:space="preserve">
<g id="Background">
</g>
<g id="Guides">
</g>
<g id="Foreground">
	<path fill-rule="evenodd" clip-rule="evenodd" d="M283.207,338.172c-10.583,12.407-10.022,31.079,1.706,42.808
		c11.74,11.74,30.423,12.303,42.83,1.689l-8.436-8.687c-5.973,5.973-14.904,7.106-22.092,3.596l47.102-47.102l-8.169-8.169
		l-47.37,47.304c-4.002-7.312-2.911-16.667,3.281-22.858L283.207,338.172z"/>
	<path fill-rule="evenodd" clip-rule="evenodd" d="M342.418,348.436c3.902,12.857,0.768,27.396-9.398,37.562
		c-14.689,14.691-38.508,14.691-53.199,0c-14.69-14.69-14.69-38.508,0-53.199c9.826-9.825,24.512-12.645,37.042-9.328l9.3-9.237
		c-18.096-7.998-40.016-4.582-54.846,10.248c-19.268,19.268-19.268,50.506,0,69.774c19.268,19.268,50.506,19.268,69.773,0
		c14.858-14.858,17.969-36.311,9.912-54.427L342.418,348.436z"/>
</g>
</svg>
