<?xml version="1.0" encoding="utf-8"?>
<!-- Generator: Adobe Illustrator 15.0.0, SVG Export Plug-In . SVG Version: 6.00 Build 0)  -->
<!DOCTYPE svg PUBLIC "-//W3C//DTD SVG 1.1//EN" "http://www.w3.org/Graphics/SVG/1.1/DTD/svg11.dtd">
<svg version="1.1" id="Layer_1" xmlns="http://www.w3.org/2000/svg" xmlns:xlink="http://www.w3.org/1999/xlink" x="0px" y="0px"
	 width="147.883px" height="103.744px" viewBox="0 0 147.883 103.744" enable-background="new 0 0 147.883 103.744"
	 xml:space="preserve">
<polygon fill="#92070A" points="147.883,54.881 133.49,7.584 89.615,20.783 87.347,13.244 17.388,34.292 0,47.907 16.798,103.744 
	135.558,68.017 "/>
<rect x="23.12" y="15.931" transform="matrix(0.9576 -0.2881 0.2881 0.9576 -9.3415 25.6971)" fill="#AC1116" width="119.031" height="57.311"/>
<polygon fill="#A60F13" points="33.899,89.173 17.388,34.291 131.373,0 "/>
<path fill="#92070A" d="M20.745,37.202c-0.279,0.084-0.437,0.379-0.353,0.657c0.083,0.278,0.377,0.437,0.657,0.353
	c0.279-0.083,0.437-0.377,0.354-0.656C21.318,37.276,21.023,37.119,20.745,37.202 M31.066,34.097
	c-0.279,0.085-0.437,0.379-0.354,0.657c0.084,0.279,0.378,0.438,0.657,0.354c0.279-0.083,0.438-0.378,0.354-0.656
	C31.639,34.172,31.344,34.014,31.066,34.097 M41.387,30.992c-0.279,0.084-0.437,0.378-0.353,0.657
	c0.083,0.279,0.378,0.438,0.657,0.354c0.279-0.085,0.437-0.379,0.353-0.657C41.959,31.066,41.665,30.908,41.387,30.992
	 M51.708,27.887c-0.279,0.085-0.437,0.379-0.353,0.658c0.084,0.277,0.378,0.436,0.657,0.353c0.279-0.084,0.438-0.378,0.354-0.657
	C52.281,27.962,51.986,27.804,51.708,27.887 M62.029,24.782c-0.279,0.084-0.437,0.378-0.354,0.656
	c0.084,0.279,0.378,0.438,0.657,0.354c0.279-0.083,0.437-0.377,0.353-0.656C62.602,24.856,62.308,24.698,62.029,24.782
	 M72.35,21.677c-0.279,0.084-0.438,0.379-0.354,0.657c0.084,0.279,0.378,0.438,0.657,0.354c0.279-0.085,0.437-0.379,0.353-0.657
	C72.923,21.752,72.629,21.593,72.35,21.677 M82.671,18.572c-0.279,0.084-0.438,0.378-0.354,0.657
	c0.084,0.278,0.377,0.437,0.656,0.353s0.438-0.378,0.354-0.657C83.244,18.646,82.95,18.488,82.671,18.572 M92.992,15.467
	c-0.278,0.084-0.437,0.378-0.354,0.656c0.084,0.279,0.379,0.438,0.657,0.354c0.279-0.083,0.437-0.377,0.354-0.656
	S93.271,15.383,92.992,15.467 M103.313,12.362c-0.278,0.083-0.437,0.378-0.353,0.656c0.083,0.279,0.377,0.438,0.656,0.354
	s0.438-0.379,0.354-0.656C103.886,12.437,103.592,12.278,103.313,12.362 M113.634,9.257c-0.279,0.084-0.438,0.378-0.354,0.657
	c0.084,0.278,0.378,0.437,0.656,0.353c0.279-0.084,0.438-0.378,0.354-0.657C114.208,9.331,113.914,9.173,113.634,9.257
	 M123.955,6.151c-0.278,0.085-0.437,0.379-0.353,0.657c0.083,0.278,0.378,0.437,0.657,0.354c0.278-0.084,0.437-0.378,0.354-0.657
	C124.529,6.226,124.234,6.067,123.955,6.151 M24.855,50.866c-0.279,0.085-0.437,0.379-0.354,0.658
	c0.084,0.278,0.378,0.437,0.658,0.353c0.279-0.084,0.437-0.378,0.353-0.656C25.428,50.941,25.134,50.783,24.855,50.866
	 M35.177,47.762c-0.279,0.084-0.438,0.379-0.354,0.657c0.085,0.279,0.379,0.438,0.658,0.354c0.279-0.084,0.437-0.378,0.353-0.657
	S35.456,47.679,35.177,47.762 M45.498,44.657c-0.279,0.084-0.437,0.378-0.354,0.657c0.084,0.278,0.378,0.437,0.657,0.353
	c0.279-0.084,0.438-0.378,0.353-0.657C46.071,44.731,45.776,44.573,45.498,44.657 M55.818,41.552
	c-0.279,0.084-0.437,0.378-0.353,0.657s0.378,0.438,0.657,0.353c0.279-0.083,0.437-0.377,0.353-0.656S56.098,41.468,55.818,41.552
	 M66.14,38.446c-0.279,0.084-0.437,0.379-0.354,0.657c0.084,0.279,0.378,0.438,0.658,0.354c0.279-0.084,0.437-0.378,0.353-0.657
	C66.712,38.521,66.418,38.363,66.14,38.446 M76.46,35.342c-0.279,0.084-0.438,0.378-0.354,0.657
	c0.085,0.278,0.379,0.438,0.658,0.353c0.278-0.083,0.437-0.378,0.353-0.656C77.034,35.416,76.74,35.258,76.46,35.342 M86.782,32.236
	c-0.279,0.085-0.438,0.379-0.354,0.658c0.085,0.278,0.378,0.437,0.657,0.353s0.438-0.378,0.354-0.657S87.06,32.152,86.782,32.236
	 M97.103,29.131c-0.279,0.085-0.438,0.379-0.354,0.657c0.084,0.279,0.379,0.438,0.657,0.354c0.279-0.084,0.438-0.378,0.353-0.656
	C97.675,29.206,97.381,29.048,97.103,29.131 M107.423,26.026c-0.279,0.084-0.438,0.378-0.354,0.657
	c0.085,0.278,0.379,0.438,0.658,0.353c0.279-0.083,0.438-0.377,0.353-0.656C107.998,26.101,107.703,25.943,107.423,26.026
	 M117.745,22.922c-0.278,0.084-0.437,0.378-0.353,0.657c0.084,0.278,0.378,0.437,0.657,0.353c0.278-0.084,0.437-0.378,0.353-0.657
	S118.024,22.837,117.745,22.922 M128.066,19.816c-0.279,0.084-0.438,0.379-0.354,0.657c0.084,0.279,0.379,0.438,0.658,0.353
	c0.278-0.084,0.437-0.378,0.352-0.656C128.639,19.891,128.345,19.732,128.066,19.816 M28.966,64.531
	c-0.279,0.084-0.437,0.379-0.353,0.657c0.084,0.279,0.378,0.438,0.657,0.354c0.279-0.084,0.438-0.378,0.354-0.657
	S29.245,64.447,28.966,64.531 M39.288,61.427c-0.279,0.084-0.437,0.378-0.353,0.657c0.083,0.278,0.378,0.437,0.657,0.353
	s0.437-0.378,0.354-0.657C39.861,61.501,39.566,61.343,39.288,61.427 M49.608,58.322c-0.279,0.083-0.437,0.377-0.353,0.656
	s0.378,0.437,0.657,0.354c0.279-0.084,0.437-0.378,0.353-0.657C50.182,58.396,49.888,58.237,49.608,58.322 M59.93,55.216
	c-0.279,0.085-0.437,0.379-0.353,0.658c0.083,0.278,0.378,0.437,0.657,0.353s0.437-0.378,0.353-0.657
	C60.503,55.29,60.208,55.133,59.93,55.216 M70.251,52.111c-0.279,0.084-0.438,0.378-0.354,0.657s0.378,0.437,0.657,0.353
	c0.279-0.083,0.438-0.377,0.354-0.656S70.53,52.027,70.251,52.111 M80.572,49.007c-0.279,0.084-0.438,0.378-0.354,0.656
	c0.084,0.279,0.378,0.438,0.657,0.354s0.437-0.378,0.353-0.657C81.145,49.08,80.851,48.923,80.572,49.007 M90.893,45.901
	c-0.279,0.084-0.437,0.378-0.354,0.657c0.084,0.279,0.378,0.437,0.657,0.354c0.279-0.084,0.437-0.379,0.354-0.657
	C91.466,45.976,91.171,45.817,90.893,45.901 M101.214,42.796c-0.279,0.085-0.438,0.379-0.354,0.657
	c0.084,0.279,0.377,0.438,0.656,0.353c0.279-0.083,0.438-0.377,0.354-0.656S101.494,42.713,101.214,42.796 M111.535,39.691
	c-0.279,0.084-0.437,0.378-0.354,0.657c0.084,0.278,0.379,0.437,0.657,0.353c0.279-0.084,0.438-0.378,0.354-0.656
	C112.108,39.766,111.814,39.607,111.535,39.691 M121.856,36.586c-0.279,0.084-0.437,0.379-0.353,0.657
	c0.083,0.279,0.377,0.438,0.656,0.354s0.438-0.379,0.354-0.657C122.429,36.66,122.135,36.503,121.856,36.586 M132.177,33.48
	c-0.279,0.085-0.438,0.379-0.354,0.658s0.378,0.437,0.657,0.352c0.278-0.083,0.437-0.377,0.353-0.656
	C132.75,33.556,132.457,33.397,132.177,33.48 M33.078,78.196c-0.279,0.084-0.438,0.378-0.354,0.657
	c0.084,0.279,0.379,0.438,0.658,0.353c0.279-0.084,0.437-0.378,0.353-0.657C33.65,78.271,33.356,78.112,33.078,78.196
	 M43.398,75.092c-0.279,0.083-0.437,0.378-0.354,0.656c0.084,0.279,0.378,0.437,0.658,0.354c0.279-0.084,0.437-0.378,0.353-0.657
	C43.972,75.165,43.677,75.007,43.398,75.092 M53.719,71.986c-0.279,0.083-0.437,0.378-0.353,0.656
	c0.084,0.279,0.378,0.438,0.657,0.354c0.279-0.084,0.437-0.379,0.353-0.657C54.292,72.061,53.999,71.902,53.719,71.986
	 M64.041,68.882c-0.279,0.083-0.437,0.377-0.354,0.656c0.084,0.279,0.378,0.438,0.657,0.354c0.279-0.085,0.438-0.379,0.353-0.657
	C64.614,68.955,64.32,68.797,64.041,68.882 M74.361,65.776c-0.279,0.084-0.437,0.378-0.353,0.657
	c0.084,0.278,0.378,0.437,0.657,0.353c0.279-0.084,0.437-0.378,0.353-0.657S74.641,65.692,74.361,65.776 M84.683,62.671
	c-0.279,0.084-0.438,0.378-0.354,0.657s0.378,0.437,0.657,0.354c0.278-0.084,0.437-0.379,0.353-0.657
	C85.255,62.745,84.961,62.587,84.683,62.671 M95.003,59.566c-0.279,0.083-0.438,0.377-0.354,0.656
	c0.085,0.279,0.379,0.438,0.658,0.354s0.438-0.378,0.353-0.657C95.577,59.641,95.283,59.482,95.003,59.566 M105.325,56.462
	c-0.278,0.083-0.438,0.377-0.354,0.656c0.085,0.279,0.379,0.437,0.657,0.353c0.279-0.084,0.438-0.378,0.354-0.657
	C105.898,56.535,105.603,56.377,105.325,56.462 M115.646,53.355c-0.279,0.084-0.438,0.379-0.354,0.657
	c0.084,0.279,0.379,0.438,0.658,0.354c0.278-0.084,0.437-0.378,0.352-0.657C116.218,53.43,115.925,53.271,115.646,53.355
	 M125.966,50.251c-0.278,0.084-0.437,0.378-0.354,0.657c0.085,0.278,0.379,0.437,0.658,0.353s0.438-0.378,0.353-0.657
	C126.541,50.325,126.246,50.167,125.966,50.251 M136.288,47.146c-0.278,0.083-0.437,0.377-0.353,0.656s0.378,0.438,0.656,0.354
	c0.279-0.084,0.438-0.378,0.354-0.657S136.567,47.062,136.288,47.146 M28.18,42.416c-0.279,0.084-0.437,0.378-0.353,0.657
	s0.378,0.437,0.657,0.353c0.279-0.084,0.438-0.378,0.354-0.656C28.753,42.49,28.459,42.332,28.18,42.416 M38.501,39.311
	c-0.279,0.084-0.437,0.379-0.353,0.657c0.083,0.279,0.378,0.438,0.657,0.354s0.437-0.378,0.354-0.657
	C39.074,39.385,38.78,39.228,38.501,39.311 M48.822,36.206c-0.279,0.084-0.437,0.378-0.353,0.657
	c0.083,0.278,0.377,0.437,0.657,0.353c0.279-0.084,0.437-0.378,0.354-0.657C49.395,36.28,49.101,36.122,48.822,36.206
	 M59.143,33.101c-0.279,0.084-0.437,0.378-0.353,0.657c0.084,0.279,0.378,0.438,0.657,0.354s0.437-0.379,0.354-0.657
	C59.716,33.175,59.422,33.017,59.143,33.101 M69.464,29.995c-0.279,0.085-0.437,0.379-0.353,0.658
	c0.083,0.279,0.378,0.437,0.657,0.353s0.437-0.378,0.353-0.657C70.037,30.07,69.743,29.912,69.464,29.995 M79.785,26.891
	c-0.277,0.084-0.436,0.378-0.352,0.657c0.084,0.278,0.377,0.437,0.656,0.353c0.279-0.083,0.438-0.377,0.354-0.656
	S80.064,26.807,79.785,26.891 M90.107,23.785c-0.279,0.085-0.438,0.379-0.354,0.657c0.084,0.279,0.378,0.438,0.657,0.354
	c0.278-0.084,0.437-0.378,0.353-0.657C90.679,23.86,90.385,23.702,90.107,23.785 M100.427,20.681
	c-0.278,0.084-0.437,0.378-0.353,0.657c0.083,0.279,0.378,0.438,0.657,0.353c0.279-0.084,0.437-0.378,0.354-0.656
	C101,20.755,100.707,20.597,100.427,20.681 M110.749,17.575c-0.278,0.084-0.437,0.379-0.353,0.657s0.377,0.437,0.656,0.353
	c0.279-0.083,0.438-0.377,0.354-0.656C111.322,17.65,111.027,17.492,110.749,17.575 M121.07,14.47
	c-0.279,0.085-0.437,0.379-0.354,0.658c0.084,0.278,0.379,0.437,0.657,0.353c0.279-0.083,0.437-0.377,0.354-0.656
	C121.642,14.545,121.349,14.387,121.07,14.47 M131.695,12.376c0.279-0.085,0.438-0.379,0.354-0.657
	c-0.084-0.279-0.379-0.438-0.658-0.354c-0.278,0.084-0.436,0.379-0.352,0.657C131.122,12.302,131.416,12.46,131.695,12.376
	 M32.292,56.081c-0.279,0.083-0.438,0.378-0.354,0.656c0.084,0.279,0.378,0.438,0.657,0.354c0.279-0.085,0.437-0.379,0.353-0.658
	C32.864,56.154,32.57,55.996,32.292,56.081 M42.612,52.976c-0.279,0.084-0.437,0.378-0.354,0.657
	c0.084,0.278,0.379,0.438,0.657,0.353c0.279-0.084,0.437-0.378,0.353-0.657C43.186,53.05,42.892,52.892,42.612,52.976 M52.934,49.87
	c-0.279,0.084-0.437,0.378-0.354,0.657s0.378,0.438,0.657,0.354c0.279-0.084,0.437-0.378,0.354-0.657
	C53.506,49.944,53.212,49.786,52.934,49.87 M63.254,46.766c-0.279,0.084-0.437,0.378-0.354,0.657
	c0.084,0.278,0.379,0.437,0.657,0.354c0.279-0.085,0.437-0.379,0.354-0.658C63.828,46.84,63.534,46.682,63.254,46.766 M73.576,43.66
	c-0.279,0.084-0.437,0.378-0.354,0.657c0.084,0.279,0.378,0.438,0.657,0.353c0.279-0.083,0.437-0.377,0.354-0.656
	S73.854,43.576,73.576,43.66 M83.896,40.556c-0.278,0.084-0.437,0.378-0.353,0.657c0.084,0.278,0.378,0.437,0.657,0.353
	c0.278-0.084,0.437-0.378,0.354-0.657C84.47,40.629,84.175,40.472,83.896,40.556 M94.217,37.45
	c-0.278,0.084-0.437,0.378-0.353,0.657s0.378,0.437,0.656,0.354c0.279-0.084,0.438-0.379,0.354-0.657
	C94.791,37.524,94.497,37.366,94.217,37.45 M104.539,34.346c-0.279,0.084-0.438,0.378-0.354,0.656
	c0.084,0.279,0.379,0.438,0.658,0.354c0.277-0.084,0.436-0.378,0.353-0.657C105.112,34.419,104.818,34.262,104.539,34.346
	 M114.859,31.24c-0.278,0.084-0.437,0.378-0.353,0.657c0.085,0.278,0.378,0.437,0.657,0.353c0.279-0.083,0.437-0.378,0.354-0.656
	C115.433,31.314,115.138,31.156,114.859,31.24 M125.181,28.135c-0.279,0.084-0.438,0.379-0.354,0.657
	c0.084,0.279,0.379,0.438,0.657,0.354s0.438-0.378,0.353-0.657C125.753,28.209,125.459,28.052,125.181,28.135 M135.501,25.03
	c-0.279,0.084-0.438,0.378-0.354,0.657c0.085,0.279,0.379,0.437,0.658,0.353c0.278-0.084,0.438-0.378,0.353-0.657
	C136.076,25.104,135.781,24.946,135.501,25.03 M36.402,69.746c-0.279,0.083-0.437,0.377-0.353,0.656
	c0.083,0.279,0.378,0.438,0.657,0.354c0.279-0.085,0.437-0.379,0.354-0.657C36.975,69.82,36.681,69.662,36.402,69.746
	 M46.723,66.641c-0.279,0.084-0.438,0.378-0.353,0.657c0.083,0.278,0.377,0.437,0.657,0.353c0.279-0.084,0.437-0.378,0.353-0.657
	C47.296,66.714,47.002,66.556,46.723,66.641 M57.044,63.535c-0.278,0.084-0.437,0.379-0.353,0.656
	c0.084,0.279,0.378,0.438,0.657,0.354c0.279-0.084,0.438-0.379,0.354-0.657C57.617,63.609,57.323,63.451,57.044,63.535
	 M67.365,60.431c-0.278,0.083-0.438,0.377-0.353,0.656c0.084,0.279,0.378,0.438,0.657,0.354s0.437-0.378,0.353-0.657
	C67.938,60.505,67.644,60.347,67.365,60.431 M77.686,57.325c-0.278,0.084-0.437,0.378-0.353,0.657
	c0.084,0.278,0.378,0.437,0.656,0.354c0.279-0.085,0.438-0.379,0.354-0.658S77.965,57.241,77.686,57.325 M88.007,54.22
	c-0.278,0.084-0.437,0.379-0.354,0.657c0.084,0.279,0.379,0.438,0.658,0.354c0.278-0.084,0.437-0.379,0.353-0.657
	C88.581,54.294,88.287,54.136,88.007,54.22 M98.329,51.115c-0.278,0.083-0.437,0.377-0.353,0.656
	c0.083,0.279,0.377,0.438,0.656,0.354s0.438-0.378,0.354-0.657C98.902,51.189,98.607,51.031,98.329,51.115 M108.65,48.011
	c-0.279,0.083-0.438,0.377-0.354,0.656s0.378,0.437,0.657,0.354c0.278-0.085,0.437-0.379,0.353-0.658
	C109.223,48.084,108.928,47.926,108.65,48.011 M118.971,44.904c-0.279,0.084-0.437,0.379-0.354,0.657
	c0.083,0.279,0.378,0.438,0.657,0.354c0.278-0.084,0.437-0.378,0.354-0.657C119.544,44.979,119.25,44.82,118.971,44.904
	 M129.292,41.8c-0.279,0.084-0.438,0.378-0.354,0.657s0.377,0.437,0.656,0.353s0.438-0.378,0.354-0.657
	C129.865,41.874,129.57,41.716,129.292,41.8 M139.613,38.695c-0.279,0.083-0.437,0.377-0.354,0.656
	c0.084,0.279,0.379,0.438,0.657,0.354c0.279-0.084,0.438-0.378,0.354-0.657S139.891,38.61,139.613,38.695 M40.513,83.41
	c-0.279,0.084-0.437,0.378-0.354,0.657c0.085,0.278,0.379,0.437,0.657,0.353c0.279-0.083,0.437-0.377,0.353-0.656
	C41.086,83.484,40.792,83.326,40.513,83.41 M50.834,80.305c-0.279,0.084-0.437,0.379-0.354,0.657
	c0.084,0.279,0.378,0.438,0.657,0.354c0.279-0.084,0.437-0.379,0.354-0.657C51.407,80.379,51.113,80.221,50.834,80.305 M61.156,77.2
	c-0.279,0.084-0.438,0.378-0.354,0.657c0.084,0.278,0.378,0.437,0.657,0.353s0.437-0.378,0.354-0.657
	C61.729,77.274,61.435,77.116,61.156,77.2 M71.477,74.095c-0.279,0.084-0.437,0.378-0.354,0.657
	c0.084,0.278,0.378,0.437,0.657,0.354c0.279-0.084,0.437-0.378,0.354-0.657S71.755,74.011,71.477,74.095 M81.797,70.99
	c-0.279,0.083-0.437,0.378-0.353,0.656c0.084,0.279,0.378,0.438,0.656,0.354c0.279-0.084,0.438-0.379,0.354-0.657
	S82.077,70.905,81.797,70.99 M92.119,67.885c-0.279,0.084-0.438,0.378-0.354,0.657s0.379,0.438,0.657,0.353
	c0.278-0.084,0.437-0.378,0.353-0.657C92.691,67.959,92.398,67.801,92.119,67.885 M102.439,64.78
	c-0.278,0.083-0.437,0.377-0.353,0.656c0.085,0.278,0.378,0.437,0.657,0.354c0.278-0.084,0.438-0.378,0.353-0.657
	C103.013,64.854,102.718,64.695,102.439,64.78 M112.761,61.675c-0.279,0.083-0.438,0.378-0.354,0.656
	c0.084,0.279,0.378,0.438,0.657,0.354c0.278-0.083,0.437-0.378,0.353-0.656C113.333,61.749,113.04,61.591,112.761,61.675
	 M123.082,58.57c-0.279,0.083-0.438,0.377-0.354,0.656c0.085,0.279,0.379,0.438,0.658,0.353c0.278-0.084,0.437-0.378,0.352-0.657
	C123.655,58.644,123.361,58.485,123.082,58.57 M133.403,55.465c-0.279,0.084-0.438,0.378-0.354,0.657
	c0.085,0.278,0.379,0.436,0.657,0.353c0.279-0.084,0.438-0.378,0.354-0.657S133.681,55.38,133.403,55.465 M143.724,52.359
	c-0.279,0.084-0.438,0.378-0.354,0.656c0.084,0.279,0.379,0.438,0.657,0.354c0.278-0.084,0.437-0.379,0.353-0.657
	C144.296,52.434,144.003,52.275,143.724,52.359"/>
<polygon fill="#B53625" points="73.777,60.525 78.414,68.831 78.294,71.546 74.871,70.969 70.477,66.104 74.769,71.982 
	78.566,72.64 78.688,75.698 80.992,75.005 79.829,69.415 77.097,64.503 78.534,62.492 77.852,59.837 77.925,62.292 76.792,63.74 
	74.949,60.438 76.287,50.442 "/>
<polygon fill="#92070A" points="76.414,63.733 74.571,60.433 76.287,50.442 73.398,60.519 78.035,68.824 78.151,71.738 74.8,71.158 
	70.477,66.104 74.39,71.976 78.187,72.633 78.37,77.196 81.365,78.619 79.705,69.905 79.488,69.295 76.832,64.48 78.156,62.485 
	77.852,59.837 77.546,62.285 "/>
</svg>
