<?xml version="1.0" encoding="utf-8"?>
<!-- Generator: Adobe Illustrator 17.0.0, SVG Export Plug-In . SVG Version: 6.00 Build 0)  -->
<!DOCTYPE svg PUBLIC "-//W3C//DTD SVG 1.1//EN" "http://www.w3.org/Graphics/SVG/1.1/DTD/svg11.dtd">
<svg version="1.1" id="Layer_1" xmlns="http://www.w3.org/2000/svg" xmlns:xlink="http://www.w3.org/1999/xlink" x="0px" y="0px"
	 width="160px" height="82.92px" viewBox="0 0 160 82.92" enable-background="new 0 0 160 82.92" xml:space="preserve">
<path fill="#E591BE" d="M122.938,45.618c-0.073,0.687-0.16,1.369-0.265,2.06c-0.416,2.701-1.085,5.307-1.973,7.788
	c-0.045,0.141-0.096,0.279-0.151,0.421c-6.661,18.053-25.068,29.558-44.534,26.556c-3.168-0.485-6.195-1.332-9.043-2.491
	c-6.859-2.788-12.696-7.376-17.045-13.117c-0.229-0.293-0.444-0.591-0.659-0.893c-4.565-6.364-7.207-14.064-7.728-22.237
	c-0.013-0.199-0.024-0.388-0.019-0.521c-0.019-0.376-0.023-0.751-0.028-1.127v-0.344c0-2.133,0.16-4.299,0.495-6.469
	c0.293-1.9,0.709-3.755,1.241-5.549c0.004-0.019,0.009-0.032,0.013-0.051c0.179-0.604,0.371-1.2,0.572-1.791l0.687-1.845
	C51.468,8.547,69.547-2.469,88.645,0.475c3.723,0.572,7.252,1.644,10.527,3.132c13.52,6.14,22.764,19.413,23.881,34.508
	c0.013,0.183,0.028,0.367,0.036,0.549l0.013,0.275C123.226,41.136,123.175,43.366,122.938,45.618z"/>
<path fill="#E591BE" d="M154.263,61.146c-14.072-1.979-13.208-2.885-8.881,3.736c9.067,13.873-4.748,7.207-7.883,3.697
	c-2.191-2.452-11.241-9.107-16.48-12.887h-0.001c-0.108-0.077-0.212-0.153-0.316-0.225c-0.163-0.119-0.32-0.233-0.473-0.343
	c-0.06-0.044-0.121-0.087-0.18-0.128c-0.093-0.067-0.181-0.131-0.271-0.193c-0.424-0.305-0.807-0.579-1.14-0.816
	c-0.455-0.324-0.812-0.579-1.056-0.752c-0.235-0.167-0.361-0.256-0.361-0.256l0.936-6.068l1-6.487
	c0.673-0.393,1.931-0.956,3.588-1.623c0.113-0.045,0.227-0.091,0.345-0.136c0.192-0.077,0.388-0.153,0.589-0.233
	c0.26-0.1,0.525-0.204,0.799-0.308c2.368-0.905,5.269-1.939,8.344-2.976c12.336-4.156,27.514-8.371,22.717-4.616
	c-3.228,2.524-6.063,4.44-7.657,5.807c-1.997,1.712-2.052,2.568,1.488,2.692c0.875,0.032,1.82,0.116,2.767,0.248
	c1.315,0.181,2.633,0.456,3.781,0.803c4.048,1.225,5.967,3.372-1.983,5.703c-7.129,2.088-11.708,3.268-13.352,4.052
	c-1.085,0.517-0.891,0.86,0.693,1.18C153.617,53.504,168.33,63.124,154.263,61.146z"/>
<path fill="#BE799F" d="M154.261,61.146c-14.071-1.979-13.207-2.887-8.88,3.735c9.067,13.873-4.749,7.207-7.883,3.699
	c-2.333-2.612-12.447-9.991-17.453-13.585c5.245-1.7,13.395-4.569,26.504-12.444c2.088-1.255,3.941-2.337,5.581-3.272
	c1.315,0.181,2.635,0.456,3.783,0.803c4.047,1.225,5.965,3.372-1.984,5.703c-7.127,2.089-11.707,3.268-13.351,4.052
	c-1.085,0.516-0.892,0.861,0.692,1.18C153.616,53.504,168.33,63.125,154.261,61.146z"/>
<path fill="#BE799F" d="M122.936,45.618c-0.073,0.685-0.161,1.371-0.267,2.06c-0.416,2.704-1.081,5.308-1.969,7.789
	c-0.049,0.14-0.1,0.28-0.152,0.419c-6.665,18.053-25.07,29.56-44.538,26.558c-3.168-0.488-6.195-1.333-9.043-2.493
	c-6.857-2.785-12.695-7.373-17.047-13.113c-0.225-0.295-0.443-0.592-0.659-0.893c15.507,3.308,50.525,5.048,68.89-19.032
	c1.677-2.2,3.217-4.615,4.588-7.263v-0.001c0.123-0.235,0.243-0.469,0.361-0.708C123.224,41.134,123.174,43.365,122.936,45.618z"/>
<path fill="#E591BE" d="M44.998,28.995l-1.937,12.559c0,0-0.376,0.119-1.035,0.329c-0.147,0.051-0.316,0.101-0.495,0.16
	c-0.013,0.004-0.028,0.009-0.041,0.013c-0.133,0.045-0.265,0.087-0.412,0.133c-0.151,0.051-0.312,0.101-0.481,0.156
	c-5.467,1.785-18.405,6.099-21.573,7.976c-4.043,2.399-19.225,4.597-6.401-5.901c6.117-5.013,6.671-3.887-7.344-6.236
	c-14.011-2.349,2.916-7.092,15.439-5.747c4.039,0.435-0.256-1.932-10.493-8.8c-10.237-6.872,0.239-6.772,6.383-5.068
	c6.14,1.703,1.896-2.353-3.32-9.963C8.603,1.776,34.673,20.089,42.932,27.091v0.004c0.041,0.032,0.077,0.064,0.115,0.096
	l0.673,0.581c0.032,0.028,0.064,0.055,0.092,0.083c0.124,0.105,0.239,0.211,0.344,0.312C44.508,28.491,44.792,28.765,44.998,28.995z
	"/>
<path fill="#E5E5E5" d="M123.692,39.213c-0.001,1.429-0.14,3.569-0.407,5.907c-0.269,2.339-0.665,4.869-1.189,7.076
	c-0.312,1.316-0.667,2.515-1.077,3.497h-0.001c-0.108-0.077-0.212-0.153-0.316-0.225c-0.049,0.14,1.104-6.517,1.337-8.101
	c0.432-2.929,1.039-8.884,1.049-8.7c0.192-0.077,0.388-0.153,0.589-0.233C123.687,38.661,123.692,38.924,123.692,39.213z"/>
<path fill="#E5E5E5" d="M41.49,42.057c-0.133,0.045-0.265,0.087-0.412,0.133c-0.151,0.051-0.312,0.101-0.481,0.156
	c-0.013-0.201-0.019-0.408-0.019-0.623v-0.307c0.013-2.353,0.399-5.293,0.907-8.049c0.44-2.413,0.975-4.671,1.447-6.272v-0.004
	l0.115,0.101l0.673,0.581c-0.045,0.165-0.092,0.335-0.137,0.508c-0.115,0.425-0.229,0.879-0.344,1.364
	c-0.004,0.019-0.009,0.032-0.013,0.051c-0.201,0.833-0.403,1.744-0.591,2.688c-0.604,3.031-1.095,6.456-1.108,9.037v0.004
	c0,0.211,0,0.421,0.004,0.619"/>
<path fill="#E9A8CC" d="M64.734,15.151c-4.612,0-8.381,3.709-8.441,8.335c-0.06,4.663,3.671,8.493,8.335,8.553
	c0.037,0,0.075,0,0.112,0c4.612,0,8.381-3.709,8.441-8.335c0.06-4.663-3.671-8.493-8.335-8.552
	C64.809,15.151,64.771,15.151,64.734,15.151"/>
</svg>
