<?xml version="1.0" encoding="utf-8"?>
<!-- Generator: Adobe Illustrator 15.0.0, SVG Export Plug-In . SVG Version: 6.00 Build 0)  -->
<!DOCTYPE svg PUBLIC "-//W3C//DTD SVG 1.1//EN" "http://www.w3.org/Graphics/SVG/1.1/DTD/svg11.dtd">
<svg version="1.1" id="Layer_1" xmlns="http://www.w3.org/2000/svg" xmlns:xlink="http://www.w3.org/1999/xlink" x="0px" y="0px"
	 width="104.605px" height="106.993px" viewBox="0 0 104.605 106.993" enable-background="new 0 0 104.605 106.993"
	 xml:space="preserve">
<path fill="#F5841F" d="M104.605,54.749c0,28.854-23.39,52.244-52.243,52.244S0.119,83.603,0.119,54.749
	c0-28.853,23.39-52.243,52.243-52.243S104.605,25.896,104.605,54.749"/>
<path fill="#FFE100" d="M104.485,52.243c0,28.854-23.39,52.244-52.241,52.244C23.39,104.487,0,81.097,0,52.243
	C0,23.392,23.39,0,52.244,0C81.096,0,104.485,23.392,104.485,52.243"/>
<path fill="#F9A51B" d="M38.464,104.732c0.186,0.051,0.373,0.101,0.561,0.149v-1.608c-0.188-0.048-0.375-0.1-0.561-0.15V104.732z
	 M49.423,106.521c0.186,0.01,0.373,0.018,0.561,0.028v-1.638c-0.188-0.008-0.375-0.015-0.561-0.024V106.521z M43.943,105.925
	c0.187,0.03,0.372,0.062,0.56,0.092v-1.626c-0.188-0.027-0.373-0.058-0.56-0.087V105.925z M27.506,100.322
	c0.187,0.101,0.372,0.196,0.561,0.296v-1.579c-0.188-0.098-0.374-0.195-0.561-0.295V100.322z M22.028,96.898
	c0.185,0.131,0.372,0.26,0.559,0.391V95.73c-0.187-0.129-0.374-0.256-0.559-0.389V96.898z M0.67,61.952v-0.863
	c-0.187-1.157-0.333-2.327-0.442-3.51C0.315,59.055,0.462,60.514,0.67,61.952 M11.069,86.363c0.184,0.237,0.371,0.472,0.56,0.706
	v-1.492c-0.188-0.232-0.377-0.465-0.56-0.7V86.363z M5.589,77.651c0.184,0.365,0.37,0.729,0.561,1.089v-1.414
	c-0.19-0.356-0.377-0.715-0.561-1.075V77.651z M16.548,92.393c0.186,0.174,0.371,0.349,0.561,0.521v-1.529
	c-0.189-0.172-0.375-0.348-0.561-0.521V92.393z M32.984,102.89c0.188,0.074,0.374,0.146,0.56,0.219v-1.596
	c-0.186-0.071-0.373-0.142-0.56-0.215V102.89z M54.902,106.541c0.187-0.009,0.372-0.021,0.56-0.031v-1.648
	c-0.188,0.011-0.373,0.025-0.56,0.034V106.541z M82.298,97.179c0.188-0.131,0.373-0.264,0.559-0.396v-1.729
	c-0.186,0.134-0.371,0.269-0.559,0.4V97.179z M87.775,92.765c0.188-0.173,0.375-0.345,0.56-0.52v-1.756
	c-0.184,0.176-0.372,0.351-0.56,0.523V92.765z M98.734,78.439c0.19-0.367,0.378-0.736,0.56-1.108v-1.882
	c-0.182,0.377-0.369,0.752-0.56,1.122V78.439z M104.472,50.675c0.008,0.393,0.014,0.785,0.014,1.181c0,0.143-0.004,0.286-0.005,0.43
	c0.001,0.145,0.005,0.289,0.005,0.434c0,1.812-0.092,3.602-0.271,5.364v2.688c0.257-2.103,0.391-4.24,0.391-6.41
	C104.605,53.122,104.557,51.894,104.472,50.675 M93.256,86.872c0.189-0.236,0.375-0.476,0.56-0.716v-1.799
	c-0.185,0.244-0.37,0.486-0.56,0.726V86.872z M76.818,100.534c0.187-0.1,0.373-0.197,0.56-0.3v-1.708
	c-0.187,0.103-0.373,0.202-0.56,0.304V100.534z M60.38,105.991c0.188-0.028,0.375-0.062,0.561-0.093v-1.66
	c-0.186,0.03-0.372,0.062-0.561,0.092V105.991z M65.859,104.84c0.187-0.05,0.374-0.1,0.56-0.151v-1.673
	c-0.186,0.052-0.373,0.101-0.56,0.149V104.84z M71.34,103.048c0.188-0.072,0.372-0.147,0.559-0.223v-1.69
	c-0.187,0.075-0.371,0.153-0.559,0.228V103.048z"/>
<path fill="#FEEA00" d="M51.813,0.012C23.159,0.244,0,23.535,0,52.243c0,28.709,23.159,52.001,51.813,52.232V0.012z"/>
<path fill="#FAA819" d="M91.839,52.243h-0.826c-0.001,10.709-4.338,20.396-11.355,27.415c-7.019,7.018-16.707,11.355-27.413,11.355
	c-10.71,0-20.397-4.338-27.416-11.355c-7.018-7.02-11.354-16.706-11.355-27.415c0.001-10.709,4.338-20.396,11.355-27.415
	c7.019-7.016,16.706-11.354,27.416-11.354c10.706,0,20.395,4.339,27.413,11.354c7.018,7.02,11.354,16.706,11.355,27.415H91.839
	h0.823c0-22.322-18.096-40.419-40.418-40.419c-22.325,0-40.421,18.097-40.421,40.419c0,22.324,18.096,40.42,40.421,40.42
	c22.322,0,40.418-18.096,40.418-40.42H91.839z"/>
<path fill="#BE6715" d="M49.828,70.345c-2.22-0.272-4.361-0.828-6.428-1.662c-1.955-0.794-3.979-1.217-5.613-2.425
	c-0.09-0.065,0.047-0.708-0.04-0.774l3.99-5.838c1.399,1.058,2.759,1.938,4.07,2.638c1.313,0.7,2.737,1.202,4.274,1.51v-8.142
	c-1.841-0.511-3.453-1.073-4.836-1.688c-1.384-0.614-2.525-1.349-3.43-2.202c-0.908-0.852-1.587-1.851-2.05-2.996
	c-0.462-1.142-0.691-2.464-0.691-3.965v-0.102c0-1.434,0.259-2.732,0.767-3.893c0.512-1.16,1.236-2.167,2.18-3.021
	c0.938-0.853,2.069-1.543,3.403-2.072c1.33-0.528,2.795-0.879,4.403-1.05v-2.972h5.325v3.074c1.841,0.271,3.537,0.725,5.092,1.355
	c1.554,0.633,3.028,1.442,4.429,2.433l-0.023,0.797l-3.405,5.192c-1.025-0.684-2.067-1.288-3.126-1.815
	c-1.059-0.529-2.132-0.932-3.224-1.205v7.729c3.891,1.06,6.716,2.441,8.473,4.148c1.76,1.706,2.637,3.993,2.637,6.859v0.103
	c0,1.433-0.266,2.731-0.793,3.892c-0.53,1.159-1.264,2.166-2.201,3.021c-0.942,0.852-2.075,1.551-3.404,2.098
	c-1.332,0.548-2.815,0.906-4.453,1.075v5.067h-5.325V70.345z M50.082,41.062c-1.229,0.171-2.123,0.538-2.687,1.101
	c-0.562,0.565-0.845,1.254-0.845,2.074v0.103c0,0.785,0.237,1.458,0.715,2.021c0.479,0.563,1.417,1.102,2.816,1.614V41.062z
	 M54.896,64.047c2.424-0.374,3.636-1.466,3.636-3.274v-0.104c0-0.886-0.257-1.612-0.769-2.175c-0.515-0.562-1.468-1.1-2.867-1.612
	V64.047z"/>
<path fill="#FAA819" d="M49.828,71.095c-2.22-0.273-4.361-0.827-6.428-1.663c-2.062-0.838-3.95-1.903-5.653-3.198l3.99-5.839
	c1.399,1.06,2.759,1.938,4.07,2.639c1.313,0.699,2.737,1.201,4.274,1.51v-8.142c-1.841-0.512-3.453-1.073-4.836-1.688
	c-1.384-0.613-2.525-1.348-3.43-2.201c-0.908-0.853-1.587-1.852-2.05-2.996c-0.462-1.143-0.691-2.466-0.691-3.967v-0.103
	c0-1.432,0.259-2.729,0.767-3.891c0.512-1.161,1.236-2.167,2.18-3.021c0.938-0.853,2.069-1.545,3.403-2.073
	c1.33-0.529,2.795-0.879,4.403-1.05v-2.971h5.325v3.073c1.841,0.271,3.537,0.725,5.092,1.355c1.554,0.633,3.028,1.444,4.429,2.434
	l-3.429,5.989c-1.025-0.684-2.067-1.288-3.126-1.816c-1.059-0.529-2.132-0.932-3.224-1.205v7.731
	c3.891,1.058,6.716,2.441,8.473,4.146c1.76,1.708,2.637,3.996,2.637,6.861v0.102c0,1.434-0.266,2.732-0.793,3.892
	c-0.53,1.161-1.264,2.166-2.201,3.021c-0.942,0.852-2.075,1.552-3.404,2.098c-1.332,0.548-2.815,0.906-4.453,1.075v5.068h-5.325
	V71.095z M50.082,41.812c-1.229,0.171-2.123,0.537-2.687,1.1c-0.562,0.565-0.845,1.255-0.845,2.075v0.103
	c0,0.784,0.237,1.458,0.715,2.02c0.479,0.565,1.417,1.103,2.816,1.616V41.812z M54.896,64.797c2.424-0.375,3.636-1.466,3.636-3.274
	v-0.104c0-0.885-0.257-1.612-0.769-2.175c-0.515-0.562-1.468-1.099-2.867-1.612V64.797z"/>
</svg>
