<?xml version="1.0" encoding="utf-8"?>
<!-- Generator: Adobe Illustrator 15.0.0, SVG Export Plug-In . SVG Version: 6.00 Build 0)  -->
<!DOCTYPE svg PUBLIC "-//W3C//DTD SVG 1.1//EN" "http://www.w3.org/Graphics/SVG/1.1/DTD/svg11.dtd">
<svg version="1.1" id="Layer_1" xmlns="http://www.w3.org/2000/svg" xmlns:xlink="http://www.w3.org/1999/xlink" x="0px" y="0px"
	 width="108.565px" height="108.565px" viewBox="0 0 108.565 108.565" enable-background="new 0 0 108.565 108.565"
	 xml:space="preserve">
<polygon fill="#A8DEEA" points="0.003,54.282 0.003,54.28 0,54.283 0.003,54.286 0.003,54.285 "/>
<polygon fill="#A8DEEA" points="54.282,108.565 108.565,54.283 54.28,54.282 54.28,108.563 "/>
<polygon fill="#C6EAF8" points="0.003,54.285 54.28,108.563 54.28,54.282 0.003,54.282 "/>
<polygon fill="#A8DEEA" points="54.282,0 54.28,0 54.28,0.002 "/>
<polygon fill="#C6EAF8" points="54.282,0 54.28,0.002 54.28,54.282 108.564,54.282 "/>
<polygon fill="#DAF1FD" points="0.003,54.28 0.003,54.282 54.28,54.282 54.28,0.002 "/>
<path fill="#FFFFFF" d="M41.459,29.492c2.548-0.149,4.491-0.882,4.491-0.882s-1.943-0.732-4.491-0.882
	c-0.148-2.547-0.882-4.492-0.882-4.492s-0.732,1.945-0.882,4.492c-2.548,0.149-4.492,0.882-4.492,0.882s1.944,0.732,4.492,0.882
	c0.149,2.548,0.882,4.49,0.882,4.49S41.311,32.04,41.459,29.492"/>
<path fill="#FFFFFF" d="M79.131,46.675c2.548-0.147,4.49-0.881,4.49-0.881s-1.942-0.733-4.49-0.882
	c-0.149-2.547-0.882-4.492-0.882-4.492s-0.732,1.945-0.881,4.492c-2.549,0.148-4.492,0.882-4.492,0.882s1.943,0.733,4.492,0.881
	c0.148,2.549,0.881,4.491,0.881,4.491S78.981,49.224,79.131,46.675"/>
<path fill="#FFFFFF" d="M42.103,73.232c3.891-0.226,6.858-1.346,6.858-1.346s-2.968-1.119-6.858-1.347
	c-0.228-3.891-1.348-6.859-1.348-6.859s-1.119,2.969-1.347,6.859c-3.891,0.228-6.858,1.347-6.858,1.347s2.968,1.12,6.858,1.346
	c0.228,3.893,1.347,6.859,1.347,6.859S41.875,77.125,42.103,73.232"/>
</svg>
