<?xml version="1.0" encoding="utf-8"?>
<!-- Generator: Adobe Illustrator 15.0.0, SVG Export Plug-In . SVG Version: 6.00 Build 0)  -->
<!DOCTYPE svg PUBLIC "-//W3C//DTD SVG 1.1//EN" "http://www.w3.org/Graphics/SVG/1.1/DTD/svg11.dtd">
<svg version="1.1" id="Layer_1" xmlns="http://www.w3.org/2000/svg" xmlns:xlink="http://www.w3.org/1999/xlink" x="0px" y="0px"
	 width="66.586px" height="183.719px" viewBox="0 0 66.586 183.719" enable-background="new 0 0 66.586 183.719"
	 xml:space="preserve">
<path d="M35.199,41.864l-0.04,2.322c0.118,0.002,0.235,0.002,0.353,0.002c5.36,0.002,10.264-2.141,13.841-5.625
	c3.581-3.479,5.864-8.33,6.003-13.718c0.004-0.174,0.007-0.348,0.007-0.521c0.001-5.333-2.121-10.212-5.573-13.784
	c-3.449-3.574-8.258-5.87-13.606-6.051l-2.341-0.08l-1.025,39.735l2.342,0.041L35.199,41.864l2.322,0.06l0.904-35.053l-2.322-0.06
	l-0.079,2.321c4.108,0.142,7.769,1.891,10.423,4.636c2.65,2.748,4.269,6.464,4.27,10.557c0,0.134-0.002,0.267-0.005,0.4
	c-0.108,4.141-1.849,7.83-4.599,10.509c-2.752,2.675-6.487,4.309-10.602,4.31c-0.09,0-0.182-0.001-0.271-0.003L35.199,41.864
	l2.322,0.06L35.199,41.864z"/>
<path fill="#ABADB0" d="M41.157,44.851l6.058,123.689l-13.679,15.179V44.871C33.535,44.871,40.494,44.853,41.157,44.851"/>
<path fill="#BCBEC0" d="M25.913,44.89L20.5,168.609l13.035,15.109V44.87C33.535,44.87,26.576,44.888,25.913,44.89"/>
<path opacity="0.49" fill="#939393" d="M25.721,49.28h15.653l-0.218-4.43c-0.663,0.002-7.622,0.02-7.622,0.02
	s-6.959,0.018-7.622,0.02L25.721,49.28z"/>
<rect y="39.52" width="66.586" height="7.271"/>
<rect x="28.712" y="4.151" transform="matrix(1 -0.0026 0.0026 1 -0.0613 0.0899)" width="10.749" height="38.32"/>
<polygon points="45.328,5.307 22.742,5.365 22.742,0 45.328,0 "/>
</svg>
