<?xml version="1.0" encoding="utf-8"?>
<!-- Generator: Adobe Illustrator 15.0.0, SVG Export Plug-In . SVG Version: 6.00 Build 0)  -->
<!DOCTYPE svg PUBLIC "-//W3C//DTD SVG 1.1//EN" "http://www.w3.org/Graphics/SVG/1.1/DTD/svg11.dtd">
<svg version="1.1" id="Layer_1" xmlns="http://www.w3.org/2000/svg" xmlns:xlink="http://www.w3.org/1999/xlink" x="0px" y="0px"
	 width="99.327px" height="219.391px" viewBox="0 0 99.327 219.391" enable-background="new 0 0 99.327 219.391"
	 xml:space="preserve">
<polygon points="91.742,0 49.664,35.346 7.587,0 11.599,61.44 49.664,56.147 87.73,61.44 "/>
<polygon fill="#FAA21B" points="67.211,59.625 7.586,67.916 7.586,0 "/>
<polygon fill="#FAA21B" points="32.118,59.625 91.743,67.916 91.743,0 "/>
<path fill="#FAA21B" d="M45.695,215.581c0,2.104-1.706,3.81-3.81,3.81c-2.104,0-3.81-1.706-3.81-3.81v-68.473
	c0-2.104,1.705-3.811,3.81-3.811c2.104,0,3.81,1.706,3.81,3.811V215.581z"/>
<path fill="#FAA21B" d="M59.89,215.581c0,2.104-1.706,3.81-3.81,3.81c-2.104,0-3.81-1.706-3.81-3.81v-68.473
	c0-2.104,1.705-3.811,3.81-3.811c2.104,0,3.81,1.706,3.81,3.811V215.581z"/>
<path fill="#FFDA00" d="M99.327,167.248V90.47c-0.133-27.316-22.316-49.419-49.663-49.419c-27.293,0-49.442,22.177-49.661,49.419
	l-0.002,76.778l0.012,0.106H0.001v5.091l4.445,4.725l6.393-6.394l6.393,6.394l6.393-6.394l6.393,6.394l6.393-6.394l6.393,6.394
	l6.392-6.394l6.393,6.394l6.393-6.394l6.393,6.394l6.392-6.394l6.393,6.394l6.393-6.394l6.393,6.394l5.387-5.271v-4.544h-0.011
	L99.327,167.248z"/>
<path opacity="0.05" d="M49.392,41.059C22.224,41.205,0.219,63.319,0.001,90.471L0,167.248l0.011,0.107H0v5.091l4.444,4.724
	l6.393-6.393l6.393,6.393l6.393-6.393l6.393,6.393l6.392-6.393l6.394,6.393l6.392-6.393l0.2,0.2V41.059z"/>
<path fill="#FAA21B" d="M49.664,112.159c-12.284,0-22.278-9.994-22.278-22.278c0-12.285,9.994-22.28,22.278-22.28
	c12.285,0,22.279,9.995,22.279,22.28C71.943,102.165,61.949,112.159,49.664,112.159"/>
<path fill="#FFFFFF" d="M70.388,88.095c0,11.445-9.277,20.725-20.724,20.725c-11.445,0-20.724-9.279-20.724-20.725
	c0-11.444,9.278-20.724,20.724-20.724C61.11,67.371,70.388,76.65,70.388,88.095"/>
<path fill="#FAA21B" d="M54.858,76.49c0,2.869-2.325,5.194-5.193,5.194c-2.869,0-5.195-2.325-5.195-5.194s2.326-5.194,5.195-5.194
	C52.533,71.296,54.858,73.621,54.858,76.49"/>
</svg>
