<?xml version="1.0" encoding="utf-8"?>
<!-- Generator: Adobe Illustrator 15.0.0, SVG Export Plug-In . SVG Version: 6.00 Build 0)  -->
<!DOCTYPE svg PUBLIC "-//W3C//DTD SVG 1.1//EN" "http://www.w3.org/Graphics/SVG/1.1/DTD/svg11.dtd">
<svg version="1.1" id="Layer_1" xmlns="http://www.w3.org/2000/svg" xmlns:xlink="http://www.w3.org/1999/xlink" x="0px" y="0px"
	 width="99.326px" height="219.391px" viewBox="0 0 99.326 219.391" enable-background="new 0 0 99.326 219.391"
	 xml:space="preserve">
<polygon fill="#FAA21B" points="50.432,0 50.432,57.988 48.894,57.988 48.894,0 11.17,60.715 88.156,60.715 "/>
<path fill="#FAA21B" d="M45.694,215.581c0,2.104-1.706,3.81-3.81,3.81s-3.809-1.706-3.809-3.81v-68.473
	c0-2.104,1.705-3.811,3.809-3.811s3.81,1.706,3.81,3.811V215.581z"/>
<path fill="#FAA21B" d="M59.889,215.581c0,2.104-1.707,3.81-3.811,3.81s-3.809-1.706-3.809-3.81v-68.473
	c0-2.104,1.705-3.811,3.809-3.811s3.811,1.706,3.811,3.811V215.581z"/>
<path fill="#FFDA00" d="M99.326,167.248V90.47C99.193,63.153,77.01,41.051,49.663,41.051C22.37,41.051,0.22,63.228,0.002,90.47
	L0,167.248l0.011,0.106H0v5.091l4.445,4.725l6.393-6.394l6.392,6.394l6.393-6.394l6.392,6.394l6.393-6.394l6.392,6.394l6.392-6.394
	l6.393,6.394l6.393-6.394l6.393,6.394l6.393-6.394l6.393,6.394l6.393-6.394l6.393,6.394l5.386-5.271v-4.544h-0.011L99.326,167.248z"
	/>
<path opacity="0.05" d="M49.385,41.058C22.22,41.209,0.219,63.32,0.002,90.47L0,167.248l0.011,0.106H0v5.091l4.446,4.725
	l6.392-6.394l6.392,6.394l6.393-6.394l6.392,6.394l6.393-6.394l6.392,6.394l6.393-6.394l0.192,0.193V41.058z"/>
<path fill="#FAA21B" d="M49.663,112.159c-12.285,0-22.279-9.994-22.279-22.278c0-12.285,9.994-22.28,22.279-22.28
	c12.285,0,22.279,9.995,22.279,22.28C71.942,102.165,61.948,112.159,49.663,112.159"/>
<path fill="#FFFFFF" d="M70.387,88.095c0,11.445-9.278,20.725-20.725,20.725c-11.445,0-20.723-9.279-20.723-20.725
	c0-11.444,9.278-20.724,20.723-20.724C61.109,67.371,70.387,76.65,70.387,88.095"/>
<path fill="#FAA21B" d="M54.858,76.49c0,2.869-2.326,5.194-5.194,5.194c-2.869,0-5.195-2.325-5.195-5.194s2.326-5.194,5.195-5.194
	C52.532,71.296,54.858,73.621,54.858,76.49"/>
</svg>
