<?xml version="1.0" encoding="utf-8"?>
<!-- Generator: Adobe Illustrator 15.0.0, SVG Export Plug-In . SVG Version: 6.00 Build 0)  -->
<!DOCTYPE svg PUBLIC "-//W3C//DTD SVG 1.1//EN" "http://www.w3.org/Graphics/SVG/1.1/DTD/svg11.dtd">
<svg version="1.1" id="Layer_1" xmlns="http://www.w3.org/2000/svg" xmlns:xlink="http://www.w3.org/1999/xlink" x="0px" y="0px"
	 width="161.454px" height="214.825px" viewBox="0 0 161.454 214.825" enable-background="new 0 0 161.454 214.825"
	 xml:space="preserve">
<path d="M77.372,184.193c-1.602,0-2.912,3.065-2.912,6.813v17.004c0,3.748,1.31,6.814,2.912,6.814c1.601,0,2.912-3.066,2.912-6.814
	v-17.004C80.284,187.259,78.973,184.193,77.372,184.193 M88.373,184.193c-1.602,0-2.912,3.065-2.912,6.813v17.004
	c0,3.748,1.311,6.814,2.912,6.814s2.912-3.066,2.912-6.814v-17.004C91.285,187.259,89.975,184.193,88.373,184.193 M99.375,184.193
	c-1.602,0-2.912,3.065-2.912,6.813v17.004c0,3.748,1.311,6.814,2.912,6.814s2.912-3.066,2.912-6.814v-17.004
	C102.287,187.259,100.977,184.193,99.375,184.193 M110.377,184.193c-1.602,0-2.912,3.065-2.912,6.813v17.004
	c0,3.748,1.311,6.814,2.912,6.814s2.912-3.066,2.912-6.814v-17.004C113.289,187.259,111.979,184.193,110.377,184.193
	 M55.368,184.193c-1.601,0-2.912,3.065-2.912,6.813v17.004c0,3.748,1.311,6.814,2.912,6.814c1.602,0,2.912-3.066,2.912-6.814
	v-17.004C58.28,187.259,56.97,184.193,55.368,184.193 M44.366,184.193c-1.601,0-2.912,3.065-2.912,6.813v17.004
	c0,3.748,1.311,6.814,2.912,6.814c1.602,0,2.912-3.066,2.912-6.814v-17.004C47.277,187.259,45.968,184.193,44.366,184.193
	 M121.379,184.193c-1.603,0-2.912,3.065-2.912,6.813v17.004c0,3.748,1.31,6.814,2.912,6.814c1.602,0,2.912-3.066,2.912-6.814
	v-17.004C124.291,187.259,122.98,184.193,121.379,184.193 M66.37,184.193c-1.602,0-2.912,3.065-2.912,6.813v17.004
	c0,3.748,1.31,6.814,2.912,6.814s2.912-3.066,2.912-6.814v-17.004C69.282,187.259,67.972,184.193,66.37,184.193"/>
<path d="M154.487,134.527c0-39.641-32.136-71.776-71.776-71.776s-71.777,32.135-71.777,71.776c0,39.641,32.136,71.776,71.777,71.776
	S154.487,174.168,154.487,134.527"/>
<path d="M161.454,7.312c0,9.749-36.144,50.709-80.727,50.709C36.143,58.021,0,17.061,0,7.312S161.454-2.437,161.454,7.312"/>
<path fill="#FFFFFF" d="M150.955,8.646c0,2.551-31.441,4.618-70.229,4.618c-38.786,0-70.228-2.067-70.228-4.618
	c0-2.551,31.442-4.618,70.228-4.618C119.514,4.028,150.955,6.095,150.955,8.646"/>
<path fill="#FFFFFF" d="M64.565,117.171c4.801-5.074,11.074-7.601,17.351-7.602c6.275,0.001,12.549,2.527,17.35,7.602
	c0.26,0.273,0.69,0.285,0.965,0.027c0.272-0.259,0.285-0.689,0.025-0.963c-5.054-5.346-11.699-8.03-18.34-8.029
	c-6.642-0.001-13.287,2.684-18.341,8.028c-0.259,0.274-0.247,0.705,0.027,0.964C63.875,117.456,64.306,117.444,64.565,117.171z"/>
<path fill="#FFFFFF" d="M25.125,134.507c0,1.532-1.242,2.775-2.775,2.775c-1.532,0-2.774-1.243-2.774-2.775s1.242-2.774,2.774-2.774
	C23.884,131.732,25.125,132.975,25.125,134.507"/>
<path fill="#FFFFFF" d="M28.851,134.507c0,1.532-1.242,2.775-2.775,2.775c-1.532,0-2.774-1.243-2.774-2.775s1.242-2.774,2.774-2.774
	C27.608,131.732,28.851,132.975,28.851,134.507"/>
<path fill="#FFFFFF" d="M37.959,134.507c0,1.532-1.242,2.775-2.775,2.775c-1.532,0-2.774-1.243-2.774-2.775s1.242-2.774,2.774-2.774
	C36.717,131.732,37.959,132.975,37.959,134.507"/>
<path fill="#FFFFFF" d="M41.684,134.507c0,1.532-1.242,2.775-2.775,2.775c-1.532,0-2.774-1.243-2.774-2.775s1.242-2.774,2.774-2.774
	C40.442,131.732,41.684,132.975,41.684,134.507"/>
<path fill="#FFFFFF" d="M50.98,134.507c0,1.532-1.242,2.775-2.775,2.775c-1.532,0-2.774-1.243-2.774-2.775s1.242-2.774,2.774-2.774
	C49.738,131.732,50.98,132.975,50.98,134.507"/>
<path fill="#FFFFFF" d="M54.705,134.507c0,1.532-1.242,2.775-2.775,2.775c-1.532,0-2.774-1.243-2.774-2.775s1.242-2.774,2.774-2.774
	C53.463,131.732,54.705,132.975,54.705,134.507"/>
<path fill="#FFFFFF" d="M117.469,134.507c0,1.532-1.242,2.775-2.775,2.775c-1.532,0-2.774-1.243-2.774-2.775
	s1.242-2.774,2.774-2.774C116.227,131.732,117.469,132.975,117.469,134.507"/>
<path fill="#FFFFFF" d="M121.193,134.507c0,1.532-1.242,2.775-2.775,2.775c-1.532,0-2.774-1.243-2.774-2.775
	s1.242-2.774,2.774-2.774C119.951,131.732,121.193,132.975,121.193,134.507"/>
<path fill="#FFFFFF" d="M130.301,134.507c0,1.532-1.241,2.775-2.774,2.775c-1.532,0-2.774-1.243-2.774-2.775
	s1.242-2.774,2.774-2.774C129.06,131.732,130.301,132.975,130.301,134.507"/>
<path fill="#FFFFFF" d="M134.026,134.507c0,1.532-1.242,2.775-2.775,2.775c-1.532,0-2.774-1.243-2.774-2.775
	s1.242-2.774,2.774-2.774C132.784,131.732,134.026,132.975,134.026,134.507"/>
<path fill="#FFFFFF" d="M143.322,134.507c0,1.532-1.242,2.775-2.775,2.775c-1.531,0-2.773-1.243-2.773-2.775
	s1.242-2.774,2.773-2.774C142.08,131.732,143.322,132.975,143.322,134.507"/>
<path fill="#FFFFFF" d="M147.047,134.507c0,1.532-1.242,2.775-2.774,2.775s-2.774-1.243-2.774-2.775s1.242-2.774,2.774-2.774
	S147.047,132.975,147.047,134.507"/>
<path fill="#FFFFFF" d="M118.627,136.21h-4.004c-0.423,7.974-3.822,15.143-9.117,20.441c-4.492,4.487-10.33,7.607-16.861,8.714
	v4.058C105.096,166.962,117.83,153.149,118.627,136.21 M131.867,136.21h-4c-0.434,11.63-5.309,22.109-12.999,29.803
	c-6.896,6.894-16.03,11.521-26.224,12.723v4.028C112.42,180.197,131.038,160.466,131.867,136.21 M52.142,136.21h-4.004
	c0.791,16.82,13.354,30.556,29.637,33.157c0.068,0.011,0.136,0.021,0.204,0.032v-4.06c-0.073-0.013-0.145-0.025-0.217-0.038
	c-6.386-1.158-12.094-4.245-16.503-8.65C55.964,151.353,52.564,144.184,52.142,136.21 M38.898,136.21h-4
	c0.827,24.208,19.374,43.907,43.081,46.536v-4.029c-10.137-1.227-19.218-5.843-26.082-12.704
	C44.206,158.319,39.331,147.84,38.898,136.21 M140.518,136.21c-0.439,15.124-6.725,28.764-16.705,38.747
	c-9.189,9.187-21.477,15.247-35.168,16.496v4.012c30.769-2.625,55.024-28.01,55.873-59.255H140.518z M26.248,136.21h-4
	c0.846,31.197,25.03,56.554,55.731,59.244v-4.011c-13.635-1.279-25.869-7.33-35.027-16.486
	C32.972,164.974,26.687,151.334,26.248,136.21"/>
<path fill="#FFFFFF" d="M138.402,110.468c-9.314-21.537-30.734-36.615-55.691-36.615c-24.958,0-46.378,15.078-55.691,36.615H138.402
	z"/>
<path d="M102.949,110.046c0,11.444-9.277,20.724-20.724,20.724c-11.445,0-20.723-9.279-20.723-20.724
	c0-11.445,9.278-20.725,20.723-20.725C93.672,89.321,102.949,98.601,102.949,110.046"/>
<rect x="80.853" y="102.727" transform="matrix(0.7071 0.7071 -0.7071 0.7071 102.1783 -25.8266)" fill="#FFFFFF" width="2.824" height="15.4"/>
<rect x="80.852" y="102.726" transform="matrix(0.7069 -0.7073 0.7073 0.7069 -53.9934 90.546)" fill="#FFFFFF" width="2.824" height="15.4"/>
</svg>
