<?xml version="1.0" encoding="utf-8"?>
<!-- Generator: Adobe Illustrator 15.0.0, SVG Export Plug-In . SVG Version: 6.00 Build 0)  -->
<!DOCTYPE svg PUBLIC "-//W3C//DTD SVG 1.1//EN" "http://www.w3.org/Graphics/SVG/1.1/DTD/svg11.dtd">
<svg version="1.1" id="Layer_1" xmlns="http://www.w3.org/2000/svg" xmlns:xlink="http://www.w3.org/1999/xlink" x="0px" y="0px"
	 width="190.452px" height="213.024px" viewBox="0 0 190.452 213.024" enable-background="new 0 0 190.452 213.024"
	 xml:space="preserve">
<path fill="#9EB13B" d="M81.262,206.345c0,3.689-2.99,6.679-6.679,6.679c-3.688,0-6.679-2.989-6.679-6.679v-81.814
	c0-3.689,2.991-6.68,6.679-6.68c3.689,0,6.679,2.99,6.679,6.68V206.345z"/>
<path fill="#9EB13B" d="M121.014,206.345c0,3.689-2.99,6.679-6.68,6.679c-3.688,0-6.679-2.989-6.679-6.679v-81.814
	c0-3.689,2.991-6.68,6.679-6.68c3.689,0,6.68,2.99,6.68,6.68V206.345z"/>
<path fill="#82942F" d="M68.475,21.973c-76.32,0-76.32,114.479,0,114.479v-5.573c-68.888,0-68.888-103.332,0-103.332V21.973z"/>
<path fill="#82942F" d="M122.308,21.973c76.319,0,76.319,114.479,0,114.479v-5.573c68.888,0,68.888-103.332,0-103.332V21.973z"/>
<path fill="#9EB13B" d="M141.841,192.513c1.78,0,3.235-1.456,3.235-3.236v-76.778c-0.133-27.315-22.315-49.419-49.662-49.419
	c-27.293,0-49.443,22.178-49.661,49.419l-0.002,76.778c0,1.78,1.456,3.236,3.236,3.236H141.841z"/>
<path opacity="0.1" d="M94.869,63.093C67.828,63.389,45.97,85.44,45.753,112.499l-0.001,76.778c0,1.78,1.456,3.236,3.235,3.236
	h45.882V63.093z"/>
<path fill="#82942F" d="M137.831,112.999c0,5.987-4.854,10.841-10.84,10.841c-5.987,0-10.84-4.854-10.84-10.841
	c0-5.986,4.853-10.84,10.84-10.84C132.977,102.159,137.831,107.012,137.831,112.999"/>
<path fill="#FFFFFF" d="M136.496,111.636c0,5.25-4.256,9.505-9.505,9.505c-5.25,0-9.506-4.255-9.506-9.505s4.256-9.505,9.506-9.505
	C132.24,102.131,136.496,106.386,136.496,111.636"/>
<path fill="#82942F" d="M130.981,107.493c0,2.139-1.734,3.872-3.872,3.872c-2.139,0-3.872-1.733-3.872-3.872
	c0-2.14,1.733-3.872,3.872-3.872C129.247,103.621,130.981,105.353,130.981,107.493"/>
<path fill="#82942F" d="M145.077,166.857h-15.232v-21.045h-7.443v21.045H66.903v-21.045h-7.444v21.045H45.752
	c-0.001,12.608-0.001,22.42-0.001,22.42c0,1.78,1.456,3.236,3.236,3.236h92.854c1.78,0,3.235-1.456,3.235-3.236
	C145.077,189.277,145.077,179.465,145.077,166.857"/>
<path d="M162.2,130.879c-8.449-5.26-35.949,5.579-67.863,4.947c-31.908,0.632-59.4-10.2-67.858-4.951l-0.002-0.001l-0.001,0.004
	l-0.003,0.001l0.002,0.001c-0.923,2.03,0.145,4.846,2.69,6.454c2.544,1.612,5.512,1.354,6.946-0.353l0.036,0.021
	c-0.727,2.106,0.576,4.789,3.229,6.128c2.652,1.342,5.557,0.79,6.817-1.048l0.238,0.106c-0.523,2.165,1.01,4.696,3.753,5.76
	c2.613,1.017,5.285,0.292,6.456-1.47c-0.132,2.111,1.561,4.303,4.238,5.064c2.809,0.803,5.526-0.295,6.413-2.337l0.039,0.009
	c-0.116,2.223,1.826,4.416,4.685,4.945c2.858,0.533,5.45-0.814,6.141-2.932l0.04,0.007c0.09,2.224,2.22,4.223,5.108,4.483
	c2.887,0.263,5.339-1.321,5.828-3.492l0.04,0.001c0.297,2.206,2.6,3.999,5.497,3.989c2.896-0.005,5.19-1.811,5.475-4.018l0.04-0.002
	c0.5,2.169,2.961,3.739,5.847,3.46c2.751-0.265,4.791-2.108,5.039-4.207c0.827,1.945,3.302,3.146,6.024,2.629
	c2.857-0.54,4.792-2.741,4.668-4.963l0.039-0.01c0.894,2.039,3.615,3.127,6.422,2.313c2.808-0.81,4.542-3.187,4.21-5.389
	l0.039-0.014c1.084,1.945,3.909,2.768,6.646,1.685c2.738-1.08,4.258-3.618,3.723-5.782l0.037-0.016
	c1.268,1.832,4.176,2.373,6.824,1.021c2.372-1.208,3.655-3.497,3.357-5.469c1.545,1.261,4.168,1.324,6.445-0.119
	c2.545-1.609,3.613-4.424,2.689-6.454L162.2,130.879z"/>
<path fill="#82942F" d="M155.665,90.572c0,5.218-26.787-5.037-59.83-5.037c-33.043,0-59.83,10.255-59.83,5.037
	c0-5.217,26.787-23.932,59.83-23.932C128.877,66.64,155.665,85.355,155.665,90.572"/>
<path fill="#82942F" d="M123.642,70.957c0,7.975-12.449,14.439-27.807,14.439c-15.357,0-27.806-6.465-27.806-14.439
	c0-7.89,9.286-14.302,24.419-14.437c0.162-0.001-0.564,5.188,3.387,5.188c3.952,0,3.177-5.188,3.315-5.188
	C114.317,56.634,123.642,63.054,123.642,70.957"/>
<path fill="#82942F" d="M105.656,110.127c0,5.987-4.853,10.84-10.84,10.84s-10.84-4.853-10.84-10.84s4.853-10.84,10.84-10.84
	S105.656,104.14,105.656,110.127"/>
<path fill="#FFFFFF" d="M104.321,108.764c0,5.25-4.256,9.505-9.505,9.505c-5.25,0-9.506-4.255-9.506-9.505s4.256-9.505,9.506-9.505
	C100.065,99.259,104.321,103.514,104.321,108.764"/>
<path fill="#82942F" d="M98.806,113.138c0,2.14-1.733,3.872-3.872,3.872s-3.872-1.732-3.872-3.872c0-2.139,1.733-3.872,3.872-3.872
	S98.806,111,98.806,113.138"/>
<path fill="#82942F" d="M72.625,113.088c0,5.987-4.853,10.841-10.84,10.841c-5.987,0-10.84-4.854-10.84-10.841
	c0-5.986,4.853-10.84,10.84-10.84C67.771,102.249,72.625,107.102,72.625,113.088"/>
<path fill="#FFFFFF" d="M71.29,111.726c0,5.25-4.256,9.505-9.505,9.505c-5.25,0-9.506-4.255-9.506-9.505s4.256-9.505,9.506-9.505
	C67.034,102.221,71.29,106.476,71.29,111.726"/>
<path fill="#82942F" d="M65.775,107.583c0,2.139-1.734,3.872-3.872,3.872c-2.139,0-3.872-1.733-3.872-3.872
	c0-2.14,1.733-3.872,3.872-3.872C64.041,103.71,65.775,105.443,65.775,107.583"/>
<path fill="#9EB13B" d="M190.452,8.421c0,2.348-16.08,4.888-18.988,8.997c-10.997,15.538,16.229,21.367-76.238,21.367
	c-92.227,0-65.085-5.696-76.152-21.246C16.11,13.376,0,10.792,0,8.421C0-2.807,190.452-2.807,190.452,8.421"/>
<path fill="#82942F" d="M170.476,8.392c0,2.329-33.69,4.218-75.25,4.218c-41.56,0-75.251-1.889-75.251-4.218
	s33.691-4.218,75.251-4.218C136.786,4.174,170.476,6.063,170.476,8.392"/>
</svg>
