<?xml version="1.0" encoding="utf-8"?>
<!-- Generator: Adobe Illustrator 15.0.0, SVG Export Plug-In . SVG Version: 6.00 Build 0)  -->
<!DOCTYPE svg PUBLIC "-//W3C//DTD SVG 1.1//EN" "http://www.w3.org/Graphics/SVG/1.1/DTD/svg11.dtd">
<svg version="1.1" id="Layer_1" xmlns="http://www.w3.org/2000/svg" xmlns:xlink="http://www.w3.org/1999/xlink" x="0px" y="0px"
	 width="140.854px" height="177.208px" viewBox="0 0 140.854 177.208" enable-background="new 0 0 140.854 177.208"
	 xml:space="preserve">
<path fill="#F494BE" d="M65.647,170.393c0,3.748-1.785,6.814-3.967,6.814s-3.967-3.066-3.967-6.814v-81.72
	c0-3.748,1.785-6.815,3.967-6.815s3.967,3.067,3.967,6.815V170.393z"/>
<path fill="#F494BE" d="M81.338,170.393c0,3.748-1.785,6.814-3.966,6.814c-2.182,0-3.967-3.066-3.967-6.814v-81.72
	c0-3.748,1.785-6.815,3.967-6.815c2.181,0,3.966,3.067,3.966,6.815V170.393z"/>
<path fill="#F494BE" d="M140.423,8.362c0,0-12.216-8.362-69.94-8.362C12.759,0,0.544,8.362,0.544,8.362
	s-11.281,124.555,69.478,124.555S140.423,8.362,140.423,8.362"/>
<path opacity="0.2" fill="#FFFFFF" d="M5.463,19.802c-0.104,2.305-0.2,5.39-0.2,9.06C5.267,39.21,6.005,54.195,9.403,69.465
	c1.701,7.635,4.068,15.345,7.375,22.587c3.307,7.24,7.558,14.021,13.051,19.731c1.305,1.356,3.461,1.398,4.818,0.095
	c1.355-1.306,1.397-3.462,0.093-4.818c-4.839-5.028-8.706-11.141-11.763-17.839c-4.59-10.041-7.34-21.378-8.913-32.08
	c-1.576-10.702-1.987-20.766-1.987-28.279c0-3.553,0.092-6.536,0.193-8.749c0.086-1.879-1.368-3.473-3.248-3.559
	C7.144,16.468,5.549,17.922,5.463,19.802z"/>
<path opacity="0.1" d="M69.729,0.001C12.658,0.075,0.544,8.363,0.544,8.363s-11.304,124.21,69.148,124.55L69.729,0.001z"/>
<path opacity="0.1" d="M93.68,66.708c0,13.054-10.582,23.636-23.636,23.636S46.408,79.761,46.408,66.708
	c0-13.054,10.582-23.636,23.636-23.636S93.68,53.653,93.68,66.708"/>
<path fill="#9B4A83" d="M129.912,10.222c0,1.899-26.31,3.439-58.763,3.439c-32.454,0-58.764-1.54-58.764-3.439
	c0-1.899,26.31-5.059,58.764-5.059C103.603,5.163,129.912,8.323,129.912,10.222"/>
<path fill="#FFFFFF" d="M89.487,64.57c0,0-8.849-1.448-19.765-1.448c-10.915,0-19.763,1.448-19.763,1.448s8.848-12.18,19.763-12.18
	C80.639,52.39,89.487,64.57,89.487,64.57"/>
<path fill="#F494BE" d="M74.94,57.736c0,2.869-2.326,5.194-5.195,5.194c-2.868,0-5.194-2.325-5.194-5.194s2.326-5.195,5.194-5.195
	C72.614,52.542,74.94,54.867,74.94,57.736"/>
<path fill="#9B4A83" d="M73.19,100.577c-0.912,0.912-2.102,1.363-3.297,1.364c-1.195-0.001-2.384-0.452-3.297-1.364
	c-0.312-0.313-0.819-0.313-1.133,0c-0.312,0.312-0.312,0.82,0,1.133c1.221,1.222,2.829,1.836,4.43,1.836s3.209-0.614,4.431-1.836
	c0.312-0.312,0.312-0.82,0-1.133C74.011,100.263,73.503,100.263,73.19,100.577z"/>
<path fill="#FFFFFF" d="M102.353,26.382c0,5.875-1.113,10.638-1.113,10.638s-1.112-4.763-1.112-10.638s1.112-10.638,1.112-10.638
	S102.353,20.507,102.353,26.382"/>
<path fill="#FFFFFF" d="M101.239,27.495c-5.875,0-10.637-1.113-10.637-1.113s4.762-1.112,10.637-1.112s10.637,1.112,10.637,1.112
	S107.114,27.495,101.239,27.495"/>
<path fill="#FFFFFF" d="M33.301,44.803c0,5.875-1.112,10.638-1.112,10.638s-1.112-4.763-1.112-10.638s1.112-10.638,1.112-10.638
	S33.301,38.928,33.301,44.803"/>
<path fill="#FFFFFF" d="M32.188,45.916c-5.875,0-10.639-1.113-10.639-1.113s4.764-1.112,10.639-1.112s10.637,1.112,10.637,1.112
	S38.063,45.916,32.188,45.916"/>
<path fill="#FFFFFF" d="M111.892,78.625c0,5.875-1.112,10.638-1.112,10.638s-1.112-4.763-1.112-10.638s1.112-10.638,1.112-10.638
	S111.892,72.75,111.892,78.625"/>
<path fill="#FFFFFF" d="M110.779,79.737c-5.875,0-10.637-1.113-10.637-1.113s4.762-1.112,10.637-1.112s10.638,1.112,10.638,1.112
	S116.654,79.737,110.779,79.737"/>
</svg>
