<?xml version="1.0" encoding="utf-8"?>
<!-- Generator: Adobe Illustrator 15.0.0, SVG Export Plug-In . SVG Version: 6.00 Build 0)  -->
<!DOCTYPE svg PUBLIC "-//W3C//DTD SVG 1.1//EN" "http://www.w3.org/Graphics/SVG/1.1/DTD/svg11.dtd">
<svg version="1.1" id="Layer_1" xmlns="http://www.w3.org/2000/svg" xmlns:xlink="http://www.w3.org/1999/xlink" x="0px" y="0px"
	 width="139.879px" height="177.208px" viewBox="0 0 139.879 177.208" enable-background="new 0 0 139.879 177.208"
	 xml:space="preserve">
<path fill="#F494BE" d="M65.103,170.393c0,3.748-1.784,6.814-3.966,6.814s-3.967-3.066-3.967-6.814v-81.72
	c0-3.748,1.785-6.815,3.967-6.815s3.966,3.067,3.966,6.815V170.393z"/>
<path fill="#F494BE" d="M80.794,170.393c0,3.748-1.785,6.814-3.966,6.814c-2.183,0-3.967-3.066-3.967-6.814v-81.72
	c0-3.748,1.784-6.815,3.967-6.815c2.181,0,3.966,3.067,3.966,6.815V170.393z"/>
<path fill="#F494BE" d="M139.879,8.362c0,0-12.216-8.362-69.94-8.362C12.215,0,0,8.362,0,8.362s6.859,124.555,69.44,124.555
	C132.021,132.917,139.879,8.362,139.879,8.362"/>
<path opacity="0.1" d="M69.185,0.001C12.114,0.075,0,8.363,0,8.363s6.842,124.21,69.185,124.55V0.001z"/>
<path opacity="0.1" d="M93.136,66.708c0,13.054-10.582,23.636-23.636,23.636S45.864,79.761,45.864,66.708
	c0-13.054,10.582-23.636,23.636-23.636S93.136,53.653,93.136,66.708"/>
<path fill="#FFFFFF" d="M90.224,63.472c0,11.445-9.278,20.724-20.725,20.724c-11.444,0-20.723-9.279-20.723-20.724
	s9.278-20.724,20.723-20.724C80.945,42.748,90.224,52.027,90.224,63.472"/>
<path fill="#F494BE" d="M74.694,51.867c0,2.869-2.326,5.194-5.193,5.194c-2.869,0-5.195-2.325-5.195-5.194
	c0-2.869,2.326-5.194,5.195-5.194C72.368,46.673,74.694,48.998,74.694,51.867"/>
<path fill="#9B4A83" d="M129.368,10.222c0,1.899-26.309,3.439-58.763,3.439s-58.764-1.54-58.764-3.439
	c0-1.899,26.31-5.059,58.764-5.059S129.368,8.323,129.368,10.222"/>
<path fill="#9B4A83" d="M73.07,100.226c0.022,1.201,0.066,4.334-1.463,5.444c-1.495,1.173-3.804,1.173-5.3,0
	c-1.528-1.11-1.485-4.244-1.463-5.444c-0.022-1.241-0.066-0.087,1.463,1.022c1.496,1.172,3.805,1.172,5.3,0
	C73.137,100.139,73.093,98.985,73.07,100.226"/>
<path fill="#FFFFFF" d="M67.177,102.391c-0.053,0.172-0.089,0.353-0.089,0.543c0,1.039,0.842,1.883,1.882,1.883
	c1.039,0,1.883-0.844,1.883-1.883c0-0.19-0.037-0.371-0.09-0.543C69.638,102.886,68.302,102.886,67.177,102.391"/>
<path opacity="0.2" fill="#FFFFFF" d="M5.41,21.391c1.027,10.268,3.662,30.652,9.897,50.912
	c4.979,16.151,11.204,29.027,18.736,38.312c1.186,1.462,3.332,1.685,4.793,0.498c1.46-1.187,1.683-3.332,0.496-4.793
	c-6.746-8.295-12.718-20.428-17.514-36.022c-6.025-19.552-8.635-39.591-9.628-49.583c-0.187-1.873-1.856-3.239-3.729-3.052
	C6.591,17.849,5.224,19.52,5.41,21.391z"/>
</svg>
