<?xml version="1.0" encoding="utf-8"?>
<!-- Generator: Adobe Illustrator 15.0.0, SVG Export Plug-In . SVG Version: 6.00 Build 0)  -->
<!DOCTYPE svg PUBLIC "-//W3C//DTD SVG 1.1//EN" "http://www.w3.org/Graphics/SVG/1.1/DTD/svg11.dtd">
<svg version="1.1" id="Layer_1" xmlns="http://www.w3.org/2000/svg" xmlns:xlink="http://www.w3.org/1999/xlink" x="0px" y="0px"
	 width="106.205px" height="122.178px" viewBox="0 0 106.205 122.178" enable-background="new 0 0 106.205 122.178"
	 xml:space="preserve">
<path fill="#008742" d="M69.127,17.334c-6.4,3.441-15.004-0.118-15.004-0.118s1.777-9.138,8.179-12.58
	c6.402-3.441,15.004,0.119,15.004,0.119S75.529,13.894,69.127,17.334"/>
<path fill="#7F4420" d="M56.38,30.936c-0.157-9.796-1.512-19.536-4.034-29.002c-0.328-1.233-1.636-2.085-2.894-1.911
	c-1.26,0.175-1.991,1.312-1.662,2.544c2.521,9.468,3.876,19.207,4.033,29.002c0.021,1.276,1.034,2.169,2.293,1.994
	C55.375,33.388,56.401,32.21,56.38,30.936"/>
<path fill="#C42126" d="M106.205,72.313c0,27.063-17.486,49.093-46.095,49.865c-0.516,0.013-3.146-4.013-7.008-4.013
	c-3.86,0-6.616,4.025-7.193,4.008C17.385,121.311,0,99.317,0,72.313c0-26.585,4.408-48.295,43.385-49.805
	c1.417-0.054,8.688,2.425,9.717,2.425c0.997,0,8.253-2.481,9.626-2.43C101.765,23.969,106.205,45.698,106.205,72.313"/>
<path fill="#D12027" d="M53.103,118.165c0,0-6.619,4.025-7.195,4.008C17.385,121.311,0,99.317,0,72.313
	c0-26.585,4.409-48.295,43.384-49.805c1.417-0.054,9.719,2.425,9.719,2.425V118.165z"/>
<path opacity="0.2392" fill="#FFFFFF" d="M21.47,35.645L21.47,35.645c-4.698,0-8.519,3.755-8.624,8.429v0.396
	c0.104,4.637,3.865,8.37,8.512,8.429h0.223c4.714-0.06,8.516-3.899,8.516-8.626C30.098,39.507,26.236,35.645,21.47,35.645"/>
</svg>
