<?xml version="1.0" encoding="utf-8"?>
<!-- Generator: Adobe Illustrator 15.0.0, SVG Export Plug-In . SVG Version: 6.00 Build 0)  -->
<!DOCTYPE svg PUBLIC "-//W3C//DTD SVG 1.1//EN" "http://www.w3.org/Graphics/SVG/1.1/DTD/svg11.dtd">
<svg version="1.1" id="Layer_1" xmlns="http://www.w3.org/2000/svg" xmlns:xlink="http://www.w3.org/1999/xlink" x="0px" y="0px"
	 width="83.428px" height="134.103px" viewBox="0 0 83.428 134.103" enable-background="new 0 0 83.428 134.103"
	 xml:space="preserve">
<path fill="#EB2227" d="M43.474,53.405V21.36c0-1.395-1.127-2.521-2.521-2.521s-2.521,1.128-2.521,2.521v32.045
	c0,1.391,1.127,2.519,2.521,2.519S43.474,54.796,43.474,53.405"/>
<path fill="#4E4E4E" d="M83.424,91.845c0.304,23.037-18.131,41.955-41.165,42.254C19.223,134.404,0.306,115.97,0.003,92.933
	c-0.3-23.035,18.133-41.954,41.167-42.254C64.208,50.379,83.125,68.808,83.424,91.845"/>
<path fill="#231F20" d="M40.821,50.693C17.95,51.178-0.293,70.013,0.005,92.931c0.301,22.918,19.027,41.271,41.902,41.162
	L40.821,50.693z"/>
<path fill="#231F20" d="M54.194,50.904c0.034,2.71-2.497,4.938-5.657,4.979L34.975,56.06c-3.159,0.042-5.749-2.122-5.785-4.832
	l-0.074-5.837c-0.036-2.711,2.498-4.938,5.655-4.979l13.562-0.177c3.16-0.041,5.749,2.123,5.784,4.83L54.194,50.904z"/>
<path opacity="0.2392" fill="#FFFFFF" enable-background="new    " d="M28.482,64.393h-5.973
	c-6.387,4.396-11.031,10.855-13.263,18.146v12.762h5.628c0.569-0.701,0.906-1.598,0.895-2.572
	c-0.12-9.188,4.479-17.562,12.302-22.412c0.145-0.09,0.281-0.188,0.41-0.293L28.482,64.393"/>
<path fill="#EB2227" d="M48.371,18.949c0,4.21-3.414,7.624-7.624,7.624s-7.624-3.414-7.624-7.624S40.747,0,40.747,0
	S48.371,14.739,48.371,18.949"/>
<path fill="#F9A81A" d="M44.041,20.423c0,1.819-1.477,3.295-3.294,3.295c-1.818,0-3.295-1.476-3.295-3.295
	c0-1.816,3.295-8.188,3.295-8.188S44.041,18.604,44.041,20.423"/>
</svg>
