<?xml version="1.0" encoding="utf-8"?>
<!-- Generator: Adobe Illustrator 15.0.0, SVG Export Plug-In . SVG Version: 6.00 Build 0)  -->
<!DOCTYPE svg PUBLIC "-//W3C//DTD SVG 1.1//EN" "http://www.w3.org/Graphics/SVG/1.1/DTD/svg11.dtd">
<svg version="1.1" id="Layer_1" xmlns="http://www.w3.org/2000/svg" xmlns:xlink="http://www.w3.org/1999/xlink" x="0px" y="0px"
	 width="133.938px" height="130.103px" viewBox="0 0 133.938 130.103" enable-background="new 0 0 133.938 130.103"
	 xml:space="preserve">
<path fill="#C3A874" d="M133.308,3.441H91.631c0.002,0.116,6.504,25.599,4.93,45.332c-8.153,77.773-98.132,39.43-91.487,66.603
	c6.2,21.216,25.495,11.1,62.276,10.361c8.651-0.174,23.976,2.703,34.262,3.555c44.036,1.32,29.044-25.757,28.417-59.42
	C129.071,45.075,133.309,3.62,133.308,3.441"/>
<path fill="#CECDBE" d="M133.351,100.619c-0.693-9.312-2.609-20.253-2.829-31.969c-0.997-25.625,3.417-68.467,3.417-68.65H90.526
	c0.001,0.12,6.773,26.454,5.135,46.848c-8.494,80.37-102.218,40.746-95.296,68.827c2.72,9.232,7.859,12.723,15.759,13.613
	c0.58-0.558,1.198-1.074,1.86-1.53c-0.656-0.839-1.313-1.678-1.969-2.518c1.408,0.476,2.816,0.95,4.225,1.424
	c0.243-0.953,0.485-1.907,0.728-2.862c0.643,1.075,1.286,2.149,1.93,3.225c1.307-0.665,2.783-0.996,4.248-0.95
	c-0.891,1.07-2.114,2.384-3.185,3.272c0.206,0.135,0.639-0.049,0.845,0.087c10.2-0.5,23.545-2.718,40.429-3.054
	c9.012-0.18,24.975,2.794,35.688,3.673c22.223,0.661,30.014-5.565,32.066-16.116c-3.959,1.457-7.918,2.913-11.877,4.37
	c2.222-1.589,4.54-3.291,5.664-5.78c-2.73-0.498-5.404-1.303-7.957-2.393c2.352-0.233,4.639-1.094,6.562-2.468
	c-2.347-1.437-4.547-3.11-6.56-4.986c2.988,0.102,5.981,0.088,8.969-0.04l-4.59-3.829c2.396,0.779,4.883,1.277,7.395,1.478
	c-0.777-0.963-1.291-2.136-1.475-3.36C130.237,98.448,131.698,99.711,133.351,100.619"/>
<path fill="#C7C6B5" d="M104.048,126.954c-0.951,0-1.943-0.014-2.951-0.044c-4.031-0.334-8.77-0.962-13.784-1.625
	c-7.647-1.014-15.556-2.062-21.273-2.062c-0.295,0-0.586,0.004-0.869,0.009c-10.526,0.211-19.55,1.128-27.513,1.937
	c-2.18,0.223-4.229,0.431-6.168,0.609l2.209-2.652l-6.458-0.198c-0.12-0.003-0.24-0.005-0.36-0.005
	c-0.874,0-1.747,0.098-2.599,0.288l-4.503-7.525l-1.755,6.909L7.06,118.897l4.911,6.283c-4.354-1.543-6.899-4.716-8.565-10.326
	c-0.637-2.652,0.094-3.674,0.336-4.013c2.335-3.263,11.779-4.085,21.777-4.957c13.449-1.172,30.188-2.631,44.391-10.353
	c16.972-9.227,26.419-25.044,28.882-48.354L98.8,47.1c1.264-15.716-2.3-34.796-4.316-43.951h35.992
	c-1.213,12.984-3.899,44.964-3.102,65.593c0.145,7.56,0.99,14.901,1.736,21.381c0.227,1.966,0.446,3.875,0.641,5.725l-2.1,0.869
	c-1.178-0.228-2.34-0.527-3.479-0.897l-2.09,3.779c-1.051-0.006-2.109-0.026-3.156-0.062l-8.408-0.286l6.154,5.736
	c0.729,0.68,1.482,1.336,2.258,1.966c-0.141,0.021-0.283,0.036-0.425,0.051l-0.925,6.029c1.166,0.499,2.357,0.943,3.568,1.329
	c-0.612,0.487-1.256,0.947-1.871,1.387l2.92,5.517l5.394-1.984c-1.029,1.542-2.358,2.8-4.022,3.828
	C119.378,125.695,112.993,126.954,104.048,126.954"/>
<path fill="#00894B" d="M95.245,27.464c0,0.001,0,0.001,0,0.002c0.164,1.648,0.303,3.32,0.412,5l0,0l35.713-0.275
	c0.209-3.423,0.434-6.744,0.663-9.872l-37.339,0.287C94.896,24.191,95.083,25.815,95.245,27.464 M91.99,6.533
	c0.209,1.01,0.431,2.114,0.658,3.303c0.001,0.006,0.002,0.011,0.003,0.016c0.227,1.187,0.459,2.454,0.691,3.79
	c0,0.005,0.001,0.01,0.002,0.015c0.154,0.89,0.307,1.809,0.459,2.754c0,0.002,0,0.004,0.001,0.007l38.653,0.34
	c0.301-3.809,0.592-7.167,0.834-9.859L91.99,6.533z"/>
<path fill="#00894B" d="M15.364,103.729c-1.354,0.172-2.641,0.362-3.853,0.581c-0.107,0.151-0.215,0.306-0.322,0.476
	c-1.093,1.719-2.151,4.388-2.147,8.1c0,0.895,0.061,1.851,0.195,2.869c0.091,0.689,0.724,1.175,1.414,1.083
	c0.689-0.091,1.174-0.724,1.084-1.413c-0.121-0.913-0.174-1.758-0.174-2.539c0.003-3.237,0.897-5.389,1.757-6.753
	C13.748,105.451,14.745,104.207,15.364,103.729"/>
<path fill="#B69979" d="M78.672,101.621c-0.377,0.735,1.786,2.295,2.101,2.136c0.793,0.724,1.054,1.849,1.604,2.77
	c0.551,0.922,1.769,1.684,2.66,1.085c0.388-0.262,0.596-0.714,0.766-1.152c0.396-1.028,0.68-2.102,0.84-3.191
	c0.213,0.483,0.432,0.978,0.797,1.358s0.91,0.634,1.424,0.508c0.549-0.134,0.914-0.647,1.179-1.146
	c1.021-1.925,1.302-4.231,0.771-6.346C90.622,96.887,90.07,96,89.31,96.171c-0.29,0.064-0.523,0.28-0.803,0.385
	c-0.311,0.116-0.654,0.088-0.985,0.059c-0.828-0.075-1.657-0.149-2.485-0.225c-0.354-0.032-0.715-0.065-1.047-0.195
	c-0.535-0.208-0.951-0.647-1.469-0.895c-1.021-0.486-2.306-0.119-3.11,0.674c-0.804,0.794-1.188,1.93-1.317,3.053L78.672,101.621z"
	/>
</svg>
