<?xml version="1.0" encoding="utf-8"?>
<!-- Generator: Adobe Illustrator 15.0.0, SVG Export Plug-In . SVG Version: 6.00 Build 0)  -->
<!DOCTYPE svg PUBLIC "-//W3C//DTD SVG 1.1//EN" "http://www.w3.org/Graphics/SVG/1.1/DTD/svg11.dtd">
<svg version="1.1" id="Layer_1" xmlns="http://www.w3.org/2000/svg" xmlns:xlink="http://www.w3.org/1999/xlink" x="0px" y="0px"
	 width="75.56px" height="171.408px" viewBox="0 0 75.56 171.408" enable-background="new 0 0 75.56 171.408" xml:space="preserve">
<polygon fill="#EABB71" points="69.242,57.717 38.004,171.408 6.767,57.717 "/>
<path fill="#E6AE5F" d="M37.692,170.271V57.717H6.767L37.692,170.271z M37.886,170.979l0.117,0.428l0.119-0.428H37.886z"/>
<path opacity="0.6" fill="#E29265" d="M69.241,57.717H6.771v0.015l3.795,13.812c1.733-0.02,3.365-0.463,4.799-1.23
	c6.206,4.965,14.073,7.941,22.639,7.941c4.456,0,8.723-0.807,12.666-2.275c0.504,0.072,1.016,0.125,1.538,0.125
	c4.549,0,8.405-2.914,9.839-6.971c0.096-0.084,0.194-0.166,0.29-0.25c0.887,0.244,1.817,0.387,2.781,0.387
	c0.327,0,0.646-0.02,0.963-0.051l3.161-11.498V57.717"/>
<path fill="#D89642" d="M64.294,75.725l0.156-0.57h-5.977V57.717h-0.57v17.438h-13.1V57.717h-0.568v17.438H31.135V57.717h-0.568
	v17.438h-13.1V57.717h-0.571v17.438h-5.338l0.156,0.57h5.182v13.098h-1.582l0.156,0.57h1.426v5.193l0.571,2.074v-7.268h13.1v13.1
	H19.068l0.157,0.568h11.341v13.102h-7.742l0.156,0.568h7.586v13.1H26.58l0.156,0.568h3.83V143.5h-0.231l0.158,0.568h0.073v0.268
	l0.568,2.072v-2.34h13.101v4.664l0.568-2.072v-2.592h0.712l0.157-0.568h-0.869v-13.102h4.469l0.156-0.568h-4.625v-13.1h8.224
	l0.155-0.568h-8.379v-13.102h11.979l0.156-0.568H44.804v-13.1h13.1v9.592l0.57-2.072v-7.52h2.064l0.157-0.57h-2.222V75.725H64.294z
	 M30.566,88.822h-13.1v-13.1h13.1V88.822z M44.235,143.5H31.135v-13.102h13.101V143.5z M44.235,129.83H31.135v-13.1h13.101V129.83z
	 M44.235,116.162H31.135v-13.102h13.101V116.162z M44.235,102.492H31.135v-13.1h13.101V102.492z M44.235,88.822H31.135v-13.1h13.101
	V88.822z M57.903,88.822h-13.1v-13.1h13.1V88.822z M34.248,157.738h7.512l0.156-0.57h-7.823L34.248,157.738z M38.003,171.406
	L38.003,171.406l0.158-0.568h-0.314L38.003,171.406z"/>
<path fill="#E463A0" d="M72.902,46.189c0.894-3.152,1.382-6.474,1.382-9.912C74.284,16.242,58.04,0,38.003,0
	C17.968,0,1.726,16.242,1.726,36.277c0,3.953,0.641,7.754,1.809,11.316C1.372,49.506,0,52.295,0,55.41
	c0,5.766,4.675,10.441,10.441,10.441c1.781,0,3.456-0.448,4.922-1.234c6.207,4.965,14.073,7.941,22.639,7.941
	c4.455,0,8.722-0.807,12.665-2.276c0.503,0.075,1.015,0.126,1.539,0.126c4.548,0,8.406-2.913,9.839-6.97
	c0.097-0.085,0.196-0.166,0.291-0.251c0.887,0.245,1.816,0.386,2.78,0.386c5.768,0,10.442-4.674,10.442-10.441
	C75.56,50.462,74.55,48.035,72.902,46.189z"/>
<path fill="#E887B4" d="M27.812,19.102c0,4.168-3.378,7.547-7.546,7.547s-7.547-3.379-7.547-7.547s3.379-7.547,7.547-7.547
	S27.812,14.934,27.812,19.102"/>
</svg>
