<?xml version="1.0" encoding="utf-8"?>
<!-- Generator: Adobe Illustrator 15.0.0, SVG Export Plug-In . SVG Version: 6.00 Build 0)  -->
<!DOCTYPE svg PUBLIC "-//W3C//DTD SVG 1.1//EN" "http://www.w3.org/Graphics/SVG/1.1/DTD/svg11.dtd">
<svg version="1.1" id="Layer_1" xmlns="http://www.w3.org/2000/svg" xmlns:xlink="http://www.w3.org/1999/xlink" x="0px" y="0px"
	 width="111.983px" height="54.669px" viewBox="-2.903 -0.334 111.983 54.669"
	 enable-background="new -2.903 -0.334 111.983 54.669" xml:space="preserve">
<path fill="#00AB4E" d="M109.08,54.335C108.368,24.021,83.573-0.334,53.089-0.334S-2.191,24.021-2.903,54.335H109.08z"/>
<path fill="#009A47" d="M63.586,0.653c21.539,8.499,36.9,29.26,37.475,53.682h8.02C108.452,27.59,89.076,5.486,63.586,0.653"/>
<path fill="#E7E767" d="M18.37,27.763c1.312,1.112,1.475,3.075,0.364,4.389s-3.076,1.476-4.389,0.363
	c-1.312-1.11-1.476-3.076-0.365-4.389C15.092,26.814,17.057,26.651,18.37,27.763"/>
<path fill="#E7E767" d="M28.431,15.879c1.312,1.111,1.475,3.076,0.363,4.389s-3.076,1.476-4.389,0.364
	c-1.312-1.111-1.476-3.077-0.364-4.389C25.153,14.931,27.118,14.769,28.431,15.879"/>
<path fill="#E7E767" d="M32.085,39.376c1.313,1.111,1.475,3.075,0.365,4.389c-1.112,1.313-3.077,1.475-4.39,0.364
	c-1.312-1.111-1.475-3.076-0.364-4.389C28.807,38.428,30.773,38.265,32.085,39.376"/>
<path fill="#E7E767" d="M42.146,27.493c1.312,1.112,1.476,3.077,0.364,4.389c-1.111,1.312-3.076,1.476-4.389,0.364
	s-1.476-3.077-0.365-4.39C38.869,26.545,40.834,26.381,42.146,27.493"/>
<path fill="#E7E767" d="M30.04,27.885c1.313,1.111,1.476,3.076,0.364,4.389c-1.111,1.313-3.076,1.475-4.389,0.365
	c-1.313-1.112-1.476-3.077-0.365-4.391C26.763,26.937,28.727,26.773,30.04,27.885"/>
<path fill="#E7E767" d="M40.319,15.745c1.313,1.111,1.476,3.076,0.364,4.389c-1.111,1.313-3.076,1.475-4.389,0.365
	c-1.312-1.111-1.476-3.077-0.365-4.389C37.042,14.797,39.007,14.634,40.319,15.745"/>
<path fill="#E7E767" d="M19.761,40.025c1.312,1.111,1.476,3.076,0.364,4.389c-1.111,1.312-3.076,1.476-4.389,0.364
	s-1.476-3.076-0.364-4.39C16.484,39.076,18.449,38.914,19.761,40.025"/>
</svg>
