<?xml version="1.0" encoding="utf-8"?>
<!-- Generator: Adobe Illustrator 15.0.0, SVG Export Plug-In . SVG Version: 6.00 Build 0)  -->
<!DOCTYPE svg PUBLIC "-//W3C//DTD SVG 1.1//EN" "http://www.w3.org/Graphics/SVG/1.1/DTD/svg11.dtd">
<svg version="1.1" id="Layer_1" xmlns="http://www.w3.org/2000/svg" xmlns:xlink="http://www.w3.org/1999/xlink" x="0px" y="0px"
	 width="209.736px" height="102.39px" viewBox="-0.907 -1.427 209.736 102.39"
	 enable-background="new -0.907 -1.427 209.736 102.39" xml:space="preserve">
<path fill="#00AB4E" d="M208.829,100.963c-1.333-56.775-47.772-102.39-104.868-102.39c-57.096,0-103.535,45.615-104.868,102.39
	H208.829z"/>
<path fill="#009A47" d="M123.621,0.42c40.342,15.918,69.11,54.802,70.185,100.542h15.023C207.653,50.871,171.361,9.474,123.621,0.42
	"/>
<path fill="#E7E767" d="M35.646,45.167c1.299,1.101,1.461,3.046,0.361,4.345c-1.1,1.3-3.045,1.461-4.344,0.361
	c-1.299-1.1-1.461-3.045-0.361-4.345C32.402,44.229,34.347,44.067,35.646,45.167"/>
<path fill="#E7E767" d="M45.606,33.404c1.299,1.101,1.46,3.045,0.36,4.345s-3.045,1.461-4.345,0.36
	c-1.299-1.1-1.46-3.045-0.36-4.344S44.307,32.304,45.606,33.404"/>
<path fill="#E7E767" d="M49.224,56.663c1.299,1.101,1.46,3.046,0.36,4.345s-3.045,1.461-4.344,0.36
	c-1.299-1.1-1.461-3.045-0.361-4.345C45.979,55.725,47.924,55.563,49.224,56.663"/>
<path fill="#E7E767" d="M59.183,44.9c1.299,1.1,1.461,3.045,0.361,4.344c-1.101,1.299-3.045,1.46-4.345,0.361
	c-1.299-1.1-1.46-3.045-0.361-4.345C55.939,43.962,57.884,43.8,59.183,44.9"/>
<path fill="#E7E767" d="M47.199,45.289c1.299,1.1,1.46,3.045,0.361,4.344c-1.101,1.299-3.046,1.461-4.345,0.36
	c-1.299-1.1-1.461-3.045-0.361-4.344S45.9,44.188,47.199,45.289"/>
<path fill="#E7E767" d="M57.374,33.271c1.299,1.1,1.461,3.045,0.361,4.344c-1.1,1.299-3.045,1.461-4.345,0.361
	c-1.299-1.1-1.46-3.045-0.36-4.344C54.13,32.332,56.075,32.171,57.374,33.271"/>
<path fill="#E7E767" d="M37.024,57.306c1.299,1.1,1.461,3.046,0.361,4.345s-3.045,1.461-4.344,0.36
	c-1.299-1.101-1.461-3.046-0.361-4.345S35.725,56.205,37.024,57.306"/>
</svg>
