<?xml version="1.0" encoding="utf-8"?>
<!-- Generator: Adobe Illustrator 17.0.0, SVG Export Plug-In . SVG Version: 6.00 Build 0)  -->
<!DOCTYPE svg PUBLIC "-//W3C//DTD SVG 1.1//EN" "http://www.w3.org/Graphics/SVG/1.1/DTD/svg11.dtd">
<svg version="1.1" id="Layer_1" xmlns="http://www.w3.org/2000/svg" xmlns:xlink="http://www.w3.org/1999/xlink" x="0px" y="0px"
	 width="490.8px" height="178.4px" viewBox="0 0 490.8 178.4" enable-background="new 0 0 490.8 178.4" xml:space="preserve">
<circle fill="#FFFFFF" cx="175.7" cy="84.3" r="5.4"/>
<circle fill="#FFFFFF" cx="193.1" cy="63.8" r="5.4"/>
<circle fill="#FFFFFF" cx="199.4" cy="104.4" r="5.4"/>
<circle fill="#FFFFFF" cx="216.7" cy="83.8" r="5.4"/>
<circle fill="#FFFFFF" cx="195.8" cy="84.5" r="5.4"/>
<circle fill="#FFFFFF" cx="213.6" cy="63.5" r="5.4"/>
<circle fill="#FFFFFF" cx="178.1" cy="105.5" r="5.4"/>
<path fill="#E1F1E4" d="M308,0c-70.2,0-131.1,39.6-161.8,97.6C131.8,88.9,114.8,84,96.7,84C44.1,84,1.2,126,0,178.4h125.3h68.2
	h297.3C488.5,79.5,407.5,0,308,0z M29.2,133.1c1.9-2.3,5.3-2.5,7.6-0.6c2.3,1.9,2.5,5.3,0.6,7.6c-1.9,2.3-5.3,2.5-7.6,0.6
	C27.5,138.8,27.3,135.4,29.2,133.1z M39.8,161.3c-1.9,2.3-5.3,2.5-7.6,0.6c-2.3-1.9-2.5-5.3-0.6-7.6c1.9-2.3,5.3-2.5,7.6-0.6
	C41.4,155.6,41.7,159,39.8,161.3z M46.6,112.6c1.9-2.3,5.3-2.5,7.6-0.6c2.3,1.9,2.5,5.3,0.6,7.6c-1.9,2.3-5.3,2.5-7.6,0.6
	C44.9,118.3,44.6,114.9,46.6,112.6z M49.3,133.3c1.9-2.3,5.3-2.5,7.6-0.6c2.3,1.9,2.5,5.3,0.6,7.6c-1.9,2.3-5.3,2.5-7.6,0.6
	C47.7,139,47.4,135.6,49.3,133.3z M61.1,160.2c-1.9,2.3-5.3,2.5-7.6,0.6s-2.5-5.3-0.6-7.6c1.9-2.3,5.3-2.5,7.6-0.6
	C62.7,154.5,63,157.9,61.1,160.2z M67.1,112.4c1.9-2.3,5.3-2.5,7.6-0.6c2.3,1.9,2.5,5.3,0.6,7.6c-1.9,2.3-5.3,2.5-7.6,0.6
	C65.5,118,65.2,114.6,67.1,112.4z M78.5,139.6c-1.9,2.3-5.3,2.5-7.6,0.6c-2.3-1.9-2.5-5.3-0.6-7.6c1.9-2.3,5.3-2.5,7.6-0.6
	C80.1,134,80.4,137.4,78.5,139.6z M188.9,60.3c1.9-2.3,5.3-2.5,7.6-0.6s2.5,5.3,0.6,7.6c-1.9,2.3-5.3,2.5-7.6,0.6
	C187.3,66,187,62.6,188.9,60.3z M182.2,109c-1.9,2.3-5.3,2.5-7.6,0.6c-2.3-1.9-2.5-5.3-0.6-7.6c1.9-2.3,5.3-2.5,7.6-0.6
	C183.8,103.3,184.1,106.7,182.2,109z M171.6,80.8c1.9-2.3,5.3-2.5,7.6-0.6c2.3,1.9,2.5,5.3,0.6,7.6c-1.9,2.3-5.3,2.5-7.6,0.6
	C169.9,86.5,169.6,83.1,171.6,80.8z M192.4,88.6c-2.3-1.9-2.5-5.3-0.6-7.6c1.9-2.3,5.3-2.5,7.6-0.6c2.3,1.9,2.5,5.3,0.6,7.6
	C198,90.3,194.6,90.5,192.4,88.6z M203.5,107.8c-1.9,2.3-5.3,2.5-7.6,0.6c-2.3-1.9-2.5-5.3-0.6-7.6c1.9-2.3,5.3-2.5,7.6-0.6
	C205.1,102.2,205.4,105.6,203.5,107.8z M209.5,60.1c1.9-2.3,5.3-2.5,7.6-0.6c2.3,1.9,2.5,5.3,0.6,7.6c-1.9,2.3-5.3,2.5-7.6,0.6
	C207.8,65.7,207.6,62.3,209.5,60.1z M220.9,87.3c-1.9,2.3-5.3,2.5-7.6,0.6c-2.3-1.9-2.5-5.3-0.6-7.6c1.9-2.3,5.3-2.5,7.6-0.6
	C222.5,81.7,222.8,85,220.9,87.3z"/>
<circle fill="#FFFFFF" cx="33.3" cy="136.6" r="5.4"/>
<circle fill="#FFFFFF" cx="50.7" cy="116.1" r="5.4"/>
<circle fill="#FFFFFF" cx="57" cy="156.7" r="5.4"/>
<circle fill="#FFFFFF" cx="74.4" cy="136.1" r="5.4"/>
<circle fill="#FFFFFF" cx="53.4" cy="136.8" r="5.4"/>
<circle fill="#FFFFFF" cx="71.2" cy="115.9" r="5.4"/>
<circle fill="#FFFFFF" cx="35.7" cy="157.8" r="5.4"/>
</svg>
