<?xml version="1.0" encoding="utf-8"?>
<!-- Generator: Adobe Illustrator 17.0.0, SVG Export Plug-In . SVG Version: 6.00 Build 0)  -->
<!DOCTYPE svg PUBLIC "-//W3C//DTD SVG 1.1//EN" "http://www.w3.org/Graphics/SVG/1.1/DTD/svg11.dtd">
<svg version="1.1" id="Layer_1" xmlns="http://www.w3.org/2000/svg" xmlns:xlink="http://www.w3.org/1999/xlink" x="0px" y="0px"
	 width="145.527px" height="819.729px" viewBox="0 0 145.527 819.729" enable-background="new 0 0 145.527 819.729"
	 xml:space="preserve">
<g>
	<g>
		<rect x="54.368" y="13.797" fill="#468AA4" width="36.791" height="34.3"/>
	</g>
	<g>
		<path fill="#468AA4" d="M89.988,18.604c0.744-1.499,1.171-3.114,1.171-4.808C91.159,6.177,82.923,0,72.764,0
			S54.368,6.177,54.368,13.797c0,1.694,0.427,3.309,1.171,4.808H89.988z"/>
	</g>
	<g>
		<path fill="#468AA4" d="M89.387,62.886H56.14c0,0-20.572,65.973-22.467,71.939c-1.895,5.966-4.484,16.7-4.484,25.346v78.761
			h87.147v-78.761c0-8.646-2.517-19.048-4.484-25.346C109.887,128.527,89.387,62.886,89.387,62.886z"/>
	</g>
	<g>
		<rect x="19.037" y="238.932" fill="#468AA4" width="107.453" height="580.797"/>
	</g>
	<g>
		<path fill="#468AA4" d="M134.527,371.09H11c-6.05,0-11-4.95-11-11l0-5.921c0-6.05,4.95-11,11-11h123.527c6.05,0,11,4.95,11,11
			v5.921C145.527,366.141,140.577,371.09,134.527,371.09z"/>
	</g>
	<g>
		<path fill="#468AA4" d="M129.451,266.853H16.077c-6.05,0-11-4.95-11-11v-5.921c0-6.05,4.95-11,11-11h113.374c6.05,0,11,4.95,11,11
			v5.921C140.451,261.903,135.501,266.853,129.451,266.853z"/>
	</g>
	<g>
		<circle fill="#98D8E8" cx="72.764" cy="193.017" r="5.077"/>
	</g>
	<g>
		<path fill="#98D8E8" d="M72.763,195.556c-1.402,0-2.538-1.137-2.538-2.538v-33.661c0-1.402,1.137-2.538,2.538-2.538
			s2.538,1.137,2.538,2.538v33.661C75.301,194.419,74.165,195.556,72.763,195.556z"/>
	</g>
	<g>
		<path fill="#98D8E8" d="M72.766,195.556c-0.877,0-1.73-0.455-2.201-1.269c-0.7-1.213-0.285-2.766,0.93-3.468l17.655-10.194
			c1.212-0.703,2.765-0.285,3.468,0.93c0.7,1.213,0.285,2.766-0.93,3.468l-17.655,10.194
			C73.633,195.447,73.196,195.556,72.766,195.556z"/>
	</g>
	<g>
		<path fill="#468AA4" d="M95.184,73.894H50.343c-6.05,0-11-4.95-11-11v-5.921c0-6.05,4.95-11,11-11h44.841c6.05,0,11,4.95,11,11
			v5.921C106.184,68.944,101.234,73.894,95.184,73.894z"/>
	</g>
	<g>
		<path fill="#98D8E8" d="M66.418,45.466c-1.402,0-2.538-1.137-2.538-2.538V19.226c0-1.402,1.137-2.538,2.538-2.538
			c1.402,0,2.538,1.137,2.538,2.538v23.702C68.956,44.329,67.819,45.466,66.418,45.466z"/>
	</g>
	<g>
		<path fill="#98D8E8" d="M79.109,45.466c-1.402,0-2.538-1.137-2.538-2.538V19.226c0-1.402,1.137-2.538,2.538-2.538
			s2.538,1.137,2.538,2.538v23.702C81.647,44.329,80.511,45.466,79.109,45.466z"/>
	</g>
</g>
</svg>
