<svg xmlns="http://www.w3.org/2000/svg" width="145.527" height="819.729" viewBox="0 0 145.527 819.729"><path fill="#468AA4" d="M54.368 13.797h36.791v34.3h-36.791zM89.988 18.604c.744-1.499 1.171-3.114 1.171-4.808 0-7.619-8.236-13.796-18.395-13.796s-18.396 6.177-18.396 13.797c0 1.694.427 3.309 1.171 4.808h34.449zM89.387 62.886h-33.247s-20.572 65.973-22.467 71.939c-1.895 5.966-4.484 16.7-4.484 25.346v78.761h87.147v-78.761c0-8.646-2.517-19.048-4.484-25.346-1.965-6.298-22.465-71.939-22.465-71.939zM19.037 238.932h107.453v580.797h-107.453zM134.527 371.09h-123.527c-6.05 0-11-4.95-11-11v-5.921c0-6.05 4.95-11 11-11h123.527c6.05 0 11 4.95 11 11v5.921c0 6.051-4.95 11-11 11zM129.451 266.853h-113.374c-6.05 0-11-4.95-11-11v-5.921c0-6.05 4.95-11 11-11h113.374c6.05 0 11 4.95 11 11v5.921c0 6.05-4.95 11-11 11z"/><circle fill="#98D8E8" cx="72.764" cy="193.017" r="5.077"/><path fill="#98D8E8" d="M72.763 195.556c-1.402 0-2.538-1.137-2.538-2.538v-33.661c0-1.402 1.137-2.538 2.538-2.538s2.538 1.137 2.538 2.538v33.661c0 1.401-1.136 2.538-2.538 2.538zM72.766 195.556c-.877 0-1.73-.455-2.201-1.269-.7-1.213-.285-2.766.93-3.468l17.655-10.194c1.212-.703 2.765-.285 3.468.93.7 1.213.285 2.766-.93 3.468l-17.655 10.194c-.4.23-.837.339-1.267.339z"/><path fill="#468AA4" d="M95.184 73.894h-44.841c-6.05 0-11-4.95-11-11v-5.921c0-6.05 4.95-11 11-11h44.841c6.05 0 11 4.95 11 11v5.921c0 6.05-4.95 11-11 11z"/><path fill="#98D8E8" d="M66.418 45.466c-1.402 0-2.538-1.137-2.538-2.538v-23.702c0-1.402 1.137-2.538 2.538-2.538 1.402 0 2.538 1.137 2.538 2.538v23.702c0 1.401-1.137 2.538-2.538 2.538zM79.109 45.466c-1.402 0-2.538-1.137-2.538-2.538v-23.702c0-1.402 1.137-2.538 2.538-2.538s2.538 1.137 2.538 2.538v23.702c0 1.401-1.136 2.538-2.538 2.538z"/></svg>