<?xml version="1.0" encoding="utf-8"?>
<!-- Generator: Adobe Illustrator 17.0.0, SVG Export Plug-In . SVG Version: 6.00 Build 0)  -->
<!DOCTYPE svg PUBLIC "-//W3C//DTD SVG 1.1//EN" "http://www.w3.org/Graphics/SVG/1.1/DTD/svg11.dtd">
<svg version="1.1" id="Layer_1" xmlns="http://www.w3.org/2000/svg" xmlns:xlink="http://www.w3.org/1999/xlink" x="0px" y="0px"
	 width="708.6px" height="865.8px" viewBox="0 0 708.6 865.8" enable-background="new 0 0 708.6 865.8" xml:space="preserve">
<g>
	<polygon fill="#7DACBB" points="0,45.4 305.4,328.6 305.4,363.4 0,446.1 	"/>
	<polygon fill="#7DACBB" points="140.4,379.1 360.4,328.6 708.6,329 521.4,415.9 140.4,415.9 	"/>
	<polygon fill="#418499" points="393,865.8 183.3,865.8 183.3,408.9 328.1,385 	"/>
	<rect x="328.1" y="385" fill="#468AA4" width="209.7" height="480.8"/>
	<polygon fill="#B3E1EA" points="708.6,292.2 360.4,328.6 360.4,363.4 708.6,329 	"/>
	<polygon fill="#468AA4" points="256.5,363.4 38.4,208.3 38.4,865.8 256.5,865.8 	"/>
	<polygon fill="#B3E1EA" points="0,0 305.4,328.6 305.4,363.4 0,49.3 	"/>
	<g>
		<polygon fill="#57B1BD" points="401.2,719.6 387.8,753.4 384,782.8 388.9,807.5 393.8,834.1 392.4,850.3 387.8,857.6 328.1,857.6 
			328.1,787.9 		"/>
		<polygon fill="#57B1BD" points="177.3,574.2 178,565.4 192.9,562.1 202.2,564.9 214.8,596.6 		"/>
		<polygon fill="#48A3AD" points="185.2,569.1 177.3,574.2 177.8,584.2 192,594 227.2,611.7 237.7,633.2 253.8,674 260.3,692.6 
			268.4,717.8 285,695.9 307.8,683.8 288.9,653.9 275.7,634.4 280.8,611.7 309.7,597.3 297.3,591.7 282.2,598.5 263.5,616.2 
			247.7,621.1 209.5,588.4 196.2,572.4 		"/>
		<polygon fill="#57B1BD" points="161,554.1 149.5,549.2 136.2,553.7 130.6,567.7 131.6,590.8 143.9,603 159.3,609.3 171.1,617.7 
			204.3,625.4 223.9,624.7 247.7,621.1 263.5,616.2 282.2,598.5 297.3,591.7 309.7,597.3 280.8,611.7 275.7,634.4 307.8,683.8 
			285,695.9 268.4,717.8 257.1,736.5 252.2,764.9 257.1,785.5 273.9,828.1 379.8,828.1 392.4,750.9 400.8,720.8 400.5,688.7 
			393.1,660.7 386.1,644.3 356.8,604.1 338.9,579.9 330.2,545.3 309.9,519.1 271.8,491.5 246.3,474.4 220.4,469.8 199.1,469.5 
			187.9,463.5 177.5,464.2 186.5,473.3 191.1,502.3 191.4,539.4 215.5,544.6 220.9,562.6 219.4,566.7 202.6,572.9 189.7,581 
			170.1,586.6 166.6,574.7 167.3,560.7 		"/>
		<polygon fill="#48A3AD" points="160.8,552.3 163.1,537.9 171,519.7 171,508 182.2,485.7 185,477.7 175.7,468 177.5,464.2 
			185.2,465.2 192,474.2 197.8,474.9 194.1,501.5 209.2,515.3 220.9,519.7 228.1,526 229.3,532 225.3,543.7 224.2,554.4 
			220.9,562.6 210.9,552.1 207.8,548.8 194.8,554.4 186.9,561.4 176.4,561.4 165.9,557.2 		"/>
		<polygon fill="#57B1BD" points="257.1,771.5 257.2,798.9 247.9,819.5 220,835.6 213.4,857.6 313.2,857.6 321.6,851 325.3,831.2 
			320.6,804.8 345.8,765.9 		"/>
		<polygon fill="#48A3AD" points="337.2,773.2 324.4,784.2 320.6,804.8 325.3,831.2 321.6,851 313.2,857.6 367.2,857.6 372.8,846.6 
			371.4,830.6 351.4,820.2 342.8,808.9 344.9,790.8 353.3,748.8 		"/>
		<polygon fill="#48A3AD" points="381.9,759.3 365.1,780.2 337.2,797.7 337.2,818.7 352.6,824.3 361.7,800.5 374.2,782.3 		"/>
	</g>
</g>
</svg>
