<?xml version="1.0" encoding="utf-8"?>
<!-- Generator: Adobe Illustrator 17.0.0, SVG Export Plug-In . SVG Version: 6.00 Build 0)  -->
<!DOCTYPE svg PUBLIC "-//W3C//DTD SVG 1.1//EN" "http://www.w3.org/Graphics/SVG/1.1/DTD/svg11.dtd">
<svg version="1.1" id="Layer_1" xmlns="http://www.w3.org/2000/svg" xmlns:xlink="http://www.w3.org/1999/xlink" x="0px" y="0px"
	 width="189.8px" height="402.5px" viewBox="0 0 189.8 402.5" enable-background="new 0 0 189.8 402.5" xml:space="preserve">
	<polyline fill="#BA394A" points="6.4,0 183.3,0 183.3,391.3 6.4,391.3 6.4,0 	"/>
	<polyline fill="#C54153" points="6.4,0 94,0 94,391.3 6.4,391.3 6.4,0 	"/>
	<path fill="#A02F3E" d="M0,390.3c0.7,6.8,6.5,12.2,13.5,12.2h162.8c7,0,12.8-5.3,13.5-12.2H0"/>
	<circle fill="#A02F3E" cx="95.1" cy="259.3" r="42"/>
	<circle fill="#FFFFFF" cx="95.1" cy="255.5" r="38.5"/>
	<circle fill="#A02F3E" cx="95.1" cy="275.3" r="9.6"/>
	<circle fill="#FFFFFF" cx="89.6" cy="272" r="2.6"/>
	<path fill="#A02F3E" d="M70.7,314c0.8,12.5,11.2,22.3,23.9,22.3s23-9.9,23.9-22.3H70.7z"/>
	<path fill="#FFFFFF" d="M81.7,314.6c0.1,1.9,1.7,3.3,3.6,3.3s3.4-1.5,3.6-3.3H81.7z"/>
	<path fill="#FFFFFF" d="M91,314.6c0.1,1.9,1.7,3.3,3.6,3.3c1.9,0,3.4-1.5,3.6-3.3H91z"/>
	<path fill="#FFFFFF" d="M100.3,314.6c0.1,1.9,1.7,3.3,3.6,3.3c1.9,0,3.4-1.5,3.6-3.3H100.3z"/>
	<path fill="#A83242" d="M94,390.3L94,390.3H6.4H0c0.7,6.8,6.5,12.2,13.5,12.2H94V390.3"/>
</svg>
