<?xml version="1.0" encoding="utf-8"?>
<!-- Generator: Adobe Illustrator 17.0.0, SVG Export Plug-In . SVG Version: 6.00 Build 0)  -->
<!DOCTYPE svg PUBLIC "-//W3C//DTD SVG 1.1//EN" "http://www.w3.org/Graphics/SVG/1.1/DTD/svg11.dtd">
<svg version="1.1" id="Layer_1" xmlns="http://www.w3.org/2000/svg" xmlns:xlink="http://www.w3.org/1999/xlink" x="0px" y="0px"
	 width="189.8px" height="402.5px" viewBox="0 0 189.8 402.5" enable-background="new 0 0 189.8 402.5" xml:space="preserve">
<polyline fill="#BA394A" points="6.4,0 183.3,0 183.3,391.3 6.4,391.3 6.4,0 "/>
<polyline fill="#C54153" points="6.4,0 94,0 94,391.3 6.4,391.3 6.4,0 "/>
<path fill="#A02F3E" d="M0,390.3c0.7,6.8,6.5,12.2,13.5,12.2h162.8c7,0,12.8-5.3,13.5-12.2H0"/>
<path fill="#A02F3D" d="M134.3,271.8c1.3-4,2-8.3,2-12.7c0-22.9-18.6-41.5-41.5-41.5s-41.5,18.6-41.5,41.5c0,4.4,0.7,8.7,2,12.7
	C81.4,268.3,108,268.3,134.3,271.8"/>
<path fill="#FFFFFF" d="M130.9,267c1.2-3.7,1.8-7.6,1.8-11.6c0-21-17-38.1-38.1-38.1c-21,0-38.1,17-38.1,38.1c0,4.1,0.6,8,1.8,11.6
	C82.5,264,106.9,264,130.9,267"/>
<path fill="#A02F3D" d="M104.2,258.8c0,5.3-4.3,9.5-9.5,9.5c-5.3,0-9.5-4.3-9.5-9.5c0-5.3,4.3-9.5,9.5-9.5
	C100,249.3,104.2,253.5,104.2,258.8"/>
<path fill="#FFFFFF" d="M91.8,255.6c0,1.4-1.1,2.5-2.5,2.5s-2.5-1.1-2.5-2.5s1.1-2.5,2.5-2.5C90.7,253,91.8,254.2,91.8,255.6"/>
<path fill="#A02F3D" d="M68.9,320.6c1.5,0,2.5,0.1,3.3,0.3c0.6,0.1,1.2,0.3,1.7,0.6c0.9,0.3,1.9,0.8,3.2,1.1c1.3,0.4,2.9,0.6,5,0.6
	c1.8,0,3.3-0.2,4.5-0.5c0.9-0.2,1.7-0.5,2.4-0.7c1-0.4,1.8-0.7,2.7-1c0.9-0.2,2-0.4,3.6-0.4c1.5,0,2.5,0.1,3.3,0.3
	c0.6,0.1,1.2,0.3,1.7,0.6c0.9,0.3,1.9,0.8,3.2,1.1c1.3,0.4,2.9,0.6,5,0.6c1.8,0,3.3-0.2,4.5-0.5c0.9-0.2,1.7-0.5,2.4-0.8
	c1-0.4,1.8-0.7,2.7-1c0.9-0.2,2-0.4,3.6-0.4c1.4,0,2.6-1.2,2.6-2.6s-1.2-2.6-2.6-2.6c-1.8,0-3.3,0.2-4.5,0.5
	c-0.9,0.2-1.7,0.5-2.4,0.7c-1,0.4-1.8,0.7-2.7,1c-0.9,0.2-2,0.4-3.6,0.4c-1.5,0-2.5-0.1-3.3-0.3c-0.6-0.1-1.2-0.3-1.7-0.5
	c-0.9-0.3-1.9-0.8-3.2-1.1c-1.3-0.4-2.9-0.6-5-0.6c-1.8,0-3.3,0.2-4.5,0.5c-0.9,0.2-1.7,0.5-2.4,0.8c-1,0.4-1.8,0.7-2.7,1
	c-0.9,0.2-2,0.4-3.6,0.4c-1.5,0-2.5-0.1-3.3-0.3c-0.6-0.1-1.2-0.3-1.7-0.5c-0.9-0.3-1.9-0.8-3.2-1.1c-1.3-0.4-2.9-0.6-5-0.6
	c-1.4,0-2.6,1.2-2.6,2.6C66.3,319.5,67.5,320.6,68.9,320.6z"/>
<path fill="#A83242" d="M94,390.3L94,390.3H6.4H0c0.7,6.8,6.5,12.2,13.5,12.2H94V390.3"/>
</svg>
