<?xml version="1.0" encoding="utf-8"?>
<!-- Generator: Adobe Illustrator 17.0.0, SVG Export Plug-In . SVG Version: 6.00 Build 0)  -->
<!DOCTYPE svg PUBLIC "-//W3C//DTD SVG 1.1//EN" "http://www.w3.org/Graphics/SVG/1.1/DTD/svg11.dtd">
<svg version="1.1" id="Layer_1" xmlns="http://www.w3.org/2000/svg" xmlns:xlink="http://www.w3.org/1999/xlink" x="0px" y="0px"
	 width="189.8px" height="402.5px" viewBox="0 0 189.8 402.5" enable-background="new 0 0 189.8 402.5" xml:space="preserve">
<rect x="6.4" fill="#BA394A" width="176.9" height="391.3"/>
<rect x="6.4" fill="#C54153" enable-background="new    " width="87.6" height="391.3"/>
<path fill="#A02F3E" d="M0,390.3c0.7,6.8,6.5,12.2,13.5,12.2h162.8c7,0,12.8-5.3,13.5-12.2H0z"/>
<path fill="#A02F3D" d="M134.6,272c1.3-4,2-8.3,2-12.8c0-23.2-18.8-42-41.9-42s-41.9,18.8-41.9,42c0,4.5,0.7,8.8,2,12.8
	C81.3,268.4,108.1,268.4,134.6,272"/>
<path fill="#FFFFFF" d="M131.3,267.1c1.2-3.7,1.8-7.6,1.8-11.7c0-21.2-17.2-38.4-38.4-38.4s-38.4,17.2-38.4,38.4
	c0,4.1,0.6,8,1.8,11.7C82.4,264.1,107,264.1,131.3,267.1"/>
<path fill="#A02F3D" d="M104.3,258.8c0,5.3-4.3,9.6-9.6,9.6c-5.3,0-9.6-4.3-9.6-9.6c0-5.3,4.3-9.6,9.6-9.6S104.3,253.5,104.3,258.8"
	/>
<path fill="#FFFFFF" d="M91.8,255.5c0,1.4-1.1,2.6-2.6,2.6c-1.4,0-2.6-1.1-2.6-2.6s1.1-2.6,2.6-2.6C90.6,253,91.8,254.1,91.8,255.5"
	/>
<path fill="#A02F3D" d="M98,318.5c0,1.8-1.5,3.3-3.3,3.3s-3.3-1.5-3.3-3.3s1.5-3.3,3.3-3.3C96.5,315.3,98,316.7,98,318.5"/>
<path opacity="0.32" fill="#BA394A" enable-background="new    " d="M94,390.3H0c0.7,6.8,6.5,12.2,13.5,12.2H94V390.3z"/>
</svg>
