<?xml version="1.0" encoding="utf-8"?>
<!-- Generator: Adobe Illustrator 15.0.0, SVG Export Plug-In . SVG Version: 6.00 Build 0)  -->
<!DOCTYPE svg PUBLIC "-//W3C//DTD SVG 1.1//EN" "http://www.w3.org/Graphics/SVG/1.1/DTD/svg11.dtd">
<svg version="1.1" id="Layer_1" xmlns="http://www.w3.org/2000/svg" xmlns:xlink="http://www.w3.org/1999/xlink" x="0px" y="0px"
	 width="115.406px" height="148.459px" viewBox="0 0 115.406 148.459" enable-background="new 0 0 115.406 148.459"
	 xml:space="preserve">
<rect x="3.918" fill="#BC3948" width="107.569" height="142.05"/>
<rect x="3.918" fill="#C94153" width="53.252" height="141.651"/>
<path fill="#A02E3C" d="M0,141.052c0.422,4.16,3.936,7.407,8.207,7.407H107.2c4.272,0,7.786-3.247,8.207-7.407H0z"/>
<path fill="#B43649" d="M57.17,141.052H0c0.421,4.16,3.936,7.407,8.207,7.407H57.17V141.052z"/>
<path fill="#A02E3C" d="M81.353,69.36c0.786-2.459,1.215-5.077,1.215-7.797c0-14.11-11.438-25.549-25.548-25.549
	c-14.11,0-25.548,11.439-25.548,25.549c0,2.726,0.431,5.35,1.221,7.813C48.839,67.193,65.204,67.188,81.353,69.36"/>
<path fill="#FFFFFF" d="M79.314,66.381c0.72-2.25,1.111-4.647,1.111-7.137c0-12.927-10.479-23.406-23.406-23.406
	c-12.928,0-23.406,10.48-23.406,23.407c0,2.495,0.394,4.896,1.116,7.15C49.535,64.563,64.509,64.559,79.314,66.381"/>
<path fill="#A02E3C" d="M62.887,61.348c0,3.24-2.628,5.867-5.867,5.867c-3.24,0-5.867-2.627-5.867-5.867
	c0-3.24,2.627-5.867,5.867-5.867C60.26,55.481,62.887,58.108,62.887,61.348"/>
<path fill="#FFFFFF" d="M55.247,59.346c0,0.863-0.699,1.562-1.562,1.562s-1.562-0.699-1.562-1.562c0-0.863,0.7-1.562,1.562-1.562
	S55.247,58.483,55.247,59.346"/>
<path fill="#A02E3C" d="M59.017,90.606c0,1.104-0.895,1.998-1.997,1.998c-1.104,0-1.997-0.895-1.997-1.998
	c0-1.103,0.895-1.996,1.997-1.996S59.017,89.503,59.017,90.606"/>
</svg>
