<?xml version="1.0" encoding="utf-8"?>
<!-- Generator: Adobe Illustrator 15.0.0, SVG Export Plug-In . SVG Version: 6.00 Build 0)  -->
<!DOCTYPE svg PUBLIC "-//W3C//DTD SVG 1.1//EN" "http://www.w3.org/Graphics/SVG/1.1/DTD/svg11.dtd">
<svg version="1.1" id="Layer_1" xmlns="http://www.w3.org/2000/svg" xmlns:xlink="http://www.w3.org/1999/xlink" x="0px" y="0px"
	 width="115.406px" height="148.459px" viewBox="0 0 115.406 148.459" enable-background="new 0 0 115.406 148.459"
	 xml:space="preserve">
<rect x="3.918" fill="#BC3948" width="107.569" height="142.05"/>
<rect x="3.918" fill="#C94153" width="53.252" height="141.651"/>
<path fill="#A02E3C" d="M0,141.052c0.422,4.16,3.936,7.407,8.207,7.407H107.2c4.272,0,7.786-3.247,8.207-7.407H0z"/>
<path fill="#B43649" d="M57.17,141.052H0c0.421,4.16,3.936,7.407,8.207,7.407H57.17V141.052z"/>
<path fill="#A02E3C" d="M81.352,69.184c0.787-2.459,1.216-5.077,1.216-7.797c0-14.11-11.438-25.549-25.548-25.549
	c-14.11,0-25.549,11.439-25.549,25.549c0,2.726,0.431,5.35,1.221,7.813C48.839,67.017,65.204,67.012,81.352,69.184"/>
<path fill="#FFFFFF" d="M79.314,66.206c0.72-2.25,1.11-4.647,1.11-7.137c0-12.927-10.479-23.406-23.405-23.406
	c-12.928,0-23.407,10.479-23.407,23.406c0,2.495,0.394,4.896,1.117,7.15C49.535,64.387,64.508,64.383,79.314,66.206"/>
<path fill="#A02E3C" d="M62.887,61.172c0,3.24-2.628,5.867-5.867,5.867c-3.24,0-5.867-2.627-5.867-5.867
	c0-3.24,2.626-5.867,5.867-5.867S62.887,57.932,62.887,61.172"/>
<path fill="#FFFFFF" d="M55.247,59.17c0,0.863-0.699,1.562-1.562,1.562c-0.864,0-1.563-0.699-1.563-1.562
	c0-0.863,0.699-1.562,1.563-1.562C54.548,57.608,55.247,58.308,55.247,59.17"/>
<path fill="#A02E3C" d="M41.191,87.302c0.912,0.001,1.535,0.088,2.043,0.207c0.383,0.092,0.709,0.202,1.064,0.34
	c0.529,0.198,1.143,0.471,1.957,0.689c0.814,0.218,1.799,0.363,3.056,0.361c1.118,0,2.018-0.112,2.776-0.293
	c0.569-0.133,1.052-0.304,1.469-0.461c0.63-0.244,1.097-0.444,1.642-0.59c0.547-0.146,1.204-0.253,2.23-0.255
	c0.911,0.001,1.534,0.089,2.044,0.207c0.383,0.091,0.709,0.202,1.063,0.339c0.53,0.2,1.144,0.473,1.958,0.69
	c0.813,0.218,1.798,0.362,3.056,0.36c1.118,0.002,2.02-0.111,2.778-0.291c0.569-0.135,1.052-0.305,1.47-0.463
	c0.632-0.242,1.098-0.443,1.645-0.59c0.547-0.145,1.204-0.252,2.23-0.254c0.884,0,1.599-0.716,1.599-1.597
	c0-0.884-0.715-1.599-1.599-1.599c-1.117,0-2.019,0.111-2.777,0.293c-0.569,0.134-1.054,0.303-1.471,0.461
	c-0.63,0.242-1.097,0.445-1.644,0.59s-1.204,0.253-2.231,0.255c-0.911-0.001-1.534-0.088-2.045-0.208
	c-0.383-0.09-0.708-0.201-1.064-0.338c-0.528-0.2-1.143-0.473-1.957-0.69c-0.813-0.219-1.798-0.362-3.055-0.36
	c-1.118-0.002-2.019,0.11-2.777,0.291c-0.569,0.135-1.052,0.304-1.469,0.463c-0.631,0.242-1.098,0.445-1.644,0.59
	c-0.546,0.144-1.203,0.252-2.229,0.254c-0.912-0.001-1.534-0.088-2.043-0.208c-0.384-0.09-0.708-0.201-1.064-0.338
	c-0.529-0.2-1.143-0.472-1.957-0.69c-0.813-0.219-1.798-0.363-3.055-0.361c-0.882,0-1.597,0.716-1.597,1.599
	C39.594,86.587,40.309,87.302,41.191,87.302z"/>
</svg>
