<?xml version="1.0" encoding="utf-8"?>
<!-- Generator: Adobe Illustrator 15.0.0, SVG Export Plug-In . SVG Version: 6.00 Build 0)  -->
<!DOCTYPE svg PUBLIC "-//W3C//DTD SVG 1.1//EN" "http://www.w3.org/Graphics/SVG/1.1/DTD/svg11.dtd">
<svg version="1.1" id="Layer_1" xmlns="http://www.w3.org/2000/svg" xmlns:xlink="http://www.w3.org/1999/xlink" x="0px" y="0px"
	 width="1501.473px" height="42.223px" viewBox="0 0 1501.473 42.223" enable-background="new 0 0 1501.473 42.223"
	 xml:space="preserve">
<path fill="#A3CF69" d="M1501.473,11.308c0-6.244-5.063-11.308-11.308-11.308c-4.681,0-8.695,2.843-10.415,6.896
	C1478.03,2.843,1474.016,0,1469.336,0c-4.681,0-8.695,2.843-10.415,6.896C1457.202,2.843,1453.187,0,1448.507,0
	s-8.695,2.843-10.415,6.896C1436.373,2.843,1432.357,0,1427.678,0s-8.695,2.843-10.415,6.896C1415.544,2.843,1411.528,0,1406.849,0
	s-8.695,2.843-10.414,6.896C1394.715,2.843,1390.7,0,1386.02,0c-4.68,0-8.694,2.843-10.415,6.896
	C1373.886,2.843,1369.871,0,1365.19,0c-4.68,0-8.694,2.843-10.414,6.896c-1.72-4.054-5.734-6.896-10.415-6.896
	c-4.68,0-8.694,2.843-10.415,6.896C1332.228,2.843,1328.213,0,1323.532,0c-4.68,0-8.694,2.843-10.413,6.896
	C1311.398,2.843,1307.384,0,1302.704,0c-4.681,0-8.695,2.843-10.414,6.896C1290.569,2.843,1286.555,0,1281.875,0
	c-4.681,0-8.695,2.843-10.414,6.896c-1.72-4.054-5.735-6.896-10.415-6.896s-8.695,2.843-10.414,6.896
	c-1.72-4.054-5.735-6.896-10.415-6.896s-8.695,2.843-10.414,6.896c-1.72-4.054-5.735-6.896-10.415-6.896s-8.695,2.843-10.414,6.896
	c-1.72-4.054-5.734-6.896-10.415-6.896c-4.68,0-8.694,2.843-10.414,6.896C1186.426,2.843,1182.41,0,1177.729,0
	c-4.679,0-8.694,2.843-10.414,6.896C1165.597,2.843,1161.581,0,1156.9,0c-4.68,0-8.694,2.843-10.414,6.896
	C1144.768,2.843,1140.752,0,1136.071,0c-4.679,0-8.694,2.843-10.414,6.896C1123.938,2.843,1119.923,0,1115.243,0
	c-4.681,0-8.695,2.843-10.414,6.896c-1.72-4.054-5.735-6.896-10.414-6.896c-4.681,0-8.696,2.843-10.415,6.896
	C1082.28,2.843,1078.265,0,1073.585,0s-8.695,2.843-10.414,6.896C1061.452,2.843,1057.436,0,1052.757,0
	c-4.68,0-8.696,2.843-10.415,6.896C1040.623,2.843,1036.606,0,1031.927,0c-4.679,0-8.695,2.843-10.414,6.896
	C1019.794,2.843,1015.777,0,1011.099,0c-4.68,0-8.696,2.843-10.415,6.896C998.965,2.843,994.948,0,990.27,0
	c-4.68,0-8.696,2.843-10.415,6.896C978.136,2.843,974.121,0,969.44,0c-4.68,0-8.695,2.843-10.415,6.896
	C957.307,2.843,953.291,0,948.611,0s-8.695,2.843-10.415,6.896C936.478,2.843,932.463,0,927.782,0c-4.68,0-8.695,2.843-10.414,6.896
	C915.648,2.843,911.634,0,906.954,0c-4.681,0-8.695,2.843-10.415,6.896C894.819,2.843,890.805,0,886.125,0
	c-4.681,0-8.695,2.843-10.415,6.896C873.991,2.843,869.976,0,865.296,0s-8.695,2.843-10.415,6.896
	C853.162,2.843,849.146,0,844.467,0s-8.695,2.843-10.415,6.896C832.333,2.843,828.317,0,823.638,0s-8.695,2.843-10.415,6.896
	C811.504,2.843,807.489,0,802.809,0c-4.68,0-8.694,2.843-10.415,6.896C790.675,2.843,786.66,0,781.979,0
	c-4.68,0-8.694,2.843-10.415,6.896C769.846,2.843,765.831,0,761.15,0c-4.68,0-8.694,2.843-10.415,6.896
	C749.017,2.843,745.002,0,740.322,0s-8.695,2.843-10.414,6.896C728.188,2.843,724.173,0,719.493,0c-4.68,0-8.695,2.843-10.414,6.896
	C707.359,2.843,703.344,0,698.664,0c-4.68,0-8.695,2.843-10.414,6.896C686.53,2.843,682.515,0,677.835,0
	c-4.68,0-8.695,2.843-10.414,6.896C665.701,2.843,661.686,0,657.006,0c-4.68,0-8.695,2.843-10.414,6.896
	C644.872,2.843,640.857,0,636.177,0s-8.695,2.843-10.414,6.896C624.043,2.843,620.028,0,615.348,0c-4.68,0-8.695,2.843-10.414,6.896
	C603.214,2.843,599.199,0,594.519,0c-4.68,0-8.695,2.843-10.414,6.896C582.386,2.843,578.37,0,573.69,0
	c-4.68,0-8.695,2.843-10.414,6.896C561.557,2.843,557.541,0,552.861,0s-8.695,2.843-10.414,6.896C540.728,2.843,536.712,0,532.032,0
	s-8.695,2.843-10.414,6.896C519.899,2.843,515.883,0,511.203,0c-4.68,0-8.695,2.843-10.414,6.896C499.07,2.843,495.054,0,490.374,0
	c-4.679,0-8.695,2.843-10.414,6.896C478.241,2.843,474.225,0,469.546,0c-4.68,0-8.696,2.843-10.415,6.896
	C457.412,2.843,453.396,0,448.716,0c-4.679,0-8.695,2.843-10.414,6.896C436.583,2.843,432.567,0,427.888,0
	c-4.68,0-8.696,2.843-10.415,6.896C415.754,2.843,411.738,0,407.058,0c-4.679,0-8.695,2.843-10.414,6.896
	C394.925,2.843,390.91,0,386.229,0c-4.68,0-8.696,2.843-10.415,6.896C374.096,2.843,370.08,0,365.401,0
	c-4.68,0-8.696,2.843-10.415,6.896C353.267,2.843,349.252,0,344.572,0s-8.696,2.843-10.415,6.896C332.438,2.843,328.422,0,323.743,0
	c-4.68,0-8.696,2.843-10.415,6.896C311.609,2.843,307.594,0,302.914,0c-4.68,0-8.696,2.843-10.415,6.896
	C290.78,2.843,286.765,0,282.085,0c-4.68,0-8.695,2.843-10.415,6.896C269.951,2.843,265.936,0,261.256,0
	c-4.68,0-8.695,2.843-10.415,6.896C249.122,2.843,245.107,0,240.427,0c-4.68,0-8.695,2.843-10.415,6.896
	C228.293,2.843,224.278,0,219.598,0c-4.68,0-8.695,2.843-10.415,6.896C207.464,2.843,203.449,0,198.769,0
	c-4.68,0-8.695,2.843-10.415,6.896C186.635,2.843,182.62,0,177.94,0c-4.68,0-8.695,2.843-10.415,6.896
	C165.806,2.843,161.791,0,157.111,0s-8.695,2.843-10.415,6.896C144.977,2.843,140.962,0,136.282,0s-8.695,2.843-10.414,6.896
	C124.148,2.843,120.133,0,115.453,0c-4.68,0-8.695,2.843-10.414,6.896C103.319,2.843,99.304,0,94.624,0
	c-4.68,0-8.695,2.843-10.414,6.896C82.49,2.843,78.475,0,73.795,0c-4.68,0-8.695,2.843-10.414,6.896C61.661,2.843,57.646,0,52.966,0
	c-4.68,0-8.695,2.843-10.414,6.896C40.832,2.843,36.817,0,32.137,0c-4.68,0-8.695,2.843-10.414,6.896
	C20.003,2.843,15.988,0,11.308,0C5.062,0,0,5.063,0,11.308c0,2.477,0.805,4.76,2.155,6.621v24.294h1497.163V17.929
	C1500.668,16.067,1501.473,13.784,1501.473,11.308"/>
</svg>
