<?xml version="1.0" encoding="utf-8"?>
<!-- Generator: Adobe Illustrator 17.0.0, SVG Export Plug-In . SVG Version: 6.00 Build 0)  -->
<!DOCTYPE svg PUBLIC "-//W3C//DTD SVG 1.1//EN" "http://www.w3.org/Graphics/SVG/1.1/DTD/svg11.dtd">
<svg version="1.1" id="Layer_1" xmlns="http://www.w3.org/2000/svg" xmlns:xlink="http://www.w3.org/1999/xlink" x="0px" y="0px"
	 width="2274px" height="217.8px" viewBox="0 0 2274 217.8" enable-background="new 0 0 2274 217.8" xml:space="preserve">
<path fill="#9FCD84" d="M2250.9,0.3c-9.5,0-17.7,4.5-21.2,11c-3.5-6.5-11.7-11-21.2-11s-17.7,4.5-21.2,11c-3.5-6.5-11.7-11-21.2-11
	s-17.7,4.5-21.2,11c-3.5-6.5-11.7-11-21.2-11s-17.7,4.5-21.2,11c-3.5-6.5-11.7-11-21.2-11s-17.7,4.5-21.2,11
	c-3.5-6.5-11.7-11-21.2-11s-17.7,4.5-21.2,11c-3.5-6.5-11.7-11-21.2-11s-17.7,4.5-21.2,11c-3.5-6.5-11.7-11-21.2-11
	s-17.7,4.5-21.2,11c-3.5-6.5-11.7-11-21.2-11s-17.7,4.5-21.2,11c-3.5-6.5-11.7-11-21.2-11s-17.7,4.5-21.2,11
	c-3.5-6.5-11.7-11-21.2-11s-17.7,4.5-21.2,11c-3.5-6.5-11.7-11-21.2-11s-17.7,4.5-21.2,11c-3.5-6.5-11.7-11-21.2-11
	s-17.7,4.5-21.2,11c-3.5-6.5-11.7-11-21.2-11s-17.7,4.5-21.2,11c-3.5-6.5-11.7-11-21.2-11s-17.7,4.5-21.2,11
	c-3.5-6.5-11.7-11-21.2-11s-17.7,4.5-21.2,11c-3.5-6.5-11.7-11-21.2-11s-17.7,4.5-21.2,11c-3.5-6.5-11.7-11-21.2-11
	s-17.7,4.5-21.2,11c-3.5-6.5-11.7-11-21.2-11s-17.7,4.5-21.2,11c-3.5-6.5-11.7-11-21.2-11s-17.7,4.5-21.2,11
	c-0.5-0.9-1.1-1.7-1.7-2.6c-4-5.2-11.4-8.8-19.8-8.8c-9.5,0-17.7,4.5-21.2,10.9c-0.4-0.8-1-1.5-1.5-2.3c-4-5.2-11.4-8.7-19.7-8.7
	c-9.5,0-17.7,4.5-21.2,10.9c-0.4-0.8-1-1.5-1.5-2.3c-4-5.2-11.4-8.7-19.7-8.7c-9.5,0-17.7,4.5-21.2,10.9c-0.4-0.8-1-1.5-1.5-2.3
	c-4-5.2-11.4-8.7-19.7-8.7c-9.5,0-17.7,4.5-21.2,10.9c-0.4-0.8-1-1.5-1.5-2.3c-4-5.2-11.4-8.7-19.7-8.7c-9.5,0-17.7,4.5-21.2,10.9
	c-0.4-0.8-1-1.5-1.5-2.3c-4-5.2-11.4-8.7-19.7-8.7c-9.5,0-17.7,4.5-21.2,10.9c-0.4-0.8-1-1.5-1.5-2.3c-4-5.2-11.4-8.7-19.7-8.7
	c-9.5,0-17.7,4.5-21.2,10.9c-0.4-0.8-1-1.5-1.5-2.3c-4-5.2-11.4-8.7-19.7-8.7c-9.5,0-17.7,4.5-21.2,10.9c-0.4-0.8-1-1.5-1.5-2.3
	c-4-5.2-11.4-8.7-19.7-8.7c-9.5,0-17.7,4.5-21.2,10.9c-0.4-0.8-1-1.5-1.5-2.3c-4-5.2-11.4-8.7-19.7-8.7c-9.5,0-17.7,4.5-21.2,10.9
	c-0.4-0.8-1-1.5-1.5-2.3C991.9,3.5,984.6,0,976.2,0c-9.5,0-17.7,4.5-21.2,10.9c-0.4-0.8-1-1.5-1.5-2.3C949.4,3.5,942.1,0,933.7,0
	c-9.5,0-17.7,4.5-21.2,10.9c-0.4-0.8-1-1.5-1.5-2.3C906.9,3.5,899.6,0,891.2,0c-9.5,0-17.7,4.5-21.2,10.9c-0.4-0.8-0.9-1.5-1.5-2.2
	c-4-5.2-11.4-8.8-19.7-8.8c-9.5,0-17.7,4.5-21.2,11C824,4.5,815.8,0,806.3,0s-17.7,4.5-21.2,11c-3.6-6.5-11.8-11-21.3-11
	s-17.7,4.5-21.2,11C739,4.5,730.9,0,721.3,0c-9.5,0-17.7,4.5-21.2,11c-3.5-6.5-11.7-11-21.3-11c-9.5,0-17.7,4.5-21.2,11
	c-3.5-6.5-11.7-11-21.2-11s-17.7,4.5-21.2,11c-3.6-6.5-11.8-11-21.3-11s-17.7,4.5-21.2,11c-3.6-6.5-11.8-11-21.3-11
	s-17.7,4.5-21.2,11c-3.6-6.5-11.7-11-21.3-11c-9.5,0-17.7,4.5-21.2,11C484.2,4.5,476,0,466.4,0c-9.5,0-17.7,4.5-21.2,11
	c-3.5-6.5-11.7-11-21.3-11c-9.5,0-17.7,4.5-21.2,11C399.2,4.5,391,0,381.5,0s-17.7,4.5-21.2,11C356.7,4.5,348.5,0,339,0
	s-17.7,4.5-21.2,11C314.2,4.5,306,0,296.5,0s-17.7,4.5-21.2,11C271.8,4.5,263.6,0,254,0c-9.5,0-17.7,4.5-21.2,11
	c-3.5-6.5-11.7-11-21.3-11c-9.5,0-17.7,4.5-21.2,11c-3.5-6.5-11.7-11-21.2-11s-17.7,4.5-21.2,11c-3.6-6.5-11.8-11-21.3-11
	s-17.7,4.5-21.2,11C101.8,4.5,93.6,0,84.1,0S66.4,4.5,62.9,11C59.3,4.5,51.2,0,41.6,0c-9.5,0-17.7,4.5-21.2,11C17,4.8,9.2,0.3,0,0
	v217.4h849.9v0.3h1419.7V28.9c2.8-3,4.4-6.6,4.4-10.6C2274,8.4,2263.6,0.3,2250.9,0.3z"/>
</svg>
