<?xml version="1.0" encoding="utf-8"?>
<!-- Generator: Adobe Illustrator 17.0.0, SVG Export Plug-In . SVG Version: 6.00 Build 0)  -->
<!DOCTYPE svg PUBLIC "-//W3C//DTD SVG 1.1//EN" "http://www.w3.org/Graphics/SVG/1.1/DTD/svg11.dtd">
<svg version="1.1" id="Layer_1" xmlns="http://www.w3.org/2000/svg" xmlns:xlink="http://www.w3.org/1999/xlink" x="0px" y="0px"
	 width="952.4px" height="972.9px" viewBox="0 0 952.4 972.9" enable-background="new 0 0 952.4 972.9" xml:space="preserve">
	<path fill="#65ACCA" d="M862.2,77.5H812l0,70.1h0c-41.2,0-74.6,33.4-74.6,74.6v301H647V252.8H360.5v182h-58.3v-97.7
		c0-11.1-5.9-21.4-15.6-27l-12.2-7V185.9c0-11.1-5.9-21.4-15.6-27l-12.2-7V0H0v532v235.9v205h208.7h93.5h58.3h125.4h58.6H647h90.4
		h84.3h130.6V167.7C952.4,117.9,912,77.5,862.2,77.5z M68.9,104.9l-35,46.5c-0.8,1-1.9,1.5-3.1,1.5c-0.8,0-1.6-0.3-2.3-0.8
		c-1.7-1.3-2-3.7-0.8-5.4l35-46.5c1.3-1.7,3.7-2,5.4-0.8C69.9,100.8,70.2,103.2,68.9,104.9z M68.9,76l-35,46.5
		c-0.8,1-1.9,1.5-3.1,1.5c-0.8,0-1.6-0.3-2.3-0.8c-1.7-1.3-2-3.7-0.8-5.4l35-46.5c1.3-1.7,3.7-2,5.4-0.8
		C69.9,71.8,70.2,74.2,68.9,76z M68.9,47l-35,46.5c-0.8,1-1.9,1.5-3.1,1.5c-0.8,0-1.6-0.3-2.3-0.8c-1.7-1.3-2-3.7-0.8-5.4l35-46.5
		c1.3-1.7,3.7-2,5.4-0.8C69.9,42.9,70.2,45.3,68.9,47z"/>
</svg>
