<?xml version="1.0" encoding="utf-8"?>
<!-- Generator: Adobe Illustrator 15.0.0, SVG Export Plug-In . SVG Version: 6.00 Build 0)  -->
<!DOCTYPE svg PUBLIC "-//W3C//DTD SVG 1.1//EN" "http://www.w3.org/Graphics/SVG/1.1/DTD/svg11.dtd">
<svg version="1.1" id="Layer_1" xmlns="http://www.w3.org/2000/svg" xmlns:xlink="http://www.w3.org/1999/xlink" x="0px" y="0px"
	 width="26.94px" height="688.275px" viewBox="0 0 26.94 688.275" enable-background="new 0 0 26.94 688.275" xml:space="preserve">
<path fill="#FFFFFF" d="M12.542,0l-0.005,2.496c-0.015,3.98-0.611,6.455-1.454,8.62c-0.638,1.604-1.46,3.046-2.508,4.684
	l0.004-0.006L8.57,15.806c-1.529,2.416-3.709,5.324-5.518,9.329l-0.001,0.002C1.228,29.161-0.003,34.152,0,40.337v0.097v0.014v0.01
	v0.05c-0.002,5.508,0.955,10.069,2.467,13.857l-0.002-0.004c1.126,2.84,2.507,5.175,3.77,7.149l0.005,0.008
	c0.951,1.474,1.83,2.766,2.59,3.974c0.761,1.209,1.403,2.332,1.917,3.487c0.525,1.189,0.956,2.417,1.272,3.912
	c0.314,1.495,0.51,3.264,0.518,5.502c-0.016,3.976-0.611,6.447-1.453,8.611c-0.638,1.606-1.46,3.05-2.509,4.688L8.57,91.699
	c-1.529,2.417-3.711,5.326-5.521,9.334l-0.016,0.034l0.017-0.037c-1.824,4.024-3.055,9.015-3.051,15.2v0.097v0.014v0.01v0.05
	c-0.002,5.508,0.955,10.069,2.467,13.858l-0.002-0.004c1.126,2.84,2.507,5.175,3.77,7.15l0.005,0.008
	c0.951,1.473,1.83,2.765,2.59,3.973c0.761,1.209,1.403,2.331,1.917,3.487c0.525,1.188,0.956,2.416,1.272,3.913
	c0.314,1.495,0.51,3.265,0.518,5.502c-0.016,3.979-0.611,6.454-1.454,8.619c-0.639,1.608-1.461,3.05-2.51,4.688l-0.004,0.007
	c-1.53,2.419-3.709,5.329-5.52,9.338l0.001-0.002c-1.823,4.024-3.053,9.018-3.05,15.204v0.097v0.024v0.05
	c-0.002,5.508,0.955,10.069,2.467,13.858l-0.002-0.004c1.126,2.839,2.506,5.175,3.771,7.149l0.014,0.022
	c0.947,1.468,1.823,2.756,2.581,3.96c0.761,1.209,1.403,2.332,1.917,3.487c0.525,1.189,0.956,2.416,1.272,3.912
	c0.314,1.495,0.51,3.265,0.518,5.503c-0.016,3.979-0.611,6.454-1.455,8.619l0.003-0.009c-0.639,1.609-1.462,3.054-2.512,4.692
	l0.007-0.011l-0.012,0.019c-1.53,2.419-3.709,5.328-5.52,9.336c-1.822,4.023-3.053,9.015-3.049,15.201v0.097v0.015v0.01v0.05
	c-0.002,5.509,0.954,10.069,2.466,13.857c1.126,2.84,2.506,5.175,3.769,7.148l0.015,0.023l-0.01-0.017
	c0.951,1.475,1.83,2.768,2.59,3.977c0.762,1.209,1.403,2.332,1.917,3.488l-0.001-0.004c0.526,1.189,0.958,2.418,1.274,3.915
	c0.314,1.496,0.51,3.266,0.518,5.504c-0.016,3.981-0.611,6.457-1.455,8.623l0.005-0.014l-0.002,0.006
	c-0.639,1.609-1.462,3.054-2.512,4.694l-0.004,0.007c-1.53,2.419-3.71,5.33-5.52,9.339l0.001-0.002
	C1.227,332.79-0.003,337.783,0,343.97v0.097v0.015v0.01v0.05c-0.002,5.509,0.954,10.069,2.466,13.856
	c1.124,2.836,2.501,5.166,3.762,7.14l0.012,0.018c0.951,1.475,1.83,2.767,2.59,3.976c0.761,1.209,1.403,2.331,1.917,3.487
	l-0.025-0.056l0.023,0.052c0.526,1.19,0.958,2.419,1.274,3.916c0.314,1.496,0.51,3.266,0.518,5.504
	c-0.016,3.98-0.611,6.456-1.455,8.622l0.003-0.008c-0.639,1.609-1.462,3.054-2.512,4.692l-0.005,0.009
	c-1.53,2.419-3.71,5.328-5.52,9.338l0.001-0.002c-1.822,4.024-3.053,9.017-3.05,15.204v0.097v0.024v0.05
	c-0.002,5.509,0.954,10.07,2.466,13.858c1.126,2.84,2.506,5.176,3.769,7.15l0.005,0.007c0.951,1.475,1.83,2.767,2.59,3.976
	c0.762,1.209,1.403,2.332,1.917,3.488l-0.025-0.056l0.023,0.052c0.526,1.189,0.958,2.419,1.273,3.917
	c0.314,1.496,0.511,3.266,0.518,5.505c-0.016,3.979-0.611,6.453-1.455,8.618l0.003-0.009c-0.639,1.609-1.462,3.053-2.511,4.692
	l-0.008,0.013l0.003-0.006c-1.529,2.418-3.71,5.328-5.521,9.336L3.05,480.6c-1.823,4.024-3.054,9.016-3.05,15.202v0.097v0.015v0.01
	v0.05c-0.002,5.509,0.954,10.069,2.466,13.857c1.126,2.84,2.506,5.174,3.769,7.148l0.005,0.008c0.951,1.475,1.83,2.767,2.59,3.976
	c0.762,1.209,1.403,2.332,1.917,3.488l-0.025-0.058l0.024,0.054c0.526,1.19,0.958,2.419,1.274,3.916
	c0.314,1.496,0.51,3.266,0.518,5.505c-0.016,3.981-0.611,6.458-1.455,8.623c-0.637,1.608-1.46,3.052-2.509,4.69l-0.004,0.008
	c-1.53,2.419-3.71,5.331-5.52,9.341l-0.017,0.038l0.018-0.04c-1.823,4.025-3.053,9.02-3.05,15.207v0.097v0.024v0.05
	c-0.002,5.511,0.955,10.071,2.467,13.861l0.003,0.008c1.125,2.833,2.503,5.166,3.765,7.139l0.005,0.007
	c0.951,1.475,1.83,2.767,2.59,3.976c0.762,1.209,1.403,2.332,1.917,3.488l-0.025-0.058l0.024,0.054
	c0.526,1.19,0.958,2.419,1.273,3.916c0.314,1.496,0.511,3.267,0.518,5.506c-0.016,3.979-0.61,6.457-1.453,8.623
	c-0.64,1.611-1.462,3.059-2.511,4.698l-0.009,0.015l0.006-0.009c-1.532,2.421-3.711,5.335-5.521,9.344l0.001-0.002
	C1.227,636.5-0.003,641.494,0,647.683v0.097v0.015v0.01v0.05c-0.002,5.512,0.954,10.074,2.465,13.863
	c1.125,2.842,2.505,5.179,3.768,7.154l-0.014-0.022l0.019,0.03c0.951,1.475,1.83,2.768,2.59,3.978
	c0.761,1.21,1.403,2.333,1.917,3.491l-0.035-0.079l0.034,0.076c0.526,1.19,0.958,2.421,1.274,3.92
	c0.315,1.499,0.511,3.273,0.518,5.518l0.007,2.492H26.94v-2.5v-0.067c0.002-5.512-0.955-10.074-2.467-13.863
	c-1.124-2.842-2.505-5.179-3.77-7.155l-0.004-0.006c-0.95-1.476-1.829-2.769-2.589-3.979c-0.762-1.21-1.403-2.333-1.917-3.491
	l0.001,0.004c-0.526-1.191-0.958-2.422-1.274-3.922c-0.315-1.497-0.511-3.27-0.519-5.51c0.016-3.985,0.611-6.463,1.456-8.631
	l-0.003,0.007c0.639-1.611,1.462-3.057,2.512-4.697l0.005-0.008c1.527-2.417,3.703-5.324,5.512-9.327l0.007-0.016
	c1.821-4.027,3.053-9.024,3.05-15.217v-0.092V609.8v-0.067c0.002-5.51-0.955-10.069-2.467-13.858
	c-1.126-2.839-2.505-5.175-3.771-7.15l-0.003-0.006c-0.951-1.474-1.829-2.767-2.59-3.976s-1.403-2.332-1.917-3.488l0.002,0.005
	c-0.526-1.19-0.958-2.42-1.273-3.918c-0.315-1.495-0.511-3.266-0.519-5.504c0.016-3.982,0.611-6.459,1.456-8.627l-0.003,0.007
	c0.638-1.607,1.461-3.055,2.511-4.693l0.007-0.011l-0.002,0.003c1.529-2.42,3.71-5.332,5.52-9.341l-0.001,0.002
	c1.822-4.027,3.054-9.023,3.051-15.215v-0.097v-0.067c0.002-5.51-0.957-10.071-2.468-13.859l0.002,0.004
	c-1.126-2.84-2.506-5.176-3.772-7.151l0.023,0.035l-0.026-0.04c-0.95-1.476-1.829-2.769-2.59-3.978
	c-0.761-1.21-1.403-2.332-1.917-3.488l-0.023-0.054l0.025,0.057c-0.526-1.189-0.958-2.419-1.273-3.916
	c-0.315-1.496-0.511-3.266-0.519-5.503c0.016-3.979,0.61-6.451,1.455-8.616c0.637-1.605,1.46-3.051,2.507-4.686l0.005-0.008
	c1.53-2.418,3.711-5.328,5.521-9.337l-0.001,0.002c1.822-4.025,3.054-9.02,3.051-15.208v-0.097v-0.067
	c0.002-5.51-0.955-10.071-2.468-13.86l0.002,0.006c-1.125-2.843-2.506-5.178-3.771-7.154l-0.004-0.006
	c-0.951-1.474-1.829-2.767-2.59-3.976s-1.403-2.332-1.917-3.488l0.02,0.043l-0.018-0.038c-0.525-1.191-0.958-2.421-1.273-3.919
	c-0.315-1.495-0.511-3.266-0.519-5.504c0.016-3.98,0.61-6.455,1.455-8.619c0.637-1.607,1.46-3.051,2.508-4.689l0.005-0.007
	c1.529-2.418,3.711-5.33,5.521-9.339l0.024-0.054l-0.025,0.056c1.822-4.026,3.054-9.021,3.051-15.211v-0.097v-0.067
	c0.002-5.51-0.957-10.071-2.468-13.858l0.002,0.004c-1.126-2.84-2.506-5.176-3.772-7.152l-0.003-0.005
	c-0.95-1.475-1.829-2.768-2.59-3.976c-0.761-1.21-1.403-2.333-1.917-3.489l-0.001-0.002c-0.524-1.189-0.956-2.416-1.271-3.91
	c-0.315-1.495-0.511-3.265-0.519-5.503c0.016-3.98,0.61-6.456,1.455-8.62c0.637-1.608,1.459-3.051,2.508-4.689l0.006-0.008
	c1.528-2.419,3.709-5.328,5.52-9.338c1.821-4.025,3.053-9.02,3.05-15.211v-0.097v-0.067c0.002-5.509-0.957-10.07-2.468-13.858
	l0.002,0.004c-1.126-2.841-2.506-5.176-3.772-7.151l-0.003-0.006c-0.95-1.475-1.829-2.768-2.59-3.976
	c-0.761-1.209-1.401-2.331-1.915-3.485c-0.526-1.189-0.958-2.418-1.273-3.916c-0.315-1.495-0.511-3.265-0.519-5.503
	c0.015-3.97,0.608-6.442,1.448-8.602l0.005-0.012c0.638-1.607,1.46-3.052,2.51-4.69l0.014-0.021l-0.009,0.013
	c1.529-2.419,3.71-5.328,5.521-9.337c1.821-4.024,3.053-9.019,3.05-15.208v-0.096v-0.067c0.002-5.509-0.957-10.071-2.468-13.858
	l0.002,0.004c-1.126-2.84-2.507-5.175-3.771-7.15l-0.004-0.006c-0.951-1.474-1.829-2.766-2.59-3.975
	c-0.761-1.209-1.403-2.332-1.917-3.487c-0.525-1.188-0.957-2.416-1.272-3.912c-0.314-1.495-0.51-3.265-0.518-5.503
	c0.016-3.979,0.611-6.456,1.455-8.62l0.008-0.02l-0.01,0.025c0.638-1.609,1.46-3.053,2.51-4.69l0.006-0.01l-0.001,0.001
	c1.529-2.418,3.71-5.329,5.521-9.338c1.821-4.024,3.053-9.019,3.05-15.209v-0.096v-0.068c0.002-5.509-0.957-10.069-2.468-13.857
	l0.002,0.004c-1.126-2.84-2.507-5.175-3.772-7.15l-0.003-0.006c-0.951-1.474-1.829-2.767-2.59-3.976
	c-0.761-1.208-1.401-2.33-1.915-3.484c-0.527-1.189-0.959-2.417-1.274-3.915c-0.314-1.495-0.51-3.264-0.518-5.503
	c0.016-3.972,0.61-6.445,1.452-8.608c0.639-1.608,1.46-3.052,2.51-4.688l0.006-0.011l-0.001,0.002
	c1.53-2.418,3.71-5.328,5.521-9.335c1.822-4.024,3.054-9.017,3.051-15.205v-0.096v-0.068c0.002-5.509-0.957-10.07-2.468-13.856
	l0.002,0.004c-1.126-2.84-2.507-5.175-3.771-7.151l-0.004-0.006c-0.951-1.474-1.83-2.766-2.59-3.975
	c-0.761-1.209-1.403-2.332-1.917-3.487c-0.525-1.189-0.957-2.416-1.272-3.912c-0.314-1.494-0.51-3.264-0.518-5.502
	c0.016-3.974,0.609-6.445,1.452-8.608c0.639-1.608,1.46-3.052,2.51-4.688l0.005-0.009c1.529-2.417,3.71-5.326,5.521-9.333
	c1.822-4.024,3.054-9.018,3.051-15.205V2.5V0H12.542z M11.094,11.086l-0.009,0.023c-0.001,0.002-0.001,0.004-0.002,0.006
	L11.094,11.086z M15.852,487.302l0.004-0.01c0.001-0.001,0.001-0.001,0.001-0.002L15.852,487.302z M15.851,411.388l0.005-0.012
	c0.001-0.001,0.001-0.002,0.001-0.004L15.851,411.388z M15.851,335.469l0.005-0.013c0.001-0.001,0.001-0.002,0.001-0.003
	L15.851,335.469z"/>
</svg>
