<?xml version="1.0" encoding="utf-8"?>
<!-- Generator: Adobe Illustrator 15.0.0, SVG Export Plug-In . SVG Version: 6.00 Build 0)  -->
<!DOCTYPE svg PUBLIC "-//W3C//DTD SVG 1.1//EN" "http://www.w3.org/Graphics/SVG/1.1/DTD/svg11.dtd">
<svg version="1.1" id="Layer_1" xmlns="http://www.w3.org/2000/svg" xmlns:xlink="http://www.w3.org/1999/xlink" x="0px" y="0px"
	 width="405.637px" height="17.757px" viewBox="0 0 405.637 17.757" enable-background="new 0 0 405.637 17.757"
	 xml:space="preserve">
<path fill="#B13646" d="M405.637,9.199c-1.752,0.571-3.834,0.939-6.681,0.948c-3.429-0.007-5.756-0.546-7.723-1.319
	c-1.476-0.584-2.771-1.329-4.146-2.208c-2.053-1.304-4.283-2.969-7.306-4.331c-3.021-1.364-6.775-2.3-11.56-2.289
	c-4.253-0.007-7.688,0.724-10.522,1.854c-2.125,0.842-3.892,1.881-5.442,2.874c-2.335,1.506-4.189,2.851-6.314,3.796
	c-2.128,0.943-4.584,1.613-8.442,1.624c-3.427-0.007-5.751-0.546-7.716-1.318c-1.475-0.585-2.77-1.329-4.143-2.209
	c-2.052-1.304-4.28-2.968-7.303-4.331c-3.018-1.364-6.771-2.3-11.553-2.289c-4.253-0.007-7.688,0.724-10.523,1.854
	c-2.126,0.842-3.892,1.881-5.442,2.874c-2.335,1.506-4.19,2.851-6.315,3.796c-2.129,0.943-4.585,1.613-8.443,1.624
	c-3.428-0.007-5.754-0.546-7.719-1.318c-1.475-0.585-2.77-1.329-4.144-2.209c-2.054-1.304-4.282-2.969-7.306-4.331
	c-3.018-1.364-6.772-2.3-11.556-2.289c-4.252-0.007-7.687,0.724-10.521,1.854c-2.125,0.842-3.891,1.881-5.442,2.874
	c-2.335,1.506-4.189,2.851-6.314,3.796c-2.128,0.943-4.584,1.613-8.441,1.624c-3.428-0.007-5.754-0.546-7.719-1.318
	c-1.476-0.585-2.771-1.329-4.145-2.209c-2.053-1.304-4.283-2.969-7.305-4.331c-3.02-1.364-6.774-2.3-11.557-2.289
	c-4.253-0.007-7.687,0.724-10.522,1.854c-2.126,0.842-3.891,1.881-5.442,2.874c-2.335,1.506-4.19,2.851-6.315,3.796
	c-2.128,0.943-4.584,1.613-8.441,1.624c-3.427-0.007-5.752-0.546-7.717-1.318c-1.475-0.585-2.769-1.329-4.143-2.209
	c-2.052-1.304-4.281-2.968-7.303-4.331c-3.019-1.364-6.771-2.3-11.554-2.289c-4.253-0.007-7.687,0.724-10.522,1.854
	c-2.125,0.842-3.89,1.881-5.441,2.874c-2.335,1.506-4.189,2.851-6.313,3.796c-2.128,0.943-4.584,1.613-8.441,1.624
	c-3.427-0.007-5.753-0.546-7.718-1.318c-1.475-0.585-2.77-1.329-4.143-2.209c-2.053-1.304-4.282-2.968-7.305-4.331
	C69.556,0.925,65.802-0.011,61.019,0c-4.252-0.007-7.687,0.724-10.521,1.854c-2.125,0.842-3.89,1.881-5.442,2.874
	c-2.334,1.506-4.189,2.851-6.313,3.796c-2.128,0.943-4.583,1.613-8.44,1.624c-3.426-0.007-5.75-0.546-7.714-1.318
	C21.115,8.244,19.821,7.5,18.448,6.62c-2.052-1.304-4.28-2.968-7.301-4.33C8.217,0.965,4.585,0.052,0,0.01v7.608
	c3.2,0.048,5.425,0.569,7.309,1.31c1.474,0.585,2.768,1.329,4.141,2.209c2.052,1.304,4.28,2.968,7.301,4.331
	c3.018,1.364,6.771,2.301,11.552,2.289c4.252,0.007,7.687-0.724,10.521-1.854c2.125-0.842,3.89-1.881,5.442-2.874
	c2.334-1.506,4.189-2.851,6.313-3.796c2.128-0.943,4.583-1.612,8.44-1.623c3.428,0.006,5.753,0.545,7.718,1.318
	c1.475,0.584,2.77,1.329,4.143,2.208c2.053,1.304,4.282,2.969,7.305,4.331c3.019,1.364,6.772,2.301,11.555,2.289
	c4.252,0.007,7.687-0.724,10.521-1.854c2.125-0.842,3.891-1.881,5.442-2.874c2.335-1.506,4.189-2.851,6.313-3.796
	c2.128-0.943,4.584-1.612,8.441-1.623c3.426,0.006,5.751,0.545,7.716,1.318c1.475,0.584,2.769,1.329,4.143,2.208
	c2.052,1.304,4.281,2.969,7.303,4.331c3.019,1.364,6.772,2.301,11.555,2.289c4.252,0.007,7.687-0.724,10.522-1.854
	c2.125-0.842,3.891-1.881,5.442-2.874c2.335-1.505,4.19-2.851,6.314-3.796c2.128-0.942,4.585-1.612,8.442-1.623
	c3.428,0.006,5.754,0.545,7.72,1.318c1.475,0.584,2.77,1.329,4.143,2.209c2.054,1.303,4.283,2.968,7.306,4.33
	c3.019,1.364,6.773,2.301,11.556,2.289c4.253,0.007,7.688-0.724,10.521-1.854c2.126-0.842,3.892-1.881,5.443-2.874
	c2.334-1.505,4.189-2.851,6.314-3.796c2.128-0.942,4.584-1.612,8.44-1.623c3.428,0.006,5.754,0.545,7.72,1.318
	c1.475,0.584,2.77,1.329,4.144,2.208c2.053,1.304,4.282,2.969,7.305,4.331c3.02,1.364,6.773,2.301,11.556,2.289
	c4.254,0.007,7.688-0.723,10.523-1.854c2.125-0.841,3.891-1.881,5.443-2.874c2.335-1.505,4.189-2.851,6.313-3.796
	c2.129-0.942,4.586-1.612,8.444-1.623c3.426,0.006,5.751,0.545,7.716,1.318c1.474,0.584,2.769,1.329,4.142,2.208
	c2.053,1.304,4.28,2.969,7.303,4.331c3.019,1.364,6.771,2.301,11.554,2.289c4.253,0.007,7.688-0.723,10.522-1.854
	c2.126-0.842,3.891-1.881,5.442-2.874c2.335-1.505,4.19-2.851,6.314-3.796c2.129-0.942,4.585-1.612,8.442-1.623
	c3.43,0.006,5.756,0.545,7.723,1.318c1.476,0.584,2.771,1.329,4.145,2.209c2.054,1.303,4.284,2.968,7.307,4.33
	c3.021,1.364,6.774,2.301,11.56,2.289c2.496,0.004,4.704-0.252,6.681-0.687V9.199z"/>
</svg>
