<?xml version="1.0" encoding="utf-8"?>
<!-- Generator: Adobe Illustrator 15.0.0, SVG Export Plug-In . SVG Version: 6.00 Build 0)  -->
<!DOCTYPE svg PUBLIC "-//W3C//DTD SVG 1.1//EN" "http://www.w3.org/Graphics/SVG/1.1/DTD/svg11.dtd">
<svg version="1.1" id="Layer_1" xmlns="http://www.w3.org/2000/svg" xmlns:xlink="http://www.w3.org/1999/xlink" x="0px" y="0px"
	 width="215.575px" height="90.627px" viewBox="0 0 215.575 90.627" enable-background="new 0 0 215.575 90.627"
	 xml:space="preserve">
<path opacity="0.1" d="M6.169,68.937V68.92c-0.115,0.008-0.23,0.017-0.348,0.017C2.606,68.937,0,66.331,0,63.116
	c0-2.013,1.022-3.782,2.573-4.828v-0.936C1.022,56.307,0,54.537,0,52.524c0-0.021,0.003-0.044,0.004-0.065
	C0.003,52.437,0,52.415,0,52.393c0-2.012,1.022-3.782,2.573-4.828V46.63C1.022,45.585,0,43.813,0,41.803
	c0-0.023,0.003-0.044,0.004-0.067C0.003,41.714,0,41.692,0,41.67c0-2.011,1.022-3.782,2.573-4.827v-0.935
	C1.022,34.861,0,33.092,0,31.08c0-0.022,0.003-0.044,0.004-0.066C0.003,30.991,0,30.97,0,30.948c0-2.013,1.022-3.782,2.573-4.828
	v-0.936C1.022,24.139,0,22.369,0,20.356c0-0.021,0.003-0.043,0.004-0.065C0.003,20.269,0,20.247,0,20.225
	c0-2.012,1.022-3.782,2.573-4.828v-0.935C1.022,13.417,0,11.646,0,9.635C0,6.42,2.606,3.812,5.821,3.812
	c0.118,0,0.233,0.01,0.348,0.019V3.733h45.376c1.749,0,3.166,1.417,3.166,3.165v58.71c0,1.838-1.49,3.328-3.328,3.328H6.169z"/>
<path fill="#F4F3C7" d="M6.169,64.597v-0.018c-0.115,0.009-0.23,0.018-0.348,0.018C2.606,64.597,0,61.99,0,58.775
	c0-2.012,1.022-3.782,2.573-4.828v-0.935C1.022,51.967,0,50.196,0,48.185c0-0.022,0.003-0.044,0.004-0.066
	C0.003,48.097,0,48.074,0,48.053c0-2.013,1.022-3.782,2.573-4.828v-0.936C1.022,41.244,0,39.474,0,37.463
	c0-0.023,0.003-0.044,0.004-0.067C0.003,37.373,0,37.353,0,37.329c0-2.011,1.022-3.781,2.573-4.826v-0.936
	C1.022,30.521,0,28.752,0,26.739c0-0.021,0.003-0.044,0.004-0.065C0.003,26.65,0,26.63,0,26.607c0-2.012,1.022-3.782,2.573-4.828
	v-0.935C1.022,19.799,0,18.028,0,16.017c0-0.022,0.003-0.043,0.004-0.066C0.003,15.929,0,15.906,0,15.885
	c0-2.013,1.022-3.782,2.573-4.828v-0.936C1.022,9.076,0,7.306,0,5.295c0-3.216,2.606-5.822,5.821-5.822
	c0.118,0,0.233,0.009,0.348,0.018v-0.097h45.376c1.749,0,3.166,1.417,3.166,3.165v58.71c0,1.838-1.49,3.328-3.328,3.328H6.169z"/>
<path fill="#DFDBAC" d="M51.383,64.597H30.316V20.777L53.288,2.703c0.853-0.748,0.803-1.92,0.187-2.65
	c0.751,0.579,1.236,1.484,1.236,2.506v58.71C54.711,63.106,53.221,64.597,51.383,64.597"/>
<path opacity="0.1" d="M182.462,24.816h-22.06H54.711H32.652c-1.78,0-3.222,1.443-3.222,3.223v58.759
	c0,1.78,1.442,3.222,3.222,3.222h22.059h105.691h22.06c1.78,0,3.222-1.441,3.222-3.222V28.039
	C185.684,26.26,184.243,24.816,182.462,24.816"/>
<path fill="#FFFFFF" d="M182.462,19.934H32.47c-1.779,0-3.222,1.443-3.222,3.223v58.759c0,1.78,1.443,3.222,3.222,3.222h149.992
	c1.78,0,3.222-1.441,3.222-3.222V23.156C185.684,21.377,184.243,19.934,182.462,19.934"/>
</svg>
